<?xml version="1.0" encoding="utf-8"?>
<!-- Generator: Adobe Illustrator 25.4.1, SVG Export Plug-In . SVG Version: 6.00 Build 0)  -->
<svg version="1.1" id="Capa_1" xmlns="http://www.w3.org/2000/svg" xmlns:xlink="http://www.w3.org/1999/xlink" x="0px" y="0px"
	 viewBox="0 0 595.28 841.89" style="enable-background:new 0 0 595.28 841.89;" xml:space="preserve">
<style type="text/css">
	.st0{fill:#F7F6F6;}
	.st1{fill:#050606;}
	.st2{fill:#EDEDED;}
	.st3{fill:#E5E4E4;}
	.st4{fill:#E0DFE0;}
</style>
<g>
	<path class="st0" d="M571.24,168.57c-8.89,113.36-22.51,225.93-60.93,333.92c-7.59,21.31-9.4,41.19-3.83,63.85
		c27.08,110.22-28.55,204.82-137.22,237.1c-61.74,18.34-123.67,18.8-185.5,2.11c-73.57-19.83-145.59-94.02-138.91-199.57
		c2.72-43.06,10.36-84.32,39.91-117.88c9.75-11.05,5.01-19.64-0.47-29.51C32.21,364.55,11.19,263,13.01,156.37
		c0.66-38.56,9.52-76.02,21.43-112.7c4.84-14.92,11.61-27.42,29.65-29.09c20.6-1.89,39.35-2.99,55.26,16.13
		c31.1,37.41,43.37,82.85,58.47,127.11c23.07,67.55,43.47,135.43,42.42,208.43c-0.52,34.66,3.22,32.3,31.76,27.1
		c25.95-4.74,53.07-7.24,79.29,0.81c14.8,4.54,18.8-0.54,19.98-15.34c7.14-89.28,21.68-177.21,51.25-262.11
		c7.49-21.5,16.5-42.39,29.58-61.2c17.33-24.92,40.99-40.06,71.73-36.16c28.08,3.56,41.63,25.16,50.2,50.2
		C564.98,101.63,573.4,134.1,571.24,168.57z"/>
	<path class="st1" d="M485.45,493.5c-2.23-0.56-3.09-0.59-3.73-0.96c-10.09-5.84-20.13-21.99-31.69-9.94
		c-9.5,9.92,6.31,18.63,12.03,26.76c51.89,73.99,50.03,215.99-70.16,266.04c-72.07,30.02-145.1,35.08-217.49,8.05
		C56.14,739.29,37.68,606.86,83.76,516.33c11-21.63,26.56-40.65,44.26-57.59c3.93-3.76,9.92-7.63,6.31-13.48
		c-3.56-5.77-10.83-3.9-14.61-0.25c-15.51,14.95-17.75,0.96-23.42-9.3c-54.76-99.17-64.78-206.59-58.23-316.9
		c1.01-17.06,4.34-34.32,9.13-50.74c4.69-16.03,8.54-33.75,31.64-35.42c22.36-1.62,29.9,13.5,37.75,29.04
		c19.86,39.23,33.43,80.83,47.82,122.32c23.3,67.26,34.86,136.36,40.33,206.83c1.42,18.24,5.96,25.7,27.64,20.69
		c36.01-8.3,73.42-8.71,109.7-0.25c18.61,4.34,25.01-0.12,27.25-18.75c10.8-89.57,27.54-177.94,56.16-263.73
		c8.76-26.24,19.81-51.23,38.42-72.05c9.5-10.63,20.57-21.82,36.28-16.18c16.57,5.94,30.46,16.77,34.02,35.74
		c17.87,95.34,17.72,189.97-10.58,283.74C510.41,404.12,508.5,451.4,485.45,493.5z"/>
	<path class="st2" d="M263.17,668.89c-7.95-1.82-21.77,5.62-24.45-4.88c-3.02-11.83,10.75-17.62,20.18-22.58
		c19.34-10.19,48.16-6.26,61.56,7.51c3.22,3.31,7.41,6.41,5.08,11.88c-1.89,4.49-6.38,3.63-10.14,3.95
		C298.25,666.16,281.07,667.49,263.17,668.89z"/>
	<path class="st3" d="M434.34,578.87c-0.64,1.18-1.35,3.63-2.11,3.66c-18.16,0.61-18.98,12.69-18.31,26.44
		c0.1,1.91-3.63,5.35-5.99,5.77c-4.44,0.79-7.54-3.09-7.9-6.87c-1.13-12.3-0.15-24.38-17.65-27.3c-6.95-1.15-4.98-10.14,1.6-11.19
		c9.6-1.55,15.44-4.91,16.84-14.85c0.15-1.03,3.17-2.75,3.44-2.5C414.36,560.85,424.3,569.84,434.34,578.87z"/>
	<path class="st4" d="M177.99,592.96c-23.05,0.12-17.33,21.9-25.8,34.12c-2.28,3.29-7.61-3.19-8.67-7.76
		c-1.2-5.28,0.02-14.53-2.53-15.61c-28.38-11.93-9.48-21.16,0.42-32.57c5.82-6.7,9.57-12.91,13.11-0.17
		c2.41,8.64,7.93,10.58,14.85,12.37C173.18,584.32,176.89,585.6,177.99,592.96z"/>
</g>
</svg>
