<?xml version="1.0" encoding="utf-8"?>
<!-- Generator: Adobe Illustrator 25.4.1, SVG Export Plug-In . SVG Version: 6.00 Build 0)  -->
<svg version="1.1" id="Capa_1" xmlns="http://www.w3.org/2000/svg" xmlns:xlink="http://www.w3.org/1999/xlink" x="0px" y="0px"
	 viewBox="0 0 595.28 841.89" style="enable-background:new 0 0 595.28 841.89;" xml:space="preserve">
<style type="text/css">
	.st0{fill:#FFFFFF;}
</style>
<g>
	<path d="M583.76,161.14c-0.2,1.45-0.52,2.9-0.56,4.37c-0.67,18.8-0.81,37.62-2.08,56.4c-1.44,21.31-3.28,42.62-6.01,63.81
		c-2.81,21.7-6.29,43.36-10.58,64.82c-4.58,22.93-10.34,45.62-15.78,68.38c-5.37,22.51-11.44,44.84-21.37,65.97
		c-2.82,6-6.18,11.75-9.18,17.68c-0.53,1.03-0.67,2.32-0.73,3.5c-0.81,18.6,2.18,36.84,5.36,55.13c4.23,24.42,4.73,48.89,1.6,73.59
		c-2,15.81-6.45,30.63-13.05,45.04c-3.88,8.46-7.37,17.12-13.86,24.21c-1.1,1.2-2.08,2.58-2.85,4.02
		c-8.65,15.99-22.43,27.26-36.56,38.5c-18.81,14.93-39.79,26.36-62.34,34.28c-18,6.31-37.11,10.02-55.99,13.51
		c-19.45,3.59-39.22,5.67-58.89,8.08c-11.9,1.47-23.66-0.31-35.41-2.36c-14.84-2.58-29.52-5.47-43.51-11.19
		c-4.45-1.81-9.5-2.19-14.14-3.67c-16.04-5.15-31.89-10.76-46.4-19.37c-3.45-2.05-7.2-3.63-10.65-5.68
		c-2.74-1.62-5.51-3.32-7.76-5.48c-12.06-11.64-24.51-22.96-35.71-35.34c-7.66-8.47-14-18.21-19.98-27.93
		c-4.16-6.75-5.29-15.56-10.29-21.45c-8.96-10.54-11.19-23.03-13.73-35.31c-3.56-17.26-4.08-34.88-3.18-52.53
		c1.79-34.88,14.29-66.36,31.86-96.34c5.51-9.41,10.77-18.95,15.95-28.54c0.73-1.33,0.77-3.36,0.33-4.86
		c-2.83-9.62-7.9-18.1-14.29-25.96c-9.21-11.33-14.44-24.7-19.55-37.97c-12.56-32.56-23.03-65.69-28.47-100.17
		c-2.44-15.48-6.43-30.76-8.5-46.28c-2.55-19.16-4.52-38.45-5.46-57.74c-0.89-18.09-0.85-36.29,2.3-54.29
		c5.71-32.49,11.49-64.95,22.64-96.24c0.1-0.25,0.18-0.52,0.27-0.77c5.58-17.12,18.8-24.7,36.17-27.12
		c4.13-0.57,8.26-1.12,12.39-1.67c4.48,0,8.97,0,13.45,0c7.16,1.88,13.97,4.44,19.9,8.96c9.82,7.49,17.22,16.82,23.75,27.07
		c19.51,30.63,35.77,62.72,46.78,97.13c7.89,24.62,15.31,49.38,23.29,73.98c9.56,29.43,18.27,58.95,19.45,90.13
		c0.66,17.42,2.41,34.81,4.01,52.19c0.71,7.76,2.27,15.45,3.41,22.86c5.3-0.74,10.34-1.63,15.44-2.09
		c4.98-0.46,10.08-0.04,15.02-0.75c17.01-2.48,34-3.2,50.98-0.24c8.07,1.41,16.05,3.22,24.6,4.97c1.67-9.39,3.68-18.49,4.86-27.69
		c1.8-14.22,2.62-28.55,4.61-42.75c2.26-16.19,5.01-32.34,8.16-48.38c5.67-28.9,11.12-57.83,19.96-86.11
		c8.36-26.73,13.69-54.34,24.8-80.26c7.03-16.41,15.59-32.01,28.46-45.09c12.87-13.09,26.52-24.79,45.19-29.75
		c12.04-3.21,23.98-5.46,36.33-2.15c25.01,6.68,40.61,23.07,49.47,45.86c9.88,25.39,15.03,51.71,15.24,78.89
		c0.04,5.64,0.53,11.28,0.81,16.9C583.76,158.97,583.76,160.06,583.76,161.14z M489.32,483.47c1.86-3.99,3.36-6.85,4.55-9.84
		c14.82-36.98,25.65-75.12,34.26-113.84c5.14-23.1,9.59-46.36,13.48-69.7c3.46-20.79,6.63-41.71,8.3-62.7
		c1.88-23.6,2.15-47.32,2.71-71.01c0.57-23.59-0.71-47.05-6.75-70.07c-4.37-16.64-12.63-30.7-28.47-39.45
		c-11.96-6.6-24.14-7.09-36.02,0.57c-11.28,7.28-19.01,17.47-25.15,28.9c-20.33,37.83-35.1,77.76-45.55,119.03
		c-8.57,33.8-15.49,68.02-22.15,102.24c-4.83,24.81-9.29,49.72-10.42,75.1c-0.33,7.4-2.62,14.9-5.14,21.98
		c-2.58,7.28-6.28,8.89-14.1,7.38c-18.27-3.52-36.58-6.73-55.24-7.08c-14.96-0.28-29.98-0.49-44.9,0.36
		c-11.82,0.67-23.53,3.04-35.31,4.51c-6.7,0.84-10.49-1.38-11.35-7.8c-2.54-19.29-5.28-38.6-6.6-57.99
		c-1.83-26.66-4.91-53.06-12.67-78.75c-11.01-36.4-22.5-72.65-33.44-109.05c-8.96-29.77-19.71-58.84-34.65-86.33
		c-5.21-9.57-11.95-18.28-21.95-23.5c-16.71-8.72-29.61-5.83-39.43,9c-2.47,3.73-4.45,7.83-6.15,11.95
		c-7.89,18.99-11.71,39.02-13.22,59.21c-2,26.82-2.71,53.76-3.22,80.66c-0.45,23.17,2.44,46.15,6.14,69.04
		c6.45,39.91,16.55,78.84,33.02,116.07c7.61,17.19,16.58,33.69,27.77,48.98c4.14,5.67,4.97,5.85,11.21,2.37
		c3.03-1.69,6.07-3.43,8.79-5.54c3.29-2.54,5.78-0.56,8.29,0.96c2.6,1.56,3.53,4.19,2.04,6.7c-1.97,3.32-4.24,6.62-6.99,9.35
		c-5.95,5.92-12.62,11.18-18.37,17.25c-19.4,20.47-35.1,43.25-43.32,70.1c-7.34,23.99-8.68,48.71-6.96,73.55
		c1.05,15.25,3.21,30.4,7.95,45.08c16.64,51.51,53.98,84.56,102.97,106.71c25.51,11.54,53.38,13.48,81.01,15.56
		c27.05,2.02,53.98,0.45,80.8-3.24c27.98-3.84,53.53-13.86,77.69-27.8c21.14-12.2,40.05-26.81,55.04-45.82
		c17.17-21.74,25.85-46.61,29.49-73.55c3.11-22.99,1.62-45.68-3.32-68.16c-5.72-26.03-16.45-49.91-34.62-70.27
		c-3.27-3.66-5.15-7.69-4.26-12.64c0.89-5.02,5.35-7.98,10.1-5.9c4.24,1.86,8.15,4.58,11.9,7.31
		C481.09,476.29,484.72,479.64,489.32,483.47z"/>
	<path class="st0" d="M583.76,157.89c-0.28-5.64-0.77-11.26-0.81-16.9c-0.21-27.19-5.37-53.51-15.24-78.89
		c-8.86-22.79-24.48-39.17-49.47-45.86c-12.35-3.31-24.28-1.06-36.33,2.15c-18.67,4.97-32.31,16.65-45.19,29.75
		c-12.87,13.09-21.42,28.68-28.46,45.09c-11.11,25.92-16.44,53.53-24.8,80.26c-8.83,28.27-14.29,57.2-19.96,86.11
		c-3.15,16.05-5.9,32.2-8.16,48.38c-1.98,14.19-2.81,28.53-4.61,42.75c-1.17,9.2-3.17,18.28-4.86,27.69
		c-8.55-1.74-16.55-3.57-24.6-4.97c-16.98-2.96-33.98-2.26-50.98,0.24c-4.93,0.73-10.02,0.31-15.02,0.75
		c-5.09,0.46-10.13,1.35-15.44,2.09c-1.13-7.41-2.69-15.1-3.41-22.86c-1.6-17.38-3.35-34.76-4.01-52.19
		c-1.19-31.18-9.89-60.68-19.45-90.13c-7.98-24.59-15.42-49.35-23.29-73.98c-11.03-34.43-27.27-66.5-46.78-97.13
		c-6.53-10.26-13.93-19.58-23.75-27.07c-5.93-4.52-12.74-7.08-19.9-8.96c161.51,0,323.01,0,484.52,0
		C583.76,55.49,583.76,106.7,583.76,157.89z"/>
	<path class="st0" d="M489.32,483.47c-4.61-3.82-8.23-7.19-12.23-10.08c-3.75-2.72-7.66-5.46-11.9-7.31
		c-4.76-2.08-9.21,0.88-10.1,5.9c-0.88,4.95,1,8.99,4.26,12.64c18.17,20.36,28.9,44.24,34.62,70.27
		c4.94,22.48,6.43,45.17,3.32,68.16c-3.64,26.93-12.32,51.8-29.49,73.55c-15,18.99-33.91,33.61-55.04,45.82
		c-24.16,13.94-49.71,23.96-77.69,27.8c-26.82,3.68-53.76,5.26-80.8,3.24c-27.63-2.07-55.5-4.02-81.01-15.56
		c-48.97-22.15-86.33-55.2-102.97-106.71c-4.74-14.68-6.89-29.82-7.95-45.08c-1.72-24.84-0.38-49.56,6.96-73.55
		c8.22-26.85,23.92-49.63,43.32-70.1c5.75-6.07,12.43-11.33,18.37-17.25c2.75-2.74,5.01-6.03,6.99-9.35
		c1.49-2.51,0.56-5.14-2.04-6.7c-2.51-1.52-5.01-3.5-8.29-0.96c-2.72,2.09-5.76,3.85-8.79,5.54c-6.24,3.48-7.08,3.29-11.21-2.37
		c-11.18-15.31-20.17-31.79-27.77-48.98C63.4,345.16,53.3,306.24,46.85,266.32c-3.7-22.89-6.59-45.87-6.14-69.04
		c0.52-26.91,1.23-53.84,3.22-80.66c1.51-20.19,5.33-40.22,13.22-59.21c1.7-4.12,3.7-8.22,6.15-11.95
		c9.81-14.84,22.72-17.72,39.43-9c10.01,5.22,16.75,13.93,21.95,23.5c14.95,27.48,25.71,56.55,34.65,86.33
		c10.96,36.41,22.44,72.67,33.44,109.05c7.77,25.69,10.84,52.08,12.67,78.75c1.33,19.38,4.06,38.7,6.6,57.99
		c0.84,6.41,4.63,8.62,11.35,7.8c11.78-1.47,23.49-3.85,35.31-4.51c14.92-0.84,29.94-0.64,44.9-0.36
		c18.66,0.35,36.97,3.56,55.24,7.08c7.82,1.51,11.5-0.1,14.1-7.38c2.51-7.08,4.81-14.58,5.14-21.98c1.13-25.37,5.6-50.28,10.42-75.1
		c6.66-34.22,13.58-68.44,22.15-102.24c10.47-41.25,25.23-81.19,45.55-119.03c6.14-11.43,13.89-21.62,25.15-28.9
		c11.88-7.68,24.06-7.17,36.02-0.57c15.84,8.75,24.09,22.8,28.47,39.45c6.06,23.03,7.33,46.49,6.75,70.07
		c-0.57,23.68-0.84,47.41-2.71,71.01c-1.67,20.99-4.84,41.91-8.3,62.7c-3.89,23.33-8.35,46.6-13.48,69.7
		c-8.61,38.71-19.44,76.84-34.26,113.84C492.69,476.61,491.18,479.48,489.32,483.47z M301.94,647.41c0.01,0.39,0.01,0.78,0.03,1.16
		c7.26-0.39,14.54-0.6,21.79-1.24c8.58-0.77,12.21-7.17,8.12-14.42c-1.51-2.67-3.64-5.22-6.07-7.13
		c-19.05-15.07-50.31-15.42-69.58-4.16c-7.19,4.2-12.43,10.08-14.51,18.14c-1.26,4.9,0.84,7.59,6.07,7.62
		C265.82,647.46,283.88,647.41,301.94,647.41z M437.27,563.22c-0.73-3.95-1.26-7.84-6.53-8.12c-3.07-0.17-6.15-0.28-9.22-0.32
		c-3.03-0.04-4.66-1.26-4.68-4.37c-0.03-3.08,0.17-6.28-0.61-9.21c-0.52-1.9-2.32-4.34-4.06-4.83s-5.14,0.56-6.03,1.97
		c-2.12,3.36-3.8,7.23-4.54,11.09c-0.68,3.54-2.22,3.94-5.36,3.66c-3.29-0.29-6.71-0.31-9.95,0.22c-3.1,0.52-4.55,2.86-4.4,6.01
		c0.15,3.13,2.07,4.76,5,5.05c3.04,0.29,6.14,0.14,9.21,0.11c5.88-0.06,6.46,0.46,6.55,6.2c0.01,0.8-0.22,1.6-0.27,2.41
		c-0.31,6.96-0.18,13.94,3.89,19.97c1.13,1.66,3.96,2.89,6.13,3.08c2.9,0.27,3.14-2.5,3.38-4.68c0.77-6.98,1.38-13.98,2.36-20.93
		c0.53-3.78,2.92-5.53,7.15-4.87C429.47,566.29,433.58,565.79,437.27,563.22z M162.41,563.64c-0.31-4.94-0.29-8.49-0.81-11.95
		c-0.56-3.68-3.52-5.57-7.66-5.33c-3.8,0.22-5.76,2.02-5.97,5.9c-0.18,3.46-0.94,6.91-1.48,10.62c-2.48,0-4.58-0.01-6.67,0
		c-2.11,0.03-4.2,0.14-6.31,0.11c-4.12-0.06-4.66,2.97-5.01,5.76c-0.39,3.08,2.04,3.85,4.62,3.98c1.81,0.1,3.63-0.04,5.44-0.13
		c5.58-0.25,8.15,1.7,8.61,7.08c0.46,5.25,0.17,10.61,1.03,15.77c0.52,3.13,1.97,6.6,4.19,8.82c3.03,3.04,6.8,1.38,7.41-2.86
		c0.49-3.34,0.43-6.74,0.78-10.1c0.4-4.02,0.91-8.02,1.51-12.02c0.42-2.75,2.25-3.82,5.08-3.67c2.79,0.14,5.61,0.24,8.4,0.1
		c4.49-0.24,6.98-2.34,6.89-5.51c-0.11-3.82-2.62-6.36-6.96-6.56C171.13,563.48,166.71,563.64,162.41,563.64z"/>
	<path d="M301.94,647.41c-18.06,0-36.12,0.04-54.19-0.03c-5.22-0.01-7.33-2.72-6.07-7.62c2.08-8.08,7.33-13.94,14.51-18.14
		c19.27-11.26,50.53-10.93,69.58,4.16c2.43,1.93,4.56,4.47,6.07,7.13c4.09,7.24,0.46,13.66-8.12,14.42
		c-7.24,0.64-14.51,0.84-21.79,1.24C301.95,648.18,301.95,647.8,301.94,647.41z"/>
	<path d="M437.27,563.22c-3.68,2.57-7.8,3.08-12.02,2.43c-4.23-0.66-6.62,1.09-7.15,4.87c-0.98,6.95-1.58,13.96-2.36,20.93
		c-0.24,2.19-0.47,4.95-3.38,4.68c-2.18-0.2-5.01-1.42-6.13-3.08c-4.08-6.03-4.2-13.02-3.89-19.97c0.04-0.81,0.27-1.6,0.27-2.41
		c-0.07-5.74-0.66-6.25-6.55-6.2c-3.07,0.03-6.17,0.2-9.21-0.11c-2.93-0.28-4.84-1.93-5-5.05c-0.15-3.15,1.3-5.5,4.4-6.01
		c3.24-0.53,6.66-0.52,9.95-0.22c3.14,0.28,4.68-0.1,5.36-3.66c0.74-3.87,2.4-7.73,4.54-11.09c0.89-1.42,4.28-2.46,6.03-1.97
		s3.54,2.92,4.06,4.83c0.78,2.93,0.6,6.13,0.61,9.21c0.03,3.11,1.65,4.33,4.68,4.37c3.08,0.04,6.15,0.17,9.22,0.32
		C436.03,555.37,436.56,559.25,437.27,563.22z"/>
	<path d="M162.41,563.64c4.3,0,8.71-0.14,13.12,0.04c4.34,0.18,6.85,2.72,6.96,6.56c0.08,3.18-2.41,5.28-6.89,5.51
		c-2.79,0.14-5.61,0.06-8.4-0.1c-2.83-0.14-4.66,0.94-5.08,3.67c-0.6,3.99-1.1,8.01-1.51,12.02c-0.33,3.36-0.29,6.77-0.78,10.1
		c-0.63,4.24-4.38,5.9-7.41,2.86c-2.22-2.22-3.67-5.71-4.19-8.82c-0.87-5.18-0.57-10.52-1.03-15.77c-0.46-5.36-3.03-7.33-8.61-7.08
		c-1.81,0.08-3.64,0.22-5.44,0.13c-2.58-0.13-5-0.89-4.62-3.98c0.35-2.78,0.88-5.82,5.01-5.76c2.09,0.03,4.2-0.1,6.31-0.11
		c2.09-0.03,4.17,0,6.67,0c0.54-3.73,1.3-7.16,1.48-10.62c0.21-3.88,2.18-5.68,5.97-5.9c4.13-0.25,7.1,1.63,7.66,5.33
		C162.13,555.15,162.1,558.7,162.41,563.64z"/>
</g>
</svg>
