<?xml version="1.0" encoding="utf-8"?>
<!-- Generator: Adobe Illustrator 25.4.1, SVG Export Plug-In . SVG Version: 6.00 Build 0)  -->
<svg version="1.1" id="Capa_1" xmlns="http://www.w3.org/2000/svg" xmlns:xlink="http://www.w3.org/1999/xlink" x="0px" y="0px"
	 viewBox="0 0 595.3 841.9" style="enable-background:new 0 0 595.3 841.9;" xml:space="preserve">
<style type="text/css">
	.st0{fill:#1D1D1B;}
	.st1{fill:#DADADA;}
	.st2{fill:#FEF5F5;}
</style>
<path class="st0" d="M466.1,401.4c-0.4,12.7-5.8,24.4-11.6,36.1c2.5,6.6-1.3,11.2-7.9,14.9c-12.6,18.2-21.2,37.4-24.3,58
	c-1.5,10.7-13.2,16.8-18.6,25.8c-22.8,28.6-35.6,60.9-53.6,91.2c-19.1,32-35.6,65-47.6,99.2c-8.9,10.1-16.8,11.4-22.9-1.7
	c0.5-1,0.1-1.8-1-2.4c-20.1-13.2-27.7-32.1-37-50.2c-3.5-6.3-6.9-12.6-10.4-18.9c-6.2-1.8-4.2-7.4-8-10.4
	c-15.7-23.4-34.5-45.4-47.2-70.1c-9.8-8.7-21.4-16.6-21.7-29.5c-9.5-14.5-19-29-28.5-43.5c-19-16.9-29.5-37.2-37.6-58.4v0
	c-8.4-6-8-14.1-9-22c-12.6-25.5-7.8-52.4-9.1-78.7c-0.5-10.4,13.3-15,19.7-22.7c14.9-3.2,11.7,6,11.7,11.4
	c0.1,13.7,1.1,27.2,9.2,39.7c4.2-24,5.8-47.4-14-68.7c-7.5-8.1-16.5-16.2-16.8-27.2c-3.6-4.7-7.3-9.5-10.9-14.2
	c-10.7-20.4-19.6-40.9-8.8-63.5c8.8,2.8,9.2,7.5,9.4,11.5c1,14.1,9.1,27.7,21,35.5c29.3,19.2,51.1,41.6,64.8,69.3
	c1.8,3.6,5.4,8,12.2,6.5c5.9-1.3,8.2-5.4,8.9-9.8c2.1-11.8,0-23.5-8.3-33.2c-27.1-32-35.9-66.2-23.9-103.5l-0.1,0
	c-1.9-29.9-10.4-59.2-13.7-88.9l0-1.1c2.3-4.8,4.7-9.3,12.4-4.2l-0.5-0.4c17,11.4,24.5,26.7,29.3,43.2c0.3,1.2,0.6,2.4,0.9,3.5
	c7.9,3.1,10,8.3,8.5,14.7c1.8,6.1,3.6,12.2,5.5,18.3c8.4,12.8,9.5,26.8,10.8,40.7c1.1,12.3,3.9,24.4,12.7,34.7
	c19.7,23.1,32.9,48,41,74.9c1.6,5.4,2.8,14.3,12.4,12.8c8.5-1.3,7.4-9.8,7.2-15.8c-0.7-16.4-9.7-30.4-20.7-43.9
	c-17.3-21.3-30.8-43.7-29.5-69.8c0.4-8.5,0.5-17.2,10.9-22.9c1.1-0.9,1.5-1.9,1-3.1c-1.1-12.8,3.2-25,7.6-37
	c2.6-7,5.3-16.1,19.6-9.6c7.9,14.6-0.1,30.3,4.6,45.3c1.9,6.2,2.2,12.9,5.5,19.1c26.1,33.3,51.4,66.9,55.7,107.5
	c9.2-15.5,5.9-30.5,1.9-45.7c-3.5-13.3-9.8-27,2.1-40c-3.7-12.1,11.4-20.4,10.5-31.9c1.9-6.3-3.5-13.7,4.7-19.1l0.9-0.9l-1-0.8
	c2.8-10.7,3.4-20.4-5.3-30.6c-8.5-10-9-22.4-8.5-34.5c0.2-1.8-4.6-3.8-0.4-5.2c6.5-2.2,12.4-0.6,17.6,3c6,2.4,8.2,6.8,9.6,11.6
	c1,3.5-1.4,7.8,3.6,10.5c16,9.5,14.5,23.5,15.1,36.9c-0.8,1-0.7,2,0.3,2.9c9.2,25.3,3,51.8,9.4,77.3c1.3,2.9,1.8,5.9,2.1,9
	c20.3,50,16.1,102.3,24.7,153.6c1.1-45.8-20.4-91.5-1.2-137.2c-2.2-15-7-29.6-10.3-44.4c-1.7-7.5-5.5-15.3,2-22.4
	c7.3-3.4,11.7-0.5,15.3,4.2c0.6,3.9,3.6,6.3,8.2,7.6c15.3,16.2,23,34.1,20.6,54.4c5.2,10.8,8.9,21.1,4.4,33.3
	c-5.9,16,2.3,31.8,9.2,46.7c8.9,19.2,6.8,38.9,8.3,58.5C472,392.1,469,396.7,466.1,401.4z"/>
<path class="st1" d="M279.4,724.9c6.6,9.4,14.8,5.7,22.9,1.7c0.3,7.9-4.7,13.2-14.5,12.4C277.7,738.1,279.2,730.8,279.4,724.9z"/>
<path class="st2" d="M247.8,165.5c7.7,22,15.3,43.1,31.8,62.3c14,16.2,19.2,35.5,22.5,54.9c1,6,1.6,12.2,4,17.9
	c3.4,7.8,6.1,18.4,18.6,18.7c13.7,0.4,19.4-9.8,21.5-18.7c4-17,12-34.2,3.1-51.7c-13.9-27.4-0.1-53.5,6-79.9
	c1.2-5.3,3.3-10.5,5.3-16.9c5.3,15.1,8.3,28.7,3.5,43.7c-5,15.6,0.1,31.9,5.6,46.6c13.5,36,16.1,72.5,16.1,109.6
	c0,18.1,2.7,36.3,12.3,53.3c3.1,5.4,5,12.2,15.7,10.7c8.9-1.2,12.3-6,14.5-12.5c7.5-22.8,9.7-46.4,0.1-68.3
	c-13-29.7-1.8-56.9,5.5-88.5c6.1,16.1,7.7,28.9,4.6,42c-2.8,11.7-0.2,23.5,5.4,33.9c22.7,42,10.2,82.6-8.2,122.1
	C393,535.8,333.6,621.7,290.8,717c-16.3-22.9-31.2-43.4-45.6-64.1c-40.4-58.4-77.3-118.2-120.6-175.3
	c-23.2-30.7-41.2-78.6-39.6-104.8c1.3,0.5,3.2,0.8,3.8,1.6c6.6,9.1,9.7,23.3,28.4,18.8c15.7-3.7,15.5-16.3,16.7-27.4
	c3.9-34.8-7.8-65.7-37.1-92.3c-5.4-4.9-9.7-10.4-16.4-17.7c27.4,10.7,40.7,21.9,53,42.8c3.5,6,6.9,12.1,10.9,17.9
	c4.8,6.9,9.4,14.2,22.6,12.3c12.6-1.8,18.2-8.8,20.9-17.4c4.8-14.9,0.9-30.3-9.4-41.9c-28-31.3-33.1-64.4-20.3-100.1
	c4.7-13.2,1.5-26.4-0.1-42.8c15.8,17.4,17.4,34.7,17.2,51.5c-0.3,30,7.3,57.2,32.4,81.2c12.2,11.8,16,27.5,19.5,42.4
	c2.3,9.7,6.9,18.6,11.9,27.4c3.6,6.4,6.8,14.5,19,13.5c11.1-1,21-4.1,26.4-12.7c8.5-13.5,10.2-26.9,4.9-42
	c-7.7-22.1-27.9-38.8-38.7-59.6C239.3,207.3,238.2,186.7,247.8,165.5z"/>
<path class="st0" d="M272.1,421.4c8-6.2,9.3-13.5,11.2-20.6c3.3-12,12.5-20.9,25.1-27.2c16.1-8.1,30.6-4.2,41.1,8.6
	c21.2,26,16.3,53.7,7.5,80.9c-18.9,58.4-39.4,116.5-59.4,174.6c-1.5,4.5-1.6,10.5-8.5,11.8c-6.3,1.2-6.4-4.2-7.8-7.3
	c-29.5-68-67.5-133.6-90.2-203.5c-3.2-9.9-7-19.8-9.4-29.9c-3-12.2,0.4-22.1,15.9-29.2c15.6-7.1,28.4-3.9,40.3,3.7
	C253,393.2,262.4,406.6,272.1,421.4z"/>
</svg>
