<?xml version="1.0" encoding="utf-8"?>
<!-- Generator: Adobe Illustrator 25.4.1, SVG Export Plug-In . SVG Version: 6.00 Build 0)  -->
<svg version="1.1" id="Capa_1" xmlns="http://www.w3.org/2000/svg" xmlns:xlink="http://www.w3.org/1999/xlink" x="0px" y="0px"
	 viewBox="0 0 595.3 841.9" style="enable-background:new 0 0 595.3 841.9;" xml:space="preserve">
<style type="text/css">
	.st0{fill:#FFFFFF;}
	.st1{fill:#1D1D1B;}
</style>
<path class="st0" d="M299.3,219.1c71.2-70.8,141.3-81.7,213.5-33.3c66.2,44.4,86.6,129.2,51.8,214c-18.3,44.7-49.5,80.1-82.9,113.5
	c-51.9,51.9-104.5,103.1-157.3,154.2c-12.2,11.8-23.5,29.7-43.9,8.5c-76.5-80-166.1-147.8-228.7-240.7
	C-13.3,338.6,7.8,228.2,98.4,177C165.5,139.2,228.3,152.4,299.3,219.1z"/>
<path class="st1" d="M301.1,567.7c30.9-35.7,53.5-61.8,77.8-89.9c9.8,35.4-16.4,60.4-19.3,91.9c78.3-36.6,101.2-75.3,86.9-142.8
	c45.5,34.5,47.8,56.1,7.8,95.7c-45.2,44.8-92.5,87.3-136.8,133c-15.6,16.1-24.5,15.2-38.1,0.3c-45.1-49.4-90.8-98.3-136.1-147.2
	c8.4-4.9,16.3,16,30.9,13.5c-12.4-44.5-35-88.6-13.5-151.2c10,78.5,61.6,115.1,97.1,165.7c23.4-42.5,43.2-83.5,45.3-131.8
	C325.8,454.9,315.8,505.2,301.1,567.7z"/>
</svg>
