<?xml version="1.0" encoding="utf-8"?>
<!-- Generator: Adobe Illustrator 25.4.1, SVG Export Plug-In . SVG Version: 6.00 Build 0)  -->
<svg version="1.1" id="Capa_1" xmlns="http://www.w3.org/2000/svg" xmlns:xlink="http://www.w3.org/1999/xlink" x="0px" y="0px"
	 viewBox="0 0 595.28 841.89" style="enable-background:new 0 0 595.28 841.89;" xml:space="preserve">
<style type="text/css">
	.st0{fill:#FAE651;}
	.st1{fill:#FBD24E;}
	.st2{fill:#E42318;}
	.st3{fill:#C74819;}
	.st4{fill:#D05E1F;}
	.st5{fill:#C44418;}
	.st6{fill:#C44918;}
	.st7{fill:#C9541A;}
	.st8{fill:#DD6D1E;}
	.st9{fill:#C43D18;}
	.st10{fill:#ECA02F;}
	.st11{fill:#CD5E1D;}
	.st12{fill:#E68228;}
	.st13{fill:#EA8C2D;}
	.st14{fill:#CF551D;}
	.st15{fill:#EE9235;}
	.st16{fill:#DC7526;}
	.st17{fill:#D41717;}
	.st18{fill:#FBC14E;}
	.st19{fill:#CC4018;}
	.st20{fill:#F4AE4B;}
	.st21{fill:#CD5118;}
	.st22{fill:#E68B2F;}
	.st23{fill:#DF5D1C;}
	.st24{fill:#D75E1D;}
	.st25{fill:#C51818;}
	.st26{fill:#B81A18;}
	.st27{fill:#F6DE46;}
	.st28{fill:#F7E95D;}
	.st29{fill:#F8E351;}
	.st30{fill:#B71A18;}
	.st31{fill:#D4A625;}
	.st32{fill:#A31A16;}
</style>
<path class="st0" d="M365.33,393.06c-2.23-8.86,1.51-17.23,2.04-25.82c1.93-31.14,6.72-61.92,12.08-92.54
	c4.53-25.84,12.07-51.14,16.93-76.93c4.16-22.05,9.9-43.72,16.55-64.95c10.73-34.28,20.48-69.44,49.96-94.26
	c18.23-15.35,37.45-22.06,60.56-13.12c2.67,1.03,5.26,1.88,6.58,4.67c10.68,12.74,23.43,23.91,28.66,40.63
	c4.59,14.68,10.95,28.6,13.02,44.29c3.32,25.21,7.1,50.41,5.93,75.77c-1.22,26.47-4.31,52.82-9.58,78.96
	c-3.03,15.04-4.1,30.59-6.79,45.81c-3.91,22.11-7.98,44.13-13.07,66.06c-5.54,23.86-15.19,46.61-18.3,71.03
	c-5.27,16.66-9.98,33.53-16.05,49.89c-2.79,7.51-2.31,13.21,1.36,20.19c23.99,45.63,32.33,93.04,14.84,143.08
	c-8.52,24.38-22.97,45.23-38.44,65.51c-15.66,20.28-34.25,37.05-57.63,48.06c-11.23,6.23-22.46,12.47-33.68,18.7
	c-16.42,8.82-33.96,14.26-52.3,17.25c-12.76,2.08-24.33,8.53-37.94,8.13c-29.27-0.87-58.73,2.37-87.36-7.34
	c-7.71-2.61-16.76-0.38-24.18-5.23c-71.47-23.78-116.62-70.88-129.56-146.49c-8.96-53.84,0.44-104.78,24.18-153.45
	c14.19-18.48,9.99-36.03-2.33-53.47c-5.27-7.46-8.18-16.21-11.58-24.65c-13.71-29.68-22.98-60.88-31.74-92.27
	c-7.27-29.1-14.53-58.1-19.96-87.7c-6.07-33.12-9.35-66.16-7.18-99.5c0.86-13.21,0.82-27.68,9.96-39.24
	c9.84-19.16,18.12-39.52,38.65-50.5c32.78-12.5,54.93-5.63,75.85,21.78c17.19,22.53,26.28,48.78,36.94,74.4
	c7.29,27.44,15.93,54.48,24.47,81.53c3.1,9.83,5.68,19.82,9.12,29.54c0.34,11.55,2.98,22.27,7.23,33.26
	c4.32,11.19,4.47,23.96,7.29,35.9c4,16.94,6.83,34.15,10.76,51.09c2.46,10.64,7.51,13.32,18.34,10.81
	c29.52-6.83,58.93-6.79,88.41,0.1c3.47,0.81,7.16,0.12,10.74,0.27C364.92,402.59,366.16,398.67,365.33,393.06z"/>
<path class="st1" d="M529.91,452.67c-3.27-19.53,8.3-35.87,11.75-53.99c3.82-20.08,8.67-39.98,12.92-59.97
	c5.56-26.14,8.07-52.67,12.58-78.89c5.74-33.36,10.88-67.02,7.07-101.66c-1.94-17.59-3.6-35.82-7.21-52.63
	c-4.88-22.72-11.98-46.74-31.32-63.29c-3.96-3.39-6.79-6.67-5.66-12.13c8.78,1.63,12.04,10.49,19.01,14.5
	c30.21,51.22,33.67,107.46,29.21,164.59c-6.42,82.22-21.8,162.87-47.05,241.5C530.98,451.42,530.35,452.02,529.91,452.67z"/>
<path class="st2" d="M438.64,755.19c-35.7,26.57-75.89,42.87-119.95,46.5c-53.84,4.44-107.4,2.74-155.16-27.99
	c-29.41-18.92-53.05-43.07-65.86-76.42c-12.25-30.86-15.18-63.01-12.08-95.69c4.46-47.01,22.33-87.81,57.95-119.85
	c7.18-4.92,16.01-8.4,15.67-18.62c-1.12,0.67,0.39,6.01-4.24,4.42c-7.06-9.57-11.45-10.78-20.75-5.72
	c-12.11,6.61-13.77,6.07-21.01-6.11c-1.61-2.71-3.36-5.41-5.61-7.69l-0.41,0.06c-8.8-13.34-13.61-28.43-18.95-43.29
	c-6.91-19.85-14.16-39.59-19.14-60.06c-2.16-11.51-7.38-22.15-9.55-33.65l-0.01-0.04c-4.63-23.22-11.01-46.07-14.56-69.51
	c-3.76-28.53-8.33-56.98-5.36-85.96c1.76-17.16,4.1-34.02,14.39-48.6c4.74-5.69,10.04-10.86,14.77-16.61
	c8.44-10.25,27.65-14.32,40.22-9.04c3.65,1.53,7.32,2.88,11.05,4.15c14.96,14.57,24.96,32.27,33.01,51.35
	c11.52,27.28,20.31,55.46,29.14,83.69c7.28,23.28,14.91,46.41,19.21,70.49c0.77,4.33,3.07,8.19,4.3,12.39
	c0.73,8.52-0.04,17.29,4.17,25.23c0.43,1.14,0.68,2.32,0.75,3.53c0.76,5.82,0.29,11.93,4.12,17.01c0.42,1.14,0.66,2.32,0.71,3.53
	c0.76,13.45,2.54,26.7,7.76,39.28c0.5,1.19,0.91,2.41,1.23,3.66c0.97,3.9,0.98,7.92,1.58,11.87c2.35,15.25,10.3,19.51,25.02,15.9
	c36.4-8.92,73.06-11.14,109.47,0.36c13.38,4.23,21.06-0.55,23.35-14.37c2.23-13.45-1.01-27.09,1.94-40.46
	c-1.22-17.16,2.14-33.87,4.88-50.65c2.79-25.69,8.64-50.86,13.04-76.27c6-5.65,2.86-13.61,5.08-20.3
	c4.09-12.32,7.22-24.94,9.46-37.76c4.8-7.97,5.36-17.41,7.36-26.02c6.41-27.62,16.45-53.78,27.59-79.66l0.28,0.09
	c10.12-7.24,14.87-19.26,24.73-27c11.77-9.24,30.19-10.01,42.41-1.8c22.16,14.89,28.53,37.42,32.09,61.68
	c-0.71,5.86,1.24,11.04,4.15,15.98c0.92,4.71,0.53,9.47,0.65,14.21c0.87,12.87-2.63,26.18,4.24,38.48c1.27,2.27,1.26,5.94-0.06,8.18
	c-6.07,10.33-4.14,21.57-4.08,32.51c0.12,22.16-3.36,43.71-9.21,65.01c-1.47,5.34-0.32,11.1-0.55,16.66
	c-0.06,2.01-0.14,4.04-0.67,5.99c-6.16,8.23-3.2,17.98-4.45,27.03c-0.18,1.21-0.57,2.35-1.12,3.43c-4.82,5.26-2.41,12.26-4.35,18.22
	c-0.15,1.76-0.21,3.54-0.67,5.27c-3.32,4.58-4.45,9.78-4.38,15.34c-8.82,25.75-13.83,52.61-22.88,78.28
	c-1.85,5.24-0.62,11.15-3.23,16.28l0.06,0.01c-4.39,7.24-8.31,14.27-19.19,8.71c-4.21-2.15-8.21,3.73-12.73,4.92
	c-16.98-1.71-17.1-5.46-12.84-21.44c7.63-28.62,22.89-54.11,27.97-84.22c5.09-30.11,9.27-60.49,14.02-90.64
	c4.46-28.37,5.15-57.6,2.25-86.53c-0.52-5.21-0.42-10.37,0.08-15.55c0.63-6.63-1.21-12.66-4.66-18.26
	c-7.07-11.49-11.14-11.7-18.92-0.93c-8.03,11.1-13.57,22.95-16.66,36.69c-7.42,32.99-20.09,64.68-24.81,98.43
	c-3.7,26.41-9.63,52.42-15.31,78.46c-2.28,10.45-4.96,21.01-8.07,31.05c-3,9.67-7.89,20.35-18.31,26.06
	c-7.72,4.23-14.92,9.23-20.93,15.82c-3.93,4.31-9.15,5.33-14.77,6.74c-24.17,6.06-48.96,5.16-73.4,6.38
	c-22.11,1.11-46.09,2.11-65.47-9.96c-25.16-15.67-47.27-35.46-54.25-66.96c-7.85-35.45-13.27-71.57-26.47-105.62
	c-7.15-18.45-15.32-36.56-30.35-50.88c1.53,15.08-0.52,30.5,3.08,44.96c7.47,29.92,8.44,60.99,17.17,90.64
	c1.72,5.84,3.08,11.49,7.62,15.89c2.29,2.23,4.18,4.88,5.56,7.78c14.95,31.37,28.52,63.32,40.46,95.95
	c2.1,5.73,2.25,11.86,1.73,17.81c-1.03,11.78,3.34,20.84,11.99,28.59c6.84,6.13,13.01,12.99,19.49,19.52
	c12.21,12.3,22.6,25.48,28.08,42.52c4.29,13.34,10.02,15.38,23.01,9.6c20.34-9.05,40.61-12.63,62.68-6.07
	c14.22,4.23,20-0.76,21.69-15.24c3.11-26.69,18.9-45.67,38.35-62.11c7.74-6.54,18.05-1.35,19,9.02c0.98,10.64-3.03,20.34-6.43,30.12
	c-4.6,5.63-12.63,1.29-17.53,6.03c-4.67,4.58-7.66,9.07,0.59,13.08c18.77,3.14,19.66,3.97,23.84,22.96
	c0.69,3.14,2.03,5.95,3.59,8.69c1.62,3.09,2.52,7.28,7.4,6.25c4.4-0.93,4.87-4.89,5.37-8.43c0.55-3.96,0.21-7.98,0.25-11.98
	c0.18-16.51,3.7-20.19,20.28-21.15c11.93-0.7,13.41-2.89,9.05-13.46c-2.4-3.15-6.28-2.93-9.47-4.3
	c-8.57-3.68-16.45-7.87-15.29-19.55c0.47-4.77-2.66-8.98-4.39-13.37c-7.68-13.75-7.57-13.85,5.05-24.26
	c4.33-3.57,9.18-6.32,13.63-9.67c14.74-11.1,15.74-10.96,26.16,3.27c26.84,36.01,45.41,74.93,43.88,121.29
	c-0.28,8.41-3.64,16.39-2.6,24.86c-4.6,21.21-14.31,40.24-25.22,58.76l0.08,0.1c-7.43,10.11-15.19,19.94-24.27,28.65
	c-1.62,1.64-3.25,3.29-4.87,4.93C455.12,743.28,446.79,749.12,438.64,755.19z"/>
<path class="st3" d="M208.2,332.61c-0.1-0.64-0.12-1.29-0.04-1.94c-4.88-8.38-1.53-18.25-4.84-26.91
	c-5.63-9.76-5.77-21.12-9.06-31.6c-5.37-17.11-9.45-34.61-15.28-51.63c-6.67-19.49-12.67-39.22-18.72-58.92
	c-0.82-2.68-2.05-5.07-3.06-7.6c-9.51-23.74-21.95-45.77-37.64-65.96c-13.74-8.28-27.72-11.31-42.6-2.64
	c-4.27,2.49-7.63,5.65-10.17,9.76c-1.96,3.16-4.19,4.86-7.69,2.09c15.3-29.26,52.72-31.4,72.84-4.16
	c20.21,27.38,31.06,59.14,42.18,90.74c23.39,66.45,37.03,135.34,51.05,204.14c0.31,1.52-0.01,3.16-0.03,4.75
	c-0.78,1.21-1.66,1.23-2.63,0.22l0.02-0.06c-7.29-12.75-6.6-27.38-9.64-41.12c-0.11-0.58-0.12-1.16-0.02-1.74
	C208.83,344.88,210.81,338.13,208.2,332.61z"/>
<path class="st4" d="M107.6,448.02c9.66,13.53,20.99,16.09,36.32,8.28c5.46-2.78,10.02,4.71,12.17,10.65
	c3.62,9.29-5.49,10.44-9.5,14.85c-18.83,19.49-34.9,40.87-45.49,66.04c-4.44,10.54-5.54,22.07-8.76,32.68
	c-6.73,22.17-2.83,44.23-4.02,66.27c-0.71,13.18,3.86,25.44,8.12,37.61c1.52,4.34,1.75,8.5,1.23,12.88
	c-8.92-11.41-11.26-25.56-13.36-38.9c-7.8-49.53-0.08-96.92,24.81-140.79c7.26-12.8,17.23-23.85,28.11-33.91
	c3.2-2.96,6.26-6.1,9.24-9.29c2.69-2.88,6.5-6.21,2.83-10.15c-3.27-3.51-8.11-2.79-12.27-0.69c-5.39,2.71-9.67,12.09-15.94,7.43
	C114.13,465.81,108.89,457.56,107.6,448.02z"/>
<path class="st5" d="M222.52,392.94c0.88-0.07,1.75-0.14,2.63-0.22c1.53,5.32,3.09,10.63,4.58,15.96
	c3.33,11.9,8.16,15.48,20.02,11.93c26-7.79,52.38-8.43,79.14-6.82c10.88,0.66,21.1,3.71,31.53,6.19
	c15.09,3.59,20.7-0.45,22.33-15.68c1.26-11.77-1.24-23.87,3.07-35.37c0.09,13.56,0.27,27.11,0.23,40.66
	c-0.04,14.54-11.5,22.72-25.21,18.09c-26.09-8.82-52.8-11.53-79.76-5.81c-11.53,2.45-23.36,1.5-34.88,6.15
	c-11.11,4.49-22.68-5.83-23.38-18.35C222.5,404.11,222.61,398.52,222.52,392.94z"/>
<path class="st6" d="M554.06,140.49c-0.07-4.71-0.15-9.42-0.22-14.13c-4.23-4.02-0.4-10.55-4.55-14.59
	c-1.81-27.66-13.57-49.42-37.79-63.81c-3.35-1.99-27.12,1.74-30.27,5.36c-5.13,5.89-12.27,9.85-15.11,18.06
	c-1.72,4.95-6.66,7.8-12.62,6.98c6.94-15.9,18.52-27.8,33.45-35.93c14.81-8.06,34.25-2.61,45.96,12.11
	c7.71,9.7,13.97,20.26,17.39,32.44c1.48,5.27,1.94,11.08,5.72,15.56c2.73,6.75,1.67,14.2,3.85,21.06
	C558.38,129.38,563.88,137.57,554.06,140.49z"/>
<path class="st7" d="M515.12,644.68c0.14-14.72,2.09-29.71,0.02-44.11c-3.92-27.35-8.55-55.07-27.58-77.06
	c-6.57-7.6-8.25-17.87-15.31-24.96c-1.53-2.2-2.13-4.49-0.69-6.98c4.98-2.96,3.44,3.99,6.35,4.18
	c13.21,18.83,27.51,37.06,32.98,60.14c8.57,24.36,12.93,49.27,9.66,75.15c-2.68,4.26-2.16,9.12-2.57,13.8
	C517,645.63,516.04,645.62,515.12,644.68z"/>
<path class="st8" d="M453.22,78.27c0.64,9.14-4.64,16.48-7.78,24.37c-7.09,17.83-11.55,36.37-16.94,54.68
	c-2.62,8.9-0.97,19.57-8.83,26.8c-2.09-3.29-1.84-6.63-0.19-9.99c5.5-32.44,17.19-62.88,30.17-92.89
	C450.2,79.97,452,79.25,453.22,78.27z"/>
<path class="st1" d="M557.09,124.78c-0.36-7.41-0.72-14.83-1.08-22.24c5.06,7.91,6.47,17.3,6.96,25.95
	c2.06,36.04,2.31,72.16,0.24,108.23c-0.24,4.2-2.56,8.27-3.91,12.4c-0.57-0.46-1.13-0.92-1.7-1.38
	c-1.31-19.38-1.95-38.72,3.01-57.78c0.61-2.34,1.1-4.97,0.36-7.12C554.46,163.82,559.19,144.08,557.09,124.78z"/>
<path class="st9" d="M59.1,97.25c5.73-0.31,7.24-5.76,10.53-8.92c14.66-14.05,35.92-14.31,49.94-0.29
	c-22.1-8.73-41.44-7.05-56.36,14c-1.65,2.33-5.13,5.17-9.2,4.93C54.17,102.93,55.57,99.53,59.1,97.25z"/>
<path class="st10" d="M405.6,242c-3.97,25.62-8.24,51.19-14.9,76.28c-0.05-28.14,5.49-55.32,14.16-81.96
	C406.85,237.99,406.41,239.97,405.6,242z"/>
<path class="st11" d="M515.12,644.68c0.96,0.05,1.92,0.1,2.88,0.16c-4.09,21.39-11.8,41.11-26.57,57.57
	c1.1-13.96,10.43-24.53,16.21-36.34C511.12,658.97,506.38,649.37,515.12,644.68z"/>
<path class="st12" d="M405.6,242c-0.25-1.89-0.49-3.78-0.74-5.67c1.86-21.44,8.77-41.7,14.63-62.2c0.06,3.33,0.13,6.66,0.19,9.99
	C416.7,203.83,412.72,223.3,405.6,242z"/>
<path class="st13" d="M44.98,241.53c7,22.72,12.9,45.67,14.56,69.51C51.94,288.45,44.83,265.75,44.98,241.53z"/>
<path class="st14" d="M477.93,495.75c-1.8-1.53-3.59-3.06-5.39-4.59c-2.49-3.15-2.91-5.89,1.55-7.64
	c5.21-2.43,10.09-5.83,16.46-3.64c7.63,2.62,8.91-8.16,15.63-7.76c0.77,4.61-1.45,8.47-3.06,12.51c-2.33,5.82-5.43,7.61-10.25,2.27
	c-2.77-3.07-5.65-5.43-10.32-3.18C477.03,486.39,476.86,490.74,477.93,495.75z"/>
<path class="st11" d="M520.57,631.04c1.7-25.69-4.37-50.37-9.66-75.15C522.01,579.92,525.71,604.91,520.57,631.04z"/>
<path class="st1" d="M549.51,313.75c-0.36,14.93-1.29,29.73-9.22,43.03c-3.19-1.5-2.93-4.47-3.1-7.26c0.31-4.06-1.15-8.57,2.91-11.7
	l-0.18,0.06c1.98-4.28-0.36-9.17,1.87-13.42c2.37-3.66,0.22-9.76,6.18-11.49C548.47,313.22,548.99,313.49,549.51,313.75z"/>
<path class="st1" d="M559.31,249.14c-0.6,21.94-4.2,43.43-9.8,64.61c0,0-0.86-0.58-0.86-0.58c-3.54-5.1-1.29-10.85-1.82-16.29
	c1.4-12.74,5.51-25.06,5.89-37.98c0.13-4.3,0.59-8.67,5.54-10.56C558.61,248.6,558.96,248.87,559.31,249.14z"/>
<path class="st15" d="M88.24,404.78c7.66,13.84,13.99,28.27,18.95,43.29C95.67,435.92,90.48,421,88.24,404.78z"/>
<path class="st16" d="M467.24,731.16c6.65-10.77,14.15-20.82,24.27-28.65C486.74,714.87,478.9,724.63,467.24,731.16z"/>
<path class="st13" d="M59.56,311.08c5.7,10.5,10.22,21.34,9.55,33.65C63.98,334.06,58.46,323.51,59.56,311.08z"/>
<path class="st16" d="M438.64,755.19c6.01-8.73,14.66-14.17,23.73-19.1C456.58,745.08,449.06,751.94,438.64,755.19z"/>
<path class="st17" d="M474.09,483.52c-1.71,2.31-1.84,4.93-1.55,7.64c-0.09,2.46-0.18,4.92-0.28,7.38
	c-5.97-10.61-11.85-10.48-19.78-1.24c-4.44,5.17-11.26,8.39-17.19,12.18c-5.81,3.71-11.1,7.08-2.15,13.21
	c0.88,0.6,0.56,2.97,0.79,4.51c-4.27,3.01-11.31-0.74-14.13,5.81c-1.91,6.55-2.02,13.4-3.34,19.96c-1.08,5.36-1.72,13.66-11.51,9.51
	c1.65-8.6,3.58-17.16,4.82-25.81c0.61-4.26,0.73-9.19-4.62-11.16c-4.77-1.76-8.01,0.37-11.37,4.07
	c-6.87,7.56-14.23,14.89-21.15,22.19c-9.04,9.54-10.94,24.51-12.9,37.9c-2.22,15.16-8.71,19.77-24.23,17.51
	c-7.98-1.16-14.95-5.06-23.1-5.79c-15.41-1.39-27.73,6.3-40.82,11.85c-12.79,5.42-21.72,3.95-25.18-8.4
	c-7.95-28.37-29.13-46.12-48.74-65.11c-9.66-9.35-15.77-19.16-13.27-32.64c2.98-16.06-8.86-27.6-11.97-41.81
	c-5.41-24.74-16.94-48.21-30.15-68.29c-19.01-28.89-17.15-60.88-25.4-91.23c-6.02-22.18-5.6-44.91-9.18-67.23
	c-0.44-2.73-0.2-5.59-0.06-8.38c0.14-2.87,0.68-5.83,4.03-6.56c3.34-0.73,5.09,1.85,6.57,4.22c13.59,21.72,27.81,43.26,34.41,68.34
	c4.43,16.85,9.81,33.4,12.97,50.71c3.77,20.63,7.4,41.54,14.68,61.44c3.18,8.7,11.33,13.28,16.65,20.19
	c18.64,24.2,43.13,33.98,73.64,34.44c20.27,0.31,40.44-1.6,60.69-0.75c12.67,0.53,24.55-5.96,37.56-5.46
	c5.63,0.21,6.78-7.37,10.76-10.48c5.33-4.17,10.69-8.93,16.86-11.27c10.93-4.14,15.77-15.37,17.07-22.79
	c4.18-23.92,12.82-46.7,16.03-70.81c3.78-28.42,8.92-56.72,16.4-84.4c6.03-22.29,13.67-44.05,18.07-66.89
	c2.47-12.84,13.02-22.69,20.4-33.58c2.97-4.39,7.79-4.79,11.49-1.24c7.83,7.53,14.99,15.78,14.78,27.65
	c-0.37,20.67-0.97,41.31,2.12,61.9c0.73,4.89-1.42,10.18-2.02,15.31c-3.25,27.68-5.87,55.45-9.81,83.04
	c-2.79,19.51-10.38,38.11-9.93,58.41c0.2,8.89-6.95,16.9-11.17,24.41c-8.31,14.82-10.01,31.61-17.69,46.51
	C456.32,483.88,470.54,479.17,474.09,483.52z"/>
<path class="st17" d="M372.09,708.6c5.59-12.24,5.47-27.35,9.72-41.33c2.37-7.82,7.85-14.83,17.88-15.39
	c3.12-0.17,6.65-0.77,9.17-2.42c15.51-10.2,26.66-0.99,37.61,8.26c6.24,5.28,5.74,14.58-1.35,19.49
	c-6.15,4.26-9.56,10.37-14.11,15.82c-11.89,14.2-28.24,22.77-44.82,30.2C379.29,726.32,371.29,718.08,372.09,708.6z"/>
<path class="st18" d="M159.59,610.97c-6.76,0.29-13.52,0.64-20.29,0.86c-4.83,0.16-8.94-1.31-9.86-6.62c-0.87-5,1.74-9.86,6.36-9.99
	c19.87-0.57,27.14-11.45,27.41-29.92c0.06-4.34,3.7-8.03,9.25-7.21c5.24,0.77,7.32,4.27,7.58,9.2c0.1,1.99,0.13,3.99,0.17,5.98
	c0.36,16.96,0.36,16.94,16.98,18.29c2.37,0.19,4.89,0.26,7.02,1.15c3.95,1.63,6.41,4.69,6.23,9.26c-0.21,5.14-3.74,6.26-8.07,6.96
	c-20.36,3.29-20.37,3.36-20.57,24.89c-0.07,7.73-0.04,18.2-8.64,18.67c-9.78,0.53-10.21-10.03-10.7-18.14
	c-0.45-7.55-1.14-15.09-1.72-22.64c6.55-3.47,6.89,2.17,8.1,5.82c1.61,4.87,0.1,10.27,2.59,16.79c2.65-12.94-2.22-28.23,18.08-33.11
	c-15.1-3.87-19.21-13.37-19.25-27.36c-3.15,22.15-5.37,24.6-24.42,28.63C149.37,607.08,159.06,601.62,159.59,610.97z"/>
<path class="st19" d="M558.26,248.33c-3,16.11-6,32.21-8.99,48.32c-3.2,1.41,1.34,8.07-4.99,7.37c0.37-19.29,5.18-37.86,8.53-56.71
	c2.41-13.56,0.93-27.8,1.21-41.74c0.11-5.52-0.5-11.02,3.05-16.11c1.39-1.99,2.04-5.94,1-7.96c-6.79-13.24-3.22-27.31-4-41.01
	c4.24-4.62,0.92-10.69,3.04-15.71c6.63,33.49,6.16,67.19,2.96,100.97C559.34,233.26,558.85,240.8,558.26,248.33z"/>
<path class="st20" d="M285.96,635.24c24.77-12.37,48.7,0.34,62.61,16.59c5.64,6.59,8.11,13.56,3.54,21.75
	c-2.89,4.05-6.66,7.24-11.7,7.08c-18.32-0.59-36.02,4.94-54.27,5.02c-8.94,0.04-18.86,0.9-22.51-9.01
	c-3.74-10.16-1.85-20.39,7.81-27.56c6.42,3.04,3.02,7.96,2.13,12.2c-2.18,10.38-1.26,11.62,9.43,12.37
	c16.86,1.19,33.51-1.43,50.25-2.5c3.64-0.23,7.46-0.64,8.61-5.02c1.21-4.61,0.22-8.78-3.64-11.88
	c-13.93-11.17-28.54-19.45-47.16-11.34c-3.3,1.44-6.86,2.4-10.38,0.26C277.95,637.56,283.14,637.2,285.96,635.24z"/>
<path class="st21" d="M285.96,635.24c-2.01,2.24-4.02,4.49-6.04,6.73c0.05,4.78-2.28,7.33-7.08,7.57
	c-5.5,4.56-8.08,10.79-9.24,17.53c-1.35,7.88,2.72,15.45,9.78,15.12c26.36-1.2,53.22,0.73,78.72-8.62
	c-1.3,5.75-5.08,9.71-10.72,9.42c-19.17-0.99-37.27,6.84-56.65,5.45c-20.88-1.5-25.38-5.12-23.64-25.82
	C262.27,648.6,273.4,636.35,285.96,635.24z"/>
<path class="st22" d="M462.83,562.9c8.17,12.78,5.02,18.95-10.06,19.73c-17.86,0.92-18.59,1.7-18.78,19.86
	c-0.04,3.6,0.17,7.25-0.32,10.79c-0.79,5.63-1.96,11.42-9.1,12.31c-6.98,0.87-8.64-4.3-10.06-9.53c-2.25-5.7-2.76-11.55-1.58-17.54
	c9.08-4.83,6.31,5.61,10.97,8.34c1.26-8.73-0.22-17.84,5.47-25.11c5.79-7.4,15.4-5.51,23.65-9.74c-3.9-2.46-8.15-1.84-11.32-3.83
	c-3.04-1.91-5.38-4-1.22-7.2C448.13,559.43,455.57,560.12,462.83,562.9z"/>
<path class="st23" d="M462.83,562.9c-8.04,0.14-16.08,0.29-24.12,0.43c-4.78,2.83-6.4-0.75-7.87-4.08c-1.31-2.95-1.7-6.26-1.36-9.39
	c1.04-9.76-3.09-14.86-12.91-15.32c-0.69-1.78-0.82-3.5,0.47-5.08c4.81-6.9,10.81-4.96,16.9-2.25c1.42,3.22,4.23,6.52,4.04,9.64
	c-0.97,15.4,9.31,19.27,21.12,21.97C461.27,559.31,462.23,560.94,462.83,562.9z"/>
<path class="st22" d="M385.91,584.86c-7.08-5.75-6.38-11.48,0.04-17.2c6.75-6.5,15.09-1.83,22.55-3.21
	c4.23,2.91,0.78,4.43-1.22,5.96c-3.14,2.41-7.71,1.41-11.36,4.76c3.76,3.95,8.86,2.16,12.97,3.42c9.04,2.78,10.62,7.4,5.3,16.52
	C407.43,584.3,395.93,586.63,385.91,584.86z"/>
<path class="st24" d="M385.91,584.86c4.32-0.02,8.72,0.43,12.96-0.17c8.13-1.17,13.32,1.91,16.03,9.53c0.62,0.8,0.67,1.63,0.14,2.49
	c-0.18,6.45-0.35,12.9-0.53,19.35c-3.68-3.55-3.83-8.27-4.88-12.92c-2.03-8.94-4.99-17.69-17.33-15.88
	C389.95,587.61,387.6,586.83,385.91,584.86z"/>
<path class="st24" d="M409.86,565.68c-8.03-0.1-16.13-1.01-23.91,1.98c4.55-8.34,12.96-2.38,19.01-5.16
	c6.68-0.94,7.76-5.91,7.87-11.31c0.15-7.51,0.86-14.86,4.21-21.73c0.1,1.76,0.2,3.53,0.3,5.3c7.25,7.91,5.46,16.92,2.51,25.65
	C418.45,564.52,415.47,568.28,409.86,565.68z"/>
<path class="st5" d="M212.9,351.75c5.79,13.1,5.93,27.53,9.64,41.12C211.64,380.97,213.04,366.18,212.9,351.75z"/>
<path class="st17" d="M146.59,481.8c1.55-5.98,8.98-8.2,9.5-14.85c0.94-2.05,1.87-4.09,2.81-6.13
	C161.72,475.77,159.72,479.17,146.59,481.8z"/>
<path class="st19" d="M544.29,325.33c-3.75,3.38-0.01,9.38-4.38,12.55c1.26-9.87-4.95-20.81,4.22-29.56
	C547.08,313.96,545.76,319.65,544.29,325.33z"/>
<path class="st5" d="M203.32,303.76c3.63,8.61,5.16,17.59,4.84,26.91C199.45,322.98,205.07,312.71,203.32,303.76z"/>
<path class="st19" d="M549.29,111.77c7.62,2.96,3.6,9.55,4.55,14.59C546.33,123.36,550.11,116.85,549.29,111.77z"/>
<path class="st5" d="M208.2,332.61c3.44,5.29,4.45,11.23,4.68,17.39C205.33,345.82,209.39,338.51,208.2,332.61z"/>
<path class="st25" d="M376.33,529.59c0.43,6.49-2.92,12.77-6.72,16.13c-12.15,10.78-13.12,25.83-16.99,39.57
	c-2.34,8.33-6.22,12.06-14.15,10.37c-16.89-3.59-33.41,0.96-49.88,2.53c-20.51,1.96-30.75-0.02-40.88-17.02
	c-10.33-17.32-25.55-30.34-37.72-46.01c-7.2-9.27-14.01-17.67-14.08-30.59c-0.07-13.39-8.94-25.53-6.91-39.72
	c1.56-10.9,9.67-16.45,16.97-9c12.67,12.93,29.13,13.21,44.2,15.03c15.31,1.86,31.19,1.8,47.22,0.23
	c17.09-1.68,34.62-2.19,51.9-3.98c22.3-2.31,42.07-12.36,55.61-28.85c11.77-14.33,22.28-32.27,23.24-51.48
	c0.86-17.32,9.4-31.66,12.79-47.85c3.02-14.44-0.12-29.9,7.25-43.4c5.66-10.36,4.98-21.49,5-32.62c0-2.39-0.2-4.99,0.64-7.12
	c5.82-14.8,11.54-29.66,18.08-44.14c2.37-5.24,5.88-13.35,13.3-3.72c0.24,0.31,0.66,0.83,0.87,0.77
	c21.56-5.98,11.69,11.37,12.22,18.25c1.4,18.11,1.01,36.35,2.26,54.54c0.65,9.43-7.57,17.23-7.35,27.39
	c0.38,17.49-6.69,34.7-1.95,52.49c1.74,6.54-2.91,12.55-5.05,17.98c-6.94,17.66-8.2,36.68-15.6,54.35
	c-6.31,15.07-15.12,29.25-18.3,45.79c-2.43,12.66-28.43,29.64-44.8,30.79c-3.21-5.69,1.13-8,4.85-10.24
	c12.87-7.75,23.48-17.36,28.3-32.19c1.14-3.51,4.16-5.83,6.73-8.33c2.63-2.57,5.46-5.43,5.86-8.88c2.54-21.64,14.8-40.15,17.21-62.6
	c2.12-19.73-0.79-39.69,3.86-59.18c1.5-6.28-3.3-10.97-8.27-14.8c-3.83,2.79-4.29,7.02-5.27,10.66
	c-4.35,16.16-9.18,31.92-16.05,47.42c-5.49,12.38-8.47,26.45-11.9,39.91c-6.44,25.27-25.03,39.87-45.77,50.87
	c-25.76,13.65-53.45,23.2-83.67,19.78c-12.45-1.41-24.44,3.03-36.88,2.54c-11.17-0.44-22.15-0.54-33.15-3.65
	c-14.26-4.03-18.71,0.47-20.59,15.16c-1.47,11.5,1.68,19.19,9.1,28.7c8.97,11.49,19.3,22.09,27.24,34.39
	c12.44,19.27,30.48,25.39,52.44,23.93c10.02-0.66,19.39-4.21,29.14-5.92c9.35-1.64,13.92-12.26,18.2-20.72
	c3.44-6.79,6.55-13.77,11.52-19.55C364.48,532.87,368.71,527.65,376.33,529.59z"/>
<path class="st26" d="M376.33,529.59c-9.65,4.92-17.21,12.38-20.58,22.42c-7.9,23.52-25.91,31.41-48.27,35.41
	c-28.35,5.07-48.35-5.25-64.05-28.5c-7.68-11.38-16.29-22.79-25.87-32.26c-13.82-13.66-7.98-28.9-8.7-43.76
	c-0.2-4.19,3.64-5.86,7.62-6c3.59-0.12,7.47-0.97,10.74,0.04c33.14,10.2,66.94,3.45,99.88,1.22c36.21-2.46,70.22-17.26,93.02-47.68
	c11.14-14.86,14.75-34.27,18.56-52.71c0.64-3.1,0.01-7,1.68-9.26c12.78-17.33,12.12-39.18,19.98-58.12
	c1.06-2.56,1.18-6.38,3.93-6.94c4.29-0.88,3.6,4.65,5.76,6.17c15.51,10.96,6.94,25.88,7.19,39.47c0.44,24.84-1.85,49.68-10.8,72.55
	c-5.88,15.03-10.22,30.69-19.33,45.29c-10.26,16.43-21.63,29.28-37.41,39.3c-1.14,0.72-1.48,2.7-2.19,4.1
	c-2.82,0.07-5.54,0.45-7.47,2.84c-5.51,6.85-11.36,13.02-21.25,12.74C378,525.88,377.15,528.31,376.33,529.59z"/>
<path class="st27" d="M159.59,610.97c-4.44-4.2-9.89-1.52-14.85-2.08c-4.15-0.47-8.29-0.54-8.16-6.25c0.11-4.87,3.66-5.28,7.46-5.75
	c19.4-2.42,19.38-2.48,21.13-22c0.39-4.31,0.27-10.46,5.62-10.27c6.31,0.23,3.96,6.84,3.88,10.62c-0.27,12.5,3.31,21.24,17.66,21.56
	c2.89,0.06,5.8,0.79,5.89,4.49c0.11,4.49-3.34,5.26-6.58,4.95c-13.39-1.29-14.62,6.87-14.78,17.26c-0.1,6.59,3.42,18.26-4.68,18.51
	c-9.77,0.3-5.94-11.49-7.14-18.44c-0.72-4.14,2.95-10.07-4.32-11.85C160.24,611.64,159.86,611.39,159.59,610.97z"/>
<path class="st28" d="M272.84,649.55c2.36-2.52,4.72-5.05,7.08-7.57c7.53,0.32,12.47-6.13,19.97-7.03
	c18.1-2.17,31.04,7.19,43.74,17.43c5.82,4.69,4.78,11.72,3.05,17.78c-1.57,5.48-7.23,5.52-12.01,5.79
	c-17.48,0.98-34.95,2.19-52.44,2.66c-15.37,0.41-18.57-4.82-12.73-18.96C270.84,656.38,271.74,652.92,272.84,649.55z"/>
<path class="st29" d="M409.86,565.68c7.68-1.55,6.62-7.81,6.94-13.17c0.35-5.91,0.36-11.84,0.53-17.76c3.13-3.04,6.14-6.65,11.2-3.9
	c4.49,2.45,4.14,7,5.13,11.27c1.64,7.07-4.77,16.15,5.05,21.21c5.29,4.09,11.79,0.67,17.37,2.79c2.99,1.13,6.1,2.38,6.17,6.38
	c0.08,4.43-3.2,4.95-6.46,5.41c-1.18,0.17-2.39,0.16-3.58,0.33c-22.19,3.29-22.07,3.3-22.97,25.45c-0.19,4.67,2,11.59-6.24,11.73
	c-7.51,0.12-5.35-6.35-6.2-10.66c-0.54-2.7-1.17-5.37-1.76-8.05c-0.05-0.83-0.09-1.66-0.14-2.49c1.8-8.89-1.89-12.76-10.83-12
	c-1.97,0.17-3.97-0.04-5.96,0.02c-4.64,0.13-9.85-0.54-10.33-5.74c-0.51-5.58,4.18-7.81,9.49-8.32
	C401.54,567.77,406.13,568.81,409.86,565.68z"/>
<path class="st30" d="M237.72,483.69c29.14,5.89,58.18,1.93,87.15,0.1c18.28-1.15,35.18-6.71,52.29-14.48
	c15.35-6.97,26.37-18.94,40.72-26.24c8.05-4.1,11.75-10.08,13.59-18.33c2.53-11.28,4.89-22.65,8.48-33.6
	c2.98-9.08,7.31-17.74,16.66-22.57c3.03-1.57,5.27-5.79,9.29-3.2c3.23,2.08,4.4,5.94,3.82,9.59c-3.08,19.63-4.93,39.67-16.14,56.95
	c-2.11,3.25-2.66,6.49-2.9,10.12c-0.41,6.29-23.4,46.36-28.94,48.96c-11,5.16-19.46,14.14-29.53,19.86
	c-9.11,5.18-18.09,9.63-25.83,17.03c-4.18,4-7.79,7.62-9.53,13.21c-3.41,10.92-10.99,19.36-17.58,28.36
	c-2.76,3.78-6.94,5.23-11.48,5.64c-2.78,0.25-5.63,0.06-8.36,0.55c-52.25,9.22-68.34-8.51-87.56-42.31
	c-3.54-6.23-6.89-12.08-12.69-17.01c-8.51-7.25-1.68-16.73,0.32-24.51C221.66,483.41,230.82,484.7,237.72,483.69z"/>
<path class="st31" d="M299.42,663.89c1.99,0,1.14,0.19,0.42-0.03c-4.35-1.31-12.24,3.76-12.52-3.54c-0.2-5.27,6.34-9.46,12.77-10.55
	c9.43-1.6,26.59,3.69,27.05,8.42C327.52,662.04,321.43,663.41,299.42,663.89z"/>
<path class="st32" d="M301.23,493.74c20.15,1.98,39.37-5.34,59.31-6.09c9.85-0.37,18.75-4.84,26.37-12.48
	c7.78-7.8,20.2-9.18,28.13-17.55c1.56-1.64,4.34-2.34,6.62-0.61c2.54,1.92,2.57,4.69,2.21,7.6c-1.71,13.85-23.46,35.26-37.8,35.92
	c-7.71,0.35-11.79,4.38-16.94,9.22c-11.47,10.78-18.37,24.42-26.99,37.09c-12.56,18.46-32.7,20.98-52.42,18.31
	c-27.46-3.71-42.85-20.97-47.54-48.87c-1.79-10.66,5.13-18.97,18.56-19.92C274.23,495.41,287.53,491.37,301.23,493.74z"/>
</svg>
