<?xml version="1.0" encoding="utf-8"?>
<!-- Generator: Adobe Illustrator 25.4.1, SVG Export Plug-In . SVG Version: 6.00 Build 0)  -->
<svg version="1.1" id="Capa_1" xmlns="http://www.w3.org/2000/svg" xmlns:xlink="http://www.w3.org/1999/xlink" x="0px" y="0px"
	 viewBox="0 0 595.3 841.9" style="enable-background:new 0 0 595.3 841.9;" xml:space="preserve">
<style type="text/css">
	.st0{fill:#FFFFFF;}
</style>
<path class="st0" d="M462.4,549.3c-22.6,13.9-36.9,37-65.4,35.5c-6.3-0.3-4.8,8.3-5.4,12.9c-5.1,38.1-10.7,76.1-18.5,113.8
	c-4.1,19.9-10.8,38.6-22.7,55.2c-6.7,9.3-15.5,17-27.5,12.9c-11.1-3.8-11-14.9-10.8-24.8c1.3-55.6,2.4-111.3,4-167
	c0.4-13.2,1.1-17.7-17.4-15.7c-23.8,2.5-27,15.9-33.2,32.6c-12.3,33.3-23.8,67.1-40,98.8c-6.1,11.9-13.5,22.6-24.2,30.9
	c-6.1,4.7-12.9,8.9-20.5,5.3c-8-3.8-7.6-11.9-7.3-19.5c0.7-17.6,9.5-33,13-49.8c9.3-44.9,18.7-89.8,27.7-134.8
	c1.2-6.1,1.9-12,9-18.4c-4.7,55.5-17,107.2-29.4,161c16.1-5.8,23.1,0.2,22.2,14.9c5.5,1.3,6.8-2,8.1-5.2
	c13.9-35.8,27.7-71.6,41.7-107.3c1.5-3.9,3.7-7.2-1.1-10.3c-17.9-11.8-21.8-31.5-28-49.9c-2.7-8-5-9.3-16.1-10.1
	c-29.4-2.3-35.8,16.6-46,35.4c-7.9,14.5-16.1,29.2-28.9,40.3c-7.2,6.2-14,15.1-25.2,9.2c-11.3-6-12.6-16.2-10.5-28.2
	c6.8-38.4,23.6-72.9,42.9-105.8c9-15.4,15.2-29.8,13.6-47.7c-1.8-19.4,6.9-34.1,21.1-46.6c12.5-10.9,24.2-22.8,36.6-33.9
	c3.7-3.3,8.5-7.8,13.5-5.2c6,3.1,3.2,9.7,1,13.8c-12,22.1-5.7,46.7-12.7,74.1c10.8-11.9,18.4-18.6,16.5-33c-2.3-17.4,6-33.6,13.9-49
	c3.5-6.9,10.1-5.7,10.5,1c1.3,26,24.5,48.4,17.5,73.8c-6.9,24.7,1.4,42.1,12.8,61.1c2.8,4.8,4.5,10.8,4.8,16.3
	c0.3,7.6,5.9,5.2,9.7,6.6c-14.4,11.3-12.7,10.7-18.2-4.8c-5.4-15.2-4.6-35.6-26.7-40.9c-4.6-1.1-1.8-6,0-8.6c14.5-22,11-44.3-0.3-68
	c-8.3,23.5-26.6,40.6-37.2,62.5c-7.6,15.8-2.1,31.6,2.7,46.9c6.4,20.2,13.6,40.2,20.7,60.2c9.4,26.3,37.3,35.1,60.2,19.7
	c5.5-3.7,4.7-8.8,4.8-13.7c0.8-51.6,10-102.8,9.1-154.5c-0.1-4.3-1.8-9.9,5-10.9c5.5-0.8,8.5,3.3,10.4,7.5
	c10.2,23.1,31.6,41.4,30.3,69.6c-0.2,3.4,3.3,5.5,6.2,7.6c8.7,6.1,15.8,14.6,18.2,24.5c4.8,19.3,14.2,16.5,27.6,9.3
	c6.7-3.7,8.4-5.7,4.5-12.6c-5.3-9.5-9.9-19.4-14-29.5c-1.6-3.8-4.9-8.9-0.6-12.8c3.8-3.4,9.7-2.8,12.9,0
	c15.5,13.7,38.5,5.4,53.9,19.1c3.2,2.8,6.4,0.8,8.3-2.8c23.5-44,54.3-83.6,76.9-128.2c15.7-31,19.5-64.4,20.8-98.5
	c0.4-11.2-0.8-22.8,5.2-33.3c6.2,43.2,3.1,85.5-13.4,126.2c-4.2,10.2-6.9,19.4-6.1,31c2.4,35.5,2.5,71.1-0.3,106.7
	c-2.1,26.2-9.2,48.6-39,55.6c-11.1,2.6-14.5,9.1-12.2,21.4c7.4,39.6,7.9,79.9,6.7,120.1c-0.2,6.7-3,13.3-4.9,19.9
	c-3.1,10.8-11.1,16.6-21.6,16.3c-10.7-0.3-13.1-10.1-14.8-18.5c-3.8-19.7-6.5-39.6-10.3-59.3C472.3,596.4,467.3,573.6,462.4,549.3z
	 M353.1,743.3c6.6-7.7,8.1-17.4,9.8-26.7c6.8-38.3,13.4-76.7,19.7-115.1c1.5-8.9,6.6-19.3,2.1-26.9c-16.2-27.3-34.2-53.4-52.3-81.2
	c-1.6,3.3-2.8,4.7-2.8,6.2c-5.3,86.9-8.5,174-8.4,261.1c0,5.2,0.3,12,7,11.5c6.5-0.6,15.2-1.8,14-12.4c0.8,0.2,1.5,0.4,2.3,0.6
	c0-0.7,0-1.5,0-2.2c-0.7,0.7-1.4,1.3-2.1,1.9c-8.2-3.3-3.1-8.8-1.4-12.6c5.5-12.1,3.8-19.6-13.6-18.7c6.6-7.5,12.3-8.8,18.4-5.6
	c7.7,4,5.4,11.7,5.4,18.4c-1,2.4-2.5,4.9-0.1,7.3C351.8,747.1,352.5,745.2,353.1,743.3z M521.9,462.4c-7.2,7.4-27.7-7.8-25.8,15.5
	c0.2,2.1-5.8-0.4-8.8-1.9c-8.7-4.4-17.1-9.3-26.1-12.7c-10.2-3.9-21.2-7.1-15.2,11.6c1.1,3.6,0.4,8-0.4,11.9
	c-3.8,17.6,10.1,35.4,28.3,37.1c23.4,2.2,43.2-8.2,64.1-15.7c12.4-4.5,19.7-11.7,22.1-23.6c8.5-41.6,5.3-83.7,5.6-130.7
	c-22.9,36-43,67.5-62.8,98.6C508.4,458.9,519.3,452.3,521.9,462.4z M346.5,412c-21.9,34.3-18.8,65.5,6.2,96c9,11,15,24.4,22.5,36.6
	c23.2,38,28.3,38.9,62.7,11.5c6.7-5.3,14.9-10,19.2-16.9c7.1-11.6-9.4-12.9-11.9-21.4c-5.1-17.3-16.4-13.8-28.8-7.4
	c-6.7,3.4-10.5,8.9-14.8,16.7c-4.7-13.6-7.9-25.1-12.7-35.9c-3.7-8.3-8.8-21-16.8-20.1c-13.5,1.6-9-6-9-11.4
	C363.2,441.8,357.5,426.3,346.5,412z M521.3,638.2c-2.1-29.6-4.3-59.3-6.2-88.9c-0.9-13.9-4.1-23.2-21.3-16.7
	c-5.1,1.9-11.3,1.1-17,0.7c-8.4-0.6-9.3,2.6-7.2,10.1c3.7,13.2,6.9,26.6,8.9,40.2c4.6,31.4,16.3,61.4,16.6,93.6
	c0,4.8,2.1,9.7,7.1,10.7c5.5,1.1,9.5-2.7,12.2-7.5C521.7,667,520.1,652.5,521.3,638.2z M203.5,503.7c23.4,0.1,25.7-2.9,19.6-22.8
	c-3.9-12.7-10-26.4-5-38.5c7.8-18.8-0.8-37.9,5-56.3c1.9-6,2.5-14-8.5-9c-3.1,1.4-5.6,1.1-7.6-1.2c-9.1-10.2-14.4-2.7-20.3,3.9
	c-6.9,7.6-9.7,16.5-10.4,26.6c-2.1,29,4.2,56.8,11.3,84.6C190.1,500.4,196.7,503.4,203.5,503.7z M157.3,558.6
	c4.8-7.9,8.8-13.5,11.8-19.6c5.3-10.7,16.1-23.5,13.6-32.2c-5-17.1-7.9-35-14.2-54.3c-19.4,25.6-26.4,55.1-41.4,80.3
	c-1.3,2.3-1.3,7.6,4.3,6.7C145.4,537.4,151.8,546.3,157.3,558.6z M147,558.8c-1.2-5.5-3.6-11.5-8.9-11.3c-10.3,0.2-13,9.4-15.2,17.5
	c-1.1,4.1-1.3,10.3,5.6,9.5C137.7,573.3,142.5,565.9,147,558.8z M192,717c11.7-5.3,14.4-14.8,18-23.4c1.3-3.1-0.4-5.8-2.6-7.6
	c-3.2-2.6-6.5-1-9.2,1.4C188.9,695.3,190.9,705.1,192,717z"/>
<path class="st0" d="M209.1,265.6c-25.7,33.3-32.2,56.2-18.1,61.6c-4.7,7.2-12.7,9.5-19.2,13.7c-22.3,14.6-36.9,33.9-40.2,61
	c-2.6,21.4-1.1,23.3,22.3,25.2c1.4,0.1,2.8,0.8,7.6,2.3c-13.6,4.1-19.6,12.9-26.6,20.9c-5,5.8-12.1,10.2-19.8,5.3
	c-8-5.1-4.1-12.6-0.6-18.2c6.2-10.2,6.9-21.2,7.9-32.7c2.2-27.2,14.9-49,37.2-64.9c7.7-5.5,12.5-11.5,14.3-21.7
	c3.6-21.2,13.9-39.9,27.4-56.8c3.2-4,8.4-7.9,9-12.4c5.7-38.8,22.5-74.3,35.2-113.7c-23.3,2.4-44.7,4.3-62.3-11.4
	c-3.5-3.1-7.6-0.2-11.5,0.6c-29.2,6.3-52.7-6-62.5-33.3c-3.3-9.1,2.9-13.9,9.8-17.5c13.9-7.3,28.9-11.8,44.3-13
	c41.2-3.3,77.4-22.8,116.3-33.6c15.1-4.2,31-5.3,48-8.1c-3.1,9.4-9,9.8-14.5,10.6c-31.4,4.2-61.6,11.4-89,29
	c-12.5,8-29,1.8-43.1,7.2c-4.7,1.8-9.9,1.2-13.1,6.6c-9.8,16.2-24.7,25.5-43.9,28.8c18.4,20,35.8,21.5,69,5.7
	c-4.7,13.7,3.1,17.9,13.5,19.7c6.2,1.1,12.5,2.4,18.7,2.2c30-1.3,34,1.8,21.6,29.3c-24.1,53.3-32,108.5-27.3,166.1
	c0.1,1.4-1,3-3.2,8.9C207,309.5,211.6,288.4,209.1,265.6z M161.6,71.5c-16-0.3-27,4.4-38,9c-3.7,1.6-8,3.3-5.8,8.6
	c2,4.8,6.6,3.8,10.4,3.1C140.7,90.1,149,81.2,161.6,71.5z"/>
<path class="st0" d="M429.7,357.1c5.2,11.8,7.7,23.7,2.3,37.3C426.6,381.2,428.4,369.2,429.7,357.1z"/>
<path class="st0" d="M277.2,245.6c-7.9,12.7-15.7,25.4-23.9,38.6C249.7,268.8,257.7,254.4,277.2,245.6z"/>
<path class="st0" d="M309.9,293.3c-0.3,15.2-1.9,30.1-15.6,41.7c3.6-14.4,7.2-28.7,10.8-43C306.7,292.5,308.3,292.9,309.9,293.3z"/>
<path class="st0" d="M360.4,371.2c-0.4-13.4,2.2-26.2,8.5-38.3C373.3,347,368.2,359.4,360.4,371.2z"/>
<path class="st0" d="M353.1,743.3c-0.7,1.9-1.4,3.7-2.1,5.6c-2.4-2.4-1-4.9,0.1-7.3C351.8,742.1,352.5,742.7,353.1,743.3z"/>
<path class="st0" d="M342.4,760.1c0.7-0.7,1.4-1.3,2.1-1.9c0,0.7,0,1.5,0,2.2c-0.8-0.2-1.5-0.4-2.3-0.6
	C342.1,759.7,342.4,760.1,342.4,760.1z"/>
<path class="st0" d="M506,679.4c-3-13.5,3.3-25.4-5.9-35.4C515.3,646.3,517.6,658.9,506,679.4z"/>
</svg>
