<?xml version="1.0" encoding="utf-8"?>
<!-- Generator: Adobe Illustrator 25.4.1, SVG Export Plug-In . SVG Version: 6.00 Build 0)  -->
<svg version="1.1" id="Capa_1" xmlns="http://www.w3.org/2000/svg" xmlns:xlink="http://www.w3.org/1999/xlink" x="0px" y="0px"
	 viewBox="0 0 595.3 841.9" style="enable-background:new 0 0 595.3 841.9;" xml:space="preserve">
<style type="text/css">
	.st0{fill:#080909;}
	.st1{fill:#FFFFFF;}
	.st2{fill:#F9FAFB;}
	.st3{fill:#F8FAFB;}
	.st4{fill:#080608;}
	.st5{fill:#CEE8F5;}
	.st6{fill:#D0E7F2;}
	.st7{fill:#D0E7F3;}
	.st8{fill:#CEE8F4;}
	.st9{fill:#25131B;}
	.st10{fill:#FAFAFA;}
	.st11{fill:#5F315F;}
	.st12{fill:#623061;}
	.st13{fill:#DF944E;}
	.st14{fill:#DA9552;}
	.st15{fill:#F2ECE6;}
	.st16{fill:#613162;}
	.st17{fill:#CE925B;}
	.st18{fill:#60325D;}
	.st19{fill:#E6E6E7;}
	.st20{fill:#F2F3F2;}
	.st21{fill:#CE925F;}
	.st22{fill:#E19F57;}
	.st23{fill:#CF9765;}
	.st24{fill:#64325F;}
	.st25{fill:#CE9460;}
	.st26{fill:#D0975E;}
	.st27{fill:#3F241D;}
	.st28{fill:#EDEAEC;}
	.st29{fill:#D1945A;}
	.st30{fill:#CE8F5F;}
	.st31{fill:#62345D;}
	.st32{fill:#BC835F;}
	.st33{fill:#D29566;}
	.st34{fill:#563553;}
	.st35{fill:#6D3A4B;}
	.st36{fill:#432244;}
	.st37{fill:#5F315E;}
	.st38{fill:#D3A579;}
	.st39{fill:#EEE9EC;}
	.st40{fill:#4F3050;}
	.st41{fill:#543B34;}
	.st42{fill:#F1E9E5;}
	.st43{fill:#3C211A;}
	.st44{fill:#60305B;}
	.st45{fill:#60384A;}
	.st46{fill:#421D2A;}
	.st47{fill:#D7D5D3;}
	.st48{fill:#472D49;}
	.st49{fill:#C19466;}
	.st50{fill:#5E3822;}
	.st51{fill:#361C31;}
	.st52{fill:#462B33;}
	.st53{fill:#D79661;}
	.st54{fill:#FDFCFB;}
	.st55{fill:#623166;}
	.st56{fill:#6F5050;}
	.st57{fill:#D6D5D0;}
	.st58{fill:#E6DDE7;}
	.st59{fill:#4D2B36;}
	.st60{fill:#AF7E75;}
	.st61{fill:#713F58;}
	.st62{fill:#472F4A;}
	.st63{fill:#8A675D;}
	.st64{fill:#C3876B;}
	.st65{fill:#BC8978;}
	.st66{fill:#B186AB;}
	.st67{fill:#5B395A;}
	.st68{fill:#C4917D;}
	.st69{fill:#52344F;}
	.st70{fill:#542517;}
	.st71{fill:#6A2E45;}
</style>
<path class="st0" d="M290.2,285.2c70.2-1.6,131.8,11.7,187.3,45.8c45,27.6,81.1,64.6,106.7,111.3c8.2,14.9,9,28,0.4,43.3
	c-37.2,66.5-90.7,115.1-162.8,138.9C300.7,664.4,185.3,653,81.7,573.4c-30.4-23.4-54.4-52.9-72.8-87c-8.8-16.5-6.9-30.1,1.9-45.6
	c45.6-80.6,115-128.2,204.3-148.6C241.7,286.1,268.5,284.2,290.2,285.2z"/>
<path class="st1" d="M413.9,311c19.5,5.2,37.5,13.8,54.5,24.5c6.8,11.9,15.6,22.8,18.1,36.9c0.7,3.9,3.8,6.8,6.3,9.9
	c22.2,27.9,30.4,60.1,22.5,94.2c-2.9,12.6-6.7,27.8-18.7,37.4c-2.9,2.3-3.6,6.1-4.9,9.4c-3.8,9.1-9.6,16.2-18.8,20.4
	c-6.5,2.9-12.9,6.3-16.1,13.4c-0.6,1-1.4,1.8-2.2,2.6c-1.8,0.9-4,1.3-5.5,0c-8-6.4-12.5-2.3-16.2,5.1
	c-34.1,19.9-70.6,33.4-108.8,42.9c-38.8,9.6-78.2,10.9-117.8,9c-4.2-0.2-4.1,0.9-3.4,3.8c-1.1,4.4-4.1,4.4-7.5,3.3
	c-21.6-4.8-41.8-13.2-60.8-24.5c-2.6-4.5-5.6-8.7-10.2-11.3c-1.7-1-4-2.2-4.3-4c-3-19.2-22.2-29.6-26.1-48.3
	c-1.8-8.6-9.2-13.6-14.2-20.3c-9.7-24.3-12.2-48.8-1.1-73.4c14.3-9.5,23.3-23.6,30.7-38.3c6.7-13.3,20.3-18.3,29.2-28.6
	c1-1.1,3.1-1.8,4.4-1.2c10.2,4.7,14.7-3.6,20.6-8.7c36.9-22.8,77.3-36.1,119.4-45.2c30.4-6.5,61.2-7.6,92.1-7.4
	c6.8,0,13.4,1.2,19.8,3.3c4.7,3.2,8.9,4.5,12.4-1.8C408.4,311.8,410.5,309.5,413.9,311z"/>
<path class="st2" d="M82.1,516.1c13.2,5.9,14.3,19.6,19.7,30.5c2.7,5.4,6.8,9.2,10,13.8c8.8,12.1,15.3,25.8,22.7,39
	c-56.1-28.6-96.3-72.4-124.2-128.3c-3.3-6.6-0.4-11.3,2.3-16.6c42-80.9,108.2-131.3,196.3-152.3c65.2-15.6,130.6-13.4,195.3,4.9
	c3.3,0.9,6.5,2.7,9.7,4.1c-4.1,1.5-4.8,5.8-7.2,8.7c-3.7,4.6-7.5,5.8-9.8-1.4c-0.8-2.1-2.6-2.8-4.5-3.4c-37.9-10.6-76-15.1-114.5-3
	c-37.6,11.7-73.4,27.2-106.5,48.6c-3,2-7.7,2.9-8.2,7.9c-5.3,5.2-7.7,17.3-19.2,7.7c-1.8-1.5-4.3,0.8-6.2,2.3
	c-16.2,12.2-27.8,28.3-37.8,45.5c-4.5,7.8-10.3,13.9-18,18.3c-4.9-6.4-1.3-12,1.9-17.5c13.6-23.5,33.9-40.8,54.5-57.7
	c24.1-19.6,50.2-36,78.7-48.6c9.4-4.2,18.7-8.3,27.4-10.3c-36.5,4.5-72.5,14.9-105.7,33.7c-36.2,20.6-68.4,45.9-91.9,81.1
	C39.2,434.1,31.4,445,26,457.6c-2.5,5.9-2.8,11.3,0.3,17.1c20,37.7,46.7,69.4,81.8,93.9c1.5,0.7,0.7-1.8,0.3-0.3
	c-0.1,0.6-0.6,0.6-1.1,0c-12.2-13.3-20.2-29.2-26.9-45.7C79.6,520.4,80,517.9,82.1,516.1z"/>
<path class="st3" d="M454.2,559.1c-0.6-8.8,5.6-12.8,12.2-15.6c12.4-5.3,21.6-12.8,23.8-26.9c0.5-3.4,3.3-5.2,5.9-7.1
	c1.9-1.4,4.5-2.7,5.2-4.6c9.4-25.2,20.8-49.6,9.5-78.2c-3.3-8.5-5.2-19.2-9.7-26.8c-9.4-16-19.6-31.2-26.9-48.7
	c-2.1-4.9-5.6-9.7-5.9-15.7c51.2,29.1,89.1,70.5,114.8,123.4c2.7,5.6,1.2,9.8-1.2,14.5c-31.4,62.8-79,109-143.6,136.4
	c-79.1,33.6-160.6,36.8-243.2,13.9c3.2-0.3,5.8-1.3,6-5.1c4.3-3.8,9-2,13.5-0.7c53.3,14.4,103.6,6.2,152.5-18
	c20-9.9,39.5-20.5,58.7-31.6c2.7-1.6,7.5-1.7,6.6-6.9c2.7-8.9,6.9-13.1,15.4-5.1C449.6,557.8,452.1,558.2,454.2,559.1
	c0.6,7.8-5.8,10.8-10.6,14.4c-28.4,21.4-59.2,38.4-94.3,49.7c66.1-10.6,124.2-35.4,171.6-82c20.8-20.5,36.7-44.7,49.5-70.9
	c2.4-4.9,1.2-9.3-1-13.6c-18.6-36.3-45.2-65.8-77-91.1c6.7,10.4,13.1,20.9,17.8,32.2c4.7,11.3,10.1,22.5,12.1,34.7
	c5.7,35.6-1.4,67.5-26,95.2c-9.1,10.2-19,19-29.6,27.4C463.2,557.7,459.8,562.4,454.2,559.1z"/>
<path class="st4" d="M190.9,462.6c0.1-59.4,47.3-106.5,106.7-106.4C361,356.3,406,410,404.5,465.3c-1.6,58.6-48.3,105-108.4,104.9
	C237.2,570.2,190.8,522.7,190.9,462.6z"/>
<path class="st5" d="M82.1,516.1c-0.7,4.7,1.8,8.4,3.7,12.3c7.3,15.2,15.8,29.7,26.8,45.2c-24.5-13.5-42.1-31.5-58.2-51.2
	c-11.5-14.1-21.4-29.2-30-45.3c-3.5-6.7-5.2-12.5-1.4-20c18.5-36.8,43.1-68.4,76.3-93.2c38.5-28.8,80.9-48.4,128.4-56.5
	c8.7-1.5,17.5-2.4,26.9-1.2c-11.8,4.8-23.9,9-35.4,14.5c-25.1,12-49.1,25.5-71.3,43.2c-20.2,16.1-39.7,32.3-55.6,52.6
	c-5.7,7.3-11.9,15-10.5,25.6c-8.1,14.3-8.1,29.9-6.4,45.5C76.5,497.2,79.8,506.6,82.1,516.1z"/>
<path class="st6" d="M163.1,368.4c-2.1-4.1-2.3-4.4,2.2-7.1c19.7-12,38.8-24.7,60.3-33.6c21.5-8.9,43.1-18.1,65.6-23
	c27.8-6,56.4-4.8,84.3,2.8c7.6,2.1,15.4,3.4,22.7,6.3c5,2,1.8,3.7-1.3,4.4C313.4,309.5,235.8,327.5,163.1,368.4z"/>
<path class="st7" d="M432.7,561.4c6,0.9,2.7,3.5,0.7,5c-17.7,12.7-36.8,23.3-56.3,32.6c-17.9,8.5-36.3,16.4-55.6,21.9
	c-26.3,7.5-52.7,9.5-79.6,5.2c-13.6-2.2-27-5-40.6-7.5c-1.9-1.3-3.9-2.5-7.4-4.8c22.9,0,44.2,0.8,65.5-0.2
	c25.9-1.2,51.3-6.4,76.6-12.8c32.7-8.3,62.9-22.2,93-36.5C430.3,563.6,431.4,562.4,432.7,561.4z"/>
<path class="st8" d="M454.2,559.1c47.1-28.8,78-72.7,63.5-133c-4.4-18.2-12.4-35.8-23.5-51.5c-3.4-4.8-6.1-10.1-10.4-17.3
	c15.1,7.2,25,16.9,34.8,26.7c18.2,18.2,33.3,38.6,47.8,59.9c11.4,16.8,6.7,29.5-2,44.8c-24.3,42.7-58.7,75-100.5,99.5
	c-36.9,21.6-77.7,32.5-119.8,39.1c-0.2,0-0.6-0.5-1.2-1.1c1.3-5.5,6.4-5.8,10.6-7.4C390.7,604.9,425.8,587.8,454.2,559.1
	C454.2,559.1,454.2,559.1,454.2,559.1z"/>
<path class="st9" d="M287.1,401.7c2.8,3,6.2,5.5,7.1,9.8c-0.9,0.7-1.9,1-3,1.1c-3.8-0.4-8.8-2.3-11,1.3c-2.1,3.5,1.5,7.2,4.1,10.2
	c2.3,2.3,5.1,4.5,3.8,8.4c-0.4,0.8-2.1,1.3-1.8,1.9c0.5,1,1.4-0.4,2.3-0.4c5.5-1.3,7.7-6.5,11.4-9.9c5-3,6.9,1.1,9.4,4
	c0.3,2.5-0.9,4.4-2.6,6c-4,2.9-4,5.3,0.7,7.7c4.9,2.6,9.5,5.7,13.7,9.4c3.8,3.3,6.9,6.9,3.2,12.2c-0.5,2-0.2,4.1-0.7,6.1
	c-1,3.1-2.8,5.8-4.8,8.2c-4.9,6.3-10.4,11.7-19,12.4c-1.6,0.1-3.1,0.1-5.2-0.5c4.9,4.9,10,3.4,15.1,1.6c3-1.8,6-3.7,9.8-2.2
	c2.4,1.5,3.2,3.8,3.1,6.4c-1.3,7.4-7.5,6.6-12.6,7.6c-7.3,1.5-14.5,2.1-21.9,0.6c-8.7-2.1-14.3-9.9-22.6-12.8
	c-1.8-0.6-3.4-2.6-3.5-4.6c-0.8-12.5-4.1-25.2-1.7-37.6c1.5-7.5,0.7-10.8-6.8-11.8c-2.1-2.1-4.7-1.6-7.2-1.7c-3.8,0.8-5.1-1-4.7-4.5
	c2.3-3.4,0-5.2-2.3-6.9c-1.1-1.9,8-0.9,1.3-4.7c-1.6-0.9-2.2-3.1-1.5-5.3c0.8-0.7,1.7-1.4,2.5-2.1c1.3-1.4,3.2-1.3,4.1-0.1
	c5.8,7.2,14.1,10.7,21.6,14.9c-0.7-6-9.1-10-6.2-17.6c0.7-0.9,1.5-1.8,2.2-2.7c1.9-1.6,4.1-2.4,6.5-2.8
	C275.6,402.9,281,399.2,287.1,401.7z"/>
<path class="st10" d="M368.1,420.5c-8.1,11-18.3,16.5-32.3,12.3c-1.7-0.5-3,0.1-3.6,1.9c-0.7,1-1.7,1.6-2.8,1.9
	c-3.6,0-5.6-1.5-5.3-5.3c0.6-1.9,2.4-2.4,3.9-3.2c-1.6-13.2,0.6-24.7,13.3-32.1c13.9-8.1,23.9-4.6,29.7,10.6
	C374.4,412.2,371.9,416.5,368.1,420.5z"/>
<path class="st11" d="M287.4,502.4c8.4-1,16.8-2.1,25.2-3c3.4-0.4,7.3,0.4,8.2-4.4c1.4-1.6,1.3-6.3,3.3-5c8.8,5.8,7.7-2.7,10-6.3
	c4.4-9.9,3.2-19.5-1.2-29c-2.4-5.4-3.5-10.6,1.8-15.1c6.1-4.7,11.9,0.3,12.6,3.9c2.5,13.9,11.6,28.2-0.2,42.1
	c-2.6,3-4.5,6.3-5.1,10.4c-0.6,4-2.4,7.6-6.7,9c-14.2,4.6-28.5,8.4-43.4,3.5C288.8,507.5,286.6,506.1,287.4,502.4z"/>
<path class="st12" d="M287.4,502.4c1.5,2,2.9,4.1,4.4,6.1c-6.4,4.5-11.1,3.2-16-3.1c-3.3-4.2-5.7-9.4-12.9-10.8
	c-4.5-0.9-9-7.6-9.3-14.1c-0.2-4.1-0.4-8.3-3-11.3c-10.7-12.1-5.1-22.3,3.2-32.4c4.3,1.4,6.3-7.3,11.3-2.8c4.7,4.3-0.3,7.8-1.5,11.6
	c-3.2,10.6,0.1,20.6,2.9,30.4c0.7,2.6,0,3-1.1,4.4c-3.5,4.3-1.8,7.8,2.8,9C276.2,491.4,281.1,497.8,287.4,502.4z"/>
<path class="st13" d="M348.6,539.7c-6.9-2.2-7.2-9.7-11.5-14c-5.5-2.9-6.6-7.1-3.5-12.5c15.7-13.2,15.9-13.2,34.1-1.6
	c0.9,0.7,1.4,1.7,1.2,2.9C365.3,525.4,357.7,533.2,348.6,539.7z"/>
<path class="st14" d="M261.2,408.8c2.3,9,11,15.2,12.1,27.5c-9.7-11.6-23.9-13.6-31.6-24.6c-2.3-3.6-3.8-8.9-7.1-10.6
	c-8.7-4.5-2.8-6.9,0.4-10.3c4.7-5,10.8-0.6,11.2,1.6C247.9,401.5,255,404.5,261.2,408.8z"/>
<path class="st15" d="M381.7,448.4c8-1.2,9,2.1,9.9,6.5c1.4,7-4.1,4.7-6.7,5c-6.7,0.9-13.4,1-20.2,1.4c-2.9,0.1-5.6,0-6-3.9
	c-0.3-3.5,1.2-5.1,4.5-5.6C370.3,450.5,377.3,449.2,381.7,448.4z"/>
<path class="st16" d="M287.1,401.7c-5.6,1.5-11.1,3-16.7,4.4c-1.4-2.6-4.5-4.3-4.3-7.8c2.8-2.5,7-3.6,6.8-8.6
	c-0.2-6,4.2-6.7,8.8-6.8c6-0.1,5.6,4.2,5.6,8.2C287.4,394.6,287.2,398.1,287.1,401.7z"/>
<path class="st17" d="M246.1,539c-12.6-1-15-4.6-9-13.4c1.1-3.5,3.3-5.9,7-6.9c5-2.1,8-12,13.3-7.7c3.9,3.2-4.4,8.7-5.8,13.8
	c-1,3.6-7.4,5.7-2.9,10.7C249.8,538.1,248.2,538.8,246.1,539z"/>
<path class="st18" d="M312.9,371.7c12.5-3.1,20.3,3.5,28.7,7.1c2.8,1.2,9.4,2.4,5.7,7.7c-2.3,3.3-7.3,4.8-11.7,1.6
	C328.6,383.1,321.7,378.1,312.9,371.7z"/>
<path class="st19" d="M359.6,446c-1.1,0.3-3.2-0.4-3.7-3.3c-0.5-2.7,0.9-4.3,3.6-5.2c7.1-2.4,14.2-4.9,21.1-7.8
	c5.7-2.4,6.8,1.4,8.3,5.2c2.6,6.7-3.6,4.2-5.8,4.9C376,442.1,368.6,443.7,359.6,446z"/>
<path class="st20" d="M268.2,383.1c-0.5,5.3,1.4,11.4-6,11.4c-7.3,0-10.7-6.3-10.9-11.8c-0.2-7.3,8.1-8.4,13-8.7
	C271.8,373.5,265.7,380.9,268.2,383.1z"/>
<path class="st21" d="M334.1,528.1c1.4,6.7,3.9,13.3,2.2,20.2c-5.1,1.5-8.1-10.1-13.3-1.3c-3.8-2.8-5.2-6.5-4.1-11.1
	c2.6-5.9,7.1-10.4,10.9-15.4C335.8,520.5,333.3,525.2,334.1,528.1z"/>
<path class="st22" d="M301.7,401.4c-3.3-9.4-1.2-19.6-2.4-29.3c-0.3-2.3,1.4-3.4,3.7-3.5c2.6-0.1,5.1,0.7,4.9,3.6
	c-0.6,9.8-1.6,19.5-2.4,29.3C304.2,401.5,302.9,401.4,301.7,401.4z"/>
<path class="st23" d="M247.9,494.4c-8.2,10.5-17.9,13.9-25,20.5c-2.9,2.7-5.2,0.9-6.6-1.8c-1.3-2.5-1.9-5,2-6.6
	C227.1,502.8,234.8,496.5,247.9,494.4z"/>
<path class="st24" d="M377.5,471.2c4.8,0,11.8-3.4,13.4,2.1c1.4,4.8-0.9,12.1-4.1,16.4c-3.6,4.8-7.8-1.3-11.7-2.7
	C374.1,481.4,374,476,377.5,471.2z"/>
<path class="st25" d="M230.1,487.7c3.8,0.8,7.1-4.4,12.4,0.2c-8.3,7.4-19.1,9.8-28,15.5c-1.9,1.3-3.6-0.4-4.4-2.5
	c-1-2.3-0.2-4,1.7-5c3.8-2.1,7.7-3.8,11.6-5.7C224.8,487.1,228.1,489.2,230.1,487.7z"/>
<path class="st26" d="M203.8,482.4c-0.6-4,0.1-6.6,5.1-7.1c7.4-0.8,14.7-2.3,22.1-3.5c2.3-0.4,5-1.2,5.8,2c1.1,4.2-2.1,4.1-4.8,4.5
	c-3.1,0.6-6,1.7-9,2.5C216.9,485.9,210.4,484.7,203.8,482.4z"/>
<path class="st27" d="M237,456.6c-3.6,5.2-10.4-0.2-14.2,4.3c-4.4,4-12.1,3.1-14.5,10c-7.5-3.4-6-10.7-6.5-16.6
	c-0.2-2.3,0.6-8,6.3-4.9c4.7,3.4,10.1,3.9,15.6,4C228.4,453.4,233.2,452.9,237,456.6z"/>
<path class="st28" d="M300.8,425.6c-3.9,3.2-3.6,11.4-11.5,9.8c-0.8-0.8-2.1-1.4-1.6-2.9c-1.8-2.3-3.6-4.6-5.3-6.9
	c-0.3-7.1,4.5-10.8,9.5-14.3c0.8-0.2,1.6-0.1,2.3,0.3c-0.1,3.5,1.5,6.3,3.2,9.1C298.6,422.2,300.5,423.4,300.8,425.6z"/>
<path class="st29" d="M208.3,470.9c-1.6-12.6,7.7-9.5,14.5-10c4.5,0.9,9.6-0.2,14.4,4.4C227.5,469.5,218.1,470.9,208.3,470.9z"/>
<path class="st30" d="M377.5,471.2c0.2,5.4,1.5,10.9-2.3,15.8c-6-2.6-15.8-5.5-14.9-10.7C361.2,470.4,371.3,472.3,377.5,471.2z"/>
<path class="st31" d="M215.5,444.8c-5.8-1.3-4.8-4.8-3.1-8.9c1.4-3.3,3.3-5.2,7.1-3.8c4.9,1.7,11.6,1.6,10,9.9
	C225.7,447.1,221.1,448.5,215.5,444.8z"/>
<path class="st32" d="M237,456.6c-7.1-0.1-14.2-0.3-21.3-0.2c-5.1,0.1-6.9-2.8-7.6-7.2c2.5-0.7,5-1.4,7.5-2.1
	c7.6-0.4,15.2-1.2,21.4,4.8C237,453.5,237,455.1,237,456.6z"/>
<path class="st33" d="M367.8,507.2c-6-4.2-11.1-9.3-16.9-16.2c8.9-0.5,15.6,1.8,22.4,3.4C373.2,499.3,373.1,504.3,367.8,507.2z"/>
<path class="st34" d="M241.7,430.7c1.6,1.5,3.1,3,4.7,4.5c-2.3,4.1-5.2,2.3-8,0.8c-8.5-4.6-17.8-7.7-27.2-17.4
	C224.8,419.7,231.9,429,241.7,430.7z"/>
<path class="st35" d="M348.6,539.7c5.6-9.5,14.7-16.4,19.1-26.7c4.1,2.6,2.6,6.8,2.8,10.4C364.3,530.3,359.5,539.1,348.6,539.7z"/>
<path class="st36" d="M328.1,428.1c-0.9,0.8-1.8,1.6-2.6,2.3c-1.2,6-4.8,10.9-10.6,11.5c-5,0.5-6.6-5.4-8.8-9.3
	c0.7-1.5,1.5-3.1,2.2-4.6c4.1-1.2,4.4-7.8,9.8-7.3C321.5,423.2,324.8,425.7,328.1,428.1z"/>
<path class="st37" d="M318.2,420.8c-4,1.5-1.6,11.5-9.8,7.3c-2.5-0.8-3.9-5.2-7.6-2.5c-1.2-1.7-2.3-3.3-3.5-5
	c6.2-0.7,14.7,3.9,16.6-7.3c0.3-1.9,3.1-2.8,4.8-1.1C321.9,415.1,319.4,418,318.2,420.8z"/>
<path class="st38" d="M289.7,545c-0.9-5.6-3.4-11-2.5-16.8c4.8-3.6,8.8-3.2,11.8,2.3c0.9,6.7-2.3,12.5-4,18.6
	C292.2,549.1,291.6,546.3,289.7,545z"/>
<path class="st39" d="M308.4,544.3c-4.6-4.7-2.5-10.8-2.6-16.1c-0.2-6.7,3.9-6.2,8.1-2.7c5.5,4.6,4.3,10.8,3.9,16.7
	C315.8,548.1,311.5,543.4,308.4,544.3z"/>
<path class="st40" d="M368.1,420.5c1-4.6,2-9.2,3.1-13.8c10.1,4.1,10.7,11.2,6.2,19.7C372.1,427.5,374.6,417.3,368.1,420.5z"/>
<path class="st41" d="M315.6,544.3c1.3-6.4-1-12.5-1.7-18.8c1.5-1.5,2.9-3,4.4-4.5c3.2,4.1,3.6,8.7,2.4,13.6
	c0.8,4.2,1.5,8.3,2.3,12.5c-4.8,0.3,1.3,11.5-7.7,7.6C315.3,551.2,313.4,547.7,315.6,544.3z"/>
<path class="st42" d="M320.7,534.6c-2.7-4.2-2.7-8.8-2.4-13.6c2.3-1,5.5,0.4,7-2.7c3.5-1.6,5.6-0.8,5.7,3.3
	C329.5,527.5,325.3,531.2,320.7,534.6z"/>
<path class="st43" d="M203.8,482.4c6.6,2.6,12.6-2,19.1-1.6c2.9,1.8,6.2,3.2,7.2,6.9c-1.8,2.2-4.3,2.3-6.8,2.5
	C217.4,486.2,209.3,487.5,203.8,482.4z"/>
<path class="st44" d="M370.6,523.5c-3.7-2.7-1.7-7-2.8-10.4c-0.1-0.5-0.2-0.9,0-1.4l0.4-0.4c2.3-1.9,2.8-5,5.1-6.9
	C386.1,512.5,373.4,517.4,370.6,523.5z"/>
<path class="st45" d="M373.2,504.3c-0.2,3.4-1.7,5.8-5.1,6.9c-0.1-1.3-0.2-2.7-0.3-4c1.8-4.3,3.7-8.6,5.5-12.9
	c4.4,0.5,9.3-0.5,12.2,4.1C383.6,505,375.8,499.2,373.2,504.3z"/>
<path class="st46" d="M236.9,452c-7.1-1.6-14.2-3.2-21.4-4.8c0-0.8-0.1-1.6-0.1-2.4c5,0.6,9.4-1.4,14-2.8
	C230.6,446.3,237.6,446.3,236.9,452z"/>
<path class="st47" d="M246.1,539c0.9-1.2,1.7-2.4,2.5-3.6c2.3-2.4,3.6-6.8,8.1-5.1c2.4,0.9,1.2,3.4,0.3,5c-1.8,3.6-1.3,9.4-6.9,9.7
	C247,545.2,243.9,543.4,246.1,539z"/>
<path class="st48" d="M269.5,374.3c5.4-5.7,9.7-7.1,14.9-4.7c0.7,0.3,1.4,2.4,1.1,2.8C281.4,377.2,276.5,375.6,269.5,374.3z"/>
<path class="st49" d="M239.2,413.8c-2.4,3.4,13.3,6.4,0.2,9.9c-3-2.1-8.2-2.7-6.9-8.1C233.5,411.8,236.5,412.7,239.2,413.8z"/>
<path class="st50" d="M315.6,544.3c1.3,3.5,4.6,7.1-0.3,10.4c-9,0.9-2.8-8.1-6.9-10.4C310.8,533.2,313.2,544.5,315.6,544.3z"/>
<path class="st51" d="M334.6,439.6c-1.1,4.9-1.8,9.7,0.4,14.6c0.8,1.5,1.2,3.2-0.3,4.1c-2.6,1.5-4.8-0.3-5.7-2.4
	c-2.9-6.8-3.9-13.6,1.2-20.1c0.7-0.4,1.4-0.8,2.1-1.1C333.1,436.4,333.8,438,334.6,439.6z"/>
<path class="st52" d="M244.1,518.7c-1.5,3.2-4.1,5.2-7,6.9c-1.7-3.1-7.7-1.8-7.3-7.1c2.6-3,7-3.6,9.4-6.9
	C242.7,512.7,241.2,517.2,244.1,518.7z"/>
<path class="st53" d="M265.7,552.1c-2.7-0.1-5-0.8-5.2-3.7c-0.2-2.8,0.6-5.6,4-6.1c2.9-0.4,4.5,1.3,4.9,3.8
	C269.8,548.9,269.1,551.6,265.7,552.1z"/>
<path class="st54" d="M299,530.5c-3.5-3-7.8-1.8-11.8-2.3c-0.5-8,5.2-3.5,8.1-3.8C299.9,524,300.6,526.8,299,530.5z"/>
<path class="st55" d="M239.2,511.6c1.3,8.3-4.3,7.2-9.4,6.9C229.7,511.8,233.9,511.1,239.2,511.6z"/>
<path class="st56" d="M331,521.7c-0.9-2.8-2.9-3.8-5.7-3.3c2-3,5.1-4.2,8.3-5.1c-1.5,4.9,2.5,8.3,3.5,12.5c-1,0.8-2,1.6-3,2.4
	C333.1,526,332,523.8,331,521.7z"/>
<path class="st57" d="M289.7,545c3.2-0.4,4.4,1.7,5.3,4.1c-1,2.5,0.8,8.1-3,7C287.4,554.8,290,549,289.7,545z"/>
<path class="st58" d="M266.1,398.3c5.2,0.5,7.1,2.8,4.3,7.8c-2.3,0-4.7,0-7,0.1C263.1,403.1,261.4,399.6,266.1,398.3z"/>
<path class="st37" d="M330.1,435.8c0.1,6.2-0.3,12.5,0.6,18.6c0.5,3.2,3.1,5.3,4.3-0.2c6.4,10.4,6.6,23.8,0.3,30.9
	c-2.2-5.5-7.1-9.6-5.9-16.9c1-5.9-7-0.8-8.7-4.9c2.8-3.4,4.8-6.5-0.6-9.7c-5.4-3.2-10.3-7.1-15.5-10.6c-2.3-1.6-7.6,0.7-7.2-3.9
	c0.4-4.1,4.3-6.3,8.7-6.4c0.8,0.2,1.9,0.1,2.2,0.5c7.7,11.6,12,1.7,17.1-2.7C324.7,434.2,326.6,435.7,330.1,435.8z"/>
<path class="st51" d="M320.7,463.4c7.1-0.7,18.6-6.5,11.3,10c-0.4,1,6.7,6.2,3.3,11.7c-0.2,1.9-0.2,3.9-0.8,5.8
	c-1.7,5.3-2.8,12.7-9.1,2.4c-2.4-4-2.9,1.6-4.7,1.7c-0.3-2.1-0.6-4.2-2.9-5.2c-1.4-6,6.7-8.3,5.7-14.2c0.1-2.6,0.2-5.3-0.6-7.8
	C322.2,466.3,321.5,464.8,320.7,463.4z"/>
<path class="st59" d="M284.7,470.8c-3.3-6.6-5.2-14.3,1-19c9-6.8,19.1-6.1,27.7,2.1c-1.5,2-3.7,2.7-6,2.9c-1.2,0.1-2.3,0.1-3.5,0.2
	c-12.9,0.6-13.1,0.9-11.5,13.6c-0.8,0.9-1.7,1.5-2.9,1.8C287.7,472.4,286.1,472,284.7,470.8z"/>
<path class="st60" d="M292,470.7c-2.9-3.7-6.6-7.3-2.9-12.5c4.6-6.5,10.8-5,17.1-3.5c6.5,3.6,3,9.3,2.9,14.3
	c-7.2,12.3-13.5,12.8-24.4,1.9c1.3,0.1,2.6,0.1,3.9,0.2c5.9,1.5,12.3,4.3,14.1-5.3c-0.8-2.8-2.3-5.8-5.4-4.3
	c-3.2,1.5-0.1,3.7,0.9,5.5c1,1.7,2.2,3.2,0.1,4.9C296,472.3,293.8,472.6,292,470.7z"/>
<path class="st61" d="M324.5,475.3c5.4,8.3-5.8,9-6.6,14.4c-3.5-0.1-4.2,3.9-7,4.8c-3-4-10.6,0.3-12-6.6c8.1-1.1,13-6.9,18.2-12.3
	C319.7,476.2,322,473.4,324.5,475.3z"/>
<path class="st62" d="M291.9,411.2c-1.8,5.7-5.4,10.1-9.5,14.3c-6.4-1.8-3.2-9.2-7.3-12.5c-1.5-1.2,0.4-3.6,1.5-3.4
	C281.6,410.9,287.3,405.7,291.9,411.2z"/>
<path class="st63" d="M309.1,469c-0.8-4.8,0.2-10-2.9-14.3c2.4-0.3,4.8-0.5,7.2-0.8c5.3,7,6.4,13.8-1.1,21
	c-0.8-5.3,2.6-9.8-0.3-14.6C311,463.3,310,466.1,309.1,469z"/>
<path class="st64" d="M299,488c3.2,3.7,10.3,0.2,12,6.6c-9.7,3.4-17.6,1.3-23.2-8C292,484.4,295.3,488.1,299,488z"/>
<path class="st65" d="M273.2,468.9c2.7,6.5,5.5,13.1,8.2,19.6C273,484.7,268.6,478.9,273.2,468.9z"/>
<path class="st66" d="M272.8,452c10.7,0.4,0.4,5.6,1.8,8.3c1,2.1-1.2,4.2-3,3.5c-6.5-2.5,1.7-6.5-0.6-9.6
	C271.1,453.1,271.7,452.3,272.8,452z"/>
<path class="st67" d="M272.8,452c-0.6,0.7-1.2,1.5-1.9,2.2c-0.2-0.3-0.5-0.6-0.7-0.9c-2.5-3-3.3-6.3-0.8-9.7c1-1.4,2.9-1.8,4.1-0.4
	C276.2,446.3,271.9,449,272.8,452z"/>
<path class="st68" d="M324.5,475.3c-2.4,0-4.7,4.2-7.3,0.3c1.9-2.6,3.8-5.3,5.8-7.9C329.4,469.1,326.8,472.2,324.5,475.3z"/>
<path class="st69" d="M287.7,432.4c0.5,1,1.1,2,1.6,2.9c-2.8,0.8-4.5,4.8-8,3.1c-0.9-0.4-1.3-2.8-1.1-4.1
	C281.4,429.2,285.4,434.1,287.7,432.4z"/>
<path class="st70" d="M292,470.7c2.1-0.1,4.2-0.1,6.3-0.2c2.6-1.2,2-8.2,7.5-4.3c-3.3,10.4-9.5,10.2-17.2,4.8
	C289.7,470.9,290.8,470.8,292,470.7z"/>
<path class="st71" d="M305.8,466.2c-3.7-0.7-4.3,4.1-7.5,4.3c-1.7-3.6-8.8-3.4-6.8-9.3c0.9-2.6,3-4.8,6.2-4.4
	C303.1,457.5,306.1,460.5,305.8,466.2z"/>
</svg>
