<?xml version="1.0" encoding="utf-8"?>
<!-- Generator: Adobe Illustrator 25.4.1, SVG Export Plug-In . SVG Version: 6.00 Build 0)  -->
<svg version="1.1" id="Capa_1" xmlns="http://www.w3.org/2000/svg" xmlns:xlink="http://www.w3.org/1999/xlink" x="0px" y="0px"
	 viewBox="0 0 595.28 841.89" style="enable-background:new 0 0 595.28 841.89;" xml:space="preserve">
<style type="text/css">
	.st0{fill:#080909;}
	.st1{fill:#0A0A0B;}
	.st2{fill:#0B0C0C;}
	.st3{fill:#D7D6D6;}
	.st4{fill:#C7C6C6;}
	.st5{fill:#B9B8B8;}
	.st6{fill:#F4F3F3;}
	.st7{fill:#F1F0F1;}
	.st8{fill:#F3F3F3;}
	.st9{fill:#F3F2F3;}
	.st10{fill:#EFEEEE;}
	.st11{fill:#E7E6E6;}
	.st12{fill:#EEEDEE;}
	.st13{fill:#D9D8D8;}
	.st14{fill:#E0DFDF;}
	.st15{fill:#EDECEC;}
	.st16{fill:#DFDEDE;}
	.st17{fill:#CAC9C9;}
	.st18{fill:#FFFEFE;}
	.st19{fill:#EAE9E9;}
	.st20{fill:#C6C5C5;}
	.st21{fill:#C9C8C8;}
	.st22{fill:#CBCBCB;}
	.st23{fill:#959495;}
	.st24{fill:#DEDDDD;}
	.st25{fill:#C1BFC0;}
	.st26{fill:#E8E7E8;}
</style>
<path class="st0" d="M298.23,421.34c0.65-2.38,1.71-4.73,1.33-7.24c-0.67-4.37,1.35-5.89,5.45-6.88c10.2-2.47,20.23-2.01,30.31,0.28
	c4.07,1.05,8.46,1.29,11.5,4.9c-2.33-2.38-5.43-3.36-8.15-5c-6.26-1.64-6.09-6.23-5.03-11.13c2.88-13.37,6.57-26.27,20.04-33.25
	c1.45-0.75,2-2.05,2.61-3.46c1.66-3.8,3.49-7.53,5.32-11.25c0.68-1.37,1.69-2.76,3.42-2.22c1.69,0.52,2.02,2.29,1.74,3.76
	c-0.76,3.91-1.74,7.77-2.71,11.64c-0.36,1.42-1.23,2.73,0.12,4.16c6.69,7.12,5.32,15.75,3.96,24.08c-1.26,7.7-3.46,15.28-7.87,21.87
	c-1.54,2.31-1.22,3.02,1,4.49c20.87,13.82,31.08,33.86,33.53,58.33c0.52,5.2-0.31,10.27-1.44,15.32
	c-1.38,6.18-5.62,10.05-11.26,11.55c-5.95,1.58-11.98,0.76-16.49-4.33c-1.86-2.1-3.54-4.37-5.3-6.56
	c-5.45-5.31-7.62-12.38-10.02-19.23c-3.08-8.78-5.52-17.77-8.31-26.64c-0.73-2.31-1.15-4.51,0.19-6.71c0.7-0.81,1.43-1.61,2.71-2.74
	c-1.25,0.95-1.88,1.68-2.64,2.26c-5.69,4.23-11.56,8.02-19.02,8.03c-3.13,0.01-6.23,1.37-9.5-0.42
	c10.06,26.02,5.13,50.98-2.69,75.71c-1.74,5.5-5.38,10.26-9.75,14.27c-9.62,8.82-21.83,8.68-27.77-6.68
	c-4.96-12.86-3.65-26.17-2.62-39.44c0.3-3.78,0.62-7.56,0.93-11.34c-0.43-0.06-0.87-0.11-1.3-0.17c-0.95,7.49-2.32,14.96-2.74,22.48
	c-0.42,7.43-0.77,14.97,0.99,22.34c0.69,2.87-0.23,4.6-2.86,6.04c-9.94,5.45-21.8,4.03-27.09-3.61c-3.16-4.56-3.79-10.05-3.61-15.26
	c0.69-19.65,4.76-38.51,14.94-55.65c3.91-6.58,9.02-12.28,14.18-17.86c1.44-1.55,1.9-2.35,0.47-4c-5.13-5.92-6.75-13.22-7.45-20.7
	c-0.54-5.78-0.4-11.63-0.63-17.44c-0.08-1.99,0.26-3.78,1.62-5.29c3.49-0.73,6.98-1.48,10.23-3.04c-3.21,1.61-6.78,2.06-10.15,3.15
	c-2.03-0.71-3.92,0.2-5.86,0.48c-13.34,1.87-25.39-0.72-35.34-10.38c-2.1-2.04-3.37-4.42-1.81-7.35c-1.25-0.94-1.89,0.25-2.76,0.52
	c-3.69,1.15-7.6,2.34-10.64-0.97c-2.87-3.13-2.17-7.25-1.03-10.8c1.78-5.54,6.45-7.34,11.36-4.13c3.78,2.47,5.62,2.22,8.27-1.56
	c3.06-4.37,7.98-6.39,13.45-6.28c4.47,0.09,8.93,0.4,13.4,0.62c13.99,1.22,23.99,8.31,30.41,20.53c-1.26-2.65-2.85-5.23-4.74-7.65
	c-0.94-1.2-1.5-2.58-1.25-4.17c2.45-15.88,5.67-31.59,10.52-46.92c0.36-1.13,1.01-2.08,1.98-2.8c4.96-7.85,9.18-9.07,17.49-4.8
	c7.41,3.81,12.53,9.84,13.21,18.14c1.06,12.93,1.17,25.93-3.64,38.4c-3.53,9.15-8.83,16.85-18.04,20.89
	c-2.62,1.15-1.59,2.46-1.3,3.84c1.08,5.03,2.29,10.04,3.49,15.04c1.53,6.35,2.09,12.78,1.77,19.29c-0.41,4.67-1.51,9.04-6.44,12.78
	C295.16,428.24,295.79,424.16,298.23,421.34z"/>
<path class="st1" d="M359.34,492.31c0.86,3.39-1.99,3.87-3.97,4.66c-8.62,3.43-17.21,0.7-23.19-6.42
	c-6.81-8.11-8.38-17.79-9.38-27.74c-0.38-3.79-0.44-7.62-0.83-11.41c-0.28-2.73,0.55-4.51,3.34-5.14c3.66-2.32,7.91-3.3,11.75-5.23
	c2.76-1.39,4.3,0.38,5.12,2.94c2.2,6.92,4.14,13.91,6.31,20.83c2.48,7.91,5.36,15.64,9.32,22.91
	C358.62,489.22,358.35,490.95,359.34,492.31z"/>
<path class="st2" d="M252.49,347.52c-3.19,0.07-2.82-2.74-2.65-4.22c1.36-11.78,2.12-23.76,9.25-33.98c6-8.59,17.46-9.96,24.23-2.9
	c-2.07,9.83-5.35,19.34-7.32,29.21c-1.25,6.29-2.42,12.59-3.6,18.88c-0.48,2.56-1.74,4.51-4.28,2.48
	C263.3,353.13,257.48,351.03,252.49,347.52z"/>
<path class="st3" d="M252.49,347.52c6.98,1.15,11.91,6.09,18.22,10.02c1.33-6.97,2.51-13.6,3.89-20.18
	c2.2-10.51,4.64-20.96,8.73-30.93c0.34,0.38,0.68,0.76,1.03,1.14c-4.36,14.74-7.67,29.73-10.59,44.82
	c-0.82,4.23-1.06,7.9,2.19,11.33c2.4,2.52,3.76,5.72,3.55,9.85c-6.49-13.93-17.6-21.67-32.04-24.99
	C249.05,347.85,251.09,349.23,252.49,347.52z"/>
<path class="st3" d="M359.34,492.31c-5.95-8.51-8.78-18.36-11.99-28.03c-2.08-6.26-3.68-12.68-5.49-19.03
	c-0.91-3.19-2.19-4.9-5.83-2.58c-3.2,2.04-6.88,3.18-10.72,3.58c-0.7-0.31-1.4-0.61-2.1-0.92c6.78-2.05,13.24-4.77,18.86-9.2
	c1.02-0.15,1.42,0.29,1.25,1.29c-1.89,1.42-1.21,3.25-0.66,4.95c5.29,16.22,9.1,32.98,17.63,48.01
	C359.43,490.75,359.51,491.59,359.34,492.31z"/>
<path class="st4" d="M338.65,407.38c4.91,0.14,8.12,3.08,11.41,5.9c-0.2,0.37-0.41,0.74-0.61,1.11c-4.71-2.3-9.42-4.6-14.14-6.91
	C336.43,407.45,337.54,407.42,338.65,407.38z"/>
<path class="st5" d="M298.23,421.34c-0.84,5.6-4.14,9.29-9.36,11.59c4.87-3.74,6.57-9.22,8.46-14.59
	C297.85,419.28,297.11,420.59,298.23,421.34z"/>
<path class="st6" d="M280.56,479.53c1.22-8.83,1.33-18.02,4.98-26.57c0.58-1.35,1.16-2.75,2.01-3.93c1.66-2.3,3.98-3,6.57-1.74
	c2.79,1.37,2.23,3.85,1.45,6.05c-2.77,7.79-5.71,15.52-8.53,23.29c-1.07,2.95-2.02,5.94-2.95,8.94c-0.3,0.99-0.52,2.13-1.68,2.16
	c-1.76,0.05-1.36-1.56-1.49-2.57C280.69,483.37,280.68,481.54,280.56,479.53z"/>
<path class="st7" d="M267.63,443.47c-0.98,5.45-4.48,8.76-6.84,12.54c-6.53,10.46-9.05,21.99-10.29,33.98
	c-0.35,3.37-0.02,8.88-3.76,8.52c-3.5-0.34-1.95-5.72-1.63-8.96c1.38-14.14,6.1-27.09,14.15-38.81
	C261.28,447.8,263.44,444.99,267.63,443.47z"/>
<path class="st8" d="M352.86,443.89c1.83,1.17,1.99,2.88,2.35,4.45c2.72,11.96,7.84,22.85,14.55,33.05c0.55,0.83,1.14,1.67,1.44,2.6
	c0.49,1.51,1.51,3.3-0.48,4.45c-1.85,1.06-2.72-0.81-3.53-1.8c-9.05-11.12-13.89-23.98-15.41-38.14
	C351.62,447.04,351.65,445.49,352.86,443.89z"/>
<path class="st9" d="M341.04,384.8c1.19-5.67,4.36-10.42,8.28-14.73c0.91-1.01,2.21-0.79,3.24-0.4c1.55,0.59,1.52,2.18,1.17,3.39
	c-1.51,5.24-3.39,10.32-7.33,14.33c-1.05,1.06-2.16,2.31-3.8,1.57C340.96,388.2,341.46,386.38,341.04,384.8z"/>
<path class="st10" d="M285.66,338.65c-0.12-8.8-0.52-17.35,4.28-25.18c0.74-1.21,1.68-2.3,3.12-1.91c1.8,0.48,1.67,2.24,1.63,3.7
	c-0.02,0.81-0.24,1.66-0.57,2.4c-2.76,6.2-5.03,12.55-6.27,19.24C287.7,337.71,287.35,338.43,285.66,338.65z"/>
<path class="st11" d="M252.26,360.51c0.2,3.23-2.32,4.55-5.7,2.96c-3.47-1.62-6.11-5.02-10.64-4.41c-1,0.13-1.71-1.48-0.51-2.63
	c3.26-3.13,13.99-1.47,16.2,2.5C251.93,359.5,252.11,360.14,252.26,360.51z"/>
<path class="st10" d="M266.03,419.65c-3.4-8.12-3.79-16.42-1.82-24.88c0.35-1.52,1.57-1.52,2.7-1.52c1.19,0,1.71,0.88,1.84,1.94
	c0.11,0.81,0.29,1.69,0.1,2.44C266.98,404.83,265.91,412.11,266.03,419.65z"/>
<path class="st12" d="M317.1,410.42c1.49,0.41,2.75,0.81,4.03,1.09c1.06,0.23,1.97,0.69,1.98,1.82c0.01,1.11-0.88,1.78-1.89,2.01
	c-4.83,1.11-9.68,2.16-14.53,3.22c-1.01,0.22-1.51-0.32-1.68-1.28c-0.26-1.47,0.32-2.57,1.45-3.46
	C309.65,411.31,313.72,411.75,317.1,410.42z"/>
<path class="st13" d="M245.83,384.68c-7.98,1.11-14.99-1.47-20.93-7.25C231.88,379.85,238.86,382.26,245.83,384.68z"/>
<path class="st14" d="M360.35,401.66c2.32-6.52,3.01-13.31,4.22-20.48C367.53,386.57,365.31,397.23,360.35,401.66z"/>
<path class="st15" d="M283.97,499.48c-0.31,2.36-0.27,5.45-3.04,6.04c-2.35,0.5-3.16-2.16-3-4.1c0.18-2.34,0.17-5.38,3.38-5.81
	C284,495.25,283.61,497.73,283.97,499.48z"/>
<path class="st16" d="M282.26,390.4c0.35-1.89-0.12-4.18,2.3-3.97c3.23,0.28,3.3,3.17,3.58,5.55c0.21,1.76-0.68,3.93-2.3,3.76
	C282.82,395.41,282.86,392.36,282.26,390.4z"/>
<path class="st17" d="M249.51,509.71c-0.14,1.6-0.75,3.21-2.44,3.25c-2.1,0.05-1.78-2.03-1.93-3.38c-0.18-1.62,0.28-3.08,2.41-2.79
	C249.21,507.03,249.63,508.22,249.51,509.71z"/>
<path class="st18" d="M258.41,388.42c3.06-2,6.6-3.12,11.91-3.66c-3.83,2.89-7.59,4.29-12,3.56
	C258.32,388.31,258.41,388.42,258.41,388.42z"/>
<path class="st19" d="M342.96,397.6c-0.33,1.43-0.56,3.2-2.32,3.34c-1.01,0.08-1.46-1.28-1.17-2.33c0.34-1.22,0.41-2.86,2.05-3.07
	C342.86,395.36,343,396.51,342.96,397.6z"/>
<path class="st20" d="M226.56,363.12c-1.14-0.2-1.45-0.98-1.32-1.8c0.25-1.57,1.06-2.78,2.84-2.73c0.89,0.02,1.63,0.7,1.34,1.62
	C228.98,361.64,227.72,362.41,226.56,363.12z"/>
<path class="st21" d="M282.05,353.15c-0.14-1.02-0.32-1.41-0.2-1.59c1.03-1.49,0.44-3.93,2.68-4.67c0.16-0.05,0.85,0.67,0.81,0.96
	C285.05,349.89,284.62,351.9,282.05,353.15z"/>
<path class="st22" d="M360.68,441.61c-3.12-0.67-2.99-2.97-4.41-4.9C360.38,436.68,360.22,439,360.68,441.61z"/>
<path class="st23" d="M343.32,437.41c-0.42-0.43-0.83-0.86-1.25-1.29c1.39-1.23,2.79-2.47,4.96-4.39
	C346.28,435.02,345.33,436.61,343.32,437.41z"/>
<path class="st24" d="M333.31,462.57c-0.29,1.6,0.76,3.44-0.91,3.87c-2.08,0.53-2.13-1.74-2.54-2.95
	c-1.14-3.45-2.25-6.95-1.68-10.68c0.15-1.02,0.41-2.19,1.48-2.35c1.44-0.22,1.96,1,2.16,2.2
	C332.36,456.07,332.85,459.5,333.31,462.57z"/>
<path class="st25" d="M336.21,476.71c0.08,1.28-0.43,2.48-1.45,2.39c-2.23-0.2-1.73-2.49-2.31-3.89c-0.44-1.07,0.25-2.05,1.52-1.81
	C335.79,473.75,335.96,475.39,336.21,476.71z"/>
<path class="st26" d="M258.34,326.8c0.58-5.11,2.33-9.92,5.11-14.33c1.24-1.96,3.21-3.57,5.33-1.8c1.89,1.58,0.09,3.18-1.17,4.56
	c-3.2,3.52-4.8,7.87-6.14,12.33c-0.37,1.22-0.21,3.24-1.83,3.06C257.52,330.38,258.68,328.24,258.34,326.8z"/>
</svg>
