<?xml version="1.0" encoding="utf-8"?>
<!-- Generator: Adobe Illustrator 25.4.1, SVG Export Plug-In . SVG Version: 6.00 Build 0)  -->
<svg version="1.1" id="Capa_1" xmlns="http://www.w3.org/2000/svg" xmlns:xlink="http://www.w3.org/1999/xlink" x="0px" y="0px"
	 viewBox="0 0 595.28 841.89" style="enable-background:new 0 0 595.28 841.89;" xml:space="preserve">
<style type="text/css">
	.st0{fill:#B04786;}
	.st1{fill:#7E2E7C;}
	.st2{fill:#7F2F7C;}
	.st3{fill:#CD5B92;}
	.st4{fill:#B44986;}
	.st5{fill:#CE5C92;}
	.st6{fill:#B14886;}
	.st7{fill:#9B3980;}
	.st8{fill:#B44987;}
	.st9{fill:#822F7C;}
	.st10{fill:#B84C88;}
	.st11{fill:#BC4E8A;}
	.st12{fill:#85307D;}
	.st13{fill:#B74C88;}
	.st14{fill:#762D7B;}
	.st15{fill:#8F327E;}
	.st16{fill:#7D2E7C;}
	.st17{fill:#852F7D;}
	.st18{fill:#722C7B;}
	.st19{fill:#732C7A;}
</style>
<g>
	<path class="st0" d="M165.61,533.47c-1.16,2.07-2.32,4.13-3.48,6.2c-0.76,2.29-2.42,2.94-4.49,2.13c-2.76-1.07-2.43-3.57-2.4-5.57
		c-1.72,3.83,1.19,6.18,3.26,9.08c1.06,1.48,3.31,3.21,1.98,5.52c-1.25,2.18-3.89,1.8-5.8,1.63c-4.87-0.42-9.68-1.4-10.53-7.97
		c0.23,6.32,3.17,8.92,9.75,8.58c4.84-0.25,9.64-0.56,14.34,0.85c0.99,0.35,1.98,0.71,2.97,1.06c1.67,0.93,3.68,1.96,2.77,4.2
		c-0.99,2.45-3.24,1.43-4.97,0.87c-8.13-2.63-16.4-0.21-24.59-0.5c-7-0.25-9.66-3.05-9.46-10.2c-1.25,8.4,0.87,10.96,9.16,10.52
		c5.73-0.3,11.41-0.42,17.06,0.6c2.44,0.44,5.06,1.25,4.72,4.04c-0.38,3.08-3.24,1.87-5.14,1.63c-5.91-0.73-11.81-0.44-17.72,0.01
		c-0.84,0.06-1.68,0.22-2.53,0.26c-12.77,0.58-15.55-2.67-12.76-14.88c-3.68,12.36-2.56,15.1,13.02,15.2
		c4.62,0.03,9.29-1.23,13.72,0.8c2.42,1.11,4.6,2.58,3.16,5.79c-1.32,2.96-3.35,1.9-5.81,1.35c-6.38-1.43-12.95-1.63-19.45-0.33
		c-2.97,0.59-5.88,0.73-8.8,0.23c-5.69-0.97-7.79-3.71-7.94-10.06c-1.17,8.12,0.31,10.03,8.36,10.45
		c5.46,0.28,10.97-0.55,16.41,0.57c2.1,0.43,4.16,0.84,5.72,2.4c1.16,1.16,1.37,2.59,0.62,4.07c-0.67,1.32-2.03,1.87-3.23,1.33
		c-8.77-3.97-17.95-1.47-26.95-1.44c-3.75,0.01-6.6-2.7-10.26-2.62c-7.21,3.05-13.88-1.37-20.87-1.26
		c-4.4-0.64-8.96,0.99-13.29-0.73c-1.3-0.13-2.59-0.27-3.89-0.4c-4.44,0.18-8.86,1.99-13.35,0.23c-1.66-0.65-3.7-0.59-4.47-2.68
		c1.81-2.68,2.18-4.84-1.57-6.25c-1.93-0.73-4.1-2.26-2.77-4.72c1.27-2.35,3.3-0.34,5.03-0.08c3.51,0.54,7.03,1.06,10.8,0.95
		c-6.04-3.48-6.01-5.03-0.46-8.75c2.38-1.59,4.67-2.81,7.95-2.46c-2.06-1.02-3.68-2.18-3.47-4.35c0.23-2.4,2.94-1.38,3.69-2.15
		c2.56-2.62,6.22-1.04,8.75-3.04c8.19-1.28,16.05,2.07,24.2,1.49c1.04-0.07,2.09,0.22,3.14,0.3c13.62,1,13.69,0.99,14.74-12.28
		c0.51-6.39,2.02-12.26,5.57-17.87c2.28-3.6,3.01-8.15,4.44-12.28c1.61-0.86,3.66,0.75,4.85-0.5c0.67-0.7,5.08-1.7,0.78-3.83
		c-1.12-0.55-1.76-2.06-1.12-3.31c0.69-1.34,2.22-1.21,3.39-0.75c3.43,1.35,6.93,1.69,10.59,1.29c3.58-0.4,7.18-0.46,10.82-1.01
		c-3.98-0.55-8.1-0.36-11.86-1.89c-2.15-0.88-4.88-2.07-3.84-4.84c1.08-2.9,3.55-1,5.42-0.42c7.1,2.2,13.99,0.98,20.85-1.31
		c-3.74-0.37-7.52-0.13-11.09-1.37c-1.84-0.64-3.71-1.7-3.46-3.94c0.31-2.82,2.66-2.2,4.48-1.98c3.55,0.44,5.26-0.55,4.56-4.52
		c-0.42-2.37,1.43-3.97,3.47-3.26c5.89,2.06,11.64,1.24,17.48-0.07c0.81-0.18,1.66,0.2,2.35,0.73c-1.74,7.01-7.42,11.54-11.11,17.32
		c-0.85,1.33-2.53,2.04-2.13,4.22c2.17,12.02-4.63,22.47-6.51,33.79C168.06,529.58,165.33,530.87,165.61,533.47z"/>
	<path class="st1" d="M358.36,356.32c3.61,1.43,4.86,5.01,7,7.75c11.73,15.07,23.16,30.37,35.16,45.22
		c3.28,4.07,3.13,8.24,2.42,12.42c-1.96,11.61-2.12,23.31-2.86,34.97c-0.22,3.51-1.03,4.22-4.78,4.29
		c-11.21,0.22-21.7-3.92-32.78-4.24c-3.31-0.1-6.38-1.18-8.69-4.2c-14.7-19.17-29.57-38.21-44.34-57.33
		c-0.46-0.59-0.46-1.53-0.67-2.3c2.04-2.14,2.88,0.02,3.61,1.17c1.92,3.02,4.11,5.83,6.27,8.68c1.18,1.56,2.09,3.17,4.33,0.86
		c1.65-1.7,3.27-0.56,3.85,1.29c1.84,5.84,6.23,6.08,11.21,5.27c2.67-0.44,5.4-0.43,8.15-0.95c-0.68-0.85-1.53-0.45-2.26-0.52
		c-10.84-0.95-12.99-3.4-11.52-13.97c0.48-3.41,0.43-6.06-2.68-8.31c-2.49-1.8-3.15-4.92-3.4-7.88c-0.15-1.8,1.12-2,2.57-1.38
		c2.24,1.33,3.67,3.44,5.19,5.44c12.05,15.9,24.82,31.24,35.99,47.8c1.28,1.89,2.79,4.49,5.35,3.51c2.47-0.95,1.9-3.95,1.97-6.22
		c0.09-2.89-1.31-5.25-2.91-7.51c-6.67-9.44-14.39-18.07-21.19-27.4c-1.97-2.7-4.3-5.22-4.61-8.79c2.56-3.59,3.71-7.8,5.3-11.83
		c0.53-1.35,1.63-2.81,3.37-2.13c1.3,0.5,1.23,2.06,1.21,3.31c-0.04,2.34-1.12,4.51-1.29,6.82c-0.29,4,1.51,6.83,5.61,6.76
		c4.36-0.07,8.81,0.96,13.57-0.79c-1.83-0.77-3.44-0.63-4.95-0.88c-8.77-1.44-11.42-5.1-8.84-13.53c1.24-4.07,0.44-6.87-2.52-9.53
		C358.52,360.68,356.61,359.04,358.36,356.32z"/>
	<path class="st2" d="M307.33,410.04c0.55,0.61,1.1,1.21,1.65,1.82c0.03,2.49-0.39,4.95-0.56,7.42c-0.28,3.95,1.89,5.35,5.42,5.58
		c1.03-3.12-3.65-4.73-1.08-7.65c10.34,13.23,20.66,26.46,31.02,39.67c1.24,1.58,1.64,3.22,1.45,5.27
		c-1.28,13.55-2.61,27.1-3.54,40.67c-0.29,4.19-2.09,4.78-5.63,4.44c-11.06-1.08-21.98-2.84-32.72-5.66
		c-1.48-0.39-2.79-0.63-3.76-1.9c-14.16-18.5-28.35-36.98-42.53-55.46c2.87-0.67,6.42,0.91,8.16-3.44c0.7-1.76,2.55-0.37,3.07,1.23
		c0.61,1.87,0.03,3.73-0.32,5.6c-1.15,6.21,0.57,8.42,6.84,9.19c5.3,0.65,10.43-1.26,16.28-1.16c-4.16-1.08-7.96-0.18-11.58-0.95
		c-3.53-0.75-6.44-2.38-7.07-6.22c-0.73-4.47-0.16-8.9,2.68-12.62c1.29-1.69,3.29-0.66,2.96,1.03
		c-2.11,10.73,4.95,11.26,12.44,11.48c5.8,5.29,9.79,12.06,14.74,18.04c2.14,2.59,4.02,5.4,6.23,7.94c1.88,2.16,3.82,5.59,7.08,3.88
		c3.11-1.63,2.61-5.51,2.29-8.64c-0.27-2.61-2.13-4.51-3.58-6.57c-4.62-6.5-10.32-12.21-14.1-19.31c-0.8-2.73,1.14-3.42,3.08-3.53
		c6.09-0.34,12.5-1.9,17.36,3.41c-6.64-6.38-15.02-3.02-22.7-3.59c-1.79-0.91-2.92-2.34-3.32-4.31c0.35-2.83,2.65-2.4,4.35-2.29
		c5.65,0.38,11.24-0.25,17.89-0.98c-3.86-1.27-6.97-0.79-9.95-1.17c-5.02-0.64-7.91-3.35-7.26-8.27
		C303.18,418.47,300.98,412.62,307.33,410.04z"/>
	<path class="st3" d="M188.2,471.96c-6.6,1.8-13.16,4.22-19.91,0.52c-1.19-0.65-2.51,0-2.28,1.83c0.84,6.71,0.13,7.38-6.58,6.19
		c-0.78-0.14-1.56-0.78-2.34,0.04c1.85,2.95,1.85,2.95,16.52,4c-3.55,6.32-14.12,7.67-29.29,3.4c3.42,5.39,8.6,4.34,13.03,5.02
		c1.42,0.22,2.94-0.17,4.4-0.13c1.32,0.03,1.71,1.02,1.82,2.16c0.16,1.59-1.22,1.83-2.09,1.74c-8.42-0.79-17.15,3.56-25.6-1.83
		c0.38,5.03,4.9,3.47,8.27,6.22c-5.71-1.08-8.16,7.59-13.61,1.82c-0.65-6.21-0.23-12.07,1.96-18.27
		c4.62-13.06,7.61-26.62,9.38-40.38c0.92-7.16,3.42-13.9,6.09-20.53c2.6-6.45,8.99-8.1,15.69-6.79
		c17.13,3.36,20.48,17.22,24.76,30.58c0.7,2.18,1.02,4.49,1.52,6.74c-0.09,0.41-0.02,1.03-0.26,1.2c-3.4,2.32,0.5,4.38,0.13,6.57
		c-0.32,1.84,1.04,3.74-0.24,5.56c-2.9,2.26-5.84-0.03-8.45,0.33c2.36,0.97,6.23-0.65,7.69,3.25l-0.18,0.48L188.2,471.96z"/>
	<path class="st4" d="M388.63,364.59c-4.24-5.21-8.42-10.46-12.73-15.6c-3.92-4.67-7.74-9.45-15.02-8.77
		c-1.51,0.14-4.82-0.01-2.27-3.69c7.09-10.22,14.05-20.54,20.71-31.04c2.43-3.83,4.99-5.37,9.3-3.74
		c11.93,4.53,24.04,8.54,36.45,11.63c2.31,0.58,3.83,1.53,3.76,4.18c-0.28,10.65-1.29,21.23-3.27,31.72
		c-6.85,1.54-13.71,3.23-19.54-2.5c-1.31-4.26,0.5-8.27,1.36-12.3c0.8-3.78-0.46-5.12-4.13-4.66c-0.62,0.08-1.26,0.09-1.88,0.14
		c-7.79,0.6-8.07,1.09-4.56,7.8c3.86,8.97,10.24,13.89,20.53,13.33c2.74-0.15,6.44-1.72,8.1,2.37c-0.12,0.72-0.24,1.43-0.36,2.15
		c-7.5,2.6-15.27,2.41-22.93,1.82c-4.29-0.33-6.14-3.73-6.1-8c-0.08,6.8,1.57,8.68,7.95,9.13c4.64,0.33,9.29-0.47,13.91-0.07
		c2.84,0.25,6.3,0.27,5.54,4.82l-0.03,0.1c-0.31,1.13-1.11,1.97-2.22,1.83c-8.96-1.18-17.8,1.35-26.71,1.07
		C392.42,366.27,390.3,366.08,388.63,364.59z"/>
	<path class="st5" d="M78.46,543.58c1.46,2.87-0.32,2.45-2.25,2.41c-3.04-0.06-3.04,0.09-2.47,3.76c-2.12-0.75-4.03-1.42-6.26-2.21
		c-1.06,4.32,3.46,4.1,5.38,7.33c-6.15-2.94-9.12,2.53-13.68,3.48c-1.77,0.37-0.07,3.67,1.45,3.92c2.03,0.34,3.46,1,5.1,3.19
		c-6.55,0.76-12.51,0.91-18.2-1.9c0.77,2.68,0.65,3.02,3.66,4.02c2.24,0.74,3.13,2.23,3.32,4.03c0.27,2.45-2.63,1.5-3.64,2.72
		c-1.32,0.82-2.49-0.05-3.72-0.28c-1.78-0.74-3.55-1.47-5.33-2.21c-4.38,0.33-8.22-1.21-11.91-3.28
		c-6.14-2.16-10.34-6.89-14.96-11.08c-3.86-3.38-6.91-7.4-9.26-11.96c-1.42-3.97-1.6-7.75,0.79-11.64c1.64-2.68,1.46-5.89,1.12-8.96
		c0.79-0.7,1.58-1.39,2.36-2.1c7.6-6.98,7.28-6.64,14.57,0.09c7.31,6.74,14.79,13.59,26.36,11.94c2.91-0.41,6.44,0.65,9.09,2.11
		C65.82,540.18,71.77,542.79,78.46,543.58z"/>
	<path class="st6" d="M288.64,448.34c-10.67,3.26-11.65,2.26-12.08-13.07c-2.3,4-2.93,7.71-2.99,11.32
		c-0.08,5.59,4.06,6.62,8.64,6.89c3.63,0.21,7.64-1.18,11.17,2.6c-6.44,1.48-12.4,2.63-18.56,2.37c-7.7-0.32-10.24-3.88-8.29-11.44
		c0.46-1.8,1.07-3.67,0.27-5.92c-0.54,0.42-1.2,0.66-1.3,1.04c-1.31,4.9-2.66,9.35-7.25,2c-0.1-0.16-0.79,0.05-1.21,0.09
		c-7.18-6.3-9.28-13.29-5.33-22.84c2.74-6.63,3.07-14.24,4.3-21.43c0.51-2.96,1.46-4.45,4.89-3.86c11.1,1.91,22.13,4.1,33.52,4.32
		c6.06,0.12,10.21,4.28,12.91,9.63c-4.1,4.38-3.12,9.98-3.24,15.06c-0.07,3,2.81,4.24,6.29,4.73c4.03,0.56,9.82-2.65,11.97,4.14
		c-8.23,0.68-16.32,1.73-24.47,0.77c-2.15-0.01-3.62-1.39-4.52-2.96c-4.4-7.66-11.53-8.78-20.54-8.17
		c3.26,5.95,7.77,10.43,11.27,15.58C286.02,442,289.32,444.19,288.64,448.34z"/>
	<path class="st7" d="M494.26,321.52c-1.99-2.38-3.96-4.77-5.97-7.13c-0.99-1.17-1.38-3.65-3.42-2.85c-1.56,0.61-1.3,2.81-1.67,4.43
		c-0.45,1.98,0.33,4.22-1.27,5.94c-2.13,0.34-3.78-1.89-6.06-1.12c4.12,7.43,1.62,14.5-1.23,21.51c-0.46,1.13-1.27,2.52-2.68,2.35
		c-1.73-0.2-2.14-1.82-2.33-3.32c-0.27-2.14,0.76-4.12,0.99-6.2c0.44-3.98-1.43-7.56-5.2-7.09c-11.02,1.4-15.48-6.21-20.63-13.25
		c-0.72-0.99-1.3-2.18-2.64-2.55c-3.8-4.99-7.59-9.98-11.39-14.98c3.32-1.84,3.85,2.42,6.66,2.81c1.23-3.82-0.19-6.16-3.73-7.68
		c-1.47-0.63-3.59-1.3-2.57-3.47c0.78-1.66,2.77-1.66,4.49-1.57c5.29,0.27,7.93,2.9,8.34,8.22c0.24,3.19-0.36,6.26-1.38,9.39
		c3.72-4.98,2.82-11.86,7.39-16.35c1.29,0.32,2.04,1.21,2.56,2.35c1.49,4.65-2.01,8.9-1.28,13.62c1.84-2.64,0.97-6.81,4.95-7.99
		c1.98,0.31,2.77,2.42,4.94,3.14c3.04-5.1-0.8-11.56,3.21-16.39c6.06-7.05,4.99-12.05-3.15-14.72c-1.6-0.53-3.79-0.91-3.52-2.91
		c0.29-2.15,2.58-1.71,4.19-1.73c9.8-0.1,13.93,5.03,11.6,14.55c-1.05,4.29-2.83,8.4-3.36,12.86c2.45-7.55,5.13-15.03,7.31-22.66
		c0.71-2.48,0.95-5.07-2.3-6.3c-2-0.76-5.49-0.61-4.81-3.76c0.76-3.54,4.26-1.4,6.5-1.97c8.3-0.01,10.46,1.88,11.03,9.87
		c0.51,7.01,1.94,13.96,1.18,21.07c-0.34,3.11,1.21,4.56,4.24,4.93c3.46,0.43,6.94,0.9,9.98,2.81c4.11,1.61,5.33,4.78,5.18,8.97
		c-0.24,6.82-2.34,13.16-4.89,19.4c-0.82,2-2.08,3.7-4.61,3.67c-0.26-0.36-0.51-0.72-0.77-1.08c-0.53-3.88,0.94-7.48,1.67-11.18
		c1.72-8.75,0.55-10.35-8.52-11.2c5.76,0.2,7.69,3.92,7.85,8.66C499.3,316.34,499.43,320.49,494.26,321.52z"/>
	<path class="st8" d="M358.36,356.32c0.18,0.82,0.08,2.02,0.59,2.39c6.02,4.29,7.4,9.34,4.71,16.63c-1.9,5.17,1.26,7.44,8.57,8.52
		c2.39,0.35,6.9-1.44,6.6,2.32c-0.18,2.23-4.98,2.83-8.1,2.73c-1.03-0.03-2.03-0.64-3.06-0.66c-12.86-0.27-13.48-1.06-10.61-13.67
		c0.27-1.17,0.24-2.4,0.4-4.16c-3.26,2.29-2.75,5.53-3.8,8.09c-0.77,1.86-0.61,4.9-4.14,4.06c-6.68-4.15-14.77-3.06-21.88-5.59
		c0.54,3.5,0.48,7.06,4.66,8.95c2.7,1.22,3.04,4.09,2.33,7.14c-2.7,11.53-1.31,13.32,10.08,13.92c1.42,0.08,2.83,0.62,4.19,1.11
		c1.09,0.4,1.66,1.36,1.31,2.51c-0.31,1.02-1.29,0.97-2.1,0.74c-3.59-1.02-7.11,0.19-10.62,0.58c-8.44,0.92-10.51-0.23-12.65-8.02
		c-2.71,0.39-1.14,3.33-3.64,5.02c-4.07-5.27-8.22-10.65-12.36-16.02c-1.99-2.51-0.83-5.33-0.41-7.91
		c1.56-9.74,3.61-19.42,4.99-29.18c0.55-3.86,2.2-5.42,5.7-4.63c10.94,2.46,22.11,1.75,33.18,2.37
		C354.64,353.69,356.82,354.37,358.36,356.32z"/>
	<path class="st9" d="M294.29,533.03c-0.79,3.06-0.74,7.85-2.58,8.77c-2.43,1.21-6.34-0.69-9.63-1.14c-2.7-0.37-5.48-1.09-8.12-0.77
		c-6.26,0.75-8.96-1.36-7.5-7.76c2.81-3.32-0.63-4.93-2.04-6.78c-10.87-14.22-21.89-28.32-32.87-42.46
		c-0.28-4.03-2.76-8.11,0.39-12.07c0.8-1.01,1.67-2.03,3.07-1.97c1.54,0.07,1.93,1.28,2.29,2.56c2.47,8.68,2.48,8.69,11.37,8.14
		c1.04-0.06,2.11,0.04,4.84-1.08c-9.88-0.15-11.78-5.24-12.3-12.7c-0.36-5.29-5.4-9.09-8.17-13.67c-2.7-4.46-6.36-8.31-9.45-12.53
		c-1.32-1.8-3.19-3.47-2.39-6.15c7.72,6.29,12.69,14.88,18.63,22.61c14.18,18.44,29.02,36.4,42.02,55.73
		c2.44,3.63,6.54,3.7,10.2,3.64c4.29-0.08,5.08,1.67,4.36,5.32C295.6,524.79,294.99,528.92,294.29,533.03z"/>
	<path class="st10" d="M515.18,273.3c-5.68-6.99-11.61-13.8-16.92-21.07c-1.96-2.68-3.86-4.01-7.06-3.97
		c-2.42,0.03-4.28-0.7-3.44-3.74c3.07-11.14,4.69-22.62,8.64-33.58c1.21-3.35,2.71-4.96,6.3-4.64c13.7,1.22,26.91,4.34,39.69,9.29
		c2.11,0.82,2.14,2.39,1.72,4.12c-0.7,2.86-1.69,5.65-2.3,8.52c-2.21,10.35-2.2,10.51-12.61,8c-3.72-0.9-7.34-1.54-11.17-1.37
		c-1.47,0.07-3.17-0.47-4.02,0.98c-0.95,1.62,0.76,2.63,1.52,3.8c1.15,1.75,2.4,3.43,3.61,5.14c-0.48,4.22-2.23,8.14-3.08,12.26
		c-0.83,4.06-0.47,7.63,4.49,8.88c1.89,0.48,5.06-0.02,4.98,2.69c-0.09,3.2-3.26,4.05-5.96,4.79
		C518.09,273.83,516.63,273.52,515.18,273.3z"/>
	<path class="st11" d="M476.82,256.72c-0.93,3.21-4.53-0.6-5.62,2.25c0.16,0.31,0.26,0.89,0.53,0.98c9.29,3.12,9.29,3.24,6.08,13.05
		c-2.1,6.41-4.03,12.88-5.88,19.37c-0.52,1.83-1.26,3.56-3.21,2.95c-1.72-0.53-1.01-2.63-0.64-3.94c1.06-3.85,2.38-7.64,3.59-11.45
		c3.02-9.52,0.58-13.36-9.18-14.41c-1.24-0.13-2.49-0.18-4.96-0.36c2.83,2.56,5.44,2.07,7.68,2.45c3.37,0.58,5.1,2.96,4.62,5.74
		c-0.65,3.69,0.69,8.59-4.55,10.45c-0.77-0.86-1.74-1.53-2.31-2.56c-1.24-2.06-1.34-4.88-3.9-5.91c-0.71-0.67-0.93,0.7-0.48-0.01
		c0.13-0.21,0.28-0.11,0.59,0.12c1.82,1.32,2.95,2.89,2.06,5.28c-1.79,2.4-4.54,2.4-6.94,2.23c-4.91-0.35-5.63,1.98-4.58,5.92
		c-0.6,6.16-3.67,11.57-5.5,17.36c-0.32,1,0.21,2.92-1.99,2.26c-1.51-0.45-1.82-1.65-1.43-3.02c0.81-2.83,1.91-5.57,1.78-8.63
		c-0.28-6.97-3.18-9.01-12.06-6.95c6.85,1.07,10.34,3.88,9.1,10.14c-0.24,1.19,0.01,2.76-1.44,3.26c-1.57,0.54-2.03-1.1-2.87-1.92
		c-1.45-1.42-2.05-3.78-4.53-4.07c-3.14-0.38-6.27-0.88-9.43-1.11c-6.83-0.5-7.31-1.26-4.07-7.55
		c5.53-10.75,12.57-20.59,19.22-30.64c2.07-3.12,4.86-4.96,9.12-4.51C456.02,254.57,466.67,253.38,476.82,256.72z"/>
	<path class="st12" d="M388.63,364.59c11.62,0.95,23.16-1.87,34.78-1.16c-3.41,13.94,7.52,21.09,14.29,30.12
		c1.83,2.44,5.57,1.54,8.38,1.8c4.24,0.39,5.66,1.99,4.48,6.08c-0.87,3-1.83,6.01-2.24,9.08c-1.63,12.22-1.55,12.23-13.79,11.16
		c-1.46-0.13-2.92-0.18-4.38-0.31c-8.66-0.79-8.73-0.8-8.15-9.82c0.2-3.04-1.23-5.08-3.04-7.23c-9.81-11.7-18.08-24.64-28.57-35.82
		C389.41,367.43,388.44,366.24,388.63,364.59z"/>
	<path class="st13" d="M221.2,433.4c5.22,8.77,12.47,16.05,17.87,24.83c2.51,4.08,4.12,7.07,4.08,11.61
		c-0.04,3.82,1.84,6.27,6.1,6.51c2.64,0.15,5.63,0.04,6.93,3.25c-12.35,5.49-20.3,1.76-20.72-9.93c-3.51,1.8-3.61,4.84-3.52,7.96
		c0.05,1.76,1.68,3.62-0.39,5.25c-1.04-1.3-2.06-2.63-3.13-3.91c-0.75-0.9-1.14-2.5-2.68-2.15c-1.41,0.32-1.88,1.74-1.81,3
		c0.22,3.94-2.45,3.2-4.66,2.91c-1.4-0.18-2.71-0.99-4.11-1.22c-12.58-2.08-12.97-2.09-11.69-14.74
		c1.05-10.38,3.25-20.65,4.77-30.98c0.35-2.4,1.37-3.22,3.69-3.21C215.05,432.58,218.22,432.04,221.2,433.4z"/>
	<path class="st14" d="M552.18,288c3.17,2.06,4.26,8.12,9.13,6.38c4.61-1.65,2.84-6.94,3.37-10.63
		c1.79-12.44,1.64-12.46,14.22-10.97c1.88,0.22,3.74,0.75,5.62,0.78c4.2,0.07,5.49,2.25,5,6.11c-1.59,12.48-3.22,24.95-4.64,37.44
		c-0.36,3.17-1.62,3.59-4.58,3.38c-10.9-0.77-21.05-5.17-31.98-5.86c-2.5-0.16-4.89-2.2-5.38-5.3c1.07-3.22,3.46-1.22,5.08-1.45
		c-6.05-1.55-8.71-6.04-7.25-12.71c0.59-2.69,2-5.12,2.72-7.78c0.45-1.66,1.14-3.41,3.4-2.89c1.86,0.43,2.65,1.97,2.89,3.74
		c0.23,1.68-0.05,3.36-0.34,5.03c-0.64,3.69,0.93,5.62,4.8,5.84C549.37,296.17,548.85,292.44,552.18,288z"/>
	<path class="st15" d="M552.18,288c-0.57,4.76-1.95,9.89,5.61,10.36c1.35,0.08,1.17,1.95,0.08,2.26c-2.91,0.83-5.89,0.09-8.62-0.82
		c-2.17-0.72-1.55-3-1.62-4.91c-0.12-3.08,3.08-7.44-1.18-8.81c-1.73-0.56-2.12,4.7-3.27,7.23c-3.55,7.89-0.13,13.03,8.4,13.17
		c0.87,0.01,1.67,0.13,1.86,1.72c-3.22,2.06-7.21-0.77-10.48,1.14c-9.26-12.01-18.52-24.03-27.78-36.04
		c2.93-1.96,7.31-0.8,9.52-4.56c-1.28-1.94-3.41-0.78-5.05-1.13c-4.28-0.9-6.3-3.52-5.71-7.53c0.79-5.34,1.56-10.82,5.19-15.3
		c0.51,0.65,1.02,1.31,1.53,1.96c-0.28,1.45-0.25,2.93-0.58,4.39c-1.86,8.29-0.38,10.31,8.04,10.66c4.43,0.19,8.86-0.33,13.29-0.61
		c-3.09,0.28-6.2,0.47-9.28,0.39c-6.65-0.18-10.55-5.33-8.33-10.68c7.8,7.08,4.91,8.25,15.16,0.67c4.77-3.53,9.41-7.24,14.18-10.92
		c2.23,2.38,1.31,4.65,0.65,6.74c-1.47,4.67-1.61,9.49-2.08,14.27c-0.49,4.97-0.04,10.12-5.39,13.29c-2.08,1.23-1.34,3.23-0.06,4.93
		C548.28,282.56,550.21,285.29,552.18,288z"/>
	<path class="st16" d="M442.16,312.26c4.41,1.79,6.04,6.19,8.72,9.53c2.25,2.81,4.25,5,8.31,4.1c1.8-0.4,3.78-0.08,5.67,0.07
		c5.97,0.46,8.96,4.54,7.45,10.32c-0.62,2.4-2.33,4.61-0.46,7.84c3.63-5.92,4.6-11.99,4.65-18.36c0.01-1.59-0.51-2.29-1.9-2.69
		c-1.43-0.41-3.19-0.89-2.6-2.82c0.64-2.11,2.75-1.34,4.34-1.63c2.93-0.54,4.05,1.67,5.61,3.29c-0.99,10.94,7.75,16.84,12.95,24.44
		c2.66,3.88,4.66,9.76,11.7,8.69c1.37-0.21,2.3,1.6,1.94,3.82c-0.72,4.52-0.86,9.14-0.97,13.72c-0.09,4-1.42,5.82-5.78,4.87
		c-5.94-1.28-11.95-2.24-17.95-3.22c-3.14-0.51-3.68-2.34-2.87-5c1.37-4.54-0.48-7.82-3.29-11.35
		C465.65,342.82,453.97,327.49,442.16,312.26z"/>
	<path class="st16" d="M498.94,327.45c7.83-8.78,9.96-24.62,4.32-32.05c3.9-0.42,6.2,2.01,8.3,4.68c4.26,5.43,9.2,10.5,12.49,16.48
		c3.09,5.62,7.62,7.98,13.22,8.88c3.56,0.57,4.29,2.04,4.38,5.35c0.17,5.87-0.88,11.61-1.35,17.41c-0.23,2.79-2.28,4.22-4.79,4.01
		c-7.27-0.59-14.52-1.45-21.76-2.37c-0.87-0.11-2.23-1.11-2.32-1.84C510.35,339.22,502.7,334.52,498.94,327.45z"/>
	<path class="st12" d="M423.44,363.33c-0.83-3.03-3.04-3.53-5.85-3.4c-4.4,0.19-8.82,0.32-13.22,0.15
		c-9.76-0.38-12.91-6.39-8.03-15.04c0.3,0.21,0.83,0.39,0.87,0.65c1.53,10.87,2.86,11.73,14.02,10.41
		c4.57-0.54,9.23-0.35,13.84-0.48C425.43,358.37,425.11,360.99,423.44,363.33z"/>
	<path class="st10" d="M523.79,250.89c0.36,6.4,3.61,9.73,9.68,9.49c4.35-0.17,8.69-0.86,13.05,0.74
		c-8.76,1.58-17.58,3.63-26.41,0.81c-2.99-0.95-3.11-4.4-2.65-7.1c0.48-2.84,1.05-5.81,3.21-8.08
		C521.71,248.13,522.75,249.51,523.79,250.89z"/>
	<path class="st16" d="M494.26,321.52c4.07-3.32,4.05-7.58,2.93-12.09c-1.41-5.68-7.31-2.42-11.02-5.06
		c4.93-3.14,9.52-2.57,13.53-0.46c3.93,2.07,2.63,6.23,1.9,9.71c-0.9,4.31-1.07,8.82-3.44,12.76
		C496.86,324.75,495.56,323.13,494.26,321.52z"/>
	<path class="st12" d="M406.98,346.19c3.02,3.01,6.87,2.79,10.75,2.8c2.6,0,5.3-1.24,7.82,0.3c1.33,1.42,1.16,2.81-0.12,4.18
		c-3.12-1.48-6.41-0.81-9.68-0.72c-9.49,0.28-17.44-5.35-19.97-14.07c3.05-0.37,4.35,1.98,5.78,3.88
		C402.99,344.46,404.44,346.05,406.98,346.19z"/>
	<path class="st6" d="M312.76,417.21c-0.19,1.42,0.86,2.27,1.44,3.36c0.92,1.73,3.71,2.92,2.43,5.24c-0.84,1.52-2.95,1.09-4.65,0.63
		c-2.5-0.68-5.37-1.29-5.35-4.39c0.02-3.47-0.36-7.22,2.35-10.18C310.24,413.64,311.5,415.42,312.76,417.21z"/>
	<path class="st0" d="M188.81,471.19c-3.75-2.95-9.39-1.18-12.88-5.13c4.6,0.59,9.05,1.7,13.65,1.55
		C189.42,468.82,190.05,470.19,188.81,471.19z"/>
	<path class="st0" d="M189.82,462.05c-3.45-2.61-3-5.19,0.13-7.77C191,456.88,191.41,459.47,189.82,462.05z"/>
	<path class="st17" d="M206.6,588.09c-13,1.34-25.41-2.61-38.13-3.86c-2.84-0.28-5.32-0.66-7.71,1.15
		c-3.03,2.34-6.06,4.68-9.09,7.02c-3.39,2.51-3.39,6.55-4.46,10.02c-3.84,12.41-13.13,21.74-18.98,33.03
		c-2.24,4.32-3.77,8.75-5.55,13.17c-0.91,2.26-0.83,5.05-3.13,6.7c-3.17,3.1-7.14,1.69-10.79,1.91c-2.31,0.13-4.17,0.16-4.3,3.17
		c-0.08,1.81-1.34,3.44-2.95,3.8c-5.81,1.32-11.72,2.82-17.38-0.47c-0.78-10.61,3.4-19.8,10.54-26.96
		c6.86-6.88,9.51-14.48,9.11-23.57c-0.25-5.71,2.4-10.89,2.79-16.45c0.85-4.37,1.54-8.77,2.6-13.09c0.67-2.72-0.53-3.79-2.8-4.4
		c0.54-0.34,1.26-1.09,1.59-0.95c8.94,3.87,18.23,0.88,27.35,1.01c2.93,0.04,4.97,1.98,7.71,2.29c1.18,0.14,2.33,1.36,3.02-0.45
		c0.53-1.4-0.22-2.41-1.59-2.94c-4.36-1.72-8.97-1.84-13.57-1.9c-2.95-0.04-5.92,0.33-8.84,0.09c-7.93-0.65-9.9-3.53-7.89-11.22
		c0.45-1.72,1.23-3.36,2.18-5.92c0.47,1.52,0.79,2.05,0.77,2.58c-0.36,9.8,3.85,13.81,13.46,11.18c6.68-1.82,13.3,0.3,19.82-1.44
		c0.58-0.15,1.55,0.55,2.1,1.09c1.42,1.41,2.71,3.15,4.17,0.05c1.34-2.83-1.17-3.17-2.72-3.88c-3.58-1.65-7.42-1.37-11.16-0.69
		c-4.09,0.75-8.01-0.06-11.95-0.64c-3.78-0.55-6.05-2.76-6.12-6.76c-0.09-5.27,2.67-9.68,4.07-14.53c2.02,3.99-0.71,7.27-1.09,10.88
		c-0.47,4.51,1.01,6.58,5.55,7.26c4.68,0.7,9.24,0.07,13.87-0.16c5.98-0.29,11.99-0.51,18.78,1.28c-3.17-5.21-7.76-3.53-11.28-4.13
		c-3.85-0.65-7.97,0.23-11.97,0.31c-8.16,0.16-11.05-3.42-9.19-11.48c0.46-1.99,1.4-3.87,2.15-5.86c0.64,0.38,1.27,0.61,1.25,0.76
		c-1.6,11.63-0.36,13.18,11.64,12.83c8.14-0.24,16.34-2.22,24.08,1.69c1.38-2.4-0.8-3.25-1.32-4.66c9.67,2.6,19.66,2.42,29.56,2.95
		c2.58,1.32,5.17,0.3,7.76-0.06c2.21-0.09,4.41-0.18,6.62-0.27c1.96,0.29,2.55,2.71,4.71,2.85c1.54,0.1,2.92,0.94,2.64,2.82
		c-0.29,1.91-1.8,2.79-3.53,3.18c-2.24,0.51-4.64-0.35-7.54,1.12c3.78,1.71,5.44,4.21,4.51,8.19c-0.55,2.33-1.46,3.77-3.8,4.44
		c-7.56,2.16-15.12,1.96-22.47,0.79c2.73,2.21,6.21,2.41,9.87,1.8c2.77-0.46,5.53-0.44,7.96,1.06
		C210.85,585.9,209.9,587.29,206.6,588.09z"/>
	<path class="st18" d="M206.6,588.09c0.64-0.91,3.27-1.5,0.59-2.96c-2.96-1.62-6.03-0.94-9.22-0.51c-4.8,0.63-9.39,0.18-10.06-6.25
		c8.47,3.26,16.74,1.76,25.02,0.18c1.84-0.35,2.22-2.04,1.41-2.67c-2.08-1.63,2.85-4.65-1.32-5.56c-1.58-0.35-3.04-1.18-4.48-1.77
		c2.39-7.05,9.71-0.83,13.42-5.82c-3.26-0.76-6.46-1.35-6.78-5.13c3.48-0.09,6.35,1.77,9.38,3.01c1.79,0.73,3.56,1.43,5.41,1.32
		c17.85-1.06,34.14,5.35,50.81,9.89c2.27,0.62,4.22,2.33,6.32,3.54c2.08,3.91,1.35,7.1-2.21,9.95c-2.47,1.98-4.92,4.17-6.79,6.69
		c-8.48,11.46-19.36,10.28-31.15,7.16C233.46,595.6,220.59,589.86,206.6,588.09z"/>
	<path class="st17" d="M168.26,553.91c-7.02,0.43-13.99,1.51-21.03-0.43c-4.79-1.32-6.08-3.6-4.31-8.13
		c0.75-1.91,0.11-4.22,2.16-6.89c0.21,6.03,0.53,11.49,7.39,12.48c2.5,0.36,5.8,0.97,6.99-0.95c1.29-2.07-1.48-3.96-3.28-5.29
		c-5.84-4.32-1.62-9.01-1.23-13.92c4.55,1.94-3.85,12.7,7.18,8.87C157.89,547.16,162.28,550.89,168.26,553.91z"/>
	<path class="st18" d="M208.56,557.86c-2.6,2.16-5.19,3.57-7.76,0.06C203.38,558.02,205.97,556.68,208.56,557.86z"/>
	<path class="st8" d="M354.11,422.31c-4.95-5.3-10.82-4.97-16.96-3.53c-3.77,0.88-7.43,1.31-10.32-4.24
		c7.6,1.52,14.23-0.17,20.89,0.64C351.86,415.68,353.5,418.43,354.11,422.31z"/>
	<path class="st8" d="M384.27,402.24c-4.18-10.5-12.05-6.46-18.44-6.84c-1.33-0.08-2.86,1.08-4.19,0.15
		c-0.77-0.54-1.2-1.57-1.79-2.38c0.67-0.41,1.39-1.23,1.99-1.16c6.35,0.79,13.01-1.74,19.1,1.45
		C383.79,394.95,386.02,396.93,384.27,402.24z"/>
	<path class="st8" d="M337.89,392.65c1.37,1.77,2.83,3.48,4.07,5.33c0.98,1.47,3.2,2.6,2.42,4.66c-0.66,1.73-2.56,0.78-3.92,0.69
		c-2.58-0.18-4.37-1.46-4.56-4.18c-0.15-2.04,0-4.1,0.02-6.15C336.57,392.89,337.23,392.77,337.89,392.65z"/>
	<path class="st8" d="M367.62,370.31c2.96,0.21,2.22,3.67,4.36,4.74c1.52,0.76,3.37,2.19,2.65,4.33c-0.49,1.44-2.17,0.72-3.35,0.63
		c-2.45-0.2-4.82-1-4.71-3.84C366.64,374.29,365.74,372.01,367.62,370.31z"/>
	<path class="st6" d="M303.2,441.81c-0.53-0.67-1.07-1.34-1.61-2.01c7.13-3.59,14.42-1.71,21.4-0.19c3.72,0.81,2.57,4.91,2.03,8.49
		C319.65,438.6,311.04,441.63,303.2,441.81z"/>
	<path class="st0" d="M148.49,482.48c4.36,1.41,7.55,2.44,10.87,3.51C153.41,489.53,152.44,489.3,148.49,482.48z"/>
	<path class="st11" d="M452.16,291.75c1.23,1.69,2.47,3.38,3.7,5.08c-2.07,3.28-2.18,7.09-2.92,10.98
		C444.55,302.74,452.71,297,452.16,291.75z"/>
	<path class="st7" d="M464.43,280.96c-1.2-0.2-2.39-0.4-3.59-0.6c0.32-4.86-4.69-4.34-8.17-7.07
		C459.74,272.93,462.2,276.78,464.43,280.96z"/>
	<path class="st4" d="M391.96,369.17c21.31-2.1,24.64-1.13,22.35,7.31C409.5,366.42,399.08,374.86,391.96,369.17z"/>
	<path class="st7" d="M466.59,341.99c-2.67-3.46-4.86-6.2-6.93-9.03c-0.79-1.07-2.47-2.12-1.24-3.7c0.89-1.15,2.28-0.32,3.47-0.1
		C467.51,330.2,468.09,331.6,466.59,341.99z"/>
	<path class="st7" d="M512.07,329.96c-6.11-4.77-6.1-5.13,0.36-24.78c2.57,2.12,2.57,2.12,0.06,11.02
		C511.23,320.68,511.13,323.14,512.07,329.96z"/>
	<path class="st19" d="M84.13,663.73c4.79,0.06,9.59,0.38,14.37,0.09c2.75-0.17,5.68-1.21,4.23-5.15c-1.22-3.33,0.25-3.29,3.03-3.13
		c4.57,0.27,9.19-0.11,13.79-0.22c-0.38,3.81-1.82,7.08-4.4,10.05c-2.84,3.26-5.21,6.61-6.14,11.3c-0.76,3.77-3.77,7.55-6.68,10.4
		c-5.64,5.53-9.56,12.32-13.9,18.65c-4.26,6.21-11.19,9.82-14.56,16.65c-0.78,1.57-2.22,2.6-2.83,4.62
		c-2.65,8.72-10.82,11.27-18.05,14.29c-3.18,1.33-4.63-1.9-4.61-5.02c0.01-4.45,0.73-8.88,3.19-12.59
		c8.51-12.82,13.92-27.25,21.76-40.37C77.15,676.88,82.05,671.09,84.13,663.73z"/>
	<path class="st18" d="M200.44,575.06c3.2-4.42,6.84-1.37,12.02-2.01C207.7,577.75,203.87,574.18,200.44,575.06z"/>
	<path class="st19" d="M97.09,657.12c0.45,1.2-0.14,2.21-1.01,2.63c-1.47,0.71-3.27,1.4-4.64,0.04c-0.91-0.9,0-1.85,0.87-2.52
		C93.89,656.05,95.49,657.19,97.09,657.12z"/>
</g>
</svg>
