<?xml version="1.0" encoding="utf-8"?>
<!-- Generator: Adobe Illustrator 25.4.1, SVG Export Plug-In . SVG Version: 6.00 Build 0)  -->
<svg version="1.1" id="Capa_1" xmlns="http://www.w3.org/2000/svg" xmlns:xlink="http://www.w3.org/1999/xlink" x="0px" y="0px"
	 viewBox="0 0 595.28 841.89" style="enable-background:new 0 0 595.28 841.89;" xml:space="preserve">
<style type="text/css">
	.st0{fill:#E84C1E;}
	.st1{fill:#FBEEEB;}
	.st2{fill:#FBEDEB;}
	.st3{fill:#F6EAE7;}
	.st4{fill:#EFB39D;}
	.st5{fill:#811C12;}
	.st6{fill:#FBDED5;}
	.st7{fill:#FAEEEC;}
	.st8{fill:#F9EDE9;}
	.st9{fill:#FAEDEC;}
	.st10{fill:#F6B9A3;}
	.st11{fill:#F8EBE9;}
	.st12{fill:#AE6B5B;}
	.st13{fill:#AE7263;}
	.st14{fill:#E29982;}
	.st15{fill:#F8EAE8;}
	.st16{fill:#F8EAE5;}
	.st17{fill:#AF5D4C;}
	.st18{fill:#EC6F43;}
	.st19{fill:#ED8058;}
	.st20{fill:#F5B197;}
	.st21{fill:#B25533;}
	.st22{fill:#E8835F;}
	.st23{fill:#EF7F56;}
	.st24{fill:#9C554C;}
	.st25{fill:#F6B8A0;}
	.st26{fill:#D5785A;}
	.st27{fill:#EC835E;}
	.st28{fill:#8E4944;}
	.st29{fill:#C26F59;}
	.st30{fill:#B78D7F;}
	.st31{fill:#A2685C;}
	.st32{fill:#AF5331;}
	.st33{fill:#F6B9A2;}
	.st34{fill:#F5BBA2;}
	.st35{fill:#EC7248;}
	.st36{fill:#CB7357;}
	.st37{fill:#F5B7A0;}
	.st38{fill:#F6BAA3;}
	.st39{fill:#E08D70;}
	.st40{fill:#F6B8A4;}
	.st41{fill:#E99376;}
	.st42{fill:#D78E74;}
	.st43{fill:#EC9372;}
	.st44{fill:#EB9D83;}
	.st45{fill:#A36C62;}
	.st46{fill:#AF5435;}
	.st47{fill:#997971;}
	.st48{fill:#CD836C;}
	.st49{fill:#91564B;}
	.st50{fill:#CB816E;}
	.st51{fill:#C16D5A;}
	.st52{fill:#AA573A;}
	.st53{fill:#96544D;}
	.st54{fill:#D8846C;}
	.st55{fill:#9E584E;}
	.st56{fill:#C3735B;}
	.st57{fill:#C2745F;}
	.st58{fill:#BE6653;}
	.st59{fill:#8E4D45;}
	.st60{fill:#996158;}
	.st61{fill:#91554E;}
	.st62{fill:#8F5B56;}
	.st63{fill:#83524C;}
	.st64{fill:#87524E;}
	.st65{fill:#B8877B;}
	.st66{fill:#C98572;}
	.st67{fill:#844D47;}
	.st68{fill:#D57A5E;}
	.st69{fill:#C88773;}
	.st70{fill:#8A514C;}
	.st71{fill:#D37A61;}
	.st72{fill:#D98C77;}
	.st73{fill:#8A504A;}
	.st74{fill:#DE8461;}
	.st75{fill:#A88580;}
	.st76{fill:#E64D1F;}
	.st77{fill:#E5471C;}
	.st78{fill:#CF3927;}
	.st79{fill:#CC3925;}
	.st80{fill:#DB8C74;}
	.st81{fill:#F7BAA4;}
	.st82{fill:#E74C1C;}
	.st83{fill:#AC2A1E;}
	.st84{fill:#F8F1EE;}
	.st85{fill:#F6B8A3;}
	.st86{fill:#E5977E;}
	.st87{fill:#E74E1F;}
	.st88{fill:#7F1B11;}
	.st89{fill:#CB3826;}
	.st90{fill:#E74C1B;}
	.st91{fill:#A7291B;}
	.st92{fill:#821B12;}
	.st93{fill:#CF3925;}
	.st94{fill:#AE2E22;}
	.st95{fill:#811B12;}
	.st96{fill:#E64C1D;}
	.st97{fill:#A7291D;}
	.st98{fill:#ED7A4F;}
	.st99{fill:#ED7247;}
	.st100{fill:#E84C1D;}
	.st101{fill:#C73727;}
	.st102{fill:#E6461D;}
	.st103{fill:#831B12;}
	.st104{fill:#E85020;}
	.st105{fill:#E74E1E;}
	.st106{fill:#E84D1E;}
	.st107{fill:#CF3824;}
	.st108{fill:#D03924;}
	.st109{fill:#7F1A11;}
	.st110{fill:#AB291A;}
	.st111{fill:#AD2C1C;}
	.st112{fill:#851C12;}
	.st113{fill:#E74C1D;}
	.st114{fill:#C9382A;}
	.st115{fill:#811B11;}
	.st116{fill:#BF3223;}
	.st117{fill:#E85324;}
	.st118{fill:#F18964;}
	.st119{fill:#E5461E;}
	.st120{fill:#821C12;}
	.st121{fill:#ED7143;}
	.st122{fill:#C73526;}
	.st123{fill:#CC3926;}
	.st124{fill:#E84C1C;}
	.st125{fill:#A6261A;}
	.st126{fill:#831C12;}
	.st127{fill:#CB3A26;}
	.st128{fill:#E64B1C;}
	.st129{fill:#AA2A1C;}
	.st130{fill:#7D1B11;}
	.st131{fill:#A9291B;}
	.st132{fill:#EE7346;}
	.st133{fill:#ED6F46;}
	.st134{fill:#944E48;}
	.st135{fill:#CA765D;}
	.st136{fill:#E74B1C;}
</style>
<g>
	<path class="st0" d="M290.57,609.92c-1.02,0.96-2.3,0.86-3.54,0.86c-18.56,0.03-37.12,0.04-55.68,0.06c-1.45,0-2.86-0.22-4.16-0.89
		c-3.17-2.5-2-5.76-1.45-8.85c0.19-1.08,0.62-2.17,1.16-3.17c1.94-4.78,6.24-4.83,10.36-5c1.61-0.07,3.22,0.16,4.87-0.06
		c2.78-0.37,4.05,0.81,4.24,3.69c0.08,1.23-0.18,2.52,0.65,3.61c0.77,1.08,1.93,0.69,2.93,0.7c3.56,0.06,7.12-0.11,10.68,0.06
		c2.72,0.13,5.08-0.03,6-3.15c1.19-0.46,1.18-1.62,1.56-2.57c0.8-1.98,2.11-3.1,4.45-2.71c2.76,0.46,5.56,0.17,8.34,0.24
		c3.86,0.1,4.56,0.76,4.69,4.51c0.03,0.96,0.01,1.92,0.55,2.78c1.21,1.94,3.14,0.81,4.73,1.06c1.43,0.23,3.19-0.46,3.8,1.67
		c0.54,1.89-0.33,4.4-1.85,5.44C292.1,608.77,291.23,609.22,290.57,609.92z"/>
	<path class="st1" d="M395.12,571.29c-1.4-1.78-2.8-3.56-4.2-5.33c-0.18-0.62-0.1-1.17,0.59-1.39c0.45-0.14,0.96-0.07,1.44-0.07
		c19.63,0,39.25-0.04,58.88,0.05c2.56,0.01,5.21,0.51,6.74,3.09l0.03,0.09c0.6,1.37,0.1,2.41-0.96,3.3
		c-1.28,0.56-2.64,0.45-3.98,0.45c-18.75,0.08-37.5-0.13-56.25,0.12C396.61,571.61,395.87,571.46,395.12,571.29z"/>
	<path class="st2" d="M227.24,568.51c-0.66-0.87-1.32-1.74-1.98-2.61c0.53-2.14,2.31-1.44,3.56-1.35
		c8.34,0.55,16.69,0.02,25.04,0.11c10.46,0.11,20.93,0.31,31.4,0.11c1.98-0.04,4.04-0.02,5.85,1.09l0.19,0.12
		c1.76,1.47,2.25,3.1,0.68,5.02c-1.46,0.68-3.02,0.5-4.54,0.5c-16.44,0.01-32.88,0.01-49.31,0.01c-2.31,0-4.61,0.02-6.91,0.16
		C229.16,571.55,228.54,569.61,227.24,568.51z"/>
	<path class="st3" d="M67.62,567.69c1.64-2.22,4.03-2.92,6.58-2.93c16.04-0.07,32.08-0.14,48.12-0.02c3.59,0.03,0.89,2.34,0.92,3.65
		c-0.66,0.82-0.4,2.02-1.16,2.79c-0.44,0.66-1.07,0.61-1.77,0.56c-6.35-0.46-12.71-0.81-19.04,0.22c-1.11,0.18-1.81-0.3-2.41-1.13
		c-0.62-0.85-1.46-1.5-2.09-2.34c-1.12-0.7-1.47-2.79-3.46-1.89c-0.15-0.02-0.3-0.04-0.46-0.06c-6.97-0.62-13.92-0.37-20.87,0.33
		c3.67,0.65,7.36,0.5,11.04,0.55c1.83,0.02,3.68-0.04,5.2,1.27c0.25,0.22,0.43,0.49,0.55,0.8c-0.4,1.56-1.73,1.85-3.01,2.21
		c-5.16-0.49-10.33-0.16-15.49-0.26c-0.67-0.01-1.34,0.02-2.01-0.03c-0.95-0.07-2.15,0.06-2.59-0.88c-0.51-1.09,0.78-1.55,1.33-2.25
		C67.16,568.04,67.41,567.88,67.62,567.69z"/>
	<path class="st4" d="M525.02,572.4c-0.53-0.21-0.7-0.6-0.57-1.14c2.1-1.38,4.47-1.61,6.88-1.6c17.77,0.05,35.53-0.16,53.3,0.12
		c0.89,0.01,1.74,0.09,2.29-0.79c0.19-0.27,0.42-0.51,0.68-0.72c0.32-0.22,0.6-0.18,0.84,0.13c-0.17,2.75-0.65,5.32-3.72,6.38
		c-12.31,0.2-24.64,0.46-36.91-0.13c-4.93-0.24-9.9-0.82-14.87-0.88c-1.65-0.02-3.27,0.1-4.77,0.87
		C526.04,575.43,525.93,573.35,525.02,572.4z"/>
	<path class="st5" d="M43.03,591.67c0.57-2.84-1.49-4.56-2.81-6.59c0.06-1.57-1.47-2.1-2.12-3.22c-0.67-1.16-1.06-2.09,0.55-2.72
		c3.34-0.57,6.7-0.25,10.05-0.27c7.19-0.05,14.38-0.02,21.57-0.01c1.24,0,2.5-0.07,3.71,0.3c0.32,0.11,0.61,0.3,0.85,0.54
		c0.3,0.86-0.21,1.45-0.71,2c-1.92,2.11-4.42,3.5-6.61,5.29c-0.67,0.55-1.62,0.42-2.46,0.19c-2.57-1.12-5.29-0.73-7.96-0.77
		c-2.69-0.04-5.38,0.08-8.06-0.03c-2.48-0.11-4.06,0.79-4.61,3.28C44.12,590.45,44.54,591.72,43.03,591.67z"/>
	<path class="st6" d="M588.44,568.41c-0.14-0.12-0.3-0.18-0.49-0.18c-0.93-1.61-2.36-1.98-4.14-1.98
		c-19.14,0.03-38.28,0.02-57.42,0.02c-0.19,0-0.39-0.02-0.58,0.01c-0.7,0.13-1.95-0.24-1.9,0.69c0.07,1.26,1.27,0.75,2.07,0.6
		c1.24-0.24,2.49-0.24,3.74-0.24c17.03,0,34.05-0.01,51.08,0.01c2.4,0,4.82-0.02,7.09,0.97c-0.14,2.83-1.87,2.38-3.97,2.33
		c-8.24-0.2-16.49-0.09-24.74-0.09c-9.59,0-19.18,0.11-28.77-0.07c-2.09-0.04-3.83,1.78-5.95,0.77c-1.15-1.52-2.29-3.04-3.45-4.55
		c-1.29-1.68-0.53-2.07,1.19-2.06c6.43,0.03,12.86,0,19.29,0c14.87,0,29.74,0.01,44.62,0.02C590,564.67,590,564.66,588.44,568.41z"
		/>
	<path class="st7" d="M169.35,568.43c-0.41-0.49-0.83-0.98-1.24-1.46c-1.17-1.77-0.8-2.51,1.42-2.5c8.17,0.06,16.34,0.01,24.51,0.04
		c2.74,0.01,3.15,0.65,2.28,3.35c-0.35,1.07-0.42,2.27-1.35,3.09c-1.54,0.72-3.2,0.49-4.82,0.51c-5.65,0.06-11.31-0.08-16.96,0.11
		C170.93,571.73,170.82,569.25,169.35,568.43z"/>
	<path class="st8" d="M463.26,567.91c-0.67-0.87-2.03-1.68-1.43-2.82c0.51-0.96,1.95-0.4,2.96-0.4c7.79-0.03,15.58-0.01,23.36,0
		c3.27,0,3.27,0.01,2.13,3.2c-0.37,2.66-1.89,3.61-4.56,3.56c-5.76-0.1-11.54-0.21-17.3,0.06
		C465.62,571.65,464.9,569.22,463.26,567.91z"/>
	<path class="st9" d="M302.81,567.95c-0.43-0.5-0.91-0.97-1.28-1.52c-0.67-0.99-0.83-1.76,0.82-1.76
		c7.78,0.03,15.55,0.05,23.33,0.01c1.49-0.01,2.03,0.8,2.33,2.03c0.27,1.1,0.55,2.19,0.82,3.29c-0.49,1.65-1.92,1.36-3.07,1.38
		c-6.02,0.12-12.05-0.07-18.07,0.11C305.06,571.58,304.34,569.27,302.81,567.95z"/>
	<path class="st10" d="M395.12,571.29c1.21-0.84,2.63-0.75,3.98-0.75c19.56-0.01,39.13,0.02,58.69,0.04
		c0.96,1.18,0.18,1.96-0.63,2.73c-0.53,0.26-1.09,0.35-1.67,0.35c-19.35,0.13-38.7,0.24-58.05-0.08c-0.75-0.16-1.31-0.63-1.83-1.16
		C395.12,572.18,394.95,571.81,395.12,571.29z"/>
	<path class="st11" d="M27.43,568.47c-1.1-0.9-2.89-2.05-2.52-3.14c0.5-1.49,2.53-0.56,3.86-0.59c5.45-0.11,10.9,0.02,16.35-0.09
		c2.91-0.06,5.01,0.89,6.08,3.71c1.29,1.89,0.58,2.92-1.5,2.99c-6.05,0.21-12.1,0.19-18.14,0.01
		C29.6,571.3,28.64,569.66,27.43,568.47z"/>
	<path class="st12" d="M525.02,572.4c1.34,0.13,1.11,1.86,2.25,2.2c0.45,0.69,0.36,1.52,0.6,2.28c0.16,0.99,0.18,1.96-0.19,2.91
		c-1.49,1.99-1.62,4.38-1.95,6.71c-0.05,0.94-0.36,1.86-0.19,2.82c0.51,1.92-0.52,3.49-1.17,5.14c-0.11,0.27-0.24,0.51-0.39,0.76
		c-0.8,1.12-0.53,2.57-1.12,3.76c-0.74,2.23-0.39,4.57-0.7,6.85c-0.23,1.74,0.9,2.62,2.49,2.94c1.14,0.23,2.29,0.16,3.44,0.16
		c13.8,0,27.6-0.01,41.4,0.01c2.59,0,5.18,0.17,7.39-1.65c0.6-0.49,1.43-0.5,2.21-0.31c0.34,0.11,0.62,0.32,0.82,0.61
		c-1.7,2.38-4.05,3.35-6.94,3.34c-15.77-0.02-31.55,0.04-47.32,0.01c-4.9-0.01-6.68-2.29-6.04-7.08c0.76-5.73,2.87-11.14,3.85-16.81
		c0.62-3.58,1.29-7.16,2.08-10.71C525.85,574.88,525.3,573.69,525.02,572.4z"/>
	<path class="st13" d="M395.61,572.41c0.41,0.18,0.82,0.35,1.23,0.53c1.12,1.05,0.24,2.9,1.56,3.87c0.4,1.01,0.36,2.01-0.08,3
		c-2.28,2.67-1.9,6.12-2.67,9.23c-0.45,1.17-0.26,2.42-0.46,3.63c-1.08,1.85-0.9,4-1.47,5.98c-0.63,2.31-1.36,4.61-1.69,6.99
		c-0.28,2.06,0.43,3.28,2.8,3.27c16.16-0.02,32.32-0.01,48.47-0.01c2.56,0,4.07-2.06,6.23-2.78c0.53-0.17,1.04-0.17,1.49,0.2
		c-1.2,3.4-3.98,4.5-7.18,4.53c-10.1,0.11-20.2,0.06-30.3,0.08c-7.02,0.01-14.04,0.03-21.06,0.02c-3.35,0-3.63-0.33-3-3.7
		c0.65-3.49,1.14-7.04,2.17-10.42c2.04-6.73,2.53-13.77,4.41-20.51C396.46,574.86,395.85,573.7,395.61,572.41z"/>
	<path class="st14" d="M227.24,568.51c1.31,0.51,1.98,1.71,2.89,2.65c1.99,0.93,4.12,0.74,6.21,0.75
		c16.86,0.1,33.72-0.01,50.58,0.03c1.61,0,3.28-0.26,4.76,0.68c0.63,1.22,0.44,2.47,0.12,3.72l0,0.02c-0.47,0.33-0.95,0.3-1.42,0
		c-0.58-0.62-1.1-1.34-2.07-1.33c-6.14,0.07-12.32-0.93-18.41,0.67c-4.27,0.68-8.57,0.32-12.85,0.28c-2.55-0.02-3.87,0.8-4.26,3.41
		c-0.27,1.83-0.48,3.83-2.19,5.1c-0.66,0.04-0.79-0.47-0.98-0.92c-0.26-1.11-0.19-2.23-0.04-3.35c0.04-0.3,0.11-0.6,0.2-0.89
		c1.07-4.25,0.93-4.46-3.38-4.5c-3.46-0.03-6.92-0.05-10.39,0.02c-1.46,0.03-2.95,0.15-3.43,1.95c-0.12,0.89-0.34,1.75-0.7,2.58
		c-0.12,0.29-0.27,0.55-0.44,0.8c-0.37,0.37-0.75,1.09-1.3,0.68c-0.76-0.57-0.47-1.46-0.19-2.24c1.38-3.13,0.69-5.82-1.62-8.26
		C227.88,569.87,227.1,569.42,227.24,568.51z"/>
	<path class="st15" d="M144.34,566.09c1.71-1.3,3.74-1.37,5.74-1.4c3.73-0.05,7.46,0.08,11.19-0.06c2.2-0.08,2.75,0.72,2.01,2.67
		c-0.43,1.14-0.47,2.45-1.37,3.4c-0.67,0.87-1.6,0.91-2.59,0.85c-4.39-0.25-8.78-0.02-13.17-0.15c-1.54-0.05-3.58,0.52-4.22-1.48
		C141.32,568.02,143.19,567.17,144.34,566.09z"/>
	<path class="st16" d="M367.27,567.82c1.65-2.34,4.1-3.01,6.74-3.08c3.72-0.1,7.44,0.03,11.16-0.07c1.8-0.05,2.23,0.7,1.68,2.24
		c-0.45,1.27-1.01,2.5-1.52,3.75c-0.67,0.89-1.64,0.84-2.59,0.82c-4.57-0.09-9.14,0-13.7-0.06c-1.12-0.02-2.57,0.25-3.17-0.82
		C365.18,569.36,366.92,568.83,367.27,567.82z"/>
	<path class="st17" d="M135.36,595.94c0.42-2.32-0.6-2.99-2.85-2.89c-3.93,0.17-7.88,0.1-11.82,0.03c-1.61-0.03-2.41,0.44-2.71,2.16
		c-0.65,3.68-1.55,7.31-2.34,10.96c-0.74,3.43-2.26,4.72-5.75,4.75c-4.81,0.03-9.61-0.04-14.42,0.04c-2.15,0.04-3.17-0.69-2.45-2.89
		c0.63-1.91,0.34-4.01,1.27-5.85c1.07,0.87,0.53,2.53,1.67,3.38c0.27,3.27,0.28,3.3,3.55,3.33c2.88,0.03,5.76,0.04,8.64-0.01
		c3.07-0.05,3.96-0.89,5.13-3.64c1.04-2.45,0.78-5.11,1.58-7.57c0.67-1.03,0.59-2.19,0.65-3.33c0.13-2.38,1.39-3.79,3.74-3.89
		c5.25-0.23,10.51-0.25,15.76,0c2.6,0.12,2.97,1.04,2.86,5.43c-0.03,0.79-0.11,1.56-0.65,2.19
		C135.23,598.59,136.3,596.41,135.36,595.94z"/>
	<path class="st18" d="M56.34,574.63c0.68,0.16,1.36,0.33,2.04,0.49c5.9-2.63,12.15-1.91,18.32-1.81c1.56,0.03,2.84,0.82,3.03,2.49
		c0.16,1.43-0.62,2.34-2.15,2.42c-1.63-1.01-3.46-1-5.28-0.97c-10.81,0.13-21.62,0-32.43-0.02c-1.51,0-3.09,0.22-4.45-0.73
		c-1.04-2.13-0.03-3.15,2-3.21c5.06-0.15,10.13-0.15,15.19,0C54,573.33,54.98,574.49,56.34,574.63z"/>
	<path class="st19" d="M527.33,576.39c-0.92-0.56-0.26-1.19-0.06-1.79c0.98-1.36,2.29-1.81,3.97-1.73c2.4,0.13,4.8-0.01,7.2,0.02
		c3.11,0.04,6.29-0.42,9.21,1.25c1.13,0.65,2.43,0.46,3.68,0.46c10.09,0,20.18-0.02,30.27-0.01c1.05,0,2.1,0.13,3.14,0.19
		c-2.05,0.69-4.16,0.31-6.23,0.32c-8.92,0.07-17.85,0.2-26.77-0.03c-3.24-0.09-4.62,0.95-4.59,4.09c0,0.37-0.16,0.75-0.25,1.12
		c-0.61,0.43,0.2,1.86-0.94,1.71c-0.99-0.14-0.86-1.31-0.98-2.13c-0.35-3.12-1.08-3.81-4.11-3.85c-0.87-0.01-1.73,0.06-2.57,0.28
		C534.64,577.26,530.99,577.11,527.33,576.39z"/>
	<path class="st20" d="M96.76,568.48c2,1.72,3.77,2.8,6.95,2.27c4.85-0.81,9.93-0.09,14.9-0.29c1.15-0.05,2.15,1.34,3.29,0.21
		c0.86,1.72,0.3,2.99-1.24,3.96c-5.97,0.58-11.96,0.27-17.94,0.22c-0.97-0.01-1.88-0.32-2.49-1.17
		C99.13,571.91,97.58,570.44,96.76,568.48z"/>
	<path class="st21" d="M512.22,604.68c-0.07,4.55-1.74,6.31-6.15,6.32c-13.51,0.02-27.01,0.01-40.52,0c-5.37,0-6.47-1.65-4.69-6.98
		c0.7,0.58,0.59,1.28,0.37,2.04c0.18-0.48,0.18-1.03,0.44-1.48c0.42-0.73,0.9-0.91,1.43-0.08c0.99,4.41,0.99,4.41,5.53,4.41
		c11.15,0,22.31-0.07,33.46,0.05c3.11,0.03,5.91-0.27,8.09-2.73C510.95,605.83,511.04,604.53,512.22,604.68z"/>
	<path class="st22" d="M385.23,572c0.16,2.67-0.55,5.23-0.99,7.82c-0.77,1.3-1.46,1.69-1.96-0.17c-0.44-3.6-0.44-3.61-4.05-3.64
		c-3.08-0.02-6.17,0.2-9.22-0.05c-4.16-0.34-7.54,0.94-10.33,3.97c-0.49,0.45-1.04,0.76-1.73,0.72c-0.79-0.26-0.96-0.78-0.61-1.5
		c2.84-2.83,5.67-5.66,8.51-8.49c1.17,0.81-0.07,1.43-0.07,2.03C371.49,571.22,378.4,572.6,385.23,572z"/>
	<path class="st23" d="M161.67,572.64c0.08,3.4-0.68,6.68-1.5,9.95c-1.77-0.21-1.14-1.66-1.38-2.66c0.05-2.28-1.12-3.31-3.34-3.33
		c-3.45-0.03-6.89-0.04-10.34,0c-1.76,0.02-3.16,0.67-4.06,2.23c-0.42,0.48-0.94,1.25-1.53,0.85c-0.75-0.51-0.49-1.45-0.14-2.23
		l-0.01,0.02c0.89-1.22,0.36-3.05,1.74-4.05c1.66-1.08,3.49-1.4,5.46-1.4C151.62,572.03,156.66,571.96,161.67,572.64z"/>
	<path class="st24" d="M356.34,579.13c0.15,0.49,0.23,1.02,0.82,1.21c0.16,1.34-0.89,2-1.65,2.77c-1.4,1.42-2.56,2.98-3.39,4.79
		c-0.4,0.54-0.89,1-1.27,1.55c-1.84,2.97-5.07,4.45-7.36,6.94c-1.02,0.37-2.04,0.37-3.05-0.02c-2.57-1.77-4.34-4.11-5.11-7.17
		c-0.44-1.17-0.9-2.34-1.37-3.5c-0.16-1.46-0.94-2.78-0.97-4.27c0.21-0.81,1.1-0.65,1.57-1.09c2.45,3.98,3.48,8.6,5.73,12.69
		c1.04,1.89,1.58,1.87,3.01,0.5C347.99,589.04,351.75,583.71,356.34,579.13z"/>
	<path class="st25" d="M463.26,567.91c2.48,2.99,5.82,2.77,9.23,2.64c4.32-0.16,8.66-0.22,12.97,0.04c2.41,0.14,4-0.41,4.82-2.71
		c-0.61,3.23-1.23,6.46-1.84,9.7c-0.09-0.03-0.25-0.04-0.26-0.09c-1.41-4.07-4.7-4.01-8.14-3.8c-3.73,0.23-7.5-0.34-11.21,0.46
		c-0.61,0.13-1.13-0.04-1.55-0.52C465.94,571.72,464.6,569.82,463.26,567.91z"/>
	<path class="st26" d="M363.44,610.63c-3.43,0.34-3.8-0.06-3.21-3.24c0.53-2.88,1.01-5.78,1.64-9.4c-2.98,3.11-5.45,5.7-7.93,8.29
		c-1.07,0.76-1.66,0.4-1.9-0.8c1.33-3.34,4.61-5.01,6.63-7.76c0.75-0.72,1.35-1.58,2.12-2.27c0.79-0.7,1.67-1.42,2.77-0.92
		c1.28,0.58,1.09,1.84,1.02,2.97c-0.05,0.75-0.4,1.45-0.38,2.22c0.19,1.96-0.8,3.7-1.06,5.57c-0.41,2.94,0.15,3.48,3.07,3.68
		c3.61,0.25,7.13-0.46,10.7-0.63c0.11,0.11,0.23,0.22,0.34,0.33c-0.95,2.23-2.8,2.24-4.79,1.92
		C369.45,610.71,366.44,610.66,363.44,610.63z"/>
	<path class="st27" d="M467.29,573.63c5.79-1.44,11.68-0.47,17.51-0.75c3.42-0.17,3.07,2.64,3.65,4.71c-0.15,1.1-0.3,2.2-0.44,3.3
		c-1.08,0.67-1.42-0.11-1.76-0.89c-0.62-3.43-1.15-3.9-4.72-3.99c-2.49-0.06-5,0.14-7.48-0.06c-2.93-0.24-4.83,0.77-5.58,3.68
		c-0.2,0.41-0.43,0.81-0.66,1.2c-0.52,0.59-0.45,1.69-1.56,1.84c-0.71-0.74-0.47-1.55-0.22-2.35
		C466.3,578.06,467.33,575.94,467.29,573.63z"/>
	<path class="st28" d="M560.78,596.52c0.16-0.74,0.3-1.48,0.49-2.21c1.82-7,2.48-7.51,9.8-7.51c3.54,0,7.08,0.1,10.61-0.03
		c2.38-0.09,3.12,0.93,2.69,3.1c-0.33,1.66-0.69,3.32-1.04,4.98c-1.32-1.16-0.59-3.42-2.34-4.34c-4.61-1.29-9.3-0.67-13.94-0.41
		c-2.05,0.11-2.29,2.67-3.72,3.75C562.32,594.58,562.52,596.48,560.78,596.52z"/>
	<path class="st29" d="M157.91,591.97c-0.31,5.5-1.89,10.75-3.3,16.01c-0.6,2.24-2.57,2.94-4.77,2.94c-4.8-0.01-9.61-0.13-14.4,0.03
		c-2.82,0.1-3.33-1.09-2.6-3.45c0.25-0.81,0.46-1.64,0.68-2.46c0.67,0.59,1.37,1.16,1.83,1.95c0.4,1.41,1.35,1.97,2.78,1.97
		c3.54,0.01,7.08-0.03,10.62,0.01c1.67,0.02,2.76-0.71,3.25-2.25c1.22-3.82,2.63-7.59,2.8-11.66c0.26-1.4,0.98-2.61,1.64-3.84
		c0.39-0.36,0.82-0.75,1.36-0.41C158.25,591.1,158.15,591.56,157.91,591.97z"/>
	<path class="st30" d="M291.12,565.85c-2.71-0.78-5.48-0.67-8.25-0.68c-13.35-0.02-26.7-0.11-40.05-0.16
		c-4.9-0.02-9.79,0-14.69-0.02c-1.07,0-2.13-0.08-2.87,0.91c-0.99-1.44,0.17-1.49,1.07-1.52c1.72-0.07,3.45-0.03,5.17-0.03
		c17.83,0,35.65-0.01,53.48,0.04C287.11,564.39,289.39,564.07,291.12,565.85z"/>
	<path class="st31" d="M194.73,570.69c2.8-5.5,2.65-5.76-3.36-5.76c-7.21,0-14.42,0.07-21.63-0.05c-1.85-0.03-2.09,0.61-1.63,2.09
		c-0.81-0.42-1.49-1.04-1.22-1.97c0.27-0.92,1.22-0.74,1.98-0.74c8.65,0,17.31,0.03,25.96-0.01c1.92-0.01,2.68,0.73,2.23,2.62
		c-2.34,9.87-4.69,19.74-6.53,29.72c-0.03,0.14-0.27,0.24-0.41,0.36c-0.13-0.13-0.29-0.27-0.3-0.44c-0.1-0.89-0.54-1.45-1.07-1.33
		c-1.35-2.53,0.73-4.68,0.78-7.05c1.02-2.73,2.11-5.45,1.99-8.46c0.22-1.18,0.02-2.49,0.99-3.45c1.68,0.73,0.61,1.92,0.7,2.74
		c0.8-1.37-0.46-2.99-0.14-4.57C193.48,573.09,193.69,571.71,194.73,570.69z"/>
	<path class="st32" d="M217.81,605.75c-0.48,3.8-1.81,5.19-5.47,5.21c-14.17,0.07-28.35,0.05-42.52,0.05
		c-1.05,0-2.15,0.06-2.75-1.11c0.27-0.8,0.89-1.03,1.65-1.07c13.89,0.16,27.78,0,41.66,0.09c2.3,0.02,4.08-0.78,5.54-2.48
		C216.46,605.97,217.03,605.55,217.81,605.75z"/>
	<path class="st33" d="M302.81,567.95c2.49,2.94,5.79,2.74,9.21,2.61c4.59-0.17,9.19-0.02,13.79-0.04c1.03,0,2.13,0.29,3.02-0.52
		c0.22,0.22,0.44,0.44,0.65,0.65c0.54,2.74,0.44,2.94-2.36,2.99c-4.7,0.08-9.4,0.02-14.09,0.03c-1.05,0-2.16-0.18-3.15,0.14
		c-2.06,0.68-3.3-0.17-4.18-1.91C304.5,570.76,303.37,569.56,302.81,567.95z"/>
	<path class="st34" d="M27.43,568.47c2.15,2.1,4.78,2.18,7.59,2.09c4.77-0.15,9.55-0.13,14.31,0.04c1.96,0.07,2.25-0.66,1.86-2.25
		c0.99,0.49,1.38,1.4,1.7,2.37c1.01,2.34,0.87,2.66-1.54,2.7c-4.41,0.07-8.81,0.01-13.22,0.03c-0.95,0-2-0.25-2.84,0.22
		c-1.92,1.07-3.26,0.39-4.42-1.18C29.51,571.33,28.22,570.11,27.43,568.47z"/>
	<path class="st35" d="M100.25,573.68c4.48,0.65,8.99,0.14,13.48,0.29c2.39,0.08,4.79,0.14,7.18,0.21c0.98,2.05,0.83,4.01-0.48,5.88
		c-0.32,0.02-0.61-0.07-0.85-0.28c-0.66-2.45-2.41-3.24-4.74-2.95c-3.13,0.4-6.26,0.32-9.39,0.27c-2-0.03-3.27,0.71-3.79,2.66
		c-0.46,0.64-0.95,1.25-1.83,1.31c-1.5-1.7,0.41-3.22,0.26-4.85C100.13,575.36,100.19,574.52,100.25,573.68z"/>
	<path class="st36" d="M560.78,596.52c1.1-0.65,0.76-2.17,1.75-2.88c0.99,1.09,0.72,2.37,0.54,3.63c-0.97,4.83-1.55,5.32-6.46,5.35
		c-3.55,0.02-7.11,0.04-10.66-0.01c-4.72-0.06-5.76-1.18-5.56-5.88c0.31-1.55,0.98-3,1.23-4.59c0.16-1.01,0.54-2.14,2.03-1.35
		c0.71,1.58-0.02,3.12-0.11,4.67c-0.53,4.66-0.53,4.66,4.17,4.65c2.87-0.01,5.75-0.18,8.6,0.04
		C559.12,600.39,560.67,599.44,560.78,596.52z"/>
	<path class="st37" d="M67.62,567.69c-0.55,0.84-1.11,1.67-1.88,2.84c5.51,0,10.75,0.02,15.98-0.02c1.55-0.01,3.06,0.07,4.5,0.7
		c-1.12,2.02-2.45,3.66-5.14,3.04c-4.95-1.53-10.03-0.53-15.05-0.81c-0.85-0.05-1.73,0.1-2.56-0.13c-0.98-0.28-1.26-0.81-0.37-1.57
		C64.4,570.15,65.68,568.55,67.62,567.69z"/>
	<path class="st38" d="M161.67,572.64c-0.55,1.19-1.14,2.41-2.58,0.9c-0.79-0.82-1.75-0.63-2.68-0.64
		c-2.78-0.02-5.55,0.05-8.33-0.02c-2.38-0.06-4.72-0.01-6.88,1.16c-1.03-2,0.46-3.77,0.51-5.67c0.7-0.96,1.33-2.01,2.63-2.29
		c-0.19,0.32-0.34,0.67-0.58,0.94c-0.76,0.84-1.93,1.6-1.24,2.9c0.61,1.16,1.9,0.56,2.88,0.58c5.5,0.11,11.01,0.14,16.51,0.2
		C162.29,571.41,161.96,572.02,161.67,572.64z"/>
	<path class="st39" d="M305.7,571.9c1.47,2.06,3.48,1.01,5.36,0.99c5.36-0.07,10.73-0.11,16.09,0.03c1.84,0.05,2.56-0.47,2.34-2.26
		c1.69,3.23,3.38,6.45,5.07,9.68c-0.15,0.78-0.54,0.96-1.21,0.5c-0.96-0.11-1.41-0.83-1.87-1.55c-0.57-0.99-0.99-2.05-1.42-3.1
		c-0.7-0.9-1.68-1.26-2.77-1.28c-5.16-0.1-10.32-0.08-15.48-0.01c-1.18,0.02-2.28,0.32-2.9,1.49c-0.24,1.18-0.45,2.36-1,3.44
		c-0.56,0.88-0.78,2.04-1.98,2.39c-0.99-0.7-0.54-1.62-0.39-2.5C305.94,577.12,307.36,574.54,305.7,571.9z"/>
	<path class="st40" d="M385.23,572c-0.71,0.95-0.8,2.68-2.9,1.18c-1.1-0.78-3.15-0.33-4.76-0.28c-4.77,0.16-9.61-0.74-14.32,1.27
		c0.03-1.72,2-2.03,1.62-3.53c0.55-1.16,1.3-2.15,2.41-2.83c0.27,1.09-1.01,1.53-1.23,2.84c6.56,0,12.93,0,19.29,0
		C385.3,571.1,385.27,571.55,385.23,572z"/>
	<path class="st41" d="M30.88,572.48c1.7,1.94,3.65,0.37,5.48,0.38c4.98,0.02,9.95-0.08,14.93,0.05c1.92,0.05,2.04-0.75,1.61-2.19
		c1.15,1.3,2.3,2.61,3.45,3.91c-0.34,0.39-0.81,0.67-1.27,0.48c-5.75-2.27-11.74-0.51-17.59-1.06c-1.76-0.17-2.2,0.75-1.94,2.29
		c0.76,1.1,1.76,2.05,2.16,3.37c0.12,2.13,2.95,2.98,2.52,5.37c-3.24-3.55-6.13-7.37-8.8-11.36
		C31.17,573.35,31.06,572.89,30.88,572.48z"/>
	<path class="st42" d="M217.81,605.75c-0.36,0.19-0.73,0.37-1.09,0.56c-0.88-3.65-3.6-3.78-6.66-3.72
		c-6.14,0.12-12.29,0.08-18.44,0.02c-4.51-0.04-5.23-1.21-3.51-5.5c0.19-0.68,0.32-1.39,0.99-1.8c0.26-0.36,0.53-0.72,1.01-1.37
		c0,1.21,0,2.11,0,3.02c-1.03,3.58-0.96,3.67,2.43,3.67c7.55-0.01,15.11-0.01,22.66-0.01c4,0,4.02,0.05,2.96,4.04
		C218.07,605.03,217.93,605.38,217.81,605.75z"/>
	<path class="st43" d="M63.11,571.74c-0.31,1.9,1.17,1.08,1.85,1.09c4.75,0.07,9.51,0.02,14.26,0.05c0.96,0.01,2.22-0.39,2.47,1.18
		c0.6,0.72,0.51,1.43-0.01,2.15c-1.58,1.36-3.15,2.71-4.73,4.07c-1.53,1.23-1.58,1.23-2.24,0.09c0.05-0.2,0.11-0.4,0.16-0.59
		c0.67-0.95,1.35-1.91,2.72-1.8c0.98-0.47,1.99-1.06,1.61-2.33c-0.37-1.24-1.46-1.63-2.73-1.62c-3.82,0.03-7.67-0.22-11.46,0.12
		c-2.19,0.19-4.28,1.41-6.61,0.98C59.82,573.79,61.25,572.46,63.11,571.74z"/>
	<path class="st44" d="M512.22,604.68c-0.39,0.53-0.77,1.06-1.16,1.59c-0.56-0.54-0.62-1.23-0.61-1.94c0.48-1.67-0.4-1.96-1.78-1.74
		c-7.78,0.11-15.56,0.1-23.33,0.02c-3.17-0.03-3.63-0.59-3.75-3.68c0.3-1.2,0.75-2.31,1.78-3.08c1.19,0.09,0.81,1.01,0.89,1.68
		c0.12,1-0.26,2.05,0.27,3.02c7.84,0.03,15.67,0.05,23.51,0.1c1.43,0.01,3.13-0.37,4.22,0.25
		C513.82,601.8,511.49,603.36,512.22,604.68z"/>
	<path class="st45" d="M119.67,579.8c1.75-0.22,1.14-1.6,1.23-2.59c0.09-1.01,0.01-2.03,0.01-3.04c0.73-1.06,1.17-2.2,1-3.51
		c0.24-0.88,0.46-1.77,1.33-2.28c-0.61,3.93-1.03,7.91-1.91,11.79c-0.52,2.31,0.28,2.59,2.2,2.55c3.82-0.09,7.65-0.18,11.47,0.01
		c2.29,0.11,3.33-0.64,3.51-2.91c0.06-0.79,0.11-1.75,0.87-2.35c0.06,0.61,0.12,1.23,0.19,1.84c0.34-0.26,0.68-0.52,1.02-0.78
		c0.4,0.44,0.5,0.97,0.47,1.54c-1.2,4.08-1.87,4.61-5.99,4.62c-4.3,0.01-8.6,0.1-12.9-0.03
		C118.71,584.53,117.88,582.83,119.67,579.8z"/>
	<path class="st46" d="M352.39,605.31c0.06,1.05,0.83,0.97,1.55,0.98c-2.13,3.44-4.94,5.2-9.25,4.81
		c-4.19-0.38-8.49-0.47-12.66,0.02c-4.37,0.51-6.31-1.54-7.42-5.21c0.59-0.52,1.15-1.15,2.06-0.56c1.53,2.85,3.87,3.94,7.09,3.67
		c2.46-0.21,4.96-0.17,7.43-0.01c4.02,0.25,7.8,0.05,10.43-3.63C351.8,605.11,352.12,605.2,352.39,605.31z"/>
	<path class="st47" d="M458.55,567.64c-2.14-2.3-4.89-2.67-7.85-2.67c-18.85,0.02-37.69-0.01-56.54,0.03
		c-1.11,0-2.58-0.72-3.25,0.96c-0.9-0.75-0.59-1.34,0.33-1.61c0.62-0.18,1.33-0.09,2-0.09c19.11,0,38.21,0.01,57.32-0.02
		c1.65,0,3.27,0.14,4.84,0.59C456.86,565.25,458.37,565.75,458.55,567.64z"/>
	<path class="st48" d="M318.96,602.29c-0.17,2.29-1.01,4.42-1.8,6.53c-0.36,0.95-1.38,1.54-2.55,1.52
		c-4.1,0.69-8.22,0.23-12.33,0.24c-2.18,0.5-2.7-0.64-2.51-2.52c0.41-4.14,1.31-8.19,2.24-12.23c0.69,0.03,0.42-1.88,1.63-0.8
		c0.6,1.02,0.46,2.14,0.43,3.24c-0.52,2.42-1.22,4.8-1.86,7.2c-0.75,2.82-0.25,3.47,2.59,3.52c1.81,0.03,3.63,0.01,5.44,0.01
		c4.6-0.02,5.31-0.58,6.48-5.1C317.94,604.03,317.6,601.96,318.96,602.29z"/>
	<path class="st49" d="M74.7,580.37c0.79,1.11,1.49-0.17,2.24-0.09c-2.08,2.67-4.97,4.42-7.7,6.25c-2.7,1.8-4.19,3.89-4.43,7.17
		c-0.18,2.34-0.99,4.64-1.52,6.96c-1.29-1.1-0.74-2.64-0.95-3.99c0.01-2.35-0.22-4.71,0.26-7.04c0.56-1.39,1.67-2.21,2.95-2.86
		c2.9-0.26,4.3-2.89,6.54-4.2C73.06,582,73.84,581.11,74.7,580.37z"/>
	<path class="st50" d="M290.57,609.92c0.26-1.23,1.14-1.98,2.22-2.33c1.04-0.34,1.19-1,1.29-1.91c0.38-3.55,0.13-3.7-3.5-3.9
		c-1.78-0.1-4.06,1.13-5.27-1.35c0.07-2.83,0.05-5.67,1.84-8.11c0.88-0.07,1.84-0.2,1.06,1.2c-0.07,0.07-0.17,0.13-0.19,0.21
		c-1.74,6.84-1.73,6.84,5.16,6.86c3.55,0.01,3.45-0.01,2.7,3.55C295.24,607.19,293.93,609.45,290.57,609.92z"/>
	<path class="st51" d="M168.27,609.22c-0.4,0.23-0.8,0.45-1.2,0.68c-1.95-1.08-1.25-2.92-0.95-4.36c0.99-4.75,2.22-9.45,3.36-14.17
		c0.53-0.99,1.03-2.04,2.44-1.13c0.74,1.99-1.15,3.7-0.58,5.67c-0.29,3.08-1.94,5.78-2.48,8.81
		C168.58,606.22,168.31,607.7,168.27,609.22z"/>
	<path class="st52" d="M61.99,605.23c-0.31,4.48-1.6,5.72-6.05,5.75c-4.22,0.03-8.43,0.04-12.65,0.03
		c-4.24-0.01-4.54-0.46-3.27-4.72c0.85,0.51,0.9,1.73,1.89,2.11c5.02,1.13,10.08,0.57,15.12,0.33c1.4-0.07,2.23-1.39,3.12-2.39
		C60.69,605.84,61.03,605.03,61.99,605.23z"/>
	<path class="st53" d="M484.54,600.56c-1.7-1.24,0.55-3.46-1.16-4.69c-1.28-2.75-1.18-5.47,0.16-8.16c1.51-2.38,1.42-5.28,2.49-7.8
		c0.22-0.25,0.49-0.36,0.82-0.31c0.11,0.68,0.17,1.4,1.16,1.29c-0.63,4.43-2.32,8.64-2.76,13.13
		C485.03,596.19,484.34,598.32,484.54,600.56z"/>
	<path class="st54" d="M318.96,602.29c-0.83-0.01-0.25,2.02-1.68,1.16c-1.55-1.65,0.06-3.16,0.2-4.73c0.19-1.23,0.66-2.37,1.17-3.49
		c0.36-0.78,0.72-1.68,1.75-1.62c0.93,0.06,1.52,0.79,1.84,1.59c0.7,1.76,1.48,3.48,2.28,5.2c0.32,1.65,1.79,2.98,1.35,4.84
		c0.01,1.04-0.74,0.63-1.26,0.66c-1.31-2.65-2.61-5.29-4.18-8.48C319.81,599.46,319.38,600.87,318.96,602.29z"/>
	<path class="st55" d="M100.08,576.21c0.77,1.5-1.41,3.08,0.13,4.55c0.96,1.27,0.07,2.59,0.11,3.88c0.03,1.12-0.68,2.25,0.07,3.35
		c0.07,0.27,0.09,0.53,0.06,0.81c-0.53,2.42-2.08,4.58-1.84,7.2c-0.46,2.52-0.54,2.58-2.04,1.5c-0.53-0.96,0.36-1.74,0.36-2.66
		c0.18-0.3-0.42-0.05-0.05,0.06c0.1,0.03,0.05,0.1-0.01,0.27c-0.23,0.58-0.58,0.93-1.25,0.79c1.39-5.56,2.45-11.19,3.35-16.85
		C99.11,578.1,99.34,577.04,100.08,576.21z"/>
	<path class="st56" d="M227.62,598.2c-1.61,3.86-2.75,7.74-0.44,11.75c-2.49-0.68-3.19-2.51-2.9-4.81
		c0.54-4.32,1.63-8.53,2.71-12.74c0.79-0.56,0.51-1.84,1.58-2.26c1.08,0.46,0.88,1.44,0.81,2.37
		C229.04,594.49,227.92,596.22,227.62,598.2z"/>
	<path class="st57" d="M41.22,608.64c-1.53-0.21-0.85-1.54-1.19-2.35c0.16-5.04,2.01-9.74,3.01-14.61c0.84-0.56,0.48-1.49,0.71-2.25
		c1.01-1.01,1.26-0.1,1.6,0.62c0.67,2.75-1.31,5.08-1.23,7.75c-1.18,2.82-0.87,5.99-1.99,8.83
		C41.85,607.31,41.89,608.13,41.22,608.64z"/>
	<path class="st58" d="M581.67,590.18c2,1.04,1.32,3.03,1.65,4.66c-0.91,4.3-1.26,8.76-3.42,12.73c-0.25-0.05-0.49-0.11-0.74-0.16
		c-0.41-0.46-0.62-1.06-0.4-1.58c1.2-2.79,0.37-5.83,1.12-8.67c0.71-1.18,0.9-2.47,0.86-3.84
		C580.71,592.2,580.58,590.99,581.67,590.18z"/>
	<path class="st59" d="M466.03,580.32c0.08,0.6,0.16,1.2,0.25,1.89c0.53-0.62,0.26-1.57,1.06-1.91c1.4,2.02-0.32,4.26,0.45,6.33
		c0.22,2.96-1.65,5.38-2.15,8.15c-0.16,0.56-0.38,1.09-1,1.3c-0.9-0.29-0.93-1.06-0.78-1.75c0.16-0.73-0.48-0.49-0.7-0.75
		C464.32,589.2,464.56,584.63,466.03,580.32z"/>
	<path class="st60" d="M382.89,579.7c0.31,1.69,0.9,0.05,1.35,0.12c-1.17,5.23-2.33,10.45-3.5,15.68c-0.53-0.63-1.25-1.09-1.72-1.79
		c-0.36-1.13-0.33-2.25,0.06-3.36c0.81-1.05,0.8-2.37,1.11-3.58c1.04-2.2,1.35-4.56,1.5-6.96
		C382.07,579.48,382.47,579.43,382.89,579.7z"/>
	<path class="st61" d="M303.43,594.6c-0.48,0.41-0.95,0.81-1.43,1.22c1.18-5.37,2.35-10.73,3.53-16.1c0.35,0.74-0.3,1.79,0.71,2.32
		c1.5,1.8,0.1,3.7,0.19,5.54c0,0.46-0.01,0.93-0.02,1.39C306.52,591.43,306.01,593.57,303.43,594.6z"/>
	<path class="st62" d="M456.94,580c-1.17,5.52-2.34,11.04-3.51,16.56c-0.85-0.73-0.74-1.66-0.55-2.6c0.27-1.31-0.81,0.31-0.83-0.39
		c-0.35-0.51-0.34-1.07-0.2-1.64c0.8-1.26,0.77-2.74,1.05-4.14c0.72-2.49,1.22-5.03,1.76-7.56c0.12-0.24,0.3-0.44,0.53-0.59
		c0.44-0.24,0.87,0.79,1.33,0.01C456.78,579.62,456.92,579.75,456.94,580z"/>
	<path class="st63" d="M543.53,595.48c-0.09-1.59-0.17-3.17-0.26-4.75c-0.38-0.52-0.55-1.11-0.58-1.74
		c-0.06-1.07-0.04-2.13,0.22-3.18c0.85-1.86,1.31-3.84,1.93-5.78c0.18-0.28,0.43-0.38,0.75-0.29c0.1,0.61,0.2,1.21,0.32,1.94
		c0.38-0.54,0.68-0.96,0.99-1.39c0.46,2.01-0.7,3.73-1.21,5.51C544.78,588.99,544.86,592.39,543.53,595.48z"/>
	<path class="st64" d="M228.84,592.44c0-0.54,0-1.07,0-1.75c-1.1,0.21-0.86,1.64-1.85,1.71c1.48-4.49,1.09-9.39,2.97-13.79
		c0.93-0.12-1.21,2.86,1.23,1.22c0.81,2.28-0.29,4.39-0.6,6.57c-0.44,0.96-0.34,1.98-0.36,3
		C229.97,590.51,230.74,592.09,228.84,592.44z"/>
	<path class="st65" d="M169.35,568.43c1.55,0.33,1.93,1.92,3.01,2.76c1.3,0.6,1.84,1.77,2.26,3.03c0.16,0.73,0.16,1.47,0.18,2.21
		c0.02,1.06,0.03,2.11-0.28,3.14c-0.42,0.98-0.89,1.93-1.38,2.88c-0.89,1.01-1.67,1.56-1.7-0.47c-0.01-0.55-0.07-1.12,0.17-1.65
		c0.14-0.65,0.16-1.36,0.45-1.93c1.38-2.75,0.69-5.08-1.13-7.35C170.3,570.27,169.29,569.64,169.35,568.43z"/>
	<path class="st66" d="M463.17,593.58c0.42,0.04,1.23-1.67,1.24,0.27c0,0.64,0,1.28,0,1.93c-0.01,2.88-0.21,5.72-1.89,8.22
		c-0.42,0.98-0.84,1.97-1.49,3.49c-0.07-1.55-0.12-2.51-0.16-3.47C461.63,600.53,462.4,597.06,463.17,593.58z"/>
	<path class="st67" d="M171.61,580.32c0.02,0.54,0.03,1.08,0.07,1.61c0.02,0.32-0.14,0.85,0.38,0.79c0.26-0.03,0.48-0.49,0.72-0.75
		c1.28,1.44-0.01,3.22,0.63,4.74c0.18,1.53-0.1,2.83-1.76,3.42c-0.96-0.01-1.42,0.87-2.18,1.23
		C170.18,587.69,170.89,584.01,171.61,580.32z"/>
	<path class="st68" d="M379.54,594.25c1.65-0.79,0.81,0.82,1.2,1.25c-1.54,3.3-0.94,7.06-2.21,10.43c-0.36,0.96-0.38,2.05-1.29,2.75
		c0,0-0.14-0.13-0.14-0.13c-1.71-3.46-0.06-6.72,0.61-10.03C378.39,597.12,378.39,595.44,379.54,594.25z"/>
	<path class="st69" d="M452.39,593.66c0.34-0.02,0.64-1.35,0.96-0.14c0.25,0.95,0.07,2.02,0.08,3.04c-0.8,3.25-1.61,6.51-2.41,9.76
		c-0.35-0.01-0.69-0.01-1.04-0.02c-0.84-0.79-0.62-1.72-0.25-2.6c0.71-1.7,0.36-3.53,0.77-5.26
		C451.27,596.9,451.03,594.96,452.39,593.66z"/>
	<path class="st70" d="M157.91,591.97c-0.11-0.76-0.44-1.09-1.18-0.62c-0.68-0.56-0.73-1.33-0.7-2.13c0.05-0.94,0.63-1.67,0.99-2.49
		c0.76-2.23,0.74-4.65,1.7-6.82c0.2-0.25,0.46-0.36,0.79-0.33c0.4,0.97-0.39,2.19,0.66,3.01
		C159.74,585.8,159.18,588.97,157.91,591.97z"/>
	<path class="st71" d="M134.67,606.34c-1.61,0.65-0.77-0.85-1.14-1.3c0.14-3.13,0.83-6.14,1.84-9.09c2.21-0.16,0.64,1.57,1.13,2.27
		C136.97,601.16,136.02,603.8,134.67,606.34z"/>
	<path class="st72" d="M95.6,595.97c0.82-0.27,0.92-1.14,1.41-1.77c0.49,1.09-0.01,2.04-0.2,3.01c0.9,2.91,0.03,5.48-1.5,7.93
		c-0.82-0.28-0.82-0.28-1.01-2.89C94.26,600.06,94.78,597.98,95.6,595.97z"/>
	<path class="st73" d="M288.21,593.51c-0.06-0.67-0.38-1.04-1.09-0.98c-0.63-0.6-0.7-1.39-0.73-2.19c-0.13-1.58,0.36-3,1.11-4.36
		c0.45-1.04,0.46-2.35,1.76-2.87c0.89,0.35,0.18,1.36,0.75,1.84C289.65,587.86,289.08,590.72,288.21,593.51z"/>
	<path class="st74" d="M61.99,605.23c-0.4,0.4-0.8,0.79-1.2,1.19c-1.05-1.36-0.72-2.89-0.53-4.4c0.94-1.94,0.18-4.72,2.88-5.79
		c0.05,1.47,0.1,2.95,0.15,4.42C63.18,602.27,61.68,603.5,61.99,605.23z"/>
	<path class="st75" d="M81.68,576.21c0-0.72,0.01-1.43,0.01-2.15c2.16,0.07,3.02-1.91,4.53-2.85c0.91-0.44,1.78-0.94,2.38-1.8
		c0.42-0.31,0.81-0.31,1.19,0.07C87.29,571.97,84.51,574.12,81.68,576.21z"/>
	<path class="st30" d="M290,584.96c-0.62-0.44-0.38-1.16-0.56-1.75c-1.05-1.18-0.56-2.4-0.08-3.62c0.72-1,0.16-2.54,1.38-3.34
		c0.35,0.03,0.71,0.07,1.07,0.1C292.14,579.42,290.55,582.08,290,584.96z"/>
	<path class="st47" d="M457.31,572.87c0.16-0.76,0.32-1.53,0.49-2.29c0.26-0.95,0.53-1.9,0.79-2.85c0.53,0.24,0.63,0.75,0.52,1.19
		c-0.88,3.66-0.82,7.51-2.16,11.08c-0.03-0.13-0.07-0.25-0.13-0.37C455.62,577.28,456.6,575.09,457.31,572.87z"/>
	<path class="st30" d="M291.81,576.35c-0.06-1.18-0.13-2.35-0.19-3.53c-0.52-0.9,0.02-1.55,0.51-2.22c0.77-1.73,0.08-3.2-0.82-4.63
		c1.78,0.38,2.2,1.81,2,3.23C292.98,571.6,292.33,573.96,291.81,576.35z"/>
	<path class="st45" d="M141.71,568.37c-0.17,1.89-0.34,3.78-0.52,5.67c-1.12,0.87-0.39,2.74-1.83,3.44
		C139.86,574.37,140.28,571.24,141.71,568.37z"/>
	<path class="st76" d="M302.28,610.57c4.11-0.08,8.22-0.16,12.33-0.24C310.52,611.32,306.39,610.88,302.28,610.57z"/>
	<path class="st77" d="M363.44,610.63c3.01-0.42,6.01-0.36,9.02-0.03C369.45,611.04,366.44,610.95,363.44,610.63z"/>
	<path class="st3" d="M89.79,569.48c-0.4-0.02-0.79-0.05-1.19-0.07c0,0-0.05-0.07-0.05-0.07c0.49-2.51,2.38-2.88,4.49-2.93
		c0.09,0.06,0.17,0.12,0.26,0.18C92.13,567.55,90.96,568.52,89.79,569.48z"/>
	<path class="st78" d="M228.84,592.44c1.02-0.97,0.3-2.29,0.69-3.39c0.27-0.28,0.56-0.59,0.94-0.62c4.9-0.43,9.78-1.49,14.71-0.22
		c1.25,0.32,2.33,0.85,3.06,1.96c0.22,0.43,0.34,0.88,0.38,1.36c-0.68,3.08-0.53,6.41-2.74,9.02c-0.59-1.48-0.29-3.03-0.28-4.54
		c0.01-1.57-1.19-2.84-2.1-2.52c-3.62,1.31-7.31-0.56-10.98,0.76c-2.29,0.82-4.01,1.68-4.9,3.94
		C227.71,596.21,227.82,594.23,228.84,592.44z"/>
	<path class="st79" d="M287,590.14c0.04,0.8,0.08,1.6,0.12,2.4c-0.6,2.63-1.21,5.26-1.81,7.89c-0.91-1.21-0.42-2.59-0.4-3.87
		c0.03-2.01-0.58-2.93-2.77-2.96c-3.6-0.05-7.2,0.33-10.83-0.36c-1.63-0.31-2.39,1.56-2.57,3.07c-0.14,1.19-0.26,2.1-1.76,1.92
		c-1.31-1.83-0.11-3.44,0.44-5.1c0.1-0.37,0.04,0.12,0.13-0.25c1.27-5.25,2.24-5.81,7.98-4.88c2.55,0.41,5.13,0.12,7.69,0.2
		C284.81,588.22,286.27,588.47,287,590.14z"/>
	<path class="st80" d="M268.14,593.64c-1.01,1.37-1.1,2.97-1.17,4.58c-0.37,3.47-2.61,3.82-5.55,3.66
		c-4.2-0.23-8.43-0.06-12.65-0.08c-1.12-0.01-2.38,0.22-2.89-1.24c0.32-3.14,1.93-6.02,1.96-9.22c1.56,0.03,1.18,1.32,1.43,2.2
		c-0.44,6.2-0.44,6.2,5.85,6.2c0.57,0,1.15,0,1.72,0c6.69,0,6.69,0,8.89-6.16c0.11-0.26,0.24-0.52,0.38-0.76
		c0.42-0.74,0.88-1.8,1.81-1.41C268.81,591.77,268.42,592.83,268.14,593.64z"/>
	<path class="st81" d="M292.13,570.6c-0.17,0.74-0.34,1.48-0.51,2.22c-8.34,0.02-16.67,0.05-25.01,0.06
		c-10.98,0.01-21.95-0.02-32.93,0c-1.5,0-2.91,0.01-3.55-1.7c1.09-0.35,2.16-0.67,3.35-0.67
		C253.03,570.55,272.58,570.57,292.13,570.6z"/>
	<path class="st7" d="M93.04,566.41c-1.5,0.97-3.47,1.21-4.49,2.93c-3.3-1.78-6.88-0.92-10.35-1.08c-1.91-0.09-3.83,0.04-5.74-0.04
		c-0.88-0.04-2.33,0.56-2.52-0.56c-0.24-1.4,1.33-1.56,2.37-1.96c1.58-0.6,3.22-0.31,4.83-0.32c4.4-0.05,8.8-0.03,13.21-0.01
		C91.35,565.38,92.53,565.06,93.04,566.41z"/>
	<path class="st82" d="M77.59,577.98c-0.98,0.49-1.38,1.85-2.72,1.8c-12.39-0.02-24.77-0.04-37.16-0.06
		c-1.26-0.78-2.37-1.66-2.16-3.37c7.36,0.24,14.72,0.1,22.07,0.24c5.68,0.11,11.45-0.02,17.18-0.25
		C76.03,576.28,77.41,576.15,77.59,577.98z"/>
	<path class="st83" d="M44.79,589.68c-0.22-0.64-0.68-0.26-1.05-0.25c0.38-2.56,1.32-4.15,4.45-3.95c4.46,0.28,8.94,0.13,13.42,0.05
		c1.51-0.03,2.81,0.25,3.95,1.24c-0.39,1.17-1.15,1.95-2.36,2.26c-0.15,0.12-0.29,0.31-0.46,0.34
		C56.77,590.29,50.78,590.24,44.79,589.68z"/>
	<path class="st84" d="M587.89,568.32c-1.79,1.15-3.55-0.12-5.33-0.11c-18.37,0.07-36.74,0.04-55.11,0.05
		c-0.74,0-1.76-0.36-2.14,0.41c-0.69,1.37-1.25,0.77-1.83,0.06c-0.71-0.87-1.93-1.84-1.56-2.86c0.39-1.09,1.89-0.49,2.88-0.49
		c20.29-0.03,40.59,0.02,60.88-0.08c2.47-0.01,3.06,0.74,2.28,2.92C587.96,568.23,587.89,568.32,587.89,568.32z"/>
	<path class="st85" d="M174.04,573.97c-0.56-0.93-1.12-1.85-1.68-2.78c0.63-0.48,1.35-0.65,2.14-0.65
		c6.74,0.06,13.49,0.1,20.23,0.15c-0.01,1.24-0.22,2.41-1.08,3.37C187.11,573.49,180.58,573.7,174.04,573.97z"/>
	<path class="st86" d="M457.31,572.87c0.42,2.3-0.49,4.5-0.5,6.76c-0.28,0.45-0.55,0.89-0.91,1.47c-0.08-0.56-0.15-0.99-0.21-1.41
		c-0.46-0.51-0.55-1.11-0.48-1.76c0.53-1.88-0.1-2.99-2.13-3.04c-4.37-0.1-8.74-0.11-13.11,0.02c-0.84,0.03-1.75,0.17-1.96,1.27
		c-0.33,0.98-0.52,2-0.74,3c-0.16,0.6-0.41,1.16-0.69,1.72c-0.46,0.62-0.54,2-1.47,1.67c-1.21-0.42-0.88-1.85-0.96-2.92
		c0.36-3.57,0.33-3.62-3.14-3.65c-2.88-0.03-5.77,0.12-8.65-0.04c-2.55-0.15-3.58,0.96-4.05,3.36c-0.36,1.85-0.09,4.16-2.38,5.18
		c-0.72-0.57-0.77-1.39-0.83-2.2c-0.05-0.8,0.04-1.59,0.2-2.37c0.28-1.16,0.44-2.33,0.45-3.52c0.08-1.21-0.79-1.47-1.67-1.5
		c-4.6-0.14-9.2-0.17-13.8,0.01c-0.68,0.03-1.31,0.29-1.71,0.92c-0.2,0.23-0.44,0.38-0.72,0.47c-2.09-0.6-0.37-2.33-1.01-3.36
		c12.1-0.11,24.19-0.13,36.29,0.08C441.18,573.17,449.25,572.94,457.31,572.87z"/>
	<path class="st87" d="M580.43,597.14c-0.02,3.47,0.12,6.96-1.27,10.26c-0.47,0.07-1.16-0.03-1.39,0.24
		c-2.5,2.95-5.9,2.17-9.06,2.18c-14.31,0.05-28.63-0.02-42.94,0.05c-2.04,0.01-3.47-0.66-4.61-2.26c-0.28-0.4-0.73-0.73-0.42-1.22
		c1.22-1.95,0.56-4.13,0.82-6.19c0.11-0.86-0.02-1.78,1.15-2c0.99-0.95,0.07-2.5,1.08-3.45l-0.01,0.01c0.87-1.48,2.2-2.01,3.86-2.02
		c2.69-0.02,5.38-0.03,8.06-0.01c4.19,0.02,4.27,0.09,5.41,3.84c-0.01,5.13-0.01,5.13,5.04,5.13c3.24,0,6.48,0.01,9.72,0.02
		c5.15,0.01,5.15,0.01,6.6-4.62c0.52-0.9,0.85-1.87,1.24-2.82c0.31-0.76,0.85-1.43,1.64-1.46c4.7-0.2,9.45-1.09,14.08,0.31
		C581.69,593.8,581.05,595.56,580.43,597.14z"/>
	<path class="st88" d="M545.11,579.88c0.15,2.11-0.27,4.05-1.63,5.73c-0.39,0.29-0.79,0.6-1.27,0.64
		c-5.71,0.45-11.45-0.03-17.16,0.53c0.37-2.47-0.19-5.23,2.19-7.08c0.87-0.7,1.91-0.82,2.98-0.84c3.92-0.05,7.83-0.05,11.75,0.01
		C543.09,578.88,544.28,578.86,545.11,579.88z"/>
	<path class="st89" d="M541.13,596.58c-0.09-0.03-0.25-0.04-0.27-0.09c-1.05-3.82-4.16-2.78-6.77-2.85
		c-1.92-0.05-3.84,0.12-5.75-0.05c-1.71-0.15-3.12,0.47-4.56,1.17c-0.14-2,1.66-3.59,1.21-5.66c2.02-2.32,4.81-2.53,7.39-1.93
		c3.19,0.75,6.4,0.92,9.6,1.31c0.48,0.06,0.93,0.19,1.29,0.54c-0.01,0.56-0.01,1.12-0.02,1.68c-0.77,0.19-1.05,0.77-0.95,1.47
		C542.56,593.84,541.8,595.19,541.13,596.58z"/>
	<path class="st90" d="M545.11,579.88c-5.96-0.06-11.92-0.12-17.88-0.18c0.03-1.1,0.07-2.21,0.1-3.31c1.11-0.45,2.1-0.54,3.39-0.22
		c2.43,0.59,4.91-0.37,7.37-0.64c1.14-0.12,2.28-0.32,3.41-0.3c3.5,0.08,4.33,1.02,4.08,4.5
		C545.43,579.79,545.27,579.84,545.11,579.88z"/>
	<path class="st91" d="M543.28,589.04c-3.16-0.11-6.32,0.45-9.46-0.8c-2-0.79-4.36-0.84-6.39,0.18c-0.82,0.41-1.6,0.54-2.43,0.7
		c-0.61-0.79,0.09-1.56,0.04-2.34c4.17-2.12,8.65-0.93,12.98-1.2c1.81-0.11,3.64,0.01,5.46,0.03
		C543.41,586.75,543.35,587.9,543.28,589.04z"/>
	<path class="st89" d="M523.8,594.77c-0.36,1.15,0.93,2.82-1.09,3.45C523.01,597.04,521.93,595.44,523.8,594.77z"/>
	<path class="st0" d="M451.12,598.36c0.16,2.72-0.3,5.36-1.13,7.94c-2.07,1.87-3.98,3.64-7.22,3.61
		c-15.74-0.14-31.48-0.05-47.21-0.04c-4.79,0-5.05-0.04-4.35-4.7c0.35-2.33,0.37-4.97,2.14-6.94c1.64-4.34,2.43-4.72,7.48-4.75
		c2.83-0.02,5.72,0.68,8.51-0.61c1.11-0.52,1.84,0.28,2.01,1.38c0.17,1.05,0.35,2.08,0.95,2.98c0.78,3.68,0.78,3.68,4.73,3.68
		c3.65,0,7.3-0.11,10.95,0.04c2.24,0.1,3.72-0.51,4.24-2.81c0.53-0.69,0.83-1.5,1.24-2.26c1.34-2.46,3.05-3.81,6.22-3.36
		c2.6,0.36,5.33,0.07,8,0.23c3.93,0.23,4.25,0.58,3.71,4.5C451.33,597.64,451.33,598.02,451.12,598.36z"/>
	<path class="st92" d="M415.92,579.7c-0.07,0.88-0.14,1.75-0.21,2.63c-0.09,0.27-0.11,0.56-0.12,0.84
		c-0.23,4.04-0.23,3.99-4.19,3.42c-2.75-0.39-5.52-0.56-8.23,0.27c-0.75,0.23-1.5,0.26-2.26,0.08c-1.99-0.48-3.56,0.19-4.77,1.79
		c-0.11,0.1-0.22,0.19-0.34,0.28c-0.15,0-0.29,0.01-0.44,0.01c0.29-3.27-0.52-6.84,2.5-9.38c0.92-0.61,1.94-0.78,3.02-0.78
		c4.03-0.03,8.06-0.05,12.08,0.01C414,578.87,415.07,578.91,415.92,579.7z"/>
	<path class="st93" d="M411.81,597.15c-1.54-0.33-1.02-1.58-1.12-2.54c-0.09-0.8-0.26-1.89-1.25-1.1c-2.75,2.18-5.74,0.5-8.59,0.69
		c-1.81,0.12-3.52,0.71-5.34,0.68c-0.86-0.01-0.95,0.77-0.98,1.47c-0.03,0.86,0.06,1.79-1.19,1.89c0.08-1.99-0.24-4.07,1.26-5.75
		c0.94-0.97,0.07-2.48,1.03-3.45l0.06-0.06c3.06-1.34,6.35-1.12,9.56-1.23c1.37-0.05,2.84,0.38,4.28,0.44
		c2.11,0.08,3.18,1.11,3.12,3.26c-0.04,1.44,0.06,2.89-0.07,4.33C412.48,596.32,412.27,596.8,411.81,597.15z"/>
	<path class="st82" d="M415.92,579.7c-6.02,0.25-12.05,0.36-18.07-0.06c0-1.11,0-2.22,0-3.33c0,0,0.14-0.02,0.14-0.02
		c0.59-0.53,1.31-0.8,2.09-0.82c4.76-0.15,9.53-0.16,14.29,0.01c0.77,0.03,1.51,0.23,2.06,0.86
		C416.32,577.46,416.81,578.68,415.92,579.7z"/>
	<path class="st94" d="M395.63,589.03c-0.23,1.18,0.85,2.76-1.03,3.45c0.15-1.18-0.63-2.55,0.75-3.46
		C395.35,589.02,395.63,589.03,395.63,589.03z"/>
	<path class="st95" d="M230.04,586.17c0.38-2.11,0.77-4.22,1.15-6.33c0.08-0.24,0.16-0.48,0.24-0.72
		c5.64-0.51,11.28-0.21,16.92-0.15c0.68,0.01,1.32,0.22,1.83,0.72c-0.05,1.27-0.1,2.55-0.15,3.82c-0.46,4.06-0.54,3.96-4.57,3.27
		c-4.36-0.75-8.78-0.58-13.18-0.07C231.51,586.8,230.42,587.85,230.04,586.17z"/>
	<path class="st96" d="M250.19,579.69c-5.55,0.05-11.11,0.1-16.66,0.14c-0.76,0-1.55,0-2.09-0.71c0.13-0.77,0.25-1.53,0.38-2.29
		c0.81-1.4,2.21-1.36,3.54-1.39c3.73-0.07,7.46,0.01,11.19-0.05c3.98-0.06,4.24,0.24,3.78,4.23L250.19,579.69z"/>
	<path class="st97" d="M230.04,586.17c4.23-0.89,8.52-0.59,12.8-0.59c0.94,0,2.03-0.07,2.8,0.36c2.89,1.6,3.87,0.07,4.41-2.42
		c0.03,0.32,0.05,0.63,0.08,0.94c0.24,0.99,0.13,1.97-0.09,2.95c-0.42,1.17-1.01,2.19-2.2,2.75c-2.46-1.07-4.79-1.74-7.72-1.56
		c-3.49,0.21-7.04,0.62-10.58,0.46C229.6,588.07,229.1,587,230.04,586.17z"/>
	<path class="st98" d="M268.52,584.92c-0.21-3.4,1.38-6.53,1.42-9.89c0.68-0.33,1.35-0.92,2.03-0.93
		c5.74-0.08,11.48-0.06,17.22-0.07c1.62,0,1.36,1.27,1.55,2.24c-0.36,1.19,0.42,2.62-0.76,3.64c-0.32,0.1-0.56,0-0.71-0.3
		c-0.13-1.73-1.02-2.5-2.81-2.5c-3.65,0-7.31,0.17-10.95-0.16c-2.21-0.2-2.87,1.57-3.87,2.93c-1.21,1.63-1.15,3.73-2.04,5.48
		C268.95,585.93,268.59,585.79,268.52,584.92z"/>
	<path class="st99" d="M250.32,579.62c0.21-2.75-0.69-3.78-3.76-3.42c-3.76,0.44-7.6,0.12-11.41,0.11c-1.14,0-2.29-0.06-3.34,0.52
		c0.05-2.03,1.22-2.83,3.12-2.82c3.92,0,7.84-0.01,11.76-0.01C251.65,574.02,252.1,574.72,250.32,579.62z"/>
	<path class="st87" d="M134.67,606.34c0.06-2.83,1.18-5.42,1.83-8.12c0.74-0.37,0.52-1.08,0.61-1.68c0.92-2.71,2.78-3.84,5.66-3.77
		c2.08,0.04,4.17-0.44,6.28-0.43c2.5,0.01,4.71,0.64,6.47,2.52c0.05,4.68-1.59,8.92-3.17,13.23c-0.63,1.73-1.66,1.77-3.04,1.77
		c-3.72-0.02-7.46-0.19-11.16,0.06C135.29,610.09,134.35,608.97,134.67,606.34z"/>
	<path class="st100" d="M95.31,605.14c-0.09-2.76,1.5-5.19,1.5-7.93c1.79,0.68,0.55-0.95,0.98-1.3c0.57-2.72,2.46-3.35,4.92-3.17
		c2.96,0.22,5.93-0.43,8.89-0.06c3.97,0.49,4.69,1.63,3.62,5.57c0.08,3.52-0.32,6.93-2.45,9.89c-0.97,1.35-2.31,1.76-3.98,1.71
		c-3.53-0.11-7.08-0.01-10.61-0.04c-3.2-0.02-3.43-0.36-2.77-3.54C95.48,605.92,95.34,605.52,95.31,605.14z"/>
	<path class="st101" d="M115.22,598.26c-0.21-4.35-1.36-5.44-5.74-4.87c-1.91,0.25-3.8,0.3-5.68,0.2c-2.42-0.12-4.63-0.06-6.01,2.33
		c0.06-2.72,0.81-5.22,2.37-7.46c1.06-1.42,2.62-1.52,4.16-1.45c5.24,0.22,10.53-0.7,15.73,0.81c1.42,0.41,2.8-0.61,4.22-0.65
		c4.67-0.12,9.37-0.78,13.98,0.66c1.77,0.55,3.63,0.39,5.4-0.09c2.82-0.78,5.68-0.74,8.56-0.76c1.85-0.01,3.38,0.47,4.48,2.03
		c0.01,0.78,0.03,1.57,0.04,2.35c0.33,1.42-0.9,2.3-1.21,3.5c-4.49-2.49-9.28-1.32-14.01-1.31c-2.46,0.01-2.71,2.37-4.4,3
		c-0.06-5.25-0.06-5.25-5.47-5.22c-3.64,0.02-7.29,0-10.93,0.01c-4.03,0.01-4.27,0.22-4.45,4.15
		C116.21,596.51,116.38,597.63,115.22,598.26z"/>
	<path class="st102" d="M462.51,603.99c0.37-2.8,0.78-5.59,1.89-8.22c0.5-0.17,0.41-0.65,0.53-1.01c0.88-1.57,2.34-2.22,4.02-2.37
		c2.66-0.24,5.3-0.67,7.97-0.76c5.43-0.18,6.71,1.48,5.35,6.74c-0.36,2.73,0.82,3.52,3.54,3.48c8.02-0.12,16.05,0.07,24.07,0.13
		c0.54,0.65,0.49,1.61,1.17,2.18c0,0.7,0.01,1.41,0.01,2.11c-1.9,2.47-4.04,3.74-7.52,3.65c-12.2-0.3-24.41-0.13-36.61-0.12
		c-4.27,0-4.27,0.01-4.33-4.37C462.59,604.95,462.54,604.47,462.51,603.99z"/>
	<path class="st103" d="M381.94,579.87c0.89,2.55,0.14,4.78-1.29,6.89c-3.48-0.37-6.97-0.37-10.46-0.39
		c-6.16-0.03-12.28,0.39-18.35,1.46c0.1-2.33,1.81-3.65,3.21-5.17c0.71-0.77,1.41-1.55,2.12-2.33c0.37-0.28,0.74-0.56,1.11-0.84
		c1.25-0.53,2.57-0.67,3.92-0.67c5.25,0.01,10.49-0.02,15.74,0.02C379.33,578.86,380.84,578.64,381.94,579.87z"/>
	<path class="st104" d="M381.94,579.87c-7.89-0.24-15.79,0.4-23.67-0.37c2.18-2.84,4.82-4.56,8.63-4.36
		c3.91,0.21,7.85,0.05,11.77,0.05c4.42,0,4.42,0.01,4.22,4.51C382.57,579.76,382.26,579.82,381.94,579.87z"/>
	<path class="st105" d="M159.51,579.58c-0.2,0.09-0.39,0.17-0.59,0.26c-0.41,0.43-0.93,0.7-1.51,0.73
		c-5.02,0.27-10.05,0.26-15.07,0.01c-0.68-0.03-1.28-0.34-1.74-0.87c-0.01-0.39-0.02-0.79-0.02-1.18c0.18-2.1,1.77-2.67,3.41-2.72
		c4.18-0.13,8.37-0.11,12.56-0.03C158.96,575.82,159.92,577.23,159.51,579.58z"/>
	<path class="st106" d="M325.87,605.25c-0.64-1.53-1.87-2.84-1.77-4.66c-0.47-0.96-0.63-2.01-0.74-3.04
		c-0.32-3.01,1.3-4.75,4.34-4.59c1.63,0.09,3.26,0.21,4.85-0.13c3.28-0.7,5.34,1.44,7.64,3.07c1.16,0,2.33-0.01,3.49-0.01
		c0.31-0.22,0.79-0.31,0.97-0.56c3.11-4.32,7.31-2.27,11.2-1.94c0.65,0.06,1.28,0.32,1.96,0.23c0.81-0.12,1.74-0.65,2.33,0.33
		c0.55,0.93,0.24,1.84-0.42,2.63c-0.43,0.52-0.47,1.25-1,1.71c-1.58,2.82-4.36,4.55-6.33,7.02c-1.71,2.58-3.41,4.86-7.17,4.57
		c-4.08-0.32-8.21-0.31-12.29,0C329.17,610.17,327.14,608.44,325.87,605.25z"/>
	<path class="st107" d="M340.19,595.91c-0.86,0.06-1.75,0.17-2.34-0.68c-1.15-1.65-2.83-1.74-4.59-1.58
		c-2.05,0.19-4.05,0.58-6.17,0.07c-1.74-0.41-2.91,0.66-2.97,2.57c-0.04,1.43-0.02,2.86-0.02,4.3c-1.04-1.36-1.93-2.82-2.28-4.49
		c-0.2-0.96-0.84-1.82-1.46-1.89c-1.08-0.13-0.91,1.21-1.26,1.9c-0.42,0.84-0.64,1.77-0.95,2.66c-1.47-0.04-1.56-1.22-1.72-2.22
		c-0.23-1.52-1.1-2.11-2.55-2.1c-1.34,0.01-2.67,0.04-4.01-0.02c-1.91-0.08-3.26,0.72-4.28,2.32c-0.49,0.76-0.68,2.19-2.22,1.5
		c0.02-1.21,0.04-2.43,0.07-3.64c1.11-1.7,2.7-3.2,2.3-5.53c0.97-1,2.24-0.98,3.48-0.99c7.66-0.04,15.31-0.03,22.97,0
		c1.25,0,2.5,0.05,3.53,0.92c2.09,0.46,0.53,2.69,1.86,3.74C338.58,593.55,339.97,594.33,340.19,595.91z"/>
	<path class="st108" d="M358.72,598.29c-0.68-1.59,1.62-2.59,0.81-4.5c-1.39,1.32-2.76,1.02-4.17,0.21
		c-0.87-0.51-1.96-0.01-2.76-0.23c-3.1-0.84-5.58-0.02-7.81,2.13c-0.19,0.19-0.74,0.01-1.12,0c1.16-1.87,2.55-3.74,4.58-4.43
		c1.46-0.5,0.75-2.53,2.38-2.44c2.32-1.7,4.71-1.67,7.56-1.22c5.31,0.83,10.74,0.2,16.13,0.3c1.25,0.02,2.51-0.1,3.74,0.2
		c0.92,0.22,2,0.44,1.46,1.85c0.01,1.36,0.01,2.73,0.02,4.09c-0.07,1.44-0.29,2.83-1.17,4.03c-0.15-0.12-0.37-0.27-0.37-0.42
		c0.2-3.75-2.36-3.53-4.87-3.42c-1.15,0.05-2.3,0.07-3.45,0c-2.49-0.15-4.4,0.28-4.39,3.42c0,0.81-0.25,2.08-1.75,1.53
		c-0.16-1.48,1.54-3.51-0.29-4.32c-1.43-0.63-2.33,1.47-3.37,2.49C359.56,597.88,359.11,598.05,358.72,598.29z"/>
	<path class="st109" d="M305.7,587.88c0.18-1.94,0.36-3.89,0.54-5.83c0.13-0.95,0.46-1.81,1.17-2.48c0.49-0.3,1.01-0.58,1.59-0.59
		c7.7-0.08,15.4-0.39,23.09,0.14c0.42,0.58,0.84,1.15,1.25,1.73c0.17,1.65,1.54,3.02,1.16,4.81c-1.11,1-2.5,0.81-3.81,0.82
		c-5.43,0.04-10.87,0.07-16.3-0.01C311.39,586.42,308.45,586.48,305.7,587.88z"/>
	<path class="st110" d="M305.7,587.88c1.46-2.7,3.97-2.37,6.45-2.34c7.45,0.08,14.9,0.08,22.35,0.11c0.84,0.96,1.37,2.03,1.2,3.35
		c-9.99,0.02-19.99,0.05-29.98,0.07C305.72,588.67,305.71,588.28,305.7,587.88z"/>
	<path class="st111" d="M379.52,590.16c-0.31-1.56-1.57-1.12-2.53-1.13c-5.26-0.03-10.52,0.03-15.78-0.02
		c-1.85-0.02-3.7,0.3-5.49-0.92c-1.75-1.19-3.21,1.41-5.08,0.94c0.04-0.76,0.46-1.13,1.2-1.19c2.45-1.68,5.24-1.32,7.98-1.73
		c5.47-0.82,10.88-0.14,16.29-0.56c1.7-0.13,3.17,0.29,4.55,1.22C380.38,587.93,381.44,589.54,379.52,590.16z"/>
	<path class="st77" d="M363.54,599.39c1.44-0.54,1.22-1.67,1.07-2.83c-0.24-1.94,0.77-2.86,2.62-2.9c2.1-0.05,4.2-0.02,6.3-0.02
		c4.79,0,4.79,0,4.84,4.64c-0.38,3.43-1.6,6.75-1.26,10.27c-4.07,1.86-8.4,1.15-12.65,1.31c-1.76,0.07-2.21-0.66-2.37-2.36
		C361.81,604.61,363.6,602.18,363.54,599.39z"/>
	<path class="st112" d="M467.31,586.79c-1.65-2.18,0.47-4.33,0.03-6.5c0.22-0.22,0.45-0.43,0.67-0.64c0.69-0.6,1.54-0.74,2.41-0.75
		c4.39-0.08,8.79-0.08,13.18,0c0.95,0.02,1.92,0.11,2.64,0.89c0.19,2.87-0.8,5.48-1.73,8.11c-4.1,0.87-8.13-0.73-12.23-0.33
		C470.62,587.72,468.82,587.97,467.31,586.79z"/>
	<path class="st113" d="M486.24,579.78c-6.08,0.06-12.16,0.27-18.23-0.13c0.81-4.32,0.94-4.43,5.05-4.44c3.15,0,6.29-0.04,9.44,0.01
		c3.5,0.05,4.32,0.91,4.35,4.36C486.64,579.65,486.44,579.71,486.24,579.78z"/>
	<path class="st114" d="M580.43,597.14c0.29-2.53-0.45-3.93-3.38-3.57c-1.26,0.15-2.64-0.23-3.9-0.59c-1.2-0.35-2.26-0.37-3.19,0.48
		c-0.94,0.86-1.83,0.74-2.86,0.19c-1.51-0.8-2.67-0.47-2.82,1.37c-0.1,1.19-1.55,1.53-1.42,2.74c-0.08-0.04-0.22-0.05-0.24-0.11
		c-0.07-0.17-0.09-0.37-0.13-0.55c0.01-1.16,0.03-2.31,0.04-3.47c0.61-1.04,1.66-1.7,2.02-3.03c0.24-0.9,1.23-1.6,2.48-1.59
		c4.32,0.04,8.64,0.01,12.96-0.01c0.85,0,1.51,0.22,1.69,1.17C581.04,592.46,582.56,595.13,580.43,597.14z"/>
	<path class="st115" d="M172.82,586.74c-1.39-1.57,0.4-3.18-0.04-4.76c0.13-0.91,0.38-1.77,1.13-2.4c1.01-0.65,2.14-0.75,3.29-0.75
		c3.81-0.02,7.62-0.05,11.42,0.02c1.22,0.02,2.51-0.07,3.41,1.05c0.33,2.91-0.36,5.58-1.92,8.05c-4.46-1.45-8.99-0.06-13.48-0.36
		C175.32,587.5,173.95,587.68,172.82,586.74z"/>
	<path class="st116" d="M172.82,586.74c4.17-0.22,8.39,0.43,12.52-0.6c2.01-0.5,3.39,0.66,4.77,1.81c0.55,2.58-1.81,4.75-1.01,7.36
		c-0.09,0.59-0.19,1.18-0.28,1.77c-1.67,0.39-1.52-0.99-1.73-1.88c-0.25-1.05-0.69-1.78-1.85-1.82c-2.39-0.09-4.72-0.74-7.13-0.64
		c-2.37,0.1-4.59,0.37-5.91,2.74c-0.34,0.6-0.9,1.03-1.65,0.47c-0.58-2.11,1.1-3.79,1.1-5.8
		C171.97,588.99,173.27,588.17,172.82,586.74z"/>
	<path class="st117" d="M192.04,579.9c-6.04-0.25-12.09,0.3-18.13-0.31c0.04-1.09,0.08-2.17,0.12-3.26
		c0.82-1.49,2.13-2.05,3.78-2.07c3.99-0.04,7.98-0.12,11.96,0.04c1.27,0.05,3.08-0.22,2.84,2.08
		C192.42,577.56,192.96,578.85,192.04,579.9z"/>
	<path class="st118" d="M192.6,576.39c-0.28-1.28-1.28-1.2-2.25-1.2c-4.4,0.01-8.8,0.08-13.2-0.04c-1.31-0.04-2.02,0.98-3.12,1.18
		c0-0.79,0.01-1.57,0.01-2.36c0.09-0.04,0.17-0.08,0.26-0.13c2.63-1.54,17.04-1.38,19.35,0.22c0,1.73,0,3.45,0,5.53
		C192.55,578.44,193.51,577.16,192.6,576.39z"/>
	<path class="st119" d="M170.55,595.94c4.18-6.74,10.56-3.13,16.11-3.4c1.22-0.06,1.11,1.01,1.23,1.87c0.13,0.94-0.56,2.2,0.94,2.67
		c-1.3,4.77-1.3,4.76,3.93,4.76c6.52-0.01,13.04-0.01,19.56-0.01c4.44,0,4.44,0.01,4.4,4.48c-1.15,2.27-2.72,3.56-5.53,3.54
		c-13.4-0.1-26.81-0.03-40.21-0.04c-0.93,0-1.94,0.24-2.7-0.58c-2.12-2.62,0.24-4.97,0.55-7.42
		C169.08,599.81,169.95,597.89,170.55,595.94z"/>
	<path class="st120" d="M140.6,579.71c6.11,0.04,12.21,0.09,18.32,0.13c0.23,2.58-0.79,4.96-1.23,7.43
		c-17.62-1.75-35.28-0.34-52.92-0.77c-1.69-0.04-3.18,0.59-4.65,1.29c-0.99,0.5-1.13,0.12-0.95-0.83c0.39-2.06,0.7-4.13,1.04-6.19
		c-0.01-0.75,0.52-0.99,1.09-1.21c0.91-0.63,1.96-0.69,3.02-0.69c4.1-0.02,8.2-0.04,12.31,0.01c1.05,0.01,2.11,0.01,2.99,0.74
		c0,0,0.05,0.19,0.05,0.19c-0.5,4.08-0.5,4.08,3.62,4.08c3.54,0,7.1-0.24,10.62,0.07C137.42,584.26,139.83,583.43,140.6,579.71z"/>
	<path class="st113" d="M119.61,579.61c-6.11,0.39-12.21,0.46-18.32-0.05c-0.14-1.54,0.02-3.06,1.94-3.15
		c4.53-0.21,9.06-0.27,13.59-0.33C119.22,576.04,120.25,577.2,119.61,579.61z"/>
	<path class="st90" d="M332.1,579.11c-0.52,0.45-1.1,0.77-1.81,0.75c-7.62-0.17-15.26,0.39-22.88-0.31
		c0.21-1.07,0.41-2.14,0.61-3.21c1.02-0.88,2.27-0.96,3.53-0.96c5.29-0.02,10.58-0.02,15.86,0c1.26,0.01,2.51,0.09,3.53,0.97
		C331.34,577.27,331.72,578.19,332.1,579.11z"/>
	<path class="st121" d="M330.96,576.36c-7.64,0-15.29,0-22.93-0.01c0.35-1.86,1.63-2.33,3.32-2.33c5.42,0.03,10.85,0.02,16.27,0.01
		C329.29,574.03,330.61,574.49,330.96,576.36z"/>
	<path class="st122" d="M467.31,586.79c5.76-0.1,11.54-0.4,17.2,1.09c-2.09,2.42-0.63,5.34-1.13,7.98c-0.11,0.95-0.39,1.82-1.1,2.5
		c-0.01-1.04-0.01-2.09-0.04-3.13c-0.05-1.57-0.99-2.7-2.41-2.67c-5.04,0.13-10.19-0.27-14.89,2.19
		C465.15,591.93,466.95,589.58,467.31,586.79z"/>
	<path class="st21" d="M511.05,604.16c-1.87,0.07-1.09-1.28-1.17-2.18C512.22,601.66,511.17,603.16,511.05,604.16z"/>
	<path class="st76" d="M303.36,598.24c0.18-0.05,0.46-0.05,0.53-0.17c0.97-1.58,1.53-3.86,3.44-4.2c2.68-0.47,5.5-0.22,8.26-0.18
		c1.19,0.02,1.54,0.91,1.58,1.99c0.04,1.11-0.29,2.35,0.96,3.08c0.12,1.63-1.35,2.97-0.85,4.67c0.16,5.13-2.54,6.96-7.02,6.47
		c-2.08-0.23-4.2-0.02-6.31-0.05c-2.94-0.03-3.49-0.63-2.82-3.66C301.72,603.52,302.6,600.9,303.36,598.24z"/>
	<path class="st123" d="M44.79,589.68c6.1-1.22,12.27-0.45,18.4-0.65c-0.02,2.4-0.04,4.81-0.05,7.21c-1.63,1.49-1.1,3.85-2.23,5.54
		c-1.28-1.36-0.77-3.06-0.84-4.63c-0.14-3.04-0.24-3.23-3.08-2.59c-2.12,0.48-4.17-0.15-6.25-0.11c-2.3,0.05-4.38,0.29-5.53,2.67
		c-0.3,0.63-0.83,1.08-1.61,0.57C43,594.87,45.24,592.47,44.79,589.68z"/>
	<path class="st124" d="M43.6,597.69c1.9-0.13,0.67-2.35,2.31-3.15c2.56-1.24,5.07-0.97,7.55-0.76c1.57,0.13,2.98,0.2,4.42-0.37
		c2.31-0.92,3.16-0.05,3.02,2.34c-0.12,2-0.01,4.02,0,6.03c-0.04,1.55-0.08,3.1-0.12,4.65c-1.11,2.35-2.79,3.55-5.56,3.42
		c-3.81-0.18-7.63-0.01-11.45-0.04c-0.99-0.01-2.2,0.29-2.57-1.16C41.58,604.89,42.02,601.16,43.6,597.69z"/>
	<path class="st125" d="M100.12,587.78c0.63-1.86,2.04-2.25,3.83-2.25c16.64,0.04,33.28,0.07,49.92-0.05
		c1.78-0.01,2.68,0.93,3.83,1.78c-0.34,0.58-0.67,1.16-1.01,1.73c-0.22,0.18-0.62,0.54-0.63,0.53c-3.06-3.38-6.9-1.54-10.32-1.26
		c-3.28,0.27-6.29,0.56-9.71-0.08c-4.44-0.83-9.32-1.18-13.88,0.49c-0.94,0.34-1.89,0.47-2.81,0.19c-6.36-1.9-12.76-1.09-19.17-0.42
		C100.15,588.23,100.13,588.01,100.12,587.78z"/>
	<path class="st126" d="M436.11,580.35c0.22-0.42,0.43-0.84,0.65-1.26c5.51-0.47,11.02-0.21,16.52-0.09
		c0.67,0.01,1.31,0.26,1.75,0.83c0.24,2.82-0.53,5.44-1.65,7.98c-5.77-2.49-11.72-1.09-17.62-0.85c-1.17-0.88-1.32-2.22-0.7-3.24
		C435.73,582.63,435.55,581.4,436.11,580.35z"/>
	<path class="st127" d="M451.12,598.36c-0.01-0.48-0.09-0.97-0.02-1.43c0.41-2.64-0.72-3.26-3.31-3.4
		c-3.38-0.19-6.75,0.37-10.15-0.32c-2.48-0.5-2.57,2.36-3.76,3.66c-0.38,0.42-0.28,1.29-1.15,1.38c-1.93-2.13,0.09-3.85,0.59-5.73
		c1.1-1.26,0.52-3.53,2.53-4.25c5.15-1.35,10.32-1.41,15.43,0.1c1.86,0.55,1.74,2.04,1.03,3.52c0.03,0.59,0.05,1.18,0.08,1.77
		C452.18,595.28,452.16,596.96,451.12,598.36z"/>
	<path class="st128" d="M455.04,579.83c-5.03,0.01-10.05,0.04-15.08,0.04c-1.12,0-2.31,0.2-3.2-0.77c-0.21-0.99,0.01-1.91,0.5-2.78
		c0.75-0.71,1.69-0.88,2.66-0.89c4.41-0.07,8.81-0.14,13.22,0.04c1.49,0.06,3.33,0.12,2.62,2.57c-0.02,0.56-0.04,1.11-0.06,1.67
		C455.47,579.74,455.26,579.78,455.04,579.83z"/>
	<path class="st129" d="M452.31,591.89c0.37-2.21-0.84-3.25-2.79-3.25c-2.58,0-5.19-1.65-7.77,0.08c-0.24,0.16-0.83,0.14-1.07-0.05
		c-1.69-1.35-3.17-0.4-4.68,0.33c-0.53-0.77-0.63-1.52,0.06-2.26c3.83-1.95,7.95-0.85,11.94-1.16c2.14-0.17,4.02,0.45,5.39,2.23
		C453.18,589.21,453.95,590.87,452.31,591.89z"/>
	<path class="st130" d="M289.55,579.62c0.15,0.08,0.3,0.18,0.44,0.29c-0.92,0.98-0.38,2.2-0.54,3.31c-0.8,0.81-0.82,1.96-1.28,2.93
		c-3.76,0.75-7.55,0.08-11.33,0.27c-2.17,0.11-4.26,0.07-6.37,1.1c-2.03,0.99-1.84-0.57-1.36-1.9c0.25-2.16,0.52-4.31,2.02-6.05
		C277.27,578.44,283.41,578.33,289.55,579.62z"/>
	<path class="st131" d="M269.11,585.6c0.09,0.55,0.18,1.11,0.22,1.32c6.23-2.43,12.55-1.46,18.85-0.78c-0.54,1.29-1.19,2.54-1.17,4
		c-1.26-0.98-2.68-1.11-4.24-1.17c-3.2-0.13-6.44,0.59-9.63-0.76c-1.82-0.77-4.32,1.49-4.44,3.57c-0.04,0.66,0.04,1.35-0.54,1.86
		c-0.07-0.62-0.14-1.25-0.21-1.88c-1.2,0.1-0.66,1.37-1.39,1.69c0.08-2.98,1.62-5.62,1.97-8.53
		C268.72,585.15,268.91,585.38,269.11,585.6z"/>
	<path class="st95" d="M247.83,590.15c0.48-1.12,1.27-1.99,2.2-2.75c-0.43,1.99-0.85,3.97-1.27,5.95c-0.52-0.58,0.04-1.63-0.91-2.02
		C247.84,590.94,247.84,590.54,247.83,590.15z"/>
	<path class="st94" d="M415.78,584.41c0.3,1.68-0.31,3.16-1.03,4.62c-0.53,1.57-0.92,3.17-1.21,4.81c-0.18,1-0.27,2.09-1.68,2.13
		c0-0.48,0-0.96,0-1.44c0-5.09-0.04-4.86-5.13-5.58c-3.73-0.52-7.37,0.61-11.04,0.03c-0.34-3.1,2.66-3.25,3.94-3.08
		c1.72,0.22,3.16-0.02,4.8-0.21c2.43-0.28,5.01-0.59,7.4,0.22c2.11,0.71,3.16,0.24,3.39-2c0.06-0.54,0.32-1.06,0.49-1.59
		C415.73,583.02,415.76,583.71,415.78,584.41z"/>
	<path class="st132" d="M455.75,578.03c0.02-1.88-1.31-1.72-2.56-1.72c-5.31,0.01-10.62,0-15.93,0c-0.28-1.78,0.54-2.34,2.26-2.31
		c4.58,0.07,9.16-0.01,13.74,0.02C456.14,574.05,456.73,575.03,455.75,578.03z"/>
	<path class="st133" d="M416.43,576.33c-6.15-0.01-12.29-0.03-18.44-0.04c-0.26-1.79,0.59-2.32,2.29-2.29
		c4.67,0.08,9.35,0.03,14.02,0.03C415.84,574.03,417.23,574.16,416.43,576.33z"/>
	<path class="st134" d="M432.64,591.36c0.82-3.83,0.88-7.81,2.25-11.52c0.06,0.72,0.13,1.43,0.19,2.15
		c0.34-0.54,0.68-1.09,1.03-1.64c0.42,2.13-1.52,4.25-0.05,6.39c-0.02,0.75-0.04,1.51-0.06,2.26c-1.01,0.12-1.07,0.86-1.08,1.64
		c-0.01,0.85,0.03,1.72-1.09,1.96C432.78,592.82,432.94,591.87,432.64,591.36z"/>
	<path class="st135" d="M432.64,591.36c0.4,0.41,0.8,0.82,1.2,1.23c0.04,1.96-1.85,3.55-1.11,5.65c0.04,2.75-1.48,3.59-4.03,3.52
		c-4.1-0.1-8.2-0.02-12.3-0.02c-4.67,0-4.67,0-4.59-4.6c0.02-0.4,0.04-0.79,0.05-1.19c1.63-2.03,0.85-5.07,2.88-6.93
		c0.07,3-0.55,5.91-1.13,8.83c-0.38,1.93,0.18,2.79,2.34,2.71c4.03-0.15,8.07-0.11,12.1-0.01c1.82,0.05,2.49-0.66,2.79-2.42
		C431.24,595.84,432.02,593.62,432.64,591.36z"/>
	<path class="st136" d="M289.55,579.62c-6.14,0.35-12.28,0.54-18.42-0.06c0.86-3.05,2.73-3.81,5.88-3.37
		c3.36,0.47,6.84,0.16,10.27,0.1C289.84,576.24,290.63,577.26,289.55,579.62z"/>
</g>
</svg>
