<?xml version="1.0" encoding="utf-8"?>
<!-- Generator: Adobe Illustrator 25.4.1, SVG Export Plug-In . SVG Version: 6.00 Build 0)  -->
<svg version="1.1" id="Capa_1" xmlns="http://www.w3.org/2000/svg" xmlns:xlink="http://www.w3.org/1999/xlink" x="0px" y="0px"
	 viewBox="0 0 595.3 841.9" style="enable-background:new 0 0 595.3 841.9;" xml:space="preserve">
<style type="text/css">
	.st0{fill:#141517;}
	.st1{fill:#2A282E;}
	.st2{fill:#0B0C0C;}
	.st3{fill:#212021;}
	.st4{fill:#373742;}
	.st5{fill:#2F2C2B;}
	.st6{fill:#4F4C50;}
	.st7{fill:#232122;}
	.st8{fill:#272427;}
	.st9{fill:#353235;}
	.st10{fill:#0D0C0D;}
	.st11{fill:#222223;}
	.st12{fill:#48474A;}
	.st13{fill:#3E3C40;}
	.st14{fill:#37373A;}
	.st15{fill:#3E3D3D;}
	.st16{fill:#565656;}
	.st17{fill:#302F33;}
	.st18{fill:#5B5759;}
	.st19{fill:#5D5C5D;}
	.st20{fill:#323031;}
	.st21{fill:#676469;}
	.st22{fill:#5D5D5D;}
	.st23{fill:#373636;}
	.st24{fill:#989899;}
	.st25{fill:#B9BBBE;}
	.st26{fill:#2C2B2D;}
	.st27{fill:#2A2A2A;}
	.st28{fill:#3D3A3D;}
	.st29{fill:#3E3B3E;}
	.st30{fill:#252326;}
	.st31{fill:#242225;}
	.st32{fill:#2B2A2C;}
	.st33{fill:#434142;}
	.st34{fill:#373437;}
	.st35{fill:#616068;}
	.st36{fill:#3C393D;}
	.st37{fill:#50515B;}
	.st38{fill:#585758;}
	.st39{fill:#6D6C74;}
	.st40{fill:#373637;}
	.st41{fill:#3C3B3B;}
	.st42{fill:#555455;}
	.st43{fill:#5C5B5D;}
	.st44{fill:#7C7A7B;}
	.st45{fill:#4A494B;}
	.st46{fill:#838182;}
	.st47{fill:#424243;}
	.st48{fill:#504D50;}
	.st49{fill:#383739;}
	.st50{fill:#939192;}
	.st51{fill:#737375;}
	.st52{fill:#969598;}
	.st53{fill:#858384;}
	.st54{fill:#858585;}
	.st55{fill:#ACA9AB;}
	.st56{fill:#777577;}
	.st57{fill:#6C6B6B;}
	.st58{fill:#5E5E60;}
	.st59{fill:#54535D;}
	.st60{fill:#A3A0A3;}
	.st61{fill:#6C6B6C;}
	.st62{fill:#5B5A63;}
	.st63{fill:#8C8B92;}
	.st64{fill:#9F9C9E;}
	.st65{fill:#8F8C8E;}
	.st66{fill:#484751;}
	.st67{fill:#42414A;}
	.st68{fill:#494850;}
	.st69{fill:#2C2C2E;}
</style>
<path class="st0" d="M78.2,376.2c-0.9-2.1-2.5-3.9-2.4-6.4c-0.4-3.3-0.5-6.5,0.1-9.8l0,0c2.8,2.9,6.6,3.2,10.3,3.9
	c0.7,0.1,1.6,1,2.1,0.5c3.9-3.5,5.2,1,7.4,2.2c0-1.4,0.8-2.6,2.5-2.5c1.6,0.2,1.8,1.8,1.5,2.9c-0.8,3.3,1.1,3.5,3.6,4.4
	c2.6,1,5.8,1.9,7,5.1c0.3,0.7,0.6,1.6,1.3,1.7c4.7,0.7,7.9,5,12.9,4.8c2.8-0.1,5.2,2,7.9,2.7c5.9,1.6,11.9,2.7,18,1.8
	c1.3-0.2,2.7-0.7,4-0.1c1.9,0.9,3.4,0.8,5.1-0.5c2-1.6,4.5,0.6,6.9-0.6c4.5-2.3,10-1.6,14.6-3.9c0.3-0.2,0.7-0.3,1-0.4
	c10.8-1.2,19.1-8.4,29.2-11.4c-2.1,0.8-4.2,1.7-6.5,2.1c-2.7-0.8-4.1,1-5.5,2.8c-1.5,1.1-3.2,1.6-5.1,1.6c-2.8,0-5.7,0-7.9,2.2
	c-2.6,1.4-5.3,2-8.2,1.7c-2.3-0.7-4.8-3.2-6.5,0.8c-1.2,1.8-2.5,1.7-3.7,0.1c-2.3-1.7-4.6-2.2-6.9,0.1c-1.8,1.2-3.5,0.3-5.2-0.3
	c-1.3-1.4-3-1.8-4.7-2.4c-1.4-0.4-2.8-0.6-3.6-2.1c0.7-3.5,0.7-3.4,3.7-1.8c2.3,1.2,4.8,1.2,7.3,1c0.3-0.1,0.7-0.1,1-0.1
	c1.6,0.6,3.2,0.8,4.8,0.3c5.3-0.4,10.4-1.5,15.7-1.8c2-0.1,4.3-1.4,6.5-2.3c6-2.3,12-3.9,18.4-4.7c3.7-0.5,5.8-3.1,5.9-7
	c0.7-4.2,3.7-6.9,6.7-9.2c3.3-2.5,7.1-4.3,10-7.4c1.5-1.5,4-1.6,5.8-2.9c4-2.8,8.2-5.8,12.7-7.4c9.3-3.2,18.8-6.8,29-3.6
	c1.4,0.4,3.1,1.4,4.7,0.1c0.5-0.9,1.3-1.5,1.8-2.3c2.1-3.1,1.8-4.6-1.5-6.4c-7.9-4.4-15.9-8.5-24.2-12.3c-3.1-1.4-6.5-2.3-9.9-2.2
	c-1.4,0-2.8-0.1-2.9-2c0.1-1,0.5-1.8,1.3-2.5c2.7-0.7,4.8,1.8,7.5,1.5c10.2,2.5,19.6,6.7,28.5,12.5c1.3,0.9,2.6,2.1,4.9,0.6
	c1.5-1,2.9,1.2,2.7,3.2c-0.1,1.7-0.8,3.3-0.5,5.6c0.4-1.9,0.2-3.3,0.5-4.7c0.4-1.5-0.5-2.8-0.9-4.2c-0.9-3.3,0.9-4.5,5.4-3.9
	c2.6-2.4,4.6-5.4,6.7-8.3c1.8-2.6,3.9-2.8,6.1-0.6c9,8.5,18.5,16.4,28.1,24.3c2.1,1.8,2.4,3.5,0.5,5.6c-0.5,0.5-1,1.1-1.3,1.8
	c-0.6,1.4-2.8,2.5-1.7,4c1.2,1.8,3.3,2.1,5.6,1.6c6-1.3,12.3,1.9,15.1,7.6c0.2,0.3,0.4,0.8,0.2,1c-1.4,1.6-1.3,3.2-0.1,5.4
	c1.2,2.2,1.9,4.5,3.1,6.8c0.6,1.1,1.5,1,2.1,1.7c0.3,0.5,0.3,1,0.1,1.5c-1.3,2-3.3,3.1-5.8,3.9c3.5,1.7,2.9,4.7,2.6,7.7
	c-2.6,3.9-5.6,4.2-10,0.9c-2.3-2.4-2-5.1-0.9-7.9c0.2-0.8,0.4-1.5-0.6-2c-5.1,1.4-8.2-2.8-12.2-4.5c-2.9-1.2-6.8-1.5-8-5.4
	c-0.4-1.1-1.4-0.8-2.2-1c0.5,0.3,1.1,0.3,1.5,0.6c0.4,0.4,0.5,0.9,0.5,1.4c-0.1,0.5-0.3,1-0.8,1.1c-0.7,0.2-1.9,0-0.5,1.1
	c-0.2,4.4-1.7,5.9-5.9,5.9c-0.8,0-1.7-0.3-2.5,0.2c-1,0.7-1.7,1.8-2.3,2.9c1.4,2.7,4.6,1.9,6.6,3.4c3.4,1.9,6.8,3.9,10.7,4.8
	c1.1,0.1,2.1,2.4,3.4,0.1c0.2-0.3,1.1,0.3,1.6,0.7c1.6,0.7,3.3,1.1,4.8,2c6.3,2.7,12.9,4.4,19.3,6.8c5.8,2.9,11.1,6.8,17.8,7.8
	c3.5,1.4,7.1,2.5,10.6,3.9c2.4,0.9,3.4-1.2,4.7-2.4c1.2-1,1.7-2.6,3.1-3.4c2-1.4,3.2-3.6,5.2-5.1c1.7-1.2,3.4-2.4,5.7-2
	c0.3,0.1,0.6,0.3,0.8,0.5c0.3,0-0.1,1.2,0.6,0.5c0.7-0.8,1.2-1.7,2.5-1.6c0.3,0.1,0.6,0.3,0.9,0.5c1,4.7,2.6,9.3,1.6,14.2
	c-1.1,1.7-1.4,3.5,0.1,5.1c5.4,6.1,11.9,9.9,20.3,9.6c-4.9,0.4-7-1-6.3-5.2c0.6-3.6-0.1-6.4-2.6-8.9c0-0.2,0.1-0.5,0-0.7
	c-2.3-4.6-2.3-4.6,2.9-6.6c1-0.4,2.4-0.3,1.6-2.3c-0.4-1-0.2-2.6,0.2-3.9c0.4-1.4,1.1-2.2,2.5-0.8v-0.1c0.3,1.4,0.4,2.3,2.3,2.9
	c3.2,1,5.4,4,7.7,6.5c1,1.1,0.4,2.2-1,2.2s-2.4,0.3-3,1.5c-0.2,0.2-0.3,0.3-0.4,0.5s-0.1,0.4-0.2,0.7c0,0.4-0.1,0.5,0,0.3
	c0.2-0.2,0-0.3,0-0.5c0-0.4,0.2-0.7,0.4-0.9c0.8-1.2,1.8-2,3.4-1.4c1.5,0.6,1.7,1.7,1.4,3c-0.4,1.8,0.2,3.2,1.4,4.3
	c2.9,2.7,3.2,6.1,2.6,9.8c-0.5,3.1-2.3,6.3,1.2,9c1.1,0.8-0.2,1.7-1.1,2.1c-1.6,0.8-3.1,1.6-3.1,3.9c8.2-1.7,16-4.3,22.5-9.8
	c1.5-1.2,3-2.1,5-1c4.1,0.3,8.5-1.1,12.3,1.8c0.4,0.3,0.6,0.7,0.9,1.1c0.2,0.3,0.4,0.6,0.5,0.9c-0.7,3-2.4,5.4-4.5,7.5
	c-4.2,5.2-7.8,10.9-11.5,16.4c-0.9,1.4-0.5,3.2-1.5,4.5c-1,0.4-0.3,1.2-0.4,1.8c-0.3,1.5-1.4,2.6-1.8,4c-0.2,0.4-0.4,0.8-0.8,1.7
	c3.7-1.6,7.2-2.8,10.4-4.7c3.1-1.2,6.3-2,9.5-2.7c3.7-0.7,7.3-1.8,11-2.5c3.3-0.8,6.5-1.6,9.2-1.7c-4.6-1-9.9,0.2-15.3-0.7
	c-4.7-0.8-9.7,0.3-14.6,0.1c-1.3,0-2.9,0.6-3.7-0.9c-0.7-1.3,0.5-2.2,1.1-3.3c2.2-4.6,6-7.9,8.6-12.2c1.6-1.5,2.8-3.5,5.2-0.4
	c1.3,1.6,4.1,1.3,6.3,1.2c4.9-0.2,10.2,0,14.5,1.7c7.5,2.9,15.8,2.3,23,6c0.4,0.2,0.9,0.3,1.4,0.4c4.7,1.2,9.5,1.2,14.2,3.3
	c2.7,1.2,7.2,0.9,10.7-0.7c1.1-0.5,2.1-1.4,3.4-0.7c6.4,0.8,11.3,4.3,15.8,8.7c3,3,6.1,6,9.2,8.9c1.5,2.4,0,4.2-1.7,5.2
	c-4,2.4-7.9,5-12.9,5.7c-5.5,0.8-10.6,3.4-16.2,4.4c-5.2,0.9-10.3,2.6-15.6,2.3c-0.9,0-1.3,0.5-1.9,1c-1.6,1.4-3.6,1.3-5.5,1.4
	c-2.5,0.2-5.1,0.7-7.5,1.5c-4,1-8.2,1.2-12.3,1.7c-6.1,0.8-11.9,2.5-17.2,5.7c-2.5,1.1-4.6,2.9-7.2,3.8c-5,2-9.4,5-14.1,7.5
	c-0.3,0.1-0.7,0.2-1,0.2c-4.6,0.4-8.2-1.6-11.6-4.4c-8.9-7.2-18.8-12.9-26.9-21.1c-8.9-8.9-14.9-19.5-18-31.8
	c-0.9-3.7-2-7.3-3.5-10.8c-2.1-2.5-4.1-5.2-7.6-6.1c-1.4-0.5-2.9-0.3-4.3-0.3c-2.3-0.1-4.3-0.8-5.2-3.2c-0.6-3,2-4.8,3-7.2
	c1-2.3,0.5-3.4-1.4-4.5c-5.8-3.3-12.2-5-18.3-7.3c-2.2,0.4-4.3,0-6.2-1.2c-3.7-2.2-8.3-2.6-11.9-5.2c-1.1-1.5-2.5-2.5-4.3-3.1
	c-6.5-2.2-12.8-5.4-19.8-5.9c-2,0.3-3.9-0.2-5.7-1c-3.6-1.7-7.5-2.7-11.2-4.5c-1.4-1.8-3.3-2.7-5.4-3.6s-3.5-0.7-4.8,1
	c-1.4,1.9-3.2,3-5.7,2.1c-1.3-0.5-2.4,0.1-3.3,1.1c-2.4,2.9-5.4,5.4-7,8.9c-2.9,6.2-7.1,11.7-10.1,17.9c-6.6,2.8-8.8,9.4-12.7,14.6
	c-1.3,1.7-1.8,4.2-4.7,3.9c-1.4-1.1-2.7-2.1-4.4-2.7c-2.5-0.9-3-2.6-1.9-5c0.2-0.4,0.5-0.9,0.7-1.3c1.1-2.5,5-4.5,1.6-7.9
	c-2.1-2.1-2.9-5.4-6.7-5.8c-2.2-0.3-4.2-2-6.6-2c-1.2,0-2-1-2.2-2.1c-0.9-4.7-5.1-5.4-8.5-7.1c-0.8-0.4-2.1-0.2-2.7-1
	c-2.5-3.3-6.4-4-9.9-5.2c-1.8-0.6-3.2-1.8-4.4-3.2c-1.7-2-3.4-1.9-5.4-0.4c-1.5,1.1-3,2.2-4.2,3.5c-5.6,5.8-11.6,11.3-17.4,16.9
	c-1.1,1-2.3,2-3.7,2.4c-10.2,3.4-17.9,11-27.1,16.1c-1.3,0.7-2.6,1.7-3.3,3.5c1.5-2.1,4-1.8,5.8-3.2c1.2-0.9,4,1.5,5.2,3.2
	c1.7,2.2,3.2,3.6,6.1,2.3c0.2-0.1,0.5-0.1,0.7,0c3.8,1.6,7.8,2.3,12,1.4c-0.1-2.4-0.1-2.4,2-4c-0.6-0.8-1.7-0.9-2.3-1.6
	c-1.7-1.8-1.5-3.3,0.7-4.4c2.6-1.2,5.5-1.3,8.3-1.4c1.7-0.1,2.7,1.2,2.9,2.8c0.2,1.8,1.1,2.4,2.8,2.6c7.6,1,13.5,4.7,18,10.9
	c0.6,0.8,1.3,1.5,2.1,2c5.8,4.1,6.5,10.7,8.2,16.7c0.2,0.8-0.2,1.4-1,1.7c-2.7,0.8-5.4-0.2-8-0.6c-11.4-2.1-22.8-3.2-34.3-2.1
	c-5.1,0.5-10.2-1.3-15.2-2.2c-5.1-1.4-9.5-4.4-14.4-6.3c-7.1-2.7-14.3-5-21.5-7.2c-2.4-0.7-5-0.8-7-2.5c0.3-0.9,0.8-1.8-0.8-2.1
	c-1.4-0.2-2.8-0.3-4.1,0.7c-1.1,0.5-2.1-0.1-3.1-0.3c0.6,0.2,1,0.6,1.2,1.1c0.6,3.6,2.5,2.5,4.4,1.1c3.6-0.2,6.8,1.6,10.2,2.4
	c8.2,1.9,16,5.1,23.9,8.1c1.6,0.6,3.2,1.2,4.4,2.6c0.6,0.7,1.2,1.4,0.8,2.3c-0.3,0.9-1.2,1.2-2.1,1.2c-5.9-0.2-11.8,0.2-17.7-0.7
	c-2.9-0.4-5.4-1.6-6.4-4.8c-0.8-2.5-3.5-2.3-5.3-3.5c0.8,0.6,1.8,1,2.5,1.7c1.2,1.2,2.7,2.6,1.7,4.5c-0.9,1.6-2.6,1-4,0.6
	c-2.6-0.8-5.2,0.3-7.6,0.8c-5.9,1.2-11.8,0.1-17.6-0.2c-6.5-0.3-12.9-1.3-19.4-2c-2.8,0.3-5.6-0.1-8.3-0.9c-1.5-0.5-3.1-1.1-2.4-3.3
	c0-1.9,0-3.8,0-5.7c1.8-0.9,2.6,0.3,2.8,1.7c0.6,3.7,2.6,4.7,6,3.5c0.8-0.3,1.8-0.3,2.5,0.1c2.5,1.5,5.2,1.2,8.8,0.9
	c-2-0.5-3-0.8-4.1-1.6c-3.1-2.3-5.6-5.3-8.4-7.8c-2.6-2.3-5.1-4.6-5.8-8.2c-0.3-1.7-0.6-3.5,1.4-4.5c1.8-0.8,3.5-0.3,4.7,1.2
	c1.6,1.9,3.5,3,5.5,3.4c-0.2-0.1,0.5,0.1,0.3,0.1c-8.5-3.2-9.4-9.1-5.8-16.5c0.5-1.1,1.4-1.9,2.7-1.4c1.3,0.5,1.2,1.7,1,2.8
	c-0.4,1.8-1.5,3.4-1.2,5.5c0.8-0.7,0.6-1.6,0.9-2.3c1.9-5.8,7.2-7.5,11.8-3.4c2.1,1.8,4.4,2.6,6.9,3.1c8.3,1.5,16.8,2.5,25.1,3.8
	c4.6,0.7,9.2,1.6,13.6,3.3c5.9,2.2,7.8,1.7,11.9-2.9c-1.7,0-3.3,1.1-5.1,0.6c-1.4-0.4-2.7-1-2.7-2.6c0-1.7,1.5-2.4,2.8-2.3
	c2.9,0.2,5.9-0.7,8.8,0.3c1.3,0.4,2.5,0.5,3.5-0.4c8.6-7.6,19.5-12,28.2-19.4c8-6.8,15.7-14.2,24.4-20.1c0.6-0.4,1.4-0.9,1-1.7
	c-0.4-0.8-1.3-0.6-2-0.3c-5.8,2.3-11.5,4.6-17.1,7.4c-6.4,3.2-13.3,5.1-20,7.3c-8.4,2.7-17,3.6-25.7,4.3c-11.2,1-21.9-1.1-32.5-4.4
	c-4-1.2-7.9-2.9-11.9-4c-0.2-0.1-0.5-0.2-0.7-0.2c-4.5,1.1-8.1-1.4-12-3.2c3,3,5.1,7.1,10.2,7c0.5,0,0-0.2,0.3,0.1
	c4.1,4,10.1,3.4,14.9,5.8c2.6,1.3,5.5,1.7,8.3,1.5c3.9-0.4,7.6,0.1,11.4,0.5c10.8,1.4,21.4,0.7,32-1.7c2.1-0.5,4.1-0.6,5,1.8
	c0.9,2.6-0.9,4.1-3.1,4.5c-6,1.1-11.7,3.7-18,3.6c-4.5-0.1-9,0.8-13.6,0.7c-7.1-0.1-14-0.8-20.8-2.7c-4.7-1.4-9.7-1.5-14.5-2.8
	c-3.7-1-6.9-3.5-10.8-3.3c-0.5,0-0.9-0.3-1.2-0.7c-3.2-4-7.7-6.3-12.6-9.3c0.9,1.5,1.5,2.8,2.5,3c5.1,0.8,6.8,6,10.7,7.9
	c3.9,2,7.8,4.2,11.9,5.7c2.5,0.9,5.2,1.1,7.4,3.1c1.5,1.3,3.5,0.9,5.3,0.8c1.1,0,2.4,0,2.7,1.4c0.3,1.3-0.8,1.9-1.8,2.5
	c-1.6,1-3.3,0.8-5,0.1c-5.3-2.1-11.2-2.8-16.1-6.1c-1-0.7-2.3-0.9-3.5-0.9c-1,0-2.1-0.1-2.7-0.9c-3.4-4-8.5-5.8-12.5-9.1
	c-1.1-1-2.3-0.5-3.4-0.1s-2.3,0.9-3.4-0.1c-0.7-1.6,0.2-2.9,1.1-4c1.6-2,1.9-3.6-0.6-5c-0.7-0.4-1.3-1.1-1.1-2.1
	c1.4-1.5,3.4-1.1,5.2-1.5C79.5,379.5,79.3,377.8,78.2,376.2z"/>
<path class="st1" d="M185.5,540c-0.9,0-1.7,0-2.6,0c-0.6-0.6-1.4-0.5-2.1-0.4c-9.7,0.5-19.4-0.4-29-0.9c-14.5-0.8-29.1-1.6-43.6-3
	c-3.9-0.4-7.8-0.6-11.7-0.8c-6.4-0.3-10.8-4.9-16.4-7c-1.6-0.3-3.1-1-4.5-1.7c-2.9-1.9-5.5-4.1-6.4-7.7c0.1-2.1,1.1-2.7,3.1-2.5
	c3.9,0.4,5.8-2,4.9-5.9c-1.7-7.5-0.9-14.8,1.4-22c0.8-2.5,2.7-5.2-2-6.4c-1.9-0.5-2.8-3.1-2.7-4.9c0.1-2.8,1.9-0.9,3.1-0.6
	c1.2,1.2,2.1,3.2,4.5,2.1c0.4-0.2,1.1,0.1,1.3,0.5c2.5,3.7,6.6,3.4,10.2,4.2c8.2,1.7,16.5,2.3,24.7,3c2.9,0.2,5.9,0.6,8.5,2.1
	c1.2,1.3,1.5,4.1,3.7,3.5c3.3-0.9,7.1,1.5,10-1.7c1.6-0.6,3.1-0.9,4.4,0.7c0.1,2,1.7,3.2,2.5,4.8c0.5,1.1,1.5,1.2,2.5,0.8
	c1.2-0.4,2.4-0.5,3.6-0.7c5.7-0.9,5.7-0.9,8,4.6c0.6,1.5,5.1,4.4,6.6,4c3.7-1.1,7.7-0.1,11.4-2.2c2-1.1,4.9-0.9,6.7,1.5
	c0.8,1.1,2,1.3,3.3,1.3c1.1,0,2.3,0.1,2.7,1.5s-0.5,2.3-1.4,3.1c-0.7,0.6-1.7,1-2.3,2.1c1.6,0.4,2.4-0.7,3.5-1.4
	c1.6-0.9,2.3-0.4,2.2,1.4c-0.1,2.9-0.2,5.7-3.3,7.4c3.4,1.3,3.4,1.3,1.3,7.4c3.3-1,6.2-2.1,8.4-5.2c1.9-2.7,4.8-2.1,7.4,0.1
	c2,1.7,3.6,3.5,5,5.7c0.8,1.3,2,2,3.7,2c3.9,0,7.9,1.8,11.8-0.4c0.6-0.3,1.4,0,2.1,0.3c4.1,1.6,8.3,0.9,12.5,0.9
	c1.2,0,2.4-0.5,3.7-0.3c2.3,0.4,4.1,0.4,4.3-2.7c0.1-1.7,1.6-1.7,2.8-0.9c1.2,0.9,1.9,1.9,3.4,0c1.3-1.6,3.1-0.6,3.6,1.6
	c0.7,2.8,2.3,3.4,4.8,1.8c3.1-2,6.2-3.9,9.7-0.3c1.1,1.1,2.3,0.6,2.9-0.8c0.5-1.1,1.1-2.2,1.3-3.4c0.1-0.7,0.3-1.4,0.8-2
	c0.7-0.9,2.8,0.5,2.5-1.2c-0.3-2,0-4.2-1.2-6.1c-0.7-1.1-1.9-2.4-0.3-3.5c1.7-1.1,2.6,0.6,3.5,1.7c2.6,3.2,2.6,3.2,5.6,0.5
	c2.7-2.4,6-2.4,9.3,0.3c1.8,1.5,3.4,3.2,5.2,4.6c3.4-4.6,9.4-5.2,14.2-1.4c0.5,0.4,0.7,1.2,1.4,0.8c0.8-0.4,0.7-1.2,0.6-1.9
	c-0.3-4.5,0.2-4.9,4.8-3.7c0.8,0.2,1.7,0.2,2.6,0.3c2.1,0.2,3,1.2,2.8,3.4c-0.3,2.7-0.1,5.4,2.9,6.9c0.9,0.5,1.4,1.6,0.9,2.6
	c-1,1.8-2.8,1.6-4.5,1.6c3.3-0.3,6.5,1.2,10.2-0.5c1.9-0.9,5.3,0,7.7,1.2c2.9,1.4,5.4-0.7,8.1-0.5c1.6,0.1,1.9-2.9,0.2-4.3
	c-1.9-1.6-3.3-3.3-2.2-6c1.2-3,3.9-3.4,5.6-0.7c1.5,2.4,2.1,5.2,5.2,1c1.2-1.6,4.7-1.3,7-0.8c2,0.5,4,0.8,6.1,0.9
	c2.3,0.1,4,1.8,5.6,3.3c0.7,0.7,0.8,1.7,0.1,2.4c-1.7,1.7-2.1,3.7-1.8,6.1c0.1,1.2-1.5,2.4-2.2,1.5c-1.8-2.2-4.1-0.9-6.1-1.3
	c3.2,0.8,6.2,3.1,9.6,1.9c2-0.7,5,0.5,5.9-2.9c0.2-0.7,1.8-0.6,2.2,0.3c1.9,3.8,5.4,3.4,8.3,2.6c4.6-1.4,7.4,1.4,10.6,3.4
	c0.1-2.5,1.4-3.6,4.1-3.2c1.6,0.2,3,1.1,4.7,0.8c2.1-0.3,3.7,0.1,3.7,2.7c-0.1,2.3-0.8,3.9-3.6,3.3c-0.2-0.1-0.5,0.1-0.7,0.2
	c3.7,0.3,6.1,4.2,4.3,6.8c-3.6,0.2-7.3,0.1-10.9,0c-2.2-1.1-3.6-3-5.5-4.5c0,1.6,1,3.7-1.6,4.5c-4.3,0.1-8.7,0.1-13,0
	c-4.9-0.5-9.8-0.7-14.8-0.7c-2.7,0-5.4,0.1-8.1-0.1c-4.9-0.9-9.9-0.6-14.9-0.7c-13.6-0.3-27.2-0.8-40.9-1.1c-2.6-0.6-5.3-0.2-8-0.3
	c-4.3,0.1-8.6-0.6-12.9-0.4c-5.5-0.7-10.9-0.1-16.4-0.3c-5.2-0.2-10.4-0.5-15.6-0.4c-3-0.5-5.9-0.6-8.9-0.1c-2.1,0.1-4.2,0.1-6.3,0
	c-3.1-0.5-6.2-0.5-9.2,0c-3.9,0.5-7.7-0.9-11.6-0.2c-3,0.4-5.9,0.7-8.9,0c-3-0.8-5.9-0.6-8.9-0.1c-2,0.4-3.9,0.3-5.9,0
	c-3.4-1.5-6.9-0.2-10.4-0.4C188.7,540.2,187.1,540.5,185.5,540z"/>
<path class="st2" d="M81.7,393.2c4.4,3,9.7,4.8,13,9.3c0.4,0.5,0.9,1,1.5,0.7c2.5-1.1,4.2,0.4,6.1,1.6c4.8,3.2,10.7,3.3,15.7,5.7
	c2.1,1,3.5-0.3,4.8-1.7c-0.7-1.4-2-1-2.9-0.6c-3,1.4-5.7-0.5-6.8-2.1c-1.4-2-2.3-1.6-4-1.3c-2.6,0.4-4.5-1.1-5.8-3.1
	c-1-1.4-2-2.1-3.7-1.5c-1,0.4-2.2,0.5-2.7-0.4c-1.8-3.2-6.9-3.3-7.3-7.9c0-0.4-0.4-0.6-0.8-0.4c-4.2,1.8-5-2.5-7.2-4.2
	c-0.8-0.6-0.7-1.6,0.1-2.3c0.7-0.7,1.3-0.3,1.9,0.2c3.3,2.5,6.7,4.9,10.1,7.3c5.1,3.6,14.5,7.3,21.9,8c5.8,0.5,11.1,2.9,16.9,3.4
	c6.8,0.5,13.6,1.1,20.4,0c0.7-0.1,1.5-0.3,2.2-0.3c6.7,0.9,12.6-2.4,18.9-3.4c1.8-0.3,3.7-1.1,2.7-3.4c-0.9-2.1-2.7-1.3-4.4-0.8
	c-6,1.7-12.1,2.4-18.3,2.1c-1.6-0.1-3.1-0.5-4.6,0.4c-1.7,1.1-3.4,0.3-5-0.1c-6.3-1.6-12.8-1.3-19.2-1.4c-3.3-0.1-5.7-2.1-8.7-2.9
	c-3.5-1-7.8,0.2-10-4.1c-0.1-0.2-0.7-0.4-1-0.3c-6.1,0.8-8-4.8-11.7-7.6c-0.7-0.5-1.2-1.4-0.3-2.2c0.9-0.8,1.7-0.2,2.2,0.5
	c1.6,2.1,5.5,0.4,6.1,3.9c0,0.1,0.8,0.2,1,0.1c4.8-2.3,8.6,1.1,12.8,2.3c5.8,1.7,11.5,4.1,17.6,4.4c2.2,0.1,3.8,1.6,6,1.6
	c12.2-0.3,24.3-0.2,36.2-3.9c6.5-2,12.9-4.5,19.5-6.3c2.8-0.8,4.4-3.4,7.3-4c4.5-0.8,8.3-3.7,12.6-5.2c1.8-0.6,3.3-0.4,4.2,1
	c0.7,1.2-0.5,2.2-1.6,2.9c-10.9,6.9-19.7,16.5-29.8,24.3c-2.3,1.8-4.9,2.9-7.3,4.2c-6.1,3.3-11.2,7.9-16.8,11.8
	c-0.6,0.4-1.7,1.2-1.7,1.2c-2.6-3.2-6.1-0.4-9-1.5c-1.2-0.5-2.4-0.1-3.4,0.8c-0.4,0.4-0.3,1,0.1,1.3c1.1,0.8,2.2,1.8,3.6,0.9
	c0.7-0.4,1.2-0.7,2-0.6c1.1,0.1,2.1-2.5,3.3-0.2c1,2-1.3,1.9-2.1,2.8c-3.9,4.6-8.4,4.2-13.4,1.9c-5-2.3-10.6-2.6-16.1-3.5
	c-8-1.3-15.9-2.4-23.9-3.7c-1.5-0.3-3.3-0.4-4.2-2c-1.5-2.7-4.1-3.3-6.6-2.7c-2.9,0.6-4,3.3-4.7,6.1c-0.3,1.1,1.2,3.6-1.3,3.2
	c-1.9-0.3-1.9-2.6-1.3-4.4c0.5-1.4,1.1-2.7,1.6-4.1c0.2-0.6,0.3-1.3-0.3-1.6c-0.9-0.4-1.2,0.2-1.6,0.9c-3.3,6.4-3,12.5,5.2,15.4
	c1.1,0.4,2.3,0.8,3.5,2.5c-3.8-0.3-7.2-0.7-9.5-3.3c-1.5-1.7-3.1-3.8-5-1.9c-1.8,1.7-0.4,4.3,0.8,6.3c2.2,3.8,7.1,5,8.6,9.4
	c0.2,0.6,1,1.3,1.8,1c3.5-1.2,2.8,1.3,2.8,3.5c1.8-2.1,3.1-1.7,4.2,0.4c0.3,0.5,0.6,1.1,0.1,1.7c-0.4,0.5-1.2,0.7-1.7,0.4
	c-2.8-1.7-6.5,1.4-9.1-1.9c-0.4-0.6-1.8,0-2.8,0.3c-3.5,1.3-6-0.3-6-4c0-1.7-0.5-2.2-1.9-2.4c-1-7.2-0.5-14.2,1.1-21.4
	c1.3-5.9,0.8-12.2,2.6-18.1c0.4-1.3,0.5-2.6,0.8-3.9C79.9,394.8,80,393.6,81.7,393.2z"/>
<path class="st3" d="M118,436c-0.7-1.2-2.4-1.1-3.8-2.6c2.5-0.7,4.1,1.5,6,1.1c1.9-0.2,3.7,0.1,5.2,1.5c7.3,2.2,14.6,4.2,21.8,6.8
	c6.9,2.5,13.9,5,20.3,8.7c-0.1,1.2-1,1.9-1.5,2.8c1.6,1.4,4.7,1.3,4.6,3.8c-0.1,2.5-3,1.3-4.5,2.1c0.7,3.9,0.1,4.9-3.6,5.4
	c-1.8,0.3-3.7,0.5-5.4-0.4c-2.1-1.1,0.8-3.2-0.7-4.6c-2.3,6.7-2.3,6.7-10,6.3c1.4,1.4,2.9,1.1,4.1,1c4.4-0.6,8.7-0.1,12.5,2
	c3.5,2,7.3,2.9,11.1,3.8c1.6,0.4,4.4,0.8,2.4,3.8c-3.5,0.8-7,0.2-10.4,0c-2.8,0.1-5.7,0-8.5,0.1c-0.6-0.1-1.2-0.1-1.9-0.1
	c-0.8,0-1.7,0-2.5,0c-3.6,0.5-7.1-1.3-10.7-0.7c-8.4-0.6-16.9-1.4-25.2-2.7c-2.6-0.4-5.5,0.3-7.9-1.2c-1.8-1.8-3.9-2.5-6.5-3
	c-4.1-0.7-8.1-1.8-11.9-3.6c-4.2-2-7.6-1.4-10.7,1.7c-2.1,0.9-3.9,0.1-5.3-1.5c-1.6-1.8,0.6-2.8,0.9-4.2c-0.1-3.9-1.3-7.7-0.6-11.6
	c1-0.5,1.9,0,2.8,0.2c3.4,0.7,6.5,0.1,9-2.4c6.1,0.7,12.1,1.7,18.2,1.9c5.9,0.2,11.7,1.5,17.8,0.3c3-0.6,6.6-3.2,9.9-0.1
	c0.4,0.4,1.3,0.2,1.6-0.4c0.2-0.3,0-1-0.2-1.4c-0.8-1.6-1.8-3-3.7-3.2c-1.6-0.2-2.5-1.2-4-2.6c4.1-0.3,6.9,1.5,9.9,2.4
	c0.3,0.1,0.7,0.5,0.7,0.8c0.5,7.3,6.4,5.7,10.4,5.8c4.6,0.2,9.2,0.5,14.1,0.3c-0.4-1.8-1.6-2.8-3.2-3.4c-9.2-3.6-18.4-7.2-28-9.3
	c-2.7-0.6-5.2-2.2-8.2-2.1C120.7,437.7,119.2,437.3,118,436z"/>
<path class="st4" d="M590.4,482.3c1.1,6.2,2.8,12.3,2.3,18.8c-0.6,7.7-4.4,13.1-11,16.6c-4.1,2.1-8.5,3.6-12.7,5.4
	c-0.5,0.2-1,0.4-1.5,0c-0.4-2.6,1.7-3.6,3.4-4.7c1.9-1.3,4.1-2.2,6-3.6c2.3-1.6,4.9-2.9,5.5-6.1c0.2-1,1.1-1.6,2-2
	c1.5-0.7,2.3-1.9,2.2-3.5c-0.3-3.2,1.5-5,2.8-5.7c-6.4,5.3-15,7.7-24.7,8.2c-5.1,0.3-10.1,0.7-15.2,0.9c-1.5,0.1-1.5,1-1.5,2
	c0.1,2-1.1,2.9-2.8,3.3c-3.8,1.1-7.5,2.2-11.5,2.6c-6.3,0.6-12.6,2-18.9,2.8c-1.1,0.2-2.2,0.5-3.3,0.6c-1.3,0.1-3.1,0.4-3.7-0.9
	c-0.8-1.7,1.7-1.6,2.4-3.1c-2.3-0.9-5.3-0.5-7-3.2c2.4,6.7-4.2,3.9-6,6.2c2.3-0.9,4.6-1.3,7-1.4c0.8-0.1,1.8,0.1,2,1.2
	c0.1,0.8-0.6,1.3-1.2,1.7c-0.2,0.1-0.4,0.3-0.7,0.3c-4.6,1-9.1,3-13.9,3.3c-2.3,0.2-2.3,0-2-2.3c0-0.3-1.5-0.7-3-0.9
	c2.3,3.1,2,4.1-2,5.1c-4.2,1-7.8,4.1-12.4,4.1c-1.5,0-3.6,1.2-4.3-0.7c-0.7-1.8-0.7-4.1,1.6-5.4c2.1,2.6,4.7,1.7,7.2,1.1
	c1.3-0.3,2.4-1.2,3.7-1.6c-1.2-0.5-2-0.2-3.2,0.3c-2.3,1-4.9,2.1-7.5,0.4c-1.2-2.6,0.8-5.1,0.1-7.7c0-0.5,0.1-1,0.4-1.5
	c2.1-2,4.5-1.2,7-0.8c-1-0.8-2.1-1.9-1.1-2.9c1.5-1.7,1.7,1.2,3.1,1.2c-1.5-0.8-1-1.5-0.3-2.3c0.8-0.8,1.9-1.1,2.7-1.8
	c0.3-0.2,0.6-0.3,0.9-0.5c2.9,0.3,5.7,0.3,8.6,0.6c2.2,0.4,3.9-0.9,5.8-1.6c1.9-0.7,3.8-1.6,5.9-1c1.7,1.4,3.3,2.8,5.3,3.6
	c0.7,0.3,1.6,1.1,2.1-0.1c0.4-1.1-0.6-1.4-1.5-1.5c-1.1-0.2-2.1-0.5-2.5-1.7c-0.5-3.9,3.1-2,4.5-3.1c0.3-0.1,0.7-0.1,1-0.1
	c0.8,0.1,1.6,0.4,2.4,0.8c1.4,1.2,2.4,0.6,3.2-0.8c2.3-1.2,4.7-2,7.3-1.7c1,0.1-0.4-0.7,0.2-0.9c2.3-2.7,5.1-4.6,8.6-5.2
	c1.2-0.2,2.7-0.8,3.2,0.7c0.5,1.6-1.4,1.7-2.3,2.3c-0.6,0.4-1.4,0.5-2.1,0.8c2.6-0.6,4.8-2.5,7.5-2.6c0.4,0,0.7,0,1,0.1
	c1,0.4,1.9,0.3,2.9,0c4.7-1.3,9.4-2.6,14.4-2.5c3,0.1,6-1.4,8.9-2.2c3.9-1.1,7.9-1,11.7-2.5c3-1.1,5.9-2.3,8.6-4.1
	C587.5,482.6,588.8,481.7,590.4,482.3z"/>
<path class="st5" d="M204.3,372.6c3-1.2,6-2.5,9.9-4.1c-2.5,3.8-6,5-8.6,5.9c-6.7,2.1-12.2,6.7-19.1,8.2c-2.8,0.6-5.9,0.2-8.1,2.8
	c-0.5,0.6-1.3,0-2,0c-2.1,0-4.3-0.6-6.2,1.1c-1.7,1.5-6.2,1.7-8.7,0.8c-0.3-0.1-0.8-0.2-1,0c-4,4.1-8.9-0.3-13.2,1.5
	c-4.2,1.8-8.2-1.8-12.5-0.7c-1.5,0.4-3.7-1.5-5.5-2.4c-4.3-2.1-9.9-0.7-13.4-4.9c-0.5-0.6-1.4-0.3-2.1-0.4c-1.2-0.2-3.2-0.6-3.3-1.2
	c-0.6-3.5-4.2-3.9-5.9-6.2c-1-1.5-3.2-0.3-4.9-1.3c-1.6-0.9-2.8-0.5-1.3-2.6c0.8-1.1,0.6-2.6,0.1-3.9c-0.1-0.2-0.7-0.4-0.9-0.3
	c-1.4,0.9-1.7,2.3-1.4,3.8c0,0.1-0.3,0.3-0.6,0.7c-0.8-2-0.9-4.6-4.2-3.9c-1.1,0.2,0.3-1.5-0.8-2.2c-0.9,3.2-2.9,2.7-5.1,1.5
	c-0.7-0.4-1.8-1.1-2.4-0.8c-4.1,1.6-5.5-1.4-7.3-4c0.9-8.8,6.7-15.6,15.1-17.7c2.6-0.7,5.2-1.6,7.7-2.4c3.1,1.5,5.5,3.7,8,6.2
	c5.2,5.3,8.9,11.7,13.9,16.9c5.7,6,12.3,11.3,20.7,13.2c4.3,1,8.2,3.2,12.6,3.7c0.8,0.1,1.2,0.7,1.7,1.4c1.7-0.7,3.4,1.6,5.2,0
	c2.5-1.4,4.9-1,7.4,0c1,1.7,2,1.7,3,0c2-1.9,4.3-1.9,6.6-0.7c2.7-0.5,5.4-1,8.1-1.5c2.2-2.4,5.5-1.6,8.1-2.9c1.9,0,3.6-0.3,5.2-1.5
	C200.6,373.4,202.1,372.1,204.3,372.6z"/>
<path class="st6" d="M279.7,331.2c0.6,0.5,1.7,1.3,0.1,1.5c-1.4,0.2-2.9-0.3-4.3-0.8c-8.4-2.7-16.1-0.6-24.3,1.8
	c-7.3,2.1-12.8,6.9-19.4,10c-5.1,2.4-9,6.4-13.9,9.1c-3,1.7-6.1,4.5-6.2,8.8c-1.7,0.5-2.7-0.9-4-1.4c-1.4-0.5-3-0.6-3,1.3
	c-0.1,2.9-1.6,3.5-4.1,3.2c-0.9-0.1-2,0.1-2.9,0.5c-0.3,0.1-0.7-0.5-0.8,0.2c0,0.8-1.2,1.6-2,1.8c-2.2,0.5-5-0.1-6.1,2.9
	c-0.3,0.7-1.2,0.7-1.9,1.1c-1.3,0.7-2.6-1.8-4,0.5c-1.1,1.7-4,0.8-5.8,1.9c-1.5,1-2.6,0.5-3.5-0.6c-1-1-2.2-1.6-3.2-0.5
	c-2.7,3.1-7.1,0.5-9.8,3.1c-0.3,0.3-1-0.1-1.3-0.4c-2.5-2.2-5.2-1.6-8-0.7c-3.9,0.6-7.1-2.1-10.9-1.9c-0.2,0-0.6-0.1-0.7-0.2
	c-0.7-3.3-3.8-1.5-5.4-2.6c-4.7-3.1-10.5-4.8-13.4-10.6c-1.6-3.1-4.4-5.6-6.1-8.7c-0.7-1.3-1.9-1.5-3.1-1.7
	c-0.3-0.2-0.5-0.4-0.7-0.7c0.2-1.8,2.6-1.4,2.9-2.9c0.4-0.4-0.4-0.4,0-0.1c0.1,0.1,0,0.1-0.2,0.3c-0.8,0.9-1.8,1.9-2.7,0.6
	c-3.2-4.8-7.7-8-12.5-10.8c0.5-3.7,3.1-5,6.3-5.3c3.1-0.3,6.2,0.2,9.3,0.8c6,7.5,10.9,15.9,17.2,23.1c3.7,4.3,8,7.8,13.7,9.4
	c1.3,0.7,2.6,1.2,4,1.5c0.7,0.2,1.5,0.3,2.2,0c2.4-1.5,1.6-3.5,0.8-5.5c-0.6-1.4-1.3-2.6-0.2-4.1c0.6-0.8,0.2-1.7-0.1-2.4
	c-0.8-1.5-2.3-2.7-1.2-4.8c0.5-1-1.2-1.3-1.8-2c-1.1-1.3-3.5-2.5-0.1-4c0.8-0.3,0.8-1.2,0.7-1.9c-0.2-0.7-0.8-0.8-1.5-0.8
	c-0.9,0-1.7,0-2.5-0.3c-0.7-0.3-1.2-0.7-1.4-1.5c-0.2-0.9,1.7-1.4,0.2-2.6c-0.8-0.6-0.8-2-1.3-2.9c-1.8-3.1-0.4-4.6,2.5-5.5
	c0.7-0.6,0.6-1.8,1.5-2.3c1.9-0.9,2.7,0.1,3.1,1.8c1,4.8,2.1,9.6,4.3,13.9c2.3,4.5,1.6,9.1,1.9,13.7c0.2,3.2,0.3,6.4,0.2,9.6
	c-0.2,3.8,2.7,2.1,4.4,2.5c2.3,0.4,2.4-1.1,2.2-2.7c-0.1-1.5-1-3.1,0.6-4.4c0.4,2.7,1.7,4.2,4.7,4.5c9.2,1,18.1,0.1,26.9-2.5
	c0.5-0.2,1-0.7,1.4-1.1c9.1-2.6,16.3-8.7,23.9-13.9c2.6-1.8,1.5-4.5,1-6.6c-0.7-2.8-0.2-5.5,0.9-7.7c2.3-4.8,4.3-9.8,6.7-14.7
	c2.3-4.8,5.1-9.5,6.3-14.8c0.2-0.7,0.4-1.4,0.3-2.1c2.2-3.7,4.4-4.4,8.1-2.8c2.5,1,5.3,1.5,7.7,2.8c-1.3,2-3.3-0.1-4.8,0.8
	c-1,0.9-1.5,2.3-2.8,3c-0.3,0.7-0.5,1.5-0.8,2.2c-0.5,0.4-0.8,2-1.2,1.4c-1.5-2.1-2.1-0.3-2.6,0.5c-4,5.2-6.6,11.2-9.5,17
	c-1.2,2.4-2.3,4.9-3.2,7.4c-0.5,1.4-0.9,2.9-0.7,4.3c0.3,3.1,1.9,3.7,4.6,2.2c8-4.7,16.1-9.3,25.4-11.2c7.2-1.4,14.1-0.1,21,2.1
	C278.3,329.5,279.2,330.1,279.7,331.2z"/>
<path class="st7" d="M407.3,387.3c-2.2,0.5-2.4,2.7-3.6,4.2c-1.5-1.3,0.1-2.4-0.1-3.5c0.5-1.8,1.5-3.3,2.8-5
	c-3.1-0.4-3.7-2.9-4.5-5.2c-1.7,0.7-1.3,1.7-0.8,2.7c1.1,2.4,2.1,4.8,2.5,7.5c-3.8,0.1-6.2,2.5-8.5,5.1c-0.8,0.9-1.1,2.3-2.6,2.3
	c-3-1.1-2.1-5-4.7-6.8c-1.2,3.6-2.7,6.8-7.3,6.1c-2.5-0.7-4.2-2.3-4.9-4.9c-0.3-1.3,0.1-2.7,0.1-4c0-2.5-0.9-4.1-3.4-5.4
	c-5.2-2.7-11.2-3.5-15.9-7.4c-2.9-2.4-2.9-3.4,0.3-5.2c1.1-0.6,1.6-1.4,1.6-2.6c0.4-0.3-0.5-0.5-0.2-0.2c0.1,0.1,0,0.1-0.2,0.3
	c-0.5,0.5-1,0.7-1.6,0.4c0-0.5,0-1,0-1.4c-1.8-0.2-1.9-1.7-1.8-3s1.2-1.3,2.2-1.4c2.1-0.3,4.1-1.3,6.2-1.5c0.1-0.2,0.3-0.2,0.5-0.1
	c1.1-0.3,2.2-0.7,2.9,0.6c0.7,1.3,0,2.4-0.8,3.3c-0.8,1-2.1,1.2-3,2.3c1.6,0.7,3.2-0.7,4.7,0.3c0.7,3.2-2.7,3.8-4,5.9
	c2.5,2.6,5.9,2.9,9,4.4c-0.1-1.5-1.1-2.1-2.1-2.8c-0.9-0.7-1.5-1.6-0.3-2.3c3.4-2.1,0.6-2.9-0.7-4c-0.4-0.4-1.2-0.3-1.7-0.7
	c-0.7-1-1.4-2.1-1.3-3.4c0.2-3.4,1.4-4.3,4.9-3.8c0.9,0.1,2-0.3,2.8,0.3c4.1,1.4,6.7,4.4,8.1,8.3c1.4,3.7,7,6.4,10.7,5.2
	c3.4-1.2,6.7-0.1,9.5,1.5c3.6,2.1,7,4.7,9.4,8.4c1.4,2.2,3.6,3.6,6.6,2.3c3.9-1.6,7.2-0.3,9.7,3.6c-0.5,0-1.2-0.2-1.3,0
	c-1.2,1.7-0.3,5.7,2,7.3c-2.7-0.2-4.4,0.9-6.4,1.5c-1,0.3-2.3-0.5-2.5,1.2c-0.2,1.9,1.1,1.8,2.4,1.9c0.3,0,0.6,0.3,0.8,0.5
	c-0.1,1.2-1.5,0.9-1.8,1.7c-3,0-4.8,1.5-5.3,4.5c-0.1,0.6-0.7,0.9-1.4,0.8c-1.4-0.9-0.3-3.4-2.1-3.8c-1.5-0.3-1.8,2-3.3,2.3
	c-0.2,0-0.4-0.1-0.6-0.2c-1-1.6-0.3-3.1,0.2-4.6C409.2,396.4,407.4,392,407.3,387.3c0.3-0.3,0.7-0.6,1.1-0.9
	C408,386.7,407.6,387,407.3,387.3z"/>
<path class="st4" d="M531.4,478.8c0.2-0.4,0.6-1.2,0.6-1.2c3.7,1.5,7.2-0.6,10.7-1c5.2-0.6,10.4-1.6,15.3-3.8c1.9-0.9,4.3-2,6.2-1.9
	c5.1,0.4,8.5-2.8,12.5-4.6c2.2-1,3.4-2.8,3.4-5.2c5,0.9,7.1,4.6,8.2,8.9c0.9,3.9,1.4,7.9,2.1,11.8c-1.6,1.5-3.7,0.6-5.5,1.2
	c-2.7,1-4.9,2-7.1,4c-2,1.9-5.5,1.7-8.2,2.6c-1.2,0.4-2.8,1.6-3.3-0.4c-0.5-1.9,1.7-1.6,2.8-2.1c0.4-0.2,1-0.1,1.9-0.4
	c-2.8,0.7-4.9,1.5-7,3.2c-2.7,2.1-6.5,4.6-10.5,1.6c-0.9-0.7-1.2,0.2-1.8,0.5c-3.4,1.9-7.1,2.9-11,3.6c-0.3,0.1-0.7-0.2-1-0.5l0,0
	c-1.2-2.5-3.8-1.8-5.2-1.4c-10.2,2.4-20.8,3-31,5.6c-7.6,1.9-14.8,4.7-22.1,7.6l0,0c-1.9,0.9-4,1-5.8,2c-1.5,0.8-2.7,1.3-3.8-0.2
	c-1.2-1.5-0.6-3,0.7-4.2c4.5-0.9,8-3.6,11.7-6.2c0.3-0.2,0.6-0.3,1-0.4c3-0.7,6.3-0.6,8.8-2.9c0.2-0.2,0.5-0.3,0.7-0.3
	c2.5,1.2,4.1,0.1,6-1.5c2-1.7,4.7-0.1,7.1-0.4c3.3-0.5,6-2.6,9-3.8c1,0,1.9,0,2.4,1.1c0.5,1.2,1.4,1.6,2.3,0.6
	c1.2-1.3,1.6-3.7,4.4-2.7c0.6,0.2,0-1.4,0.4-2.1c0.9-1.5,2.4-2.1,3.9-2.5c2,0,1.6,1.3,1.3,2.5c-0.2,1.1-1.7,2-0.8,3.1
	c1.3-4.1,5.5-4.1,8.6-5.3c3.4-1.3,3.9-0.7,6,2.8c0.3-1-0.7-1.2-1-1.8c-0.6-1.3-0.4-2.4,0.8-3.2c1.1-0.7,2.5-0.6,2.9,0.4
	c1.1,2.7,2.6,1.2,3.9,0.5c2-1.2,3.9-2.7,6-3.5s3.9-0.6,4.4,2.2c0.2-1.6-2-3-0.2-4.5c1.5-1.3,2.3,1,3.6,0.9c-0.2-2.4-1.4-2-3.2-1.8
	c-9,1.1-17.8,3.5-26.8,4.2C533.8,480.2,532.4,480.1,531.4,478.8z"/>
<path class="st8" d="M235.9,299.5c1.3,0.9,0.6,1.9,0.3,2.9c-2,8.1-6.7,14.9-9.7,22.5c-1.5,3.8-3.3,7.5-4.1,11.6
	c-0.3,1.3,1.1,2.1,1.1,3.7c0.1,3.9-1.8,6.3-4.9,8c-4.3,2.3-7.3,6.8-12,8.2c-3.3,1-5.9,4.3-9.8,3c-2.7-6.1-2.8-12.6,0.2-18.1
	c4.4-8.2,8.1-16.8,13.5-24.4c1.4-2,3-3.9,4.9-5.4c1.6-0.8,1.8,0.3,1.3,1.3c-1.9,3.8-3,8-5.5,11.6c-3.6,5.2-6.6,10.8-9.4,16.5
	c4.1-8.5,9.2-16.3,14.3-24.3c2.3-3.7,6.6-3.5,9.6-5.9c3.4,0.8,5.1-1.1,6.4-3.8C233.3,304.4,234.7,302,235.9,299.5z"/>
<path class="st9" d="M467.2,421.2c-1.5,0-2.9,0.5-4.1,1.5c-6,5.3-13.2,8.2-21,9.8c-1.4,0.3-2.7,0.9-4.1,1.4c0.1-3.6,1.1-6.6,6-7.2
	c-5.1-1-3.5-4.1-2.9-6.9c0.2-1.1,0.3-2.2,0.5-3.3c0.7-3.2,0.4-6-2.1-8.4c-1.1-1.1-2.5-2.2-2.2-4.3c0.6-3.8,0-4-3.6-2.5l0,0
	c-0.3-3.3,2.5-2,4.4-2.8c-3.3-2.6-5.6-6-9.4-7.7c-1.4-0.6-0.9-1.8-0.7-2.9c0.7,0.9,0.5,2,2.6,2.1c3.3,0.1,6.8,1.2,7.9,5.2
	c0.4,1.6,1.7,1.9,3,2.4c9.1,3.3,16.7,9.1,24.5,14.5c2.1,1.4,2.1,3.4,1.4,5.6C467.1,418.9,466.1,419.9,467.2,421.2z"/>
<path class="st10" d="M145.3,363.9c-8.8-2.1-14.2-8.4-19-15.4c-3.9-5.6-7.9-11.1-12.2-16.4c-0.9-1.1-0.7-1.2,0.3-1.6
	c0.6,0,1.3,0,1.9,0c0.9-0.6,1.6-1.6,2.8-1.6c3.7,0.1,4.4-2.1,4.7-5.2c0.2-2.9,0.8-5.8,1-8.8c0.2-2.9,1.5-3.8,4.1-2.9
	c1.8,0.6,2.9,2.2,4.3,3.4c1.7,1.3,1.7,2.9,1,4.9c-0.5,1.5,0.5,3.1,1,4.6c1.9,5.4,2.6,11.4,5.8,16.3c2.1,5.6,3.9,11.3,5.5,17
	C147,360.3,148.1,362.5,145.3,363.9z"/>
<path class="st11" d="M72.2,396.8c-4,0.6-7.9,0.7-10.7-2.9c-0.9-1.1-2-0.7-3.1-0.7c-9.3-0.3-18.5-1.4-27.4-4.7
	c-9.9-3.7-18.1-10.1-26.9-15.6c-1.6-1-2.1-2.7-0.9-4.5c1.1-1.7,2.9-2.4,4.4-1.4c3.8,2.6,8.6,3.5,11.9,6.7c1.5,1.5,3.5,0.8,5,1.9
	c3.8,2.7,8.4,3.7,12.3,6c3,1.8,6.3,0.9,8.9,2.5c4,2.3,9,0,12.8,3.2c0.6,0.5,0.7-1.7,2-1.5c1,0,1.4-0.8,2-1.4
	c0.8-0.7,1.7-1.6,2.9-0.9s0.9,1.9,0.6,2.9c-0.1,0.5-0.3,0.9-0.4,1.4c-0.6,3.6,0.5,5,4.1,5.1c1.8,0,3.5,0.1,3.8,2.4
	C73.4,396.1,72.9,396.5,72.2,396.8z"/>
<path class="st12" d="M70,518.6c-1.5-2.1-1-4.5-0.9-6.7c0.2-5.4,0.6-10.8,0.9-16.1l0,0c0.8-4.3,0.1-8.7,0.4-13
	c0.1-1.3-0.2-2.7,0.3-4c0.1-1.3,0.5-2.7,0.3-4c-0.8-5.1,1.2-9.1,4.9-12.3c-1.2,4-0.5,4.9,4.5,5.3c1.1-0.3,2.1-0.2,3.1,0.2
	c1.5,0.8,2.6,2,0.8,3.3c-2.3,1.8-3.6,3.5-1.4,6.2c0.2,0.2-0.2,0.7-0.5,0.9c-2.2,0.5-4.1-0.2-5.7-1.7c-0.7-0.2-1.4-0.4-3.1-0.8
	c2,1.3,1.5,3,2.7,4c0.4,0.4,0.6,1.2,1,1.4c1.2,0.5,3.3-1.4,3.6,0.9c0.2,2-0.1,4.4-1.1,6c-2.6,4-1.6,8.6-2.2,12.8
	c-0.5,3.2-0.4,6.5,1,9.9c1.6,3.5-2.8,7.4-6.5,6.1C70.2,516.3,70.1,517.2,70,518.6z"/>
<path class="st13" d="M163.9,358.4c-1,2.2,1.2,4.1,0.4,6.3c-0.1,0.3,0.1,0.7,0.1,1.1c0,1.1-0.7,2-1.5,1.2c-2.2-2.2-6.9,2.5-7.3-2.1
	c-0.4-5.1,0-10.4-0.6-15.6c-0.1-0.9-0.7-2.2,0.8-2.9c0.5-0.2,0.6-0.9,0.3-1.2c-3.6-3.3-2.9-8.4-5.4-12.2c-1.4-2.1-0.3-5-1.9-7.2
	c-0.6-0.8-0.2-1.1-2-1c-3.4-2.8-5.2-6.6-7.2-10.3c-0.8-1.4-1.5-3.9,2-2.9c6.9,2.9,10.7,8.8,14.1,14.9
	C161.1,336.3,163.8,347,163.9,358.4z"/>
<path class="st13" d="M140,341c-2.5-3.6-3.4-7.6-4.4-11.8c-0.6-2.8-1.7-5.6-2.7-8.3c-0.3-0.9-1.4-1.7,0.6-1.8c1,0,0.8-1,0.4-1.3
	c-1.8-1.8-3.4-3.8-5.8-4.7c-1.6-0.7-2.4-0.6-2.4,1.9c0.1,4-0.7,8-1.3,12c-0.3,2-1.6,3.2-3.9,3.1c-1.4-0.1-2.9,0.4-4.3,0.6
	c1.6-2.7,0.9-5.8,1.1-8.7c0.3-5.2,0.7-9.9,6.5-12.9c2-1,3.7-1.9,5.9-1.9c-0.3,2.2,0.7,3.2,3,3.6c5.1,0.9,8,4.5,9.6,9
	c1,2.8,4.1,4.1,4.4,7.2c-4.1,2.1-4.1,2.1-1.8,6.9c0.6,1.3,1.7,2.6-0.5,3.5c-0.5,0.7-0.8,1.6-1.9,1.6c-2.5-2-2.4-5.2-3.5-7.9
	c-0.6-1.4-0.8-3-1.4-3.8c1.2,3.9,3.2,8.2,3,13.1C140.5,340.7,140.3,340.9,140,341z"/>
<path class="st14" d="M475.9,432.3c1.5-2.4,2.9-4.9,4.4-7.3c1.4-0.4,1.4,0.8,1.7,1.6c0.3,4.5,0.7,4.7,6.6,2.9
	c1.8-0.4,3.2,0.7,4.8,1.3c5.6,2.1,11.5,2.9,17.4,3.6c0.7,0.2,1.4,0.5,2,0.8c2.1,1.2,4.2,2.7,6.8,1c0.5-0.1,1,0,1.5,0.3
	c1.5,2.9,4.2,2.5,6.8,2.4c2.4,0.7,4.9,1.4,7.5,1.3c2.9-0.1,5.6,1.1,8.2,2.4c-0.3-0.8-1.5-1.2-1.2-1.8c0.7-1.5,2.1-0.5,3.2-0.5
	c3.6-0.2,6.3,1.9,9.5,3.1c-2.9,2-5.9,3.8-9.7,2.4c-0.9-0.3-1.9,0.1-2.7,0.7c-0.7,0.6-1.8,0.9-2.3,0.2c-3.1-4.2-8.1-2.4-12-4
	c-8.1-3.4-17-3-25.2-6.5c-3.3-1.4-7.7-1.5-11.7-1.5c-3.3,0-6.5-0.2-9.8-0.3c-0.5,0-1-0.1-1.1-0.7c-0.7-5.1-2.5-0.5-3.8-0.4
	C476.3,433,476,432.7,475.9,432.3z"/>
<path class="st15" d="M246.4,299.6c0.2-1.1,0.7-1.6,1.7-0.8c1.2,0.9,2.4,1,3.7,0.7c2.8,0.1,5.3,1.3,7.9,2.3
	c6.3,4.6,12.3,9.7,19.8,12.4c-2.2-0.9-4.2-1.9-6.3-3c-2.1-1-4-2.4-5.9-3.8c-0.7-0.5-1.6-1-0.8-2c0.3-0.4,0.9-0.3,1.3,0
	c3.9,2,7.7,4.2,11.7,6c2.8,1.3,5.6,3.6,9.1,1.4c0.7-0.4,2.3,0.5,3.5,0.8c-4.6,0.6-4.4,0.6-3.7,6c0.3,2.4,0.1,4.9-0.2,7.3
	c-0.1,0.9-0.9,2-2,1.7s-0.7-1.4-0.5-2.2c0.7-1.8-0.5-3.8,1-5.6c0.9-1.2-0.5-2.2-1.6-2.9c-0.6,0.8,0.3,3.3-2.5,1.7
	c-6.5-3.4-12.3-8-19.4-10.4c-3.9-1.3-7.8-2.6-11.6-3.9c-0.7-1.6-1.4-3.3-3.4-3.8C247.3,301.4,246.5,300.7,246.4,299.6z"/>
<path class="st2" d="M155.6,381.4c-5.1-1.5-10.1-3.2-15.3-4.3c-6.6-1.4-11.6-5.4-16.4-9.5c-4.8-4.2-8.1-9.8-12.3-14.5
	c-3.4-3.9-6.2-9-11.5-11.2c-0.9-0.4-1.4-1-1.4-2c0.3-0.6,0.9-0.5,1.5-0.6c1.7-1.1,3.1-0.1,4.3,0.8c2.9,2.2,5.4,4.7,7,8.1l0,0
	c1.4,0.8,2.4,1.8,3.3,3.3c6.1,10,13.9,18.1,25.4,22c1.8,0.6,3.6,0.7,5.4,1.1c1.2,0.3,2.8,0.4,2,2.5c1.7,1.3,3.8,1.7,5.7,2.1
	C154.6,379.5,155.5,379.9,155.6,381.4z"/>
<path class="st2" d="M73.1,395.5c-0.8-1.3-1.8-1.8-3.5-1.6c-4.5,0.4-6.8-2.9-5.1-7.1c0.3-0.9,1.6-1.8,0.6-2.5
	c-1.2-0.9-1.7,0.9-2.6,1.3c-0.6,0.3-1.2,2.4-2.1,0.2c2.1-3.8,5.5-5.1,9.6-5.1c1.4,1,3.9-0.2,4.4,2.4c0.6,0.4,1.1,0.9,1.7,1.3
	c3.2,1.6,3.5,2.9,1.2,5.5c-1.1,1.2-2,2.4-2.2,4.1C75.3,395.6,74.5,396,73.1,395.5z"/>
<path class="st16" d="M368.9,543.5c2.7,0,5.4,0.1,8.1,0.1c0.3,0.5,0.2,0.8-0.4,1c-4.1-0.1-8.2,0.4-12.2-0.2
	c-17.7-0.5-35.4-0.9-53.1-1.5c-27.5-0.9-55.1-1.5-82.6-1.7c-1.5,0-2.9-0.3-4.4-0.4c2.3-1.6,4.7-0.4,7.1-0.2c1.6,0.1,3.2,0,4.8,0
	c2.9-0.2,5.8-0.3,8.7,0c2.3,0,4.5,0,6.8,0c2.7-0.3,5.4-0.4,8,0.1c5.4,0,10.8,0.1,16.2,0.1c4.1,0.8,8.2,0.1,12.3,0.4
	c1.3,0.1,2.7-0.2,4,0.3c4.4,0,8.8,0.1,13.3,0.1c2.4,0.9,5-0.1,7.4,0.6c13.8,0.3,27.6,0.6,41.3,0.9c3.6,0.8,7.2,0.1,10.8,0.4
	C366.3,543.3,367.6,542.9,368.9,543.5z"/>
<path class="st17" d="M539.4,494.9c3.7,0.2,6.7-2.2,10.2-2.6c1.2-0.1,0.2-3.4,2.8-2.5c0.4,0.1,1,0.1,1.5,0.1
	c1.1,0.1-1.2,2.9,1.6,1.9c2.6-0.9,7.1-0.9,7.6-2.4c1.6-4.5,5.7-1.8,7.8-3.8c0.6-0.5,1.8-0.6,2.8,0.4c-2,2-5.2,0.7-7.4,2.7
	c1.4,1.6,2.9,0.3,4,0.1c1.6-0.3,3.5-0.8,4.6-1.9c0.9-0.9,4.9,0.8,2.8-2.9c0.9-0.5,1.9-1.5,2.6-1.3c2.9,0.7,4.5-1.3,6.7-3.2
	c-0.9,4.8,2.4,0.9,3.3,2.1c0.2,0.2,0.2,0.4,0.1,0.6c-4.5,2.4-8.7,5.2-13.7,6.7c-3.4,1-6.8,0.9-10.2,2.1c-7.7,2.6-16.2,2.1-24,4.7
	C541.2,496.2,540.1,496.5,539.4,494.9z"/>
<path class="st18" d="M225.8,310.7c-1.4,1.5-2.2,3.9-5.1,2.8c-0.4-0.1-1.3,1-1.8,1.6c-6.1,7.6-10.9,16.1-15.5,24.6
	c-0.7,1.4-1.6,2.6-3.3,4.3c3.1-8.8,7.8-15.8,12.1-22.9c1.8-3,2-6.6,4.1-9.4c-0.2-0.1-0.5-0.1-0.7-0.2
	C218.7,308.1,222.3,310.1,225.8,310.7z"/>
<path class="st19" d="M512.8,436c-0.5-0.2-1-0.5-1.5-0.7c-1-0.7-2.1-0.3-3.1-0.4c-1.8-0.1-2.2-1.1-1.5-2.6c0.8-0.4,1.6-0.5,2.5,0
	c7.4,1.3,14.5,3.4,21.6,5.6c4.9,1.5,9.9,1.3,14.8,2.3c-0.8,0.1-1.6,0.2-3.1,0.4c2,0.6,3.7,0.9,4.3,3.7c-6.5-2.7-13-2.8-19.1-4.7
	c-2.4-0.5-5.1-0.3-6.7-2.9c-0.5,0-1,0-1.5,0C517.1,438.2,515,436.4,512.8,436z"/>
<path class="st20" d="M363,358.6c-2.3,1.1-4.1,3.2-7.1,2.5c-1-0.2-1,1,0.5,3.4c-1.8,0.8-3.9,2-2.6-1.8c0.1-0.2,0-0.7,0-0.7
	c-3.8-0.3-1.7-3.8-3.1-5.5c-0.2-0.2-0.1-0.5-0.5-0.7c-1.8-0.8-1.8-1.3-0.2-2.7c-0.9-1.1-2.8,0.7-3.5-1.2c0.8-2.1,3.8-0.4,4.8-2.4
	C354,354.1,357.9,357.2,363,358.6z"/>
<path class="st21" d="M146.8,326.9c-1.9-2.4-4.5-4-5.5-7.5c-1.3-4.6-5.3-7.8-10.2-8.3c-5-0.5-2.6-2.2-1.3-4.1
	c4.3,0.4,8.1,2.2,11.8,4.4c-2.1-0.1-1.8,1.2-1.2,2.3c1.3,2.3,2.6,4.6,4.2,6.8c1,1.3,1.9,2.5,2.3,4.1
	C147,325.4,147.9,326.2,146.8,326.9z"/>
<path class="st22" d="M509.2,432.3c-0.8,0-1.6,0.1-2.4,0.1c-2.1,1.4-4.5,0.9-6.7,0.5c-2.4-0.4-4.8-0.7-7.1-1.4
	c-1.6-0.1-2.6-1.9-4.4-1.5c-1.6,0.8-3.3,0-5,0.1c-2,0.1-1.9-1.8-2.3-3.1c0-0.8,0.1-1.6-0.8-2.1c0-0.3,0.1-0.6,0.1-0.9
	c8.7,3.7,18.1,4.8,27.1,7.5C508.1,431.8,508.6,432,509.2,432.3z"/>
<path class="st5" d="M111.4,348.2c-2.8-1.8-4.3-4.9-6.9-6.9c-1.2-1-2.7-1.7-4.3-1.9c0.4-1.7-2.4-2.4-1.4-4.4
	c5.5,1.6,11.3,6.3,13.4,10.9c0.9-1.1,1.7-2.1,2.5-3.1C115,345.2,115,345.2,111.4,348.2z"/>
<path class="st23" d="M87,448.5c-1.9,4.3-7,5.2-11.8,2.2c0.2-1.8-0.3-3.6,0.7-5.3c1.3,3.5,4.7,2.2,7.2,3
	C84.2,448.8,85.7,448.5,87,448.5z"/>
<path class="st20" d="M374.1,358.6c-1.7-0.7-3.6,2.9-5.1-0.4c-1.8,1.2-1.5,3.2-1.4,4.7c0,0.8,0.2,1.5-0.1,2.3l0,0
	c-2.1,0.4-4.2,0.7-6.7,1.1c0.8-2.1,0.8-3.9,3.4-3.9c1.1,0,1.8-1.2,1.8-2.4c0-1.6-1.3-1.4-2.3-1.6C367.1,357.1,370.6,356,374.1,358.6
	z"/>
<path class="st24" d="M267.8,305.5c-1,0.1-2,0.2-0.5,1.2c3.2,2.3,6.6,4.1,10.1,5.8c1.3,0.6,2.6,1.3,3.6,2.4
	c-8.2-2.6-15.7-6.4-21.4-13.1C262.5,303,265.6,303.3,267.8,305.5z"/>
<path class="st17" d="M185.5,540c3.3-0.3,6.7,0.1,10.1-0.7c1.7-0.4,3.6,0.2,5,1.4C195.6,539.9,190.5,541.1,185.5,540z"/>
<path class="st25" d="M70.7,478.7c-0.1,5.7,0.7,11.4-0.6,17C70.2,490,69.2,484.3,70.7,478.7z"/>
<path class="st5" d="M75.9,360c0,3.3,0,6.5-0.1,9.8C74.9,366.6,74.9,363.3,75.9,360z"/>
<path class="st17" d="M206.6,540.6c3-1.1,5.9-1.3,8.9,0.1C212.5,540.7,209.5,540.7,206.6,540.6z"/>
<path class="st17" d="M470,543.5c-0.7,0-1.5,0-2.2,0.1c-4.2,0.9-8.4-0.2-12.6,0.6c-2.4,0.1-4.9,0.1-7.3,0.2
	c-8.1,0.4-16.3,0.6-24.4-0.1c-0.1-2.3-2.7-3.1-3.3-5.2c-0.3-0.9-1.2-0.1-1.8,0.3c-0.8,0.5-1.6,0.6-2.3-0.1c-0.4-0.4-0.6-0.9-0.2-1.3
	c0.7-0.7,1.7-1.3,2.7-1c3.6,1.2,3.1-1.3,3.2-3.4c0-0.8-0.6-1.3-1.1-1c-2.5,1.2-4.7-0.2-7-0.8c-1.1-0.3-2.2,0.1-2.9,1.1
	c-0.6,0.9,1.1,0.8,0.8,1.8c-2.3-0.6-4.9-0.4-6.4-2.8c-0.8-1.2-1.9-1-2.9-0.5c-2.3,1.3-4.9,0.4-7.4,0.7c-1.6,0.2-3.7-0.6-3.8-3.1
	c0-0.5-0.5-0.9-1-0.9c-0.9,0-0.8,0.6-0.7,1.3c0.5,3-0.5,3.5-2.9,1.6c-0.5-0.4-1.2-0.6-1.6,0c-1.5,2.7-4,0.9-5.7,0.8
	c-1.8-0.1-3.3-2-5.6-0.7c-1,0.5-1-1.4-1.4-2.2c-0.4-0.9-0.5-2,0.5-2.7c0.8-0.5,1.3,0.4,1.8,0.8c0.6,0.5,1.2,1.6,2.1,1.1
	c1.1-0.6-0.2-1.8,0.1-2.7c1.6,0.4,1.7,1.7,2,2.9c0.2,1,1,1.5,1.9,1.2s0.8-1.1,0.4-1.9c-0.9-2.1-0.6-3.7,1.5-5
	c1.2-0.7,1.3-1.7-0.2-2.5c-2.3-1.2-4-2.7-7.3-2.3c-2.4,0.3-5.2-1.2-8.2-0.8c-1.4,0.2-2.3-0.1-2.4,1.7c0,1-0.1,2.3-1.5,1.9
	c-1-0.3-2.6,0.1-2.9-1.6c-0.1-0.5-0.2-1-0.4-1.4c-0.6-1.2-1.2-2.5-2.7-2.8c-1.3-0.2-1.5,1-2,1.8c-1,1.5-0.8,3.3,0.5,3.9
	c5.3,2.5,3.2,5.4,0.8,8.5c-0.1,0.2-0.3,0.4-0.6,0.9c-0.7-1.8-1.6-3.1-3.3-1.2c-0.5,0.5-1.4,0.8-2.1,0.4c-2.7-1.9-6.4-0.1-9.1-2.4
	c-0.4-0.3-0.9-0.3-1.3,0.1c-2.1,2.1-10.7,1.6-12.4-0.7c-0.2-0.2-0.3-0.8-0.2-0.9c0.3-0.3,0.9-0.7,1.2-0.5c0.7,0.3,1.2,1.2,1.8,1.2
	c1.2,0,3.2-0.2,3.5-0.9c0.5-1.1-1.1-1.5-2.1-2.1c-2.4-1.6-2.3-4.6-2.2-7.3c0-0.5,0.7-1,0.3-1.7c-0.3-0.4-8.1-1.5-8.5-1.2
	c-1.1,0.7-0.6,1.5,0.1,2.1c1.2,1.1,0.7,2.2,0.1,3.3c-1.1,1.8-2.2,3.2-3.5,0c-0.8-1.9-9.2-3.5-10.9-2.2c-0.6,0.5-0.8,1.2-0.9,1.9
	c-0.1,0.9,0.3,2.2-0.9,2.5c-1.4,0.4-1.6-1.2-2.4-1.8c-2.6-2-4.3-5-7.8-5.8c-1.8-0.4-3.1-0.4-4.5,1.3c-3.3,4.2-4.3,4-7-0.5
	c-0.2-0.4-0.4-0.9-0.8-1.3c-0.5-0.5-0.9-1.3-1.8-0.7c-0.8,0.6-0.4,1.4,0.3,1.8c3.1,2.2,1.5,6,2.4,8.9c0.7,2.3-2.3-0.8-3.8,0.3
	c1.6,2.5-1.4,4-1.5,6.4c-0.1,1.7-3.8,1.4-5.1-0.6c-0.9-1.4-1.2-2.9-2.8-0.5c-0.8,1.3-3.2-1.7-3.8,0.2c-1.1,3.4-3.7,1.8-5.6,2.2
	c-1.4,0.3-2.4-0.5-2.2-2.1c0.2-1.2,1.6-2.7-0.6-3.3c-1.8-0.4-1.4,1.6-2.1,2.5c-0.3,0.4-0.5,0.8-0.9,1.3c-0.7-1-1.3-1.9-1.9-2.7
	c-0.5-0.5-1-1.3-1.8-1c-0.9,0.4-0.4,1.2-0.2,1.9c0.7,2.7-1.1,3.1-2.9,2.8c-2.9-0.5-6.1,1.2-8,0.5c-3.5-1.3-7.4,1.8-10.4-1.3
	c-0.9-0.9-2.3-0.8-3.1-0.1c-2.8,2.5-5.5,0.9-8.5,0.4c-2.3-0.4-5.4,1-6.5-2c-1.2-3.4-5.1-4.3-6.2-7.6c-0.4-1.1-4.7,0.1-5.5,1.7
	c-1.2,2.8-3.2,4.2-6.2,4.2c-1.7,0-1.8,2.7-4.1,2.5c0.4-2.9,1.4-5.5,3-8.1c-1.5-1-3.7,0.9-5-1c3.6-3.2,3.6-3.2,4.9-10
	c-1.5,2.4-3,3.7-5.4,3.3c-0.6-0.1-1.3,0.1-1.6-0.6c-0.4-0.9,0.4-1.3,0.9-1.8c0.5-0.4,1.1-0.6,1.5-1c1-1,3.3-1.2,2.7-3
	c-0.6-1.9-2.3-0.4-3.5-0.5c-1-0.1-2-0.5-2.5-1.4c-2.1-3.7-5.1-2.3-7.5-1c-1.6,0.9-3.1,1.2-4.8,1.2c-1.7-0.1-3.6-1-5,0.9
	c-0.7,0.9-1.6,0.1-2.2-0.5c-1.2-1.3-2.6-2.2-4.3-2.7c-1.3-0.3-1.5-1.2-1.5-2.5c0.2-3.1-1.7-4.5-4.6-3.7c-2.2,0.7-4.7,0.1-6.7,1.7
	c-0.6,0.5-1.6-0.1-1.9-0.7c-0.7-2-1.6-3.6-3.5-4.8c-0.6-0.4,0.8-1,1-1.7c1.6-1.7,3.8-0.9,5.6-0.8c5.2,0.2,10.5,0.4,15.7,1.4
	c-1.4-0.3-2.1-0.9-0.8-2.2c0.7-0.7,1.6-0.6,2.4-0.3c6.5,1.8,12.9,0.5,19.3-0.2c1.4-0.2,2.7,0,3.9,0.7c2.5,1.6,5.1,2.2,8.1,1.9
	c0.5,0.1-0.1-0.7,0.1-0.2c0,0.1,0,0.2-0.3,0.2c-1.1,0-2.2,0-3.3,0c-0.8,0-1.5-0.1-1.5-1.1c0-0.9,0.8-1.4,1.5-1.3
	c4.8,0.7,10-1.7,14.5,1.8c0.8,0.7,1.9,0.3,2.8,0c0.9-0.3,2.1-0.7,2.9-0.3c3.8,2.4,7.7,0.6,11.6,0.7c0.2,0,0.6-0.1,0.7,0
	c4.1,3.2,9.1,0.8,13.5,2.3c2.7,0.9,5.7,0.4,8.2,2.7c0.8,0.8,2.7,1.7,4.3-0.3c1-1.2,3-0.2,4.5,0.2c-4.5-0.7-9.1-1-13.5-2.1
	c-5.4-1.3-11.1-2-16.5-2.5c-5.7-0.6-11.4-2.1-17.3-1.1c-0.5,0.1-1,0.2-1.4,0c-4.7-3.1-10-1.1-15-1.4c-9.2-0.6-18.4,1.2-27.7,0.2
	c-5.8-0.6-11.7-0.3-17.6-0.6c-7.2-0.5-14.3-1.5-21.5-2.6c-3.8-0.6-7.6-0.7-11.3-1.2c-2.4-0.3-4.9-0.4-7.2-1.4
	c-1.5-3-0.8-4.3,2.3-3.9c4.5,0.5,9.1,0.7,13.5,0.9c5.2,0.2,10.4,0.6,15.6,1.1c3,0.3,4-2,2.5-5c3.7-0.5,7.3,1.1,11.1,0.7
	c0.7,2.1,1.5,0.6,2.2,0c0.5,0,1,0,1.5,0c0.4,0.5,0.5,1.7,1.3,1.5c2.7-0.8,5.8,0.5,8.3-1.5c3.2,0.2,6.4,0.5,9.6,0.7
	c2.3-0.9,4.6-1.5,7.1-1.6c2-0.1,2.7,0.7,2.9,2.4c0.2,1.3,0.3,2.1,2.4,2.3c5.6,0.5,11.1,1.1,16.7,0c1.5-0.3,3,0.8,4.6,0.4
	c-2.2-1.6-4.8-0.7-7.2-1.1c-1.5-0.2-3.7,0.6-3.7-2.3c3.1-1.8,6.6-1.7,10-1.3c5.9,0.8,12,0.4,17.9,2c1.5,0.4,3.2,0.5,4.2,2.1
	c-1.4,2.4-3.4,2.9-6.2,1.7c-2.8-1.2-5.7-1.9-8.7-0.9c-0.1,0.3-0.5,0.1-0.5,0.5c0.3-0.2,0.5-0.4,0.8-0.6c0.2-0.1,0.5-0.3,0.7-0.2
	c3.4,2.2,7.5,1.6,11.1,2.9c5.4,2,11,2.2,16.5,2.8c6.6,0.7,13.1,1.5,19.7,2.2c1,0.1,1.9,0,2.9-0.4c1.1-0.4,2.2-0.5,3.2-0.1
	c7.3,2.7,15.4,2.4,22.6,5c3,1.1,6.6,0.8,9.1,3.2c0.4,0.4,1.3,0.6,1.7,0.3c3.2-2.4,6.7-0.1,10-0.6c1.8-0.3,2.9,0.8,3.4,2.5
	c1.1-1.2,2.2-2.5,4-2c2.4,0.7,5,1.3,7.2,2.1c5,1.7,9.7-0.3,14.5,0.1c2.4,0.2,2.4-1,2.7-2.5c2.8-2.6,5.9-1.1,8.7-0.3
	c2.2,0.6,4.2,1.3,6.4,0.7c0.5-0.1,1.1-0.2,1.5-0.1c6.5,2.9,13.5,1.3,20.1,2.3c1.1,0.2,1.8,0.6,2.1,1.8c-0.6,1.9-2.4,1.7-4.1,2.5
	c1.7,1,3,2.6,5.2,1.8c0.2-0.1,0.6-0.2,0.7-0.1c0.9,3.3,4.3,0.3,5.8,2.4c0.7,0.9,2.3,0.2,3-1s1.6-2.6,3.1-2.1
	c1.5,0.4,3.2,1.5,3.2,3.2c0,2.5,2.4,2.2,2.8,1.9c3.3-2.7,6.5-0.3,9.7-0.1c4.4,0.3,8.8,0.7,13.2,0.3c1.2-0.5,2.3-0.9,3.6-0.5
	c4.7,1.4,9.5,0.1,14.3,0.6c1.3,0.1,2.8,0,4-0.6c2.5-1.4,5.2-1.2,7.9-0.9c3.6,0.4,7.1-0.1,10.4-1.5c1.3-0.6,2.9-0.8,3.1-2.7
	s-2.1-1.4-2.7-2.6c4.2-3.6,8.9-6.2,14.1-8c0.5,0.6,0.6,1.3,0.4,2c-0.4,0.8-1,1.4-1.6,2.1c-2.1,3.1-5.2,5.2-7.9,7.6
	c-0.8,1.2-2,2.4-0.7,3.8c1.3,1.4,2.4,0,3.5-0.6c1.7-1,3.5-1.5,5.5-0.9c-0.1,2.1-2.8,1.2-3.4,2.8c0.5,0.9,1.4-0.3,1.9,0.4
	c-2,1.1-2,1.1-4-0.6c-0.9,1.9,1,2.1,1.8,2.9c-2.6,1.9-5.7-0.6-8.3,1.1c-2.3,2-5.1,1-7.3,1.4c2.3,0.2,4.9-0.7,7.5,0
	c1.1,2.6,0.1,5-0.8,7.4l0,0c-1.2,1.5-0.7,3.4-1.5,5.2c7.4,0.2,13.1-4.1,20.1-5.6c-1.5-1.6-4,0-4-2.1c0-1.3,1.7-1.9,2.7-2.7
	c0.6-0.4,1.6-0.8,1.7,0.3c0.4,3,2.3,1,3.6,0.9c-0.5,1.8-2.6,1.3-2.9,3.2c6.1-0.6,11.6-2.6,17.3-4.4c-3.7-0.8-7.1,1-11.5,1.2
	c2.7-1.6,3.8-4.3,7-3.4c0.8,0.2,1.7-0.3,2-1.2c0.4-1.1-0.5-1-1.1-1.4c-1.1-0.6-1.1-1.6-0.3-2.5c1-1,2.3-0.9,2.7,0.4
	c0.8,2.3,2.9,2.4,4.5,2.4c2,0,3.5,0.6,3.6,2.2c0.1,1.7-2,0.5-3,1.2c-0.3,0.2-0.6,0.4-1.3,0.8c1.8,0.6,3.2,0.3,4.7,0
	c7.7-1.2,15.3-2.6,23.1-3.4c3.4-0.4,6.8-1.6,10.1-2.5c0.8-0.2,1.5-0.7,0.7-1.9c-1.1-1.6,0.6-2.8,1.3-3.8c0.9-1.2,1.6,0.3,2.2,0.9
	c0.7,0.6,1.4,0.1,2-0.1c0.9-0.3,1.9-0.8,2.8-0.7c6.1,0.7,11.9-0.8,17.9-1.5c4.2-0.5,8.5-1.6,11.9-4.7c1.9-1.7,4.7-2,6.5-4.1
	c1.2,1.9,0.1,2.8-1.5,3.6c-1.8,0.9-2.6,2.1-2.3,4.4c0.3,2.1,0,4.4-3,4.8c-0.7,0.1-1.3,0.4-1.4,1c-0.8,6-6.4,6.9-10.3,9.6
	c-2,1.4-4.2,2.5-5.4,4.8c-3.2,1.9-7,2-10.3,3.7c-3.1,2.3-6.9,3-10.5,3.9c-4.6,0.7-9.1,2.3-13.8,2.4c-4.3,0.4-8.2,2.5-12.4,3.1
	c-0.8,0.1-1.3,0.7-1.7,1.3c-1.4,2.1-3.5,2.6-5.7,2.8c-6.4,0.7-12.8,1-19.2,1.6c-3.7,0.4-7.5,0.4-11.2,0.9c-1,0-1.9,0.1-2.9,0.1
	C476.5,543.8,473.2,542.6,470,543.5z"/>
<path class="st2" d="M226.5,456.6c-1.3-3-2.4-5.9-2.8-9.3c-0.4-2.9-2.9-5.4-5.4-7.2c-3.5-2.6-5.7-6.5-9.3-9.1
	c-4-2.9-8.1-3.4-12.4-3.7c-1.4-0.1-1.8-0.4-1.8-1.5c0-3.4-0.2-5.7-4.8-3.8c-1,0.4-3.1,0.6-4.7,0.7c-0.9,0.1-1.8,0.3-2,1.3
	c-0.2,1.2,0.7,1.9,1.7,2.2c1.5,0.5,2.6,1.3,3.6,2.8c-2.4,0.2-6.5-0.6-2.4,3.6c0.9,0.9-0.2,1.9-1.4,1.7c-1.5-0.3-3.1-2.9-4.5,0.2
	c-1.9-1.8-4.8-0.7-6.8-2.3c-1-0.9-2.1-1.1-3.3-0.1c-1.8,1.5-3.5,0.7-4.2-1c-1.3-2.8-4.2-3.6-5.9-5.6c-1.5,1.1,0.3,2.5-0.9,3.6
	c-1.4-0.1-3.8-3.5-4.4,1c-0.1,0.7-1.1,0.2-1.6-0.1c-0.7-0.4-1.2-1.2-0.4-1.8c1.6-1.2,2.3-3,4.1-4.2c6.5-4.1,13.2-8.2,19.4-12.9
	c2.3-1.7,5.8-1.8,8.2-3.5c5.5-3.7,10-8.7,14.8-13.2c3.7-3.5,7-7.6,11.5-10.3c1.7-1,2.9-1.6,4.3,0.4c2.3,3.3,6,4.6,9.6,5.5
	c2.4,0.6,4,1.5,5.2,3.5c0.3,0.5,1.1,1.1,1.4,1c2.9-1.2,4,1.6,5.9,2.4c2.6,1.1,5,2.1,4.6,5.6c-0.1,0.7,0.8,2,1.6,1.6
	c2.7-1.2,4.2,1.3,6.3,1.8c2.9,0.7,5.9,1.2,6.2,5c0,0.2,0.3,0.4,0.5,0.6c0.8,1.2,3.4,1,3,2.7c-0.4,2.1-1.5,4.2-2.8,5.9
	c-3.1,4.1-3,4.7,1.5,6.4c1.4,0.5,2.3,1.4,2.4,2.9c3.7,0.9,6.9,2.9,10.4,4.3c3,1.2,5.6,1,7.7-1.7c1-1.3,2.2-1.4,3.5-0.5
	c0.9,1.5,0.3,2.9-0.6,4c-1.2,1.5-0.4,2,0.9,2.7c3.8,2,8,2.8,12,4.3c6.1,3.3,13,4.5,19.2,7.3c1.3,0.6,2.8,0.9,4.1,1.6
	c3.7,1.1,7.5,2,11.2,3c1.4,0.4,2.9,0.4,4.3-0.1c1.3-0.4,2.6-0.6,3.8,0.4c0.6,0.5,0.7,1.2,0.3,1.9c-0.8,1.3,0.4,1.2,1.1,1.5
	c1.3,0.5,2.8,0.5,4,1.1c4.2,2.5,8.9,4.1,13.3,6.1c4.3,2,4.7,3.1,2.3,7.2c-1.7,3-4.1,5.5-6.1,8.3c-2.5,3.6-5.6,6.8-7.3,10.9
	c-0.7,1.8-1.8,3.5-3.6,4.5c-2.4,0.3-4.7,0.2-7.1,0.3c-0.4-0.1-0.7-0.2-1-0.4c-10.8-2.3-18.4-10.5-28-15.1
	c-9.7-4.6-19.6-8.5-29.8-11.6c-1.8-0.5-3.6-1.1-5.1-2.1c-4.6-2.9-10.4-2.6-15.1-5.5c-1.3-0.8-3.1-0.7-4.7-0.6
	c-4.8,0.4-9.2-1.2-13.8-1.9c-2.4-0.4-4.3-1.7-5.4-4c-0.9-1.9-2.3-3.4-3-4.8c0.5,0.7,1.2,1.8,1.8,3c0.7,1.1,2.3,2.5,0.6,3.9
	C229,458.4,227.6,457.9,226.5,456.6z"/>
<path class="st26" d="M340.8,495.7c4.8-9,11.4-16.6,17.2-24.9c1.6-2.3,0.3-3.3-1.6-4.1c-3.9-1.7-7.9-3.3-11.8-4.9
	c-1-0.4-2.1-0.7-2.3-2.1c-0.9-1-1.6-2-1-3.4c0.7-0.8,1.6-1.4,2.4-2.1c-0.9,0.3-1.3,1.1-2,1.7c-1.1,1.2-2.3,2.2-3.7,3
	c-1.1-0.3-2.2-0.7-3.4-1c0.3-1.7,2.8-0.8,2.6-2.7c1.4-2.8,2.3-6.3,6.6-5.8c2.5,0.1,4.7,2.8,7.6,0.5c1-0.8,1.9,0.5,1.5,1.9
	s-1.7,2.4-1.5,4.1c4.6,0.6,8.1-2.3,12.2-3.3c0.9-0.2,0.9-1.4,1.3-2.2c0.6-1.1,1.6-1.8,2.7-1.1c3,2.1,3.7-0.7,4.4-2.3
	c0.6-1.6,1.5-2.6,2.7-3.6c2.8-2.4,3.9-6.4,6.7-8.6c4-3.2,3.9-9.4,9.2-11.4c1.3,2.1,3.2,2.6,5.5,2.4c1.4-0.1,2.9-0.7,4,0.6
	c2.9,1.7,4.6,5,8.1,5.8c1.5,4.8,3.2,9.6,4.5,14.4c1.8,6.5,4.7,12.4,7.8,18.2c0.6,1.1,1,2.6,2.9,2.3c0.4-0.1,1.2,0.3,1.2,0.5
	c0.7,6.2,6.1,8.8,10,12.2c7.2,6,15.4,10.8,22.5,16.9c3.2,2.8,6.7,2.9,10.1,4c-4.1,2.9-8.9,2.1-13.4,2.7c-7.6,1-15.3-0.2-23,0.7
	c-2.7,0.3-5.4,0-8-0.4c-5.2-0.7-10.5,0.7-15.7-0.1c-7.1-1.1-14.3-1.3-21.5-1.8c-0.6,0-1.3-0.1-1.1-1c-0.3-0.4-0.8-1.1-0.9-1.1
	c-3.3,1.4-6.4-1.8-10-0.3c-2.1,0.9-5.4,0.4-7.7-1.1c-1.4-0.9-2.8-1.5-4.4-0.8c-3.7,1.6-6.7-1.3-10.1-1.7c-1.9-0.2-3.6-0.5-5.3,0.4
	c-1.2,0.6-2.5,0.2-3.8,0.1C341.7,496.4,341.2,496.1,340.8,495.7z"/>
<path class="st27" d="M226.5,456.6c0.7,0.1,1.5,0.2,2.2,0.4c0.7,0.2,1.3,0.2,1.6-0.3c0.4-0.6-0.2-1.1-0.5-1.6
	c-1.3-2.6-4.1-4.7-3.3-9c1.7,3.1,3.3,5.4,4.4,7.9c1.4,3.3,4.2,4.5,7.3,4.9c4.7,0.6,9.3,2,14.1,1.6c2.2-0.2,4.4,0.3,6,2.1
	c0.3,0.3,0.8,0.6,1.2,0.7c13,2.8,25.2,8.2,37.5,12.9c9.3,3.5,17.9,8.8,25.9,14.9c2.3,1.8,5,2.6,7.7,3.2c1.1,0.3,2.2,0.4,2.7,1.6
	c-3.1,2.1-7,1.6-9.8,0.8c-4.1-1.2-8-1.4-12.1-1.8c-6.1-0.5-12.1-1.9-18.1-2.8c-4.1-0.6-8.1-2.1-12.2-2.4c-8.3-0.7-16.4-1.9-24.5-3.7
	c-5-1.1-10.1-1.7-15.3-1.7c-3.4,0.1-6.4-1.5-9.6-2.1c-0.5-0.1-0.8-0.6-0.9-1.1c-2.5-2.1-5.7-2.2-8.7-2.3c-7.7-0.5-15.4-2.6-23.1-0.5
	c-2.2,1.6-4.6,1.4-7,0.7c-1.8-1.6-3.7-1.1-5.7-0.6c-0.2,0-0.3,0-0.5-0.1c-1.7-2.8-4.2-1.1-6.3-0.8c-1.2,0.2-2.2,0.9-3.3,0.1
	c0.4-0.9,0.5-1.7-0.6-2.1c-1-0.3-2.1-0.6-3.2-0.9c-2.8-0.8-5.7-1-8.4-2.7c-3.9-2.4-8.6-3.9-13.6-2.5c-0.6,0.2-1.2,0.1-1.8,0
	c-1.9,0-4.5-0.2-4.1-2.5s2.7-1,4.3-0.7c4.8,0.9,5.6,0.2,5.4-4.8c0-0.8-0.2-1.8,0.8-2.2c1-0.4,1.9,0,2.8,0.6c0.9,0.6,0.8,1.4,0.6,2.3
	s-1.5,1.3-1.3,2.7c2.2,0.1,4.3,0.4,6.5-0.2c1.9-0.6,3.6-1.3,1-3.3c-0.6-0.4-1.4-0.7-1.1-1.6c0.3-0.9,1.2-0.6,1.9-0.6
	c1.5-0.2,3.1,0.4,4.9-0.6c-1.5-1.6-3.1-2.3-4.9-2.6c-0.8-0.1-1.5,0-1.6-1s0.5-1.1,1.3-1.2c1.1-0.2,0.9-2.1,2.3-2
	c4.6-0.4,8.9,1.6,13.4,2c1.9,0.1,3.4-0.5,5.2-0.5c12-0.2,24,0.8,35.7,3.3C223.3,456.5,224.9,456.6,226.5,456.6z"/>
<path class="st28" d="M317.3,452.2c-6.7-2.4-13.3-5-20.1-7.2c-1.3-0.4-2.2-1.5-3.5-1.7c-0.2-0.2-0.3-0.4-0.2-0.6
	c0-0.2,0.1-0.3,0.1-0.3c1.2-0.8,2.3-0.6,3.3,0.3c-0.5-0.9-1.4-1.6-1.5-2.7c0.1-1.6,1-1.8,2.3-1.3c1,0.4,2,1,3.1,1.5
	c-0.8-1-1.5-1.9-1.9-2.9c-0.8-1.6-0.4-2.7,1.5-2.7c3.2-0.1,4.2-1.5,3.1-4.5c-0.1-0.3-0.3-1-0.1-1.1c2.5-1.4,1.7-4.9,4.1-6.3
	c0.8-0.5,1.1-0.9,0.9-1.7c-0.1-0.6-0.2-1.4,0.4-1.6c4.1-1.2,5.7-5.1,7.4-8.2c1.3-2.4,2.6-5.4,4.1-7.3c1.9-2.6,3.2-5.5,5.2-7.9
	c2.1-2.5,2.1-6.2,5-8c7.2,0.3,13.5,3.6,20.1,5.9c2,0.7,4.6,0.7,5.1,3.6c0.7,1,0.9,2,0,3c-5.7,7.5-9.8,16-15.6,23.5
	c-3.3,4.2-6.3,8.7-9,13.3c-1.6,2.7-3.7,4.4-5.8,6.4c-0.4,0.4-0.8,0.5-0.5,1c0.7,1.7-0.2,2.5-1.8,2.9c-0.4,0.1-0.6,0.5-0.6,0.8
	C322.8,452.7,319.6,451.8,317.3,452.2z"/>
<path class="st29" d="M390.3,423.4c-2.2,2.8-4.6,5.6-5.3,9.3c-0.2,0.9-0.9,1-1.7,0.8c-0.5-0.1-1.2-0.2-1.3,0.3
	c-0.4,4.1-4.3,6.1-5.8,9.5c0,0.1,0,0.3-0.1,0.3c-3.2,2.2-4.2,6.2-7.1,8.8c-1.1,0-0.8-1-1.1-1.6c-0.3-0.8-1-1.2-1.7-1.1
	c-0.9,0.1-1.2,0.9-1.1,1.7c0.4,2.5-1,2.9-2.9,2.5s-3,1.3-4.4,1.9c-2.1,1-4.5-0.1-6.3,1.6c-0.4,0.4-1.3,0-1.6-0.6
	c-0.4-0.7-1.1-1.6-0.3-2.3c1.3-1.1,0.8-3.2,2.2-4.3c-1.4,0.8-2.8,2.2-4.2,2.2c-1.4,0-2.3-2.2-4.1-2.5c-2.1-1.1-3-2.1-0.2-3.8
	c1.9-1.1,2.6-3.6,3.7-5.5c2.7-4.2,5.8-8.1,8.4-12.5c1-1.7,2.4-3.4,3.7-5c3.8-4.3,5.5-9.8,8.8-14.3c1.5-2,2.7-4.3,5.1-5.4
	c6.7,2.5,13.5,4.6,19.7,8.1c2.3,1.3,1.3,3.4,0.6,5.8C392.9,419.8,390.1,420.8,390.3,423.4z"/>
<path class="st30" d="M293.6,442.6c0,0.2,0,0.5,0,0.7c-5.1-1.9-10.6-2.8-15.4-6.5c2.1-1.3,3.8-2.7,3.6-5.3c-1.4-1.5-1.7-3,0.4-4.1
	c0.3-0.2,0.8-0.3,0.8-0.6c-0.1-5.8,6-6.9,8.3-10.8c2.3-4.3,5.1-8.4,7.5-12.5c1.2-2,4.7-3.3,3.5-6.6c3.3-2.2,4.2-6.1,6.6-8.9
	c0.2-0.3,0.8-0.4,0.8-0.7c-0.3-3.3,2.6-3.3,4.4-4.3c4,1.5,8.1,3.1,12.1,4.6c1.3,0.5,2.6,1.4,4.2,0.6c0.2,1.4-0.7,2.3-1.6,3.1
	c-0.7,0.7-1.5,1.3-0.6,2.4c1.1,1.5,0,1.8-1.1,2.6c-1.6,1.1-3.2,3.4-3.2,4.6c-0.1,2.8-0.6,3.8-3.5,2.9c1.1,3.9,1.1,3.9-2.6,4.5
	c0.6,1.7,0.7,2.7-0.9,4.6c-1.6,1.8-7.1,3.3-3.6,7.8c-1.8,1.1-2.6-1.9-4.2-0.6c-0.4,1.3,2.1,1.8,1,3.4c-1,1.3-2.3,0-3.4,0.4
	c-0.5,1.3,1.1,1.9,1,3c-0.1,1.2,0.4,2.7-1.8,1.4c-1.6-0.9-1.9,0.1-1.5,1.6c1.4,5.1,0.4,6.3-5.2,5.9c0.7,1.2,1.3,2.3,1.9,3.5
	c0.5,1,2.4,1,1.9,3.1c-1.8-1.2-4.1-1.1-5.7-2.7c-0.9-0.9-1.2,0.1-1.3,0.8C295.3,441.4,294.1,441.6,293.6,442.6z"/>
<path class="st31" d="M373.4,403.6c-0.5,2.9-4.1,3.8-4.3,7.1c-0.1,1.1-2.2,2.4-2.3,4.6c0,1.3-2-0.3-2.9,1c1.4,1.6,3.1,3.6-1,3.8
	c0.4,2.9-4.2,3-3.3,6.5c0.6,2.3-2.4,0.6-3.3,1.8c-0.1,1.2,1.9,3.4-1.5,3.3c-1,0-1.1,0.7-0.9,1.6c0.2,0.6,0.1,1.2,0.2,1.8
	c-3.4-0.2-2.4,3.5-4,4.5c-1.3,0.8-1.9,1.2-1.3,2.7c0.2,0.5,0,1.1-0.6,1.1c-5.8,0-1.2,2.6-1,4.1c-1.4,0.3-3-1.1-4.2,0.2
	c-0.8,0.9,0.7,1.6,0.9,2.5c-1.4,1.1-5-0.3-4,3.7c0.2,0.8-1.8,0.8-2.6,1.5c-1.3-0.1-2.5-0.9-3.8,0.2c-1,0.9-2.4,0.7-3.5,0.4
	c-4.2-1.1-8.4-2.3-12.6-3.5c1.3-0.5,1.9-3.5,4.2-0.5c0.1-2.8-2.3-6.5,2.8-5c0.2-1.8-2.5-2.8-1.3-4.3c1.1-1.5,1.7,1.6,3.3,0.6
	c-1-2.1-0.6-3.6,2.4-3.3c0.6,0.1,1.5-0.1,1.2-0.9c-1-2.3-1.3-3.8,2.1-3c-1.3-3.3,2.4-3.9,3.2-6.1c0.1-0.3-0.7-0.8-1.3-1.5
	c1.6-0.8,5.1,0.6,3.7-3.1c2.8-0.7,2.5-3.8,4.2-5.6c1.5-1.5,4.3-2.9,3.9-6c0-0.3,0.1-1,0.2-1c3.6-0.2,1.6-5.2,4.9-5.6
	c-1.5-2.8,3.4-3.2,2.3-6c-0.2-0.6,0.4-0.9,0.9-0.8c2.6,0.5,1.5-1.5,1.8-2.5c4.7,2.5,10,3.5,14.6,6.3
	C370.9,404.4,372.3,403.7,373.4,403.6z"/>
<path class="st32" d="M279.7,331.2c-11.8-5-23.4-5.1-34.9,0.8c-4.8,2.5-9.8,4.4-14.1,7.7c-1.9,1.4-2.8,1-3.9-1.2
	c-1.2-2.4-1.8-5.3-1.2-6.5c2.1-4.5,4-9.1,6.4-13.5c2.3-4.4,4.6-8.8,7.4-12.9c0.5-0.8,2.6-0.2,1.8-1.8c2.2-1.3-1,4.2,2.2,1.7
	c0.2,0.4,0.5,1.2,0.7,1.1c7.4-1,13.4,2.8,19.6,5.8c6,2.9,11.9,6.1,17.8,9.2c3.6,1.8,3.3,4.6-0.7,8.9
	C280.6,330.8,280.1,331,279.7,331.2z"/>
<path class="st33" d="M314.3,382.9c-0.1,2.2-1.4,2.4-3.3,1.5c-0.2,1.8,2.8,5-1.8,4.2c0.1,2.2-2.5,3.8-2.5,5c0.1,3.1-2.2,2.6-3.7,3.3
	c0.2,1.7,4.5,4.8-1.4,4c-0.6-0.1-1.1,0.1-0.9,0.7c0.6,2.1,0.4,3.6-2.4,3.6c-0.5,0-0.4,0.8-0.2,1.2c0.7,1.3,0.8,2.3-1.2,2.4
	c-1.1,0.1-1.2,1-1.5,2c-0.7,2.1-2.1,4-3.2,6c-0.8-0.3-1.7-0.4-2.1-1.2c-1.1-2.2-2.9-1.4-4.8-1.3s-3.2,0.2-3.2,2.6
	c0,0.8-0.6,1.7-1.7,1.7s-1.4-1-1.4-1.8c-0.2-2.1-2.1-3.6-1.6-5.9c0.8-3.7,3-6.6,4.9-9.7c3.8-6.2,6.7-13,12.2-18
	c1.4-1.3,2.4-2.3,4.3-0.8c1.5,1.2,2.5,0.1,3.6-1.1c1.6-1.6,2.6-5,6-2.4C310.3,380.4,313.6,379.6,314.3,382.9z"/>
<path class="st34" d="M277.4,410.9c1.4,2.2,2.9,4.3,2.7,7.1c0.4-0.1,0.6-0.1,0.7-0.1c1.9-1.5-1-4.4,0.9-5.1c1.3-0.5,3.2,1.4,5.3,0.1
	c1.4-0.8,3.5-0.6,3.9,1.9c0.1,1,1,1.3,1.5,2c-0.7,0.4-2,0.7-1.9,1.5c0.6,3.4-1.9,2.5-3.9,2.6c2.8,4.4-0.6,3.2-2.7,3.1
	c-0.2,1.7,1.4,2.6,1.7,4.4c-2.7-0.5-4.6,0-3.5,3.2c-1,0.3-3.1-0.9-2.5,1.8c0.1,0.5-0.1,1.2-0.6,1.1c-2.3-0.2-4.2,2.2-6.9,0.7
	c-3.3-1.8-6.9-3-10.3-4.4c-0.7-0.3-0.9-0.7-1-1.4c2.7-1,3.2-3.8,4.6-5.8c2.5-3.6,5.3-7,7.6-10.8
	C273.9,410.7,275.9,411.8,277.4,410.9z"/>
<path class="st20" d="M356.4,365.9c1.7-0.3,1.4-3.4,3.9-2.7c0,1.3-1.7,2.1-0.7,3.9c0.8,1.3-1.4,1.5-2.5,1.8c-0.8,0.2-1.7,0-2.1,1.1
	c-0.5,1.5,1,1.3,1.6,1.9c5,4.3,11.5,5.2,17.2,8c2.3,1.1,3.1,3.6,3,6.2c-0.1,1.2-0.4,2.4-0.6,3.6c-0.1,0-0.3,0.1-0.3,0.1
	c-0.2-0.3-0.5-0.2-0.5-0.1c1,1.9,2.2,3.7,4.2,4.7c3.2,1.6,5.3-0.2,7.2-2.5c0.5-0.6,0.7-1.8,1.8-1.4c0.9,0.3,1,1.4,1.2,2.2
	c0.6,2.1-1.3,5.3-3.8,6.5c-1,0.5-2.1,0.8-3.2,0.8c-3.9-0.9-7.6-2-9.5-6.1c-0.8-2.1-2.8-3.7-2-6.6c-2,2.3-2.1,2.3-4.4,1
	c-0.7-0.4-0.8,0.2-1.1,0.4c-1.9,1.8-2.6,0.8-3.8-1c-1.9-2.9-4.5-5.5-5.7-8.8c-0.4,4.8-1.4,5.8-6,6c-1.8,0.1-3.6,0.4-5.5-0.2
	c-2.7-0.7-4.6-2.4-6.2-4.6c-3-6.7-2.2-9,4.4-12.6c1,0.8,0.6,1.9,0.7,3c-2.9,3-3,4.1-0.3,7.8c4.3,3.3,8,3.2,9.8-0.5
	c0.2-0.4,0.4-0.9,0.4-1.4c-0.1,0.5-0.4,0.8-0.9,0.9c-0.4-6.7-0.4-5.6-5.1-7.8C351.6,369.2,353.8,367.3,356.4,365.9z"/>
<path class="st35" d="M422.7,503c8.2,0.6,16.3-0.1,24.5-0.1c6.5,0,13.4-0.5,19.9-2.1c0.2,0.1,0.5,0.1,0.7,0c1.4,0.6,4.1-1.1,4.1,1.4
	c0,1.5,0,3.7-3.4,4.7c-4.6,1.3-8.8,2.4-13.5,1.4c-3.2-0.7-5.6,2-8.9,1.7c-4.6-0.4-9.4,0.8-14-0.3c-1.7-0.4-3.2,0.1-4.7-0.1
	c-3.2,0.4-3.9-2.9-5.9-4.2C419.9,504.5,421.8,503.6,422.7,503z"/>
<path class="st36" d="M151.2,374.1c2.3-1.6,4.6-2.6,7.2-0.8c1.5,1,2.9,1.7,4.2-0.3c0.4-0.6,1.3-0.1,2.1,0c1.9,0.3,3.7,1,5-1.5
	c0.4-0.9,3.3-2.7,4.5,0.7c0.3,0.8,1.7,2.6,2.3-0.2c0.3-1.3,1.4-0.2,2.2-0.1c2.7,0.4,4.8-1.2,4.9-4.2c1.1,0.8,0.8,3,2.9,2.7
	c1.7-0.3,2-1.3,2.5-2.6c0.6-1.5,2.7-1.7,3.7-1.3c2.3,1,1.4-1,1.9-1.7c1.4,0.2,0.7,2.5,2.5,2.3c-0.3-1.5-1.5-2.7-1.1-4.5
	c1.2,1.4,2.4,2.3,3.9,0.8c0.7-0.8,0.9-0.4,1.4,0c1.9,1.6,2.4-0.2,2.6-1.3c0.7-3.9,1.9-4.5,5.1-2.3c0.9,0.6,1.8,1.2,2.8,1.8
	c-0.2,0.3-0.7,0.6-0.7,0.8c0.9,3-0.3,4-3,5.6c-2.2,1.3-4.3,1.3-6.4,1.6c-2.3,0.3-4.3,0.6-6.1,2c-1,0.8-1.9,1.3-2.9,0.1
	c-1.1-1.3-1.3,0.4-1.6,0.4c-2.8,0.3-4.8,3.5-8,2.4c-1.8,3.5-5.8,0.5-8,2.7c-0.5,0.5-1,0.3-1.7-0.1c-1.6-0.9-2.9-1.2-4.5,0.6
	c-1.2,1.4-3.4-0.5-5.2,0c-1.3-1-3,0-4.4-0.7c-0.2,0-0.5,0-0.7,0c-2,0.2-3.8-0.8-5.7-1C152,376,151,375.4,151.2,374.1z"/>
<path class="st37" d="M531.4,478.8c5,1,9.9-0.2,14.7-1.2s9.5-1.8,14.4-2c2-0.1,4-0.5,5-2.5c1.8,0.9-2.4,3.9,1.8,3.3
	c0,0.3,0.1,0.8-0.1,1c-0.5,0.7-1.3,1-2.2,1.2c-1.3,0.2-1.5-1.5-2.8-1.5c-0.5,1.4-0.4,2.8,1,3.3c2.1,0.8,0.4,1.5,0.1,2
	c-0.6,0.8-1.3,0.5-1.6-0.4c-1.1-3.9-3.1-2.2-5.3-1.2c-2.4,1.1-4.1,3.4-7,4c-1,0.2-0.8,0.3-1-0.5c-0.3-1.3-0.9-2.4-2.4-2.4
	c-0.7,0-1.4,0.7-1.5,1.4c-0.1,1.9,1.4,2,2.6,2.1c0.4,1.4-0.7,1.2-1.2,1.6c-0.7,0.6-0.6,2.3-2,1.6c-1.2-0.6,0.3-1.4,0.3-2.2
	c-0.1-2-3.4-3.2-6.3-1.7c-2.2,1.2-4.8,1.6-6.7,3.4c0.2,1.3,1.6-0.6,1.9,0.7c-1,0.7-1.8,1.9-3.4,0.6c-1.6-1.3,0.4-2.2,0.1-3.2
	c-0.3-0.9,2.1-1.5,0.2-2.5c-1.6-2-3.6-1.6-5.7-1.1c-2,0.5-4.1,0.9-5.6-1.3c2.6-1.7,5.7-1.5,8.6-1.8
	C528.8,479.7,530.1,479.6,531.4,478.8z"/>
<path class="st38" d="M343.1,367.4c-0.1,0.3-0.1,0.9-0.3,1c-5.6,2.5-5.5,6.7-3.4,11.5c-0.3,0.2-0.6,0.3-1,0.3
	c-1.5-0.7-2.5-2-3.3-3.3c-1-1.6-1.1-4-4.3-2.6c-1,0.4-1.7-1.3-1.6-2.5c-0.3,0.3-0.2,0.8-0.2,1.3c-0.2,1.7-0.6,4.2-2.4,3.9
	c-2.3-0.4-1.1-2.7-0.6-4.2c0.4-1.3-0.5-2.6-0.3-3.5c0.1,1.4,0.5,3.1-0.2,4.9c-0.5,1.3-0.2,2.6,0.9,3.7c0.6,0.6,1.3,1.3,0.4,2.2
	c-4.2-0.6-7.7-2.9-11.1-5.1c0.8-1.6-2-1.7-1.4-3.3c0.7-0.7,1.8-0.7,2.7-1c2.7-1.1,4.5-2.7,4.1-6c-0.2-1.5,0.4-3.1,0-4.6
	c0-0.5-0.1-0.9-0.1-1.4c0-1.3,0.7-1.2,1.6-0.9c1,2.2,2.1,3.7,5.1,4.1c2.2,0.4,5,1.8,6.6,3.3C337,367.8,339.8,368,343.1,367.4z"/>
<path class="st39" d="M518.7,481.6c3,1.6,5.9,0.1,8.7-0.4s2.9,0.7,2.5,2.7c-1.3,0.7-2.5,1.4-3.8,2.2c-1,0.4-2.1-0.1-3.1,0.4
	c-2.3-0.9-4.2-0.4-5.8,1.5c-0.5,0.2-1,0.3-1.5,0.4c-3.3-0.9-6.6-0.1-9.7,0.5c-1.9,0.3-3.5,0.5-5.2-0.2c-0.3-0.5-0.2,0.6,0,0.2
	c0.1-0.2,0.2-0.1,0.3,0.1c1.3,1.6,0.1,2.2-1,1.9c-2.5-0.6-4.4,2.4-7,1c-0.4-0.2-0.5,0.9-0.6,1.4c-0.2,0.9-0.6,1.6-1.6,1.7
	c-0.7,0.1-5.5,2.8-6.2,3.6c-0.2,0-0.5,0-0.7,0c-1.2,0.6-2.5,1.6-3.9,0.4c-0.9-0.9-1-1.8,0.1-2.6c0.1-0.9,0.6-1.4,1.5-1.4
	c1.6-1.8,3-3.8,5.5-4.2c1-0.2,0.6-1.2,1.2-1.6c6.9-4.9,14.9-5.8,22.9-6.7C513.9,482.2,516.3,481.9,518.7,481.6z"/>
<path class="st40" d="M239.8,378.5c-6.2-4.4-11.8-10-19.9-11c2.8-3.4,9.4-2.4,11.1,1.8c1.2,2.8,4.3,2.8,6.4,4.5
	c8.9,7.5,18.3,14.3,26.9,22c2.2,1.9,4.7,3.5,7,5.3c3,2.3,5.1-0.1,6.6-2.3c1.9-2.7,3.8-5.2,6.5-7.2c-2.5,6.2-7.6,10.5-12.5,15
	c-0.1-1.6,0.6-4.1-2.6-3.7c-0.3-0.1-0.6-0.4-0.7-0.7c-1-1.8-2.6-2.8-4.4-3.7c-4.9-3.2-9.2-7.2-13.9-10.7c-1.6-1.2-3.8-1.9-4.6-4.1
	c-1-1.8-2.6-2.9-4.4-3.7C240.4,379.8,239.9,379.3,239.8,378.5z"/>
<path class="st5" d="M151.2,374.1c1,1.2,2.4,1.6,3.9,1.4c1.5-0.1,2.6,0.4,3.5,1.5c-1.6,1.2-7.6,1.1-8.5-0.5
	c-1.9-3.4-1.7,0.6-2.6,0.5c-0.1-1-0.8-1.3-1.7-1.5c-15.3-2.1-24.9-11.8-32.3-24.3c-0.6-1-1.4-2-2-3c4.3-2.1,4.5,2.3,6,4.1
	c3,3.7,5.4,8,8.6,11.7c0.5,0.6,1.1,1.5,2.1,0.8c1.4-0.9,1.8-0.1,2.5,1c1.9,2.8,4.3,4.4,7.8,2.8c1.6-0.8,1.8,1.2,1.9,1.7
	c0.5,1.3,0.2,1.4,1.2,1.3c2.1-0.3,3.9,0.6,5.5,1.5c1.2,0.7,2,1.5,2.9-0.2C150.4,373.3,150.8,373.7,151.2,374.1z"/>
<path class="st41" d="M475.9,432.3c0.3,0.3,0.5,0.5,0.8,0.8c-3,4.3-5.9,8.6-8.9,12.9c-0.3,0.5-0.8,1-0.5,1.6
	c0.4,0.8,1.1,0.2,1.6,0.2c5.4-0.1,11-1.1,16-0.2c6.4,1.1,13.3-1.3,20.1,2.8c-5.2-0.3-9.4,0.7-13.7,1.8c-5.7-0.9-11.4-0.3-17.1,0
	c-3.4,0.2-6.9,0.1-10,1.9c-0.5,0.3-1.2,0.1-1.7-0.4c1.1-6.7,5.6-11.5,9.7-16.4C473.6,435.6,473.9,433.3,475.9,432.3z"/>
<path class="st42" d="M345.3,383.6c2.2,0.8,4.6,0.1,6.8,0.1c1.7,0,3-0.8,3.1-3.2c0.1-1.7,0-3.5,1.1-5.4c0.1,5.9,5.7,8.7,7.6,13.8
	c0.6-1.8,2.7-1.8,3.8-3.3c1.2,1-0.5,2.3,0.3,3.6c1.6-1.2,2.3-3.5,4.9-4c-2.3,3.2,0.3,5.4,1,8c-0.9,1.1-1.7,2.5-3.5,1.2
	c0.3,1.7,3.9,0.3,2.8,3.1c-6.7-0.9-12.1-4.9-17.9-7.9c0.4-1,2.4-1.2,1.4-2.9c-0.8-1.3-2-1.1-3.3-0.9c-1.9,0.4-3.9,0.5-5.8,0.1
	C346.6,385.7,345,385.7,345.3,383.6z"/>
<path class="st43" d="M408.8,401.1c0.2,1.6-0.5,3.3,0.7,4.8c1.5,1.2,3.3,1.4,5.2,1.2c0.8-2,2-3.8,1.8-6.2c1.8-0.2,3.2,1,4.9,1.1
	c2.6,1.7,4.6,3.7,3.4,7.2c-0.8,2.4-0.8,4.8,1.4,6.3c2.5,1.8,3.5-1.1,5.5-2.7c0,2.9,0.3,4.4-3.1,4.3c-7.8-0.1-13.8-3.4-19-8.8
	C407.3,406.1,406.2,403.8,408.8,401.1z"/>
<path class="st44" d="M326.8,380c-3.9-4.2-1.1-8.9-1.2-13.4c0-0.6,0.6-1.1,1.3-1c0.5,0.1,0.8,0.8,0.5,1.2c-2.3,3,0.7,6.4-1,9.5
	c2.4-2.1,1.8-5.5,3.4-8.4c0.8,2.3-0.4,4.3,0.9,5.9c1.8-0.1-0.2-2.5,1.4-2.2c1.2,0.3,3,1.4,3,2.2c0,2.9,2.7,4,3.7,6.1
	c-0.7,1.1-1.6,1.7-2.9,1.7c-1.3-1.9-3.1-0.7-4.6-0.7C329.9,379.7,328,381.5,326.8,380z"/>
<path class="st45" d="M253.7,360.7c-3.5-0.6-6-6.6-3.5-8.9c3.2-2.9,6.9-5.5,11.1-7c1.8-0.7,3.9-0.2,5.8,0.8c-1,1-2.2,0.8-3.2,0.8
	c-1.5,0-3.2-0.5-3.9,1.1c-0.9,2.1-0.2,4.4,0.2,6.5c0.2,1.5,2-0.4,2.8,0.6c-1.4,2.9-2.1,2.9-4,0.9c-1-1.1-1.3-2.3-1.9-3.4
	c-0.7-1.1-1.7-1.9-3.1-1.5c-1.5,0.4-2.5,1.4-2.3,2.9C252.1,355.9,252.9,358.2,253.7,360.7z"/>
<path class="st46" d="M335.8,381.5c0.7-1,1.6-1.7,2.9-1.5c0.2,0,0.5,0,0.7,0c1.8,1.4,3.3,3.4,5.9,3.7c2.7,2.6,5.8,1.5,8.9,1.1
	c0.9-0.1,2.1-1.8,2.7-0.1c0.6,1.5,2.7,2.3,2.1,4c-0.5,1.6-2.3,0.8-3.5,1c-6.6-2.3-13.2-4.5-19.8-6.8
	C335.2,382.4,335.3,381.9,335.8,381.5z"/>
<path class="st2" d="M245.7,383.6c6.7,4.2,13.2,8.7,18.4,14.7c-0.2,1.5-0.9,1.4-2,0.7c-2.3-1.5-4.5-2.9-6.6-4.7
	c-2.8-2.4-5.3-5.3-9.1-6.6C245.3,387.3,244.7,385.2,245.7,383.6z"/>
<path class="st47" d="M462.6,453.6c8.6-4,17.7-2.7,26.7-2.9c1,0,2,0.1,2.1,1.4c-3.8,0.3-7.2,2.3-11.1,2.2
	c-5.9-0.5-11.8,0.6-17.7,0.7C462.5,454.6,461.9,454.1,462.6,453.6z"/>
<path class="st48" d="M383,399.1c5.4-1.9,6.7-3.7,5.7-8.3c-1.1,1.9-2.3,3.4-4,4.5c-1.9,1.2-3.7,0.3-5.4-0.5c0.2-0.7,0.9-0.5,1.3-0.7
	c3-0.4,6-0.8,5.3-5.1c-0.1-0.9,0.6-1.7,1.3-2.1c0.9-0.4,1.7,0.5,2,1.2c1.2,2.4,2.2,4.8,3.3,7.3c-1.8,1.7-2.9,4.1-5,5.5
	c-1,0.7-1.8,1.7-3.1,0.4C384.4,400.3,382.4,400.5,383,399.1z"/>
<path class="st49" d="M321,360.1c3,5.4,0.7,12.9-6.7,11.9c-2.4,1.3-4.2,0.3-5.9-1.5c1.3-0.7,1.3-2.9,3.2-3c1.6-0.7,3.2,0.6,5,0
	c2.9-0.9,3.9-2.6,3-5.8C318.2,359.6,320.7,360.8,321,360.1z"/>
<path class="st50" d="M271.2,397.8c-11.6-7.3-22-16.1-32.1-25.4C250.1,380.5,260.5,389.4,271.2,397.8z"/>
<path class="st51" d="M462.6,455.1c5-2,10.2-2,15.5-1.6l2.2,0.8c-3.2,1-6.4,2-9.6,3c-2.5-0.7-4.9-0.9-6.9,1.4
	c-0.9,1-2.3,1.3-3.5,0.1C460.7,457.3,461.8,456.3,462.6,455.1z"/>
<path class="st52" d="M460.4,458.8c1.8,0.3,2.8-0.6,3.9-1.9c2.2-2.4,4.4-1.7,6.4,0.4c-3.8,2.5-8.6,3-12.7,6.9
	C458.4,461.4,459.5,460.2,460.4,458.8z"/>
<path class="st53" d="M383,399.1c-0.2,1.2,3.1,0.1,1.4,2.3c-3.7-1.3-7.3-2.6-11-3.8c-0.2-0.8-0.7-1.3-1.5-1.3
	c-3.1-0.3-2.4-2-1.1-4.3c0.1,4.5,2.3,0.4,3.2,1.4C376.1,396.6,379.2,398.3,383,399.1z"/>
<path class="st2" d="M202.2,440.2c2,1.4,4.3,1.4,6.5,1.9c1.2,0.3,1.7,1.8,1.4,3c-0.4,1.5-1.7,1.2-2.7,0.9c-1.8-0.6-3.6-1.3-5.3-2.2
	c-0.9-0.5-1.5-1.6-1.2-2.8C201,440.5,201.4,440,202.2,440.2z"/>
<path class="st32" d="M246.4,299.6c1,0.5,1.9,1.3,2.9,1.5c2.8,0.5,3.3,2,2.3,4.4c-2.9,0.8-4.9-1.4-7.4-2.2
	C245,302.1,244.8,300.3,246.4,299.6z"/>
<path class="st54" d="M308.4,370.4c2,0.5,3.9,1,5.9,1.5c0.6,0.3,1.3,0.6,1.9,0.7c0.7,0.2,1.5,0.5,1.5,1.3c-0.1,1.2-1.3,0.6-2,1
	c-2.2-0.7-4.3-1.5-6.5-2.2C307.7,372.3,307.6,371.5,308.4,370.4z"/>
<path class="st55" d="M352.8,377.3c1.2-0.5,0.3-1.8,1.1-2.6c0.6,2.7-0.2,4.9-2.5,6c-3.3,1.6-6.1,0.4-8.5-2.1c-0.1-0.7,0.2-1.1,1-0.9
	C347.9,380.5,350.2,380.4,352.8,377.3z"/>
<path class="st2" d="M215.2,446c-1.4,0.9-1.1,3.5-3.2,3.8c-1.1,0.1-1.8-0.9-1.5-2c0.4-1.6,1.1-3.3,3.1-3.6
	C214.5,444.1,215.1,444.7,215.2,446z"/>
<path class="st2" d="M104.9,433.8c-3.5-0.4-6.8-0.8-10-2.5C98.7,430.2,102.2,429.7,104.9,433.8z"/>
<path class="st2" d="M105.7,441.1c2,0.9,4,1.8,6.6,2.9c-2.2,0.8-4.1,2.2-5.6,1.9C104.6,445.6,107.3,442.7,105.7,441.1z"/>
<path class="st2" d="M125.4,436c-1.9,0-3.7-0.3-5.2-1.5c1.7-1.7,6.4-2,7.2-0.2C128.3,436.2,126.4,435.8,125.4,436z"/>
<path class="st56" d="M319.6,361.7c2.7,1,1.4,2.6,0.5,3.9c-2.2,3-5.2,3.2-8.5,1.8c0-0.8,0-1.4,1.2-1.1
	C317.9,367.5,318.9,366.8,319.6,361.7z"/>
<path class="st2" d="M118,436c1.6,0.1,3.1,0.4,4.4,1.5c-0.3,1.9-1.2,2.5-3,1.8C117.9,438.6,116.9,437.8,118,436z"/>
<path class="st57" d="M343.9,377.7c-0.6,0.1-0.9,0.4-1,0.9c-3.1-4-2.8-6.8,0.9-8.2C342.5,372.8,341.9,375.3,343.9,377.7z"/>
<path class="st2" d="M95.6,425.9c1.9,0.2,3.8,0.3,5.7,0.5c0.8,0.1,1.4,0.4,1.6,1.3c0,0.3-0.1,0.7-0.3,1c-0.6,0.7-1.4,0.5-1.9-0.1
	C99.4,426.9,97,427.8,95.6,425.9z"/>
<path class="st2" d="M177.8,380.7c-2.2,0.2-4.4,0.5-6.6,0.7c-1.1-2.1,1.1-2.4,1.9-2.6C174.8,378.4,176.6,378.9,177.8,380.7z"/>
<path class="st58" d="M408,432.3c-4.1,0.1-5.9-3.1-8.1-5.8C403.7,426.9,405.1,430.6,408,432.3z"/>
<path class="st59" d="M488.5,489.1c-0.4,0.7,1.3,1.8,0.2,1.9c-2.9,0.3-4.5,2-5.9,4.1c-0.1,0.1-0.7-0.1-1-0.2c0-0.7,0.1-1.4,0.1-2.1
	C484.1,491.6,486.3,490.4,488.5,489.1z"/>
<path class="st2" d="M168.2,381.4c-2.5,0-4.9,0-7.4,0c-1.2-1.9,0.9-1.9,1.4-1.7C164.1,380.8,167,378.3,168.2,381.4z"/>
<path class="st2" d="M209.3,440.7c-1.5-0.5-2.2-1.7-3.5-1.8c-1,0-2.2-0.4-1.7-1.7c0.3-0.8,1.5-0.6,2.3-0.2
	C207.8,437.8,209.8,438,209.3,440.7z"/>
<path class="st2" d="M194,376.3c-2.2,2.3-5.5,1.7-8.1,2.9C187.6,375.4,191.1,376.7,194,376.3z"/>
<path class="st60" d="M251.6,363.2c-2.3-1.8-4.7-3.6-7.3-5.6C246.6,357.6,249.5,359.6,251.6,363.2z"/>
<path class="st2" d="M268.6,402.1c0.2,0.2,0.5,0.5,0.7,0.7c-0.1,0.9,0.1,2.2-1.3,2c-1.6-0.2-2.4-1.4-2.6-3.1
	C266.5,401.8,267.6,401.9,268.6,402.1z"/>
<path class="st49" d="M322.5,357.8c-0.7,0-1.3,0.3-1.6,0.9c-1.8,0.1-3.9,0.4-3-2.8C319.4,356.5,320.9,357.1,322.5,357.8z"/>
<path class="st2" d="M204.3,372.6c-1.7,0.7-3.4,1.5-5.2,2.2C200.7,371.9,202.7,371.1,204.3,372.6z"/>
<path class="st2" d="M150,432.7c-0.7-0.3-1.7-0.4-1.9-1.4s0.7-1.1,1.4-1.2c1-0.1,1.6,0.4,1.6,1.5C151.1,432.3,150.9,432.8,150,432.7
	z"/>
<path class="st38" d="M335.8,381.5c0,0.5,0,0.9,0,1.4c-1.1-1.6-3.2-1-4.6-1.9C332.8,380.4,334.7,377.6,335.8,381.5z"/>
<path class="st5" d="M159.3,377c1.5-0.1,3.5-2.7,4.4,0.7C162.1,378.5,160.6,378.7,159.3,377z"/>
<path class="st2" d="M239.8,378.5c0.5,0.5,1,1,1.5,1.4c-0.9,1-2.3,1.2-2.9,0.4C237.6,379.3,238.7,378.7,239.8,378.5z"/>
<path class="st2" d="M190.7,439.6c-0.7-0.1-1.3-0.3-1.3-1c0-0.9,0.9-1.1,1.5-1.3c0.8-0.2,1.1,0.4,1.2,1
	C192.2,439.3,191.4,439.5,190.7,439.6z"/>
<path class="st9" d="M433.9,401.3c0.1,0.2,0.1,0.5,0.2,0.7c0.2,1,2.6,0.5,1.5,2.2c-0.7,1.1-1.6,0-2.1-0.4
	C431.6,402.8,433.4,402.1,433.9,401.3L433.9,401.3z"/>
<path class="st2" d="M195.9,430.3c0.2,0.9-0.4,1.1-1,1.1s-1.3-0.1-1.4-0.9c-0.1-0.9,0.5-1.3,1.3-1.4
	C195.6,429.1,195.6,429.8,195.9,430.3z"/>
<path class="st61" d="M428.4,404.4c0.5,0.1,1,0.2,1,0.8c0,0.9-0.4,1.6-1.3,1.8c-0.6,0.1-0.7-0.5-0.7-0.9
	C427.4,405.3,427.6,404.7,428.4,404.4z"/>
<path class="st3" d="M108.4,482.4c9.1,1.2,18.2,1.8,27.2,3.3c8.6,1.5,17.5,1.1,26.2,1.9c13.1,1.2,26.2-0.5,39.3,0
	c2.5,0.1,5.2-0.9,7.3,1.5c0.1,0.2,0.5,0.3,0.7,0.2c5-2.2,9.7,1.1,14.5,1c8.6-0.3,16.6,2.9,25.2,3c3.9,0,8.3,0.9,12.7,2.1
	c-3,2.2-5.7,0-8.4,0.4c0,1.1,1.7,0.4,1.6,1.5c-0.1,0.8-1,0.8-1.5,0.6c-2.4-0.8-5-0.1-7.2-2.9c-1.5-1.8-5.9-1.8-8.9-1.7
	c-1.6,0.1-4.3-2.4-5.4,1.3c-0.2,0.7-2.1-0.2-2.5-0.8c-2.5-3.6-6.2-1.6-9.4-2.5c0,1.3,1.7,0.7,1.5,2.7c-4-3.9-9.2-1.2-13.4-3.4
	c-4.7-2.6-9.5-0.2-14.2-1c1.7,1.9,4.1,0.5,7,1.9c-4.8-0.4-8.8,1-12.2-2.2c-0.5-0.5-1.7-0.7-2.5-0.2c-2.8,1.8-5.9,0.8-8.8,0.9
	c-3.4,0.2-6.8,2.8-10-0.7c-0.4-0.5-2.2-0.5-3,0.7c0.7,1.3,2.1,0.2,3.6,1.3c-8.5,0.8-16.3-0.8-24.1-0.7c-1.2-0.2-2.5-0.5-3.7-0.7
	c-2,1.6-4.1,1.2-6.1,0.1c-1-0.6-1-2.1-2.2-2.5c-1.2-0.9-2.6-0.4-3.3-0.6c0.8,0.1,2.6-0.3,3.7,1c0.2,0.6,0,1.1-0.5,1.5
	c-2.1,0.5-4,0.3-5.7-1.1c-7.1-1.4-14.2-1.8-21.4-2.4c-6.8-0.6-13.5-2.4-20.2-3.8c-0.8-0.2-2.7-0.2-1.8-2.3c0.4-0.9-1-1.3-1.5-0.9
	c-3.6,3-3.6-0.5-4.5-2.4c2,0.2,3.7,1.9,5.8,1.4c1.1-0.9,2.3-0.9,3.5-0.6c6.2,1.8,12.8,1.7,19.1,3.6
	C106.3,481.3,107.5,481.5,108.4,482.4z"/>
<path class="st17" d="M154.9,510.3c0,0.5,0,1,0,1.5c0,2.8-0.1,5.4-4,5.5c-3.4,0.1-5.9-1.7-6.3-4.7c-0.4-3.6,1-5.7,4.4-6.4
	c0.5-0.1,1-0.1,1.5-0.1C154.9,505.7,155,505.8,154.9,510.3z"/>
<path class="st17" d="M161.8,515.6c-0.2-1.6-1.6-1.7-2.3-2.3c-1.4-1.1-3.6-2.1-2.6-4.2c1-2,3.3-2.4,5.5-2.1c0.8,0.1,1.6,0.7,2.3,1.2
	c0.6,0.4,1.3,1,0.8,1.8c-0.4,0.7-1.3,0.5-2,0.5c-1.5-0.1-2.6-2.2-5.5-0.3c5.9,0.9,9.8,3.5,11.5,8.6c-3-0.3-5.9-0.6-8.8-0.9
	c-1-0.1-2,0.1-2.8-0.6c-0.8-0.6-1.7-1.4-1.1-2.4c0.6-1.1,1.5,0,2.2,0.2C159.8,515.3,160.5,516.2,161.8,515.6z"/>
<path class="st16" d="M423.5,544.3c8.1,0,16.3,0,24.4,0.1c-0.8,0.7-1.9,0.6-2.8,0.6c-18.6,0-37.1,0-55.7,0c-1,0-2,0.1-2.8-0.5
	c1.7-0.8,3.5-0.5,5.2-0.1c4.7,0,9.4,0,14,0c1.7-1.4,3.5-1.4,5.2,0C415.2,544.3,419.4,544.3,423.5,544.3z"/>
<path class="st17" d="M126.1,488.3c2-0.2,4,0.2,5.9,0.7c0.5-0.1,1-0.1,1.5,0c2.2,0.7,4.4,0.8,6.6,0.7c0.1,1.9-0.7,3.3-2.7,2.8
	c-2.3-0.7-4.5-0.3-6.7,0.1C127.5,493.2,125.9,491.6,126.1,488.3z"/>
<path class="st17" d="M177.8,509.6c0.7-1.9,0.5-5.6,3.3-5.8c2.3-0.1,1.8,3.6,2.2,5.6c0.3,2-1.1,3.3-3.4,3.3
	C178,512.6,177.7,511.6,177.8,509.6z"/>
<path class="st17" d="M141.5,511.4c-1.1-4.1-3.9-4.4-7.2-4.2c0.9-2.3,2.2-3.3,4.1-2.3c2,1.1,2.6,0.8,2.6-1.4c0-0.7,0-1.6,1-1.7
	c1.3-0.1,1.2,1,1.2,1.8C142.9,506,143.7,508.6,141.5,511.4z"/>
<path class="st17" d="M140.1,516.3c-2.6-0.7-5.7-0.4-6.9-3.7c-0.3-0.8-0.7-1.7,0-2.4c0.7-0.6,1.3,0.3,1.9,0.5
	c1.2,0.5,1.8,1.6,2.7,2.4c0.7,0.5,1.3,1.6,2.5,1c0.7-0.4,1-2,2.2-0.8c0.6,0.6,0.6,1.3,0.2,2C142.1,516.3,141.1,516.3,140.1,516.3z"
	/>
<path class="st17" d="M369.1,526.4c-1.5-2-2-3.8-2.3-6.2c3.2,2,6.1-0.9,9.1,0.5c0.8,0.4,2.3-0.1,2,1.4c-0.2,1.2-1.4,0.4-2.2,0.3
	C372.8,522.2,370.6,523.4,369.1,526.4z"/>
<path class="st17" d="M176.2,510.7c0,1.5-0.8,2.1-1.9,1.8c-1.8-0.4-4.2-0.1-4.6-2.7c-0.2-1.5,0.7-2.4,2.2-2.3
	C174,507.8,175.7,508.7,176.2,510.7z"/>
<path class="st17" d="M411,544.3c-1.7,0-3.4,0-5.2,0c-0.1-1.3,0.3-2.7-0.6-3.9c-0.5-0.7-1.1-1.5,0-2.1c0.8-0.5,1.5,0.4,1.7,1
	C407.4,541.7,411.3,541.3,411,544.3z"/>
<path class="st17" d="M170.8,522.5c1,1.1,1.7,2.1,2.7,2.7c1.3,0.9,0.8,1.9,0.3,2.8c-0.7,1.2-1.9,0.9-2.9,0.5
	c-1.2-0.4-1.4-1.4-0.6-2.3C171.5,525.2,170.1,524,170.8,522.5z"/>
<path class="st17" d="M359.7,528.8c1.8-0.2,3.8-1.3,4.7,1.2c0.2,0.6,0,1.3-0.6,1.5C361.4,532.3,360.7,530.3,359.7,528.8z"/>
<path class="st17" d="M327.5,519.6c-0.2,1.3-1,2.4-2.5,2.5c-1,0.1-1.5-0.9-1.4-1.7c0.1-1.4,1.2-2.1,2.4-2.3
	C327.1,517.7,327.5,518.4,327.5,519.6z"/>
<path class="st17" d="M292.1,541.3c-5.4-0.3-10.9,0.7-16.2-0.6C281.3,541,286.8,539.8,292.1,541.3z"/>
<path class="st17" d="M368.9,543.5c-4.9-0.3-9.9,0.7-14.8-0.7C359,543.2,364,542,368.9,543.5z"/>
<path class="st17" d="M391.8,544.3c-1.7,0-3.5,0.1-5.2,0.1c-3.1-0.1-6.3-0.1-9.4-0.2c-0.1-0.2-0.1-0.4-0.2-0.6
	C381.9,544,386.9,542.8,391.8,544.3z"/>
<path class="st17" d="M325,526.5c-0.1,1.7,0.2,3.6-2,4.1c-0.4,0.1-1.3-0.5-1.4-0.9C321.5,527.6,324,527.8,325,526.5z"/>
<path class="st17" d="M178.9,522.7c-0.3,1-0.5,2-1.5,2c-0.9,0-1.2-1.1-1.3-1.9c-0.1-0.9,0.6-1.2,1.4-1.2
	C178.2,521.6,178.7,522,178.9,522.7z"/>
<path class="st17" d="M312.6,527.8c-0.2,1.1-0.9,1.3-1.6,1.4c-1.1,0.1-1-0.8-1-1.5s-0.1-1.6,1-1.5
	C311.8,526.4,312.2,527.2,312.6,527.8z"/>
<path class="st17" d="M317.1,528.3c0,1-0.6,1.2-1.4,1.2c-0.7,0-1.2-0.3-1.2-1.1c0-0.9,0.8-1.2,1.5-1.3
	C316.7,527.1,317,527.6,317.1,528.3z"/>
<path class="st17" d="M244.9,540.5c-2.9,0-5.8,0-8.7,0C239.1,539.6,242,539.5,244.9,540.5z"/>
<path class="st17" d="M285.4,530.8c-0.6-0.2-1.1-0.6-1-1.3c0.1-0.8,0.7-1.3,1.5-1.1c0.6,0.2,1,0.7,0.9,1.4
	C286.6,530.4,286.1,530.8,285.4,530.8z"/>
<path class="st17" d="M259.7,540.6c-2.7,0-5.4,0-8-0.1C254.3,539.6,257,539.5,259.7,540.6z"/>
<path class="st17" d="M401.3,538.7c0,1-0.6,1.2-1.4,1.2c-0.5,0-1-0.2-0.8-0.8c0.2-0.7,0.4-1.5,1.2-1.5
	C400.9,537.4,401.2,538,401.3,538.7z"/>
<path class="st17" d="M312.8,542c-2.5-0.1-5,0.6-7.4-0.6C307.9,541.6,310.4,540.8,312.8,542z"/>
<path class="st1" d="M108.4,482.4c-6.4-1-12.8-1.7-19.1-3.2c-2.2-0.5-4.5-0.8-6.8-1.2c-3.1-3.7-3.1-3.8,1.3-7.4
	c1.6-1.3-0.4-1.4-0.5-2.2c0.8-1,1.9-1.2,3-1.1c7.8,0.6,15.5,2.2,22.9,4.8c2.9,1.8,6.1,0.5,9.2,1.1c7.9,1.5,16,1.8,24,2.6
	c0.6,0.8,1.5,0.7,2.4,0.8c0.7,0.1,1.1,0.3,0.9,1.2c-0.4,1.9-4.5,4.5-6.5,4.2c-3.4-0.6-6.8-1.9-10-1.4c-6.6,0.9-12.9-0.6-19.3-0.9
	C107.4,479.5,108.3,481.1,108.4,482.4z"/>
<path class="st2" d="M109.1,472.1c-6.3-1.1-12.7-2.1-18.9-3.3c-2.3-0.5-4.6-0.3-6.9-0.4c-1-0.1-2.1,0.2-2.9-0.7
	c-0.1-0.7-1.9-1.3-0.4-1.9c4.1-1.5,8-2.5,12.5,0c3.3,1.9,7.3,2.9,11.3,3.3C106,469.4,108.2,469.6,109.1,472.1z"/>
<path class="st1" d="M166.7,476.5c-0.9,1.9-2.5,2.6-4.5,2.1c-1-0.3-1.9,0-2.8,0.3c-0.8,0.2-1.3,1.7-2.4,0.6c-1-1-0.3-2,0.1-3
	C160.3,476.5,163.5,476.5,166.7,476.5z"/>
<path class="st1" d="M155.6,476.5c-0.3,1.5-0.7,2.9-2.6,3.2c-0.7-1.3,0.5-2.1,0.3-3.2C154.2,476.5,154.9,476.5,155.6,476.5z"/>
<path class="st17" d="M481.1,506.7c3.7-3.2,8.3-4.7,12.9-6c4.1-1.1,8.1-2.6,12.4-3.4c11.3-2.1,22.6-3.7,34-5.1
	c0.2,0,0.4,0.2,0.7,0.4c0.2,1.2-2.8,0.3-1.6,2.2c-3.5,1.2-7,2.4-10.5,3.5c1.4-2.8,4.8-1.7,6.1-4.5c-2.8,0.8-6,0.4-8.2,2.9
	c-0.8,0.9-1.6,1.9-3,1.7c-2.6,0.9-5.2,1.8-8,2.2c-1.3-0.2-2.7-1.9-3.9,0.1c-0.4,0.3-0.8,0.5-1.3,0.6c-0.3,0-0.5,0-0.8,0
	c-1.3,0.4-2.6-0.1-3.9,0.4c-1.1,0.4-1.3,1-0.5,1.8c0.5,0.9,1.2,1.4,2.3,1.3c2.6-0.1,3.6,1.8,2.3,4c-0.4,0.7-1.1,1.5-1.6,0.8
	c-1.8-2.3-5.7-1.8-6.7-5.2c-2.2-1.6-4.1,0.4-6.1,0.7c-1.4,0.2-2.9,1.2-3.8-0.7c-0.3-0.6,0-0.7-0.6-0.1c-0.8,0.9-1,1.9-1.4,2.8
	c-1,0.2-2.3-1.4-3.1,0.5c-0.5,1.2-1.1,0.3-1.6-0.2C484,506.8,482.6,506.7,481.1,506.7z"/>
<path class="st17" d="M468.6,522.2c0.9,0.5,1.7,0.8,2.5-0.4c0.7-1.1,1.6-1.3,2.7-0.3c1.2,1.1,1.9,1,1.8-1c-0.1-1.6,1.6-1.5,1.9-0.9
	c1.2,2,4.5-0.6,4.5,1.6c0,1.6-3.1,0.9-4.5,2.2c-2,2-4.7,1.2-7.2,1C468.8,524.3,468.5,523.4,468.6,522.2L468.6,522.2z"/>
<path class="st62" d="M490,507.5c-1.2-3.5,1.4-4,3.7-5c0.5,1.3-1.1,1.2-1.1,2.4c2.4,0.2,4.5-0.7,6.8-1.2c1-0.2,2.5-1.4,2.5,1
	c-3.5,0.1-6.7,1.4-9.7,3.2C491,508.6,490.5,508.6,490,507.5z"/>
<path class="st62" d="M510.6,501.6c0.3-0.2,0.5-0.5,0.8-0.7c1.1-1.2,2.5-0.4,3.8-0.6c3.1,0.5,5.5-2.5,8.7-1.5c0.5,0.3,1,0.6,2.1,1.3
	c-3.6,0-6.5,0.8-9.4,1.6c-1.1,1-2.2,1.8-3.7,0.7C512,502.2,511.2,502.4,510.6,501.6z"/>
<path class="st63" d="M469.3,514.8c-3.6,1.1-7.1,1.3-10.6,0.9c0-0.4,0-0.9,0-1.3c3.5-0.3,7-0.6,10.5-1
	C469.2,513.9,469.3,514.4,469.3,514.8z"/>
<path class="st17" d="M511.1,510.9c0.2-1.3,0.1-2.5,1.6-2.6c1-0.1,2,0.1,2.5,1.1s1.3,1.7,2.2,2.4c0.6,0.4,1.3,1,0.9,1.8
	c-0.1,0.3-0.8,0.4-1.3,0.5c-0.7,0-1.3,0.1-1.5-1.1C515.2,510.5,513.6,509.7,511.1,510.9z"/>
<path class="st62" d="M505.5,503.8c-0.9-0.1-1.9,0.2-3.2-1.1c3-0.1,4.6-3.7,7.6-1.1c-0.5,1-1.2,1.6-2.3,1
	C506.1,501.9,505.9,503,505.5,503.8z"/>
<path class="st17" d="M540,504.8c-1.7,0.7-3.2,0.4-4.3,1.4c-0.6,0.6-1.4,0.3-1.8-0.5c-0.4-1,0.5-1.3,1.1-1.5
	C536.6,503.6,538.1,503.4,540,504.8z"/>
<path class="st17" d="M512.8,502.3c1.2-0.2,2.5-0.5,3.7-0.7c0,1,0,2-1.3,2.2C514.1,503.9,513,503.8,512.8,502.3z"/>
<path class="st17" d="M517.5,508.7c-0.7,0-0.9-0.5-0.8-1c0.1-1,0.7-1.8,1.8-1.9c0.5-0.1,0.9,0.5,0.8,1
	C519.1,507.8,518.4,508.3,517.5,508.7z"/>
<path class="st17" d="M525.6,505.4c0.7,0,1.2,0.3,1.1,1c0,0.7-0.6,0.9-1.3,0.9s-1.2-0.2-1.1-1C524.4,505.8,524.9,505.5,525.6,505.4z
	"/>
<path class="st13" d="M145.9,338c0.6,0.1,1.2,0.2,1.8,0.2c1.1,0,2.6-1.5,3.1,0.3c0.4,1.3-0.1,3-0.7,4.4c-0.5,1.3-1.3-0.8-2.1,0
	c-0.1,1.7,1.4,2.2,2.5,2.7c1.8,1,2.8,1.9,0.9,3.7c-0.3,0.3-0.7,0.6-0.1,1.1c2.2,2.1,2.2,2.5,0.9,5.8c-0.3,0.7,0.3,1.1,0.6,1.6
	c1.2,1.6,1.3,3.4,1.2,5.2c-0.1,2.1-0.9,3-3,2.2c-1.5-0.5-1.7-1.8-1.4-3c0.5-1.9-0.5-3.5-0.8-5.2c-1.1-5.6-3.2-11-4.5-16.6
	C144.1,339.1,144.7,338.3,145.9,338z"/>
<path class="st10" d="M145.9,338c-1.5,2-0.4,4,0.3,5.9c1.2,3.6,2,7.4,3,10.9c1.1,3.5,0.8,7,1.9,10.4c-0.5,0.7-0.9,0.6-1.4,0
	c-2-0.6-2.5-1.9-2.9-3.9c-1-4.5-1.3-9.3-3.3-13.6c-0.4-3-2.5-5.9-0.4-9c0.2-0.8,0.4-1.5,1.5-1.5C145,337.5,145.5,337.8,145.9,338z"
	/>
<path class="st13" d="M144.4,347.6c2.5,2.7,1.1,6.3,2.4,9.3c1.2,2.7,0,6.2,2.9,8.3c-1.6,0.1-3.2-0.1-4.4-1.4
	c1.2-1.8,0.7-3.6,0.1-5.5c-1.9-5.7-3.6-11.5-5.4-17.3c0.1-0.1,0.2-0.2,0.4-0.3c2,0.7,2,2.8,2.8,4.3
	C143.5,345.9,142.8,347.4,144.4,347.6z"/>
<path class="st20" d="M367.4,365.2c2.2-0.7,3.9-0.2,4.7,2.2c0.4,1,1.4,1.9,0.9,3c-0.6,1.4-2-0.2-3.3,0.8c2.3,0.4,3.2,1.9,4.1,3.6
	c0.3,0.5,0.8,0.8,0.4,1.5c-0.4,0.5-1,0.7-1.6,0.4c-3.5-1.7-7.3-2.7-10.6-4.7c-1.9-1.1-0.7-1.7,0.3-2.1
	C364.7,368.9,366.1,367.1,367.4,365.2L367.4,365.2z"/>
<path class="st0" d="M403.6,388.1c-3-2.2-2.2-6.2-4.4-8.8c-1-1.1,1.1-2.4,2.4-2.8s1.8,0.3,1.8,1.8c0,2.1,0.4,4.4,3.7,3.5
	c1.1-0.3,1.7,0.9,0.7,1.5C405.9,384.5,405.8,387.2,403.6,388.1L403.6,388.1z"/>
<path class="st0" d="M414.7,407.1c-2.4,2.6-4.1,1.8-5.2-1.2c0.1-0.5,0-1.1,0.2-1.4c0.9-1.3,1.8-3.1,3.6-2.6c1.6,0.4,1.4,2.4,1.4,3.8
	C414.7,406.1,414.7,406.6,414.7,407.1z"/>
<path class="st64" d="M380.6,394.1c-0.4,0.2-0.9,0.5-1.3,0.7c-2.6-1.4-4.4-3.3-4.2-6.6c0.4,0.5,0.8,1,1.2,1.4
	C377.1,391.7,378.8,392.9,380.6,394.1z"/>
<path class="st0" d="M407.3,387.3c0.2-1.8,1.3-2.7,3.5-3C410.1,386.4,409.1,387.4,407.3,387.3L407.3,387.3z"/>
<path class="st59" d="M484.8,498.6c-0.5-1.2-2.7-3.1,1.1-2.6c0.6,0.1,3.1,1,1.7-1.6c-0.3-0.5,0.8-1.7,1.8-1.1c1.6,1,3.4,3.1,1.8-1.1
	c-0.4-1.1,1.7-0.9,1.6-2c2.8,3.4,5.5-2.9,8.3,0.4c0.1-2.1-1.9-1-2.2-2.3c4.7,0,9.3-0.1,13.7-1.9c1-0.4,1.9,1.5,3.3,1.1
	c0.6,0.6,1.3,1.2,0.7,2.2c-5.1,4.4-11.4,4-17.8,4.4c0.6,1.2,2.3,0.9,2.8,2.9c-2.1-1.9-4.9,1.6-6.4-1.9c0,0-0.9,0.2-1.2,0.5
	C491.5,498.8,487.9,498,484.8,498.6z"/>
<path class="st37" d="M516.5,489.8c-0.2-0.7-0.5-1.5-0.7-2.2c0.5,0,1,0,1.5,0c1.9-0.7,3.9-1.2,5.9-1.5c1.1-2.9,2-0.5,3,0.1
	c1.3,1.2,0.7,2.3-0.1,3.4c-0.2,0.2-0.5,0.6-0.7,0.6c-2.2-0.3-2.1-0.3-3.4,1.2c-0.6,0.7-0.9,1.8-2,2c0-1.4-1.9-1.6-2-2.8
	C517.9,489.2,517,490,516.5,489.8z"/>
<path class="st59" d="M480.3,496.4c-0.8,4.2,2.3,1.8,3.7,2.3c-1.8,2.9-3,3.6-6.3,3.4c0.8,1,2.4,2.2-0.5,2.5c-1.5,0.1-3,0.7-4.5,0
	C474.1,500.7,478,499.2,480.3,496.4z"/>
<path class="st2" d="M55.6,391.4c0.4-1,0.7-1.8,1.7-1.7c1.1,0.1,1.9,0.8,2,1.8c0.1,1.3-1.2,0.9-1.9,0.9
	C56.6,392.5,55.6,392.5,55.6,391.4z"/>
<path class="st65" d="M144.4,347.6c-0.3,1.3-0.7,1.5-1.2,0.1c-1-2.3-1.9-4.7-2.9-7c-1-5.3-2.4-10.4-4.2-16.1c3.7,2.8,4,6.7,5.4,10
	c0.5,1.3,0.4,2.9,1.5,4C143,341.8,143.6,344.7,144.4,347.6z"/>
<path class="st41" d="M492.9,431.6c4.6,0.3,9.3,0.5,13.9,0.8c0,3.4,3.4,1.3,4.6,2.9C505,435.1,498.8,434.1,492.9,431.6z"/>
<path class="st41" d="M481.1,427.1c1.3,3.7,5.1,1.6,7.3,3c-1.8,2.2-4.4,1.4-6.5,1.1C480.3,430.9,481.4,428.5,481.1,427.1z"/>
<path class="st41" d="M521,436.7c2.2,1,4.4,1.9,6.7,2.9C523.2,440.6,521.7,439.9,521,436.7z"/>
<path class="st41" d="M512.8,436c2.2,0.3,4.4,0.5,6.6,0.8C516.9,439.9,514.9,437.2,512.8,436z"/>
<path class="st16" d="M455.2,544.2c4.1-1.3,8.4-0.4,12.6-0.6C463.7,544.9,459.4,544.1,455.2,544.2z"/>
<path class="st16" d="M470,543.5c3.1-1.4,6.4-0.4,9.6-0.7C476.5,544.2,473.2,543.4,470,543.5z"/>
<path class="st66" d="M230.9,480.9c6.7,2.4,13.9,1.9,20.8,3.1c6.4,1.1,12.7,2.4,19.1,3.4c4.4,0.7,9,0.7,13.4,1.4
	c5.3,0.9,10.5,2.6,15.8,3.1c5.5,0.5,10.8,2.6,16.5,1.4c1.8-0.4,6.2,0.7,6.5,1.5c1.2,2.5,2.4,0.5,3.4,0.6c2.3,0.3,4.7,0.2,7.1,0.3
	l0,0c3-0.1,5.9,2.1,8.9,0c1.3-0.1,2.5,0,3.6,0.7c0.4,0.8,0.8,1.5,1.1,2.3c0.5,1.3-0.3,2.3-1.3,1.7c-3.2-1.7-6.2-2.2-8.9,0.7
	c-0.1,0.1-0.5,0.2-0.7,0.1c-4.1-1.9-8.8-1.3-12.8-3.2c-2.6-1.3-4.5-0.8-6.2,2.5c-0.1-3.6-1.9-4.2-4.3-3.6c-0.8,0.2-1.4,0.3-2.3,0
	c-1.3-0.4-3.2-2.1-4.2,0.6c-1-0.7-1.6-0.2-2.1,0.6c-2.6-3-7.2-1-9.8-3.9c-0.2-0.2-0.4-0.5-0.5-0.5c-5.1,0.2-9.6-2-14.3-3.2
	c-3.7,4-5.7-2.4-9-1.6c-0.4,0.1-1.2-0.6-2-0.2c-4.8,2-9.7,0.2-14.4-0.5c-5-0.7-10.2-1.2-15.2-1.6c-3.4-0.3-6.4-1.5-9.7-1.9
	c-2-0.3-3.7-1.6-6.2-0.8c-2.4,0.7-4.6-1.8-6.8-3l0,0c2.6-2.7,5.9-1.4,8.4-0.4C226.9,481.4,228.8,481.2,230.9,480.9z"/>
<path class="st67" d="M422.7,503c-2.3,2.5-0.5,2.9,1.6,3c0.7,0.1,1.6-0.2,1.8,0.7c0.3,1.2-1.3,0.7-1.6,1.5c0.6,1.2,2.2,0.3,2.8,1.3
	c-0.7,0.3-0.6,2.4-1.5,1.3c-1.2-1.7-2.1-0.4-3-0.3c-0.3,0-0.7,0.7-0.8,0.6c-4-2.6-8.9-0.1-13-2.3c-0.6-0.3-1.2-1.4-2.1-0.2
	c-1.3,1.7-3,2-4.9,0.7c-0.7-0.5-2,0.9-2.6-0.4c-0.7-1.4,1.3-0.8,1.4-1.5c0.3-1.9-2.6-1.2-2.6-2.9c-1.5,0.1-2.2,1.1-2.5,2.5
	c-0.1,0.5,0.2,2.1-0.4,1.1c-1.5-2.4-2.3,2.7-3.9-0.2s-3.2-0.1-4.5,1.4c-1.1-1.4,0.4-2.8-0.5-3.9c-1.5,2.2-5.3,0.3-8-4.5
	c2.4,1.4,4.1,0.1,6-0.2c5,0.4,10,0.7,15,1c2.7,0.1,5.3,0.6,7.9,1C412.5,503.4,417.6,501.6,422.7,503z"/>
<path class="st68" d="M191.8,477.9c2.5,0,4.9,0,7.4,0.1c1.9,1.5,4,0.4,6.1,0.7c1.5,0.2,3-0.1,4.4,0.3c1,0.3,3.1,0.1,2.5,1.8
	c-0.4,1.2-2.3,1.8-3.6,1.5c-1.9-0.5-3.7-2.1-5.4,0.4c-3-2-6.3,0.6-9.2-0.7c-1.3-0.5-2.1-1.1-3.1,0.1c-0.5,0.5-0.8,0.5-1.3-0.3
	c-1.6-2.8-1,0.9-2.1,0.5c-0.2-1.4-3.9-1.7-1.5-4.4l0,0C187.9,476.9,189.8,477.1,191.8,477.9z"/>
<path class="st68" d="M216.2,480.9c-0.2,1.5-1.2,1.7-2.3,1.2c-0.7-0.4-0.9-1.3-0.4-1.9C214.6,479.1,215.1,481.3,216.2,480.9
	L216.2,480.9z"/>
<path class="st17" d="M342.4,495.7c0.7,1.5,0.5,2.4-1.4,2.1c-2.6-0.4-5.2-0.8-7.5-2.1c2.4-0.2,4.9-0.9,7.4,0
	C341.4,495.7,341.9,495.7,342.4,495.7z"/>
<path class="st29" d="M341.6,455.9c0.2,1.3,0.5,2.5,0.7,3.8c-1.5-0.1-3,0-4.4-0.9C338.5,457,339.6,455.8,341.6,455.9L341.6,455.9z"
	/>
<path class="st29" d="M341.6,455.9c0.2-0.7,0.4-1.4,0.7-2c0.4-0.9,1.1-1.9,2.1-1.4c0.5,0.2,0.7,1.4,0.8,2.2c0.1,1.4-1,0.9-1.8,0.9
	C342.8,455.6,342.2,455.8,341.6,455.9L341.6,455.9z"/>
<path class="st17" d="M191.8,477.9c-2,0-3.9,0-5.9,0.1C187.9,476.6,189.8,475.1,191.8,477.9z"/>
<path class="st2" d="M293.6,442.6c-0.9-2.4,0.8-2.1,2.2-2.2c1.3,0.6,1.6,2,2.7,3.4C296.6,443.8,295.3,442.2,293.6,442.6z"/>
<path class="st26" d="M368.5,445.2c1.3,0.8,2.1,1.5,1.5,2.8c-0.1,0.2-0.7,0.4-0.9,0.3C367.8,447.6,368.2,446.5,368.5,445.2z"/>
<path class="st59" d="M523.1,486c-2.1,0.1-3.2,3.8-5.9,1.5C518.4,484,520.6,484.3,523.1,486z"/>
<path class="st69" d="M422.8,406c-0.6,2.6-1,4.8-1.6,7.1c-0.2,0.7-0.7,1.4-1.6,1.2c-1.4-0.3-2-1.5-2.3-2.7c-0.4-1.7,0.7-0.3,1.1-0.5
	c1.1-0.3,0.3-1.1,0.1-1.3c-2.1-1.1-0.8-2.9-0.8-4.3c0-1.3,0.5-2.9,2.3-2.5C421.6,403.4,423.1,404.3,422.8,406z"/>
<path class="st1" d="M132,487.6c-1.9-0.1-3.9-0.1-5.8-0.3c-0.5,0-1-0.3-1-0.8s0.5-1.1,0.9-0.9C128,486.6,130.6,485.1,132,487.6
	L132,487.6z"/>
<path class="st17" d="M142.1,488c1.9,0.2,3.8,0.4,5.7,0.5c0,0.3-0.1,0.5-0.1,0.8c-1.9-0.2-3.8-0.4-5.7-0.6
	C142.1,488.5,142.1,488.2,142.1,488z"/>
<path class="st1" d="M133.5,489c-0.5,0.7-1,0.7-1.5,0c0-0.5,0-1,0-1.4l0.1-0.1c0.6-0.2,0.9-1.5,1.6-1
	C134.6,487.2,133.3,488.2,133.5,489z"/>
<path class="st4" d="M515.1,500.2c-1.1,1-2.5,0.6-3.8,0.6c0.3-1.7,1.7-2.4,3-2.6C515.4,498.1,514.2,499.7,515.1,500.2z"/>
<path class="st35" d="M417.6,504.1c0.8,2.1,1,3.3,0,4.8C416.6,507.4,416.8,506.2,417.6,504.1z"/>
</svg>
