<?xml version="1.0" encoding="utf-8"?>
<!-- Generator: Adobe Illustrator 25.4.1, SVG Export Plug-In . SVG Version: 6.00 Build 0)  -->
<svg version="1.1" id="Capa_1" xmlns="http://www.w3.org/2000/svg" xmlns:xlink="http://www.w3.org/1999/xlink" x="0px" y="0px"
	 viewBox="0 0 595.3 841.9" style="enable-background:new 0 0 595.3 841.9;" xml:space="preserve">
<style type="text/css">
	.st0{fill:#9A8165;}
	.st1{fill:#82705B;}
	.st2{fill:#433B36;}
	.st3{fill:#222321;}
	.st4{fill:#4B423C;}
	.st5{fill:#675745;}
	.st6{fill:#493F37;}
	.st7{fill:#AFA081;}
	.st8{fill:#564F46;}
	.st9{fill:#B3A68D;}
	.st10{fill:#8F816A;}
	.st11{fill:#42382D;}
	.st12{fill:#473B2F;}
	.st13{fill:#393530;}
	.st14{fill:#C0B399;}
	.st15{fill:#A18A71;}
	.st16{fill:#1D1A16;}
	.st17{fill:#32281C;}
	.st18{fill:#B1AA99;}
	.st19{fill:#605448;}
	.st20{fill:#5A5347;}
	.st21{fill:#645A50;}
	.st22{fill:#949082;}
	.st23{fill:#847C6F;}
	.st24{fill:#171717;}
	.st25{fill:#352C24;}
	.st26{fill:#5B5045;}
	.st27{fill:#776F5E;}
	.st28{fill:#5B574E;}
	.st29{fill:#B2A487;}
	.st30{fill:#80776C;}
	.st31{fill:#A69C88;}
	.st32{fill:#B2A58C;}
	.st33{fill:#968F7D;}
	.st34{fill:#B0A88F;}
	.st35{fill:#AFA897;}
	.st36{fill:#80817E;}
	.st37{fill:#68605C;}
	.st38{fill:#8D7961;}
	.st39{fill:#927C5E;}
	.st40{fill:#A78F63;}
	.st41{fill:#61544A;}
	.st42{fill:#9B7D55;}
	.st43{fill:#533F29;}
	.st44{fill:#A89276;}
	.st45{fill:#3F352A;}
	.st46{fill:#C9B99B;}
	.st47{fill:#B9A387;}
	.st48{fill:#806B55;}
	.st49{fill:#B3A085;}
	.st50{fill:#685136;}
	.st51{fill:#271C14;}
	.st52{fill:#B9B0A8;}
	.st53{fill:#40372F;}
	.st54{fill:#B6A384;}
	.st55{fill:#B7A789;}
	.st56{fill:#9C866E;}
	.st57{fill:#625A51;}
	.st58{fill:#514C44;}
	.st59{fill:#5E544A;}
	.st60{fill:#726C63;}
	.st61{fill:#807C75;}
	.st62{fill:#A6937C;}
	.st63{fill:#55514A;}
	.st64{fill:#898278;}
	.st65{fill:#4B463F;}
	.st66{fill:#534F49;}
	.st67{fill:#98845D;}
	.st68{fill:#877455;}
	.st69{fill:#392D25;}
	.st70{fill:#6A625A;}
	.st71{fill:#706244;}
	.st72{fill:#9E8974;}
	.st73{fill:#B7A385;}
	.st74{fill:#A9997D;}
	.st75{fill:#231E1A;}
	.st76{fill:#201B17;}
	.st77{fill:#27221C;}
	.st78{fill:#8D7963;}
	.st79{fill:#A3967D;}
	.st80{fill:#756850;}
	.st81{fill:#6F6350;}
	.st82{fill:#B9AC93;}
	.st83{fill:#5D5148;}
	.st84{fill:#7F6D51;}
	.st85{fill:#968B76;}
	.st86{fill:#7E7569;}
	.st87{fill:#695E4F;}
	.st88{fill:#AFA796;}
	.st89{fill:#6A5A45;}
	.st90{fill:#9E876D;}
	.st91{fill:#B3A383;}
	.st92{fill:#5E5248;}
	.st93{fill:#5E5247;}
	.st94{fill:#827562;}
	.st95{fill:#6F634D;}
	.st96{fill:#8F826B;}
	.st97{fill:#A6957D;}
	.st98{fill:#A49578;}
	.st99{fill:#443C2B;}
	.st100{fill:#50402E;}
	.st101{fill:#3C3225;}
	.st102{fill:#7D6852;}
	.st103{fill:#77634A;}
	.st104{fill:#826B52;}
	.st105{fill:#171310;}
	.st106{fill:#34281E;}
	.st107{fill:#2A2219;}
	.st108{fill:#ACA091;}
	.st109{fill:#7E674C;}
	.st110{fill:#463927;}
	.st111{fill:#443929;}
</style>
<g>
	<path class="st0" d="M547.5,442.8c11.1,1.6,20.7,6.2,27.8,16c1.9,2.6,4,4.7,6.4,6.7c-0.5,2.1-0.8,4.2-1.9,6
		c-0.4,0.5-0.8,0.9-1.3,1.3c-2,0.3-2.4,2.5-3.6,3.7c-0.7,0.5-1.5,0.6-2.4,0.6c-2.3-0.5-4.4-0.2-6.5,1.3c-1.5,1.1-3.1,2.3-5,2.7
		c-2.6,0.5-3.4,2.1-3.3,5c0.1,4.1-1.7,6.4-5.5,6.9c-6.1,0.8-12,1.8-17.8,4.8s-12.4,2.1-18.6,2.5c-3,0.2-6,0.3-8.8,1.5
		c-2.9,1.1-5.9,1.2-8.9,0.2c-1.2-0.4-2.6-1-2.5-2.7c0.1-1.5,1.4-1.8,2.5-2.1c8.6-2.4,16.9-5.7,25.4-7.7c-3.2,1-6.6,1.2-10.1,1.3
		c-1,0.2-2,0.2-3-0.1c-2.8,0.1-5.5,0.5-8.1,1.7c-1.5,0-2.9,0.6-4.2,1.5c-3.5,1.6-6.8,3.4-10.8,3.8c-2.8,0.3-6.6,1.2-7.5,5.5
		c-2.1,6.3-7.3,7.7-12.6,8.9c2.1,0.3,4.5-0.9,4.9,2.7c-1.8,4.8-5.1,7.2-9.9,6.9c-3.8-0.3-7.3,0.5-10.6,2.6c-1.6,0.5-3.3,0.6-5,0.7
		c-1.1,0-2.1-0.4-3.1-0.7c-8.7-0.6-17.3,0.3-26-0.6c-2.3-0.2-4.4-0.5-6.7-1.1c-12-2.9-24.2-4.3-36.4-5.1c-5.1-0.3-10.3-0.1-15.3-1.9
		c-3.3-1.1-6.7-1.6-10.2-1.5c-3.6,0.1-7.1-0.1-10.4-2.2c-1.4-0.9-3-1-4.6-0.6c-7.1,1.7-13.9-0.4-20.9-1.3c-2.6-0.4-5-1.4-6-4.5
		c-0.7-2.3-3-2.7-4.5-4.1c-0.8-0.7-1.6-1.5-1-2.7c0.5-0.9,1.5-0.9,2.3-0.8c2,0.3,3.9,1.1,5.5,2.5c2.8,2.4,5.8,3.9,10.1,4.6
		c-1.8-1-3.2-1.4-4.1-2.5c-1.8-2.1-1.8-3.6,1.2-3.9c3,0.5,5.3,2.7,7.7,4.3c1.7,1.1,3.4,2,5.4,2.4c15.9,0.5,31.6,3,47.3,5.5
		c0.6,0.1,1.1,0.2,1.7,0.2c17.8-0.4,35.4,3.2,53.1,2.2c1.4-0.1,2.8-0.5,4.3-0.5c1.8,0.1,3.7-0.8,5.5-0.1c-1.8-0.7-3.6-0.1-5.4,0.1
		c-7.2,0.7-14.3,0.9-21.3-1.4c-1.9-0.6-3.9-1.1-5.2-3c-0.7-2.1,0.8-2.2,1.8-2c10.8,1.8,21.7,1,32.5,1.6c0.3,0,0.6,0.1,1.4,0.2
		c-3.7-3.8-7.1-7.2-10.8-10.2c-5.6-4.5-10.2-10-15.2-15.2c-0.3-0.3-0.6-0.7-0.9-1c-0.7-1-1.4-2.2-0.5-3.4c1.1-1.3,2.1-0.1,3,0.5
		c4.6,3.6,8.8,7.9,13.5,11.5c6.6,5,10.3,13.6,17.1,15.6c-8.3-7.4-18.3-15.3-26.8-24.9c-5.4-6.1-10.8-13.1-12.7-22.3
		c-1.3-6.2-2.2-12.6-4.8-18.4c-0.3-0.7-0.5-1.5-0.8-2.2c-3.9-9.6-11-10.8-17.4-3.1c-1.3,1.5-1.9,4.1-4.5,3.5
		c-1.7-5.2,1.1-9.1,3-13.3c1.2-2.7,2.9-5,4.5-7.4c1.3-1.3,2.9-0.8,4.4-1c2-0.3,2.7-1.4,1.8-3.5c-0.7-2-2.6-2.3-4-3.3
		c-3.9-2.8-4.3-4.1-1.6-8.2c3.6-5.4,7.2-10.7,11.6-15.3c1.6-1.1,3.5-1.4,5.3-2c1.5,0,2,1.3,2.9,2.3c0.9,0.9,2.1,1.5,2.5,2.9
		c0.6,4,0,8-1.3,11.5c-2.1,5.5-0.6,9.3,3.3,12.6c1.1,0.9,2.4,1.8,2.8,3.4c-0.9,4,0.1,6.2,4.4,5.4c1.7-0.3,2.6,0.8,2.7,2.7
		c0.2,2.3,1.2,2.9,3.2,2c1-0.5,2.1-2.4,3.3-0.7c1.1,1.7,0.6,3.6-1,4.9c-1.1,0.9-1.6,2.4-1.7,3.6c-0.2,2.8-0.7,4.7-3.8,3.1
		c-0.6-0.3-0.7-0.1-1.2,2.7c4.5,0.2,6.7,2.9,8.1,9.9c0.8-7,0.8-7.1-2.3-12.8c-1.1-2.2-0.7-4.2,0.4-6.1c4.2,0,8.3,1.4,12.5,0.2
		c0.8,0.7,1.5,1.5,1.8,2.6c-1.1,2.5-2.5,4.9-2.9,7.7c-0.3,2-0.7,4.9,0.9,5.6c1.9,0.8,3.3-1.8,4.3-3.6c0.9-1.7,1.6-3.6,2.4-5.5
		c0.5-1.1,0.8-2.4,1.9-3c3.4,1.4,3.8,6.3,0.7,10c-1.2,1.5-3,2.4-3.2,4.9c1-5,6-2.6,8.3-5.5c0.5-0.7,5.9,3.5,5.8,4.7
		c0,2.8-1.5,4.2-4,4.4c-1,0.1-2,0.1-3,0.5c-1.2,0.5-2.1,1.3-1.9,2.7c0.3,2.1,1.6,1.1,2.7,0.9c4.1-0.6,4,3.5,5.4,5.9
		c-0.2,2-2.4,2.5-3.2,4.8c8.2-4.1,16.3-7,24.6-9.1c12.8-3.7,25.8-4.6,38.9-5.8c8.2-0.7,16.6-0.3,24.6-2.9c1.3-0.4,3.3-0.6,3.5-2.3
		c0.3-2.1-1.8-2.4-3.1-3.2c-1-0.6-2.4-0.8-2.8-1.9C545.3,442.3,546.5,442.4,547.5,442.8z"/>
	<path class="st1" d="M446.7,523.7c1.4-0.2,2.9-1.2,4.3,0c1.8-1.1,3.6-1.5,5.7-1.5c9.3-0.3,18.3-2,27-5.7c1.8-0.8,3.6-2.1,5-3.3
		c7.1-5.9,16-5.3,24-8c3.9-1.4,8.8-0.6,13.2-0.6c2.9,0,5.7-0.4,8.3-1.9c2.5-1.4,5.3-1.4,8-1.2c2.4,0.2,4.5-0.1,6.7-1.3
		c1.5-0.9,3.7-1.8,4.6,0.2c1.2,2.7-1.9,2.4-2.9,3.5c-0.2,0.2-0.5,0.3-0.8,0.3c2.8-0.9,4.9-2.6,6.5-5.4c1.6-2.8,4.7-3.4,7.4-4.2
		c1.1-0.3,2.4-0.1,3,1.2c0.6,1.4-0.2,2.4-1,3.2c-1.3,1-3,0.8-4.5,1.4c1.5-0.6,3.2-0.3,4.5-1.5c2.9-4.6,6.8-7.7,11.3-10.2
		c2.7-1.5,2.8-4,2.2-6.8c-0.6-2.7-2.1-3.7-4.7-3.1c-2.5,0.6-4.2-0.1-2-3.3c0.9,0,1.7,0,2.6,0c0.9-1.5,1.8-3,3.4-3.7
		c0.3-0.3,0.6-0.6,0.9-0.9c1.7-0.9,0.4-5.9,4.3-3.8c2.4,1.6,3.5,4.1,4.4,6.9c3.3,10.2,4.4,21,6.8,31.5c-5.8,5.8-12.9,9.1-20.2,12.2
		c-21.8,9.3-44.4,14.4-67.5,17.4c-4.1,0.5-8.2,1.7-12.3,2.2c-3.7-0.6-7.2-0.2-10.3,2.4c-7.5,2.8-14.8,6.8-23,7.1
		c-3.4-1.9-6.5,0.9-9.8,0.8c-1.2,0-2.6,0.8-3.8,0.5c-8-2.3-15.9,0.1-23.8-0.1c-1.4,0-2.8-0.3-4.2-0.6c-2-0.6-3.4-1.7-3.1-4.2
		c0.2-2.4,1.8-3.4,3.7-3.8c1.5-0.3,2.8,0.1,4.2,0.6c1.2,0.4,2.3,0.6,2.8-1.1c0.5-1.7-0.3-2.7-1.7-3.2c-2.6-0.9-5.3-1.6-8-1.6
		c-6.3,0-11.9-2-16.7-6.4c-0.6-0.5-1.2-0.9-0.8-1.9c0.3-1,1.2-1.4,2-1.5c3.1-0.3,6.3-0.6,9.4,0.1c0.4,0.1,0.8,0.4,1.1,0.6
		c1.5,1.9,3.2,1.4,5.1,0.7c2.1-0.7,4.6-1.8,5.8,1.4c0.3,0.8,0.6,0.4,0.8,0.4c3.9-1.4,8.3,0.4,12.1-2.1c1.9-1.3,4.4-1.1,6.7-0.9
		C444.4,524.8,445.9,525.7,446.7,523.7z"/>
	<path class="st2" d="M108.6,555.6c-13.3-0.2-26.5-1.5-39.5-3.9c-0.8-1-2.9,0.3-2.9-1.8c-0.1-1.5,1.1-2.1,2.1-2.6
		c2.3-1.3,2.2-2.1-0.3-2.7c-3.5-0.8-6.7-2.3-9.6-4.8c-4.8-4.1-6.2-9-4.3-15.6c1.5-1.8,3.4-1.7,4.4,0.1c3.5,6.5,9.7,7.6,15.3,9.2
		c11.4,3.4,23.1,5.8,35,6.3c20.2,3.1,40.4,4.4,60.7,5.6c16.5,1,32.9,1.1,49.4,1c15.7-0.1,31.5-0.2,47.2-0.8
		c23.6-0.9,47.3-1.3,70.9,0.4c1.9,0.1,3.7,0.2,5.6,0.2c20.8,0.1,41.5,1.4,62.2,2.7c3.7,0.2,7.5-0.1,11.2,0.5
		c3.2,1.2,6.5,0.9,9.7,0.9c2.1,0,4,0.3,5,2.7c0.6,1.5,1.9,1.7,3.1,2s2.6,0.4,2.9,2.2c-6.4,3.1-12.8,6-19.9,2.4
		c-1.5-0.8-3-0.6-4.6,0.1c-4.3,2-8.5,2.5-12.5-0.8c-1.5-1.2-3.2-0.9-4.8,0.1c-4.5,2.8-8.9,2.6-13.2-0.7c-1.8-1.4-3.3-1.2-5.1,0.1
		c-3.8,2.8-7.8,2.7-11.5-0.1c-1.8-1.3-3.3-1.4-5.1-0.3c-3.8,2.4-7.6,2.5-11.1-0.8c-1.3-1.3-3-1.5-4.3-0.2c-3.5,3.6-7.2,2.5-10.7,0.5
		c-2.1-1.2-3.8-1.3-6-0.1c-3.6,2-7.4,2.1-11-0.4c-1.8-1.3-3.2-1.6-5.4,0c-3.1,2.3-6.8,2.2-10-0.1c-1.9-1.4-3.2-1.5-5.3-0.2
		c-3.1,2-6.9,1.9-10.1,0c-1.3-0.8-2.7-1.9-3.9-1c-5.2,3.8-10.2,2.4-15.4,0c-0.1,0-0.3,0.1-1,0.4c4.8,2,9.2,2.4,13.7,1.4
		c5.9-1.3,11.6,1.2,17.4,0.6c0.3,0,0.5,0.7,0.4,1.2c-18.6,0-37.2,0-55.9-0.1c-27.1-0.2-54.2-0.6-81.2-1c-1.7,0-3.4,0.2-5.1-0.6
		c0.4-1,1.4-1.1,2.6-1.6c-1.4-0.8-2.6-1.4-3.7-0.7c-4.3,2.6-8.4,1.9-12.3-0.9c-1.3-0.9-2.5-0.9-4,0.1c-3.6,2.7-6.5,2.6-9.9-0.5
		c-1.8-1.7-3.5-2-5.4-0.5c-3.7,2.7-7.1,1.7-10.2-1c-2.2-2-4-3.1-6.6-0.5c-2.1,2-7.2,0.9-9.8-1.8c-1.9-1.9-3.4-3.1-5.8-0.8
		c-2,1.9-4.7,0.5-7,1.6c7.1,1.5,14.3,1.9,21.4,2.4C105.7,553.4,108.1,552.5,108.6,555.6z"/>
	<path class="st3" d="M281.6,300.4c0.6-0.3,1.1-0.6,1.7-0.9c1.5-1.1,2.8-1.7,4.7-0.7c3.5,1.7,6.7,1.4,8.8-2.6c0.6-1.2,1.4-2,2.8-1.7
		c1.6,0.3,2.3,1.9,2,3.1c-2.7,9.6,2.5,19,0.7,28.5c-0.5,1.8-1.5,3.3-2.5,4.8c-0.8,3.4,1.2,8.9,4.4,11c2.6,1.7,4.6,4,6.8,6.3
		c0.3,0.3,0.5,0.6,0.8,1c2.2,3.2,3.4,7.1,5.9,10.1c0.9,1.1,1.5,2,3,2.1c4.8,0.3,5.7,1.7,5.3,7c-1.5,4-5.1,4.5-8.2,5.9
		c-4.2,3.1-4.1,8.3-5,13c-0.5,2.3-1.6,4.3-1.9,6.6c-0.6,4.3-1.7,8.1-6.5,9c-1.9,0.3-2.7,2.6-3.7,4.3c-1.2,1.9-2.2,4-4,5.3
		c-2.6,1.1-4-1-5.4-2.7c-7.4-9.3-14.1-19.2-21.4-28.5c-1-1.3-1.9-2.8-3.2-3.9c-0.2,1.8,1.2,2.5,2,3.5c5.8,6.9,10.5,14.7,16.2,21.7
		c0.8,0.9,1.3,2.1,1.5,3.3c0.3,1.7-0.1,3.1-1.4,4.2c-1.5,1.4-2.9,0.7-4.2-0.5c-2.3-1.7-3.6-4.5-5.8-6.4c-4-7.4-9.9-13.3-14.1-20.5
		c-2.7-4.6-2.8-5.2,0.3-9.9c1.9-2.9,4.9-5.4,4.7-9.6c1.6-1.6,4.1-2.1,4.6-4.9c-1.3-3.4-0.9-7-1.1-10.5c-0.1-2.1,0.5-4.1,2.7-4.7
		c2-0.5,3.3,0.6,4.1,2.5c1.2,2.8,2.4,2.3,4.1,0.3c2.7-3.2,4.9-6.8,6.4-10.9c0.3-0.6,0.7-1.1,1.1-1.6c2.2-2.6,5.2-4.1,7.3-6.8
		c0.6-0.8,0.9-1.8,1-2.7c-1.2,2.2-1.7,5.7-5.5,3.6c-1.1-2.1-0.3-4.3-0.1-6.4c0.4-3.3-0.4-5.9-3.3-7.4c-12.5-6.7-24.6-14.1-37.5-19.9
		c-3.4-1.6-7.4-1-10.5-3.7c0.6-2.3,2.3-1.9,3.8-2.1c8,0.7,14.9,4.9,22.2,8.1c8.5,3.7,16.7,8,24.4,13.3c-2.1-1.6-4.3-3.1-6.4-4.7
		C282.2,303.5,280.4,302.6,281.6,300.4z"/>
	<path class="st4" d="M436.4,557.4c-1.1-1.4-2.6-0.8-4-0.9c-1.7-0.1-3.5,0.2-3.1-2.9c0.3-2.1-1.5-1.7-2.7-1.8
		c-3.3-0.4-6.8,1-9.9-0.9c4.3-3,8.9-1.4,13.4-1.2c2.7,2,6.1,2.1,8.9,4c1.6,1.1,2.9,0.1,4.2-1c-1.7-1.5-5,1.1-5.8-2.7
		c1.2-1.4,2.8-1.4,4.3-1.5c5.9-0.3,11.9-0.2,17.7-2.4c0.7-0.3,1.4,0.2,2.1,0.3c8-1.4,15.5-5,23.2-7.5c2.9-1.4,5.9-2.9,9.3-2.1
		c11.8-3.2,23.9-4.1,35.8-6.4c5.2-1,10.2-2.6,15.4-3.8c11.7-2.9,23-7,34.1-12c4.3-2,8.5-4.3,12.3-7.4c1-0.8,1.8-2.1,3.3-1.1
		c2.4,11.7-0.9,20.1-10.3,25.8c-3.1,1.9-6.3,3.5-9.5,5.2c-3.1,4-7.7,4.4-11.8,5.9c-2.2,0.8-4.5,0.9-6.6,1.8
		c-3.6,1.1-7.3,2.2-11.1,2.9c1.8,0.8,4.5,0.4,4.8,3.4c0.2,2.1-2.1,0.9-2.9,1.8c-2.4,1.8-5.3,1.1-7.9,1.4c-7.4,0.9-14.7,2.3-22.2,2.4
		c0.7-3.1,2.4-1.9,3.9-1.4c-0.4-0.9-1.8-0.8-2.4-2c-1-2.1-2.1-1.3-3.3,0c-3.5,3.4-7.5,3.7-11.5,1.5c-2.2-1.2-3.5-0.6-5.4,0.9
		c-3.8,3-8.1,3.5-12.3,1.3c-1.6-0.8-3-1.2-4.3,0.1c-4,3.8-8.5,2.6-12.8,1.2c-1.5-0.5-3-1.5-4.4-0.2c-3.9,3.8-8.2,2.6-12.4,1
		c-2.3-0.9-4.1-1.1-5.9,0.7c-2.5,2.4-5.4,1.6-8.2,1.2C436.7,560.7,435.8,559.3,436.4,557.4z"/>
	<path class="st5" d="M107.8,541.5c-13.3-1.1-26.3-3.3-39-8c-4.5-1.7-9.5-2.5-11.4-8.5c-0.5-1.6-1.9-0.9-2.9-0.3
		c-1.5-6.3-0.4-12.3,2.3-17.9c1.3-9.2,0.6-18.7,2.4-27.9c0.6-3.4,1.5-6.4,4.3-8.2c2.1-1.3,2.6-3,2.3-5.4c-1.2-8,0.3-16.1,0-24.1
		c2.2,0.3,1.9,2.4,2,3.9c0.7,6.1,1.1,6.7,6.6,8.3c1.7,0.5,3.7,0.2,5.1,1.9c0.4,1.8,1.9,2.1,3.3,2.5c4.6,1.5,9.1,3.4,13.7,5.1
		c1.7,0.6,4.3,1,2.5,4.3c-5.7,1.2-10.8-1.7-16.2-2.5c-0.6-0.1-1.1-0.4-1.6-0.6c-1.6-0.5-3.4-0.8-4.9-1.7c0.6,0.8,1.4,1.6,1.4,2.7
		c0.1,5.2,3.5,6.7,7.3,7.8c4.8,1.4,9.6,3,14.5,3.8c9.7,1.6,19,5.7,28.9,6.3c1.5,0.1,3.7,0,3.7,2.2c0,2.6-2.3,2.3-3.9,2.4
		c-2,0.2-4,0-6-0.5c-10.7-2.9-21.6-4.4-32.5-6.2c-4.2-0.9-8.5-0.8-12.7-1.9c-3.2-0.8-4.2,0.8-3.1,4.2c0.8,2.6,2.7,3.5,4.9,3.9
		c10.7,2,21.2,4.6,31.9,6.5c8,1.4,16,1.5,24,2.4c4.4,0.5,8.6,2,13.1,1.9c2.2-0.1,4.4,0,6.5,0.4c2.9,1,5.8,0.8,8.8,0.5
		c6.8-0.1,13.5,0.8,20.3-0.5c0.8-0.2,1.7,0.3,2.3,0.9c0.4,0.4,0.6,0.9,0.7,1.4c-1.1,2.6-3.3,1.7-5.2,2c-2.8,0.3-5.7,0.4-8.4,1.8
		c-1.1,0.6-2.2,0.4-3.3-0.1c-4.8-2.3-9.7-1.9-14.6-0.5c-4.9,1.4-10,1.4-14.9,0.2c-4-0.9-7.9-1.3-11.9-1.5c-2.1-0.1-4.5-0.1-6-2
		c-0.6-0.7,0.2-2.3-1.5-0.8c-1.3,1.2-3,0.9-4.5,0.7c-6.3-0.6-12.6-1-18.7-2.8c-4-1.1-8.3,0.3-12.4-1.5c7.7,3.1,5.1,10,4.5,15.6
		c-0.5,4.3-0.3,8.6-1.2,12.9c-0.8,3.7,3,8.2,7.4,9.6c2.7,0.9,5.5,1.6,8.2,2.6C105.9,537.5,108.1,538.3,107.8,541.5z"/>
	<path class="st6" d="M138.8,313.5c11.2,10.9,13.7,25,12.9,40.4c-0.3,7-0.1,7.2,6.4,7.7c15.5,1.2,29.7-3.8,43.5-10.6
		c1.1-0.6,2-1.2,1.7-2.8c1.3-0.9,2.6-0.7,3.3,0.7c1,2-0.2,3.5-1.4,4.8c-5.2,5.2-11.7,8.2-18.1,10.9c-5.9,2.6-11.7,6.4-19,4.7
		c-3.4-0.8-7.4,1.3-11.2,1.9c-1.8,0.3-3.3,0.6-4.9-0.2c-0.8-0.4-1.9-1.1-2.4-0.5c-3.9,4.4-7.7,0.8-11.3-0.4
		c-5.3-1.8-10.4-4.5-14.8-8.3c-2.9-2.5-4.8-6-7.8-8.5c-1.8-1.5-3.7-2.9-5.6-4.1c-4.3-4.6-6.1-11.2-11.6-15.1
		c-2.9-2.1-5.8-5.2-8.1-8.6c4-3.4,8.5-2.8,13-1.9c2.6,0.5,5,2.1,7.8,1.9c0.8,0.7-0.5,1.5,0.5,2.7c3.9,4.5,7.5,9.4,10.7,14.6
		c3.6,5.8,7.8,11.1,14.3,13.5c-8.1-16.4-13.7-34-22-50.3c0.1-0.4,0.1-1,0.3-1.3c3.3-4.2,11.3-4.6,15.3-0.8
		C133.7,306.5,134.9,311.4,138.8,313.5z"/>
	<path class="st7" d="M547.5,442.8c-0.1,0.1-0.3,0.1-0.4,0.2c-0.2,0.2-0.4,0.4-0.5,0.6c1.8,0.8,3.7,1.5,5.4,2.5
		c1.2,0.7,2.9,1.6,2.4,3.4c-0.4,1.4-1.7,2.3-3.2,2.9c-4.7,1.7-9.6,2.4-14.5,2.8c-5.8,0.5-11.6,0.3-17.4,1.1
		c-11.2,1.5-22.7,1.5-33.6,5.5c-0.4,0.1-0.8,0-1.3,0c-4-0.8-8.2,0.3-12.2-1.5c-1.4-0.7-2.9-1.2-4-2.5c-1.2-2-0.3-3.7,0.8-5.1
		c2.7-3.6,4.7-7.7,7.3-11.4c3.8-5.7,8.2-11.1,8.3-18.8c10.6,0.3,20.9,2.7,30.8,6.7c8.8,3.6,17.4,7.6,26,11.8
		C543.5,441.9,545.7,441.5,547.5,442.8z"/>
	<path class="st8" d="M414.2,389.7c-0.9-0.7-1.8-1.4-2.8-2.1c0.8-0.7,1.2-1.4,0.6-2.6c-1.4-3.2-2.9-6.2-6.2-7.6
		c-3.5,0.1-3.8,4.3-6.4,5.6c-1.3,0.9-2.7,0.8-4.1,0.4c-2.6-0.7-3,0.7-2.6,3c0.3,1.9,1.1,3.5,1.8,5.2c1.9,5.1-0.3,9.4-5.1,10.6
		c-4.1,1-8.8-1.2-11.5-5.4c-2.4-3.7-2.3-6.3,0.7-11c1.3-2,1.4-4,0.8-6.2c-0.5-2-1.6-3.6-2.2-5.5c-0.7-2-1.2-4.2-1.9-6.2
		c-0.9-2.3-2.1-2.6-3.9-0.9c-1.4,1.3-2.5,3.1-4.5,3.5c-1.5,0.1-2.8-0.7-4.1-1.2c-0.9-0.4-1.9-1.2-2.8-0.1c-0.8,0.9-0.4,2.1-0.1,3.1
		c0.5,1.8,1.3,3.5,1.7,5.3c0.9,5.6-2.2,9.7-7.3,9.4c-4.5-0.2-8-2.4-10.1-6.8c-1.9-4.1-1.2-7.9,1.7-11.2c1.4-1.7,1.7-3.6,1-5.7
		c-0.8-2.2-0.9-4.6-1.5-6.8c-2.7-10-3.2-10.2-10.6-3.5c-3.8,2.6-6.2-0.2-8.7-2.6c-1.1-2.9-0.1-5.3,1.7-7.5c3-2.6,5.3-6.5,9.8-5.9
		c6.1,0.1,11.6,3.6,13,8.2c5.5,4.5,5.4,11.5,7.6,17.6c3.6-2.3,5.9-7.8,11.1-8.9c5.9-0.2,9.7,3.5,12.9,8.4c3.7,2,4.9,5.9,6.4,9.6
		c1.1,2.6,2.4,3.7,4,0.5c1-1.9,2.5-2.8,4.2-3.6c4-1.6,8-0.2,10.2,2.7c4.2,5.5,10.5,8.1,13.7,14.2c1.9-1.1-0.7-3.2,0.8-3.1
		c1.6,0.1,3.6-1.2,4.8,0.4c2.3,2.8,5.5,3.8,8.4,5.4c0.2,0.2,0.3,0.5,0.2,0.8c-0.1,0.3-0.1,0.4-0.2,0.4c-0.8,0.5-1.6,0.3-2.5,0.2
		c1.3,1.9,3.1,3.7,1.7,6.4c-2.1,0.8-3.8-0.7-5.7-1c-1.1-0.2-2.7-2.6-3.3,0.2c-0.3,1.6-2.4,4.5,1.6,5.2c2.5,0.4,4.6,2.2,6,4.8
		c0.1,0.5,0.1,0.9-0.1,1.4c-1.2,3.1-2.2,6.2-0.7,9.5c1,2.3,0.1,3.1-1.8,3.6c-4.6,1.1-12-2.5-14.2-6.8c-0.1-0.3-0.4-0.7-0.3-0.8
		c3.4-4.2-2-6.7-1.7-10.3c0.4-3.7,0.6-7.4,0.7-11.2C414.5,390.3,414.4,390,414.2,389.7z"/>
	<path class="st9" d="M66.4,349.9c0.7-1.1,1.3-2.3,2-3.4c5.5,2.4,11.3,3.2,16.9,5.3c3.4,1.2,5.2,3.6,6.5,6.9
		c0.9,2.1,1.5,4.5,4.2,4.6c0.5,0,1.3,0.4,1.4,1c0.5,4.9,4.9,4.9,7.5,7.1c9,7.3,19.6,9.4,30.1,12.1c0.7,0.2,1.4,0.2,2.1,0.5
		c0.4,0.2-0.1,1.7,0.8,0.9c0.6-0.5,2,0.5,2-1c0-1.1-0.9-1.6-1.8-1.6c-4.9-0.2-9.3-2.5-14.2-3.2c-6.1-0.9-10.8-6-15.9-9.7
		c-0.9-0.7-1.7-1.6-2.7-2.3c-3.6-2.5-4.4-4.6-2.9-7.4c1.4-2.7,5.4-3.5,8.4-1.6c1.7,1.1,2.9,3.2,5.2,2.8c2,0,3,2.3,4.8,2.8
		c21.7,16.3,44.9,15,68.6,6.9c5.7-1.9,10.9-5.3,16.6-7.6c2.5,0.2,5.9-1,5.6,4c-0.1,1.7-0.7,2.8-2.3,3.5c-4.7,2-9.5,3.5-13.1,8.1
		c-1.7,2.1-6.1,1.1-7.6,4.8c-4-1.8-7.8,2.9-11.8,0.6c-0.7-0.4-1.7-0.3-2,0.3c-1.9,4.3-6.2,3.2-9.2,5c-1.1,0.7-2.6,1.4-3.7,0.8
		c-4.2-2.3-7.3,0.5-10.7,2.2c-1.1,0.6-2.3,1-3.3,0.6c-2.4-0.9-4.7,0-7.1,0.3c-5.9-0.7-12.1,1.7-17.7-1.3c-5-2.6-10.6-2.1-15.4-4.1
		c-4-1.7-8.2-4-11.7-7.1c-2.1-1.9-4.2-3.8-6.8-4.8c-3.2-1.2-5.2-3-4.7-7.1c0.1-0.6,0.5-2.5-1.3-0.9c-1.5,1.3-2.5-0.6-3.4-1.7
		c-2.6-3.2-5.1-6.7-8.9-8.4C68.4,355.7,66.6,353.3,66.4,349.9z"/>
	<path class="st10" d="M70.8,357.6c0.9-0.4,2.4-1.4,2.7-0.5c1.3,4,5.4,5,7,8.6c1.2,2.7,1.5,2.5,3.6-0.5c0.5,2.4,3,4.2,1,6.9
		c0.9,0.7,1.7,1.9,2.7,2.2c3.5,0.9,5.7,4,8.7,5.5c6.2,3.2,11.4,10.1,19.5,7.3c0.2-0.1,0.7-0.1,0.8,0.1c6.6,7.1,15,4.1,22.8,4.9
		c0.3,0,0.5,0.3,0.8,0.4c5.8,2.7,11.4-0.7,17.1-0.3c11.3,0.9,21.5-3.9,31.9-7.2c4.7-1.5,8.3-5.4,12.6-7.9c1-0.6,1.8-1.8,2.9-2
		c5.8-0.6,10.2-4.1,14.9-7.4c2.4-1.7,6-1.4,9.2-1.1c3-0.1,5.9,2.2,9,0.1c0.9,0.3,1.2,1.1,1.4,2c-0.2,3.4-2.1,4.1-4.8,3.6
		c-4.9-1-9.2,0.2-13.7,2.9c-7.7,4.7-15.3,9.7-23.8,12.7c-5.2,1.9-9.9,5.4-15.5,6.6c-2.9,0.6-4.1,4.2-6.5,6c-8,3.7-16.3,5.5-24.9,5.9
		c-4.9,0.2-9.7,0.6-14.5,0.7c-4,0.1-8.1-0.9-12-2.2c-2-0.7-3.9-1-5.8-0.2c-7.3-0.4-13.9-3.6-20.5-6.5c-6.2-2.7-12.3-6-17.8-10.3
		c-1.4-1.1-2.9-2.1-3.6-3.9c-1.3-4.3-5.7-6-7.1-10.3c1.4-2.8,3.1-1.5,4.5-0.2c2,1.7,3.9,3.6,5.9,5.4c2.5,2.3,5.4,3.9,9,4
		c-8-2.3-10.7-10.7-16.2-15.9C69.3,364.2,69,361.7,70.8,357.6z"/>
	<path class="st11" d="M79.4,456.1c-2.9-1.5-6.2-1.3-9.3-2.7c-2.5-1.2-3.9-2.3-3.7-5.6c0.2-2.2,0.7-4.6-0.8-6.7
		c-0.9-6.7-0.5-13.2,0.9-19.8c1.4-6.5,2.2-13.1,3.3-19.6c0.3-0.7,0.1-1.1-0.6-1.3c-0.9-0.2-2.2,0.1-2-1.7c0.2-1.4,1.1-2.1,2.4-2.1
		c2.2,0,4.3,0.3,6.4,0.8c10.4,2.5,20.2,6.9,30.2,10.7c14.3,5.3,28.3,11.8,43.2,15.3c0.7,0.2,1.3,0.6,1.9,1c3,4,2.1,6-4,8.4
		c-4.9-0.4-9.4-2.5-13.9-4.3c-11-4.3-22.3-7.6-33.6-10.6c-3.4-0.9-6.8-0.3-10.2-0.6c-2.9-0.5-5.6,1-8.4,1.3c-3,0.3-2.5,3.6-2.6,6
		c0,1.4,1,2.5,1.6,3.8c0.6,1.2,2.2,2.8,0.2,3.9c-1.8,1-3.8,0.3-4.6-1.9c-0.5-1.4-0.5-3.1-1.9-3.9c-0.4-0.5-0.5,0.6-0.2,0.1
		c0.1-0.1,0.2,0,0.4,0.2c1.1,0.9,2,2.2,1.3,3.6c-0.9,1.8-2.2,0.2-3.4-0.1c-0.7-0.2-1.3-0.7-2.1-0.7c0.8,1.3,1.5,2.6,1.8,4.1
		c0.3,1.2,0.1,2.7,2.3,1.8c1.7-0.7,2.2,1.5,2.7,2.9c1.1,3.1,1.9,6.3,5.7,6.7c0.7,0.1,1.4,0.7,1.4,1.5c0,4.7,3.3,5.6,6.5,6.7
		c2.3,0.8,5.1,1.6,4.7,5.5c0,0.5-0.5,0.7-0.9,1C89,459.5,83.9,459.2,79.4,456.1z"/>
	<path class="st12" d="M205,352.9c1.4-2.4,2.2-4.5-1.6-4.7c-0.7-1.3-1.4-2.7-2.2-4c-5.1-8.8-4.5-17.1,1.5-25.2
		c5.6-7.5,9.2-16.3,12.6-25.2c2.2,0.5,2.6,1,2.2,3.3c-1.1,6.1-2.9,11.8-6.9,16.7c-3.4,4.1-6.3,8.8-7.4,14.5
		c-0.3,1.2-1.3,2.1-1.2,3.5c-0.2,2.1,0.4,4,1.5,5.7c1.4,2.2,2.9,4.2,4.9,5.9c-2.4-3.6-4.4-7.5-5.2-11.9c0-4,1.2-7.6,3.3-10.8
		c0.9-1.4,2.2-2.8,3.9-1.5c1.8,1.3,0.9,3,0.1,4.5c-0.6,1-1.5,1.9-1.2,3.3c0.1,3.2-1.5,6.4,0.3,9.5c0.5,0.9,1.1,2.2,2.2,1.9
		c1.2-0.3,0.5-1.9,0.7-2.8c1.2-6.5,3.3-12.8,5.1-19.1c0.6-1.1,1.2-2.4,0.7-3.6c-2.3-5.2,0.7-9.4,2.4-13.5c0.8-1.8,2.3-4.1,4.2-5.5
		c2.6,0.1,3.7-1.2,4-4.1c0.3-3.1,0.6-6.5,3.7-8.2c1.2,1.1,1,2.5,0.9,3.9c-0.9,8.1-2.7,16-6.4,23.1c-3.8,7.3-3.4,15.2-3.8,23.1
		c-0.7-4.8,2.1-9,2-13.7c0-1.9,0.6-3.7,1.7-5.2c3.2-4.8,4.6-10.3,5.9-15.9c0.6-2.6,1.4-5.1,2.6-7.4c0.5-1,1.3-1.7,2.5-1.5
		c1.4,0.3,1,1.6,1,2.6c0.2,5.6-2.3,10.5-3.9,15.6c-1,3.5-2.4,7-3.8,10.4c-1,2.5-1.3,5-0.9,7.7c0,0.2,0,0.3,0,0.5
		c0.1,1.5-1.2,3.3,0.2,4.3c1.1,0.8,2.3-0.7,3.5-1.2c6.8-3.4,13.6-6.5,21.1-7.5c12.7-1.7,24.6,0.8,35.9,7.4c3.8-0.2,3.4-4.7,6.1-7.1
		c-0.4,4.2,0.7,8.1-4.1,9.6c-1.7,0.6-3.1,2.6-4.6,4c-4.8-2.2-9-6.1-14.3-7c-8.3-1.3-16.2-0.3-24,3.2c-6.1,2.7-11.5,6.7-17.6,9.5
		c-5.5,4.4-11.9,7.4-17,12.4c-1,0.3-1.7-1-2.9-0.7c0.2,1.2,1.2,2.4,0.4,3.8c-0.5,0.9-1.4,2.3-2.2,1
		C209.4,353.8,206.7,354.4,205,352.9z"/>
	<path class="st13" d="M328,343.6c-0.8,2.1-1.5,4.2-1.6,6.6c0.7,1.8,1.1,3.4-1.2,4.1c-3.4-2.1-5.2-6.1-8.5-8.4
		c-1.2-0.9-1-2.5-0.3-3.8c0.4-1,1.4-2,1.2-2.9c-1.4-6.8,1.8-13.1,1.6-19.7c-0.1-1.7-1.8-2.1-2-3.6c-3.2,0.7-3.2-2.8-5.1-4.9
		c0.6,7.1-1.2,13.6,0.6,20.1c0.8,2.8-0.8,4.7-3.1,5.8c-4-0.5-7.1-4.4-8.2-10.1c0.6-6.7-0.7-13.1-2.4-19.4c-0.3-1-0.6-1.4,0.3-2.2
		c2.6-2.5,0.9-5.8,1.1-8.7c0-0.4-0.6-1.1-1-1.2c-0.8-0.1-1,0.7-1.3,1.4c-1.8,4.8-7.2,6.7-10.8,3.4c-1.6-1.4-2.6-0.3-3.9-0.4
		c4.4-4.8,10.6-4.2,16-5.7c1.8-0.5,4.4,1.8,6.4,3.1c6.8,4.4,13.3,9.1,20.2,13.3c4.2,2.5,5.3,6.2,4.9,10.9c-0.2,1.9-0.1,3.7-0.2,5.6
		c-0.9,3.9,0,8-0.7,11.9C329.4,340.4,329.1,342.1,328,343.6z"/>
	<path class="st14" d="M115.5,361.4c0.7,2.1,0,1.6-1.3,1c-2.6-1.3-3.9-4.7-7.6-4.2c-2.4,0.3-3.4,1.3-3.8,3.4s0.6,3,2.5,4.1
		c3.7,2.1,6.7,5.4,10.3,7.7c4.1,2.6,7.8,5.4,12.9,5.1c3.8-0.2,7,3.4,11.4,2.5c2.1-0.4,0.9,3.6,2,6.6c-2.1-1.8-3.5-2.1-4.6-0.6
		c0.2-3.6-2.3-1.5-3.4-1.9c-4.7-1.6-9.4-3.7-14.4-4.2c-6.7-0.7-10.8-6.7-16.6-9.3c-2.9-1.3-6.8-1.7-6.4-6.8c0-0.1-0.2-0.3-0.2-0.3
		c-6.1,0.6-4.8-5.6-7.1-8.7c-1-1.3-2.7-4-5.5-2.2c-1.1,0.7-1.7-1.5-3-2.1c-2.8-1.3-5.8-1-8.7-1.8c-1.8-0.5-2.9-1.4-3.7-3.1
		c0.5-1.8,1.8-3,3.1-4c1.2,0.2,2.4,0.8,3.7-0.2c2.8-2.2,4.8-0.6,6.5,1.8c1.1,1.5,2.1,3,4.1,2.9c1,0,2.3,0.2,2-1.5
		c-0.9-6.2,3.6-6.3,7.1-7.6c1.7,0.1,3.2,0.8,4.2,2.1C104.9,346.8,110.5,353.8,115.5,361.4z"/>
	<path class="st15" d="M484.6,422.4c1,0.8,1.1,1.8,1,3.2c-0.2,3.4-6,14.2-8.7,15.5c-0.7-2.9,0.1-5.6,0.7-8.2c-1.6,2-0.4,7-5.2,6.1
		c-0.3-0.1,0.3,0.2,0.4,0.5c0.5,2.2-0.5,3.7-2.1,4.5c-2.1,1.1-1.3-2.4-2.9-2.3c-0.2,1.4,0.4,2.7,0.9,3.9c0.3,0.7,0.8,1.9,0.2,2.1
		c-4.4,1-2.8,6.3-5.4,8.8c-1.7,1.6,1.4,3.5,1.2,5.7c-0.1,1.1,0.1,2.5-1.6,2.3c-0.7-0.9-1.6-1.8-2.1-2.9c-0.8-1.9-1.4-3.8-3.2-0.8
		c-0.9,1.5-1.8,0.2-2.6-0.2c-1.2-0.6-1.7-1.7-1.4-3.1c0.4-1.8,1.3-3.6,3.1-4.1c1.1-0.3,2.3-0.3,3.4-0.1c2,0.2,2.9-0.9,3.3-2.8
		c0.1-0.5,0.5-1.3-0.5-1c-0.5,0.1-0.9,0.7-1.3,1c-0.1-0.3-0.2-0.6-0.2-0.9c-0.2-1.9-1-3.6-2.8-3.4c-2.1,0.2,0.1,2.9-1.3,3.8
		c-1,0.3-1.5-0.6-2.2-1c-1.7-1-3.2-1.3-3,1.6c0.2,1.8-0.7,2.2-1.8,2.5c-0.6,0.2-1.7,0.2-2-0.3c-1-1.3,0.5-2.2,0.7-3.3
		c0.4-1.7,2-2.5,3.1-3.7c2.9-3,3.1-6.8,0.6-9.4c-1.4-1.6-0.7-3.2,0.2-4.7c3.7-3.2,8.8-4.2,11.7-8.9c1.5-2.3,1.9-5.1,3.7-7.1
		c0.5,3.4,2.7,3.6,5.2,3.6C477.5,419.3,481.6,418.7,484.6,422.4z"/>
	<path class="st16" d="M114.7,306c3.8,1.1,3.9,5.1,5.2,8c4.2,9.3,7.7,19,12.1,28.3c2.1,4.4,3.8,9,6.2,13.2c0.5,0.8,1.8,1.6,0.6,2.7
		c-0.8,0.8-1.9,0.2-2.8-0.2c-5.5-2.2-9.5-6.7-12.7-11.6c-3.8-5.8-7.9-11.4-11.9-17c-1.1-1.5-1.1-2.5-0.2-3.8
		C111.9,318.9,112,312.2,114.7,306z"/>
	<path class="st17" d="M76,383.9c5,2.7,9.2,6.6,14.3,9.2c8.9,4.6,18,8.6,27.8,10.5c3.9-0.4,7.5,1.4,11.2,2.1
		c5.5,1.1,11.1,0.7,16.5,2.3c7.4,1.8,14.8,0.1,22.1-0.8c1-0.1,2-0.3,3-0.6c1.2-0.3,2.4-0.5,3.2,0.6c1.1,1.5-0.1,2.6-0.9,3.6
		c-4.1,4.5-8.4,8.6-14.1,10.7c-7.9-2.1-15.7-4.5-23.6-6.7c-5.1-3-10.7-4.5-16.1-6.4c-3-1-6-2-9-3.2C98.7,400.5,87.3,395,75,392.4
		c-1.7-0.4-3.7-1-3.7-3.3c0.1-2,0.8-4.2,3.2-4.6C75.1,384.8,75.7,384.7,76,383.9z"/>
	<path class="st18" d="M9.8,337.7c5.7,6.8,11.3,13.6,17.1,20.3c7.6,8.7,16,16.3,25.9,21.8c-0.7,2.5-2.2,4.2-4.4,5.4
		c-4.2-4-10.5-4-14.5-8.5c-0.7-0.8-1.4-1.7-2.5-1.6c-2.5,0.2-4-1.7-5.3-3.4c-1.3-1.6-2.4-2.9-4.5-2.9c-0.8,0-1.7-0.4-2.3-1.2
		c-3.9-5.7-9.5-9.7-12.9-16c-1.7-3.2-2.6-6.2-0.3-9.4c3.4,1.6,5.3,4.6,7.5,7.8c5,7.5,10.9,14.3,17.4,18.1c-7.3-5.4-15-12.2-19-22.8
		c-0.4-1.2-1.2-2.1-1.8-3.2C9.5,340.9,8.3,339.5,9.8,337.7z"/>
	<path class="st19" d="M468.4,415.7c-0.6,6.9-4,11.4-9.9,13.8c-1.7,0.7-2.8,2.8-4.9,2.4c-2.2,1.9-4.5,3.8-7.6,2.8
		c-1.2-0.1-1.8-0.8-1.9-2.1c-0.8-5.3,1.7-9.6,3.6-14.2c2.2-2,4.9-3,7.1-5.1c2.3-2.2,4.2-4.5,4.9-7.8
		C463.4,408.1,467.5,410.2,468.4,415.7z"/>
	<path class="st20" d="M74.4,384.7c-1.1,1,0.7,3.7-2.4,4c-0.9,0.1,1.2,2.2,2.4,2.5c4,1,8,1.7,11.9,3.3c6.8,2.8,13.7,5.4,20.6,8
		c7.2,2.7,14.5,5.2,21.8,7.9c2.3,0.8,4.7,1.6,6.6,3.3c-3,2.6-6.2,0.2-9.3,0.1c-1.6,0-3.3-0.6-4.9-1.2c-9.4-2-18.2-6.2-27.2-9.4
		c-6.1-2.2-12.3-4.1-18.3-6.7c-0.8-0.3-1.8-0.9-2.5-0.5c-3.1,1.6-5-0.6-7-2.5c-0.6-2.8-1.4-5.5-3.3-7.7c-0.7-0.8-1.5-1.9-0.6-3.3
		c3.4-1.2,6.8-0.8,10.1,0.4C72.8,383.9,74.3,383.4,74.4,384.7z"/>
	<path class="st21" d="M229,323.7c-0.9-6.6,3-11.7,4.7-17.5s4.1-11.4,3.7-17.8c-4.2,15.9-13,30.1-13.8,47.3
		c-3.2-5.8-1.1-11.5-1.1-17.2c0.1-6,3.3-10.9,5.4-16c2.9-6.8,3.4-14,4.5-21.1c3.5-2.3,6.3,0.4,9.4,1.3c1.1,1.9,1.1,4.1,1.8,6.2
		c-1.4,0.4-3.2-0.4-4.3,1.2c1.1,1.3,1,2.8,0.7,4.4c-1.6,9.9-5.8,18.8-9.2,28C230.7,323.4,230.1,324.2,229,323.7z"/>
	<path class="st22" d="M6.3,342.6c-1.6,2.4-0.4,5.7,0.3,6.9c3,5,6.2,9.9,10.7,13.6c2.5,2.1,3.8,6.2,8.2,4.9c1.7-0.5-0.5,2.4,1.3,3
		c2,0.7,2.7,4.7,5.9,2.6c0.3-0.2,2,1.1,2.1,2c0.4,2.2,2,3,3.3,3.1c4.4,0.2,7.3,3,10.1,6.2c1.3,2.5,1.1,4.7-0.8,6.7
		c-0.5-2.9-2.1-4.5-4.7-5.8c-17-8.5-31.2-20.6-40.7-38.5c-1-1.8-1.8-3.9-2.2-6c-0.5-2.7-0.4-5.4,2.8-6.2c2.8,1,3.9,3.7,4.8,6.3
		C7.7,342.1,7.3,342.9,6.3,342.6z"/>
	<path class="st23" d="M66.6,393.3c2.8,2.9,6.6,0.4,9.6,2c4,2.2,8.5,3.1,12.6,5.1c2.6,1.3,6.2,2.2,9.4,3.2
		c7.6,2.3,14.8,5.8,22.5,7.5c1.5,1.7,3.5,2.1,5.4,2.4c6,0.9,11.5,3.4,17.1,5.7c3.3,1.4,6.9,2,10.5,2.1c1.5,0,3.3-0.2,3.5,2.4
		c-1.7,2.8-4,2.4-6.4,1.6c-24.4-6.4-47.4-17.8-71.4-25.6c-2.7-0.9-5.6-1.3-8.4-1.8c-1-0.2-2.5-0.9-2.9,0.8c-0.4,1.7,1.5,0.6,2,1.4
		c0.4,0.6,0.3,1.1-0.3,1.5c-3.1-2.4-6.8-1.9-10.2-2.8c-0.2-3.1,2-3.9,4-4.2C64.9,394.6,65.7,394,66.6,393.3z"/>
	<path class="st24" d="M66.6,393.3c-0.2,1.4-0.4,2.9-0.7,4.6c-3-4.5-4.4-0.5-6.2,1c-7.3,1.2-10.6-0.8-12.2-7.4
		c0.7-2.2-0.6-4.6,0.8-6.7c1.7-1.5,2.3-4.1,4.6-4.9c0.2,0.2,0.4,0.3,0.7,0.4c1.7,0.7,3.6,0.1,5.3,0.3c1.4,0.2,3.2,0,3.5,2.2
		c1,1.4,2.1,2.9,3.1,4.3C66.7,389,67.7,390.9,66.6,393.3z"/>
	<path class="st25" d="M115.5,361.4c-5.3-4.5-9.2-10.6-13.4-16.2c-2-2.7-4.1-5.1-7-6.6c-2.1-1.1-5.9,1.2-6.3-3.6
		c-0.6-3.4-3-7.1,1.5-9.5c3.3,1.7,6.4,3.4,8.3,7.4c1.2,2.4,5.1,2,6.2,5.6c0.8,2.6,1.9,5.4,4.5,6.7c1.8,0.9,1.3,2.5,1,4
		c4.1,3.1,5.9,8.4,9.6,11.8c0.9,0.8,0.9,2.3-0.2,3.3C117.7,364.5,117.6,361.2,115.5,361.4z"/>
	<path class="st26" d="M208.5,326.6c-1.1-0.2-2.2-0.4-0.8-1.9c0.8-0.9,1.7-1.7,2.3-2.6c0.5-0.7,0.9-1.7-0.1-2.4
		c-0.9-0.7-1.6,0-2.1,0.8c-2.2,3.3-3.7,6.8-3.8,10.9c-1.9-0.1-1.6-1.7-1.7-3c0.4-6.6,3.9-11.7,7.8-16.1c4-4.5,4.5-10.4,6.3-15.8
		c0.2-0.6,0.9-2.7-1.1-2.8c1.2-3.4,3.5-2.3,5.7-1.7c1.4,0.3,2.2,2,3.8,1.8c-0.3,1-1.4,1.5-1.2,2.8c0.1,1,1.5,3.7-1.4,1.4
		c0,0-0.5,0.6-0.7,0.9c-0.1,0.2,0,0.6-0.1,0.9c-1,4.7-4.3,9.1-1.8,14.4c0.2,0.4-0.5,1.3-0.8,2c-3.4,3.1-5.6,7.2-8.6,10.7
		C209.5,327.2,208.9,327.2,208.5,326.6z"/>
	<path class="st27" d="M70.8,357.6c-1.9,6.7,4.5,8.6,6.3,13.2c2.5,6.4,8.7,7.7,12.7,11.9c0.6,0.6,1.6,1.2,1.2,2.2
		c-0.6,1.5-1.7,0.4-2.6,0.2c-6.2-1.4-10.7-5.7-15.1-10.2c-1.3-1.3-2.4-2.8-4.4-1.2c-5.6-7.3-5.4-15.4-2.6-23.8
		C67.9,352.4,69.9,354.6,70.8,357.6z"/>
	<path class="st28" d="M434.7,389.4c0-0.3,0-0.6,0-0.9c4.2,1,8.1,2.5,9.5,7.6c3,3.4,2.4,7.1,1.2,11c-2,3.1-3.4,6.8-7,8.3
		c-5-0.2-8.4-4.8-6.3-8.9c0-0.4,0-0.8,0-1.2c-1.1-2,0.4-3.4,1.2-4.9c0.6-1.1,1.8-2,1.2-3.6C436,394.4,433.7,391.8,434.7,389.4z"/>
	<path class="st29" d="M444.1,407.3c1.8-3.7,0.6-7.5,0.1-11.2c5.8,1.7,10.4,5.9,15.4,9.4c1,2.6,0.4,4.6-1.6,6.4
		c-3,2.6-5.6,5.8-9.5,6.8c-0.1,0-0.4,0.1-0.4,0.1C446.3,415.1,445.4,411.2,444.1,407.3z"/>
	<path class="st30" d="M243.7,289c-3.7-1-1.8-3.9-1.8-6.2c12.8,4.6,24.1,12.4,36.5,18c1.3,0.6,2.1-0.1,3.1-0.4
		c1.6,3.9,5.7,4.3,8.2,7.1c1.1,1.2,2.6,1.9,3.1,4.8C276.8,302.5,261,293.8,243.7,289z"/>
	<path class="st31" d="M88.8,335.1c1.2,3,4.8,1.2,6.3,3.6c-1.6,0.7-3.1,1.5-4.7,2.2c-1.4,0.6-2.2,1.2-1.5,3.1
		c0.6,1.4-0.2,4.2-0.5,4.1c-2-0.6-4.3,1.8-6-0.7c-0.7-1-1.4-1.9-2-2.9c-1.1-1.7-2.7-3.2-4.7-1c-1.8,2-3.2,1.1-4.2-1
		C76.3,337.1,82.7,336.5,88.8,335.1z"/>
	<path class="st32" d="M369.3,354c-3.7,3.6-7.4,7.1-11.4,10.9c-2.7-6.7-3.4-13.9-7.3-19.6c5,2.1,10.3,3.4,14.3,7.5
		C366.1,354.1,367.8,353.7,369.3,354z"/>
	<path class="st33" d="M6.3,342.6c1-3.8-3.1-4.7-3.6-7.6c3.4-2.3,5.3,0.1,7.2,2.7c0.1,0.8,0.1,1.6,0.4,2.3
		c3.9,8.2,8.2,16.1,14.5,22.4c1.9,1.9,3.7,4,6.3,4.5c2.3,0.4,1.7,2.9,2.8,4.1c-8.1-4.3-14.6-11-20.2-18.3
		C11.2,349.5,8.8,346,6.3,342.6z"/>
	<path class="st34" d="M396.8,368.8c-1.1,1.4-2.5,2.5-3.3,4.2c-0.7,1.6-1.7,3.8-3.4,3.7c-1.5-0.1-1.9-2.5-2.5-4
		c-1.4-3.8-3.1-7.3-5.4-10.4C387.5,363.4,391.7,367.3,396.8,368.8z"/>
	<path class="st35" d="M328,343.6c0.8-5.7,1.7-11.3,2.5-17c0.1,6.5,1.7,8.8,7,10.5C333.4,337.6,331.8,342.5,328,343.6z"/>
	<path class="st36" d="M62.3,382.9c-2.5-2.6-6-1-8.8-2.6c6.4,0.3,12.9-0.9,18.9,2.7C69,383,65.6,382.9,62.3,382.9z"/>
	<path class="st37" d="M138.8,313.5c-1.6,0.5-2.9,0.5-3.8-1.5c-1.4-2.8-3.1-5.4-4.6-8.1C133.5,306.7,136.8,309.4,138.8,313.5z"/>
	<path class="st2" d="M127.3,556.7c5.3-0.2,10.6-1,15.8,0.7C137.8,557.5,132.5,557.6,127.3,556.7z"/>
	<path class="st38" d="M583.5,467.4c-2.9-0.7-2.4,3.2-4.3,3.8c1-1.8-0.1-4.7,2.5-5.6C582.4,466,583.5,466,583.5,467.4z"/>
	<path class="st39" d="M409.8,506.8c4.6,3.7,10.1,4.3,15.4,4.6c7.5,0.4,15.1,0.1,22.5,0.1c0.2,1.4-0.2,1.8-0.8,1.8
		c-13.2,0.2-26.6,2.5-39.7,0.8c-16.3-2.1-32.7-1.9-48.9-4.6c-8.9-1.5-17.9-3.8-27-2.7c-0.9,0.1-1.7-0.1-2.3-1
		c-0.4-1.6-3.1-2.2-1.7-4.6c0.7-0.7,0.7-1.6,0.2-2.3c-0.1-0.8-0.7,0-0.2-0.2c0.1,0,0.3,0.5,0.4,0.7c0.3,0.8,0,1.4-0.6,2
		c-1.7,1.3-3.2,0.4-4.8-0.3c-1.7-0.7-3.2-2.1-5.2-1.8c-0.7,0.2-1.7,0.1-1.9,0.6c-0.4,0.7,0.4,1.4,1,1.7c2,1.1,4.3,1.6,6.4,3.7
		c-8.6,3.6-13.2-6.3-20.5-6.9c0.6,2.2,2.2,2.3,3.4,2.8c1.2,0.5,3,0.9,3,2.3c-0.2,5.1,3.5,4.7,6.1,5c7.1,0.9,14.3,3.1,21.5,0.6
		c0.4-0.1,1-0.2,1.2,0c5.4,5.3,12.5,2,18.5,4.1c5.6,1.9,11.5,2.5,17.2,2.6c4.4,0,8.7,0.8,13,1.2c9.3,0.9,18.4,2.8,27.6,4.7
		c6.9,1.4,14.5,1.9,21.8,0.7c2.8-0.5,5.9,0.2,8.8,0.4c0,3.3-2.5,2.4-4,2.4c-2.8,0-5.2,0.6-7.4,2.5c-1.3,0-2.3-0.9-3.5-1.1
		c-5.6-2-11.3-0.3-17-1l0,0c-1.2-1.1-2.5-1.6-4-1.3c-5.3,1-10.5,0.4-15.7-1.4c-0.4-0.1-0.8-0.4-1.2-0.3c-8.5,1.3-16.7-1.6-25.1-2
		c-4.9-0.2-9.6-1.5-14.5-2.1c-7.9-0.9-15.9-1.1-23.8-1.5c-10.4-0.6-20.3-3.9-30.5-5.3c-2.9-0.4-5.7-1.1-8.5-0.1
		c-2.8,1-5.2,0.2-7.3-1.4c-2.2-1.7-4.5-2.3-6.9-1.8c-4.2,0.8-8.3,0.2-12.3-1.3c-4.7-1.7-9.6-1.8-14.4-1.7c-2.3,0-4.6,0-6.8-0.9
		c-4.8-1.9-9.8-1.4-14.7-1.6c-1.4-0.1-2.9,0-4.2-0.9c-4.8-3.6-10.5-2.1-15.8-3.1c-9.3-1.7-18.7-1-28.1-0.2
		c-11.2,1-22.1-2.8-33.2-4.1c-2.8-0.3-5.7-0.2-8.5-1.4c-1.9-0.8-3.5-1.9-3-4.4c0.4-2.3,2.2-2.6,4-2.6c8.4,0.2,16.8,0.5,24.5,1.3
		c-7.7-0.2-15.7-2.9-23.7-5.3c-8-2.4-16.3-4.6-23.9-8.6c-1.7-0.9-3.6-1.5-3.1-4.3c1.3-1.8,3.1-1.8,4.7-1.2c3.6,1.4,7.3,1.4,11,2
		c3.9,0.7,7.4,1.9,10.3,5.2c2.4,2.7,5.8,3.2,9.1,3.5c7.8,0.8,15.4,3.2,23,5c2.4,0.6,4.4,1.2,6.1-1.4c2.3-3.4,5.5-2.1,8.3-1.4
		c7.1,1.8,14.3,2.7,21.6,3.2c0.6,0,1.1,0.1,1.7,0.1c1.2-0.1,2.9,0.4,3.4-1.2c0.6-1.8-1.1-2.7-2.2-3.6c-1.4-1.2-2.9-2-4.4-3
		s-2.9-2.1-2.5-4.4c1.8-2.1,3.6-0.5,4.9,0.5c5.7,4.5,11.6,8.5,16.5,14.1c2.9,3.4,5.6,2.9,8.5-0.5c5-5.8,9.6-12,14.9-17.5
		c2.7-2.8,4.5-2.7,6.9,0.1c0.7,0.8,1.6,1.6,1.1,2.8c-0.5,1.1-1.6,1.1-2.2,1c3.6,1.1,6-0.7,8.3-4.4c2.3-3.8,3.7-8.1,6.4-11.6
		c1.3-1.7,2.3-3.6,4.5-4.1c3.9-0.4,7,2.5,10.7,2.9c1.9,0.2,2.7,2.5,2.6,4.3c-0.1,2.7-2.6,0.7-4,1.8c2.4,3,1.9,6.1,0.6,9.3
		c3.7-1.1,7.9-2.2,10.9,0.7c1.4,1.4,3.9,4.8,1.4,8.8c1.1-2.7,1.5-3.8,0.7-4.6c-2.7-2.8-0.6-5.9-0.7-8.9c0-2.1,1.5-2.1,2.6-0.8
		c1.5,1.9,3.6,3.1,4.7,5.4c0.5,0.7,1.4,1,1.9,1.7c-0.4-0.8-1.3-0.8-1.8-1.5c0.8-4.7,0.6-4.3,4.3-1.9c2.4,1.6,5.3,2.4,7.2,5
		c1.1,1.5,2.1,3.3,3.1,4.9c2.3,3.8,7,3.9,9.2,7.9c0.9,1.5,1.6,3.6,3,4.8c3.2-3.6,6.9-1.1,10.2-0.5c1.9,0.4,3.1,1.5,3.3-1.7
		c0.1-1.5,1.6-2.1,2.8-2.6c1.6-0.8,2.8-2.1,3.9-3.6c1.5-1.9,1.5-3.2-0.8-4.3c-1.3-0.6-3-1.3-2.1-3.3c0.9-1.8,2.5-0.8,3.9-0.4
		c1.7,0.5,3.6,1.8,4.9-0.7c3.9-4.7,7.2-9.9,10.9-14.8c1.4-1.9,2.8-3.3,4.6-0.4c0.1,3-2.1,4.7-3.3,6.9c-4.4,8.1-10.4,14.9-14.4,22.5
		c1.7-1.4,2.9-4.3,5-6.2c0.8-0.7,1.7-1.6,2.7-0.9c1.3,0.9,0.7,2.3,0.2,3.3c-1.5,3.4-3.7,6.3-5.8,9.3c-2.6,3.9-2.5,4.4,1.8,5
		c6.1,0.7,12.2,1.7,18.4,1.6c4.3-0.1,8.6-0.2,12.7,1.4c1.9,0.7,4,0.2,6,0C398.9,502.4,404.6,503.5,409.8,506.8z"/>
	<path class="st40" d="M409.8,506.8c-3.5-0.8-7.1-0.9-10.4-2.4c-0.7-0.3-1.5-0.6-2.1-0.4c-6.9,2.1-13.5-1.3-20.3-1
		c-8.4,0.3-16.8-1.3-25.1-1.9c-2.5-0.2-2.1-1.2-1.1-2.9c2.4-3.7,4.7-7.4,7-11.1c0.7-1.1,1.3-2.3,1.7-3.8c-4.1,2.7-5.7,8.5-11.2,9.8
		c7-11,14.1-22,21.1-33.1c0.8-4,2.4-7.7,4.9-10.7c2.4-2.9,4.7-5.9,7-8.9c0.9-1.2,1.7-2.6,3.4-2.2c3.2-1.4,3.8-5.4,6.9-7.3
		c6.6-3.9,12.5-2.1,15.7,5.6c3.3,7.9,4.7,16.4,6.8,24.6c0.9,3.3,2.6,5.7,4,8.2c7.7,13.6,20,22.1,30.8,32.2c2.5,2.4,5.3,4.6,7.8,9
		c-15.1-8.6-24.3-23.6-38.7-32.2c8.9,12.5,21,20.2,31.1,31.6C435.3,507.3,422.3,510.2,409.8,506.8z"/>
	<path class="st41" d="M384.7,438.2c-4.2,6.3-10.4,10.9-13,18.6c-0.4,1.2-1.5,2.1-2.3,3.2c-1.4-0.8-2.5-0.5-3.2,1
		c-2.8,5.4-7,9.6-10.3,14.6c-0.2,0.3-0.8,0.3-1.2,0.4c-4.2,1.6-7.6-1.7-11.4-2.4c-3-0.6-5.8-2.5-8.8-3.5c-2.8-1-3.5-2.8-1.7-5.6
		c1.1-1.8,2.6-3.3,3.5-5.2c9.3-15,18.6-29.9,27.4-45.1c1.2-2,2.3-4.4,4.7-5.3c1.7-3.4,4.1-3.1,7.1-2c5.2,1.9,9.8,5,14.9,7
		c1.7,0.7,2.4,2.1,2.2,4.1c1,3.3-2.1,4.9-3.2,6.7C386.7,428.8,385.9,433.5,384.7,438.2z"/>
	<path class="st42" d="M325.5,354c0.3-1.3,0.5-2.5,0.8-3.8c2.6,0.4,4.5,4.5,7.8,2c2.3,1.8,5,2.8,7.5,4.1c1.8,0.9,3.2,0.7,4.6-0.6
		c1,2.5,1.1,5.3,2,7.9c0.8,2,1.3,4.8-1.7,6.8c-3.5,2.3-3.1,7.9,0.3,11.8c2.4,2.7,5.4,3.9,8.9,3.5c4-0.5,5.8-4.4,4.1-9.2
		c-0.9-2.6-2.2-5-1.9-7.9c0.3-2.1,0.9-2.7,2.8-1.9c2.2,1,4.1,2.9,6.6,3.1c3.9-0.1,6.7,3.5,10.6,3.7c0.8,2.3,2.4,4.1,2.8,6.6
		c0.4,2.7,0.7,4.8-1.7,7c-4.1,3.9-0.9,11.9,5.4,13.7c3.1,0.9,6.3,0.9,8.6-2.2c2-2.8,1.1-5.5-0.6-8.1c-0.5-0.7-0.7-1.7-0.9-2.6
		c-1.5-6.9-1.3-7.1,4.9-5.5c1.1,0.3,1.9,0,2.8-0.4c2,1.3,4.5,1.8,5.3,4.6c-2.4,3.6-4.2,7.9-7.2,10.6c-2.3,2.1-2.8,5-5,7
		c-1.6,1.5-0.1,2.7,1.2,3.9c1.9,1.7,5.2,1.3,5.7,4.8c-1,1.2-2.1,0.7-3.2,0.3c-10.9-4.3-22.1-7.4-33-11.6c-3.2-1.2-6.2-3.2-9.1-5.2
		c-7.6-5.2-16-8.3-24.8-9.7c-3.7-0.6-7.3-1.3-10.5-3.7c-2.1-1.6-3.3-3.8-1.5-6.3c1.4-1.9-2.5-2.5-0.5-4.1c3.2-0.8,6.7-1.1,8.5-4.9
		c1.3-2.7,0.4-4.9-1.5-6.6c-1.9-1.8-3-4.2-4.8-5.9c-0.5-0.5-0.9-1.4-0.5-2.1c0.5-1,1.4-0.7,2.3-0.6
		C322.5,352.8,323.6,355.2,325.5,354z"/>
	<path class="st38" d="M572.4,475.8c0,1.2-1.1,4,1.7,2.1c3.2-2.1,4.7-0.5,5.9,2.4c1.6,3.9,0.8,8.3-1.5,9.4c-4.3,2-8.3,4.5-11,8.9
		c-0.3,0.5-1.3,0.4-2,0.5c0.8-3,0.5-4.8-2.9-3.1c-2.6,1.3-5.2,1.9-6.8,5.5c-1.5,3.4-6.2,3.1-9.8,3.9c2.3-1.5,4.6-3,7.1-4.6
		c-0.4-0.3-0.9-0.8-1-0.7c-6.2,4.7-14,1.3-20.7,4.8c-4.1,2.2-9.8,1.1-14.7,1.1c-2.5,0-4.4-0.1-7,1.4c-2.2,1.2-5.8,1.4-8.8,1.8
		c-4,0.6-7.4,2.1-10.9,4.8c-5.2,4-11.4,7-17.5,7.6c-7.1,0.7-14.2,2.6-21.4,1.8c2.3-3.4,6-4.1,9.2-3.5c5.4,0.9,8.6-1.6,11.5-5.8
		c5.7-4.2,10.1-10,15.4-14.1c-2.7,0.3-4.7,4.7-8.5,2.8c-0.2-6,5.2-6.5,7.9-6.9c3.7-0.5,6.9-1.9,10.2-3.2c0.5-0.2,1.1-0.1,1.7-0.2
		c1.3,0.5,2.5,0.2,3.5-0.9c2.3-2.9,5.7-2,8.6-2.8c0.7,0.7,0.4,1.7,0.5,2.6c0.9-0.3,1.4-1.1,2-1.7c0.2-0.3,0.3-0.8,0.4-0.8
		c4.8,0.5,9.5-1.4,14.4-1.3c0.1,0.4,0.2,0.8,0.3,1.2c-10.6,3.3-21.1,6.6-32.1,10c3,2.8,6.6,3,9.3,1.7c6-2.9,12.3-1.7,18.4-2.3
		c5.2-0.5,10-1.2,14.6-4.2c3.7-2.4,8.3-1.8,12.5-2.3c4.9-0.6,6-2,5.1-7.3c-0.4-2.3,1-4.5,2.6-4.6c3.9-0.3,6.5-2.7,9.5-4.8
		C569,474.5,570.9,475.6,572.4,475.8z"/>
	<path class="st43" d="M316.8,372.6c0.4,0.8,0.9,4.7,0.6,6.4c-0.3,1.7,0.7,2.2,1.7,2.9c3.2,2.4,6.8,3,10.5,3.6
		c9.1,1.3,17.7,4.4,25.4,10c6.2,4.5,13.2,6.7,20.1,8.8c2.8,0.8,5.3,2.2,8.1,3c5.5,1.5,10.8,3.6,16.2,5.6c1.8,3.3,0.4,5.5-3.5,5.5
		c-1.1,0-2.2-0.4-3.3-0.6c-1-1.6-2.2-2.7-4.1-3.4c-4.9-1.8-9.4-4.8-14.4-6.7c-2.7-1-3.5-1.1-4.1,1.8c0,0.3-0.7,0.4-1.1,0.5
		c-3.8-4.5-9-6-13.9-8.2c-4.1-0.9-6.6-4.6-10.3-6.5c-4.8-2.5-9.9-2.2-14.8-3.7c-1-0.3-1.9-0.4-2.8-1c-3.1-2-6.7-2.7-9.8-4.5
		c-2.1-1.2-3.8,1.1-5.8,0.6C312.1,381.5,313.1,376.5,316.8,372.6z"/>
	<path class="st44" d="M444.1,407.3c3.8,2.7,3.3,7.4,4.4,11.4c-1.5,4.7-3,9.3-4.5,14c-0.7-0.1-1.9-0.4-2-0.1
		c-2.2,6.2-4.8,1.8-7.3,0.4c-0.8-0.5-1.7-0.8-2.6-1.1l0,0c-0.1-1.5,1.3-2.8,0.6-4.6c-1.1,0.8-2.1,1.7-3.3,2.3
		c-1.7,0.8-3.8,0.1-3.8-1.5c-0.1-8.1-5.5-2.6-8.2-4.7c0.5-1.5,1.1-3.5,1.7-5.5c2.9,0.5,5.5,1.8,8.5,2.1c4.6,0.6,8.3,0,10.7-4.9
		C440.2,412.4,442.2,409.8,444.1,407.3z"/>
	<path class="st45" d="M438.3,415c-0.4,6.1-0.8,6.6-6.4,6.2c-4.4-0.3-9.1,0.4-12.7-3.5c-1-2.4-3.2-3.6-5-4.9
		c-4-2.9-3.7-6.8-2.2-10.5c1.6-4.1,1.7-8.4,2.4-12.6c1.3,3.9,0.3,8,0.6,12c0.1,1.1-0.4,2.2,0.9,3.2c4.3,3.6,4.2,3.7,0.3,6.9
		c3.9,5,8.4,8.3,15,6.3c-1.5-1.5-2.1-3.7-1.5-5.9c0.6-2-0.3-4.9,2.4-5.8C431.8,411.3,434.9,413.2,438.3,415z"/>
	<path class="st46" d="M463.1,464.5c1-0.6,0.8-1.7,1-2.7c0.2-2.9,0.8-5.3,4.2-4.8c5,3.3,11.1,1.7,16.2,4.6
		c-8.8,2.7-17.6,5.3-25.7,10.2C458.6,468.2,459.2,467.1,463.1,464.5z"/>
	<path class="st47" d="M445.9,434.7c2.6-0.7,4.8-2.8,7.6-2.8c-0.3,1.5-0.5,3-0.8,4.5c-1.3,5.1-3.5,9.7-7,13.5c-1.2,1.2-2.1,1.8-3,0
		C440.9,446.1,441.6,436.9,445.9,434.7z"/>
	<path class="st1" d="M478.6,503c3.5-0.9,6.3-3.4,9.5-5.1c0.7-0.3,1.4-0.8,1.9-0.1c0.6,0.8,0.1,1.6-0.4,2
		c-6.1,4.2-10.5,10.5-16.4,14.9c-0.5,0.4-1.1,0-1.4-0.5c-1.7-3-5.4,1-7.2-2.8c2.6,0.4,3.8-2.7,7.1-2.1
		C474.2,509.8,477.2,506.5,478.6,503z"/>
	<path class="st44" d="M432.1,431.7c0,2.8-2.1,6.2,2.5,7.3c1.4,0.3,0.7,2.4,0.8,3.8c0.2,3.4-1.2,7,1,10.6c-2.3-0.1-3.9-1-4.1-3.1
		c-0.2-3-2.4-4.7-3.2-7.3c-0.3-1-1-2.1-2.1-0.4c-0.5,0.8-0.7,2.4-2.1,1c-1-0.9-1.4-1.8-0.8-3.2c0.6-1.6,1.1-3.4,1.6-5.1
		c1.6,0.2,0.7,3.2,2.8,2.9c2.3-0.3,0.2-2.3,1-3.2C430.5,434,430.1,431.8,432.1,431.7L432.1,431.7z"/>
	<path class="st48" d="M412.3,525.5c1.6-2.7,3.8-0.9,5.7-0.9c3.8-0.2,7.8-1.1,11.4,0.9c-0.4,2.6-2.3,0.8-3.4,1.5
		c-0.6,0.1,0.3,0.9,0,0.4c2-0.3,4-1.4,6,0c1.4-2.4,3.4-2.9,5.9-2.9c2.1,0.1,4.7,1.1,6.2-1.8c0.9,0.3,1.7,0.6,2.6,0.9
		c2.4,3.6-2.4,1.1-2.1,2.9c-3.8-1.8-7.1-0.3-10.6,1.5c-2.1,1.1-5,0.2-7.6,0.4c-1.8,0.1-3.6,0.6-5.4,0.9c-0.6-2,1.2-1.5,1.5-2.4
		c-0.2-0.1-0.3-0.4-0.5-0.4c-1.8-0.1-3.5,0.2-5.2,1.3C415.1,528.9,412.5,529.5,412.3,525.5z"/>
	<path class="st49" d="M404.6,386.6c-1.8-1.5-4.6-1.5-5.3-4.6c1.2-1.6,2.6-3.1,3.6-4.8c1-1.6,1.9-1.2,3.1-0.6
		c1.8,2.4,5.3,3.9,3.7,8.1C408.7,387.3,406.6,386.7,404.6,386.6z"/>
	<path class="st50" d="M327.1,501.2c-0.3,1.9,3.6,1.9,1.8,4.6c-3.7,0.8-5.3-3.2-8.2-4.2c-1.3-0.5-2.4-1.6-3.6-2.4
		c2.3-1.7,4.3,0.1,6.1,1C324.5,500.8,325.7,501.2,327.1,501.2L327.1,501.2z"/>
	<path class="st51" d="M409.8,384.7c-0.2-3.3-2.9-5.2-3.7-8.1c3-1.5,3.1,2.2,4.6,3.3c1.3,1,2,3.5,2.8,5.5c1.3,3.3-0.8,2.1-2,2.3
		C410.9,386.7,410.4,385.7,409.8,384.7z"/>
	<path class="st1" d="M501.8,491.8c-0.1,1.3-0.5,2.4-1.9,2.6c-1.1,0.2-1.4-0.7-1.6-1.7C499.1,490.7,500.4,491.2,501.8,491.8z"/>
	<path class="st1" d="M513,489.9c0.2,2.3-1.1,3.4-2.8,2.7c-2.3-1.1,1.6-2.2,0.3-3.6C511.3,489.3,512.1,489.6,513,489.9z"/>
	<path class="st38" d="M578.4,472.1c-1,1.4-1.4,3.4-3.4,3.7C574.6,472.9,575.7,471.7,578.4,472.1z"/>
	<path class="st48" d="M223.1,501.1c3.8-0.9,7.6,2,11.6-0.4c1.6-1,3.1,1.9,4.9,2.2c3.8,0.7,7.6,1.4,11.5,1c5.7-0.5,11,1.3,16.3,3.1
		c1.5,0.5,2.7,0.3,4.2,0.2c3.8-0.2,7.6-2.1,11.1,2c1.7,2,4.6,1.1,7.4,0.6c5.8-1.1,11.6,1.2,17.3,2.2c7.1,1.3,14.1,2.9,21.3,3.3
		c14.6,0.8,29.2,2.4,43.9,3.6c0.3,0,0.7-0.1,0.8,0.1c4.5,4.6,9.8,1.5,14.7,1.6c4.1,0.1,7.7,2.1,11.8,2.4c2.8,0.1,5.4,1.3,8.3-0.1
		c1.7-0.8,3.7,0,4.3,2.5c-3.8,0-7.7,0-11.5,0c1.8,1.3,4.4,1.2,4,4.5c3.8,0.1,7,3.2,10.7,2.7c3.9-0.5,7.3,0.9,10.9,1.6
		c3.4,0.6,3,3.2,2.2,6.1c-1.1,3.5-2.6,2.3-4.4,1c-1.2-0.9-2.7-1.2-4.1-0.7c-1.5,0.4-2.6,1.2-2.6,3.1c0,1.9,1.2,2.1,2.5,2.4
		c5.6,1.2,11.2,0.4,16.8-0.4c1.3-0.2,2.4-0.6,3.8-0.2c6,2.1,11.9,1.6,17.7-1c1.5-0.7,2.4,0.1,3.1,1.5c-6.3,3.2-13.1,2.6-19.7,3.7
		c-1.5,0.2-3.1-0.4-4.4,0.9c-2,1.4-4,1.5-6,0c-4.9,0-9.8,0-14.6,0c-17.2-0.7-34.3-1-51.4-2.1c-32.6-2-65.3-2.2-97.9-1.5
		c-14.2,0.3-28.3,0.5-42.5,0.7c-15.7,0.2-31.4,0.5-47.1-0.2c-22-1-43.9-2.3-65.7-5.5c-1.4-0.2-2.8-0.6-4.2-0.9
		c-2.7-5-7.7-4.4-11.8-5.4c-6.8-1.8-9.5-7.4-8.7-14.8c0.7-6.4,2-12.8,1.5-19.4c-0.2-2.7-1.9-3.4-4-4c-1.3-0.4-3.7-1.2-2.8-3.2
		c0.8-1.9,2.7-1.1,4,0.1c0.8,0.7,1.5,1.1,2.7,1c9.1-1.1,17.7,2.8,26.7,3.3c3.3,0.2,6.4-2.8,9.8-0.1c-0.9,0.2-1.7,0.4-3.2,0.8
		c1.8,0.6,3.1,1.4,4.3,1.3c8.3-0.8,16.2,3.1,24.6,2.1c4.3-0.5,8.4-3,12.9-2c0.5,0.1,1.3-0.3,1.7,0c5.2,4,10.4-0.4,15.6,0
		c1.9,0.8,3.9,2.5,5.2-1l0,0c0.4-2.5,2.4-1.9,3.7-1.8c9.2,0.3,18.5,0.7,27.7,1.4c0.6,0,1.1,0.1,1.7,0.3c1,0.4,1.9,0.9,1.6,2.3
		c-0.3,1.2-1.3,1-2.1,1c-1.1,0-2.3,0-3,0C218.1,503.7,220.9,503.8,223.1,501.1z"/>
	<path class="st0" d="M526.1,508.8c-3.2,3-6.9,3.5-10.7,3.5c-0.1-0.4-0.1-0.8-0.2-1.2C518.8,510.3,522.5,509.6,526.1,508.8z"/>
	<path class="st0" d="M532.3,508.1c3.3-0.8,6.3-3.3,10.2-1.6c-3.3,1-6.6,2-10,3C532.5,509.1,532.4,508.6,532.3,508.1z"/>
	<path class="st0" d="M509.8,510.8c-2.1,3.2-5.1,3.1-8,3.5c-0.1-0.4-0.2-0.8-0.3-1.2C504.3,512.4,507,511.6,509.8,510.8z"/>
	<path class="st52" d="M493.9,536.6c-3.1,0.7-6.2,1.4-9.3,2.1C487.4,536.3,490.3,534.8,493.9,536.6z"/>
	<path class="st38" d="M565.5,499.3c-1.8,2-4,1.6-5.8,2.5C560.8,498.9,563.2,499.2,565.5,499.3z"/>
	<path class="st53" d="M281.4,408.3c1,0.5,1.7,2.4,3.2,0.7c1.2-1.3,1.4-2.7,0.5-4.2c-0.7-1.2-1.5-2.2-2.4-3.3
		c-5.9-7.4-10.9-15.6-17.1-22.7c-0.7-0.8-2.8-2.4-1-3.8c1.7-1.4,2.8,0.5,3.8,1.8c8.1,11,16.3,21.9,24.5,32.9
		c0.8,1.1,1.7,2.2,3.1,2.2c0.5,0.7,0.1,1.3-0.3,1.8c-4.7,2.6-7.6,7.3-10.8,11.6c-2,2.7-3.4,6-6,8.4c-1.5,1.4-2.1,3.7-1.6,6
		c0.3,1.4,0.7,2.7-0.1,4c-0.2,0.4-0.5,0.7-0.9,0.9c-0.5,0.3-1.2,0.7-1.6,0.2c-5.2-4.9-12.3-5.2-18.2-8.7c-3.1-1.9-5.9-4.4-9.3-5.8
		c-2.4-1-4.8-2.2-7.4-2.4c1.7,1.7,5.8,1.1,5.3,4.1c-0.4,2.6-3.2,4.7-6,5.3c-1.8,0.4-3.9,0.9-5.1-1.1c-0.8-1.3-0.5-2.6,0.4-2.9
		c-2,4.3-4.6,8.8-6.3,13.9c-0.3,1,0.7,0.5,1.1,0.6c1,0.3,2.1,0.5,1.9,2c-0.1,1.1-1,1.4-1.9,1.7c-1,0.3-2,0.4-3,0.5
		c-6.4,0.9-7.4,3.7-3.5,9.2c0.8,1.1,1.8,2,2.8,2.9c0.8,0.8,2.1,1.5,1.8,2.9c-0.4,1.6-1.9,1.8-3.2,1.7c-4-0.3-8-0.1-12-0.6
		c-6-0.6-11.9-1.8-17.9-2.3c-1.5,0-3,0-4.4-0.4c-4-0.6-5.5-3.5-5.7-7.5c-0.2-2.9-0.9-5.5-2.3-7.9c-1.6-2.7-2.1-5.7-2.6-8.8
		c-1.4-8.1-2.1-16.4-5.7-23.8c-0.9-1.9,0.3-2.4,1.5-3.1c3.6-2.2,7.7-3.2,11.4-5.4c1-0.6,2-1.1,2.4-2.4c0.2-0.4,0.5-0.7,0.9-1
		c1.1-0.8,2.4-1.1,3.4-2.1c5.1-5,9.8-2.6,14.4,0.8c2,1.5,3.9,2.2,6.3,2.1c5.5-0.1,10.3,2.3,14.4,6.1c2.4,2.3,5.7,2.3,8.2,4.5
		c4.2,3.7,8.8,6.9,13.9,9.1c0.7,0.3,1.3,0.7,2,0.9c1.7,0.3,3.8,1,4.7-0.9c0.7-1.7-1.5-2.4-2.5-3.2c-11.2-8.7-21.7-18.4-33.6-26
		c-1.8-1.2-3.4-2.6-2.4-5.3c0.8-2.2,2.4-2.4,4.2-1.3c8.6,8.1,18.7,14,26.5,21.7c-2.9-3.2-6.9-6.4-11-9.5c-1.4-1.1-2.8-2.2-3.2-4.2
		c-0.9-4.8,0.1-6.2,4.9-6.7c1.1-0.4,2.5,0.2,3.2-1.4c-0.1-1.2-0.7-2.3-0.4-3.6c1.5-3.8,3.8-6.2,7.9-5.4c1.4,2.6-1.3,3.7-1.5,5.9
		c3.6-2.9,6.5-0.9,7.4,3c1.1,4.3,4.4,6.2,6.5,9.3c1,1.5,1.9,2.6,2.3,4.6c0.5,2.7,2.4,4.9,4.7,6.4c2.9,1.9,3.3,5.2,4.3,8.2
		c0.3,0.8-0.5,1.4-1.1,1.8c2.5-1.3,0.2-4.1,1.6-5.8C278.6,415.1,279.4,410.9,281.4,408.3z"/>
	<path class="st54" d="M229,323.7c4.1-10.9,9.3-21.5,10.4-33.6c5.7-0.6,10.7,1.8,15.5,4.3c11,5.8,21.9,12,33,17.6c3.9,2,4.8,5,3.8,9
		c-0.5,2.1-0.7,4.3-0.8,6.4c-3.6,0.2-6.7-1.7-9.8-2.9c-15.6-6.3-30.5-3.8-45.2,3.6c-0.1,0.1-0.2,0.2-0.3,0.3c-2.3,1-4.8,4.1-6.7,2.7
		C227,329.9,229,326.3,229,323.7z"/>
	<path class="st55" d="M295.4,413c0.2-0.3,0.4-0.7,0.6-1c1.8-2.8,3.5-5.7,5.3-8.5c1-1.7,1.8-3.4,4.3-2.8c1.7,0.4,3.1-0.8,3.3-2.8
		c0.3-3.9,1.6-7.5,2.8-11.1c2.2-3.1,4.7-3,7.7-1.2c2.7,1.6,5.6,2.7,8.4,4.1c1.2,1,0.3,1.9-0.2,2.8c-3.2,4.8-6.1,9.8-8.3,15.2
		c-1.1,2.6-3.1,4.5-5.2,6.2c-3.9,2.3-6.3,6.7-10.3,9c-1.5,0.9-2.9,1.8-4.8,1.1c-2.4-0.9-2.8,1.8-4,2.9c-2,1.9-3.2,1.6-4.1-1
		C291.2,421,292.3,416.5,295.4,413z"/>
	<path class="st56" d="M231.5,338.7c8.6-5.4,17.7-9.9,27-13.4c3.3-1.2,7.4-0.3,11.1-0.3c6.7,0,12.6,3.5,18.1,7.4
		c0.4,0.3,0.4,1.1,0.6,1.7c-0.2,0.3-0.5,0.7-0.7,1c-2.7,0.9-4.1-1.3-5.9-2.7c-4.6-0.7-8.8-3.4-13.6-3.1c-1.1,0.1-1.8,0.6-2.6,1.3
		c-0.4,0.2-0.7,0.2-1.1,0.2c-2.3-2.8-4-2-5.3,1.1c-3.1,0.4-5.7,1.5-5.7,4.9c2.8-5.1,5.9-6.5,11.9-4.1c3.2,1.3,5.4,0,7.7-1.9
		c0.9-0.1,1.6,0,2.2,0.8c1.8,2.4,2.5,4.3-1,5.8c-1.6,0.7-2.9,2.4-4.9,2.1c-0.4-0.1-0.8-0.3-1.1-0.5c-6-5-10,0.7-14.8,3
		c-5,2.3-6.2,7.5-8.7,11.8c-1.6,2.8-1.3,5.6,2.1,7c1.1,3.2,1.9,6.6,5.9,7.1c0.6,0.1,0.9,1.1,0.8,1.9c-0.5,1.3-1,2.5-2.1,3.3
		c-3.7,0.7-6.1-1.5-8.1-4.4c-2.5-5.2-5.8-9.5-11.1-11.6c-1.3-0.5-3.2-0.8-3.1-2.7c0.2-2.1,2.1-1.7,3.5-1.6c2.6,0.2,3.9-0.5,2.9-3.7
		c-0.8-2.7,2.6-3.8,2-6.4c-0.6-2.5-2.4,0-3.4-1C233.2,340.8,232.1,340,231.5,338.7z"/>
	<path class="st57" d="M274.7,414.7c1,2.6,0.7,4.8-1.3,6.7c-0.6,0.5-1.3,1-1.8,0.1c-0.2-0.4-1.5-2.4,0.9-1.6
		c0.7,0.2,1.1-0.9,0.7-1.1c-2.4-1.8-1.5-5.5-4.7-7.4c-2.2-1.2-6.2-4-4.4-8.8c0.1-0.2-0.2-0.8-0.3-0.8c-2.4,0-3.4-1.2-3-3.8
		c-2.9,1.1-3.6-1.8-3.6-3.3c-0.1-3.1-5.2-3-3.2-6.9c-1.3-0.8-2.9-1.1-3.8,0.3c-1.2,1.8-2.5,1.7-4.3,0.9c1.7-2.4,3.3-4.7,4.8-6.9
		c-1.7-2.7,0.3-4.1,1.5-5.8c0.9-0.8,1.3-1.9,1.9-3c0.9-1,2.5-1.3,2.7-3c0.1-0.6,0.4-1.2,0.9-1.5c0.9,0,2.2,1,2.3-1.1
		c2.1-1.4,3.4-4.2,6.3-4.1c1,0.8,1.5,1.8,0.7,3.1c-0.7,1.1-1.4,2.3-2.1,3.4c-5.5,8.8-5.4,9.4,1,17.5c2.9,3.7,5.6,7.7,8.6,11.5
		c0.8,1,0.7,2.3,1.3,3.3c2.2,3.5,2.2,3.5-1.6,5.2c-0.5,0.2,0-0.7-0.3-0.2c-0.1,0.2,0.2,0.3,0.4,0.5
		C275.5,409.8,274.5,412.3,274.7,414.7z"/>
	<path class="st58" d="M325.5,354c-0.3,2-1,3-2.7,1.3c-1.1-1-2.1-2-4.7-2.2c3.4,2,4.2,5.2,6.6,7.2c2.2,1.9,2.3,4.8,0.6,7.4
		c-0.2-3.7-0.4-7.3-5.3-4.7c-0.4,0.2-1.4,0.1-1.6-0.2c-1.6-3.4-4.9-5.9-5.9-9.3c-0.5-1.6-2.2-2.6-1.8-4.4c2.7-1.8,4.4,1.3,6.8,1.4
		c-1.6-0.4-2.6-1.6-3.3-3c-1-2.3-2.4-4-4.5-5.4c-2.7-1.8-2.7-4.2-0.6-6.1c1.9-2,2.4-4,1.7-7.2c-1.2-6,0-12.3,0.1-18.5
		c0-1,0.1-2,1.3-1.9c0.9,0.1,1.5,0.6,1.6,1.8c0.3,2.8,0.7,5.6,4.4,3.4c0.6-0.4,1.6,0.4,1,1.3c-2.6,3.9,1.8,1.1,1.8,2.6
		c-0.9,2.5-3.1,5-0.6,8.2c0.3,0.4-1,2.1-1.3,3.2c-0.9,2.9-1.5,5.6,0.1,8.7c0.4,0.8-0.9,3-1.9,4.3c-1.1,1.5-0.9,3.5,0.6,4.2
		C321.7,347.7,323,351.5,325.5,354z"/>
	<path class="st59" d="M282.4,331.3c1.2,2.2,3.3,2.7,5.2,3.8c-0.9,5.8-5.1,9.5-8.1,13.8c-1.6,2.2-3.3,0.8-3.9-1.7
		c-0.4-2-1.2-3.8-3.2-3.3c-2.3,0.6-2.3,3-1.8,4.9c0.8,3.2-0.6,6.8,1.6,9.6c-1.6,1.3-3,3-5.3,2.6c-2.6-1.2-5.5-1.4-8.2-2.4
		c-1.7-0.6-3.9-1.1-2.6-4c3.2-3.5,3.1-5.3-0.2-8.8c-0.9-0.9-2.2-1.6-1.8-3.3c3.8-2.6,7.4-5.8,12.3-4.8c0.8,0.2,1.7,0.3,2.3,1.1l0,0
		c7,1.3,10.1,0,12.8-5.3C281.6,332.7,281.7,331.9,282.4,331.3z"/>
	<path class="st60" d="M309.3,336c-1.1,0.8-0.6,2.6-0.4,2.8c3.9,2.9,5.3,8.4,9.6,10.7c0.9,0.5,1.4,0.6,1.3,1.5
		c-0.2,1.8-1.2,0.3-1.9,0.5c-2.8,0.7-4.5-2.4-7.1-2.3l0,0c-0.3-2.5-1.7-4-3.4-5.9c-3.4-3.8-8.2-6.8-8.8-13c0.9-1.2,1.8-2.5,2.7-3.7
		c1.2,2.9,4.1,4.6,4.8,7.9C306.6,336.4,308.7,334.3,309.3,336z"/>
	<path class="st61" d="M277.2,375.5c-2.1-0.7-1.6-3.7-3.5-4.6c-0.8-1-0.4-2,0.1-3c0.1-0.3,0.1-0.5,0.2-0.8c1-0.8,1.6-0.9,2.6,0.5
		c2.8,3.9,5.4,7.9,8.5,11.5c2.8,3.8,5.6,7.5,8.4,11.3c0.7,3.3,4.3,5.4,3.6,9.4l0,0c-1.9,0.6-3-0.8-3.8-2.2
		c-2.2-3.6-5.3-6.5-7.1-10.4c-1.7-3.6-5.9-4.6-7.4-8.6C278.3,377.6,278,376.4,277.2,375.5z"/>
	<path class="st62" d="M266.8,360.3c1.8-0.6,3.5-1.2,5.3-1.8c-1.1,2.9-2.9,4.8-6,4.9c-1.9,1.8-3.4,4.1-6.1,4.7
		c-2.6-3.6-7.9-2.1-10.3-6.4c-1.7-3-1.6-3.8,1.6-5.2C256.6,357.7,261.6,359.5,266.8,360.3z"/>
	<path class="st63" d="M277.2,375.5c5.7,6.8,11.7,13.3,16.3,21c0.8,1.4,2.3,2.2,3.5,3.3c-1.9,3.6-3.2,0.8-4.4-0.6
		c-2.3-2.8-4.4-5.7-6.9-8.4c-3.5-3.7-7.6-7.7-8.8-13.5C276.9,376.7,277.1,376.1,277.2,375.5z"/>
	<path class="st64" d="M274.7,414.7c-0.3-0.5-0.9-1-0.9-1.5c-0.1-3-0.2-6-4.3-7.9c3.1-0.1,4.7,2.7,6.3,1.1c1-0.9,0.2-2.9-0.2-4.3
		c2.6,1.4,3.2,4.9,5.9,6.2c0.8,3.6-1.9,5.4-3.6,7.6C276.8,417.2,275.7,415.1,274.7,414.7z"/>
	<path class="st65" d="M298.6,330.3c3.1,4.8,6.4,9.3,10.9,12.7c1.6,1.2,3.5,3.5,1.2,6.1c-4-4.7-10.3-7.1-12.3-13.9
		C298,333.5,296.5,331.9,298.6,330.3z"/>
	<path class="st66" d="M285,379.1c-4.4-2.5-6.8-7-9.2-11.4c-0.7-1.3-1.2-0.6-1.9-0.6c1.1-2.1,2.5-1.9,3.6-0.2
		C280.2,370.9,283.4,374.5,285,379.1z"/>
	<path class="st63" d="M297,399.8c-1.5-2.7-2.9-5.4-4.4-8c-0.6-1.1-0.1-1.3,0.8-1.4c2.5,1.5,3.3,4.4,4.8,6.7
		C299.3,398.5,298.1,399.2,297,399.8z"/>
	<path class="st66" d="M273.8,367.9c0,1-0.1,2-0.1,3c-0.8,0.8-2.1,1.9-2.6,0.3C270.5,369.2,272.6,368.8,273.8,367.9z"/>
	<path class="st2" d="M431.3,550.9c2,0,4,0,6,0c3,0.5,6.2-0.9,9.1,1.5c-2.8,0-4,4.9-5.8,3.6C437.5,553.8,433.4,554.4,431.3,550.9z"
		/>
	<path class="st67" d="M189.5,464.4c1.7,0.1,3.4,0.2,5.1,0.3c2.8,2.3,5.1,5.1,7.8,7.4c0.4,4,4.2,3.7,6.2,5.7c1.9,1.9,5.6,3,4.5,6.5
		c-1.1,3.6-4.8,1.8-7.2,1.8c-8.5-0.1-16.9-2-25.2-4c-2.1-0.5-3.2-0.1-4,1.9c-1.3,3.1-3.1,3-5.9,2c-7.9-2.9-16.1-4.3-24.3-5.5
		c-4.1-0.6-8.6-0.6-11-5.5c-0.4-0.9-1.8-1.5-2.9-1.8c-6.8-1.8-13.6-3.1-20.5-3.9c-1.6,1.7-3.6,1.6-5.6,1.5c-7.7-0.4-15.3-2-22.6-4.5
		c-1.5-0.5-3.6-0.9-2.7-3.7c6,1.5,11.9,3.1,18,3.7c2.5-1.9,5.3-0.7,7.9-0.5c8.1,0.8,16.2,0.6,23.6,1.9c-4.2,0.3-8.7-2-13.3-3
		c-1.5-0.3-3.6-0.9-2.2-3.7c1.7-1.1,3.6-1,5.4-1.1c20.3-0.9,40.5,2.7,60.9,1.9C184.3,461.9,186.6,464.6,189.5,464.4z"/>
	<path class="st68" d="M81.1,462.7c0.1,1.7,1.3,1.7,2.4,2c9.3,2.8,18.8,4.9,28.5,4.6c2.1,4.1,6.2,4.7,9.7,5.9
		c3.6,1.2,7.4,1.7,10.9,3.6c4.9,2.7,10.5,2.8,15.7,4.4c5.8,1.8,11.7,3.5,17.8,3.1c0.7,0,1.6,0.2,1.5,1.2c-0.1,1.9-1.6,1.5-2.6,1.5
		c-7.5-0.3-15-0.6-22.6-1c-1.7-0.1-3.4,0.1-5.1-0.3c-1.3-0.3-2.4-0.4-2.8,1.1c-0.5,1.7,0.6,2.7,2,3c4.1,0.7,8.2,1,12.2,2
		c5.9,1.4,12.1,1.3,18,3c5.6,1.6,11.6,1.6,17.1,0.3c9.7-2.1,18.9,0.5,28.4,1c1.4,0.1,2.8,0.2,4.3,0.3c2.4,0.2,4.9,0.3,6.5,2.8
		c-0.5,2.9-1.7,4-4.7,3.1c-2.3-0.7-4.9-0.1-7.4-0.7c2.8-2.3,6.2,1.1,9.2-1.6c-4.2-1.9-8.3-0.9-12.2-1.3c-7.3-0.7-14.6-1.2-21.9-0.5
		c-2.3-1.9-4.7,0-7,0c-5.4-0.1-10.8-0.1-16.2-0.1c-2.7-2-5.8,0.4-8.6-0.9c-2.3,0-4.6-0.1-6.9-0.1c-8.8-3.6-18-4.2-27.2-4.2
		c-11,0-20.6-4.4-29.5-11.1c-1.4-1.1-2.2-2.5-0.9-4.4c10.6,1.1,21.2,3,31.6,5.7c3.4,0.9,6.6,1.1,10,0.4c-0.2-0.6-0.3-1-0.4-1
		c-10.4,0.3-20-4.7-30.1-6.1c-6-0.9-12-2.7-17.7-4.8c-3.3-1.2-7.7-2.1-6.5-8.4c0.5-2.8-3.4-3-4.8-5.6
		C74.8,460.7,78,461.7,81.1,462.7z"/>
	<path class="st48" d="M89.7,479.6c0,1.7,0.3,2.8,1.9,3.7c4.8,2.7,9.3,6.4,14.2,8.1c4.1,1.4,8.7,3.1,13.2,2.6
		c8.8-1,17.3,0.2,25.6,2.9c1.1,0.4,2.1,1,2.6,2.2c-4.2-0.7-8.5,0-12.5-2.2c-0.4-0.2-0.9-0.4-1.2-0.3c-6.5,2.4-12.9-0.5-19.3-0.7
		c-5.2-0.2-11.2-2-16.8-3.4c-6.9-1.7-13.9-3.1-20.9-4.6c-3-0.7-5.9-6.5-4.8-9.4c0.5-1.4,1.6-2.1,2.7-1.7
		C79.5,478.6,84.8,478,89.7,479.6z"/>
	<path class="st68" d="M114.7,461.8c0.5,1,1.3,1.9,2.3,1.7c5-0.9,9,3.9,14,3.2c0.6-0.1,1.3,1,3,2.4c-12.4-1.1-23.7-0.5-34.9-2.7
		c0-1.7-1.3-1.8-2.4-2.2c-6-2.1-12.1-4.2-18.1-6.2c-0.6-0.2-1.7-0.1-1.2-1.2c0.2-0.4,1.2-0.4,1.9-0.6c5.1,0.9,10.3,1.8,15.4,2.8
		c6-1.3,11.8,0.7,17.7,0.9C113.5,459.8,114.3,460.6,114.7,461.8z"/>
	<path class="st39" d="M186.1,500.2c0.9,0.9,1.2,2.2-0.1,2.5c-1.7,0.3-4,1.5-5-1.6C182.6,500.8,184.6,501.8,186.1,500.2z"/>
	<path class="st48" d="M154.2,499.3c2.9,0.4,6-2.6,8.6,0.9C160,499.9,157,501.1,154.2,499.3z"/>
	<path class="st48" d="M141.7,500.5c2.4,0,4.9,0,7.3,0c0,0.2,0,0.3,0,0.5c-2.5,0-4.9,0-7.4,0C141.6,500.8,141.6,500.6,141.7,500.5z"
		/>
	<path class="st69" d="M254,373.7c0.8,1.3,0.6,2.2-0.8,2.7c-3.3,2.3-6.1-0.6-9.2-0.9c-3.1-1-5-3.2-5.3-6.8c-0.3-0.6-0.7-1.1-1-1.7
		c-4-0.6-6.8-4.1-10.7-5.4c-3.8-1.3-7.4-1.9-11,0c-3.2,0.6-6.5,0.7-9.4,2.5c-6.2,2.8-12.2,6.1-18.5,8.4c-16.4,6-33,6.9-49.8,2.2
		c-6.9-1.9-12.8-5.9-18.5-10.4c0.1-1.7-0.3-2.9-1.7-3.9c-3.7-2.7-5.7-7-7.7-11.2c1.5-0.9,3.3-0.2,3.9,0.9c2.2,3.9,7.2,4.6,8.4,9.4
		c0.4,1.4,2,1.6,3.1,2.4c5.4,3.8,11.1,6.4,17.2,8.6c2.7,1,4.2,1.1,5.8-1.4c1.3-2,2.7,0.3,3.7,0.5c4.5,0.8,8.8,0.6,12.8-1.7
		c1.6-0.9,2.8-0.3,4,0.2c3.2,1.4,6.2,1.4,8.7-1.5c0.9-1,1.9-1.7,3-1.2c1.9,0.9,3.3-0.2,4.8-1c3.6-2.1,7-4.3,11.1-5.5
		c2.7-0.8,4.5-5.2,8.1-5.9c2.6-0.2,5.8-2.1,6.3,3.1c2.7-3.2-0.6-3.7-2.1-6c2.4,1.4,4.8-2,5.9,2c2.4,1.9,5.1,2.3,8,3
		c7.9,2,15.3,5.5,20.5,13c2.2,2.3,4.7,4.1,7.8,4.8C252.4,372.5,253.4,372.5,254,373.7z"/>
	<path class="st70" d="M139.5,343.3c0,0.5,0.2,1.4-0.8,1.6c-0.9,0.2-1.4-0.5-1.6-1.2c-1.6-7.1-6.3-13-6.4-20.7
		c0-1.6-0.9-3.2-1.4-4.8c-0.2-0.7-0.3-1.7,0.5-2c0.7-0.3,1.6,0.3,1.7,1.1c0.4,3,2.3,5.3,2.9,8.1c1,4.7,1.8,9.4,4.1,13.6
		C139.2,340.1,139.2,341.7,139.5,343.3z"/>
	<path class="st0" d="M468.2,457c-2.2,0.7-2.8,3.2-4.2,4.8c-1.8-1-1.2-3.7-3.2-4.7c-0.8-0.4,0.1-2.3,0.6-2.2
		c3.4,0.9,2.6-2.2,2.8-3.6c0.5-2.6,1-4.7,5.1-3.3c-3.8-2.9-2.4-6-2.6-9.5c1.4,2,3.1,2.9,3.3,5.2c1.4-1.8,4.1-3.5-0.6-5.1
		c4.1,0.5,6.3-1,6.7-5.2c0.1-1.1,1.1-2.1,1.6-3.2c0.3-0.6,0.7-1.1,1.3-0.7c0.7,0.4,1.3,1.3,0.8,1.8c-2.6,2.8-0.9,7-3,9.9
		c-1,3.9-3.1,7-5.5,10.1C470.1,453,468.7,454.7,468.2,457z"/>
	<path class="st71" d="M492.3,447.7c0.8,0,1.5,0.4,1.4,1.3c-0.1,0.9-0.8,1.3-1.6,1.1c-0.5-0.1-1.1-0.6-1.2-1.1
		C490.8,448.1,491.5,447.8,492.3,447.7z"/>
	<path class="st72" d="M434.6,397.2c1.8,1.2,1.6,1,0.5,2.6c-1.2,1.6-2,3.7-3,5.5c-3.3-1-5.5-5.1-9.4-3.9c-0.1-0.4-0.2-0.6-0.2-0.7
		c1.5-2.6,0.1-7.7,1.9-7.9c3-0.3,6.2,2.2,9.3,3.5C434.3,396.2,434.6,396.5,434.6,397.2z"/>
	<path class="st73" d="M346.2,355.7c0,3.2-0.6,4.9-3.8,2.4c-1.6-1.2-3.6-1.7-5.4-2.5c-1.5-0.6-2.8-1.5-2.8-3.5
		c0.3-0.3,0.7-0.6,1-0.9C342.2,344.3,343.9,345,346.2,355.7z"/>
	<path class="st74" d="M378.1,373.4c-1.5,1.9-3.2,1.1-4.5,0c-1.9-1.6-4.5-1.6-6.1-3.7c2.1-2.2,3.9-6.5,6.7-5.7
		c2.6,0.8,2.8,5.4,3.7,8.4C378,372.8,378,373.1,378.1,373.4z"/>
	<path class="st75" d="M384,390.2c3.2-1,4.9,2.1,6.9,3.7c1.4,1.1-0.7,3.2-2.2,3.9c-2.8,1.2-6.6-1.4-7.2-4.7
		C381,390.7,381.5,390.1,384,390.2z"/>
	<path class="st76" d="M349.3,374.1c2.1,2,5.2,1.4,7.4,3.1c1.5,1.1,1,2.5,0.1,3.3c-1.5,1.4-3.2,2.4-5.4,1.2
		c-2.3-1.3-4.1-2.9-3.6-6.1C348,374.7,348,373.7,349.3,374.1z"/>
	<path class="st77" d="M434.6,397.2c-0.3-0.3-0.6-0.6-0.9-1c-0.6-2.3,0.4-5.9-3.9-4.9c0.7-3.6,2.8-3,4.9-2
		C435.1,392,438.6,394.7,434.6,397.2z"/>
	<path class="st78" d="M425.1,410.8c-1.3,1.3,0.3,5.4-2.4,4.9c-2.9-0.5-0.7-3.9-0.8-6c-0.1-1.1,0.2-2.8,1.7-2.6
		C425.3,407.4,425.1,409.1,425.1,410.8z"/>
	<path class="st79" d="M206.6,364.1c2-4,5.7-2.7,8.8-3.6c1.4,1.5,3,0,4.5,0.5c1.6,0.5,4.3-0.8,3.9,3.1c-0.1,1.5,1.6,0.7,2.4,0.9
		c1.5,0.4,3.8-0.2,2.9,2.9c-4.1,0.1-8.2-0.6-11.7,3.1c-4.9,5.3-12.6,4.6-18,9.2c-2,1.7-4.3,3.6-6.8,4.8c-5.2,2.4-11.1,2.8-16,5.5
		c-5,2.8-10.3,2.9-15.1,2.9c-4.6,0-9.1,0.4-13.5,1.1c-3.2,0.5-5.5,0.2-7.7-2.2c2.3-0.8,4.4-2.3,7-0.7c0.9,0.5,3.2,1,3.2-1.8
		c3.4,1.2,5.6-5,9.4-1.6c2,1.8,5.1,0.7,5.8-0.8c1.9-3.8,2.7-0.9,4.1,0.5c1-2.3,2.5-5.5,4.2-5.3c3.7,0.4,7-0.5,10.5-0.9
		c2.1-0.2,4.6,2.1,4.4-2.6c0-1,1.5-2.6,1.9-2.1c3.6,3.9,5.8-0.3,6.7-2.2c2.3-4.9,7.1-4.1,10.4-5.5c2.7-1.1,1.9-2.7,2.2-3.7
		c0.7-2.5-1.6-1.2-2.5-1.6C207.5,364,207,364.1,206.6,364.1z"/>
	<path class="st80" d="M238.7,368.7c1.6,2,2.6,4.7,5.1,5.7c-2.1,2.3-4.6,4.4-1.1,7.9c1.1,1.1,0.4,3.5,0.1,5.3c0.5,1,1,2,1.5,3
		c-0.7,0.5-1.5,0.6-2,0c-3.2-3.1-7.8-4.3-10.1-8.7c0.5-1.8,3.7-2.9,2.1-4.9c-1.4-1.8-3.9-0.3-5.5,0.7c-9.7,5.8-20.9,7.6-30.5,13.5
		c-1.2,0.8-2.7,1.1-4.1,1.4c-4.8,1-9.3,2.6-13,6.2c-1.4,1.2-2.9,2.1-4.7,2c-0.7-0.1-1.3-0.4-1.7-1c2.6-4.3,6.3-6.2,10.8-8
		c10.5-4.1,20.7-9.1,30.5-15.1c4.7-2.9,9.2-6,14.7-6.8c1.6-0.2,2.3,0.8,3.4,1.2C236.6,371.7,238.2,371.7,238.7,368.7z"/>
	<path class="st81" d="M174.8,399.8c0.6,0,1.2,0,1.8,0c-0.4,2.8-2.8,3.4-4.6,4c-4.7,1.4-9.2,3.2-13.5,5.4c-4.3,0.6-8.5,0.7-12.8,0
		c-9.3-1.4-18.7-2-27.6-5.6c1.1-0.7,2.6-1.5,3.6-0.7c3.6,2.7,8.1,0.5,11.7,3.1c1.5,1.1,3.3-0.5,5-0.6c7.2-0.3,14.4-0.3,21.6-1.3
		C165,403.4,169.9,401.3,174.8,399.8z"/>
	<path class="st82" d="M229.1,367.9c-0.9-3-2.9-1.6-4.6-1.3c-1.5,0.2-3-0.4-3.5-1.9c-0.5-1.6,1.4-1,2.2-2.3c-2.3,0-4.3,0-6.4,0
		c-1.2,0-2.1-0.1-1.4-1.8c9.1-4.5,15.7,1.1,22.4,6.5c-0.6,2.6-2.2,2.9-4.1,1.9C232.1,368.2,230.7,367.9,229.1,367.9z"/>
	<path class="st83" d="M114.7,461.8c-5.1-2.1-10.6-0.2-15.8-1.8c-1.3-0.4-2.8-0.3-4-1.1c-1.2-3.4-4-4.4-6.8-5
		c-3.5-0.9-5.8-2.6-5.4-7c0.1-0.5,0.1-1-0.4-0.9c-6.6,0.7-5.3-5.9-7.3-9.4c-0.1-0.1-0.2-0.2-0.3-0.5c-1.4,0.4,0.5,3-1.5,2.8
		c-1.4-0.2-1.7-1.7-2-2.8c-0.8-2.7-1.4-5.4-3.2-7.8c2.8-0.8,4.8,0.5,6.9,1.6c1-4-4.5-1.7-4.1-5.2c2.7,0.3,4.9,0.7,5.4,4.4
		c0.3,2.4,2.6,1.9,4.5,2.4c-2.8-3.8-4.8-7.7-2.5-12.5c0.8-1.8,1.2-3.9,4-2.1c2.3,1.5,4.4-2,6.9-1.1c0.6,0.6,0.6,1.4,0.4,2.2
		c-1.1,7.1-0.5,8.1,5.1,12c7.4,5.2,15.9,7.6,23.9,11.2c1.2,0.5,2.7,0.6,3.5,1.6c2.8,3.4,5.1,2.8,8.4,0.3c5.4-4.1,10.6-8.8,17-11.2
		c1.2-0.9,2.2-2,3.5-2.6c2.9-1.4,1.4-2.6,0-4c2-0.5,4.2-0.5,6-1.9c0.6-1.2,1.6-1.9,2.5-2.8c4.5-2.5,8.3-6,12.1-9.5
		c3.1-2.7,6.5-5.2,9.5-8c1.2-1.1,2.6-2.5,3.3-0.4c1,3,3.4,2.7,5.3,3.7c0,5.3-4.9,5.2-7.3,6.2c-2.7,1.2-4.9,4.3-8.5,3.3
		c1.1,1.8,2.5,2.4,2.8,4.8c0.9,7.2,3.5,14,4,21.4c0.2,2.3,0.6,4.5,1.9,6.5c2,3,3.1,6.4,3,10.3c0,2.7,1.3,4.9,4.1,5.5
		c-15.5-1.4-31-0.5-46.5-2.4C133.6,460.8,124.1,461.8,114.7,461.8z"/>
	<path class="st84" d="M147.2,431.8c-4.9,4.5-10.7,7.7-15.9,11.7c-2.7,2.1-5.3,5.4-8.1,2.5c-1.9-1.9-3.7-2.9-5.9-3.9
		c-7.9-3.5-16.3-5.7-23.5-11c-3.4-2.5-7.3-4.5-6.8-10.2c0.2-2,1.8-3.2,1.8-5.2c12.2-1.3,23.2,4.1,34.5,7.5
		C131.4,425.7,139.3,428.9,147.2,431.8z"/>
	<path class="st62" d="M243.6,368c-5.6-5-12.1-8.4-18.7-11.5c-1.1-0.5-2.2-0.9-3.3-0.4c-3.8,1.7-5.5-0.5-6.5-4
		c1.7-4.9,6.5-5.5,9.7-8.4c2-1.9,4.4-3.3,6.6-4.9c1.8,0,3,0.6,2.7,2.9c-2.4,2.9-6.5,3-8.5,6.5c-1.1,0.9-2.8,0.6-3.6,2.3
		c0.8-1.7,2.8-1.3,3.8-2.6c2.8-3.3,6.8-4.2,10.1-6.5c1.4-1,2.3,0.6,3.4,1.1c-0.9,1.7-2.3,3.2,0.1,5.7c-1.6-0.6-2.4-0.9-3.2-1.2
		c-0.9,2.6,3.3,5.2,0.4,7.1c-1.7,1.1-4.5,0.2-7.1,0.2c1.7,2.2,4.4,2.3,6.4,3.2c4.1,1.9,4.6,6.9,8.2,8.9
		C244.6,366.7,244.1,367.6,243.6,368z"/>
	<path class="st85" d="M210.1,326.6c1.2-4.8,5.2-7.3,7.6-11.2c0.7-1.1,1,0.2,1.1,0.9c-1.8,6.5-3.5,13-5.3,19.5
		C208.2,335.1,207.3,332.6,210.1,326.6z"/>
	<path class="st86" d="M202.4,328.4c0.6,1,1.1,2,1.7,3c1.2,4,2.6,7.9,5.5,10.9c0.8,0.8,2.2,1.6,0.9,3s-2.4,0.1-3.2-0.9
		c-1.7-2.1-3.2-4.3-4.8-6.5c-0.4-2.3-0.2-4.7-1.6-6.7C200.8,329.9,201.4,329.1,202.4,328.4z"/>
	<path class="st87" d="M210.1,326.6c0.2,0.4,0.7,1,0.5,1.2c-3.1,4.4-0.2,6.2,2.8,8c-0.1,1.8,0.9,4.7-0.6,5.1c-2,0.6-3.3-2.3-4.4-4
		c-2.1-3.3-0.5-6.9,0.1-10.3C209,326.6,209.5,326.6,210.1,326.6z"/>
	<path class="st26" d="M200.8,331.2c3.2,1.5,2.3,4.1,1.6,6.7C201,335.9,200.5,333.7,200.8,331.2z"/>
	<path class="st53" d="M189.5,406.4c-4,2.2-5.8,0.1-6.3-4.5c-2.9,5.4-7.6,6.9-11.8,9.2c0.7-1,1.5-2,2.8-3.8
		c-8.6,2-16.3,3.2-24.2,2.8c-1.5-0.1-3.2,0.5-4.4-0.9c4.6-0.3,9.3,0.7,13.8-1c10.7-2.4,19.8-9.1,29.7-13.8c2.3-1.1,4.4-1,5.8,1.8
		c0.6,1.2,0.8,2.4,0,3.5c-0.7,1-1.7,0.9-2.7,0.4c-0.9-0.4-1.9-1.1-2.8-0.4c-1.1,0.9-3.8,1.8-0.6,3.7
		C189.7,404.1,190.5,405,189.5,406.4L189.5,406.4z"/>
	<path class="st88" d="M159.3,420.5c0.1,2-1,2.5-2.5,2.8c-1.6-2.4-3.7-0.2-5.6-0.6c-5.4-1-10.4-3.2-15.5-5.1
		c-3.6-1.4-7.3-2.6-11.1-3.5c-1.8-0.5-3.2-1.2-4-3c4.8,1.4,9.7,2.5,14.7,2.6C143.5,415.5,151.4,418,159.3,420.5z"/>
	<path class="st89" d="M202.4,472.1c-4.7,0.1-6.1-3.8-7.8-7.4c9.9,1.2,19.7,2.8,29.7,2.9c0.7,0,1.4-0.1,2.8-0.1
		c-2.6-3-5.6-4.7-6.9-8.3c-1.8-5.3-0.6-8.2,4.6-8.5c1.9-0.1,3.8-0.1,6.1-1c-2-1.5-4.6,0.6-5.8-2.2c2.1-0.3,3.7-1.1,2.8-4.1
		c-0.4-1.5,5.8-11.1,7.3-11.5c1.1-0.3,2.3-0.5,3.3,0.2c0.2,0.1,0.2,0.9,0,1.2c-0.5,1.2-1.6,1.2-2.6,1c-0.7-0.1-1.5-0.4-1.5,0.8
		c0,0.9,0.9,1.6,1.4,1.4c2-0.8,4.9,0.6,6-2.3c0.6-1.7,2.1-1.3,3.2-2.6c-2.9-1.1-5.6-2.2-8.6-3.4c3.1-3.4,6.2-1.3,9-0.2
		c5.8,2.2,10.5,6.8,16.3,9c2.9,1.1,5.3,3.6,8.8,2.8c1.4-0.3,2.2,1.1,3,2.2c0.7,0.9,1,2.9,2.8,1.9c2,5-2.1,6.7-4.4,9.3
		c-4.8,3.4-6.3,9.4-9.2,14.2c-1,1.7-2.7,3-3.2,5.4c-0.3,1.8-2.4,2.2-4,1.7c-2-0.7-4.2-0.7-6.3-2.4c1.7-0.1,3.1-0.2,4.6-0.2
		c-3.2-4.8-3-4.6-7.2-0.6c-5.3,5-9.1,11.4-14.4,16.4c-1.1,1,0,3.7-2.1,3.5c-2.5-0.3-6.3-0.4-7.2-2c-1.8-3.6-4.8-5.3-7.3-7.5
		C211.6,478.2,207.6,474,202.4,472.1z"/>
	<path class="st90" d="M272,453.3c0.2-3.8,4.8-5.2,4.4-9.3l0,0c1.2-0.8,1.6-1.8,1.7-3.3c0.1-1.6,0.6-3.3,2.6-3.5
		c1.7,4.9,5,6.3,9.5,5.5c1.2-0.2,2.5-0.6,3.7,0.3c0.5,0.9,0.6,2,0,2.7c-2.9,3.7-0.3,4.7,2.3,5.6c4.8,1.7,9.2,4.2,13.8,6.4
		c2.9,1.5,5.6,2.1,8.5,0c3.2,0.1,6.1,0.2,8.7,3c1.5,1.6,3.7,1,5.7,0c1.5-0.8,2.9-2.4,4.7-0.8c-1.7,2.3-4.8,4.9-4.6,7
		c0.3,3.3,4.6,2.3,7,3.7c4.6,2.7,9.9,3.5,14.8,5.4c0.2,2.5-0.9,2.5-2.9,2.4c-2.1-0.1-3.7-2.4-5.9-1.8c-0.1,2,1.1,1.8,2,2.1
		c4.2,1.4,4.4,2.5,1.4,6.3c-1.6,2-3.1,3.8-5.6,4.5c-0.9,0.3-1.5,0.8-1,2.4c0.9,3.1-0.8,4.5-3,2.3c-2.7-2.7-6.1-0.4-8.9-2.3
		c-1.4-0.9-1.3,1.8-2.2,2.7c-3.1-1-2.6-5.2-5-6.9c-0.6-0.4-0.6-2.1-1.6-1.9c-4.7,1.1-4.7-5.1-8.2-6c-1.7-0.5-1.1-3.6-3.3-4.7
		c-1.4-0.8-1.2-4.1-4.4-1.9c-1.4,1-1.4-3.2-3-4.4c-0.9,1-0.5,2.7-1.7,3.4l0,0c-2.8-1-4.9-3-6.4-6c0.8,3.8-1.8,7.5,0.3,11.2
		c0.7,1.2,0.1,3.1-1.4,4c-0.8,0.4-1.6,0.8-2.4,0.2c-0.3-0.2-0.8-0.7-0.7-1c0.1-1.2,1.1-1.4,1.9-1.4c2.6,0.1,2-1.5,1.4-3
		c-2-4.9-7-6.4-11.8-3.5c-1,0.6-1.5,1.4-2.4,0c-0.7-1.2-0.7-1.7,0.6-2.3c0.6-0.3,2.1-1.1,0.4-2.7c-1.7-1.6,1.3-1.8,1.2-3.4
		c-5.7,0.7-0.7-3.9-2.8-5.4c2.4-0.8,2.8,2.2,4.7,1.7c-0.5-2.4-0.7-4.3-4.2-4C277.3,456.8,274.6,454.5,272,453.3z"/>
	<path class="st90" d="M332.4,494.5c0.5,0.2,1.5,0.4,1.5,0.7c0.2,3.1,1.6,4,4.2,3c0.1,0,0.6,1,0.5,1.1c-0.9,0.8-1.8,2-2.8,2.3
		c-1.5,0.5-5.1-4.8-4.4-6.4C331.4,494.9,331.9,494.8,332.4,494.5z"/>
	<path class="st0" d="M432.1,527.4c-2.2,0-4.5,0-7.1,0c1.4-1.7,3.6-0.1,4.5-1.8C430.7,525.5,432,525.5,432.1,527.4z"/>
	<path class="st90" d="M327.1,501.2c0.2-1.8-1.2-2.9-1.7-4.5C328.7,497.6,329.1,498.8,327.1,501.2L327.1,501.2z"/>
	<path class="st90" d="M297.5,477c-1.2-3-1.2-3,0.3-5C297.7,473.6,297.6,475,297.5,477z"/>
	<path class="st90" d="M301.3,472.1c2.6-0.3,2.8,1.8,3.2,4C301.9,476,302.8,472.9,301.3,472.1L301.3,472.1z"/>
	<path class="st91" d="M337.4,459.8c-1.5-0.1-2.6,0.9-3.8,1.8c-3.2,2.2-6.4,2.4-8.8-1.3c-1.1-1.6-2.4-1.6-3.7-1.2
		c-1.2,0.3-2.3,0.8-2.5-1.1c-0.8-1.7,0.1-3,0.9-4.3c10.2-16.3,19.8-33.1,29.3-49.9c1.6-2.8,3.6-4.4,6.8-3.2
		c3.4,1.8,7.2,2.9,10.6,4.9c1.9,1.1,2.7,2.5,2.9,4.6c-3.4-0.7-3.5,3.3-4.1,4.7c-3.2,6.8-7.5,12.9-11.4,19.2
		c-4,6.4-7.4,13.2-12.1,19.1C339.9,454.9,338.4,457.3,337.4,459.8z"/>
	<path class="st92" d="M355.5,400.6c-5.8-0.5-6.2,5.4-8.4,8.9c-6.1,9.6-11,20-17.3,29.4c-4.1,6.1-7.5,12.7-11.3,19.1
		c-1.1,1.8-2.2,3.8-4.7,2.7c-8.1-3.7-16.1-7.4-24.9-11.4c2.7-1.9,4.4-3.5,4.7-6.2c3.8-7.6,9.1-14.1,13.4-21.3c1.8-3.1,4-5.9,6.2-8.7
		c3.4-2.3,4.8-6.4,6.6-9.9c2.4-4.7,5-9.1,7.9-13.4c0.4,0.2,0.7,0.7,1.1,0.7c7.2,0,13.9,2.1,20.2,5.8
		C351.3,397.4,352.7,400.2,355.5,400.6z"/>
	<path class="st39" d="M240.6,506.6c-4,0.4-7.9-0.5-11.9-1c0-0.4,0-0.8,0-1.1c3.9,0.2,7.8,0.5,11.7,0.7
		C240.5,505.6,240.6,506.1,240.6,506.6z"/>
	<path class="st39" d="M245.6,507.1c5.2-1,9.4,0.8,13.7,1.4C255,508.1,250.6,509.5,245.6,507.1z"/>
	<path class="st39" d="M268.4,510.6c3.5,0.3,7.1-0.5,10.6,0.6C275.4,513.5,272,510.5,268.4,510.6z"/>
	<path class="st39" d="M304.9,516.4c4-0.1,8,1.1,12,1.2C312.8,517.7,308.7,518.9,304.9,516.4z"/>
	<path class="st39" d="M329.5,519.9c2.7-1,5.3-1.4,8,0.4C334.8,520.8,332.2,521.2,329.5,519.9z"/>
	<path class="st0" d="M381.7,524.9c4.2-0.5,8.4,0,13.3-1.7C392.2,525.8,389.2,526.1,381.7,524.9z"/>
	<path class="st39" d="M298,515.5c-3.5-0.2-7-0.4-10.5-0.6c0-0.4,0.1-0.8,0.1-1.3c3.5-0.4,6.9,1.5,10.4,0.4
		C298,514.5,298,515,298,515.5z"/>
	<path class="st39" d="M372.3,523.6c1.1-1.1,2.1-1.6,3.3-1.2c0.1,0,0.2,0.9,0.1,1.1C374.9,524.6,373.9,524.8,372.3,523.6z"/>
	<path class="st93" d="M189.5,406.4c-0.2-1-0.1-2.3-1.6-2.2c-0.8,0.1-2.1,2-2.2,0.1c0-1.3-1.5-3.9,1.1-4.6c1.9-0.6,3.7-5.3,5.9-0.3
		c0.1,0.2,1,0.2,1.1,0c0.3-0.4,0.6-1.1,0.5-1.6c-0.8-2.7-2.5-3.4-4.9-2.7c-0.1-0.2-0.2-0.4-0.2-0.6c0.6-2.7,3-2.1,4.5-3.2
		c7.6-2.5,14.4-7.3,22.2-9.3c5.2-1.3,9.4-5,14.5-6.5c1.9-0.6,4.8-2.8,6,0.6c1.1,3.3-1.4,4.9-4,5.9c-0.3,0.6-0.8,0.9-1.4,1.1
		c-2.7,3.1-5.2,6.4-8.9,8.2c-1.2-0.9-2.4-1.3-3.1,0.6c-0.5,1.3-0.2,2.3,1.1,3.1c13.1,8.1,24.5,18.7,36.7,28.2
		c1.1,0.8,3.3,1.4,2.7,3.1c-0.6,1.6-2.4,2.4-4.3,2.5c-5.1,0.3-9-3.1-12.9-5.6c-3-2-6.5-3.8-9-6.8c-1.5-1.8-3-1.8-4.2,1.2
		c-1.8-7.9-8-8.6-12.8-9.7c-4.1-0.9-8.2-0.7-11.8-3.9c-3.2-2.9-6.7-3.5-10.2,0.2C193.1,405.5,191.4,406.8,189.5,406.4z"/>
	<path class="st94" d="M222.1,391.4c2.3-3.7,5.7-6.3,8.8-9.3c0.6,3.2,3.1,4.4,5.1,6.3c1.5,1.4,3.8,2.1,4.3,4.7
		c-1.4,0.1-2.8,0.3-4.1,0.4c-2,7.5,4,9.1,7.6,12.3c3,2.7,5.9,5.6,7.6,9.7c-3.8-3.1-7.7-6-11.4-9.2
		C234.2,401.2,227.3,397.6,222.1,391.4z"/>
	<path class="st95" d="M280.6,437.3c-2.3,1.5-0.5,6.2-4.2,6.7c0.3-1,1-1.9,0.3-3c-2.5-4.1,0.3-6.5,2.4-9.3c2.4-3.2,4.4-6.9,6.9-9.9
		c2.8-3.3,4.7-7.8,9.4-8.7c-1.2,4.3-2.5,8.6-3.7,12.9c-0.3,1.7-0.8,3.3-1.5,4.9c-0.2,0.4-0.4,0.8-0.6,1.1c-1,1.6-2.3,2.7-4.1,2.8
		C283.5,434.8,282.1,436,280.6,437.3z"/>
	<path class="st96" d="M242.8,387.6c-1.2-2.4-0.5-5.5-3.5-7.4c-1.6-1.1,1.1-5,4.5-5.8c3.3-0.5,6,2.3,9.3,2c-0.8,1.9-3.2,3-2.6,5.6
		C247.1,382.3,244.7,384.5,242.8,387.6z"/>
	<path class="st97" d="M240.3,393.1c-3.4-1.1-5.2-5-8.8-6.1c-1.3-0.4-1.9-3-0.6-4.9c0.5,0,1,0,1.6-0.1c4.4,2.1,7.9,5.8,11.9,8.5
		C244.5,394.3,241.8,392.5,240.3,393.1z"/>
	<path class="st98" d="M289.5,430.5c0.1-1.9,0.7-3.5,2.3-4.6c0.5,0.7,0.8,2.2,2,0.4c1.6-2.4,3-4.5,6.6-3.5c1.9,0.5,4.5-1.8,5.9-3.7
		c2-2.7,4.5-4.5,7-6.3c-1.9,5.5-5.6,9.7-8.4,14.6c-2.8,4.8-6,9.3-9.1,13.9c-0.5,0.7-1.4,1.1-2.1,1.6c-3.4,0.9-6.5,2.1-10.2,0.3
		c-2.7-1.4-3.5-3.1-2.9-6c-0.2-2.6,0.6-4.1,3.3-3.6c2.3,0.4,4-0.5,5.2-2.7c0.2,0.1,0.6,0.3,0.6,0.3
		C289.9,431,289.5,430.8,289.5,430.5z"/>
	<path class="st99" d="M300.5,416.6c0.9,0,1.7,0.3,1.6,1.5c-0.1,0.9-0.7,1.3-1.5,1.3c-0.9,0-1.7-0.3-1.6-1.5
		C299.1,416.9,299.8,416.7,300.5,416.6z"/>
	<path class="st100" d="M318.5,392.1c-0.8,0-1.4-0.5-1.6-1.3c-0.2-1.2,0.6-1.6,1.5-1.6c0.8-0.1,1.3,0.5,1.3,1.4
		C319.8,391.4,319.3,392,318.5,392.1z"/>
	<path class="st101" d="M311.3,404.6c-0.2,0.9-0.8,1-1.5,1c-0.7-0.1-1.5-0.4-1.4-1.3c0.1-1,0.9-1.6,1.8-1.4
		C310.9,403,311.3,403.7,311.3,404.6z"/>
	<path class="st62" d="M268.6,338.9c-5.5-1.1-10,2-14.6,4.6c0,0.2,0,0.4,0,0.6c-0.3,1.5-1.3,2.5-2.2,3.4c-1.3,1.3-0.7,3-0.8,4.6
		c-0.3,2.3-0.2,4.9-3.7,3.7c-1-0.3,0,1.3-0.4,2c-0.2,1.2,0.3,2.5-0.7,3.5c-0.3-0.1-0.5-0.3-0.8-0.4c-3.1-2-2.9-1.9-2.4-4
		c0.5-2.2-0.6-5,2.2-6.2c1.1-0.4,1.3-1.4,1.1-2.2c-0.8-3.8,1.9-4.5,4-5.9c3.4-2.3,6.8-4.6,10.1-7.1c0.5-0.4,0.5-1.4,1.4-0.8
		c2,1.3,4,2.3,6.4,2.1C268.3,336.8,268.5,338.2,268.6,338.9z"/>
	<path class="st62" d="M272.9,331.4c-2.1,6.1-6.2,3.5-9.1,1.8c-3.1-1.9-5.4,1.4-8.1,0.5c-0.4-0.1-0.6,0.6-0.4,1
		c1.5,3.1-1.6,2.8-2.5,3.5c-1.3,0.9-2-1-2.7-2c0.3-1.8,3.2,2,3-2.1c-0.1-2.4,3.7-2.6,6.1-2.8c1.4-2.6,3.1-2.9,5.1-0.8
		c0.3,0,0.6,0,0.8,0C267.9,329.4,270.7,327.4,272.9,331.4z"/>
	<path class="st62" d="M282.4,334.2c0.2,0.4,0.7,0.9,0.6,1.1c-2.9,5-9.7,6.7-14.4,3.6c3,0.8,3.5-4.2,6.8-3.5
		c0.7,0.2-0.6-2.1-0.7-3.3C277.7,331,280.3,331.5,282.4,334.2z"/>
	<path class="st102" d="M282.4,334.2c-2.6-0.7-5.2-1.4-7.7-2c-0.6-0.3-1.2-0.5-1.7-0.8c-2.4-1.6-5.2-0.5-7.7-1
		c0-1.1-0.2-2.6,1.1-2.6c5.5,0,10.8,1.6,16.1,3.5C282.4,332.3,282.4,333.2,282.4,334.2z"/>
	<path class="st103" d="M246.2,361.3c0.4-0.9-0.8-1.9,0.1-2.7c1.1-0.5,1.8,0.3,2,1.1c0.9,4.4,3.9,6.1,7.4,7.3
		c0.8,0.3,1.5,0.9,1.8,1.8c0,0.7,0,1.3,0,2c-1.8,1.2-3.4,1.8-4.5-0.9c-0.2-0.4-0.4-1.1-0.6-1.1C247.8,368.8,246.4,365.6,246.2,361.3
		z"/>
	<path class="st104" d="M239.4,342.5c-4.6-1.8-6.9,3.5-10.8,4c-1,0.1-2,1.1-2.9,1.7l0,0c1.5-4.3,4.9-5.7,8.6-6.6
		C236.2,340.1,238.2,338.4,239.4,342.5z"/>
	<path class="st62" d="M253,369.9c1.3,1.2,2.9,0.9,4.5,0.9c0.1,2.8-1.9,2.5-3.5,2.8c-0.9-0.3-1.7-0.6-2.6-0.9
		C251.5,371.5,251.3,370.1,253,369.9z"/>
	<path class="st102" d="M264.4,330.4c-1.8-0.5-3.5-0.4-5.1,0.8c-1.6-2.2,0-2.9,1.5-3.5C263.2,326.5,264,328.1,264.4,330.4z"/>
	<path class="st56" d="M257.5,368.9c-5.7-0.8-9.5-4.2-11.2-10.3c-1-1.8-1.3-3.7-0.6-5.7c1.4,0.4,1.6,3,3.3,2.2
		c1.3-0.5,0.5-2.2,0.8-3.3c2.6,1.4,2.2,3.4,1,5.6c-1.9,0.2-1.7,1.5-0.8,2.5c1.2,1.5,2.5,2.9,3.8,4.3c0.2,0.2,0.5,0.4,0.7,0.4
		c3.4-0.1,3.4-0.1,5.5,3.4c-0.3,1,1.1,2.3-0.2,2.8C259.4,371,258.3,369.6,257.5,368.9z"/>
	<path class="st105" d="M254,343.5c2.9,1.4,5.7,2.8,5.8,7.1c0.1,2.5-0.5,4.3-3.2,4.2c-0.6,0.5-1.3,0.7-2,0.2
		C250.8,351.4,251.9,347.5,254,343.5L254,343.5z"/>
	<path class="st106" d="M255,354.8c0.6,0,1.1,0,1.7,0c-1,2.6,1.1,2.2,2.2,2.8c2.6,1.2,5.8,0.3,8,2.8c-5.6,1.1-10.6-1.9-16-2.9
		c-1-1.7,0.4-4-1-5.6c0.3-1.9-1.3-4.4,1.6-5.4c1.2,1,0.9,2.4,0.9,3.7C252.3,352.4,253.1,353.9,255,354.8z"/>
	<path class="st107" d="M264.4,345.4c-0.2-1.3-2.8-1-1.8-3c0.3-0.6,1.1-1.2,1.6-1.3c1.5-0.1,2.2,1.2,2.7,2.5
		c1.6,3.8,0.4,7.9,1.2,11.8c0.2,0.9-1.1,1.3-2,1.3C264,353.2,263.4,349.4,264.4,345.4z"/>
	<path class="st108" d="M264.4,345.4c1.3,3.6,1.4,7.4,1.8,11.2c-0.3,0.2-0.8,0.8-1,0.7c-2.8-1.6-1.9-4.8-2.3-7.3
		C262.6,348.5,261.1,345.8,264.4,345.4z"/>
	<path class="st93" d="M189.5,395.2c-3.2,2.9-7.2,3.8-10.8,5.6c-2.2,1.1-4.6,2-6.5,3.5c-3.9,3.3-8.1,4.4-12.9,3.9
		c2.4-3.8,6.7-3.8,10.1-5c2.6-0.9,4.8-2.3,7.1-3.4c1.4-0.6,2.9-1.3,4.3-1.9C183.5,396.1,186,393.7,189.5,395.2L189.5,395.2z"/>
	<path class="st81" d="M189.5,395.1c-3.3-0.5-5.6,2.4-8.6,2.9c3.5-4.1,8.1-5.5,12.9-6.6C192.7,393.1,190.3,393,189.5,395.1z"/>
	<path class="st104" d="M225.6,348.2c-1,1.2-2,2.5-3.1,3.7c-0.8,1-1.7,0.9-2.5-0.1c-1.3-1.5,0.2-1.4,0.8-2.1
		C222.2,348,223.8,347.6,225.6,348.2C225.7,348.2,225.6,348.2,225.6,348.2z"/>
	<path class="st109" d="M290.9,454.8c4.8,1.7,9.6,4,14.5,5c2.9,0.6,0.7,3.3,2.4,3.9C301.9,461.1,295.7,459.5,290.9,454.8z"/>
	<path class="st110" d="M352.7,421.8c0,0.9-0.6,1.3-1.3,1.4c-1,0.2-1.6-0.3-1.8-1.4c-0.1-0.9,0.4-1.4,1.2-1.4
		C351.8,420.4,352.5,420.7,352.7,421.8z"/>
	<path class="st111" d="M334.7,447.4c0.9,0.1,1.6,0.4,1.6,1.3c0,0.8-0.6,1.4-1.4,1.4c-0.8-0.1-1.7-0.4-1.6-1.6
		C333.4,447.5,334.2,447.5,334.7,447.4z"/>
	<path class="st95" d="M289.5,430.5c1.2,0.2,2.6-0.5,3.2,1.3c0.2,0.6-0.1,1.3-0.7,1.4c-1.8,0.5-2.5-0.6-2.9-2.3
		C289.2,430.8,289.4,430.7,289.5,430.5z"/>
	<path class="st59" d="M255,354.8c-2.6,1.3-3.1-0.8-3.4-2.8c-0.2-1.8-0.1-3.7-0.1-5.5c0.8-1,1-2.7,2.6-2.9
		C253.1,347.4,252.6,351.2,255,354.8z"/>
</g>
</svg>
