<?xml version="1.0" encoding="utf-8"?>
<!-- Generator: Adobe Illustrator 25.4.1, SVG Export Plug-In . SVG Version: 6.00 Build 0)  -->
<svg version="1.1" id="Capa_1" xmlns="http://www.w3.org/2000/svg" xmlns:xlink="http://www.w3.org/1999/xlink" x="0px" y="0px"
	 viewBox="0 0 595.3 841.9" style="enable-background:new 0 0 595.3 841.9;" xml:space="preserve">
<style type="text/css">
	.st0{fill:#CF0921;}
	.st1{fill:#003594;}
	.st2{fill:#FCD20F;}
</style>
<path class="st0" d="M136.5,607.2c46.8,41.2,98.2,75.9,153.1,105.6c7,3.8,12,3.6,18.7-0.1c58.9-32.1,113.9-69.7,163.5-115.1
	c18-16.4,35.1-33.6,50.5-52h-447C93.8,567.8,114.6,588,136.5,607.2z"/>
<path class="st1" d="M591,412.6H7c5.1,25.6,14.8,51,28.7,76.1c11.4,20.5,24.8,39.4,39.6,57h447c19.7-23.4,36.9-48.8,50.1-77.2
	C581,449.9,587.2,431.3,591,412.6z"/>
<path class="st2" d="M574.1,278.6c-25-53.3-67.7-82.2-127.7-81.8c-44.2,0.3-81,19.2-112,49.5c-12.9,12.6-24,26.9-35.5,39.9
	c-11.4-12.9-22.6-27.3-35.4-39.8c-30.2-29.5-65.9-48.1-108.8-49.5c-58.9-2-107.5,28.6-131.4,82.4C3,324.5-1.7,368.9,7,412.6H591
	C600,367.9,595,323,574.1,278.6z"/>
</svg>
