<?xml version="1.0" encoding="utf-8"?>
<!-- Generator: Adobe Illustrator 25.4.1, SVG Export Plug-In . SVG Version: 6.00 Build 0)  -->
<svg version="1.1" id="Capa_1" xmlns="http://www.w3.org/2000/svg" xmlns:xlink="http://www.w3.org/1999/xlink" x="0px" y="0px"
	 viewBox="0 0 595.3 841.9" style="enable-background:new 0 0 595.3 841.9;" xml:space="preserve">
<style type="text/css">
	.st0{fill:url(#SVGID_1_);}
	.st1{fill:url(#SVGID_00000074430638492666286800000008503528195611111045_);}
	.st2{fill:url(#SVGID_00000060735980863202665030000007454773277691480707_);}
	.st3{fill:url(#SVGID_00000181070203333811938320000013608056451039984563_);}
</style>
<g>
	<linearGradient id="SVGID_1_" gradientUnits="userSpaceOnUse" x1="214.0653" y1="420.945" x2="536.3914" y2="420.945">
		<stop  offset="0" style="stop-color:#FFFFFF"/>
		<stop  offset="0" style="stop-color:#835DA4"/>
		<stop  offset="1" style="stop-color:#4861AA"/>
	</linearGradient>
	<path class="st0" d="M375.1,541.9c-40,0-79.9,0-119.9,0c-24.1,0-41.2-17-41.2-41.1c0-52.8,0-105.5,0-158.3
		c0-25.7,16.7-42.4,42.5-42.4c60.1,0,120.2,0,180.3,0c20.6,0,41.3-0.6,61.9,0.5c22.3,1.2,37.2,17.2,37.3,39.6
		c0.3,54.1,0.4,108.2,0,162.3c-0.2,23.5-17.5,39.5-41.1,39.5C455,541.9,415.1,541.9,375.1,541.9z M371.8,427.5
		c44.1-35.3,87.8-70.2,131.5-105c-0.1-0.4-0.3-0.9-0.4-1.3c-3.1-0.2-6.2-0.6-9.3-0.6c-65.9,0-131.8,0-197.7,0
		c-13.8,0-27.6-0.2-41.4,0.1c-3.8,0.1-7.6,1.6-11.5,2.4c0,0.5,0.1,1.1,0.1,1.6C285.9,358.9,328.8,393.1,371.8,427.5z M252,521.1
		c82.5,0,164.1,0,246.4,0c-30.4-32.4-60.2-64.3-90.3-96.4c-9.6,7.6-18.8,15-28,22.3c-6.4,5.1-10.2,5-16.4,0
		c-8-6.4-16.1-12.8-24.2-19.3C310.3,458.8,281.3,489.7,252,521.1z M424,411.9c30.3,32.3,60.2,64.4,91.2,97.4c0-57.5,0-113.6,0-170.3
		C484.8,363.3,454.7,387.4,424,411.9z M235.2,344.4c0,55.1,0,109.3,0,164.9c30.1-32.1,59.1-63.1,88.3-94.3
		C293.9,391.3,264.7,368,235.2,344.4z"/>
	
		<linearGradient id="SVGID_00000139254896567777436810000005581837134029802130_" gradientUnits="userSpaceOnUse" x1="58.8847" y1="362.9148" x2="196.9671" y2="362.9148">
		<stop  offset="0" style="stop-color:#FFFFFF"/>
		<stop  offset="0" style="stop-color:#835DA4"/>
		<stop  offset="1" style="stop-color:#4861AA"/>
	</linearGradient>
	<path style="fill:url(#SVGID_00000139254896567777436810000005581837134029802130_);" d="M127.5,373.1c-19,0-38,0-56.9,0
		c-6.6,0-10.6-3-11.5-8.1c-1.2-6.8,3.1-12,10.3-12.3c4.5-0.2,9,0,13.5,0c33.1,0,66.2,0,99.4,0c1.8,0,3.7-0.1,5.5,0.1
		c5.6,0.7,9.4,5.2,9.2,10.5c-0.2,5.3-3.9,9.4-9.5,9.6c-7,0.3-14,0.1-21,0.1C153.5,373.1,140.5,373.1,127.5,373.1z"/>
	
		<linearGradient id="SVGID_00000037683335138057463690000011913048544725645444_" gradientUnits="userSpaceOnUse" x1="90.2682" y1="421.2168" x2="196.9633" y2="421.2168">
		<stop  offset="0" style="stop-color:#FFFFFF"/>
		<stop  offset="0" style="stop-color:#835DA4"/>
		<stop  offset="1" style="stop-color:#4861AA"/>
	</linearGradient>
	<path style="fill:url(#SVGID_00000037683335138057463690000011913048544725645444_);" d="M143.5,431.4c-13.8,0-27.6,0.1-41.4,0
		c-8.8-0.1-13.9-6.6-11-14c1.6-4.2,4.9-6.3,9.3-6.3c28.8-0.1,57.6-0.1,86.4,0c6.2,0,10.2,4.2,10.2,9.9c0.1,5.8-4.2,10.2-10.5,10.3
		c-10.3,0.2-20.6,0.1-31,0.1C151.5,431.4,147.5,431.4,143.5,431.4z"/>
	
		<linearGradient id="SVGID_00000150784732085439237640000010033441621603900847_" gradientUnits="userSpaceOnUse" x1="137.8597" y1="479.4008" x2="196.9677" y2="479.4008">
		<stop  offset="0" style="stop-color:#FFFFFF"/>
		<stop  offset="0" style="stop-color:#835DA4"/>
		<stop  offset="1" style="stop-color:#4861AA"/>
	</linearGradient>
	<path style="fill:url(#SVGID_00000150784732085439237640000010033441621603900847_);" d="M167.5,469.3c6.5,0,13-0.1,19.5,0
		c5.8,0.1,9.8,4,10,9.6c0.2,5.4-3.7,10.3-9.3,10.4c-13.5,0.3-27,0.3-40.4,0c-6-0.1-9.6-4.7-9.4-10.7c0.2-5.6,4.1-9.2,10.1-9.3
		C154.5,469.3,161,469.3,167.5,469.3z"/>
</g>
</svg>
