<?xml version="1.0" encoding="utf-8"?>
<!-- Generator: Adobe Illustrator 25.4.1, SVG Export Plug-In . SVG Version: 6.00 Build 0)  -->
<svg version="1.1" id="Capa_1" xmlns="http://www.w3.org/2000/svg" xmlns:xlink="http://www.w3.org/1999/xlink" x="0px" y="0px"
	 viewBox="0 0 595.3 841.9" style="enable-background:new 0 0 595.3 841.9;" xml:space="preserve">
<style type="text/css">
	.st0{fill:#E7CBBF;}
	.st1{fill:#E79E90;}
	.st2{fill:#E08E83;}
	.st3{fill:#F0B7A1;}
	.st4{fill:#EAA790;}
	.st5{fill:#E0CCC3;}
	.st6{fill:#C1655D;}
	.st7{fill:#CCBDB4;}
	.st8{fill:#DDD3CD;}
	.st9{fill:#1D1815;}
	.st10{fill:#A06C58;}
	.st11{fill:#EADDD5;}
	.st12{fill:#CFC0BA;}
	.st13{fill:#BC9583;}
	.st14{fill:#765752;}
	.st15{fill:#ECBEAF;}
	.st16{fill:#F0C0AD;}
	.st17{fill:#B1725E;}
	.st18{fill:#D6917B;}
	.st19{fill:#D8C9C3;}
	.st20{fill:#F0BEA1;}
	.st21{fill:#91564C;}
	.st22{fill:#5A372D;}
	.st23{fill:#ECBDA8;}
	.st24{fill:#CF988D;}
	.st25{fill:#241F1F;}
	.st26{fill:#DDADA4;}
	.st27{fill:#E2A17F;}
	.st28{fill:#D8947C;}
	.st29{fill:#C5795C;}
	.st30{fill:#DB9D86;}
	.st31{fill:#403431;}
	.st32{fill:#4F3530;}
	.st33{fill:#937A6E;}
	.st34{fill:#926050;}
	.st35{fill:#5F4944;}
	.st36{fill:#A4A0A0;}
	.st37{fill:#845248;}
	.st38{fill:#C6634E;}
	.st39{fill:#764842;}
	.st40{fill:#A74B3D;}
	.st41{fill:#9F4532;}
	.st42{fill:#E8A69C;}
	.st43{fill:#E3C4B3;}
	.st44{fill:#F3C1B4;}
	.st45{fill:#E7A78A;}
	.st46{fill:#B8665D;}
	.st47{fill:#A78479;}
	.st48{fill:#D98E6D;}
	.st49{fill:#834D40;}
	.st50{fill:#8D6254;}
	.st51{fill:#9E7467;}
	.st52{fill:#DC7B70;}
	.st53{fill:#D98E80;}
	.st54{fill:#D2AE9C;}
	.st55{fill:#CEA398;}
	.st56{fill:#BD6B58;}
	.st57{fill:#B85E4B;}
	.st58{fill:#C9674F;}
	.st59{fill:#B05040;}
	.st60{fill:#815751;}
	.st61{fill:#9B5041;}
	.st62{fill:#974538;}
	.st63{fill:#913C2F;}
	.st64{fill:#7C4338;}
	.st65{fill:#F0E5E3;}
	.st66{fill:#9B7B6E;}
	.st67{fill:#BFA095;}
	.st68{fill:#E4A68C;}
	.st69{fill:#BC9B8E;}
	.st70{fill:#E9E4E0;}
	.st71{fill:#744439;}
	.st72{fill:#F0E4E0;}
	.st73{fill:#E5DAD7;}
	.st74{fill:#894339;}
	.st75{fill:#CBB2AB;}
	.st76{fill:#CEB8B5;}
	.st77{fill:#D89076;}
	.st78{fill:#E1A28A;}
	.st79{fill:#E0BBA9;}
	.st80{fill:#CA8B76;}
	.st81{fill:#E9BFB5;}
	.st82{fill:#874F3E;}
	.st83{fill:#966C5D;}
	.st84{fill:#916351;}
	.st85{fill:#9F7B6E;}
	.st86{fill:#996856;}
	.st87{fill:#936456;}
	.st88{fill:#D7B1A6;}
	.st89{fill:#C89A8D;}
	.st90{fill:#ECDFDD;}
	.st91{fill:#ECE0DC;}
	.st92{fill:#EDB196;}
	.st93{fill:#ECAF93;}
	.st94{fill:#8E3329;}
	.st95{fill:#A76B5A;}
	.st96{fill:#F6DAD0;}
	.st97{fill:#C46F5F;}
	.st98{fill:#C5765C;}
	.st99{fill:#E4B4AA;}
	.st100{fill:#C49E92;}
	.st101{fill:#E19F81;}
	.st102{fill:#DE9A7D;}
	.st103{fill:#5B4946;}
	.st104{fill:#523D3A;}
	.st105{fill:#705052;}
	.st106{fill:#AA8682;}
	.st107{fill:#4A3730;}
	.st108{fill:#594541;}
	.st109{fill:#634644;}
	.st110{fill:#A26B67;}
</style>
<path class="st0" d="M489.4,434.5c4.8,0.2,9.5,1.4,14.1,2.3c8.8,1.7,17.6,3.3,26.5,4.6c6.5,0.9,13.1,1.3,19.7,1.2
	c2.2,0,4.2,0.4,6.2,1.3c2.2,1,4.7,1.6,7.1,2.2c4,1,7.4,2.9,10.3,5.9c2.2,2.4,5,4.4,6.3,7.5c0.5,1.1,1.7,1.5,2.5,2.2
	c0.1,0.8,0.1,1.5-0.2,2.2c-0.2,0.4-0.5,0.8-0.8,1.1c-0.5,0.6-1.1,1.1-1.7,1.6c-2.3,1.5-4.7,2.6-7.2,3.4c-0.7,0.2-1.5,0.3-2.2,0.6
	c-0.3,0.1-0.6,0.2-0.9,0.3c-1.1,0.2-2,0.8-3,1.2c-1,0.2-1.8,0.7-2.8,1c-9.4,2.9-19.1,4.7-28.7,6.9c-9.8,2.3-19.7,4-29.7,5.1
	c-4.3,0.5-8.2,1.9-12,3.8c-1.7,1-3.3,2.1-5.1,2.8c-0.8,0.3-1.6,0.6-2.2,1.3c-0.7,0.7-1.4,1.5-2.3,2c-1.6,0.4-2.5,1.5-3.4,2.8
	c-0.3,0.2-0.6,0.4-0.9,0.6c-1,0.5-1.7,1.5-2.5,2.3c-3.1,2.9-6.4,4.6-11,4.7c-9.6,0.3-19.1,1.1-28.7,1.8c-2,0.1-4.1,0.3-6.1-0.2
	c-3.7-2.7-8.1-1.6-12.3-2.3c-2.2-0.4-4.4-0.9-6.6-1.6c-6.2-1.7-12.9-1.8-19.3-2.6c-4.2-0.5-8.5-0.5-12.7-2.1
	c-3.7-1.5-7.8-1.5-11.9-1.5c-2.9,0-5.7-0.2-8.3-1.5c-3.4-1.6-4.1-3.4-2.5-6.8c1.3-2.5,2.5-5.1,3.3-8.1c-2.3,1.8-3.4,4.1-5.5,5.6
	c-0.8,0.6-1.7,1.3-2.8,0.6c-1.2-0.8-0.9-2-0.4-3.1c2.8-6.3,5.9-12.5,11.5-17c1.3-1.1,2.4-2.4,3.6-3.7c2.5-2.9,2.5-2.8,6.4-2.5
	c-3.5-0.9-1.5-4.4-3.3-6.1c-0.5-1.7,0.7-2.8,1.7-3.8c3.3-3.4,5.5-7.4,7.8-11.6c1.3-2.3,3-4.3,4.8-6.1c1.8-1.8,2.8-3.7,3.6-5.9
	c0.3-1,0.7-1.9,1.3-2.8c1.4-2.2,3.8-3.8,3.6-6.9c0-0.7,0.7-1.2,1.3-1.4c1.6-0.5,2.7-1.7,4.2-2.3c0.1-0.5,2.2,0.2,0.9-0.9
	c-1.9-1.7-4.2-3-6.5-4.3c-1.5-1.5-1.5-3-0.7-4.9c1.7-4,3.9-7.7,6.6-11.1c1.2-1.5,2.2-2.6-0.2-3.7c-0.7-0.3-1.1-1.1-0.7-2
	c1-1.3,2.6-1.3,4.1-1.7c1.8-0.2,2.9,1.2,4.1,2.2c1,0.8,2,1.5,3.1,2.1c5.2,3.2,5.4,3.6,4,9.6c0.8-1.4,0.2-3.3,0.8-5
	c1.3-1.5,2-0.8,2.7,0.7c0.6,1.4-0.3,2.9,0.4,4.4c0.6-1.2-0.1-3,1.7-3.3c1.2-0.2,2.2,0.5,2.7,1.7c0,0.3,0,0.6-0.2,0.8
	c0.2-0.2,0.4-0.4,0.6-0.6c2.8-1.4,5.4-0.7,8.2,2.2c2.1,2.1,1.4,4.2,0,6.1c-2.1,2.7-0.5,5.6-0.8,8.4c0.5,3.1,2.4,2.7,4.5,1.8
	c0.6,0,1.1,0.2,1.5,0.5c0.3-1,0.1-1.9-0.5-2.7c-0.2-0.3-0.4-0.5-0.5-0.8c-0.5-1.1-1-2.3,0-3.3c0.8-0.8,1.6-0.2,2.4,0.2
	c0.3,0.1,0.5,0.2,0.8,0.3c0.8,0.1,1.6-0.6,2.3,0.2c3.8,1.3,4,4.8,4.7,7.9c0.3,1.2,0.1,2.5,0.1,3.7c1.9,3.3,0.6,6.7,0.5,10.2
	c0,1-0.8,1.9-0.3,3.1c1.8,0,3.4-1,5.1-1.1c3.3,0.5,6.3-1,9.6-1.1c1.4,0,2.8-0.8,3.1-2.5c0.6-0.9,1.4-1.6,2.6-1
	c1.1,0.7,2.3,0.7,3.6,0.7c2.5,0,5,0,7.4,0s4.7,0.2,6.4,2.3c0.7,0.9,1.9,1.1,3.1,1.1c0.3,1-0.4,1.5-1,1.9c-5.9,3.9-9.8,9.6-13.4,15.4
	c-2.5,4-4.9,8.2-7.3,13c2.6-0.8,4.8-1.2,6.9-2.1c13.7-6,27.9-10.1,42.8-11.5c7.5-0.7,15-1.4,22.5-2.2c1.5-0.1,2.9-0.3,4.2-1.4
	c-2.5-0.5-5-0.6-7.6,0c-1,0.2-2.1,0.6-2.9-0.2c-2.4-2.1-5.3-2.6-8.2-3.1c-9.5-1.5-18.6-4.9-28.3-5.5
	C491.4,438.1,489.3,437.4,489.4,434.5z"/>
<path class="st1" d="M563.6,472.3c0.8-0.5,1.7-0.8,2.7-0.7c0.9-0.5,2-0.6,2.7-1.3c0.2,0,0.5,0,0.7,0c0.6-0.6,1.5-0.1,2-0.6
	c2.5-1.2,5-2.3,7.5-3.5c0.6-0.3,1.1-0.8,1.4-1.4c0.2-0.2,0.5-0.5,0.7-0.7c0.7-0.9,1.2-2.2,2.8-1.4c2.2,0.6,3.5,2.3,4.6,4.1
	c-1.5,2-1.8,4.4-2.1,6.7c-0.4,2.8-1.7,4.8-4.3,6.2c-6.1,3.3-12.1,6.8-19.2,7.7c-2.2,0.3-4.4,1.2-6.4,2.3c-2.3,1.4-4.7,2.1-7.4,2.1
	c-1.7,0-3.2,0.3-3.6,2.3c-0.3,0.5-0.7,0.8-1.3,0.9c-5.4-1.8-10.4-1.1-15.9,0.7c-5.7,1.9-11.7,3.6-17.9,3.7
	c-4.4,0.1-8.8,1.1-12.5,4.2c-2.1,1.8-4.6,2.9-7.2,3.8c-1.5,0.5-3,1.1-4,2.4c-0.3,0.2-0.5,0.4-0.8,0.5c-3.3,0.8-6.4,2.1-9.2,3.9
	c-0.7,0.4-1.5,0.7-2.3,0.4c-0.4-0.1-0.5-0.8-0.6-0.6c-0.3,0.3-0.3,0.8-0.6,1.2c-2.3,1.5-5.3,0.8-7.6,2.5c-0.1,0.1-0.2,0.2-0.3,0.2
	c0.3-0.1,0.5-0.3,0.8-0.5c1.7-0.6,3.4-1.7,5.2-0.3c1,2-0.6,2.8-1.9,3.2c-4.3,1.1-8.6,1.6-13.1,1.3c-1.2-0.1-2.2-0.6-2.4-2
	c0.1-1.5,1.1-1.7,2.3-1.8c0.9-0.4,1.8,1,2.7,0c-1.5-0.9-2.9,0.1-4.4,0.2c-1.8,0.2-3.5,1.3-5.5,0.8c-1.3-0.9-2.7,0.2-4-0.4
	c-3.2-0.9-6.2,1.1-9.5,0.8c-2-0.4-4.1-2-6.2,0c-0.3,0.2-0.6,0.2-0.9,0.3c-0.3,0-0.6-0.1-0.9-0.2c-1.2-0.9-2.4-0.1-3.6,0.2
	c-1.4,0.3-2.8,0.8-4.3,0c-3.1-0.5-6.2-1-8.6,1.9c-0.7,0.9-1.7,1.6-2.6,1.1c-2.5-1.5-5.1-0.6-7.7-0.8c-1.7-0.1-3.8,0.2-4.1-2.5
	c-0.1-0.5-0.9-0.6-1.8,0c-3.9,2.8-8.3,1.4-12.6,1.3c-1,0-2.6-0.3-2.6-1.7c0-1.4,1.7-1.1,2.7-1.5c0.5-0.2,1.1,0.1,1.8-0.2
	c-2.8,0.6-5.3,0.9-8,2c-3.7,1.5-8.1,1-12.2,0.1c-0.8-0.2-1.9-0.7-1.6-1.9c0.3-0.9,1.3-0.8,2-0.8c1.1,0,2.3,0,3.4,0
	c-3.7,0-7.3,0.1-11,1.3c-3.4,1.1-7.2,0.8-10.9-0.2c-1-0.3-2.1-0.7-1.8-2.1c0.2-1.1,1.3-1,2.2-1.1c1.6-0.1,3.2,0.2,4.8,0.3
	c-7.1,0.4-14.1-1.3-21-2.3c-9-1.4-18.4-1.7-27.1-4.9c-2-0.7-4.1-0.2-6.1-0.6c-9-1.9-18.3-2.1-27.2-4.7c-1.2-0.4-2.5-0.3-3.7-0.3
	c-3.4-0.1-6.7,0.2-10.1-1.3c-2.9-1.3-6.4-0.6-9.7-0.9c-3.1-0.3-5.9-1.2-8.9-1.7c-3.3-0.5-6.4-2-10.1-1.1c-2.1,0.6-4.6-0.2-6.6-1.1
	c-1.7-0.8-3.3-0.8-5-0.8c-11,0.4-21.9-0.2-32.8-0.1c-0.7,0-1.4-0.1-2-0.4c-1.5-1.1-3.3-1.2-4.9-0.8c-4.9,1.2-9.6,0.7-14.3-1.1
	c-2.8-1.1-5.9-1.6-8.8-2.7c-3.7-1.4-6.2-5.2-1.2-8.2c2.5-1,5.2,0,7.8-0.5c20.5,0.2,41.1-1.1,61.6,1c7.4,0.8,14.8,1.4,22,3
	c4,0.9,8.1,0.3,12.3,0.8c8,1.1,16.1,2.2,24,3.9c8.8,1.9,17.9,2.6,26.6,4.7c1.4,0.3,2.9,0.6,4.3,1.1c1.6,0.7,3,1.6,4.6-0.5
	c1-1.3,2.7-0.2,4.1,0.4c3.1,1.5,6,3.7,9.7,4.1c3.5,0.3,6.9,0.8,10.6,0.6c0.9-0.1,1.8,0.2,2.5,0.9c0.8,3.4,3.4,3.1,6.2,3.7
	c8.6,2,17.6,1.1,26.1,2.9c7.7,1.7,15.7,1.7,23.5,1.8c4.4,0.1,8.6,0.5,12.8,2c0.9,0.3,1.7,0.6,2.6,0.6c12,0.2,23.9,1.5,35.9,0.7
	c6.2-0.4,12.4-2,18.7-2.3c2.3-0.1,4.4-1.9,5.1-4.5c1.1-4,3.7-6.7,6.8-9.1l0,0c0.8-1.3,1.9-2.3,3.4-2.8c0.5-0.9,1.1-1.6,2-2
	c0.4-0.9,1.4-0.9,2.1-1.4c1.6-0.9,3.2-1.8,4.8-2.7c2.7,1,1.3,2.8,0.4,3.9c-1.8,2.3-3.7,4.5-6.1,6.4c-3.4,2.6-5.7,6.3-8.7,9.7
	c1.8,0.5,2.2-0.4,2.7-1.1c1.9-3.2,5-5.2,7.6-7.7c2.9-2.7,7.1-4.4,11.2-5c5.6-0.9,11-3.1,16.6-4.1c14.5-2.4,28.5-7,42.5-11.4
	c4.2-1.3,8.4-2.7,13-4.9c-2.3,0-4.1,0.4-5.9-0.2C564.3,474.1,562.7,474.1,563.6,472.3z"/>
<path class="st2" d="M476.4,514c2.7-2.5,5.9-3.7,9.6-4c0.5,1.9-1.4,2-1.9,2.9c1.7-1.4,4.2-1.8,6.2-3.2c-1.4,0.2-2.8,1.7-4.4,0.3
	c0.8-1.4,2-2.4,3.6-2.9c3.6-1.2,6.9-2.9,9.8-5.4c1-0.9,2.1-1.5,3.3-1.7c3.7-0.4,7.1-2.6,11.1-1.3c2-1.2,4.4-0.8,6.5-1.7
	c0.7-0.3,1.5-0.6,2.3-0.7c3.3-0.7,6.5-1.4,9.8-2.7c3.9-1.6,8.2-1.7,12.1,1.2c-0.2,0.6-0.7,0.8-1.6,1.1c1.2-0.3,2.2-0.1,2.9-0.7
	c0.8-0.8-0.7-0.4-0.5-0.9c0.6-3.3,0.6-3.4,3.9-3.4c2.6,0,4.8-0.6,7.3-2c2.1-1.3,4.9-2.5,7.6-2.7c2.2-0.1,4.2-0.7,6.2-1.4
	c4.7-1.7,8.9-4.3,13.4-6.6c1.3-0.7,1.8-2,2.1-3.4c0.3-1.8,0.6-3.6,0.7-5.4c0.1-1.7,1-2.4,2.6-2.4c2.6,3.7,2.7,8.1,3.5,12.4
	c1,5.9,0.9,12,2.1,17.9c-0.9,2.7-3.1,4.1-5.4,5.3c-8.4,4.4-17.7,6.9-26.8,9.2c-10.8,2.8-21.6,4.9-32.4,7.4
	c-5.8,1.3-11.8,1.9-17.6,2.8c-10.4,1.7-20,5.3-29.8,9c-1,0.4-1.9,0.9-2.9,0.8c-0.4-0.1-0.9-0.4-1.3-0.3c-3.5,0.6-5.8-0.5-6.6-5.1
	c-4.5,8.4-12.2,7.8-19.2,8.6c-1.6,0.2-2.8-0.7-3.5-2.2c-0.7-1.4-1.6-1.7-3-1c-3.4,1.9-6.8,0.9-10-0.7c-2.8-1.4-5.3-2.7-8.6-2.5
	c-4.1,0.3-7.6-2-11.2-3.8c-0.8-0.4-1.6-1.1-1.5-2.1c0.2-1.1,1.2-1.6,2.3-1.8c2.3-0.5,4.8,0.3,7.1-0.6c1.4-0.2,2.8-1.3,4.3-0.6v0.1
	c0.3,0.2,0.5,0.5,0.7-0.1c1.8-2.5,2.4-2.6,6.1-0.7c0.3,0.4-0.1,1.1-0.1,1.1c2.9-0.8,5.9-0.9,8.9-0.7c0.2,0,0.3-0.3,0.5-0.4
	c0.2,0,0.4-0.1,0.6-0.2c0-0.2,0.2-0.4,0.4-0.4c1,0,2-0.2,2.9-0.4c1-0.2,0.5,0.6,0.4,1c1.7,1.1,3.9-1.2,5.5,0.8c0.2,1.1,1,1.3,2,1.4
	c3.9,0.2,7.8-0.8,11.8-0.9c1,0,3.1-0.2,2.7-2.5c0.5-1.6,2.1-1.5,3.2-2C475,515.3,476.1,515.4,476.4,514z"/>
<path class="st3" d="M479.1,531.3c9.8-3.9,19.5-8.2,30.1-9.8c3.2-0.5,6.5-1.2,9.8-1.9c4.1-0.9,8.3-1,12.5-2
	c10.2-2.5,20.5-4.4,30.7-7c8.7-2.3,17.4-4.7,25.5-8.6c2.6-1.3,4.7-3.1,6.9-4.9c1.4,7.5,1.5,14.8-3.9,21c-1.9,2.2-4.3,3.6-6.8,5
	c-5.8,3.1-12.1,5.4-18.4,7.4c-8.1,2.5-16.4,4.7-24.7,6.6c-0.3,0.1-0.7,0.3-1,0.3c-4.5-0.3-8.5,1.8-12.9,2.7
	c-1.2,0.3-2.5,0.3-3.7,0.2c-0.7-2.6-2.3-3-4.7-1.7c0.7,1,2.2,0.6,2.7,1.8c-2.1,1.1-4.8,0.4-6.8,2c-0.5,0.4-1.1,0.7-1.5,1.3
	c-3,1.8-6.2,1.3-9.4,0.4c-1.1-2.7,2.3-1.3,2.5-3c-2.1-0.3-4-0.2-4.9,2.2c-0.3,0.7-0.7,1.4-1.4,1.8c-1.6,0.8-3.3,1.1-5,1.1
	c-1.3-0.2-2.7,0-3.9-0.9c-3.2-2.4-4.9-2-7.1,1.4c-0.1,0.2-0.3,0.3-0.5,0.5c-2.8,1.5-5.8,1.5-8.8,0.7c-3.2-3-5.4-2.8-7.3,0.5
	c-3.6,1.6-7.2,3.2-10.9-0.1c-1.6-1.4-3.7-0.3-5.5-0.8c-3.4-1.3-7.1-1.1-10.6-2.6c-0.7-0.3-1.6-0.2-2.4,0.1
	c-4.6,1.6-9.2,0.3-13.9,0.5c-0.6,0-1.1-0.1-1.7-0.2c-0.9-0.2-1.9-0.6-1.9-1.7c0-1.2,1.1-1.3,2-1.4c2.6-0.3,5.2,0.3,7.8-0.6
	c1.4-0.3,2.9-0.3,4.3-0.3c1.1,0.2,2.1-0.2,3.2-0.4c12.4-1.1,24.1-5,36-8.4C475.3,531.8,477.2,531.1,479.1,531.3z"/>
<path class="st4" d="M314.1,549.8c0.3,0,0.5,0,0.8,0C314.7,549.8,314.4,549.8,314.1,549.8z"/>
<path class="st4" d="M314,549.8c-0.3,0-0.5,0-0.8,0C313.5,549.8,313.7,549.8,314,549.8z"/>
<path class="st4" d="M299.8,549.4c-1.3,0.1-2.6,0.1-3.9-0.1c-0.2,0-0.4,0-0.6-0.1C296.8,549.7,298.3,549.7,299.8,549.4z"/>
<path class="st4" d="M284.1,549c-1.5,0-3,0.1-4.5,0.1C281.1,549.5,282.7,549.5,284.1,549z"/>
<path class="st4" d="M450.5,549.7c0.2-1,0.5-2-0.2-3c-0.7-0.1-1.2-0.5-1.6-1.1c-0.3-0.5-1-1.1-1.4-0.7c-2,1.7-3.8,0.2-5.3-0.6
	c-1.7-0.9-3.1-0.7-4.8-0.5c-1.4,0.1-2.6,1.6-3.7,1.2c-3.7-1.4-7.5,0.1-11.2-0.8c-0.5-0.1-1.4,0.4-1.5-1.1c1.4,0,2.9,0.1,4.3,0
	c1.5-0.1,3.2,0.4,4.6-0.6c-1.3-1.7-3.2-1.4-5.6-1.3c-6-0.3-12.1,0.7-18.1,0.7c-12.4-0.1-24.8-1-37.3-0.8c-9.1,0.2-18.4-0.4-27.6-0.5
	c-20.7-0.3-41.5-1.4-62.3-1.4c-10.1,0-20.2,0-30.2-0.3c-15.8-0.5-31.6-0.1-47.4-0.5c-5.2-0.1-10.6,0.2-15.7-0.2
	c-9.4-0.7-18.7-0.3-28.1-0.9c-8.8-0.6-17.8-1.1-26.6-1.8c-3.8-0.3-7.7,0.6-11.6-0.7c-2.9-0.3-5.7-0.8-8.6-0.9
	c-2.3,0.1-4.7,0.4-7-0.2c-2.8-0.5-5.5-1.3-8.4-1.2c-1,0.2-2,0-3,0.3c-0.6,0.2-1.2,0.4-1.3,1c-0.1,0.8,0.6,1.1,1.2,1.4
	s1.2,0.5,1.9,0.6c4.8,0.4,9.7,1.5,14.6,1.3c0.2,0,0.5-0.8,0.7,0.2c0.5,2.4,2.8,3.1,4.4,4.5c2.6,0.7,5.1,1.7,7.5,3.1
	c2.5,1.5,5.6,2.4,8.3,0.1c2.2-1.8,4-1.5,6,0.3c2.1,1.9,6.7,2.5,8.5,0.8c2.2-2,3.8-1.5,5.9,0.1c2.6,2,7.3,2.1,10,0.2
	c2-1.6,3.6-1.3,5.4,0.3s8.3,2,10.1,0.5c2.3-2,4.1-1.5,6.3,0.2c2.2,1.8,7.7,2.1,9.4,0.4c2.2-2.2,3.9-2.1,6.1-0.1
	c1.8,1.6,8.7,1.6,10.3-0.1c2.1-2.4,3.9-1.6,5.9-0.1c2.1,1.6,7.7,1.9,9.8,0.4c2.3-1.7,4-1.4,6.5-0.2c3,1.5,6.5,2.3,9.7-0.1
	c2-1.6,3.9-1.5,5.9,0c2.7,2,7,1.9,9.9-0.1c2.1-1.5,3.9-1.4,5.9,0.1c2.6,1.9,6.5,2,8.9,0.1c2.2-1.8,4.1-1.5,6.4,0
	c1,0.6,2.1,1.1,3.1,1.4c1.5,0,3-0.1,4.5-0.1c0.6-0.2,1.1-0.4,1.7-0.8c2.6-1.7,4.7-1.5,7.1,0c0.7,0.5,1.5,0.8,2.3,1
	c0.2,0,0.4,0,0.6,0.1c1.3,0.2,2.6,0.2,3.9,0.1c0.7-0.2,1.4-0.4,2-0.8c2.5-1.4,4.3-1.2,6.6-0.1c1.6,0.7,3.2,1.1,4.8,1.2
	c0.3,0,0.5,0,0.8,0c0,0,0.1,0,0.1,0c0.3,0,0.5,0,0.8,0c1.3-0.1,2.5-0.5,3.8-1.1c2.4-1.1,4.6-1.1,6.4,0.6c-2.3-0.5-4.8-0.7-7.2,0
	c-1,0.3-2,0.4-3,0.5c-0.3,0-0.5,0-0.8,0c0,0-0.1,0-0.1,0c-0.3,0-0.5,0-0.8,0c-1,0-2-0.2-3.1-0.4c-2.4-0.7-5-0.7-7.4-0.3
	c-1,0.2-2,0.3-2.9,0.4c-1.4,0.3-3,0.3-4.5-0.1c-3.7-0.4-7.4-0.4-11.1-0.3c-1.5,0.5-3,0.5-4.5,0.1c-2.4,0-4.8,0-7.3-0.2
	c-1.4-0.1-3-0.1-4,1.3c1.1,0.9,2.4,0.5,3.6,0.5c19.3,0.1,38.6,0.2,57.9,0.2c1.2,0,2.3,0.1,3.4-0.3c1.8-2.2,4.1-2.4,6.6-1.8
	c-1.1,0.2-2.4,0-3.6,0.3c-0.8,0.2-2.1-0.1-2,1.5c5.4,0.4,10.8,0.3,16.1,0.1c1.9-1.8,3.8-3,6.6-1.8c-1,1.1-2.6,0.6-3.3,1.9
	c1,0.9,2.2,0.5,3.3,0.5c7.2,0,14.6,0.1,21.9,0.1c24,0,48,0,72.1-0.1c0-0.6,0-1.1,0-1.7C450.8,549.7,450.7,549.7,450.5,549.7z"/>
<path class="st5" d="M116.4,319c0.3-1.3,1.1-2,2.4-2c1.5,0,3-0.1,4.4,0.5c5.2,2.5,10.7,4.7,15.7,7.7c8.6,5.2,13.6,13.3,16.9,22.5
	c1.2,3.3,2.4,6.6,2,10.4c-0.1,0.7,0.1,1.4,0.3,2c0.7,2.6,1,2.8,3.8,2.9c6.5,0.4,13.2,0,19.3-1.6c5.8-1.5,11.9-2.5,17.3-5.3
	c1.5-2,4-2.3,6-3.6c2.5-0.7,2.9-2.1,1.7-4.3c-2.3-4.5-1.6-8.8,0.9-13.1c1.9-3.2,3.5-6.7,6.5-9.1c1.4-1.1,2.9-2.2,3.9,0.5
	c-0.6,5-2.1,10-2.2,15c0,0.9-1.2,2.8,1.4,2.2c1.4-0.7,2.3-2.1,3.8-2.8c2.5-2.1,5.4-3.6,8.4-5c4.4-2.9,9.2-5,14.1-7
	c1.9-0.8,3.8-1.7,5.9-0.6c0.9,1.7-0.5,2.2-1.5,2.8c-8.8,4.9-17.4,10.4-26.1,15.6c-1.4,0.8-2.4,2.1-3.6,3.1c-0.8,1-1,2.3-1.7,3.3
	c-1,1.2-2,2.2-2,4.1c-0.1,2.4-0.8,4.1-4.1,4c-2.6-0.1-5,2.1-7.9,2.4c-2.4,0.2-4.7,1.5-7.2,1.7c-0.3,0-0.8,0-0.9,0.3
	c-1.5,3-4.4,2.7-7,2.8c-0.3,0.1-0.6,0.2-0.9,0.4c-3.5,3.3-8.4,2.9-12.5,4.9c-3.5,1.7-7.4,1.3-11.3,0.8c-2.1-0.3-4.1,1.2-6.2,1.7
	c-0.3,0-0.6,0.1-1,0c-5.6-1.2-11.3-2.2-16.9-3.2c-4.2-0.7-7.9-3-11.2-5.7c-1.5-1.2-2.9-2.1-4.7-2.4c-5.6-4.5-10.4-9.9-14-16.1
	c-2.6-4.5-5.9-8.5-9.4-12.6c-1.4-1.6-3-3.2-5.5-1.9c-2.4-4.8,0-8.8,5.4-9c3.6-0.2,7.2,1.2,10.9,0.7c0.3,0.1,0.8,0.5,0.7,0.7
	c-1.3,2.7,0.9,3.8,2.4,5.2c5.2,5,8.2,11.7,12.4,17.5c0.8,1.2,1.4,2.6,2.4,3.7c1.6,2.7,4.1,4.6,6.3,6.8c2.3,1.5,5,3.7,7.4,2.4
	c2-1.1,0.4-4.4,0.3-6.7c-0.7-13-7.5-22.5-17.6-30.2c-1.3-1-3-1.1-4.1-2.3c-0.5-0.6-0.7-1.4-1.1-2C118,320,116.9,319.8,116.4,319z"/>
<path class="st6" d="M103.4,534.8c-2.7-0.9-5.4-1.4-8.2-1.3c-6.2,0.2-12.3-0.8-18.3-2.4c1.1,0.3,2.2,0.6,3.3,0.7
	c1.3,0.1,1.9,0.7,1.8,1.9c-0.1,1.2-0.9,1.3-1.9,1.4c-5.4,0.4-10.1-1.9-14.4-4.7c-1.5-1-1-3.8-2.6-5.1c-0.4-4.1-0.1-8.2,0-12.4
	c0.1-6.3-0.1-12.6-1.2-18.8c-0.5-3.1-1.3-6.4,0.2-9.8c0.2-0.5-0.4-1.4-0.6-2.2c-1-4-0.7-7.7,2.8-10.6c6.5-0.2,12.7,1.8,18.8,3.9
	c0.4,0.1,0.5,0.7,0.7,1.1c-0.3,1.4-1.5,1.1-2.4,1.1s-1.8-0.3-2.7-0.2c-1.5,0.1-3.6-0.4-4.2,1.2c-0.5,1.3,1.7,1.8,2.5,2.9
	c2.3,3.5,5.8,4.9,9.9,5.3c3.4,0.4,6.8,0.6,10.2,1.5c2.1,0.5,2.2,0.8,1.1,2.6c-2.9,0.1-5.7-0.7-7.8-0.7c1.9,0,4.6,0.7,7.3,0.7
	c2.2-0.5,4.2-1.6,6.5-1.4c1.5,0.1,3.2-0.3,3.9,2.1c0.4,1.3,2.5,0.3,3.8,0.7c0.7,0,1.3,0.2,1.8,0.7c0.3,2.2-1.5,1.8-2.6,2
	c-3.1,0.4-6.1-0.3-9.1-0.8c-2.9-0.5-5.8-0.6-8.9,0.1c3.6,2.9,6,7.3,11,8.6c3.2,0.8,4.7,5.9,2.7,8.5c-3.2,4.4-2,7.7,3.4,8.9
	c3.7,0.8,3.9,1.2,2.3,4.7c-0.2,0.4-0.5,0.8-0.2,1.2c0.4,0.6,1,0.3,1.5,0.3c5.1-0.5,8.9,2.4,12.5,5.4c1.7,1.4,0.8,3.3-1.5,3.5
	c-1.8,0.1-3.6,0.4-5.4-0.2c-2.8,0.2-5.4-0.5-8.2-0.8C108.5,534.3,105.9,534.3,103.4,534.8z"/>
<path class="st7" d="M74.8,380.4c-0.6-2.1-2.3-3.6-3.6-5.3c-2.3-3.1-4.4-6.4-5.4-10.3c-1.6-6.1-1-12,2-17.6c2.4-0.3,3,1.5,3.7,3.2
	c1.7,4.7,3.6,9.1,7.3,12.9c8.2,8,16.7,15.7,27.1,20.5c8.1,3.7,16.5,7.8,25.5,8.6c9,0.8,17.9,2.6,27.2,1c8.4-1.5,16.9-3,25.2-4.7
	c1.6-0.3,3-1.1,4.4-1.8c5.4-2.6,11.5-4,16.3-7.8c1.2-1,2.8-1.5,4.5-0.5c0.8,1.1,0.3,2.1-0.5,2.7c-3.7,2.8-6.5,6.7-10.6,9.1
	c-2.3,0.2-3.8,1.9-5.6,3.1c-7.4,4.9-16.3,6.4-24.3,9.7c-9.2,3.7-18.7,3.5-28.3,3.2c-6.1-0.2-12.2-1.7-18.2-2.6
	c-5.2-0.3-10-2.6-14.7-4.2c-10.7-3.7-20.5-8.8-29.4-15.9C76.3,382.8,75.2,381.9,74.8,380.4z"/>
<path class="st8" d="M209.2,378.8c-3-0.2-5.2,1.5-7.3,3.1c-2,1.5-3.9,2.8-6.5,3.2c-2.9,0.5-5.4,2.1-8,3.6c-0.6,0.3-1.1,0.9-1.8,1
	c-6.3,0.7-12.4,2.7-18.6,4c-1.5,0.3-2.9,0-4.4,0.1c-4.5,0.4-8.8,1.8-13.5,1.6c-1.3-0.1-2.7,0-4-0.3c-3.9-0.8-7.7-1.6-11.8-0.8
	c-0.7,0.1-1.3-0.3-1.9-0.5c-3.4-1.1-7-2.3-10.5-2.8c-3.1-0.5-5.3-1.9-7.7-3.4c-2-1.2-4.3-1-6.4-2c-2.9-1.3-5.4-3.1-7.9-4.9
	c-0.7-0.5-1.2-1.1-2.1-0.9c-0.5,0.1-0.9-0.1-1.2-0.4c-3.8-2.9-7.8-5.8-11.2-9.4c-1.5-1.6-2.5-3.4-4.8-4c-1.8-3.2-5.1-5.1-6.8-8.4
	c-0.3-0.5-0.5-1.1-0.5-1.6c0.1-1.2,0.2-2.4-1.3-3.1c-0.3-0.1-0.4-0.8-0.4-1.2c0.1-2.1-1.1-3.4-2.7-4.3c3-5.6,7.9-8.5,13.8-10.4
	c3.3-1,6.8-0.2,10.2-1.4c2.4,0.3,5.2,0,5.6,3.5c-4.5,0.6-7.9,2.9-10.6,6.7c-1,1.4-2.7,1.6-4.1,2.2c-3.6,1.4-3.6,2.3-2,5.7
	c3.9,8.6,11.6,13.6,18.3,19.3c3.6,3,7.9,5.3,12.5,7c3.5,1.3,7,2.5,10.6,4.1c5.3,2.4,10.9,3.2,16.7,2.8c0.6,0,1.2-0.2,1.7,0
	c6.9,2.8,13.7-0.5,20.5-0.6c6.6-0.1,12.4-2.8,18.5-4.3c5.1-1.3,9.7-4,14.5-6c5-2.1,9.5-5.3,14.4-7.7c1.5-0.8,2.7-1.4,1.6-3.3
	c2.5-2.9,6.6-4.2,9.4-3.1c0.5,2.7-2.1,5.3-0.4,8.1C216.5,374,214.2,377.8,209.2,378.8z"/>
<path class="st9" d="M290.2,300.5c2.6,1.8,2.6,1.8,4.6-0.4c1.8-2,3.7-4,5.6-6c1.2-1.2,2.5-1.4,3.7,0.1c-0.1,1.8-0.4,3.6-1.4,5.2
	c-0.6,1.1-1.5,2-2.2,3c-0.8,1.4,0.3,2.2,1.1,2.9c6.9,6.7,13.2,14.3,20.2,21c1.7,1.6,3.3,2.9,5.4,0.6c0.6-0.6,1.1-1.1,1.8-1.6
	c1.5-0.8,2.9-1.8,4.4,0c0.7,1.5-0.5,2.3-1.2,3.2c-1.8,2.2-3.6,4.3-5.4,6.4c-0.9,1-1.6,1.9-0.2,3c0.7,0.6,0.8,1.6,0.7,2.5
	c-1.4,1.4-3.5,1.5-5,2.8c-0.7,0.7-1.7,0.2-2.5-0.4c-1.6-1.1-3.1-0.8-4.9,0.4c5.1,1.3,5.7,2.2,3.8,5.7c-2,0.8-2.6,3-4.2,4.1
	c-2-0.2-2.9,1.4-4.1,2.5c-2.1,1.8-3.4,4.5-6.6,4.8c-1.9-0.3-3.2-1.3-3.7-3.2c0-1.9,1.3-2.9,2.6-4c1.3-1.2,2.6-2.4,3.4-4
	c1.2-1.7-0.3-2.5-1.2-3.4c-6-6.1-11.7-12.8-17.9-18.6c-0.9-0.8-1.8-1.7-1.9-3.1c0.6-1.7,1.4-0.6,2.1-0.2c-1.2-1.2-2.6-2-4.4-1.9
	c-1.2-0.2-2.4-0.2-3.5,0.4c-0.5,0.1-1.1,0.2-1.6,0.3c-2.9,0.9-3.1-0.5-2.4-2.8c0.6-1.1,1.5-1.9,2.7-2.3c0.9-0.3,1.8-0.2,2.7-0.2
	c5.2,0,8.1-3.7,6.6-8.8c-0.8-2.8-0.3-5.3,1.2-7.7C288.8,300.2,289.5,299.9,290.2,300.5z"/>
<path class="st10" d="M64.9,417.8c1.7-6,2-12.2,3.1-18.3c0.5-2.8,1.2-5.5,1.8-8.2c1.4-1.1,2.6-0.1,3.7,0.5
	c11.2,6,22.9,10.8,34.6,15.7c6.8,2.9,14,4.7,21,6.8c3.7,1.1,7.7,2.5,12,2c0.3-0.1,0.6-0.2,1-0.1c3.9,2.4,8.4,2.1,12.8,2.5
	c0.3,0,0.3-0.5,0.5-0.8c0.4-0.4,0.8-0.5,1.3-0.4c0.9,0.2,1.5,0.7,1.9,1.5c0.2,0.5,0.3,1,0.2,1.5c-0.1,0.3-0.3,0.6-0.5,0.9
	c-0.6,0.6-1.4,0.8-2.3,0.8c-4.4-0.7-8.6,1-12.9,1.6c1,2.7-3.8,0.8-2.8,3.6c-0.3,0.2-0.6,0.3-1,0.4c-4-0.4-7.8-1.5-11.7-2.9
	c-9.8-3.5-20-4.6-30.1-6.6c-4.7-0.8-9.5-2.1-14.2-0.3c-0.3,1.4,2,2.3,0.6,3.7c-3.8,0.7-5.8-2.2-8.3-4.1c-0.4-0.3,0.2-0.1-0.2-0.2
	c-0.5-0.1,0,0.3-0.1,0.5c0.8,2.3,2.8,3.5,4.8,4.5c1.4,0.7,2.7,1.4,1.9,3.3c-4,0.5-6.6-2.4-9.8-4.2c-0.5-0.4-0.9-0.9-1.3-1.3
	c-1.2-0.8-1.9-0.1-2.5,0.9c-0.4,0.6-0.5,1.5-1.3,2C63.1,422.9,64.9,419.9,64.9,417.8z"/>
<path class="st11" d="M489.4,434.5c1.2,2.1,2.9,2.9,5.4,2.8c3.4-0.2,6.8,0.4,10.1,1.6c4.8,1.7,10.1,2,15,3.2c2.5,0.6,5,1.6,7.6,1.7
	c2.1,0.1,2.4,3.7,5.3,2c1.8-1,4.2-0.2,6.4-0.3c1,0,2,0,3,0.2c0.6,0.1,1,0.6,1,1.2c0,0.5-0.3,0.9-0.8,1c-1.8,0.7-3.6,1.5-5.5,1.6
	c-6,0.1-12,1.1-18,1.5c-5.6,0.4-11.3,1.4-16.9,2.2c-7.4,1.1-14.5,3.9-21.5,6.1c-3.1,1-6.1,2-9.1,3.7c-2.6,1.4-5.9,1.2-8.3,3.1
	c-1.2-0.8-0.7-1.6-0.4-2.1c3.5-5.7,6.1-12,10.5-17.2c0.1-0.2,0.4-0.3,0.4-0.5c1.2-4.4,5.2-6.4,7.8-9.7c1.2-1.5,3.3-1.5,4.5-3
	c0.2,0,0.5,0,0.7,0c0.6,0.6,1.5,0,2.1,0.7C489,434.5,489.2,434.5,489.4,434.5z"/>
<path class="st12" d="M421.4,398.1c-0.5-1.1-1.5-1.5-2.7-1.8c-0.6,1.1,1.6,1.1,0.8,2.1c-0.2,0.3-1,0-1.7,0c0,1.1,1.5,1,1.6,1.9
	c-0.1,0.1-0.3,0.4-0.4,0.3c-1.9-0.7-3.5-1.6-2.9-4.2c0.2-0.7-0.1-1.6-0.4-2.3c-0.2-0.6-0.7-0.3-1.1-0.1c-1.1-1.8-2.3-3.4-4.4-4.3
	c-1.8-0.8-3.5-2.2-4.7-3.7c-1.3-1.8-2.2-1.2-3.3-0.1c-1.3,0.8-2.8,0.7-4.2,1.3c-0.2,0.3-0.6,0.6-0.9,0.4c-5.4-3.2-6.5,2.4-9.4,4.5
	c-0.1,0.1-0.2,0.1-0.3,0.2c-0.8,0.3-2,0.2-2.1-0.4c-0.7-3.2-6-1.4-5.8-5.4c-0.1-0.5,0-1,0.1-1.4c1.1-4,1.4-7.8-2.6-10.7
	c-1.1-0.8-1.7-2.1-2.5-3.2c-1-1.2-1.8-1.2-2.7,0c-2.3,2.4-4.7,3.7-7.9,1.2c-1.3-1-3.1-1-3.8,1.1c-0.6,1.6-2,2.4-3.2,3.4
	c-0.4,0.3-0.7,0.6-1.1,0.8c-0.9,0.4-1.6,0.2-2-0.7c-1.3-2.8-7.6-0.9-5.9-7.1c1.6-5.6-0.2-11.3-4.3-15.7c-0.3-0.4-0.6-0.7-0.8-1.2
	c-0.2-0.5-0.4-1-0.4-1.6c0-0.3,0.2-0.6,0.4-0.9c-0.7,0.5-0.8,1.5-1.5,2c-1.1,0.7-2.4,1.3-3.4,0.2c-1.2-1.3,0.2-2.3,0.8-3.3
	c0.8-1.2,1-3.4,3.3-2.2c1.5,0.1,2.8,1,3.5,2c2.1,2.8,5.1,4.5,7.6,6.7c2.9,2.5,4.2,5.9,5.2,9.5c0.5,1.8,1.2,1.6,2.4,0.9
	c0.1-0.1,0.2-0.1,0.3-0.2c2.5-2.2,5.2-3.8,8.7-2.8c4.7,1.3,9,3.4,11.8,7.6c1,1.6,2.1,2.8,3.6,4c1.7,1.4,3.2,2.9,4.2,4.9
	c0.7,1.3,1.6,1.8,3,0.8c3.5-2.4,6.8-1.9,10.7-0.4c3.3,1.3,6.8,2.2,9,5.1c2.7,3.6,6.6,5.3,10.5,7.3c4.8,2.5,10,4.5,14.9,6.9
	c1.6,0.8,2.4,2,2.8,3.6c0.5,2.3,0.8,4.7,0,7c-0.6,0.1-1,0.3-1.3,0.9c-0.6,1.4-1,0.5-1.4-0.2l0,0c-0.8-0.3-1.5-0.6-2.3-1
	c-0.7,1.2,0.4,2,0.3,3c0.7,0.1,1.3,0.5,1.3,1.3c0,1.7,0,3.3,0,5.3c-2-0.6-0.8-3.3-2.8-3.2c-1.8-0.5-2.8-3.3-5.3-1.9
	c-0.5-2.4,0.6-5-0.8-7.3c-0.4-0.6,0.1-0.8,0.6-0.8s0.8-0.3,1-0.7c1.7-3.6,2.8-3.8-1.2-6.5c-0.8-0.6-1.7-1.1-2.6-1.6
	c-0.7-0.4-1.5-1.1-1.8,0.6C423.5,399,422.3,397.9,421.4,398.1L421.4,398.1z"/>
<path class="st13" d="M83.5,477.1c-0.8-1.6-2.4-1.8-3.8-1.9c-5.1-0.6-10-1.8-14.8-3.5c-0.2-0.1-0.4,0-0.7,0c0.9-1.1,1.2-2.1,1.1-3.7
	c-0.6-5.1-1.5-10.4-0.9-15.6c3.3-1.4,6.4-0.9,9.6,0.7c1.4,2.1,3.9,2,5.9,2.4c9.9,1.5,19.8,2.5,29.4,5.4c1.1,0.3,2.5,0.4,2.6,1.7
	c0.2,1.5-1.2,1.6-2.3,1.8c-1.5,0-3,0.1-4.4-0.1c-2.9-0.9-5.8-0.6-8.8-1c-6.6-0.8-13.2-2-18.1-2.7c5.3,0.3,12.2,2,18.8,4
	c4.6,1.4,9.4,3.3,11.8,8.1c0.8,1.4,2.3,1.7,3.5,2.5c1.7,1,3.9,1.7,3.7,4.3c-1.1,1.9-2.9,2.2-4.7,2c-8-0.7-16.2-1.3-24.2-2.6
	C85.6,478.8,84.2,478.6,83.5,477.1z"/>
<path class="st14" d="M326.6,549.3c-0.7-2.7-2.7-2.3-4.6-2.3c-1.6,0-2.9-0.1-4,1.7c-0.9,1.6-6.3,1.4-7.5-0.3
	c-1.8-2.7-4.4-1.7-6.7-1.9c-0.6,0-1.1,0.4-1.3,1c-0.5,2.1-2.2,1.5-3.6,1.5c-1.5,0-3.5,0.3-4.4-1.2c-1.8-2.7-4.4-1.5-6.7-1.9
	c-0.5-0.1-0.9,0.3-1,0.8c-0.3,2.4-2.1,2.3-3.6,2c-2.1-0.3-5.1,0.9-5.8-2.6c0-0.1-0.2-0.2-0.3-0.2c-1.8-0.4-3.6-0.3-5.4-0.2
	c-1.2,0-1.2,1.1-1.5,1.9c-0.3,0.8-1.1,0.9-1.7,0.8c-2.2-0.2-5.2,1.3-6.2-2.3c-0.1-0.1-0.4-0.3-0.6-0.3c-1.7-0.1-3.4-0.1-5.1-0.1
	c-1.2,0.1-1.2,1.2-1.5,2c-0.1,0.2-0.4,0.6-0.7,0.6c-2,0.3-4.1,0.1-6.1,0c-1.3-0.1-1.1-1.3-1.5-2c-0.2-0.2-0.5-0.5-0.8-0.5
	c-1.7-0.1-3.4-0.1-5.1-0.1c-1.2,0-1.1,1.1-1.5,1.9c-0.4,0.7-1.1,0.7-1.8,0.7c-1.1,0-2.3,0-3.4,0c-1.3,0-2.8,0.2-2.9-1.9
	c-0.1-0.5-0.5-0.7-1-0.8c-1.7-0.3-3.4-0.2-5.1,0c-1.2,0.2-0.9,1.3-1.3,2.1c-0.2,0.3-0.5,0.5-0.8,0.6c-1.9,0.6-3.9,0.2-5.8,0.1
	c-1.4-0.1-1.4-1.2-1.7-2.2c-0.2-0.5-0.6-0.6-1.1-0.7c-1.4-0.2-2.7-0.6-4.1-0.5c-1.1,0-2,0.3-2.1,1.6s-1,1.6-2.1,1.6
	c-1.3,0-2.5,0-3.8,0c-1.6,0-3.4,0.3-3.4-2.2c-0.1-0.6-0.8-0.7-1.4-0.8c-1.1-0.1-2.1-0.2-3.1-0.3c-1.3-0.1-2.3,0-2.5,1.6
	c-0.1,1.3-1,1.6-2.2,1.6c-1.4-0.1-2.7,0-4.1-0.1c-1.2-0.1-2.3-0.4-2.4-1.9c-0.1-1-0.7-1.3-1.6-1.3c-1.3,0-2.5,0-3.8,0
	c-1.2-0.1-2.1,0.1-2,1.6c0.1,1-0.5,1.2-1.3,1.2c-1.9,0-3.7,0-5.5-0.1c-0.7-0.1-1.5-0.2-1.6-1c-0.3-1.5-1.1-2.1-2.6-2.1
	c-1.2,0-2.5-0.3-3.7,0.1c-0.5,0.1-1,0.4-0.9,0.9c0.1,1.3-0.7,1.4-1.7,1.4c-1.6,0-3.2-0.1-4.8-0.1c-0.6,0-1.4,0-1.7-0.8
	c-1-2.9-3.5-2.3-5.6-2.4c-0.6,0-1.4,0.1-1.4,0.7c0.1,2.8-2,1.8-3.3,1.8c-1.9,0-4.1,0.5-4.9-2.4c-0.3-1.1-5.9-1.5-6.7-0.7
	c-0.1,0.1-0.2,0.4-0.2,0.6c0.4,1.8-0.8,1.8-2,1.6c-2.5-0.5-5.6,0.5-6.8-3c-0.1-0.3-0.8-0.4-1.2-0.5c-1.7-0.2-3.4-0.7-5.1-0.5
	c-0.9,0.5-1.7,1.3-2.6,2.1c-2.7,0.2-5.3,0.4-8,0.7c0.1,1.3-0.3,2.5-0.5,3.8c0.7,0,1.4,0.1,2.1,0.2c5.6,0.1,11.2,0.4,16.8,0.5
	c22.5,0.4,45,0.9,67.6,1.3c22.9,0.3,45.7,0.5,68.7,0.8c3.6,0.1,7.3,0.1,11,0.2c1.1-0.4,2.3-0.2,3.4-0.2c16.1,0,32.3,0.1,48.4,0.2
	c2.5,0,5,0,7.5,0C327.7,549.9,326.7,549.7,326.6,549.3z"/>
<path class="st15" d="M229.1,336.9c-2.9,1.4-5.7,2.8-8.2,4.8c-1.5-6.3-1.5-12.6,0.6-18.8c2.7-7.9,6.6-15.5,9.7-23.3
	c1.1-2.9,3.7-5.2,3.5-8.6c1.4-0.5,4.7-0.7,5.7-0.2c1.5,0.7,3,1.7,4.8,1.6c0.2,0,0.5,0.1,0.6,0.3c1.3,3.6,5.1,3.5,7.7,4.8
	c4.1,1.9,8.1,3.9,11.8,6.7c0.6,0.5,1.1,0.9,2,1c3.8,0.4,6.3,3.3,9.6,4.9c0.1,2.8,2.8,2.6,4.3,3.8c1.5,1.2,2.1,0.2,2.8-0.9
	c1.4,1.4,1.3,2.9,0.2,4.2c-1.5,1.8-3.3,0.5-4.6-0.3c-7.2-4.4-14.9-8-22.6-11.6c-1.5-0.7-2.9-1.4-4.5-0.8c-2.1,0.3-4-0.6-5.9-1.3
	c-2.3-0.8-3.7-0.2-4.6,2c-4,9-8.2,18.1-11,27.6C230.4,334.3,230,335.7,229.1,336.9z"/>
<path class="st16" d="M216.8,326.7c-0.2-0.9-0.6-1.7-1.6-0.9c-1.4,1.1-2.9,2.3-3.7,3.9c-1.1,2.2-2.7,4.1-3.9,6.3
	c-2.2,3.9-2.6,7.9-0.4,12c2,3.7,1.5,4.7-2.9,5.3c-0.8-0.1-1.6-0.2-2.1-1c-3.9-6.1-7-15.4-1.8-22.6c2.6-3.6,5.1-7.3,7.2-11.2
	c2.3-4.1,4.6-8.5,5.6-13.3c2.3-1.5,4.3-0.1,6.3,0.7c1.8,0.7,3.5,1.5,5.5,0.9c0.7,1,0.3,2-0.3,2.8c-2.9,4.4-4.5,9.4-5.9,14.4
	C218.7,325.1,218.5,326.5,216.8,326.7z"/>
<path class="st17" d="M73.9,453.7c-0.4-0.2-0.8-0.6-1.2-0.5c-2.8,0.1-5.6-0.5-8.3-0.9c0.2-2.7-0.3-5.4-0.4-8.1
	c-0.3-8.1-0.4-16.3,0.3-24.4c0.1-0.7,0.1-1.4,0.6-1.9c0,1-0.1,2,0.2,3c0.3,1.3,1.1,2.2,2.6,1.4c2.3,0.1,2.3,2.1,2.8,3.5
	c1.2,3.5,2.9,6.7,5.8,9c4.2,3.4,4.2,3.3,1.7,8c1.7,0.7,3.5,1.3,0.9,3.2c-1.3,1-0.9,2.7-0.6,3.7c0.5,1.6,2.4,2,4,1.9
	c2-0.1,4.1-0.6,6,0.6c1.6,1,2.8,2.2,0.7,4C83.9,456,78.7,455.9,73.9,453.7z"/>
<path class="st18" d="M113.8,541.1c-0.3-2.1-2.7-2.2-4-3.6c0.9-0.5,1.9,0.8,2.7-0.7c-7-0.9-14.1-1.2-21.2-2.7
	c1.4-0.7,2.6-0.3,3.7-0.5c-0.4-0.2-0.8-0.6-1.2-0.6c-6.1-0.6-12.2-1.4-18.2-2.7c-0.9-0.2-1.9-0.5-3.3,0.7c2.8,0.5,4.9,0.9,7.1,1.2
	c1.3,0.2,2,0.6,1.6,1.8c-6.2,0.8-11.1-2-16.2-4.9c1-0.8,2.1,0.2,2.9-0.8c-1.3-1.4-3.3-1.8-4.8-2.9c0,6.9,4.5,10.1,10.8,12.3
	c2.9,1,6,1.7,9.1,2.4c1.1,0.3,2.2,0.6,3.3,0.4c0.2-0.7-0.1-1.9,1.4-1.3c0.9,0.4,1.7,1,2.6,1.4c2.6,2.1,5.7,2.2,8.9,2
	c0.4-1,1.1-1.7,2.3-1.5c1.3,0.1,0.1,1.1,0.5,1.5c0.5,0.4,1.3-0.3,1.9,0.7c-0.4,0-0.7,0-1.1,0c-0.2,0.2-0.3,0.4-0.4,0.6
	c3-0.1,5.9-0.2,8.9,0C113.9,543.9,113.9,543.8,113.8,541.1z"/>
<path class="st19" d="M341.8,347.2c-0.6,0.1-1.6-0.3-1.6,0.7c0,1.6-0.9,2.4-2.1,3.1c-0.3,0.2-0.5,0.5-0.4,0.8c0.2,0.5,0.6,0.6,1,0.5
	c0.8-0.1,1.5-0.3,2.3-0.4c1-0.5,1.6,0.3,2.3,0.7c0.1,0.1,0.2,0.2,0.4,0.4c1.3,3,3.9,5.6,2.7,9.5c-1.3,1.8-2.7,0.9-4.2,0.3
	c-4.4-1.8-8.7-3.7-13.1-5.8c-2.1-1-3.3-0.8-4,1.6c-0.5,2-2.2,3-4,3.9c-2.5-1-4.2-3.5-7.2-3.8c-0.4,0-0.6-0.9-0.7-1.5
	c-0.1-1.2-1-2.5,0.4-3.5c0.2-1.1,1.3-1.7,1.5-2.9c0.3-1.6,1.6-2.3,3.1-2.4c1-0.5,2-1.2,3.3-0.8c-1-0.9-2.6-1.8-1.8-3.1
	c0.7-1.1,2.2-2.1,4-1.5c-0.2,2.2,0.6,4.2,0.9,6.3c2,0,3-1.5,4.1-2.4C332.5,343.9,338.2,344.2,341.8,347.2z"/>
<path class="st20" d="M119.9,322.5c2.9,0.5,4.9,2.2,7,4.2c2.6,2.5,5.1,5,7.5,7.6c2.8,3,4.1,6.7,6.1,10.1c0.1,0.2,0.1,0.5,0,0.6
	c-1.2,2.6,0.7,4.7,1.2,7c0.3,1.5,0.5,3.1,0.6,4.6c0,1.2-0.2,2.4,0.5,3.6c0.5,0.9-0.1,1.8-0.3,2.6c-0.2,0.8-0.7,1.2-1.5,0.9
	c-2.8-1-6-1.3-8.2-3.7c2.5-3.6,0.4-7-0.5-10.5c-3.1-11.2-10.1-19.9-18.1-28c-0.5-0.5-1.1-0.9-1.3-1.6c0.8-1.1,2.4-0.5,3.3-1.4
	c1.6-0.8,2.3,0,2.7,1.4C118.7,321.3,119.6,321.8,119.9,322.5z"/>
<path class="st21" d="M60.2,376.2c3.7-0.7,6.6,0.7,8.3,3.8c1,1.9,2.4,2.4,4,3c5.4,1.4,10,4.6,14.6,7.4c3.8,2.3,7.8,4.1,11.9,5.8
	c5.1,2.2,10.5,4.4,16,5.8c9.9,2.5,19.5,5.6,29.5,7.5c1.7,0.3,3.4,0.5,5,1.2c1,0.4,2.6,0.7,2,2.5c-1.3,0.9-2.6,0.5-3.9,0.3
	c-3.8-0.6-7.6-1.1-11.5-1.7c-3.2-1.2-6.6-1.8-10.1-1.9c-4.9-0.1-9.5-3.4-14.6-2c-0.3,0.1-0.7-0.2-0.9-0.5c-1.6-2.5-4.3-2.8-6.7-3.7
	c-10.6-4-20.9-8.5-31.1-13.6c-1.4-0.7-2.9-1.4-3.7-2.9c-0.1-0.1,0.1-0.7-0.4-0.3c-1.1,1-0.5,2.3-0.7,3.4c-0.5,1-1.2,1.7-2.3,2.1
	c-1.8-0.3-3.7-0.4-3.2-3c1-2.3,1.5-4.7,1.6-7.2c1.1-1.8,0.4-2.9-1.2-3.8C61.7,377.9,60.1,377.9,60.2,376.2z"/>
<path class="st22" d="M151.5,413.1c-2.6-2-5.8-1.9-8.7-2.5c-6.3-1.4-12.5-3.2-18.7-4.9c-4.7-1.2-9.1-3.3-14.1-3.8
	c-0.8-0.1-1.1-0.7-1.7-1c-2.8-1.4-5.5-3-8.8-3.3c-0.8-0.1-1.5-0.4-2.2-0.9c-2.2-1.6-4.3-3.3-7.3-2.9c-0.5,0.1-1.4-0.3-1.5-0.6
	c-1-2.6-3.6-2.9-5.6-4c-3.4-1.9-7-3.6-10.2-6.1c1.2-0.5,1.6-1.6,2.2-2.6c3,2.2,5.9,4.5,9,6.6c9.6,6.6,20.2,10.9,31.2,14.3
	c2,0.6,4.1,1.4,6.2,1.6c6.5,1.7,13.3,2.7,20,3.5c9.9,1.2,19.7,1.8,29.5-0.3c2.1-0.4,3.7-1.6,5.5-2.6c1.5-0.8,2.9-1.9,4.7-0.7
	c0.6,1,0,1.8-0.7,2.3c-4.6,3.8-9.4,7.5-14.2,11.2c-0.4,0.3-0.8,0.3-1.3,0.4c-3.3-0.3-6.6-1.1-10-1.7
	C153.5,414.8,152.2,414.6,151.5,413.1z"/>
<path class="st23" d="M465.5,429.7c-0.7,0.4-1.4,0.8-2.1,1.3c-1.3,1.7-3.4,2.3-5.3,2.6c-2.6,0.4-5,1.5-7.7,1.6
	c-2.2,0.6-4.3,1.7-7.3,2.1c1.6-5.1,1.7-10.2,1.8-15.1c3.2-1,6.5-1.9,9.8-2.9c1.4-0.4,2.7-1.3,3.7-2.3c1.1-1.1,2-1,2.9,0
	c1.2,1.3,2.7,2,4.2,2.8c3,1.6,3.6,3.2,2.1,6.4C466.9,427.4,466.1,428.5,465.5,429.7z"/>
<path class="st24" d="M69,386.4c1.5,2.3,4.1,2.8,6.2,3.9c7.4,3.8,15.3,6.9,22.9,10.4c3.3,1.5,6.8,2.5,10.3,3.6
	c1.1,0.4,2.5,0.4,2.2,2.3c-0.1,0.6,0.7,0.9,1.3,0.8c1.1-0.2,0.1-0.8,0.2-1.2c0.2-0.9,0.9-0.5,1.3-0.4c3.5,1.3,7.2,2.1,10.9,2.8
	c3.2,0.7,6.5,1.1,9.8,1.7c0.6,0.1,1.1,0.2,1.5,0.7c-3.3,2.1-6.2-0.3-9.4-0.9c-0.5,0-0.1,0.6-0.1,0.2c0-0.2,0.1-0.3,0.3-0.2
	c2.8,1.4,5.9,1.9,9,1.8c2,0,3.6,1.1,5.3,2.1c0.9,0.5,1.8,1.1,0.9,2.4c-0.6,0.6-0.2,2.1-2.1,1.4c-3.2-1.1-6.6-1.6-9.9-2.4
	c-4.6-1.1-9-2.8-13.8-3.5c-8.9-5-19.1-7.3-28.3-12.1c-5.4-2.8-11.2-5.2-16.4-8.4c-0.5-0.3-1.1-0.3-1.6-0.5c-0.3-1.1-1.1-1.1-2-0.7
	c-0.4-0.9-1.8-1.3-1.5-2.3C66.7,387.1,67.5,386,69,386.4L69,386.4z"/>
<path class="st25" d="M64.4,382.2c1.3,2.9,0.2,5.4-1.5,7.7c-1.1,1.3-1.3,3.3-3.4,3.7c-1.4,0.9-2.9,1.5-4.7,1.8
	c-4.2,0.8-7.2-0.8-9.6-4.2c-0.5-0.7-0.6-1.7-1.4-2.2c-1.8-1.8-0.2-3.2,0.5-4.7c1.8-4.3,5.6-5.3,9.7-6c2.3-0.2,4.4,0.5,6,2.2
	c0.8,0.9,1.8,1.2,3,0.8C63.7,381.1,64.4,381.3,64.4,382.2z"/>
<path class="st26" d="M44.3,384.3c-0.2,1.6-0.3,3.2-0.5,4.7c-2.1,0.4-4-0.6-5.9-1.1c-9.5-2.6-17.9-7.2-25.6-13.4
	c-3.3-2.6-6.2-5.7-9.6-8.3c-1.1-0.8-2-1.8-2.4-3.2c-0.6-2.2-0.3-3.3,1.7-4.6c1.5-1,2.7-0.8,4.3,0.6c0.6,0.5,1.3,1.1,0.5,2
	c-0.4,0.4-0.3,0.9,0.1,1.2c3.5,2.1,4.5,6.4,7.6,8.8c1,0.8,2,1.8,3.6,1.4c1.1-0.2,1.2,0.4,1.6,2c0.3,0.9,1.2,2,1.9,2.1
	c2.2,0.3,3.7,3,6.3,1.8c0.2-0.1,0.6,0,0.6,0.2c1.4,3.7,5,3.8,7.9,4.7C39.1,383.8,41.6,385,44.3,384.3z"/>
<path class="st27" d="M113.1,320.4c0.9,0,1.8,0.1,2.4,0.9c2.6,3.8,6.3,6.8,9,10.7c3.1,4.3,5.5,8.8,7.5,13.7
	c1.5,3.5,2.1,7.4,3.4,11.1c0.6,1.7-0.1,2.4-2.6,3.6c-2.2-2.1-4.9-3.9-6.2-6.8c-0.5-9.7-5.5-17.1-11.9-23.8c-1.6-1.7-3.2-3.5-4.3-5.7
	C110.8,322.3,111.7,321.2,113.1,320.4z"/>
<path class="st28" d="M213.3,305.3c0.4,0.1,1.1,0.3,1.1,0.7c-0.1,1.3-0.2,2.8-1.1,3.8c-1.9,2-2.9,4.4-3.1,7.2c0,0.8-0.5,1.2-1,1.7
	c-3.3,3.5-5.2,8-8,11.8c-3.5,4.5-2,9.5-1.8,14.3c0.1,1.7,1.7,2.5,2.4,3.9c0.8,1.5,0.8,3.6,2.6,4.5c-1.7,1.5-3.7,2.3-5.9,2.7
	c-2.7-4.2-4.6-8.5-4.4-13.8c0.1-4.2,2.1-7.6,3.8-11.2c0.6-1.2,1.3-2.4,2.1-3.5c4.1-5.5,7.2-11.6,9.7-18
	C210.3,307.7,211.6,306.3,213.3,305.3z"/>
<path class="st29" d="M110.5,323.9c0.9,0.1,1.6,0.5,2,1.2c1.6,2.8,4.1,4.8,6.3,7.1c0.9,0.9,1,2,1.7,2.9c3.2,3.9,5.2,8.5,6.9,13.3
	c0.2,0.5,0.2,0.8-0.1,1.3c-0.7,1-0.6,1.5,0.4,2.5c1.3,1.3,0.1,1.6-1.1,1.3c-2.5-3.1-4.6-6.4-6.7-9.9c-2.6-4.3-5.1-8.6-9-12
	c-1.6-1.4-2.4-2.7-1.5-4.8c0.1-0.3,0-0.7,0-1C109.8,325.2,110.2,324.5,110.5,323.9z"/>
<path class="st30" d="M234.6,290.9c1,0.1,1.5,0.8,1,1.7c-1,2.1-1,4.7-3.2,6.3c-0.3,0.2-0.7,0.7-0.7,1.1c0,2.8-2.1,4.6-2.9,7
	c-0.8,2.5-1.6,4.9-3,7.3c-2.6,4.6-3.9,10-5.2,15.2c-0.6,2.3,0.2,4.9,0.5,7.4c0.2,1.6,0.2,3.1-0.4,4.7c-1.4,0.6-1.9,2.3-3.5,2.7
	c-2.7-2.5-2-5.9-1.5-8.6c1.8-10.2,5-20,10.5-28.9C229.1,301.5,231.5,296.1,234.6,290.9z"/>
<path class="st31" d="M333.6,325.2c-1.5-0.6-2.9,0.2-4.2,0.7c-5.3-4.4-9.9-9.9-14.7-14.8c-4.1-4.1-7.5-8.9-12.7-11.9
	c1-1.5,0.4-3.8,2.2-5c3.7,3.6,7.4,7.2,11.1,11c5.2,5.3,10.5,10.8,15.7,16.2C332.1,322.5,333.5,323.4,333.6,325.2z"/>
<path class="st32" d="M252.3,304.1c0.2-0.5,0.2-1.3,1-1.1c0.9,0.2,1.7,0.5,2.5,0.8c8.7,3.5,17.1,7.7,25.1,12.8
	c2.6,1.6,2.6,1.6,2.9-1.3c0.1-0.8,0.1-1.6,0.1-2.4c1.7-2.6,1.9-5.5,2.1-8.4c0.1-1.9,1-3.2,2.4-4.2c0.6-0.4,1.3-0.4,1.7,0.4
	c-1.2,0.2-1.7,1.1-1.9,2.1s-0.1,2.1-0.7,2.9c-0.4,0.5-0.2,1,0.2,1.5c3,5-0.1,11-5.8,11.3c-1.4,0.1-2.7,0-4.1,0
	c-4.4-0.5-7.7-3.6-11.7-5.4c-4-1.9-7.6-4.4-11.7-6.4C253.5,305.9,252.3,305.5,252.3,304.1z"/>
<path class="st33" d="M97.2,339c-1.1-2.3-3.8-2-5.5-3.4c0.7-0.2,1.2-0.6,1.5-1.3c0.7-2.6,0.9-2.7,3.2-1.4c1.3,0.7,2.4,1.7,3.4,2.8
	c4.7,5.6,8.9,11.7,12.7,18c1.1,1.9,2.9,3.4,4.4,5c1.7,1.9,3.8,3.4,5.2,5.6c-0.3,0.7-0.8,1.1-1.5,1.1c-4.6-2.3-8-6-11-10
	c-3.2-4.2-7.1-7.9-10.1-12.5C98.6,341.8,97.4,340.7,97.2,339z"/>
<path class="st34" d="M226.4,306.8c-2,6.3-4.8,12.3-7,18.5c-2.1,6.2-3.2,12.6-1.9,19.1c-0.4,0.4-0.7,0.9-1.1,1.2
	c-0.3,0.3-0.8,0.4-1.6,0.9c-1.1-7,0.7-13.4,2.3-19.8c1-3.1,2.2-6.1,3.1-9.2c1.1-3.9,3.6-7,5.1-10.7
	C225.6,306.8,226,306.8,226.4,306.8z"/>
<path class="st35" d="M323.9,343.1c-1.6-0.1-2.4,1.5-3.8,1.6c0.6,1.3,2.3,1.5,2.5,3.2c-1.4,0.5-2.7,0.7-4.2,0.5
	c0.4-0.7,0.8-1.4,0.6-2.2c-0.2-1-0.7-1.6-1.8-1.6c-0.3,0-0.7,0.1-1,0.2c-1.2,0.4-2.5,0.5-2.9-0.8c-0.5-1.5,0.9-2.2,2-2.7
	c1.5-0.7,3.1-0.3,4.7-0.3c0.5,0,0.7,0.3,0.8,0.9c0.1,1.1,0.7,1,1.3,0.4c1.5-1.4,3.3-1.9,5.3-2C327.1,342.5,325.1,342.2,323.9,343.1z
	"/>
<path class="st36" d="M64.4,382.2c-0.8-0.7-1.3-0.7-1.7,0.5c-0.3,1-1.2,1.1-1.8,0.2c-1.6-2.6-4.3-3.6-6.9-4.6
	c2.1-0.7,4.2-1.4,6.2-2.1c1.4,0.7,2.9,1.3,4.2,2.1C66.6,379.8,66.6,380.2,64.4,382.2z"/>
<path class="st37" d="M350.5,550.5c0.8-3.3,0.8-3.3,4.2-3.4c0.8,0,1.6,0,2.4,0c1.2,0,1.9,0.5,1.9,1.8c0,1.3-0.9,1.4-1.8,1.4
	c-1.1,0.1-2.3-0.2-3.4,0.2C352.6,550.6,351.5,550.6,350.5,550.5z"/>
<path class="st38" d="M521,540.4c-1.1,0-2.2,0-3.4-0.1c-0.8,0-1.3-0.3-1.4-1.2c-0.1-0.7,0.2-1.3,0.9-1.6c1.6-0.7,3.3-0.8,4.9-1
	c0.8-0.1,1.2,0.4,1.4,1.2c0.2,0.9-0.1,1.8-0.5,2.6C522.4,540.3,521.7,540.4,521,540.4z"/>
<path class="st39" d="M333.5,550.4c0.6-1.2,0.7-3,2.2-3.2c2-0.3,4.1-0.2,6.1,0c1.1,0.1,0.6,1.6,1.1,2.4c-2.9,1-5.8-0.2-8.5,0.8
	C334.1,550.4,333.8,550.4,333.5,550.4z"/>
<path class="st40" d="M99.3,542.3c-0.3-0.4-0.5-0.7-0.8-1.1c-0.5-0.7-0.4-1.3,0.5-1.5c0.8-0.1,1.6-0.1,2.4,0c1,0.1,2.3-0.3,2.6,1
	c0.4,1.7-1.7,0.7-2,1.6C101.2,542.3,100.2,542.3,99.3,542.3z"/>
<path class="st24" d="M59.5,393.7c1.1-1.3,1.2-3.4,3.4-3.7c0,0.6-0.3,2,0.8,1.3c2.2-1.4,1.3,0.8,1.9,1.3
	C63.6,393.5,61.6,394.1,59.5,393.7z"/>
<path class="st41" d="M86.3,540.2c-0.5-0.7-1.1-1.4-1.7-2.1c3.4-1.1,4.2-0.9,5.7,2.1C89.1,540.2,87.6,540.2,86.3,540.2z"/>
<path class="st42" d="M584.2,462.7c-1.2,0-1.8,1-2.8,1.4c0-0.8,0-1.6,0.8-2.1C582.9,462,583.7,462,584.2,462.7z"/>
<path class="st26" d="M39.3,382.8c-0.4-0.1-0.9-0.2-0.8-0.7c0-0.2,0.5-0.3,0.8-0.4c0.3,0,0.6,0.2,0.6,0.6
	C40,382.6,39.7,382.8,39.3,382.8z"/>
<path class="st0" d="M488.8,434.5c-0.8,0-1.6,0.1-2.1-0.7C487.4,433.8,488.2,433.8,488.8,434.5z"/>
<path class="st43" d="M104.8,463.3c1.6,0,3.2,0,4.8,0.1c5.2-1,10.4,0.2,15.5,0.1c3.9-0.1,7.7,0.7,11.7,0.8c0.9,0,2.1,0,2.3,0.9
	c-2.1-1.5-4.8-2-7.6-2.5c-5.7-1-11.7-0.5-17.4-1.4c-1.7-0.3-4.4,0-4.3-2.3c0.1-2,2.8-1.2,4.4-1.4c1.4-0.1,2.7,0,4.1,0
	c1.2,0,2.4-0.1,3.5,0.1c2,0.8,4,0.6,6.1,0.5c0.7-0.1,1.5-0.1,2.3-0.1c0.9,0.2,1.9,0.1,2.8,0.1c0.6,0,1.2,0.1,1.7,0.3
	c4.1,0.9,8.3,0.4,12.5,0.3c2.4-0.1,4.8-0.3,7,0.7c-1-0.5-1.9-1.2-1.2-2.3c0.6-1,1.9-1,2.8-0.5c6.1,3.7,12.9,2.3,19.4,2.5
	c6.7,0.2,13.5-0.4,20.2,0.9c2.8,0.5,5.6,0.8,8.5,0.7c5.9-0.3,11.8,1,17.7,1.6c1.3-0.9,0-1.3-0.4-1.7c-1.8-2.2-2.5-4.7-2.7-7.4
	c-0.1-1.5,0-3,1.6-3.7c1.5,0.1,1.6,1.3,1.8,2.4c1.1,7.1,6.7,12.3,13.9,12.5c2.7,0.1,5.4,0.4,8.1,1c6.6,1.9,13.7,2.6,20.3,4.6
	c8,2.4,16.1,4.6,23,7.8c-2.2-1.6-4.4-4.5-7.4-6.4c-0.2-0.1-0.5-0.4-0.4-0.5c1.1-2.6-2.1-4.3-1.5-6.5c0.8-2.9-1.4-3-2.9-3.8
	c-0.9-0.4-2-0.2-3-0.3c-2.3-0.2-5.1,0.9-6.2-2.5c-0.1-0.3-0.8-0.5-1.2-0.6c-6.6-0.7-11.6-5.2-16.8-8.6c-2.6-1.7-5.8-3.6-7.7-6.5
	c-0.8-1.2-1.9-1.8-3.3-2.3c-2.4-0.8-3.8-2.4-3.9-5c0-0.8,0.2-1.6,0.8-2.2c0.6-0.6,1.5-0.9,1.8-1.9c0.6-1.1,1.1-2.3,2.6-2.5
	c0.7,0,1.2,0.4,1.6,0.9c0,0.1,0.1,0.2,0.1,0.3c0,0.1,0.1,0.2,0.1,0.3c0.9-1.8,3.3-0.6,4.3-2.1c0.5-0.2,0.9-0.2,1.4,0
	c2,1.7,2.4,3.6,0.7,5.7c-1.1,1.4-0.9,2.1,0.7,2.7c1.8,0.8,3.4,1.7,4.4,3.5c0.7,1.2,2.5,1.3,3.7,1.3c4.2,0.2,5.8,3.2,7.1,6.4
	c0.5,1.3,0.8,2.3,2.5,2.1c1.9-0.3,3,0.6,3.6,2.4c1.8-0.6,1.4-4.4,4.1-3.1c1.7,0.8,1.9,3.3,3.2,4.7c1.9-1.7,3.6-1.5,6.4,0.7
	c-0.3-1.3-0.1-2.8,1.5-2.9c1.4-0.1,1.5,1.4,1.6,2.6c0.1,1.7,0.6,3.4,2.5,3.6c3.7,0.5,4.3,2.8,3.9,6.5c1.6-1.5,2.5-3.4,4.6-2.8
	c1.8,0.5,2.9,1.8,3.7,3.3c0.6,1.1,1.5,1.2,2.6,0.6c0.8-0.4,1.9-1.5,2.4-0.9c2.7,3.2,7.2,1.9,10.2,4.3c0.9,0.8,1.9,1.1,3.1,1.3
	c1.3,0.2,2.5,0.7,2.2,2.3c0,0.2-0.1,0.3-0.3,0.3c0.2,0.1,0.3,0,0.3-0.3c1.1-1.3,2-0.5,2.9,0.2c2.9,2.2,5.8,4.2,9.4,5.5
	c2.8,1.1,3.5,3.3,2.2,5.4c-1.5,2.3-2.5,2.3-3.7-0.2c-0.7-1.4-2.3-1.8-3.5-3.6c1.2,2.2,1.9,3.7-1,3.6c-1,0-1.4,0.7-1.5,1.6
	c-0.1,1,0.3,1.9,1.3,2.1c2.5,0.5,4.6,2.4,7.5,1.9c3.2-0.5,4.6,1.8,5.6,5c3.2-4.7,6.4-8.8,10.1-12.9c2.3-2.6,5.3-4.7,5.8-8.5
	c0.2-1.3,1.9-1.5,2.7-2.5c2.3-4,5.4-7.6,8-11.5c1-1.5,1.9-3.4,4.1-3.6c0.7,0.8,2.6,0.9,1.7,2.7c-0.3,0.7-0.6,1.6,0.1,2.2
	c0.9,0.9,1.6-0.1,2.4-0.5c0.2-0.1,0.4-0.1,0.9-0.1c0.2,1.5-0.7,2.5-1.6,3.4c-0.7,0.7-1.3,0.8-2,0.1c-1.4-1.5-2.3-0.6-3.2,0.6
	c-2,2.8-4.5,5-7.2,7.1c-1.7,1.3-2.4,3.6-3.9,5.3c-2.4,2.8-2.7,6.5-4.9,9.5c-0.4,0.5-0.7,1.3,0,1.8c0.8,0.6,1.2-0.2,1.7-0.6
	c1.2-1.2,2.5-2.3,3.4-3.8c0.8-1.3,1.8-2.3,3.5-2.7c0.6,1.3,0.6,2.6,0,3.6c-1.2,2.2-1.7,4.7-3.2,6.8c-1.5,2.1-1.1,3.6,1.2,4.6
	c2.1,0.9,4.2,1.9,6.5,1.7c4.2-0.4,8.4,0.6,12.6,0.7c0.1,0,0.3,0,0.3,0c2.9,1.8,6.1,2.4,9.6,2.5c1.3,0,2.5,0.6,3.9,0.3
	c2.6-0.5,5.2,0.4,7.7,0.9c1.6,0.3,3.1,0.6,4.7,0.4c2.4-0.4,4.9,0.1,7,1.1c4.1,1.9,8.3,1.9,12.7,2.2c2.2,0.1,4.3,0.1,5.9,2
	c-1.2,1.4-2.8,1.3-4.4,1.3c-8.1-0.2-16.2-0.3-24.3-0.4c-12.3-0.1-24.4-1.3-36.6-2.2c-7.4-0.5-14.9-1.9-22.3-3.3
	c-0.6-0.4-1.6-0.7-1.9-1.4c-0.5-1.3-0.9-1.3-2.2-0.7c-2.3,1.1-4.4,1.1-6.3-1.3c-1.5-1.8-3.4-3.2-5.5-4.5c-4-2.4-7.6-5.4-10.4-8.8
	c-0.7-0.3-0.7-0.3-0.4,0c0.5,0.5,0.9,1.1,0.8,1.8c-0.1,1-0.8,1.3-1.7,1.2c-0.6,0-1.1-0.1-1.8,0.5c4.1,3.7,9.2,6.1,13.7,9.5
	c1,0.8,2.7,1,2.3,2.9c-3.3,0.3-5.8-1.7-8.6-2.8c-1-0.4-2-1-2.9-1.7c-1.1-0.8-2.2-1.1-2.9,0.1c-0.8,1.2,0.7,1.4,1.3,2
	c0.2,0.1,0.2,0.4,0.4,0.7c-0.8,0.7-1.5,0.1-2.1-0.2c-4.8-2.6-10.2-3-15.4-4.2c-7.1-1.6-14.5-1.7-21.4-3.7
	c-5.1-1.5-10.5-1.7-15.7-2.8c-4-0.9-8.4-1.7-12.5-1.3c-5.3,0.5-10.1-1.5-15.1-2.1c-2.8-0.3-5.6-0.6-8.4-0.9c-22-2.3-44-1.1-66.1-1.4
	c-7.1-0.7-11.5-6.2-16.7-10.1c-4.6-3.3-9.5-5.4-15.2-5.2c-7.2,0.3-14.4-1.1-21.5-1.6c-1.6-0.1-3.3-0.4-4.5-2
	C102.9,462.8,103.8,463,104.8,463.3z"/>
<path class="st44" d="M313.8,353.9c-0.4,1.1,0.6,2,0.5,3.1c-0.6,2.3-1.5,4.5,1,6.4c2.4,1.8,4.2,1.5,5.9-1.3c2-1.7,3.7-3.6,4.1-6.4
	c0.2-1.4,1.3-1.2,2.4-0.7c5.6,2.7,11.3,5.3,17,7.9c0.3,0.1,0.7,0.1,1,0.1c2.1,0.1,2.9,1.2,2.8,3.3c-0.1,2.6-0.2,5.1-0.5,7.7
	c-0.3,2.6,1.3,4.8,3.8,5.2c2.5,0.5,3.7-1,4.3-3.2c1.2-1.4,3.1-2.3,3.4-4.6c0.2-1.3,3.5-1.8,4.7-0.3c2.5,3,4.4,1.2,6.5-0.3
	c0.2-0.1,0.4-0.2,0.6-0.3c2.4-0.9,3.5,0.9,4.6,2.5c1.1,1.7,2.2,3.4,3.6,4.9c2,2.1,0.8,4.7,0.6,7.1c0,0.4,0,0.8,0,1.2
	c0.6,0.8-0.1,1.5-0.1,2.2c0,2.2,0.9,3.9,2.9,4.8c2,1,3.4-0.1,4.6-1.6c0.5-0.6-0.8-1.9,1.2-2c0.9,0,1.7-2.3,2.3-3.6
	c0.2-0.4-0.5-1.2,0.4-1.6c0.7-0.3,1.4-0.1,1.9,0.4c1.3,1.3,2.9,1.7,4.6,2.1c0.7,1.3,2.1,1.6,3.3,2.1c1.5,0.7,1.6,1.5,0.4,2.4
	c-3.2,2.4-5.2,5.7-7,9.1c-0.5,1-0.7,2.2-1.4,3.1c-1.3,1.5-0.9,2.8-0.1,4.2c-1.3,1-2.7,0.3-3.9-0.1c-7.7-3-15.8-5.3-23.6-8.2
	c-1.5-0.6-3-1.2-4.2-2.2c-8.5-6.5-18.6-9.6-28.7-12.8c-6.1-2-11.8-4.9-17.6-7.5c-4.1-1.9-8.5-3.2-12.9-4.8c-1.3-0.5-3-0.6-3.4-2.4
	c2.8-2.9,3.5-6.8,5-10.4c3.1-1,4.6-3.7,6.7-5.9c0.5-0.5,0.7-1.2,1.2-1.6c0.5-0.4,1.3-0.4,1.8,0.1
	C314.4,352.9,314.1,353.4,313.8,353.9z"/>
<path class="st45" d="M370.6,454.4c-0.9,2.4-3.4,3.7-4.5,6c-1.4,3-4.5,5.1-5.6,8.4c-0.2,0.5-1,0.9-1.5,1.3c-0.7,0.4-1.4,0.1-2-0.1
	c-7.3-2.4-14.5-5.3-21.4-8.7c-2.4-1.2-2.4-3.7,0-4.5c2-0.7,1.6-2,2.1-3.2c2.3-1.4,2.7-4,4.1-6c3.4-4.7,6.9-9.2,10.5-13.9
	c4.8-6.2,9.5-12.5,13.5-19.2c2-3.4,3.5-7.1,6.2-10.1c2.3-1.2,4.5-0.8,6.8,0.1c5.6,2.1,11,4.8,16.4,7.4c1.4,0.7,2.9,1.2,3.5,3
	c-1.6,0.6-2.2,2.5-4.4,2.6c-1.5,0.1-0.4,1.6,0.5,2.4c-1.2,1-2.7,1.7-2.9,3.5c-0.1,0.7-0.6,1.2-1.3,1.5c-1,0.4-1.3,1.1-1.2,2.1
	c0.1,1.6-2.2,2.7-1.1,4.6c0.1,0.2-0.5,0.3-0.8,0.4c-1.5,1-3.1,1.9-3.6,3.8c0,0.2-0.2,0.5-0.3,0.6c-2.8,1.8-3.5,5-5.2,7.5
	c-2.2,3.3-4.3,6.7-7.4,9.4C370.7,453.7,370.7,454.1,370.6,454.4z"/>
<path class="st42" d="M341.7,501.2c3.5,0,7,0.6,10.6,1.1c2.2,0.3,4.6-0.3,6.7,0.8c3.3,1.7,7,1.2,10.6,1.3c5,0.2,10,0.8,15,1.2
	c3.8,0.3,7.6,0.7,11.6,0.3c2.6-0.2,5.2-0.4,7.8,0.3c0.9,0.2,1.8,0.2,2.7,0.2c7.9,0,15.8,0,23.7,0c7.2-0.3,14.6-0.7,21.8-1.2
	c5.1-0.3,10.2-1.2,15.4-0.9c1.7,0.1,3.2-0.2,4.7-1.5c1.6-1.5,3.8-2.3,5.1-4.3c0.4-0.7,1.5-1,2.4-1.1c-1.3,1.7-2.6,3.4-3.9,5.2
	c-0.9,1.3-1.7,2.6-1.6,4.4c0.1,1.3-1,2-1.9,3c-2.4,2.5-5.3,2.7-8.4,2.6c-3.5-0.1-7,0.5-10.5,1.5c-1.2,0.4-2.4,0.5-3.7,0.5
	c-7.2,0-14.4-0.1-21.6,0c-2.4,0-4.7-0.8-7.1-0.8c-2.2-0.1-4.5-0.3-6.7,0.1c-1.1,0.2-2.3,0.1-3.3-0.4c-4-1.9-8.3-2.2-12.7-2.3
	c-6.1-0.1-12.3-0.4-18.4-0.7c-2.7-0.2-5.3-1-8-1.5c-5.9-1-12-0.6-17.9-1.5c-3.4-0.5-6.7-1.3-10.3-1.3c-1.9,0-2.4-1.1-2.2-3.3
	c0-0.5,0-0.9-0.4-1.2C340.9,501.2,341.1,501,341.7,501.2z"/>
<path class="st42" d="M563.6,472.3c1.8,1.6,4,1.5,6.2,1.2c1.4-0.2,3.3-1.3,3.6,0.8c0.3,1.7-1.9,1.6-3.1,1.9
	c-1.1,0.4-2.1,0.7-3.1,1.4c-1.4,0.9-3,1.6-4.7,2c-5.5,1.1-10.7,3.4-16,4.7c-4.8,1.2-9.5,3.1-14.5,3.7c-0.1,0-0.2,0-0.3,0
	c-4.4,1.9-9,2.7-13.8,3.4c-2.4,0.4-4.8,1.3-7.3,1.3c-1.1,0-2.1,0.2-2.9,0.9c-1.4,1.2-3.2,1.7-4.7,1.7c-5.2-0.1-9.1,3.2-13.8,4.5
	c-0.3,0.1-0.7,0.3-0.8,0.6c-1.2,4-6.5,4.6-7.6,8.7c-0.2,0.6-0.8,1.1-1.5,1.3c-1,0.3-2.2,0.5-2.8-0.4c-0.6-0.9-0.1-2,0.7-2.7
	c2.5-2.2,4.4-4.9,6.4-7.4c0.4-0.4,0.7-1,1.2-1.2c3.3-1.3,4.6-4.6,7.1-6.7c1.1-0.9,1.4-2.1,0.3-3.3c3.3-2.2,6.8-3.7,11-4.2
	c3.3-0.4,6.7-0.7,10.2-1.1c1.7-0.2,3-1.6,5.2-1.1c1.6,0.4,3.7-0.7,5.6-1.1c1.9-0.4,3.8-0.5,5.7-0.9s3.7-1,5.6-1.4
	C544.8,476.8,554.2,474.5,563.6,472.3z"/>
<path class="st46" d="M398.7,414.9c-2.8-1.3-5.8-2.3-8.4-4c-2.9-1.9-6-3-9.2-4.2c-0.5-0.2-1.1-0.4-1.6-0.7c-2.3-1.5-4.7-1.8-7.3-1
	c-5.7-1.3-10.7-4.5-16.2-6.4c-4.7-4.6-11.2-5.9-17-8.4c-2.4-1-4.8-1.9-7.5-2c-4.6-1.3-8.8-3.4-13.4-4.8c-0.8-0.3-1.5-0.7-2.3-1
	c-0.3-0.1-0.6-0.3-0.8-0.5c-5-3.6-10.9-5.5-16.7-7.3c-1.8-0.6-3.7-1.1-4.9-2.7c-1.2-2.5-0.6-3.7,2-3.8c1.8-0.1,3.3,0.4,4,2.2
	c4.6,1.7,9.1,3.4,13.8,5.1c5.9,2.3,11.4,5.9,17.6,7.6c6.7,1.9,13.2,4.6,19.6,7.1c3.6,1.4,7.1,3,10.2,5.6c3.2,2.8,7.3,4.1,11.5,5.3
	c5.8,1.7,11.5,3.7,17.1,6c1.4,0.6,3.1,0.3,4.3,1.3c3.7,1.3,6.7,3.8,10.2,6.4C401.4,415.6,400,414.1,398.7,414.9z"/>
<path class="st47" d="M402.2,385.9c-0.4-0.1-1.2-0.3-0.8-0.7c1.2-1.3,2.9-1.6,4.6-1.7c0.1,0,0.3,0.3,0.4,0.5
	c-1.2,0.7-1.6,1.3,0.1,1.7c1.2,0.3,1.7,1.5,2.6,2.1c0.8,0.6,1.6,1.2,2.5,1.7c1.9,0.9,3,2.3,2.9,4.5c-0.2,2.1-0.8,4.1-0.5,6.2
	c0.1,0.4,0,0.9-0.2,1.3c-0.2,0.5-0.6,1-1.3,0.8c-0.5-0.2-0.4-0.7-0.4-1.1c0.2-1.1,0.3-2.2,0.5-3.3c0.3-1.3,0.2-2.7,0.2-4
	c0-1.2-0.6-2.1-1.6-2.3c-3.3-0.7-5.6-2.7-7.6-5.2C403.5,385.8,402.8,385.8,402.2,385.9z"/>
<path class="st48" d="M424.1,416.2c-0.7-0.6-0.7-1.2-0.6-1.8c0.5-3.1-0.2-5.7-2.7-7.7c-0.4-0.4-0.6-0.6-0.4-1.1
	c0.3-0.5,0.7-0.3,1.1-0.2c3.4,0.6,4.1,1.4,4.1,5C425.6,413.9,425.6,413.9,424.1,416.2z"/>
<path class="st49" d="M450.3,435.2c4.2-1.8,8.5-3.2,13.1-4.2c0.6,0.8,0.4,1.5-0.3,2.1c-1.2,1-2.5,1.4-4.1,1.4
	c-1.7,0-3.5-0.5-5.1,1.1C452.8,436.5,451.6,434.6,450.3,435.2z"/>
<path class="st50" d="M428.4,414.6c1-0.5,1.2-1.5,1.5-2.4c2.3,0.7,2.3,3.1,3.7,4.3c-1.8,2.5-3.1,2.5-4.7,0
	C428.7,416,428.6,415.3,428.4,414.6z"/>
<path class="st51" d="M418.2,408.2c-0.2,1.3-0.6,2.1-1.7,2.3c-1,0.2-3.1-1.4-3.3-2.5c-0.1-0.7,1.1-2.7,1.9-2.9
	c0.3-0.1,0.8-0.1,1,0.1C416.9,406.2,417.6,407.3,418.2,408.2z"/>
<path class="st42" d="M483.2,494.9c-1.1,0.9-2.3,1.8-3.4,2.8C480,495.6,481.2,494.7,483.2,494.9z"/>
<path class="st42" d="M569,470.3c-0.6,1.2-1.6,1.4-2.7,1.3C567,470.8,567.9,470.3,569,470.3z"/>
<path class="st12" d="M421.4,398.1c0.1,0.2,0.2,0.4,0.3,0.6c0.1,0.3,0.3,0.7,0,0.9c-0.5,0.2-0.8-0.2-0.8-0.7
	C420.9,398.6,421.2,398.3,421.4,398.1L421.4,398.1z"/>
<path class="st42" d="M487.3,491.5c-0.5,0.8-1.3,1-2.1,1.4C485.4,491.6,486.4,491.5,487.3,491.5z"/>
<path class="st42" d="M580.7,464.7c0,0.9-0.5,1.3-1.4,1.4C579.7,465.5,580.1,465,580.7,464.7z"/>
<path class="st42" d="M571.9,469.6c-0.5,0.7-1.3,0.6-2,0.6C570.4,469.5,571.1,469.5,571.9,469.6z"/>
<path class="st52" d="M111.7,493.5c-2.2,0.2-4.4,0-6.4-1.1c0-1.5,1.8,0.3,1.9-1.3c-1.8-0.4-3.7-0.5-5.5,0c-1.2,0.3-2.4,0.4-3.6,0.4
	c-0.2-0.2-0.3-0.3-0.2-0.4c0.1-0.1,0.2-0.2,0.3-0.2c0.6-0.8,0.2-1.2-0.6-1.3c-3.7-0.5-7.3-1.1-11.1-1.4c-4.5-0.3-8.2-1.8-10.3-6.2
	c1.5-1.3,3-0.6,4.5,0c4.8,2,10.1,3,15.1,4.6c3.5,1.1,7.4,0.4,11.3,0.8c4,0.4,7.9,0.6,11.9,1.5c4.3,1,8.8,0.9,13.3,1
	c7.5,0.3,14.9,2,22.3,2.7c8.3,0.8,16.7,2.7,25.1,1.3c0.6-0.1,1.1,0.1,1.6,0.4c8-0.8,16.1,0.7,24.2-0.2c0.3,0,0.7,0.1,1,0.1
	c3.1,0.1,6.2,0.9,9.5,0.2c3.3-0.7,6.1,1.6,9.2,1.7c0.6,0,1.1,0.4,1.7,0.3c5.5-1,10.6,1,15.6,2.5c0.9,0.3,1.8,0.4,2.7,0.1
	c1.1-0.4,2-0.2,2.9,0.3c0.9,0.5,1.9,0.6,3,0.3c2.1-0.6,4.2,0,5.9,0.7c1.8,0.7,3.5,0.9,5.3,0.9c3.7,0.1,7.4-0.3,11.1,1.3
	c2.9,1.3,6.4,0.2,9.2,1.9c0.1,0.1,0.2,0.1,0.3,0c5-1.8,9.4,2.3,14.4,1.8c1.1-0.1,2.4,0.5,3.6,0c0.9-0.4,1.7,0.2,2.6,0.5
	c4.2,1.6,8.4,2.7,13,2.7c1,0,2,0,3,0.5c1.5,0.8,3,1.1,4.6,0.4c1.1-0.4,2,0.2,2.9,0.6c0.9,0.4,1.9,1.1,2.8,1.1
	c6.8-0.6,13.3,2.3,20,2.2c1.9,0,3.7,1.1,5.7,0.9c-3.4,2.5-7.1-0.6-11.1,0.9c1.3,1.2,2.7,1.3,3.9,1.4c2.4,0.2,4.8,0.1,7.2,0.1
	c0.6,0,1.4,0,1.6-0.3c1.5-2,3.6-1.1,5.4-1c3.3,0.1,6.5-0.2,9.9,0.5c-3,1.5-6.3,0.3-9.5,1.1c1.8,1.4,5,1.6,13.4,1
	c0.9-1-1-1.4-0.6-2.3c0.2-0.1,0.5-0.3,0.6-0.2c2.5,0.9,5,1.3,7.6,0.1c1.2-0.6,2.7-0.3,3.9,1.2c-2.5,1.6-5.5,0.2-8.2,1.8
	c2.7,0.5,4.9,1.3,7.3,0.5c1-0.3,2-0.1,3,0.4c1.1,0.6,2.1,0.4,2.5-0.7c0.6-1.5,1.4-1.8,2.8-1.3c1,0.4,2.3-0.2,3.3,0.5
	c0,0.6-0.4,0.4-0.7,0.5c-0.6,0.1-1.2,0.3-1.1,1c0.1,0.5,0.5,0.7,1,0.8c2.2,0.1,4.3,0.3,6.4-0.2c1.3-0.3,2.2-0.6,3,1
	c0.7,1.2,2,0.7,2.4-0.9c0.2-1,0.5-1.9,1.6-1.9c2.5,0.1,4.9-0.6,7.4-0.7c1,0,1.1,0.5,0.8,1.3c-0.5,0.8-1.3,0.7-1.9,0.7
	c1.8,0.6,4.1-0.8,6.1,0.8c-1.6,1.2-3.5,0.5-5.3,0.6c-1.3,0.1-2.7-0.1-3.8,1.2c1.2,1.6,3.3,1.5,4.7,2.5c3.2,2.1,6.6,2.6,10.4,1.9
	c1.1-0.2,2,0.1,2.8,0.9c1.3,1.3,3.3,1.5,4.5,2.9c0.4,0.5,1.2,0.8,1.9,0.3c1.8-1.4,2.9-0.2,4.2,1.1c1.3-1.4,2.1-3.2,4.3-2.5
	c1.1,0.4,2.2,0.5,2,2.2c-0.3,1.6,1,2,2.2,1.8c4-0.6,8.3-0.4,12.1-1.9c2.7-1.1,5.5-3,6-6.6c0.1-0.6,0.3-1.2,1-1.2
	c0.6,0,0.9,0.6,1,1.2c0.1,0.9,0.4,1.8,0.8,2.6c1.5,2.9,1.5,3,4.9,1.9c1.5-0.5,1,0.6,1.1,1.2c-1.5,0.9-3,1.5-4.7,2
	c-9.1,2.5-18,5.5-27.3,7.2c-3.2,0.6-6.4,1.3-9.9,1.1c-0.8,0.6-1.9-0.1-2.8,0.6c-1.6,0-3.1,0.1-4.7,0.1c-5.8-0.3-11.7,0.2-17.5,0.5
	c-4.7,0.3-9.6,0.3-14.4,0c-13.3-0.8-26.5-0.4-39.8-0.7c-3.5-0.1-7.1,0.2-10.5-0.1c-8.7-0.9-17.6,0.2-26.3-0.9
	c-4.6-0.6-9.4,0-14.1-0.2c-14.2-0.6-28.4-0.7-42.5-0.7c-2.8,0-5.6-1.1-8.5-0.5c-2.3,0.5-4.5,0.7-6.8,0.5
	c-16.7-1.3-33.4-0.3-50.1-0.7c-1.1,0-2.3-0.1-3.4-0.4c-1.7-0.4-3.4-0.5-5.1-0.1c-2.6,0.6-5.1,0.3-7.8,0.1c-3.4-0.4-6.8-0.3-10.3-0.2
	c-8,0.1-16-0.6-23.9-0.9c-6.9-0.3-13.9-0.6-20.8-1.8c-1.8-0.3-3.6-0.1-5.5-0.1c-1.1,0-2.3,0.3-3.3-0.6c1.6,0,3.2,0,4.8-0.1
	c1,0,1.9-0.4,2.2-1.4c0.4-1.1-0.8-1.2-1.3-1.7c-1.5-1.4-3-2.8-5.3-2.5c-1,0.1-1.7-0.7-2.2-1.5c-1-1.7-2-1.5-3.3-0.4
	c-0.6,0.5-1.1,1.3-2,0.6c-0.8-0.6-1.8-1.1-2-2.2c-0.3-1.1,0.7-1.3,1.3-1.7c0.7-0.4,1.6-0.7,1.4-1.7c-0.2-1.2-1.2-1.2-2.1-1.2
	c-0.6,0-1.1,0-1.7-0.1c-4.7-0.7-6.9-6.1-3.9-10c0.6-0.8,1.5-1.4,2.3-2.2c-0.1-1-2.8-0.7-1.4-2.8c0.7-1.1-0.9-2.8-2.6-2.7
	c-2.3,0.1-3.4-1-4.7-2.6c-1.9-2.1-4.2-3.8-6.4-5.6c-0.7-0.6-1.7-1-1.3-2.1c0.3-1,1.3-0.7,2.1-0.7c4.3-0.2,8.6,0.2,13,1
	c2.6,0.5,5.4,1,8-0.3C113.1,492.5,112.4,493,111.7,493.5z"/>
<path class="st53" d="M181.1,494.2c-3.7,1.2-7.5,0.9-11.2,0.5c-2.7-0.3-5.4-0.6-8.1-0.4c-3.6,0.3-7.2-0.9-10.9-0.3
	c-0.2,0-0.5,0-0.6-0.2c-2.7-2.1-6.1-2-9.1-2.1c-4.9-0.2-9.8-0.9-14.7-0.9c-4,0-7.9-0.5-11.8-1.6c-0.3-0.1-0.7-0.3-1-0.3
	c-5.6,0.3-11.1-1.4-16.7-0.5c-1,0.2-1.8,0.1-2.4-0.7c-0.7-0.7-1.5-1-2.4-1.2c-4.9-0.8-9.7-2.6-14.3-4.3c-0.5-0.2-1.1-0.2-1.7-0.2
	c-1.7-0.8-4.2-1.8-3.8-3.7c0.4-2,3.2-1.3,4.9-1.7c2.1-0.5,4.2,0.4,6.3,0.6c4.6,1.1,9.4,1.3,14.1,2c4.3,0.7,8.7,0.4,13.2,1.3
	c1.8,0.4,3.6,0.1,5.1-1.3c1-0.9,2.3-0.9,3.5-0.7c7.8,1.4,15.9,0.7,23.7,1.4c3,0.2,6.3-0.2,8.4,2.8c-0.1,0.3-0.1,0.7-0.3,1
	c-0.4,1-2.2,1.2-1.5,2.7c0.6,1.3,1.6,2.2,3,2.7c2.8,0.9,5.6,1.7,8.4,2.5c0.8,0.2,1.6,0.1,2.3,0.6c3.5,2.3,7.2,2,11.1,1.1
	c1.7-0.4,3.4-0.2,5.1-0.2C180.4,492.9,180.9,493.5,181.1,494.2z"/>
<path class="st54" d="M151.5,482.6c-3.1-0.5-6-2.3-9.5-1.5c-0.8,0.2-1.8-0.1-2.7-0.2c-5.3-0.4-10.7-0.6-16-0.4
	c-0.8,0-1.6-0.1-2.3-0.4c-1.7-0.7-3.4-0.9-5.2-0.9c-1.8-1.5-3.5-3.2-6-3.6c-1.6-0.2-2.3-1.8-2.7-3.2c-0.3-1.3-0.8-1.8-2.1-2.2
	c-1.2-0.4-2.3-1.3-3.4-2.2c-3.3-2.5-7.4-2.4-11.2-3.8c-3.9-1.5-8.1-2.1-12.4-2.8c-1.4-0.2-2.9-0.6-4.4-1.7c2.1-0.6,3.7,0.2,5.3,0.5
	c6.8,1.1,13.9,1.1,20.6,2.5c1.7,0.4,3.7-0.5,5.3,0.8c-0.6,0.2-1.4-0.2-2,0.5c4,1.2,8.1,0.9,12.1,1.6c5.4,1,11,0.3,16.4,0.8
	c4.2,0.5,8.3,2,11.9,4.8c3.9,3,7.5,6.6,11.9,9.1c0.9,0.5,1.8,1,2.8,1.1c0.9,0.1,1.5,0.6,1.9,1.3C157,482.6,154.2,482.6,151.5,482.6z
	"/>
<path class="st55" d="M341.7,501.2c-0.2,0.2-0.4,0.5-0.7,0.7c-2.2-0.5-4.4,0.4-6.8-0.1c-1.5-0.3-3.3-0.2-4.9-0.6
	c-2.5-1.7-4.9-3.6-7.5-5.1c-3.6-2.1-6.9-4.7-10.8-7.3c1.7-1,2.7-3,4.9-1.2c0.5-0.9,0.1-1.4-0.6-1.6c-0.7-0.2-1.4-0.1-1.6-1
	c-0.2-0.6-0.3-1.2,0.1-1.6c0.5-0.6,1-0.1,1.5,0.2c2.5,1.3,3.8,3.8,6,5.4c2.5,1.8,4.6,3.9,7.4,5.3c1.6,0.8,2.4,3,4.6,3.1
	c0.1,0,0.4,0.3,0.4,0.5c0.1,0.8-0.4,1.9,1.1,2c1.5,0.1,3.1,0,4.1-1.1c0.7-0.8,1.3-1,2.5-1.2C341.2,498.9,340.9,500.1,341.7,501.2z"
	/>
<path class="st42" d="M445.5,518.4c0,0.2,0,0.4,0,0.7l0,0c-0.2,0.1-0.4,0.3-0.6,0.4c-0.9,0.5,0.2,1.9-1,2.2
	c-1.2,0.3-1.4-0.5-1.8-1.5c-0.2-0.6-1-0.2-1.5-0.1c-2,0.3-4,0.7-6,0.9c-0.8,0.1-1.6,0.2-2.4-0.5c0.6-1.3,2.4-0.4,3.1-1.5
	c2.2,0,4.3-0.7,6.5-1.1C443,517.6,444.4,517.3,445.5,518.4z"/>
<path class="st42" d="M424.2,521.1c-3.2-0.2-6.5,0.5-10.3-0.5c2.2-1.6,4.2-1.1,6.1-1c1.8,0.3,3.3-0.6,5-1c1.3-0.3,2.7-1,3.3,1
	C427,520.4,425.7,521.2,424.2,521.1z"/>
<path class="st42" d="M454.4,519.7c-1.6,0-3.2,0-4.8,0c-0.4,0-0.9-0.1-0.7-0.8c3.4-0.8,6.9-1.6,10.4-2.4c0.3-0.1,0.6-0.2,1-0.2
	c0.6,0,1.2-0.1,1.3,0.6c0.1,0.5-0.2,0.8-0.6,1.1c-0.6,0.3-1.3,0.4-1.7,0.9c-0.6,0.5-1.3,0.5-2,0.1
	C456.2,519.1,455.1,518.8,454.4,519.7z"/>
<path class="st42" d="M476.4,514c1.3,0.5,1.3,1.2,0.1,1.7c-1.8,0.8-3.9,0.9-5.6,1.9c-1.9,0.1-3.6,1-5.5,0.7l0,0
	c1.1-1.9,2.9-2.8,5.1-2.8c0.9,0,1.8,0.1,2.5-0.7c0.4-0.4,0.8-0.4,1.3-0.1C474.9,514.5,475.7,514.3,476.4,514z"/>
<path class="st42" d="M545,494.2c1,0,1.9-0.8,3-0.6c0.3,0.1,0.6,0.2,0.7,0.6c0.1,0.4-0.1,0.7-0.4,0.9c-0.4,0.2-0.8,0.4-1.2,0.5
	c-2.3,0.6-4.6,1.2-7.5,2c1.4-2,2.9-2.6,4.7-2.8C544.5,494.6,544.8,494.4,545,494.2z"/>
<path class="st52" d="M465.3,518.4c-0.8,0.9-1.7,0.7-2.8,0.4C463.3,517.1,464.4,517.9,465.3,518.4
	C465.4,518.4,465.3,518.4,465.3,518.4z"/>
<path class="st52" d="M429,519.7c0.5-0.1,1-0.5,1.5,0c0.4,0.4,0.1,0.8-0.3,1.1c-1,0.5-1.6,0.2-1.8-1
	C428.5,519.8,428.8,519.7,429,519.7z"/>
<path class="st52" d="M457.2,519.1c0.7,0,1.3,0,2-0.1C458.9,519.9,458.4,519.9,457.2,519.1z"/>
<path class="st2" d="M474.2,514.8c-0.4,0-0.8,0.1-1.3,0.1c0.2-0.4,0.4-0.9,0.9-0.9C474.2,513.9,474.2,514.4,474.2,514.8z"/>
<path class="st42" d="M522.2,501.1c0.5-1.7,1.7-2.4,2.8-2.4c3.3-0.2,6.4-1.4,9.7-2.1c0.6-0.1,1.5-0.4,1.7,0.5
	c0.3,0.9-0.5,1.2-1.2,1.4C531,499.8,526.8,500.8,522.2,501.1z"/>
<path class="st42" d="M520.5,500c-1.3,1.4-3,2.1-4.8,2.7c-1.9,0.6-4,0.7-5.8,1.8c-0.5,0.3-1.4,0.1-1.6-0.7c-0.2-0.7,0.3-1.1,0.8-1.3
	c0.5-0.3,1-0.5,1.6-0.6c2.6-0.6,5.2-1.4,7.7-2.4C519.1,499.1,519.9,499,520.5,500z"/>
<path class="st42" d="M503.3,507.1c-1.7-0.7-3.3-0.3-4.9,0.8c-0.6,0.5-1.4,0.7-2.1,1c-0.5,0.2-1.1,0.6-1.5,0
	c-0.6-0.7,0.2-1.2,0.6-1.7c0.1-0.2,0.3-0.3,0.5-0.4c2-1.5,4.4-2.3,6.5-3.5c0.5-0.3,1.2-0.3,1.6,0.1c0.5,0.6,0,1-0.5,1.3
	C502.4,505.5,503.8,506.2,503.3,507.1z"/>
<path class="st42" d="M486,510.1c0.9,0,1.7-0.3,2.5-0.8c1.4-0.8,1.5-0.7,3.8,0.4c-3.2,2.3-6.8,3.6-10.8,5.2
	C482.2,512,485.1,512,486,510.1L486,510.1z"/>
<path class="st42" d="M551.8,494.4c3.1-2.6,6.2-3.6,10.1-3.5C559.9,492.8,555.1,494.6,551.8,494.4z"/>
<path class="st52" d="M445.5,519c0.2,0,0.5,0,0.7,0c0.4,0.1,1,0.1,1,0.7c0,0.2-0.2,0.4-0.4,0.5c-0.5,0.2-0.9-0.1-1.1-0.5
	C445.6,519.5,445.5,519.3,445.5,519L445.5,519z"/>
<path class="st1" d="M451.3,520.5c0.2,0.1,0.5,0.2,0.5,0.3c0.1,0.4-0.2,0.6-0.5,0.6s-0.6-0.3-0.5-0.6
	C450.8,520.6,451.1,520.6,451.3,520.5z"/>
<path class="st56" d="M501.1,544.3c-0.5,0-0.9,0-1.4,0c0.1-0.2,0.2-0.4,0.4-0.6c0.8-1-0.8-2.8,0.9-3.3c1.8-0.5,3.6-1.2,5.6-0.9
	c1,0.1,1.3,0.7,1.3,1.6c0,1-0.2,1.8-1.4,1.8c-1.1,0-2.2,0.1-3.4,0.1C502.5,543.5,501.8,543.9,501.1,544.3z"/>
<path class="st57" d="M494.2,545.2c-1.1,0.8-2.4,0.7-3.6,0.5c-2.5-0.6-4.9,0-7.3,0.6c0.2-1.1-0.4-2.8,1.3-3.1
	c1.9-0.4,3.9-1.4,5.9-0.6c0.2,0.1,0.4,0.3,0.4,0.5C490.7,545.8,492.9,544.8,494.2,545.2z"/>
<path class="st58" d="M536.5,536.9c-0.9-0.3-2.6,0.7-2.9-1.1c-0.4-1.9,1.5-1.6,2.5-2.1c0.5-0.3,1.1-0.2,1.6-0.4
	c1.1-0.2,2.3-0.9,2.6,1c0.2,1.6-0.4,2.4-2.3,2.6C537.6,536.9,537.1,536.9,536.5,536.9z"/>
<path class="st59" d="M473.7,547.2c-2.4-0.1-4.7,0-7,0.5c-0.5-1.7-0.2-2.8,1.9-2.7c0.8,0,1.5-0.3,2.3-0.5
	C473.1,544.2,473.5,544.5,473.7,547.2z"/>
<path class="st4" d="M434.4,542.4c0.8-0.9,1.8-0.6,2.8-0.6C436.4,542.6,435.4,542.4,434.4,542.4z"/>
<path class="st60" d="M375.7,550.4c-2.6,0-4.7,0-6.8,0c-0.7,0-1.4,0-1.6-0.9c-0.1-0.6,0.2-1.1,0.6-1.5c1.2-1.3,6.5-1,7.4,0.5
	C375.5,548.9,375.5,549.6,375.7,550.4z"/>
<path class="st61" d="M437.3,550.6c-0.5,0-0.9,0-1.4,0c-1.2,0-2.4-0.1-2.5-1.6c-0.1-1.5,1.3-1.5,2.1-1.6c1.3-0.3,2.7-0.2,4.1-0.2
	c1.1,0,1.6,0.6,1.6,1.7s-0.4,1.7-1.6,1.7C438.9,550.5,438.1,550.5,437.3,550.6C437.3,550.5,437.3,550.5,437.3,550.6z"/>
<path class="st62" d="M419.9,550.5c-0.8,0-1.6,0-2.4,0s-1.3-0.3-1.3-1.1c0-0.8,0.2-1.4,1-1.5c1.9-0.1,3.8-0.1,5.7,0
	c0.8,0,1,0.7,1,1.5c0,0.6-0.4,1.1-1,1.1C422,550.5,420.9,550.5,419.9,550.5L419.9,550.5z"/>
<path class="st63" d="M404.1,550.4c-0.9,0-1.8,0-2.7,0c-0.6,0-1-0.4-1.1-1.1c0-0.6,0.2-1.2,0.8-1.3c2-0.2,4-0.4,6-0.1
	c0.5,0.1,0.7,0.5,0.7,1c0,0.6-0.2,1.2-0.8,1.3c-1,0.2-2,0.2-3,0.2C404.1,550.4,404.1,550.4,404.1,550.4z"/>
<path class="st64" d="M387.4,550.4c-0.8,0-1.6,0-2.4,0c-0.7,0-1.3-0.3-1.3-1.2c0-0.8,0.3-1.3,1.2-1.3c1.7,0,3.4-0.1,5.1,0
	c0.7,0,1.3,0.3,1.3,1.2c0,1.1-0.6,1.3-1.5,1.4C389,550.4,388.2,550.4,387.4,550.4L387.4,550.4z"/>
<path class="st52" d="M103.4,534.8c2.5-1,5-1,7.6,0C108.5,534.8,105.9,534.8,103.4,534.8z"/>
<path class="st18" d="M115,537.2c0.2-0.1,0.4-0.2,0.6-0.2c0.3,0,0.3,0.2,0.1,0.4c-0.1,0.1-0.2,0.1-0.3,0.1
	C115.3,537.5,115.1,537.3,115,537.2z"/>
<path class="st15" d="M216.7,349.3c1.6-2.2,3.9-3.3,6.2-4.6c3-1.7,5.7-4.1,8.8-5.7c5.6-2.9,10.8-6.8,16.6-9.4
	c0.3-0.1,0.4-0.5,0.6-0.8c4.1-3.4,9.2-3.2,14.1-3.9c2.6-0.4,5.2,0.4,7.7,1.1c1.3,0.5,2.1,1.4,2.5,2.6c0,0.2,0.1,0.5-0.1,0.7
	c-5.4,5-9.2,11.5-15.4,15.9c-3.7,2.7-6.8,2.3-10.3,0c-2-1.4-4.1-2.6-5.5-3.2c4.1,3.5,10.8,4.5,15.8,8.4c5.8-0.8,8.5,5,13.3,6.7
	c2.3,0.8,5,2.3,6.9,4.4c0.7,0.7,1.5,1.4,2.2,2.1c2.9,2.8,5.8,5.5,10.4,5c0.7,1.1,0.6,2.3,0.4,3.5c-0.8,2.7-1.4,5.6-3.2,7.8
	c-1.7,2,1.4,5.7-1.6,6.2c-2.6,0.4-4.2,1.9-6.2,2.9c-1.3,0.6-2.6,1-4,0.5c-1.8-0.7-2.8-2.6-4.5-3.1c0.7,0.5,2.5,0.7,1.8,2.2
	c-0.7,1.6-2.4,1.3-3.6,0.5c-6.8-4.8-15-7.2-21.8-12.1c-1.3-0.9-2.6-1.8-4.1-2.5c-0.8-0.4-2.1-0.9-2.1-1.6c0.2-2.8-2.1-2.6-3.6-3.3
	c-3.5-1.7-6.8-3.7-10.2-5.6c-4.2-2.4-5.1-5.8-3.3-10.6c0.7-1.8,1.7-3.4,2.5-4.8c-0.2,1.4-2.8,0.6-2.8,2.6c0.1,0.3,0.2,0.6,0.2,0.9
	c0.2,1.4-0.5,2.5-1.2,3.5c-3,1.3-5.9-0.2-6.5-3.5C216.5,351.4,216.8,350.3,216.7,349.3z"/>
<path class="st65" d="M271.1,326.5c-0.4,0.3-0.8,0.3-1.3,0.2c-6.2-1.8-12.2-0.1-18.1,1.4c-0.9,0.2-1.8,0.4-2.6,0.6
	c-2.1-0.3-4.1,0.3-5.9,1.2c-3.8,1.9-8,3.1-11.6,5.7c-0.7,0.5-1.6,0.8-2.4,1.2c-0.1-3.2,0.8-6.3,1.9-9.2c3.1-7.9,6.2-15.9,10-23.5
	c1.6-3.3,1.7-3.2,5.2-2.1c2,0.7,4.1,1.4,6.1,2c7.8,4.3,15.7,8.6,23.5,13c0.7,0.4,1.5,0.5,1.9,1.3c-0.8,0.5-1.5,1.1-2,2
	C274.8,322.8,273.5,325,271.1,326.5z"/>
<path class="st66" d="M216.7,349.3c0.9,0.7,0.7,1.8,0.9,2.8c0.3,1.7,1.3,2.7,2.8,3.5c1.2,0.6,1.9,0.2,2.5-0.7
	c2.3,0.5,1.1,2.2,1.2,3.4c-0.2,0.4-0.4,0.9-0.9,0.7c-2.3-0.7-3.6-0.2-3.4,2.6c0,0.6-0.3,1.1-1,0.7c-0.4-0.5-0.9-0.8-1.5-0.5
	c-2.4,1.2-5.1,1.7-7.3,3.3c-0.3,1.7-1.8,2.2-3.1,2.8c-0.7,0.2-1.5,0.4-2.1,0.8c-1.8,1-3.7,1.7-5.5,2.5c-0.9,0.3-1.9,0.3-2.7,0.8
	c-0.6,0.3-1.2,0.5-1.9,0.7c-2.4,0.5-4.6,1.6-7,2.3c-7.3,2.1-14.8,3.8-22.4,4.7c-4.7,0.6-9.4-0.3-14-0.7c-0.8-0.1-1.5-0.4-2.1-1
	c-0.8-1.6,0.2-2,1.5-2.5c1.5-0.7,3,0.5,4.5-0.2c0.2,0,0.4,0,0.6,0.1c7.4-0.9,15-0.1,22.4-3c3.7-1.5,8-2.1,12.1-3.4
	c7-2.3,14.2-4.3,20.9-7.2c1.7-0.7,2.4-1.9,2.7-3.6c0.3-1.9,0.3-3.8,1.5-5.5C215.7,351.6,216.2,350.4,216.7,349.3z"/>
<path class="st67" d="M215.2,352.7c0.4,2.5-1,4.8-0.9,7.3c0,1.1-1.2,1.6-2.2,2.1c-5.3,2.9-11.1,4.6-16.8,6.3
	c-3.4,1.1-7,1.8-10.2,3.6c-1.7,1-3.9-0.1-5.4,1.5c-0.3-1.2-0.8-1.2-1.8-0.4c-1.4,1.2-2.9,2.7-5.1,1.3c-0.1-0.1-0.5,0-0.6,0.2
	c-2.5,2-5.5,0.8-8.1,1.7c-1.5,0.5-2.2-1.5-3.6-0.5c-1.1,0.8-2.3,0.7-3.5,0.7c-0.9,0-1.2-0.3-1.4-1.1c1.7-1.1,3.7-1.7,5.6-2
	c1.6-0.3,3.4,0,5,0.2c2.1,0.3,3.4,0.2,5.2-1c0.3-0.2,0.6-0.6,0.8-0.3c0.8,1.8,2.1,0.3,2.4,0c2-1.6,4.2-2.2,6.7-2.1
	c0.9,0,2-0.2,2-1.3c0.1-1.8,1.5-0.8,2.3-1.1l0.2,0.2l-0.3-0.2c0.8-0.9,2.1-1,2.8-0.6c1.8,1,2.3-1,3.6-1.3c-0.3-2.3,1.3-1.6,2.4-1.5
	c1.3,0.1,2.4-0.7,3.6-0.9c2.3-0.4,4.3-2.3,6.9-1.2c1.1,0.4,0.7-2.3,2.4-1.5c1.2-2.4,2.4-0.8,3.6,0c1.2-1.5,2.8-2.8,1.4-4.9
	c-0.3-0.5-0.1-0.8,0.3-1.1C213.7,354.1,214.4,353.4,215.2,352.7z"/>
<path class="st67" d="M154.9,375.4c-1.5,1-3.2,0.9-4.9,1.1c-0.6,0.1-1,0.4-1.2,0.9c-1.1,1.3-2.5,1.1-3.8,0.7
	c-8-2.2-15.9-4.8-22.7-10c-1-0.7-2.6-1.3-1.7-3.1c0.5-0.2,1-0.5,1.4-0.7c2-0.5,3.5-0.4,4.8,1.7c1.5,2.5,4.8,2.8,7.1,4.4
	c0.9,0.6,1.8,1.3,3,1.5c0.4,0,1.2,0.5,1.2,0.4c1.5-2.3,2.7-0.1,4,0.2c2.1,0.5,4.1,1.3,6.3,1.4S153,374.3,154.9,375.4z"/>
<path class="st27" d="M119.9,322.5c-0.4-0.3-0.8-0.6-1.2-1c-0.7-0.7-0.4-1,0.5-1.2C119.5,321,119.9,321.7,119.9,322.5z"/>
<path class="st53" d="M97.9,490.8c0,0.2,0,0.4,0,0.6c-3.2,0.3-6.2-0.3-9.8-1C91.8,489.6,94.8,490.6,97.9,490.8z"/>
<path class="st53" d="M111.7,493.5c0.4-1.7,1.5-1.6,2.5-0.9c0.8,0.6,0,0.8-0.6,0.9C113,493.6,112.4,493.5,111.7,493.5z"/>
<path class="st68" d="M223.6,358.9c-0.1-1.4,0.6-2.8-0.6-4c0.3-0.9,1.6-1.6,0.7-2.8l0,0c-0.4,0-1.2-0.2-1-0.6
	c0.3-0.9,0.8-2.3,1.7-2.2c1.5,0.1,1.9-0.7,2.4-1.8c0.4-0.8,1-1.5,2-1.6c0.6,0.8,0.3,1.5-0.1,2.2c-0.8,1.5-1.7,3-2.5,4.4
	c-2.9,5.1-1.7,9.2,3.5,11.8c4.7,2.2,9,5.2,14,7c-0.4,1.2-1.3,0.2-1.7,0.7c-0.2,0.4,0,0.7,0.3,0.9c6.2,3.2,11.8,7.7,18.4,10.2
	c3.5,1.3,6.1,3.8,9.4,5.4c0.9,0.5,1.7,1.1,2.9,0.1c-0.9-1.6-3-1.5-4.3-3.3c3.1,0.6,5.5,1.6,7.3,3.8c0.6,2-0.5,3.5-1.5,5
	c-2.1,3.1-4.1,6.2-7.7,7.8c-1.1,0.1-1.8-0.5-2.5-1.2c-0.2-0.2-0.4-0.4-0.5-0.7c-0.2-0.3-0.4-0.6-0.6-0.9c-0.3-0.1-0.6-0.1-1-0.1
	c-0.2,0-0.5,0-0.7,0c-0.7-0.1-1.3-0.3-1.9-0.6c-0.2-0.2-0.5-0.4-0.6-0.6c-0.4-0.5-0.6-1-0.8-1.6c-2.3-1.5-4.5-3.4-7.7-2.9
	c-1.1,0.2-2.4-0.4-3.6-0.8c-1.6-0.6-1.6-1.6-0.5-2.8c-1.5,0.4-3.1,0.3-4.5,1.3c-1,0.7-2.4-0.1-2.6-0.8c-0.5-2.2-2.9-2.6-3.7-4.3
	l-0.2-0.1l-0.1,0.3c-1.6,1.6-3.1,1.3-4.3-0.2c-1.2-1.5-2.3-2.5-4.3-1.4c-0.8,0.4-1.5,0-2.2-0.4c-0.3-0.2-0.8-0.5-0.8-0.4
	c0.3,2.9-2.5,2-3.7,3.1c-2.6,2.2-5.8,3.2-8.9,4.2c-1.1,0.3-1.8,0.9-2.5,1.7s-1.6,1.3-2.7,1.2c-1.3-0.1-2.7-0.8-2.7,1.5
	c0,0.3-0.4,0.5-0.7,0.7c-1.3,0.9-7.5,0.3-8.8-0.8c0-3.4,3-4.1,5-5.7c3.2-3.1,6.3-6.4,10.1-9.1c0.5-0.4,0.7-1.1,1.1-1.7
	c3.5-2.3,6.3-5.5,8.9-8.7c0.2-1.8,1.5-2.7,2.8-3.6c2.3-1.4,3.9-3,2.3-6C223,360,223.2,359.4,223.6,358.9z"/>
<path class="st69" d="M198.1,389.7c0.3,0.2,1.5,0.4,0.4,0.8c-2.4,1-3.8,2.8-5.1,4.8c-1.3,2-3.3,2.8-5.5,3.5
	c-4.8,1.6-9.7,3.3-14.2,5.7c-4.4,2.3-9.1,2.9-14.2,3.1c-6.1,0.2-12.3,0-18.3-0.7c-6-0.6-12-1.8-17.8-3.2c-0.7-0.2-1.6-0.3-2.1-0.9
	c3.5-0.3,6.7,1.2,10.1,1.6c7.4,0.9,14.9,1.7,22.3,0.7c2.8-0.4,5.7-0.1,8.4-1c2.1-0.7,4.3-1.6,6.3-2.4c4-1.6,8.2-2.6,12.3-3.9
	c5-1.6,9.4-4.1,13.6-7C195.4,390.1,196.5,389.2,198.1,389.7z"/>
<path class="st70" d="M120.6,365c0.7,1.8,2.5,2.5,3.9,3.4c6.6,4.5,14.3,6.8,21.9,8.9c0.7,0.2,1.6,0,2.4-0.1c0.1,0.1,0.2,0.2,0.3,0.2
	c5.2,0.9,10.6,1.5,15.9,1c7.8-0.6,15.3-3.1,23-4.6c2.4-0.3,4.6-1.3,6.7-2.2c0.3-0.5,0.9-0.5,1.4-0.5c0.8-0.4,2.1,0.4,2.7-0.9
	c1.6-1.4,3.8-1.5,5.5-2.5c0.5-0.6,1.5,0,2.1-0.7c1.1-0.7,2.3-1.3,3.4-2c0.5,0,1,0,1.3,0.2c1.3,0.7,1.5,1.4,0.4,2.3
	c-0.5,0.4-1.1,1-1.7,1.1c-2.5,0.4-4,2.5-6.3,3.2c-1,0.3-1.4,1.1-2,1.8c-0.8,0.9-1.5,1.7-2.9,1.2c-0.9-0.3-1.7,0.2-2.5,0.8
	c-2.6,1.8-5.3,3.6-8.5,3.9c-0.3,0-0.7,0.1-1,0.3c-3.5,3-8,3.5-12.4,4.5c-0.8,0.2-1.7,0.3-2.3,0.7c-2.6,2.1-5.6,2.3-8.7,1.9
	c-1.4-0.2-2.9-0.1-4.3,0.8c-1.2,0.8-2.8-0.3-4.3,0.4c-1.2,0.5-2.6,0.2-3.8,1.2c-0.6,0.5-1.5,0.4-2.3,0.2c-2.5-0.6-5.2-0.2-7.6-1.6
	c-0.4-0.3-1.2-0.3-1.6-0.2c-3.9,1.3-7.6-0.3-11.5-0.6c-2.3-0.1-4.4-1.1-6.4-2.1c-3.8-1.9-7.7-3.3-11.7-4.5c-2.6-0.8-4.3-2.9-6.7-3.9
	c-5.2-2.2-9.2-5.9-13-10c-0.9-1-1.6-2.2-3.1-2.5c-0.7-0.2-1.1-0.8-1.4-1.4c-0.2-0.4-0.4-1.1-0.7-1.1c-3.4-0.6-3.3-3.5-4-5.9
	c-0.4-1.2-1.2-2-2-2.7c-1.5-1.2-1.3-2.4-0.3-3.8c1.1-1.5,2.6-2.2,4.3-2.5c1.8-0.3,3-0.9,3.9-2.7c1.3-2.4,3.9-3.7,6.2-5.2
	c1.5-1,2.9,0,4.3,0.2c1.6,1.2,2.5,2.9,3.7,4.4c4.4,5.4,8.7,10.9,13.4,16.1C116.2,361.5,118.5,363.2,120.6,365z"/>
<path class="st71" d="M223.6,358.9c0.2,1.1,0.6,2.2,1.2,3.1c1,1.5,0.4,2.8-0.9,3.4c-2.2,1.2-3.8,3.2-5.8,4.5c-1.6-1.5-1.8-3.2-0.7-5
	c0.5-0.9,0.9-1.8,1.3-2.7c0.8-0.7,0.5-1.1-0.3-1.4c-0.6-0.2-1.1-1-0.7-1.2c1.5-0.6,2.2-2.4,3.8-2.7
	C223,356.7,222.8,358.4,223.6,358.9z"/>
<path class="st72" d="M290.2,368.6c-1,0.6-2,1.6-3.1,1.9c-1.4,0.3-1.7-1.6-2.8-2.2c-3.2-1.8-5.3-4.9-8.3-7.1c-1-0.7-1.7-1.8-3.2-0.7
	c-0.7,0.6-1.5-0.5-1.3-1c0.6-1.7-0.1-1.5-1.4-1.5c-1,0-1.8-0.9-2.6-1.5c-2.4-1.9-4.8-3.7-7.2-5.5c-1.2,0.8,0.7,1.4-0.1,2.1
	c-0.1,0-0.2,0.1-0.3,0.1c-5.7-4.8-12.9-7-19.2-10.8c-0.9-0.5-2.8-0.8-2-2.1c0.6-1.2,1.9-0.1,3,0.5c3.1,1.6,5.9,3.7,9.1,5.2
	c1.8,0.8,3.2,0.8,4.7-0.4c2.5-1.9,5.1-3.5,7.2-6c3.1-3.8,6.2-7.8,10.3-10.8c0.4-3.7,3.2-5.2,6.1-6.6c1.6-0.5,3,0.1,4,1.2
	c5.1,5.5,11.4,9.8,15.9,15.9c1.9,2.7,4.3,4.8,6.6,7.1c0.9,0.9,2,1.7,1.1,3.2c-0.2,1.5-1.2,2.5-2.3,3.2c-1.6,1.1-2.8,2.6-4,4.2
	C297.9,361.5,294.9,365.7,290.2,368.6z"/>
<path class="st73" d="M302,299.3c1-0.5,1.8-1.1,2.9,0.2c7.1,8.1,15,15.6,22.4,23.4c0.8,0.9,2,1.6,2,3c-0.4,0.5-0.9,0.9-1.3,1.4
	c-1.6,1.8-3.2,1.1-4.4-0.2c-6.9-7.9-15.1-14.6-22.3-22.2c-0.7-0.8-1.7-1.5-1.5-2.9C300.1,300.7,301.5,300.3,302,299.3z"/>
<path class="st74" d="M290.2,368.6c3.4-3.9,6.3-8.2,10.4-11.6c0.8,1.3,1.8,2.4,3.4,2.7c-0.4,2.7,0.1,5.6-1.9,7.9
	c-0.8,0.9-1.5,1.9-2.7,2.4c-0.9-0.1-1.7-0.7-2.4-1.2c-1.3-0.9-2.5-0.2-3.5,0.4c-0.7,0.5,1.2,1.1,0.2,1.9c-0.1,1.4-0.9,2.3-2.1,2.8
	s-1.8,0-1.4-1.3C290.1,371.3,290.2,370,290.2,368.6z"/>
<path class="st75" d="M299.9,302c2.7,2.7,5.3,5.6,8.2,8.1c5.7,5.2,11.3,10.6,16.3,16.5c0.9,1.1,2.2,1.6,3.6,0.8
	c-0.1,1.8-2.1,1.4-3,2.4c-0.5,0.6-1.3-0.5-1.9-1c-3.1-3-6.1-6.1-9.1-9.1c-4.7-4.8-9.4-9.7-14.1-14.4
	C298.7,304,298.3,303.1,299.9,302z"/>
<path class="st76" d="M306.8,349.6c-0.3-2-2-3-3.3-4.1c-1.9-1.5-4.5-2.2-4.3-5.3c-1.6-0.4-1.7-2.3-2.9-2.9c-1.3-0.7-1.9-1.8-2.7-2.8
	c-1.2-1.4-2.2-3.1-4.5-3.2c-0.7,0-0.7-1.5-1.6-2.2c-1.7-1.4-3.8-2.5-4.7-4.9c-0.3-0.8-2.3-1-3.5-1.5c-0.2-0.1-0.3-0.3-0.3-0.4
	c0.1-0.2,0.1-0.2,0.2-0.2c0.9-1.6,2.1-1.5,3.4-0.7c1.2,0.6,2.5,1.2,2.7,2.8c3.2,3.4,6.4,6.7,9.8,10.2c3.9,4,7.8,8,11.7,12.1
	C308.4,347.9,308.4,347.9,306.8,349.6z"/>
<path class="st32" d="M279.2,321.8c0,0.2,0,0.4,0,0.7c-2.4,1.7-4.2,4.1-6.2,6.2c-1.2-0.2-1-1.7-1.9-2.2c0-0.9,0.1-1.7,0.9-2.4
	c1.3-1.2,2.5-2.6,3.7-3.8c0,0.4-0.1,0.9-0.1,1.3c-0.1,0.8,0.7,1.1,0.9,0.6C277.3,320.3,278.4,321.9,279.2,321.8z"/>
<path class="st32" d="M285.4,324c-1.3-0.6-1.8-1.8-2.7-2.8c1.1-0.3,2.1-0.5,3,0.6c0.9,1.2,2.3,2,3,3.5
	C287.1,325.7,287,322.9,285.4,324z"/>
<path class="st77" d="M187.9,398.1c2.1-0.5,3.2-2.8,5.5-2.7c1.1,0.4,2,1.6,3.2,0c0.8-1.1,1.9-0.2,2.8,0c2.4,0.5,2.5,0.6,1.8-1.9
	c-0.2-0.6,0.1-0.9,0.5-1.1c0.5-0.3,0.9-0.4,1.5-0.1c2.2,1.2,2.7,1.1,4.2-0.9c0.3-0.4,0.6-0.7,0.9-1c1.2-1.1,2.6,0.2,3.9-0.5
	c1.1-0.5,1.1-2.7,3.1-1.8c1.7,0.7,2.8-1.3,3.1-2c0.8-1.5,1.3-1.7,2.6-1c0.7,0.4,1.4,0.2,1.1-0.9c-0.1-0.5-1.5-0.6-0.5-1.4
	c0.7-0.5,1.6-0.9,2.1,0c0.9,1.4,1.4,1.2,2.6,0.1c1.2-1.1,3.2,0,4.5,2.2c1,1.7,1.8,1.7,3.4-0.1l0,0c1.5,0.7,2.7,2,4.3,2.6
	c0.6,0.2-0.3,1.8,1,2.4c0.7,0.3,1.3,1.2,1.4-0.4c0-0.5,0.6-0.5,1.1-0.5c2,0,4,0.2,5.9-0.8c0.2,1.6-0.6,2-1.6,2.2
	c-0.5,0.1-0.9,0.3-0.8,0.9c0.2,0.6,0.9,0.9,1.4,0.5c1.5-1.2,2.2-0.3,2.5,1.1c1.1-0.5-0.1-1.4,1.3-2c0.2-0.1,1.2,0.6,1.4,1
	c1.2,1.8,2.8,2,4.6,2.1c1.7,0.1,2,1.2,1.3,2.6c0.1,0.5,0.3,1,0.7,1.4l0,0c0.5,0.7,1.5,0.1,2.1,0.7c0.2,0,0.5,0,0.7,0
	c0.3-0.5,0.9-0.3,1.3-0.7c0.5,0.3,0.7,0.8,0.6,1.4c-0.2,0.2-0.5,0.3-0.4,0.7c0.2-0.1,0.3-0.1,0.6-0.1c1,0,1.4,1,2.1,1.5
	c0.4,1.2-0.2,2-1.1,2.7c-0.9,0.6-1.9,0.9-2.9,0.7c-2.6-2.7-6.6-3.5-8.8-6.8c-0.5-0.8-1.1-1.1-2-0.9c-1.5,0.3-2.6-0.6-3.9-1.4
	c1.1,0.8,2.2,1.7,1.4,2.8c-0.7,1.1-1.9,0.5-2.6-0.2c-1.3-1.2-3-1.4-4.7-1.7c-0.3-0.1-0.6-0.2-0.9-0.3c-2.1-0.6-3.9-1.5-5.5-2.9
	c-0.3-0.2-0.5-0.4-0.7-0.5c-2-0.4-4.3-0.1-5.8-2.2c0.4,0.9,1,1.6,0.1,2.4s-2.1,1.3-1.8,3.2c0.2,1.2-1.7,0.9-2.8,0.9
	c-3.8,0.2-7.8-0.5-11.4,1.5c1.9,0.5,3,1.5,2.2,3c0.9-2.4,4.4-2.4,6.5-4.4c0.4-0.4,1.3,0,1.8,0.6c0.7,0.8,0.5,1.4-0.2,2
	c-0.8,0.7-0.7,1.4,0.2,1.9c2.1,1.2,1.7,3,1.2,5c2.7-1,4.9,1.1,7.5,0.9c0.7-0.1,1.3,0.6,1.4,1.3c0.2,5.7,5.1,6,8.8,7.5
	c1.1,0.4,2.5,0.1,3.5,1.1c0.7,1.3,0,2.2-0.8,3c-0.7,0.7-1.8,1.1-2,2.2c-0.5,1-1.3,1.8-1.9,2.8c-0.3,0.5-0.7,0.9-1.1,1.3
	c-0.5,0.6-1.2,0.7-1.9,0.9c-0.6,0.9-1.3,1.9-1.9,2.8c-0.2,0.7-0.9,0.9-1.4,1.4c-0.8,0.4-0.7,1.2-0.8,1.9c-2.3,3.3-5.5,5.8-7.4,9.5
	c-0.5,1-1.5,1.8-2.8,1.2c-1.9-2.1-3.4-3.7-1.3-7.1c1.1-1.7,1-3.5,3.6-3.2c0.6,0.1,0.8-0.2,0.6-1c-0.5-2,1.1-2.2,2.5-2.7
	c-1.5,0-3.7-0.4-3.8,1.7c-0.1,3.9-2.4,2-3.9,1.7c-1.1-0.2-1.7-1.4-2.8-1.9c-0.5,0.8,0.3,1.5,0.1,2.2c-0.1,0.3-0.2,0.6-0.5,0.8
	c-3-0.1-4.9-2.4-7.3-3.6c-0.6-0.3-0.4-1.2-0.3-1.9c0.3-2.3,0.6-4.6-3.1-3.3c-0.5,0.2-1.1-0.2-1.5-0.5c-0.2-0.2-0.4-0.5-0.4-0.9
	c0-1.8,1.5-2.6,2.7-3.2c2-1.2,1.1-3,1.5-4.5c0.1-0.3,0.2-0.4,0-0.4s-0.4,0.1-0.6,0.2c-0.7,0.4-1.4,0.7-2.3,0.4
	c-0.6-0.2-2-2.5-1.6-2.6c0.5,2-1.1,1.9-2.2,2.2c-0.3,0.1-0.6,0.1-0.9,0.1c-2.4,0.4-5,0.4-4.2,4.4c0.4,1.8-1.9,1.9-3.3,1.9
	c1.5,1.3,4.3,2.3,1.3,5c-0.5,0.4,1.8,3.2,2.6,3.1c0.4,0,0.9-0.2,1.3-0.1c1.3,0.3,2.4,0.9,2.9,2.1c0.6,1.4-1,1.8-1.6,2.7
	c1.1,0.2,1.1,0.2,1.4-0.5c0.6-1.8,5-2.3,6.5-0.4c1.2,1.5,2.4,2.7,4.4,2.8c0.2,0,0.4,0.1,0.6,0.2c0.6,0.3,1.5,1,1,1.5
	c-1.6,1.9,4.5,5.3-1.2,6.3c-1.1,0.2-1.5,1.2-1.8,1.7c-1.4,2.2-3.6,3.1-5.7,4.3c-2.2,1.3-4.2,1.7-6.4,0.2c-1.6-1.1-3.4-1.9-5.2-2.7
	c-1.3-0.6-2.3-1-2.4-2.9c-0.2-2.6-2.8-1-4-1.8c-0.3-0.1-0.6-0.2-0.9-0.3c-2-1.7-3.2-4.8-7-3.5c-1,0.4-0.9-1.6-1.7-2.2
	c0.2,0.4-0.2-0.1-0.2-0.1c1.5,2.2,1,3.6-1.7,3.3c-2.6-0.3-5.2-1-6.1-4.4c-0.9,1.8-0.9,3.8-3.1,3.6c-0.2,0-0.3,0.2-0.4,0.4
	c-1.6,2.7-1.5,2.6-3.8,0.5c-1.3-1.2-2.5-3.5-4.5-0.6c-0.3,0.5-1.2,0.5-1.5,0.1c-1.6-1.9-4.7-2.5-5-5.6c-0.1-1.3-0.8-2.6-2.5-1.8
	c-4.5,2-8.4,5.2-13.4,6.4c-0.3,0.1-0.5,0.4-0.6,1.2c2.4-1.7,3.6-0.8,3.9,1.7c0.2,1.2,1.4,1.3,2.2,1.9c0.9,0.7,1.6,1.9,1,3
	c-0.5,0.9-1.7,0.5-2.5,0.1c-3.2-1.7-7-2.4-9.1-5.9c-0.5-0.9-1.8-0.2-2.7-0.4c-3-0.8-3.7-1.6-2.7-4.3c2.2-1.2,4.4-2.1,6.9-2.7
	c4.8-1.2,9.4-3.1,12.4-7.5c3.7-2.5,7.5-4.9,11.8-6.6c0.8,0,1.4-0.4,2-0.7c1.6-0.2,3-0.6,3.5-2.4c0.5-1.6,2.1-1.7,3.3-2.4
	c5-4.4,10.4-8.4,15.7-12.6C182.4,400.5,185.4,399.6,187.9,398.1z"/>
<path class="st78" d="M187.9,444.8c2.2-0.4,4.3,0,6.3,0.3c0.4,1.6-1.8,1.7-1.4,3.1c2.7,0.9,5.2,2.2,7.6,3.7c1.8,1.2,2.3,1.2,4.2-0.5
	c0.7-0.6,1.3,0.3,1.8-0.2c0.6-0.5-0.3-1.4,0.6-1.8c0.8,0,0.5,0.9,0.8,1.2c0.5,0.6,0.9,0.5,1.3-0.1c0.2-0.4,0.1-0.9,0.1-1.3
	c0.1-2.1,0.1-2.1,2.5-2c0.4-0.5-0.1-0.8-0.3-1.2c-0.3-0.7-0.5-1.3,0.3-1.7c0.7-0.3,1,0.2,1.3,0.7c0.2,0.3,0.8,0.9,0.8,0.6
	c-0.2-1.3,1.5-0.8,1.4-1.8c-0.1-0.6-0.5-1.1-1.2-1c-0.8,0.1-1.6,0.1-2-0.8c-1-2.2,1.1-1.7,2-2c-0.2-0.8-0.7-0.8-1.2-0.8
	c-2.1-0.1-4.3-0.2-4.8-3c-0.1-0.4-0.6-0.9-0.9-0.9c-1.5,0-3,0.1-4.7,0.2c0.8,1.2,2.4,1.1,2.6,3c-2-2-5,0.7-6.7-2.1
	c0.6-1.7,2.5-0.9,3.4-1.9c-0.1-1.1-1.1-1.4-1.8-1.8c-0.8-0.5-2-1.1-2.2,0.8c0,0.5-0.5,0.7-1,0.7c-0.5-0.1-0.8-0.5-0.7-1
	c0.3-1.5,0.1-2.6-1.8-3c-1.1-0.3-1.1-1.4,0-1.9c0.7-0.4,1.2-1,1.9-1.7c-1.3-0.9-2.1-2.3-3.9-2.4c-0.8,0-0.8-0.7-0.7-1.3
	c0.1-0.8,0.8-0.7,1.3-0.5c0.8,0.3,1.5,0.5,2.3,0.4c1.1-0.1,1.9-0.3,1.3-1.9c-0.9-2.4-0.3-3.2,2.4-3.7c1.1-0.2,2-1.2,3.2-0.5
	c-0.2,1.7-0.2,1.7-2.1,2.5c2.1,0.8,2.5,0.2,2.1-2.5c0.3-0.2,0.6-0.5,0.8-0.4c2.3,0.1,1.6-0.8,0.7-1.8c-0.1-0.2-0.2-0.4-0.4-0.7
	c0.6-0.7,1.4-0.9,2.3-0.9c0.3,0.8-0.5,1.4-0.2,2.3c0.6,1.9,1,2.2,2.8,1.4c0.9-0.4,1.7-0.5,2.7-0.4c0.4,1.2-0.6,1.8-1.2,2.5
	c0.5,0.9,1.8,0.1,2.4,1.3c-2.4,1.6-4.6,3.4-6.5,5.7c-0.6,0.3-1.4,0.2-1.5,1.1c0.2,0.7,0.8,0.7,1.3,0.7c0.3,0,0.6,0,0.9,0.1
	c-0.3-0.1-0.7-0.1-1-0.1c-0.6,0-1.1-0.1-1.3-0.8c0.3-0.7,1-0.6,1.5-0.9c1.1,0.7,2.1,0.5,2.9-0.5c0.7-0.8,1.9-1,2.2,0
	c0.5,1.5,1.1,3.6,0.5,4.7c-0.9,1.5-0.2,1.6,0.7,2.1c0.4,0.2,0.8,0.4,1.2,0.5c1.4,0.3,2.8,0.6,3.3,2.4c0.1,0.5,1,0.3,1.5,0.4l0,0
	c-0.3-0.7-0.6-1.5-0.9-2.2c-0.3-0.6-1.4-0.4-1.3-1.6c1.7-0.5,3.3-0.6,4.4,1c1,1.3,2.2,1.8,3.9,2.1c-0.2-1.2-0.4-2.4-0.7-3.5
	c2-0.8,4.7-0.5,6.3-2.9c0,1.8-0.4,3.6,1.3,4.9c-1.7,0.9-2.2-1-3.4-1c-0.3,0.6-0.8,1.1-0.6,1.8c0.1,0.5,1.8-0.2,0.9,0.7
	c-0.5,0.5-0.7,2.2-2.2,1.5c-0.3-0.2-0.6-0.3-0.9-0.4c-0.6-0.2-1.1-0.3-1.5,0.2c-0.3,0.4,0,0.9,0.2,1.3c0.3,0.5,0.6,0.9,0.9,1.4
	c-0.5,1.6-2.5,0.3-3,1.7c0.4,1.3,2,0,2.5,1.2c-0.4,0.8-1.5,0.3-1.9,1.2c0.4,0.8,2.1,0.9,1.6,2.4c0.2,0.3,0.1,0.6-0.1,0.8
	c-2,0.8-2.5-0.8-3.2-2c-0.2,1.6-0.9,3.2-1.7,4.6c-1.6,2.7-1.5,5.4,0.3,7.9c1.2,1.7,2,3.8,3.6,5.3c0.5,0.5,0.9,1,0.4,1.8
	c-3.1-0.2-6.2-0.1-9.4-1.2c-2.1-0.8-4.9-0.2-7.3-0.2c-4.5-0.1-9.1-0.2-13.6-1.3c-0.9-0.2-1.8-0.1-2.7-0.1c-7.6-0.1-15.2-0.3-22.8,0
	c-2.3,0.1-4.5-0.1-6.8-0.6c-1.7-0.4-3.3-0.6-4.4-2.2c-0.5-0.9-1.5-0.7-2.4-0.2c-0.1,1.1,1.4,1.2,1.4,2.4c-2.5,0-5,0-7.4,0
	c-4.3-0.9-8.7,0.2-13.1-0.6c-0.4,0-0.9,0-1.3,0c-0.9-0.5-1.9-0.7-2.8,0c-0.7,0-1.3,0-2,0c-1-0.7-2.2-0.1-3.3-0.4c-2-0.9-4-1.4-6.2-1
	c-4.3,0.7-8.5-0.9-12.9-1c-2.3-0.1-4.7-1.8-7.3-1.9c-0.7,0-1.4-0.5-1.7-1.1c-1.3-2.5-2.3-5-4.5-7c-0.9-0.8-0.3-1.5,1.7-2.5
	c-1.4-0.2-2.6-0.6-3.8-1.3c-0.3-0.2-0.8-0.4-0.8-0.6c0.5-5.8-4.5-7-7.9-9.1c-3.6-2.3-5.9-5.5-8.4-8.7c-0.4-0.5-0.6-1.1-1.4-1.4
	c-0.8-0.3-1.4-0.8-1-1.8c0.4-0.9,1.2-0.8,2.1-0.7c3,2,6.1,3.9,9.7,5.1c3.3-0.5,5.8,1.7,8.3,3.1c2.4,1.3,4.8,2.3,6.7,3.1
	c-2.2-1.3-6.4-0.9-7.1-5.2c0.1-0.3,0.2-0.6,0.5-0.8c1.3-0.4,2.4,0.1,3.6,0.6c5.3,2.2,10.9,3.9,16,6.7c0.6,0.3,1.5,0.9,1.9,0.4
	c2.5-3.6,4.4-0.1,6.3,0.5c2.1,0.7,4.8,0.7,5.5,3.6c0.1,0.6,1.1,0.1,1.4,0.7c0.5,0.6-0.2,1.7,0.1,1.8c1,0.6,2.2,1.1,3.4,1.4
	c1.1,0.2,2.2,0,3.3,0c0.9,0.8-2.1,1.3-0.1,2.1c3.3,1.3,6.2,3.6,9.9,4.5c-1-0.5-0.1-2.7-2.3-2.3c-0.7,0.1-1.9-0.7-1.6-2.1
	c0.1-0.7,0.2-1.5-0.2-2.4c-2.2,2.8-2.2,2.8-4.3-0.2c-0.2-0.3-0.4-0.6-0.1-1.1c0.9-0.1,2.3,0.6,3-1c0.4-1,1.5-0.5,2.2-0.5
	c2.1,0.2,3.2-1.7,5.1-2c0.3,0,0.6-0.5,0.3-0.8c-0.5-0.7-0.8-1,0.5-1.1c1.5-0.1,3.1,0.1,4.3-1.6c1-1.3,3-0.4,3.5,1.6
	c0.5,2,1,3.8,3.2,4.5c0.9,0.3,0.9,1.8,1.9,2.2c1.1-0.7-0.6-1.8,0.6-2.5c3.7-0.7,5.1,2.7,7.3,4.7c0.5-0.2,0.6-0.4,0.4-0.6
	c-0.6-1-1.2-2.1-0.3-3.1c1-1,1.6,1.2,2.8,0.4c0.2-1.3,0.3-2.8,1.1-4.1c1.1-0.1,1.4,0.9,2,1.5c0.7,0.6-0.5,1.9,0.8,2.3
	c1.7,0.5,3.4,1,5.2,1.5c0.2,0.1,0.6-0.3,0.8-0.5c0.2-0.3,0-0.6-0.3-0.9c-0.8-0.7-2.2-0.7-2.4-2.1c3.6-0.2,3.3-1.1,4.3,2.6
	c1.1,0.2,0.2-1.1,1-1.3c0.8-0.2,1.3,0.1,1.9,0.4C185.2,441,186.8,442.7,187.9,444.8c0.1,0.2,0.1,0.3,0.1,0.3
	C188.2,445.2,188.1,445.1,187.9,444.8z"/>
<path class="st79" d="M125.4,438.6c-0.7-0.3-2.2,0.7-2-1.2c0-0.2-0.9-0.5-1.4-0.8c-2.1-1.4-5.1-1.1-6.9-3.3
	c-0.3-0.3-1.1-0.6-1.6-0.3c-0.7,0.6-0.1,1.2,0.2,1.8c0.1,0.2,0.1,0.4,0.2,0.9c-2.4-0.9-4.8-1.2-6.7-3c-0.3-0.3-0.7-0.6-1.2-0.7
	c-5.3-1.4-10.2-4.3-15.6-5.8c-1.7-1.5-0.5-1.9,0.8-1.9c2,0,3.6,1.1,5.7,2.4c-2.5-2.3-5.4-3.3-6.8-6.1c-1.4-2.8-1.1-3.4,2.1-3.4
	c1.7,0,3.4-0.4,5,0.2c4.3-0.1,8.4,1.5,12.8,2c3,0.4,5.9,1.3,9,1.7c1.4,0.2,2.9,0.5,4.2,1.1c2.5,1.1,5.1,1.9,7.7,2.6
	c2.9,0.8,5.8,1.7,8.8,2.5c1.1,0.1,2.1-0.3,3.1-0.2c0.8,0.2,1.5,0.4,1.6,1.4c0.2,0.5,1.5,0.9,0.3,1.5c-3,1.5-4.8,5.2-8.7,5.3
	c-2.5,2.1-6.2,1-8.7,3.2C127,438.8,126.1,438.5,125.4,438.6z"/>
<path class="st80" d="M72.6,420.6c-0.2,0.3-0.4,0.5-0.8,0.5c-1,0.1-1.3,1-0.4,1.3c2.8,0.8,3.5,3.5,5.2,5.2c1.4,1.4,2,3.5,4.5,3.8
	c0.7,0.1,1.4,1.1,2,1.7c0.5,0.6,0.7,1.2,1.9,0.7c0.9-0.3,1.9,0.8,2.1,1.7c0.2,1.6,1,1.9,2.4,2.2c0.8,0.2,1.9,0.5,2,1.6
	c0.2,1.3-0.6,2-2.2,2.3c2.8,0.9,4.9,2.4,8,2.2c-1.3,1.2-2.5,0.7-3.5,0.9c-0.4,0.1-0.9,0.2-1.1,0.7c-0.3,0.6,0,1.1,0.4,1.5
	c0.1,0.1,0.2,0.2,0.3,0.2c2.4,0.7,3,2.4,3.3,4.7c0.2,2.1,2.1,2.8,4.9,2.1c0.8-0.2,1-0.2,1.6,0.3c1.4,1.1,2.7,2.6,5,1.4
	c0.7-0.4,2.6,0,3.9,0.5c2.5,1.1,5.1,0.8,7.6,0.5c2-0.2,3.6,0.1,4.8,1.7c-0.9,0.6-1.8,0.5-2.7,0.1c-1.1,0-2.3,0-3.4-0.1
	c-2.7-0.7-5.5-0.5-8.1-0.2c-6.3,0.6-12.6-0.6-18.7-1.4c-0.8-0.1-1.5-0.4-2-1.1c-0.1-0.9-0.3-2-1.3-2.1c-1.3-0.1-2.2-1.8-3.8-1
	c-2.7,1.3-5-0.1-7.3-1.4c-0.4-0.2-0.9-0.4-0.9-0.9c-0.1-1.2,1.9-1.7,1.1-3.3c-1-2.1,1.4-1.1,1.9-1.9c0.1-0.2,0.2-0.4,0.3-0.6
	c-0.1-0.2-0.2-0.4-0.4-0.5c-0.7-0.1-1.3,1.7-2.2,0.2c-0.5-0.9-0.2-1.4,0.3-2.3c2.2-3.5,2.1-4-1.6-6c-1.4-0.8-2.2-1.8-2.8-3.1
	c-0.9-2.1-3.1-3.6-3.4-5.9c-0.2-1.8-0.9-3.1-1.9-4.5c-0.7-0.5-0.1-1,0.1-1.4c1.3-0.6,2.2-2.3,4-1.3C72,419.8,72.3,420.2,72.6,420.6z
	"/>
<path class="st81" d="M165.3,416c-0.4,1.4-2.2,1.4-2.7,2.7c-2,1.8-3.7,0.1-5.6-0.5c-0.4,0-0.7,0-1.1,0c-1.9,0.9-3.5-0.2-5.2-0.7
	c-2.8-0.7-5.7-1.3-8.6-0.8l0,0c-0.9-2.3-3.3-2.4-5.1-3.3c-1.5-0.7-3.5-1.7-5.3,0c-0.5,0.4-1.8,0.5-2.1-0.4c-0.6-2-2.4-2.1-4.6-3.1
	c4.3-0.1,7.5,1.6,11.1,1.2c5.3,0.2,10.6,1.5,15.8,2C156.1,414.1,160.6,415,165.3,416z"/>
<path class="st78" d="M97.2,417.2c-2.3,0.1-4.7,0.3-7.6,0.5c1.8,2.3,2.2,5.1,5.5,6c1.7,0.4,2.6,2.3,3.8,4.2c-1.9,0-3.2-0.6-4.5-1.4
	c-1.1-0.8-2.4-1.3-3.7-1.5c-0.9-0.1-0.6,0.7-0.4,1.2l-0.1,0.1c-2,0.6-4,1.4-4.3-1.9c0.5-0.6,0.2-0.8-0.5-1c-0.9-0.4-2.3-0.4-2-2
	c1-1.3-0.4-1.4-1-1.8c-0.6-0.5-1.5-0.7-1.4-1.7c0.2-1,1-1,1.8-1.2C87.7,415.5,92.5,416.1,97.2,417.2z"/>
<path class="st82" d="M144.7,428.5c-0.7-0.3-1.2-1-2.1-0.7c-0.8,0-1.4-0.4-2-0.9c-0.4-1.3-2.4-1.4-2.2-3.2c1.6-0.5,2.5,1.7,4.1,0.9
	c0.1-0.9-1.3-0.7-1.2-1.9c2.2,0.8,4.1,0.1,5.8-1.3c0.2-0.2,0.7-0.6,0.9-0.5c2.7,1.2,5.7-1.3,8.4,0.5c-2.3,2.7-5.8,3.8-8.6,5.9
	C146.8,428.1,145.8,428.5,144.7,428.5z"/>
<path class="st80" d="M86.2,424.3c0.7,2.1,2.4,2,4.1,2.1c1.1,2.7,3.4,4,6.1,4.7c1.5,0.4,2.5,1.4,4.3,2.2c-2.3,0.3-10.3-3-18.6-7.4
	c-0.4-1.3-1.3-2-2.6-2.5c-2.1-0.7-3.4-2.6-5.1-3.8c-0.5-0.4-0.4-1,0.2-1.4c3,0.4,4.9,2.8,7.6,3.9C83.6,422.5,85.5,422.4,86.2,424.3z
	"/>
<path class="st24" d="M141.8,416.7c1.9-1.2,3.8-2.5,6-0.6c3-0.7,5.2,1.7,7.9,2.1c-0.2,0.6,0.3,1,0.7,1.8c-2.7-1-5.2-0.2-7.7-0.6
	C146.3,419,143.8,418.5,141.8,416.7z"/>
<path class="st79" d="M86.2,424.3c-4-1.7-8.1-3.2-11.5-6.2c0.2-1-1.3-1.6-0.7-3c2.9,2.6,5.7,5.2,9.5,6.4c1.1,1.2,3.1,1,4.2,2.4
	C87.2,424.4,86.7,424.2,86.2,424.3z"/>
<path class="st24" d="M156.9,418.1c1.9,0.2,3.7,0.4,5.6,0.5c1.1,2.4-1.6,1.9-2.4,2.9c-0.7,0.9-1.3-0.2-1.7-0.8l0,0
	c0.4-0.5,0.6-0.9-0.1-1.3C157.6,419.2,157.3,418.6,156.9,418.1z"/>
<path class="st17" d="M71.8,419.5c-1.5-0.2-2.4,1.6-4,1.3C69,418.5,69.6,418.4,71.8,419.5z"/>
<path class="st77" d="M140.5,427c0.7,0.3,1.3,0.6,2,0.9c-1.1,0.8-1.8-0.2-2.7-0.6C140,427.1,140.3,427,140.5,427z"/>
<path class="st77" d="M158.2,419.4c0.4,0,0.9-0.1,0.9,0.5c0,0.5-0.5,0.6-0.8,0.8C158.3,420.3,158.3,419.9,158.2,419.4z"/>
<path class="st83" d="M356.2,376.1c0.2,4.3-2.1,5.8-5.9,4c-3.1-1.5-4-3.6-2.7-6.8c1-2.7,0-5.4,0.2-8.1c0.1-1-1.6-1.2-2-2.2
	c0.3-2.4,0.3-4.7-1.4-6.6c-0.8-0.9-0.4-2.1-0.5-3.2c4.6,4.7,6,10.5,4.9,16.9c-0.2,1.4-0.1,2.7,0.1,4c0.1,0.6,1.1,0.9,1.2,0.3
	c0.1-2.1,1.1-1.1,1.9-0.7c1,0.6,2.3,1.2,2.4,2.2C354.9,378.7,355.7,375.8,356.2,376.1z"/>
<path class="st84" d="M387.7,391.9c-0.3,3-1.5,3.8-4.1,3c-0.9-0.3-1.7-0.7-2.4-1.2c-2.5-2-2.7-3.8-1-7.3c0.5,0.4,0.5,0.9,0.7,1.5
	c0.3,0.9,0.3,0.9,1.1,0.1c0.8-0.9,1.8-0.1,1.9,0.3c0.3,1.1,1.3,1.8,1.8,2.8C386.2,391.9,386.9,392,387.7,391.9z"/>
<path class="st85" d="M380.3,385.2c-0.5-0.8-0.3-1.7-0.2-2.6c0.2-2,0.1-3.8-2.3-4.6c-0.8-0.3-1.1-1.1-1.3-1.9
	c-0.5-2.9-2.3-4.5-5-5.4c1.1-2.1,2.2-2.4,3.3-0.8c1.5,2.3,3.2,4.4,5.4,6c0.9,0.7,1.4,1.8,1.2,3C381.1,380.9,382.2,383.3,380.3,385.2
	z"/>
<path class="st0" d="M432.4,405c-2.4,2.6-2.4,3.3-0.1,5.7c-2.4,0.3-2.6,0.2-2.6-1.7c0-1.6,0.5-3.1,1.3-4.5
	C431.6,403.6,432,404.5,432.4,405L432.4,405z"/>
<path class="st83" d="M343.4,352.8c-0.8-0.2-1.5-0.5-2.3-0.7c-0.2-0.4-1-0.9-0.1-1.3c1.1-0.6,2.2-1,3.5-0.5
	C343,351.1,343,351.1,343.4,352.8z"/>
<path class="st0" d="M431.9,407.5c0.4,0.1,0.5,0,0.6,0.1c0.5,0.4,1.2,0.5,1.4,1.3c0,0.1-0.3,0.4-0.4,0.4
	C432.5,409.3,431.8,409,431.9,407.5z"/>
<path class="st0" d="M432.4,405c0.8,0.1,1.3,0.5,1.4,1.4l0,0C432.9,406.3,432.5,405.8,432.4,405L432.4,405z"/>
<path class="st0" d="M437.2,411.1c0-0.3,0-0.6,0.1-1c0-0.3,0.2-0.8,0.5-0.7c0.7,0.2,0.3,0.7,0.1,1
	C437.7,410.7,437.4,410.9,437.2,411.1C437.2,411.2,437.2,411.1,437.2,411.1z"/>
<path class="st0" d="M435.1,413.2c-0.1,0.6-0.2,1.7-0.8,1.5c-0.8-0.2,0-0.8,0.3-1.1C434.7,413.4,435,413.3,435.1,413.2z"/>
<path class="st0" d="M435.1,407.7c0.4,0.1,0.9,0,1.1,0.6c0,0.1-0.1,0.3-0.2,0.3C435.5,408.6,435.3,408.1,435.1,407.7L435.1,407.7z"
	/>
<path class="st0" d="M433.8,406.4c0.8,0.1,1.3,0.5,1.4,1.4l0,0C434.5,407.5,434.1,407,433.8,406.4L433.8,406.4z"/>
<path class="st54" d="M89.7,455.7c6.7,0.7,13.5,1.4,20.2,2c1.8,0.2,3.6,0.1,5.4,0.2c1.1,0,2.3-0.3,3.2,0.6c-2.7,0-5.4,0-8.2,0
	c0.1,1.5,1,1.4,1.7,1.4c4.5,0,9,0.9,13.7,0.8c3.1,0,6.3,0.7,9.5,1.3c1.9,0.3,3.6,1.2,5.5,3.2c-3.2,0.2-5.8,0.4-8.3-0.1
	c-1.8-0.4-3.6-0.6-5.4-0.4c-5.2,0.3-10.5-1-15.7-0.7c-0.6,0-1.1-0.2-1.5-0.7c0.5-0.1,1.3,0.1,1.5-0.5c0.3-0.8-0.5-0.8-1-0.8
	c-4.3-0.1-8-2.3-12.2-2.9c-6.1-0.9-12.3-1.7-18.4-2.7c-2.6-0.4-5.1-1.5-8-1.6c0.9-1.3,1.8-0.8,2.5-1c4.1,0.6,8.3,0.8,12.4,1.7
	C87.4,455.7,88.6,455.7,89.7,455.7z"/>
<path class="st86" d="M321.1,362c0.6,2.2,0.1,3.3-1.8,3.7c-2.6,0.5-6.3-1.8-6.9-4.4c-0.5-1.9,0.8-3.2,1.9-4.4c0.5,0.7,0.1,2.3,2,1.4
	c1.4-0.7,3,0.5,4.4,0.9C321.7,360.1,317.7,361.5,321.1,362z"/>
<path class="st24" d="M69.1,386.5c-0.1-0.4-0.6-0.8,0-1.1c0.1-0.1,0.7,0.2,0.8,0.4C70.1,386.5,69.5,386.3,69.1,386.5
	C69,386.4,69.1,386.5,69.1,386.5z"/>
<path class="st87" d="M187.9,398.1c-2.2,2-4.3,4-7,5.3c-1.3-1.1-2.5-0.1-3.3,0.6c-4.2,3.6-9.4,3.8-14.4,4.1
	c-6.9,0.5-13.9,0.3-20.7-0.6c-0.4-0.1-0.8-0.4-1.2-0.5c3.4,0,6.8,0.4,10.2,0.3c5.7-0.2,11.7,0.4,17.2-1.7c3.7-1.4,7.1-3.3,10.9-4.8
	C182.2,399.7,184.9,398.4,187.9,398.1z"/>
<path class="st0" d="M338.3,453.7c-0.2,1.1-0.3,2.2,0.2,3.2c-1.2,0.3-2.4,0-3.3,1c-1.1,1.1-1,2,0.4,2.6c4.4,1.9,8.8,3.6,13.3,5.5
	c3.3,1.4,6.7,2.8,10.1,4.2c0,0.5-0.2,1.1-0.7,1c-1.6-0.1-2.3,1.3-2.1,2.1c0.5,2.4-1.3,3.3-2.5,4.6c-3.4,4.2-7.6,7.7-10.5,12.6
	c-0.8,1.4-1.8,2.6-2.7,3.9c-0.3,0.4-0.6,0.8-1.1,0.7c-0.6-0.1-1-0.6-1-1.2c0-0.4,0.2-0.9,0.1-1.3c-0.2-2.2-2-3.6-4.2-3.3
	c-2.1,0.3-4,0.5-5.6-1.2c-0.5-0.5-1.4-0.9-2.2-0.6c-1,0.4-1.4,0.3-1.5-0.9c0-0.5,0-3.5,0-4.1c0.1-1.8,1.1-1.4,2.1-1
	c0.4,0.1,0.7,0.6,1.4,0.3c-0.5-1.2-1.7-2.4-0.8-4.1c0.9,0.9,1.4,2,2.7,2.4c1.8,0.6,3,1.9,2.3,4.1c0.9-0.1,0.9-0.7,1.1-1.1
	c0.4-0.8,2.2-1.2,1.4-2.3c-0.8-1.1-1.5-3-3.6-2.5c-0.6,0.1-1.2,0-1.6-0.5c-2.1-2.3-5.4-2.9-7.3-5.4c-0.7-0.9-1.4-0.4-2.1-0.1
	c-0.2-1.5-1-2.3-2.6-1.7c-1.5,0.6-2.3,0-3.1-1.3c-1.6-2.4-2.3-2.4-5,0c-1.4-1.6-2.7-3.3-4-4.8c-1.5,0.4-1.9,1.4-2.9,1.8
	c-2.1,0.8-2.6,0.8-3.6-1.2c-0.2-0.4-0.1-1-0.4-1.3c-0.8-1.1-1.9-2.1-3.3-2.1c-1,0-1.6,1.1-1.9,2.2c-0.1,0.3-0.2,0.6-0.4,0.9
	c-0.3,0.5-0.7,1-1.3,0.9c-0.7-0.1-0.8-0.7-0.9-1.3c-0.4-1.3,0.5-2.6,0.1-4c-0.3-1-0.5-1.6-1.7-1.8c-4.4-0.7-4.9-1.5-4.6-5.8
	c0-0.5-0.1-0.9-0.7-1.1c-2.1,1.5,0.1,3.8-0.8,5.5c-0.7,0.1-1-0.3-1-0.7c0.2-2.3-1.3-3-3.1-3.3c-0.9-0.1-2.3-1-2.5,1
	c0,0.2-0.9,0.7-1.4-0.3c-0.7-1.4-2.2-2.4-2.1-4.2c0-0.5-0.4-0.8-0.9-0.8c-0.5,0-0.8,0.5-0.8,0.9c-0.1,2.1-1.5,3.2-3,4.2
	c-0.7-0.5-0.3-1.1-0.3-1.6c-0.2-2.2-0.9-2.6-3-2c-2.2,0.6-3.1,0-3.1-2.4c0-1.4-0.3-2.4-1.6-3c-0.3-0.1-0.8-0.3-0.8-0.5
	c0.2-3-2-2.2-3.6-2.4c-1.5-0.2-2.8-1.6-4.6-0.8c-0.7,0.3-1.4-0.5-0.9-1.3c0.6-0.9,0.4-1.3-0.5-1.8c-1.3-0.6-2.5-1.4-4-1.8
	c-2-0.6-2-1.8-0.2-3.2c0.9-0.8,1.8-1.7,1.2-3.1c-0.3-0.7-0.6-1.5-0.8-2.2c2.1-0.7,3.8,0.7,5.3,1.5c4.7,2.2,9.5,4.7,14.6,5.9
	c1.2,0.3,1.9,1.6,3.2,1.9c-2.3-2.3-5.4-2.7-8.3-3.6c-3.5-1.1-6.5-3.2-9.7-4.8c-1-0.5-1.8-1.5-1.1-2.8c0.3-0.2,0.6-0.4,0.9-0.4
	c8.5,3.3,17.6,5.7,25.4,10.8l0.2,0.1V436c-1.2-3.5,1.9-5,3.3-7.2c0.5-0.8,2.1-0.2,3,0.6c0.1,0.3,0.2,0.6,0.2,1
	c-0.7,4.9-0.6,5,3.1,6.5c4.5,1.7,7.2,1.3,9.4-2.1c1.9-3.2,4.4-5.8,7.2-8.1c0.9-0.8,1.8-1.8,3.2-1.6c1.3,1.6,0.4,2.9-0.6,4.2
	c-3,3.9-5.8,8-8.9,12c-1.7,2.1,0.3,2.6,1.5,3.1c5.7,2.2,11.4,4.7,17.1,6.8c1.6,0.6,3.2,1.2,4.6,2.2c3.1,1.9,6.4,3.5,10.1,3.8
	c2.1,0.2,4.2-0.4,6-1.9C336,454.3,336.8,453.2,338.3,453.7z"/>
<path class="st88" d="M223.7,445.4c0-0.2,0-0.3,0-0.5c1.5-0.2,1.9-1.4,2.6-2.5c2-3.2,4.1-6.3,7.6-7.9c0.4,2.6,1.3,4.3,4.5,4.1
	c0.9-0.1,2,1.4,2.7,2.3c2.3,3,2.2,3.1,5.6,3.2c0.5,0.7,0.2,1.5,0.3,2.3c0.2,0.9,0.7,1.8,1.5,1.5c2-0.6,2.5,1.1,3.7,1.8
	c1,0.6,1.6,1.9,3.2,1.4c1-0.3,1.3,0.8,1.6,1.4c0.7,1.3,1.5,2,3.2,2c2.2,0,4.1,1.4,6.5,1.4c1.3,0,0.5,2,1,3.2
	c2.6-1.3,5.4,0.4,8.1-0.3c0.4-0.1,0.8,0.3,1.1,0.7c0.3,0.4,0.5,0.8,0.8,1.1c1.2,1.3,1.4,1.6,1.1,3.8c-0.2,1.4,0.2,1.9,1.5,1.9
	c0.3,0,0.7,0,1,0.1c0.3,0.1,0.6,0.4,1,0.7c-0.6,1.1-2.2,1.3-2.5,2.6c0.8,1.6,2.8,1.6,3.9,3c1,1.3,2.6,2.3,3.6,3.6
	c1,1.4,3.3,0.9,4.2,3.2c-2.2-0.5-3.9-0.6-5.6-1.4c-4.6-2.3-9.7-3.6-14.5-5.1c-5.2-1.6-10.6-2.9-15.8-4.2c-2.5-0.6-5.1-1-7.7-1.4
	c-1.4-0.2-2.7-0.5-3.8-1.3c0.5-0.8,1.3-0.9,2.8-0.7c-2.8-0.8-3.2-2.5-3.4-4.4c-0.4-3.7-1-4-4.7-4.7c-4.3-0.8-8.7-1.2-12.9-2.9
	c-3.2-1.3-4.3-3.5-3.2-6.5C223,446.3,223.6,446.1,223.7,445.4z"/>
<path class="st89" d="M223.7,446.2c0,0.3-0.1,0.7-0.1,1c-0.1,0.8-1.5,1.6-0.5,2.4c1.1,0.8,1.3,2.2,2.7,2.8c3.8,1.8,8.2,0.8,11.9,3.1
	c1.6-0.9,2.9,0.3,4.4,0.6c1.8,0.4,2.7,1.4,2.5,3.3c0,0.4,0.1,0.9,0,1.3c-0.3,2.4,0.9,3.7,3.1,4.2c0.5,0.1,1.3,0.1,1.1,0.9
	c-0.2,1-0.9,0.6-1.6,0.5c-1-0.1-2-0.1-3-0.2c-4.3-0.8-8.8-0.4-13.2-1.4c-1.4-0.3-2.3-0.8-3.3-1.9c-2-2-4.1-3.8-5.5-6.4
	c-0.9-1.7-1.6-3.2-1.1-5.1c0.3-0.8-0.1-1.3-0.8-1.6C219.8,446.9,221.3,446.1,223.7,446.2z"/>
<path class="st88" d="M249.7,425.6c0,1,0.6,1.6,1.5,2.1c4.4,2.2,8.5,5.1,13.6,5.9c1.5,0.2,2.6,1.6,4.3,1.7c1.2,0.1,0.5,1.7,1.2,2.4
	c-1.8,0.3-3.4,0.6-4.2-1.4c0-0.1-0.1-0.2-0.2-0.3c-1-1.2-2.4,0.4-3.5-0.6c-0.9-0.8-1.5-2.1-3.1-1.1c-0.2,0.1-0.4,0.2-0.6,0.2
	c-1.8-0.1-1.8-2.8-3.5-2.6c-1.6,0.2-2.9,0.3-3.6-1.5c-0.2-0.5-0.7-0.8-1.1-0.7c-2.2,0.6-3.4-1.2-4.9-2.1c-0.5,0-0.9,0-1.4,0.1
	c-2.1,0.8-3-0.8-4-2c0.6-1,1.3-1.9,1.9-2.9C245.3,421.5,247.4,422.4,249.7,425.6z"/>
<path class="st77" d="M223.7,446.2c-1.4,0.9-2.7,1.9-3.4,3.4c-1.5,4.4-0.3,8.5,3.4,11.7c0.5,0.4,1.3,0.8,1,1.5
	c-0.3,0.7-1.1,0.6-1.7,0.6c-2-2.4-3.6-5-5.6-7.5c-1.7-2.1-1-4.4-0.6-6.4c0.2-1.2,0.8-3.1,1.6-3.7c1.6-1.2,1.2-2.1,0.5-3.4
	c1.9-0.9,2.5,0.8,3,1.8c0.5,1,0.9,1.5,1.9,1.2c0.1,0.2,0.2,0.4,0.2,0.5C223.9,446,223.8,446.1,223.7,446.2z"/>
<path class="st0" d="M240.3,425.7c0.8-0.1,1.6,0,2,0.8c0.4,0.7,1.1,1.1,1.9,1.2c0.7,1.5-0.1,2.5-1.3,1.8c-1.6-1.1-1.9-0.6-2.1,0.8
	c-0.1,0.8-0.2,1.6-1.5,1.8c-0.7-1,0.4-2.1,0.1-3.1c-0.5-0.7-0.5-1.4,0-2.1C239.7,426.5,240,426.1,240.3,425.7z"/>
<path class="st88" d="M282.9,465.1c1.1,0.3,2,0.8,3.1,0.3c0.6-0.3,1.3-0.3,1.7,0.5c0.2,0.4,0.4,0.8,0.2,1.3
	c-0.5,0.9-1.1,0.2-1.7,0.2C284.7,467.3,283.1,467.7,282.9,465.1z"/>
<path class="st54" d="M134.3,459.3c4.3,0.1,8.7-0.6,13.1,0.6c-3.3,0-6.5,0-9.9,0C136.4,459.9,135.2,460.2,134.3,459.3z"/>
<path class="st0" d="M290.2,475.5c-1.3-0.6-2.1-1.4-2-2.8c0-0.5,0.3-0.9,0.8-1s1,0.2,0.9,0.7C289.6,473.5,290.5,474.3,290.2,475.5z"
	/>
<path class="st0" d="M320.4,472.9c-0.1,0.9-0.4,1.4-1.3,1.2c-0.5-0.1-0.8-0.5-0.8-1c0-1.1,0.9-0.8,1.5-0.9
	C320.4,472.2,320.6,472.3,320.4,472.9z"/>
<path class="st0" d="M300.3,473.5c-0.9,1.2-1.7,1.7-2.7,1.1c-0.1-0.1-0.2-0.4-0.1-0.6C298.1,472.8,299,473.4,300.3,473.5z"/>
<path class="st54" d="M121.9,458.5c0.9,0,1.8,0,2.7-0.1c1.2,0.2,2.5-0.3,3.5,0.7C126.2,459.1,123.9,459.9,121.9,458.5z"/>
<path class="st88" d="M285.5,468.9c0,0.4-0.3,0.5-0.6,0.5c-0.4,0-0.9-0.2-1-0.7c-0.1-0.4,0.2-0.5,0.6-0.5
	C285,468.3,285.3,468.5,285.5,468.9z"/>
<path class="st54" d="M130.2,459.3c0.9-1.6,1.9-1,2.8,0C132.1,459.3,131.1,459.3,130.2,459.3z"/>
<path class="st88" d="M251.6,445.4c-0.2,0.3-0.4,0.4-0.6,0.2c-0.2-0.2-0.4-0.5-0.4-0.8c0-0.2,0.3-0.3,0.5-0.1
	C251.3,444.9,251.4,445.2,251.6,445.4z"/>
<path class="st88" d="M239.4,426.9c0,0.7,0,1.4,0,2.1c-0.5-0.3-0.9-0.5-1.4-0.8C238.3,427.7,238.8,427.2,239.4,426.9z"/>
<path class="st88" d="M269.5,457c-0.2-0.5-0.4-0.8-0.3-0.8c0.2-0.2,0.4-0.4,0.6-0.6c0.1,0.2,0.2,0.4,0.2,0.5
	C270,456.4,269.8,456.6,269.5,457z"/>
<path class="st0" d="M290.6,467.3c-0.1,0.2-0.1,0.4-0.2,0.5c-0.1,0-0.3-0.1-0.5-0.2c0.1-0.2,0.1-0.4,0.2-0.5
	C290.2,467.1,290.4,467.3,290.6,467.3z"/>
<path class="st88" d="M235.2,434c0.2,0.4,0.4,0.6,0.5,0.9c0,0.1-0.1,0.3-0.2,0.5c-0.2-0.2-0.5-0.4-0.7-0.6
	C234.7,434.7,234.9,434.4,235.2,434z"/>
<path class="st88" d="M234.6,432.5c0.3-0.7,0.7-1.1,1.4-1.4C236.5,432.4,235.3,432.2,234.6,432.5z"/>
<path class="st0" d="M304.4,468c-0.1,0.1-0.2,0.3-0.3,0.4l-0.2-0.1c0-0.2,0-0.3,0-0.5C304.1,467.8,304.2,467.9,304.4,468z"/>
<path class="st90" d="M338.3,453.7c-0.5,0.4-1.2,0.7-1.5,1.3c-2.1,3-5.6,3.7-8.4,3.2c-3.4-0.6-7.1-1.7-9.9-4.3
	c-0.1-0.1-0.1-0.2-0.1-0.3c-0.9-1.8,0.5-3,1.4-4.2c3.6-4.9,6.9-10.1,10.9-14.8c0.9-1.1,1.6-2.4,2.2-3.8c1.5-1.8,3-3.7,4.1-5.7
	c0.6-0.5,1.2-1.1,1.7-1.7c4.6-6.2,8.1-13.2,12.4-19.7c1.4-2.2,2.7-4.5,5.1-5.9c5.7,1.6,11.1,3.8,16,7.1c-0.7,2.5-2.1,4.8-3.4,6.8
	c-2,3.1-3.8,6.2-5.8,9.4c-1.8,2.7-3.7,5.3-5.9,7.6c-0.5,0.5-0.8,1.1-1,1.8c-0.4,1.2-0.6,2.5-2.1,2.7c-0.3,0.1-0.7,0.4-0.7,0.7
	c-0.5,2.3-2.9,3.2-3.8,5.4c-0.9,2.1-3.2,3.6-4.5,5.8c-1.3,2.3-3.7,4-4.1,6.9C340.4,453.5,338.7,452.6,338.3,453.7z"/>
<path class="st91" d="M305.4,425c-3.5,2.9-7.5,5.5-9.5,10c-1.8,4.1-6,4.3-9.6,3.2c-1-0.3-1.9-0.7-2.8-1.1c-3.2-1.3-3.8-2.9-2.2-6.1
	c0.3-0.6,0.7-1.2,0.6-1.9c-0.9-1.4,0.3-2.2,0.7-3.3c1.5-3.9,5.1-6,7.4-9.2c1.1-0.9,1.4-2.4,2.3-3.4c0.3-0.4,0.6-0.7,0.9-1.1
	c3.5-4.6,6.5-9.6,10-14.2c3.6-4.9,6.8-10.2,10.7-14.9c0.4-0.5,0.7-1.2,1.6-1l0.1,0.1c0.6,0.5,1.3,0.1,1.9,0.4
	c4.8,1.2,9.4,3.1,13.9,5.2c1.1,1.3,1.1,3,0,4c-3.2,2.7-4.5,6.6-6.8,10c-1.7,2.5-3.5,4.9-5.3,7.4c-0.8,0.7-1.3,1.6-1.7,2.5
	c-0.5,0.9-1.3,1.6-2,2.3c-0.5,0.5-1,1-1.5,1.5c-0.7,0.6-1,1.3-1.3,2.2c0.3,3.1-3,4.4-3.7,7.1C308.7,425.5,306.8,425.6,305.4,425z"/>
<path class="st92" d="M315.6,381.6c-0.5,1.2-0.8,2.2-2,3.2c-1.3,1.1-2.5,2.9-3.1,4.5c-0.9,2.2-3.5,3.3-3.5,5.9
	c0,0.4-0.9,0.9-1.5,1.3c-0.4,0.3-1,0.4-1.1,0.7c-1,4-4.5,6.5-6.2,10.2c-0.9,1.9-2.8,3.4-4.2,5c-2.5-4.2-7.3-3.7-11-3.9
	c-4.7-0.3-6.3-2.5-7.3-6.7c-0.9,1.3-0.9,3.2-2.7,3.3c-2,0.1-3.8,0.1-5.3-1.5c-0.2-0.7,0.2-1.1,0.8-1.4c0.6-0.3,1.3-0.3,1.9-0.5
	c0.2-0.1,0.4-0.3,0.6-0.4c0.3-0.4,0.5-0.9,0.7-1.4c3.6-3.3,6.8-6.9,8.3-11.8c0.9-0.7,2-1.2,2.6-2.1c1.2-1.9,2.4-1.7,3.6-0.2
	c0.3-0.3,0.6-0.5,0.6-0.5c-2-3.5,0.7-6.1,1.9-8.9c0.5-1.2,0.7-2.6,1.5-3.7c0.2,0.6,0.3,1.5,1.2,0.7c0.8-0.7,1.1-1.9,2.3-2.2
	c1.4,1.1,2.9,1.7,4.6,2.1c4.7,1.3,9.4,2.9,13.7,5.3C313.3,379.5,315.4,379.3,315.6,381.6z"/>
<path class="st93" d="M318.3,408.3c0.8-0.6,1.5-1.3,1.7-2.4c0.2-0.9,0.6-1.8,1.5-2.2c1.1-0.5,1.5-1.2,1.6-2.3c0.1-1,0.6-1.7,1.5-2.2
	c0.9-0.5,1.2-1.2,1.3-2.2c0-1,0.1-2.1,1.5-2.2c0.2,0,0.6-0.2,0.6-0.2c-1-2.7,1.7-2.5,2.7-3.6c0.7-0.7,0.5-2.3,0.7-3.5
	c3.1-0.8,5.7,0.9,8.4,1.9c4.9,1.8,9.8,4.1,14.7,6.1c1.2,0.5,0.9,1.7,1.6,2.4c0,0.7,0.1,1.5-0.4,1.9c-3.6,2.9-5.3,7-7.3,11
	c-0.7,1.3-1.8,2.3-2.6,3.5c-2.4,3.2-3.1,7.5-6.6,10.1c-0.3,0-0.7,0-1,0.1c-3,0.6-6.1,1.5-5.8-3.6c0.1-1.5-1.9-1.2-3.1-1
	c-3.6,0.4-3.6,0.4-3.2-3.3c0.1-0.8,0.1-1.6,0.1-2.4c0-1.6-0.4-2.7-2.4-2.3C320.8,412.1,319.4,410.4,318.3,408.3z"/>
<path class="st92" d="M317.6,382.1c-0.7,0.1-1.4,0.2-1.9-0.4C316.4,381.6,317.1,381.4,317.6,382.1z"/>
<path class="st1" d="M311.4,511.2c3.7,1.4,7.6,0.6,11.6,1.1c0.6,0.1,1.2,0.2,1.2,0.9s-0.6,0.9-1.2,1c-0.2,0-0.5,0.1-0.7,0
	c-3.7-0.7-7.5-0.4-11.2-1.3c-0.5-0.1-1.3-0.2-1.2-0.9C309.8,511.1,310.7,511.1,311.4,511.2z"/>
<path class="st1" d="M341.5,515.5c-4.8,1.5-9.2,0.8-14.3-0.4c1.8-1.5,3.3-0.7,4.7-0.7c1.7,0,3.3,0,5,0
	C338.5,514.4,340.1,513.4,341.5,515.5z"/>
<path class="st1" d="M306.4,510.8c-4.4,1-8.6-0.4-13-1.2c2.2-2,4.4-0.2,6.6-0.1C302.1,509.5,304.5,509.2,306.4,510.8z"/>
<path class="st1" d="M208.4,496.6c4.6-0.2,8.5-0.3,12.5-0.1c0.5,0,0.9,0.4,0.8,0.9c0,0.3-0.4,0.5-0.7,0.7c-0.3,0.2-0.7,0.4-0.9,0.3
	c-3.4-1-7-0.2-10.5-0.7C209.3,497.6,209.2,497.4,208.4,496.6z"/>
<path class="st1" d="M256.1,502.1c-0.9,1.2-2,1.5-2.9,1.1c-2.9-1.1-6.3,0.1-8.9-2.4C248.2,500.7,252,501,256.1,502.1z"/>
<path class="st1" d="M239.2,499.6c-3.1,1.4-7.5,1-10.9-0.8C230.2,497.6,231.8,497.7,239.2,499.6z"/>
<path class="st1" d="M162.6,496.5c1.9-1,3.7-1.1,6.3-0.1C166.3,497.4,164.4,497.1,162.6,496.5z"/>
<path class="st53" d="M143.4,495.9c2.1-0.3,4.3-0.4,6.4,0.1C147.8,496.4,145.7,496.5,143.4,495.9z"/>
<path class="st53" d="M130,494.6c-1.1,0.3-2.3,0.5-3.8-0.3C127.8,493.1,128.9,494,130,494.6z"/>
<path class="st94" d="M232.4,356.9c0.5-2.3,0.6-2.5,2.4-1.8c2.3,0.9,4.5,2,6.8,3.1c2.5,1.3,2.6,1.4,4.5-0.8c1.2-1.4,2.1-1.1,3.4-0.3
	c3,2,5.5,4.6,8.3,7c3.9,3.3,7.4,6.9,11.7,9.9c0.5,0.4,0.9,0.9,1.5,1.3c0.6,0.5,1.2,1,1.9,1.6c0.7,0.3,1.1,0.8,0.7,1.5
	c-0.4,0.8-1.1,0.9-2,0.7c-1.5-0.3-2.9-1-4.4-1.5c-10.9-5.9-21.8-11.8-32.6-17.8C233.6,359.2,232.2,358.6,232.4,356.9z"/>
<path class="st95" d="M279.9,388.3c0.6,0.1,1.3,0.3,0.9,1c-2.4,4.3-4.5,8.9-9.1,11.5c-0.3,0.5-0.1,1.1-0.5,1.5l-0.1,0.1
	c-0.6,0.4-1.5,0-2.1,0.5c-0.5,0.1-1.1,0-1.2,0.7c0.6,1.5,0.1,2.4-0.7,3.9c-2.8,4.9-7,8.5-10.1,13.3c-1.3,2.1-2.5,5.6-6.4,4.6
	c-0.2,0.1-0.4,0.1-0.7,0.2c-0.4-0.1-1,0-1.3-0.3c-1.7-1.9-3.9-2.5-6.3-2.5c0.2-1.2,0.9-1.9,2.1-2.1c5.3,1.2,8.2-1.3,11.3-5.6
	c2.8-3.9,5.3-8.3,9.4-11.5c0.7-0.5,1-1.3,1.5-2c3.4-2.6,5.7-6,8.3-9.5c0.7-0.9,0.4-2.3,1.2-3.1C277.3,389.3,278.6,388.9,279.9,388.3
	z"/>
<path class="st96" d="M232.4,356.9c1.8,1.9,4.1,2.8,6.3,4c9.6,5.3,19.2,10.6,28.9,15.9c1,1.1,2.9,1.1,3.4,2.8
	c-0.1,0.8-0.5,1.5-1.3,0.8c-3.8-3.1-9-3.8-12.8-7c-1-0.9-2.4-0.6-3.5-1.3c-6.8-3.8-13.9-7.1-20.5-11.2c-0.7-0.4-1.4-0.9-1.9-1.4
	c-0.6-0.6-0.6-1.5-0.2-2.2C231.1,356.4,231.7,356.6,232.4,356.9z"/>
<path class="st97" d="M271,379.6c-1-1.1-2.6-1.5-3.4-2.8c1.5,0.2,2.7,1.2,4.1,1.7c1.6,0.5,1.8-0.2,1.3-1.6c1.2-0.2,1.8,0.8,2.6,1.4
	c2.4,1.9,2.4,1.9,4.8,0.3c0.4,0.2,0.2,0.5,0.1,0.8c-2.7,4.8-3.9,5-8.1,1.1C272,380,271.6,379.6,271,379.6z"/>
<path class="st68" d="M247.1,373.6c-0.1,0.1-0.4,0.2-0.5,0.2c-0.2-0.2-0.4-0.4-0.6-0.7c0.2-0.1,0.4-0.2,0.5-0.2
	C246.9,373,247.2,373.2,247.1,373.6z"/>
<path class="st97" d="M271.1,375.3c-0.8-0.1-1.3-0.5-1.5-1.3C270.5,374,271,374.5,271.1,375.3z"/>
<path class="st8" d="M194.7,371.8c-2,1.4-4,2.9-6.7,2.2C190.1,373.1,192.3,372,194.7,371.8z"/>
<path class="st8" d="M198.8,370.4c-0.4,1.7-1.5,1.5-2.7,0.9C196.8,370.3,197.9,370.7,198.8,370.4z"/>
<path class="st8" d="M206.5,367.2c-0.5,0.8-1.3,0.8-2.1,0.7C205,367.3,205.6,367,206.5,367.2z"/>
<path class="st5" d="M185.9,367.9c0.2,0,0.4,0,0.6,0c0.4,0,0.9-0.1,0.9,0.5c0,0.1-0.1,0.2-0.2,0.3c-0.4,0.3-0.8,0.1-1.1-0.3
	C186.1,368.3,186,368.1,185.9,367.9L185.9,367.9z"/>
<path class="st98" d="M264.2,400.1c-0.6,1.2-1.2,2.4-2.2,0.3c0.6-0.5,1.3-0.8,2.1-0.9C264.1,399.7,264.2,399.9,264.2,400.1z"/>
<path class="st77" d="M234.6,385.1c-0.5-0.3-1.1-0.4-0.8-1.2c0.1-0.1,0.4-0.2,0.6-0.2C235.3,383.9,234.7,384.5,234.6,385.1
	L234.6,385.1z"/>
<path class="st98" d="M263.4,398.1c-0.3,0.5-0.8,0.6-1.3,0.7C262.1,397.5,262.8,397.8,263.4,398.1z"/>
<path class="st98" d="M259.4,398.1c-0.4-0.4-1.4-0.5-0.7-1.4C259.2,397,259.3,397.5,259.4,398.1z"/>
<path class="st98" d="M261.4,398.7c-0.8,0-1.6,0-2.1-0.7C260.1,398.1,260.9,398,261.4,398.7z"/>
<path class="st15" d="M223.6,352.1c0.2-0.4,0.4-0.8,0.9-0.8c0,0,0.2,0.2,0.1,0.3C224.5,352,224.1,352,223.6,352.1L223.6,352.1z"/>
<path class="st15" d="M256.8,348.2c0.5,0.1,0.8,0.3,0.9,0.8c0.1,0.4-0.3,0.5-0.6,0.4c-0.4-0.2-0.9-0.3-0.8-0.9
	C256.3,348.4,256.6,348.4,256.8,348.2z"/>
<path class="st99" d="M298.1,365c0.1-1.4,0.2-2.2,0.3-3.1c0-0.5,0.2-0.9,0.8-0.9c0.5,0,0.9,0.4,1,0.8
	C300.7,363.3,299.8,364.1,298.1,365z"/>
<path class="st98" d="M235.2,392.6c0.6,0.4,1.4,0.7,1.9,1.2c0.9,0.9,1.8,1.5,3.2,1.1c1-0.2,0.4,0.7,0.4,1.1l0,0c2.8-0.3,5.4,0,7.1,3
	c0.6-2.5-1.7-2.8-2.4-4.1c1.1-0.5,1.9,0.5,2.8,0.8c1.2,0.5,2.3,1.4,3.8,0.3c0.6-0.4,2.2-0.2,2.1,0.9c-0.4,3.5,2.9,3.2,4.5,4.1
	c1.1,0.7,2.4,0.4,1.9,2.3c0,0.2,0.9,0.6,1.3,0.9c0,2.1-2,2.5-3.2,3.6c-3.4,2.9-6.9,5.6-10.3,8.5c-0.8,0.7-1.7,1.6-2.9,1.6
	c-4.1,0.7-7.5-1.5-11-3.2c-1.9-1-2.6-2.8-2.1-4.9c0.3-1.3-0.5-1.6-1.2-1.3c-1.5,0.6-2.5,0.1-3.8-0.5c-1.2-0.7-2.6-0.5-3.8,0.2
	c-0.4,0.2-0.9,0.1-1.2-0.4c-0.3-0.7,0.2-0.7,0.7-1c1.2-0.7,0.8-2.8-0.5-3.7c-2.4-1.5-2.3-2.8,0.5-4.3c-1.3-0.4-2.4-1.5-2.9,0.6
	c-0.2,1-1,1.1-1.7,1.3c-0.8,0.3-1.8-0.2-2.6,0.3c0.5,0.8,1.6,1.7-0.2,2.2c-1,0.3-2,1-3.2,0.7c0-0.3-0.1-0.5,0-0.7
	c0.5-1,2.2-1.5,1.6-2.7c-0.5-1.3-2.1-1-3.3-1.1c0.7-2,3.5-1.6,4.2-3.6c0.2-0.7,1.3,0,1.8,0.3c1,0.7,1.9,0.8,3.1,0.4
	c2-0.7,4.2-0.6,6.2,0.1c0.4-1.2-0.6-1.2-1-1.6c-0.5-0.4-0.9-0.7-0.6-1.4c0.2-0.5,0.8-0.5,1.2-0.4c1.3,0.4,1.9-0.7,2.8-1.1
	c-0.5-1.5-1.8-0.2-2.4-1.1c-0.1-0.5,0.3-0.6,0.6-0.7c1-0.3,1.9-1.1,3.1,0.1c0.8,0.9,1.9,1.9,3.5,0.8
	C234.1,391,234.9,391.9,235.2,392.6c-0.6,0.8-1.5,1.3-2.8,1.5C234,394.2,234.6,393.3,235.2,392.6z"/>
<path class="st100" d="M245.6,418c5.1-5,10.7-9.6,16.5-13.7c1,0.1,1.9-0.2,2.8-0.7c-2,3.7-4.2,7.4-7.3,10.4
	c-1.9,1.8-2.9,4.2-4.5,6.2c-1.5,1.9-3,2.2-5,1.8c-1.3-0.3-2.7-0.2-3.7-1.3C244.7,419.8,245.6,419.1,245.6,418z"/>
<path class="st78" d="M159.8,436.9c-0.9,0.6-1.4,0-2.1-0.5c0.2-0.8,0.8-0.5,1.3-0.4C159.4,436,159.8,436.3,159.8,436.9z"/>
<path class="st78" d="M166.4,436.1c0.2,0.2,0.7,0.3,0.8,0.7c0.1,0.3-0.3,0.4-0.6,0.4c-0.4,0-0.9,0-1-0.6
	C165.6,436.2,165.9,436.1,166.4,436.1z"/>
<path class="st78" d="M156,436.4c0,0.2-0.1,0.4-0.4,0.3c-0.1,0-0.2-0.1-0.2-0.2c-0.2-0.2-0.1-0.4,0.2-0.4
	C155.8,436.1,155.9,436.3,156,436.4z"/>
<path class="st68" d="M214.9,390.4c-0.3-0.1-0.4-0.2-0.2-0.3c0.1-0.1,0.4-0.1,0.5-0.1c0.1,0,0.1,0.1,0.2,0.2
	C215.2,390.3,215.1,390.4,214.9,390.4z"/>
<path class="st77" d="M202.4,416.6c1.1,0.8,2.6,1.3,0.7,2.9c-0.7,0.6-0.6,1.9-2,2.3c-0.4-1.3-1.1-2.6-3-2.6c0.8-1.3,1.8-1.4,2.8-1.4
	C201.7,418,202.2,417.6,202.4,416.6L202.4,416.6z"/>
<path class="st77" d="M204.1,430.1c1.6,1.7,4.3,0.4,6.1,2.2c0.7,0.7,0,0.9-0.1,1.4c-0.2,0.9-0.7,0.7-1.2,0.3
	c-1.4-1.4-3.1-2.2-5.1-2.3c-0.2,0-0.5-0.4-0.6-0.7C203.3,430.6,203.6,430.4,204.1,430.1z"/>
<path class="st77" d="M219.7,440.3c-2.7,0.3-3.6-1.5-4.5-3.4c1.1-1.5,2.4-0.7,3.6-0.2c0,0.8-2.3,0-1,1.5
	C218.3,439,219.4,439.1,219.7,440.3z"/>
<path class="st77" d="M204.4,426.3c1.1,1.4,3.2,0,4.3,1.6c-1.4,1.3-3-0.7-4.2,0.5C204.1,427.7,203.5,427,204.4,426.3L204.4,426.3z"
	/>
<path class="st77" d="M197.9,424.9c1.5,0.7,2.8,0.7,3.8,1.8C198.4,427.1,198.4,427.1,197.9,424.9z"/>
<path class="st77" d="M211.8,435.7c0.5,0.2,0.7,0.5,0.6,1c-0.1,0.6-0.5,0.9-1.2,0.8c-0.3-0.1-0.7-0.4-0.7-0.5
	C210.7,436.3,211.1,435.8,211.8,435.7z"/>
<path class="st77" d="M187.9,444.8c0.7,0.7,1.2,1.6,0.6,2.6c0,0.1-0.5,0.1-0.6,0C186.7,446.6,187.6,445.7,187.9,444.8L187.9,444.8z"
	/>
<path class="st77" d="M205.5,433.9c-0.2,0.3-0.5,0.4-0.8,0.2c-0.3-0.1-0.5-0.4-0.3-0.7c0.1-0.1,0.4-0.2,0.5-0.2
	C205.3,433.3,205.5,433.5,205.5,433.9z"/>
<path class="st77" d="M204.4,426.3c-0.1-0.4-0.5-0.8,0-1.1c0.5-0.3,0.9,0.3,1.4,0.4l0,0C205.5,426.1,205,426.3,204.4,426.3
	L204.4,426.3z"/>
<path class="st77" d="M198.4,424.1c-0.3-0.1-0.6-0.2-0.6-0.6c0-0.1,0.3-0.2,0.5-0.2c0.3,0.1,0.6,0.2,0.6,0.6
	C198.9,424,198.5,424.1,198.4,424.1z"/>
<path class="st77" d="M209.4,455c-0.3-0.1-0.4-0.2-0.2-0.4c0.1-0.1,0.4-0.1,0.6-0.1c0.1,0,0.1,0.1,0.2,0.2
	C209.8,454.8,209.6,454.9,209.4,455z"/>
<path class="st77" d="M218.2,435.2c0.2,0,0.4,0,0.6,0c0.3,0,0.7,0,0.6,0.4c-0.1,0.3-0.5,0.2-0.8,0
	C218.5,435.5,218.3,435.3,218.2,435.2L218.2,435.2z"/>
<path class="st101" d="M318.3,408.3c0.7,0.4,1.5,0.7,2,1.2c1.1,1.3,2,2,3.6,0.7c0.8-0.7,1.8,0,2.6,0.4c0.9,0.4,0.3,1.2,0.3,1.8
	c0.1,2.2,0.6,4.4-0.8,6.4c1.3,0.5,2.2,0,2.9-0.4c1.5-0.7,2.7,0,3.9,0.5c0.9,0.3,1.3,1,0.7,1.9c-0.8,1.2-0.2,2.4,0.2,3.8
	c1.7-1.4,3.4-2.4,5.1-0.4c-0.3,0.6-0.7,1.1-1.4,1.3c-1.4,1.4-3,2.6-5.4,2.3c1.6,0.7,1,2.1,1.2,3.3c0.5,2.1-1.3,3-2.2,4.3
	c-1.5,2.4-3.4,4.5-5,6.8c-2.6,3.8-5.7,7.2-7.8,11.4c-7.1-2.9-14.4-5.7-21.5-8.6c-0.6-0.2-1.3-0.4-1.8-0.8c-2.3-1.5-2.3-2.6-0.1-4
	c2.1-1.4,2.7-3.9,4.3-5.6c0.8-0.9,0.8-2.4,2.3-2.7c0.5-2.7,4.1-3.7,3.9-6.8c0.5-0.4,1-0.9,1.8-0.8c1,0.1,1.8,0.2,1-1.3
	c-0.2-0.3,0.4-1,0.5-1.5c0.3-1.3,2.6-0.9,2.4-1.9c-0.3-1.4,0.4-2,1.1-2.9c1.3-1.1,2.5-0.8,3.5,0.3c1.9,2,1.1-0.5,1.6-0.9
	c0.9-1.2,2.2-1.9,3.6-2.2c-1.4-0.7-2.8-1.3-3.9-2.6C316.9,410,317.2,408.9,318.3,408.3z"/>
<path class="st102" d="M250.4,425.5c0.6-1.6,2.1-0.2,3-0.8c0-2.9,0-2.9,3-3.6c-0.4-1.5-0.8-3.2,1.6-3.5c0.8-0.1,1.2-0.6,1.2-1.4
	c0-1.2,0.6-1.9,1.7-2.2c0.5-0.1,1-0.4,0.9-0.8c-0.8-2.8,1.3-2.6,2.9-2.8c0-1,0-1.7,0-2.5c0.1-1.2,0-2.3,1.9-1.6
	c1.1,0.5,0.9-0.3,0.5-1c-0.3-0.6,0.3-1,0.5-1.5c2,0,4,1.6,6.1,0.4c-0.7-2.9-0.7-2.9,3.2-3.2c-0.7,2.9,0.2,5.1,2.8,6.5
	c0.4,0.2,1,0.7,1.1,0.6c1.5-1.3,2.9,0.2,4.3,0.1c1.5-0.1,2.9,0.8,4.5,0.1c1.2-0.5,3.3,2.1,3.9,4.4c-0.3,0.2-0.5,0.5-0.8,0.7
	c-1.5,0.5-2.4-0.7-4-1.2c1.2,1.4,3.6,2.2,2,4.4c-1,1.5-2.1,2.9-3.1,4.4c-0.4,0.6-0.7,1.2-1.6,0.7c-0.3-0.2-0.7-0.2-0.7,0.3
	c0.2,2.5-1.7,3.7-2.9,5.4c-0.3,0.4-0.4,1-0.6,1.6c-1.7,0.2-3.5,0.3-2.9,2.8c0.1,0.2-0.2,0.6-0.5,0.9c-1.1,1.1-1.6,1.8-1.8,2.8
	c-0.1,0.3-0.2,0.7-0.3,1l0,0c-5.3-1.9-10.4-4.7-15.8-6.4C257.1,428.9,253.6,427.3,250.4,425.5z"/>
<path class="st91" d="M276.5,436.4c0.3,0.1,0.6,0.1,0.9,0.3c0.4,0.2,0.9,0.4,0.5,0.9c-0.3,0.4-0.8,0.1-1.1-0.2
	C276.6,437.1,276.6,436.8,276.5,436.4C276.4,436.5,276.5,436.4,276.5,436.4z"/>
<path class="st88" d="M240.5,456.7c0.6,0.3,1.4,0.4,1.3,1.2c0,0.5-0.6,0.7-1,0.7c-0.9,0.1-1.2-0.5-1.2-1.2
	C239.6,457,239.9,456.7,240.5,456.7z"/>
<path class="st93" d="M333.5,431c-1.3-2.3-1.3-2.3-3.8-2.5c0.9-2.3,3.3-1.2,4.6-2.4c1.5,1.2,1.7,0.1,2.1-1.1c0.3-0.7,0.8,0,1.1,0.5
	C336.7,427.7,335.7,429.8,333.5,431z"/>
<path class="st103" d="M335.6,446.1c-1-0.2-1.8-0.8-1.8-1.7c0-1.1,1-1.7,2.1-1.6c1,0.1,1.7,0.7,1.5,1.8
	C337.3,445.6,336.5,445.9,335.6,446.1z"/>
<path class="st104" d="M346.5,432.2c0,1.1-0.8,1.5-1.8,1.5c-1,0.1-1.7-0.5-1.7-1.6c0-1,0.7-1.3,1.6-1.3
	C345.5,430.8,346.4,431,346.5,432.2z"/>
<path class="st105" d="M355.3,420c-0.1,0.9-0.7,1.4-1.6,1.5c-0.9,0-1.6-0.4-1.6-1.4c0-0.8,0.3-1.4,1.1-1.4
	C354.2,418.5,355,418.9,355.3,420z"/>
<path class="st106" d="M362.9,408.9c-0.1,0.5-0.4,0.9-0.9,0.9c-1,0.1-1.7-0.4-2-1.4c-0.2-0.7,0.3-1.1,0.9-1.1
	C362,407.3,362.6,408,362.9,408.9z"/>
<path class="st93" d="M317.1,411.2c0.9,0.1,2-0.2,2.5,0.7c0.8,1.5,2.7,1,3.9,2.9c-2.5-0.8-3.9,1.1-5.8,1.2c-0.1-0.1-0.2-0.2-0.3-0.3
	c-0.4-1.3-2-1.4-2.5-2.6C315.5,412.3,316.2,411.5,317.1,411.2z"/>
<path class="st92" d="M290.9,416.5c-0.1-1.6-0.4-2.9-2.5-2.9c-1.1,0-1.7-0.7-1.2-1.8c0.4-1.2,1.2-1.6,2.4-0.9
	c1.1,0.7,2.2,1.5,3.4,2.3C292.3,414.3,292.6,416,290.9,416.5z"/>
<path class="st93" d="M317.7,415.9c0,0.4,0,0.9,0.1,1.3c0.1,0.6,1.4,1.2,0.2,1.8c-0.8,0.4-1.9,0.4-2.2-0.7c-0.6-1.9-2.1-1.7-3.5-1.8
	c0-0.9,0.5-1.6,1.3-2C315.2,414.3,316.7,414.6,317.7,415.9L317.7,415.9z"/>
<path class="st101" d="M317.7,415.9c-1.5,0-3-0.3-4.1-1.4c0.4-0.6,0.6-1.2,1.3-1.5c0.6,0.1,1.1,0.1,1.7,0.2
	C318.3,413.6,318.5,414.6,317.7,415.9z"/>
<path class="st107" d="M293.8,429.2c0,1-0.7,1.3-1.6,1.3s-1.9-0.1-2-1.2c-0.1-1.1,0.8-1.5,1.7-1.6
	C293,427.6,293.6,428.2,293.8,429.2z"/>
<path class="st108" d="M303.4,416.3c-0.1,1.1-0.7,1.7-1.7,1.6c-0.8,0-1.6-0.3-1.7-1.2c-0.1-1.1,0.8-1.5,1.7-1.6
	C302.6,415,303.2,415.3,303.4,416.3z"/>
<path class="st109" d="M312.9,403.6c-0.1,1-0.7,1.4-1.5,1.4c-0.9,0.1-1.5-0.3-1.7-1.2c-0.1-0.9,0.4-1.5,1.3-1.6
	C311.9,402.1,312.7,402.4,312.9,403.6z"/>
<path class="st110" d="M319.6,389.7c0.8,0,1.5,0.3,1.5,1.3c0,0.5-0.4,0.8-0.9,0.9c-0.9,0.1-1.6-0.3-1.8-1.2
	C318.4,390.1,318.9,389.8,319.6,389.7z"/>
<path class="st102" d="M271.1,402.2c0-0.6,0-1.1,0.5-1.5C271.9,401.4,272.3,402.1,271.1,402.2z"/>
<path class="st102" d="M268.9,402.8c0.6-0.5,1.4-0.5,2.1-0.5C270.4,402.9,269.7,402.9,268.9,402.8z"/>
<path class="st77" d="M235.2,392.6c0.7,2.4-1.5,2.2-2.7,2.8c-1.5,0.8-1.8-0.7-2.7-1.6C231.7,392.8,233.6,393,235.2,392.6
	C235.3,392.6,235.2,392.6,235.2,392.6z"/>
<path class="st77" d="M229.9,407.3c-1.7-0.3-3.4-0.6-4.7-2.7C227.4,404.9,228.9,405.7,229.9,407.3z"/>
<path class="st77" d="M240.8,396c-0.2,0.1-0.3,0.3-0.5,0.4c-0.3,0.1-0.7,0.3-0.8,0c-0.1-0.4,0.4-0.3,0.7-0.3
	C240.4,396,240.6,396,240.8,396L240.8,396z"/>
<path class="st77" d="M217.5,399.7c-0.2,0.1-0.3,0.2-0.4,0.3c-0.1,0-0.2,0-0.3,0c-0.3-0.1-0.3-0.3,0-0.4
	C217,399.5,217.2,399.6,217.5,399.7z"/>
<path class="st77" d="M216.1,398.5c-0.2,0-0.4,0.1-0.6,0.1c-0.3-0.1-0.3-0.3-0.1-0.4c0.1-0.1,0.2,0,0.3,0
	C216,398.2,216.1,398.3,216.1,398.5z"/>
<path class="st93" d="M323.1,418.2c0.2,0.4,0.4,0.6,0.5,0.9c0,0.1-0.1,0.3-0.2,0.5c-0.2-0.2-0.5-0.4-0.6-0.6
	C322.7,418.9,322.9,418.6,323.1,418.2z"/>
<path class="st92" d="M276.7,407.2c-0.1,0.1-0.2,0.2-0.4,0.3c0,0-0.2-0.1-0.2-0.2c-0.1-0.2-0.1-0.4,0.2-0.4
	C276.4,406.8,276.6,407.1,276.7,407.2z"/>
</svg>
