<?xml version="1.0" encoding="utf-8"?>
<!-- Generator: Adobe Illustrator 25.4.1, SVG Export Plug-In . SVG Version: 6.00 Build 0)  -->
<svg version="1.1" id="Capa_1" xmlns="http://www.w3.org/2000/svg" xmlns:xlink="http://www.w3.org/1999/xlink" x="0px" y="0px"
	 viewBox="0 0 595.3 841.9" style="enable-background:new 0 0 595.3 841.9;" xml:space="preserve">
<style type="text/css">
	.st0{fill:url(#SVGID_1_);}
	.st1{fill:url(#SVGID_00000042696088985796668630000001853664527170743483_);}
	.st2{fill:url(#SVGID_00000110443341149348978650000006162595793360952455_);}
	.st3{fill:url(#SVGID_00000029746861595425329900000016270525502001606581_);}
	.st4{fill:url(#SVGID_00000051366694561929960090000012893595182146074800_);}
	.st5{fill:url(#SVGID_00000124147689206012394190000015195558192418024094_);}
	.st6{fill:url(#SVGID_00000051354939410521048460000004095459668392462734_);}
</style>
<g>
	<linearGradient id="SVGID_1_" gradientUnits="userSpaceOnUse" x1="5.8737" y1="349.272" x2="591.4951" y2="349.272">
		<stop  offset="0.25" style="stop-color:#4C006C"/>
		<stop  offset="0.4304" style="stop-color:#53006A"/>
		<stop  offset="0.8273" style="stop-color:#B9004E"/>
	</linearGradient>
	<path class="st0" d="M580.6,458.6c2.2,4.2,4.1,7.8,6.1,11.3c2.4,4.2,0.5,9.3-4.1,10.3c-22.9,5.1-45.8,10.4-68.7,15.3
		c-33,7-66.1,13.9-99.2,20.6c-2.6,0.5-5.8-0.4-8.5-1.2c-11.8-3.2-23.6-6.4-35.2-9.8c-7.7-2.2-15.3-5.1-23.3-6.7
		c-3.6-0.7-8.1,0.4-11.5,2.1c-13.8,7.3-28.3,10.3-43.7,6.6c-14.1-3.4-25.6-11.4-33.4-23.7c-4.2-6.5-7.6-13.4-10.8-18.9
		c-44.3-13.9-87.9-27.6-131.5-41.3C106.7,442,87,449.8,67,442.4c-5.7-2.1-10.6-7-15-11.3c-8.1-7.9-13-17.8-16.6-28.6
		c-2.2-6.7-7.5-12.2-10.6-18.7c-6.9-14.6-9.2-30.4-10.2-46.4c-0.1-1.5,1.6-3.7,3-4.6c1.8-1.1,4.3-1.4,6.4-1.9
		c8.1-1.9,8.3-2.3,5.9-10c-1-3.1-2.7-4.2-5.9-3.7c-4.6,0.8-6.8-1.3-8.2-5.5c-2.8-8.2-6-16.3-9.2-24.3c-1.8-4.7-0.2-8.8,4.2-8.4
		c12,1,24.9,0.1,35.6,4.2c13.9,5.4,28.2,5.9,42.2,8.5c14.7,2.7,30.1,2.5,44.8,5.5c7.9,1.6,14-1,20.9-2.9c5.3-1.4,11-1.8,15.7-2.5
		c0-3-0.5-6.2,0.1-9.3c2.9-17,6.2-33.9,9.3-50.8c0.4-2,0.8-4,1.4-5.9c3.7-12.9,3.6-13,16.5-19.7c15.9-8.2,33.1-13.2,50.9-15.8
		c9.2-1.4,9.4-1.1,13.5,7.5c9.6,20.7,18.2,41.9,29.1,61.9c5.2,9.5,5.1,17.9,3,27.3c-0.2,0.9-0.1,1.8-0.2,3.4
		c24.5,4.2,48.9,7.7,73.4,17.6c-3.8-6.7-6.5-12.8-10.4-18c-5.5-7.3-8.1-14.7-7.5-24.1c1.9-26.4,2.9-52.9,4.5-79.3
		c0.1-1.5,1.4-2.9,2.2-4.3c1.7,0.9,4.1,1.5,5,2.9c2.8,4.6,5.2,9.4,7.5,14.3c2.1,4.5,4.9,7.5,10.6,7.7c2.2,0.1,5.4,2.3,6.3,4.4
		c10.6,22.9,20.6,46,31.1,68.9c8.6,18.9,17.5,37.6,26.5,56.3c0.8,1.7,3.2,3.6,5.1,3.8c8.6,0.6,17.3,0.6,25.8,1
		c1.8,0.1,4.1,1,5.5,2.2c28.5,24.5,57,49.2,85.4,73.8c7.2,6.2,14.5,12.2,21.8,18.2c2.7,2.3,6.3,13.8,4.7,16.8
		c-0.7,1.5-2.4,2.6-4.1,3.4C585.7,457.1,583.4,457.6,580.6,458.6z M178.9,278.2c-0.5,0.1-1,0.2-1.5,0.3c0,2.6-0.7,5.5,0.1,7.8
		c7.7,21,15.5,42,23.9,62.8c1.6,4.2,4.9,9.1,8.6,10.9c12.2,5.7,25,10.1,37.6,15c6.8,2.7,7.2,4.1,3.6,10.6
		c-8,14.2-15.9,28.5-23.7,42.8c-1,1.8-0.7,4.4-0.9,6.6c0.5,0.1,1,0.1,1.5,0.2c1.4-3.2,2.6-6.5,4.5-9.5c1-1.7,2.8-3.9,4.5-4
		c6.9-0.3,9.3-5,11.6-10.2c0.7-1.5,1.4-3,2.2-4.5c5-8.7,6.1-9,16.1-7.1c17,3.1,33,8.9,48.6,15.7c4,1.7,8.6,3.8,11,7.1
		c7.7,10.9,14.6,22.4,21.5,33.8c4.5,7.4,8.7,14.8,19.2,14.7c2.6,0,5.4,1.5,8,2.5c8.2,3.3,16.3,5.2,24.5-0.7c1.6-1.2,3.8-1.6,5.7-2.4
		c7.6-3,7.9-4.1,2.3-10.3c-1.2-1.4-2.6-2.6-4-4c-7-7-14-13.9-20.7-21.2c-1.3-1.5-1.9-4.4-1.4-6.3c0.3-1,3.8-1.8,5.7-1.6
		c14,1.4,28,3,42,4.5c0.7,0.1,1.5-0.5,2.8-0.9c-4.1-3.7-7.5-7.1-11.2-10.2c-0.9-0.8-2.7-1-4.1-0.9c-11.8,1.5-23.5,3.2-35.2,4.5
		c-2.2,0.2-5.3-0.6-6.9-2.2c-6.2-6.1-12.1-12.5-17.9-19c-1-1.1-2-3.3-1.5-4.2c0.5-1.1,2.7-1.6,4.3-2c1.4-0.3,3,0,4.5-0.1
		c8.8-0.8,17.7-1.7,26.4-2.6c0.1-0.6,0.3-1.3,0.4-1.9c-5.6-4.6-11-9.5-16.8-13.7c-1.8-1.3-5.1-1.3-7.6-1c-3.9,0.4-7.6,2.3-11.5,2.4
		c-11.7,0.1-23.4-0.3-34.9-0.5c-1.8,0-3.8-0.1-5.5-0.7c-11.6-4.2-23.2-8.5-34.5-13.1c-1.5-0.6-3.4-3.1-3.1-4.5
		c1.7-12.6,4-25.1,5.8-37.6c1.8-12.4,3.1-25,5.3-37.4c1.4-8.3,2.1-16.1-2.3-23.7c-2-3.5-3.6-7.3-5.4-11c-8.3-17-16.8-34-24.8-51.1
		c-2.1-4.5-5-5.2-9.4-4.4c-15.4,2.8-30.2,7.8-44.3,14.5c-5,2.3-7.3,5.6-6,11.4c3,12.6,5.8,25.2,8.2,38c0.4,1.9-2.1,4.4-3.2,6.6
		c-1.7-1.2-4.2-2-5.1-3.6c-4-7.5-7.5-15.3-11.6-23.7c-0.7,1.7-1.1,2.5-1.4,3.4c-2.2,7.4,2.2,13.2,5.1,19.2c4,8.2,8.7,15.9,12.9,24
		c0.6,1.3-0.5,3.4-0.9,5.2c-1.4-0.7-3.4-1.1-4.1-2.3c-1.9-3.1-3.2-6.7-5-9.9c-3.2-5.8-6.6-11.6-10-17.4c-0.8,0.4-1.5,0.7-2.3,1.1
		c3.1,6.9,6.4,13.8,9.3,20.8c0.7,1.6,1.4,4.8,0.7,5.2c-2.7,1.7-5,0.4-6.2-2.5C181.2,283.3,180.1,280.8,178.9,278.2z M27,375
		c0.2,0,0.5-0.1,0.7-0.1c1.2-6.3,2.8-12.5,3.7-18.8c0.7-5.3,3.8-8.2,8.6-8.8c9.3-1.1,18.7-1.9,28-2.2c6.3-0.2,13.1,1.4,16.8,6.5
		c4.1,5.7,8.6,8.4,15.3,9c2.3,0.2,6.4,0,5.6,4.5c-0.8,4.6-4.4,2.9-7.1,2.5c-0.2,0-0.5,0.5-1.3,1.3c2.1,2.1,4,5.6,6.6,6.3
		c6.2,1.8,12.9,2.4,19.3,3.4c2.9,0.5,5.6,1.8,4,5c-0.6,1.2-4,1.9-5.9,1.6c-4.2-0.5-8.2-1.8-12.3-2.8c-0.3,0.4-0.6,0.8-0.8,1.3
		c1.8,2.6,3.1,6.6,5.7,7.6c7.6,3,15.6,5,23.7,7c2.7,0.7,5.8,0.9,4.7,4.4c-0.4,1.2-3.9,2.2-5.6,1.9c-5.6-1.2-11.1-3.2-16.8-4.9
		c1.4,6.9,6.3,8.3,12.2,10c11.9,3.5,23.3,8.4,34.7,13c1.6,0.6,2.6,2.8,3.9,4.3c-0.5,0.7-1,1.4-1.5,2.1c-12.9-4.2-25.8-8.5-38.7-12.7
		c1.2,3.2,2.7,6.4,5.1,7.2c14.6,5.4,29.4,10.1,44.1,15.4c6,2.2,10.6,2,13.9-3.8c2.7-4.7,6.8-4.9,11.6-3.5c4.1,1.2,8.2,1.9,12.3,2.8
		c0.3-0.5,0.5-1.1,0.8-1.6c-1.4-1.2-2.6-2.9-4.3-3.4c-15.3-5.5-30.7-11-46.2-16c-6.9-2.2-14-3.6-15.1-12.4c-0.1-1-1-1.9-1.7-2.8
		c-4.1-5.2-8.1-10.5-12.4-15.5c-2.2-2.6-4.8-5.2-7.6-7.2c-7.4-5-15-9.5-22.5-14.4c-1-0.7-1.5-2.2-2.2-3.4c1.4-0.6,2.7-1.6,4.2-1.8
		c0.9-0.2,2,0.7,3.1,1c7.2,2.1,14.2,4.6,21.5,6c7.6,1.4,11.2-1.5,14-8.7c1.8-4.7,0.1-7.2-4.3-8c-4.8-0.8-9.7-0.7-14.5-1.5
		c-2.2-0.4-4.3-1.9-6.3-2.9c1.7-1.3,3.5-3.6,5.3-3.8c7-0.8,14.2-1.3,21.2-1.1c3.6,0.1,6.7,0.3,8-3.2c1.5-4.2,7.1-7.9,1.6-13.3
		c-2.7-2.7-4.6-6.3-6.3-9.8c-0.7-1.5,0-3.7,0.1-5.5c2.1,0.6,4.9,0.5,6.3,1.8c5.8,5.5,12.3,9.4,21.7,11.2c-2.5-6.6-4.7-12.2-7-17.7
		c-0.3-0.6-1.5-1.2-2.3-1.2c-5.8,0.2-11.9-0.3-17.4,1.2c-25.5,7-50.8,14.6-76.3,21.8c-16.8,4.8-33.6,9.1-50.5,13.8
		c-7.7,2.1-8.3,2.6-7.1,10.4C22.9,355.8,25.1,365.4,27,375z M526.5,443.4c0.5-0.5,1-0.9,1.4-1.4c-1.2-0.6-2.5-1-3.6-1.8
		c-8.1-6.6-16.5-12.9-24.2-19.9c-20.4-18.2-40.8-36.4-60.7-55.2c-4.6-4.3-8.6-4.6-13.6-3.4c-13.3,3.2-26.6,6.7-39.8,10.1
		c-1.6,0.4-3.1,1.2-4.8,1.8c0.6-0.2,1.1-0.4,1.7-0.5c8.5,9.1,16.8,18.4,25.7,27.1c16.8,16.2,33.8,32.1,51,47.9
		c2.9,2.7,7.3,6.5,10.5,6C489,451.2,507.7,447.1,526.5,443.4z M425.6,355.4c0.1-0.7,0.3-1.4,0.4-2.1c-24.3-5.6-48.5-11.2-74-17
		c1.4,4.1,1.9,6.8,3.2,9.2c1.2,2.2,3.1,4.5,0,6c-1.8,0.9-5.1,0.8-6.9-0.3c-14.1-8.2-27.9-16.7-41.9-25c-5.3-3.1-10.7-5.9-16.7-9.3
		c-0.7,6.6-0.6,12.4-2.1,17.9c-2.3,8.6-0.2,14.4,7.3,19.8c13.2,9.4,24.6,20.6,43.6,19.3c14.5-1.1,28.4-2.8,42.5-7.7
		c-1-1.3-1.7-1.9-2.1-2.7c-0.7-1.5-1.2-3.1-1.8-4.7c2-0.7,4-1.6,6-1.9c1.1-0.2,2.6,0.5,3.7,1.1c7.5,4.4,15.3,4.3,23.4,1.6
		C415.4,358,420.5,356.8,425.6,355.4z M135.8,368.3c2.3,3.2,5.6,7,8.1,11.3c4.8,8.2,11.8,12.5,21.1,13.8c6.9,0.9,12.1,4.6,15.6,10.6
		c1.9,3.3,3.8,7.8,6.8,9.2c9.5,4.3,19.6,7.5,29.6,10.7c1.5,0.5,4.4-0.7,5.4-2c3-3.9,5.8-8.1,8.2-12.3c4.6-7.9,8.8-15.9,13.3-23.8
		c2.2-3.9,0.8-6.2-3-7.6c-11.1-3.9-22.1-8-33.4-11.6c-3.4-1.1-5.6-2.1-6.6-5.7c-0.5-1.9-2.5-4.4-4.4-4.9c-4.1-1.1-8.5-1.5-12.8-1.4
		c-6.6,0.1-11.8-2.3-17.1-6.1c-3.8-2.7-8.5-3.9-12.9-5.7c-0.2,0.5-0.3,1-0.5,1.5c1.6,1.5,3.8,2.7,4.7,4.6
		c5.9,10.9,15.3,15.9,27.4,18.1c7,1.3,14.6,4.1,18.1,11.1c1.7,3.5,2.3,8.9,0.9,12.4c-1.8,4.4-7.1,3.1-11.1,1.6
		c-1.7-0.6-3.4-1.6-4.9-2.7c-5.8-4.2-11.8-8-19.5-7.2c-8.7,0.9-14.8-3.8-20.7-9.2C144.2,369.1,139,367.9,135.8,368.3z M361.1,198
		c-0.5,0.2-0.9,0.3-1.4,0.5c-0.3,1.2-0.9,2.4-0.9,3.6c-0.9,23.9-1.9,47.7-2.4,71.6c-0.1,3.4,1.8,7.1,3.6,10.3
		c3,5.7,6.4,11.3,9.9,16.7c2.9,4.5,5.3,10.3,9.5,12.7c14.1,7.9,28.9,14.7,43.7,21.7c4.4,2.1,9.1,3.4,15.2,5.6
		c-2.2-4.9-3.7-8.1-5.2-11.2c-6.3-13.6-12.7-27.2-19-40.8c-5.9-12.8-11.6-25.6-17.5-38.4c-5-10.8-10.1-21.5-15.1-32.2
		c-0.7-1.4-2-3.2-3.4-3.5c-8.3-1.8-12.9-7.3-15.8-14.8C362,199.2,361.4,198.6,361.1,198z M345.1,490.9c2.4,1.1,4.1,2,5.8,2.5
		c15.2,4.6,30.5,9.5,45.9,13.5c6.7,1.7,14.1,2.3,21.1,1.6c11.9-1.2,23.8-3.4,35.5-5.9c28.8-6.2,57.5-12.9,86.3-19.2
		c11.9-2.6,23.9-4.8,35.7-7.3c1.9-0.4,3.8-1.2,5.7-1.9c-0.1-0.5-0.3-1-0.4-1.5c-2.9,0.3-5.9,0.3-8.7,0.9c-9.3,2.1-18.7,4.4-28,6.5
		c-11.3,2.5-13,1-12.5-10c0-0.5-0.4-1-0.6-1.5c-0.6-0.1-1.2-0.3-1.7-0.2c-17.5,3.5-34.9,7.1-52.4,10.4c-4.4,0.8-6,3.3-6.5,7
		c-0.3,2.2-0.1,4.5-0.8,6.6c-0.6,1.6-2,3.8-3.5,4.2c-12.5,2.7-25,5.2-37.6,7.6c-5.5,1-8.3-2.3-7.2-7.9c0.4-2.1,0.6-4.2,0.8-5.7
		c-4.6-0.3-8.6,0-12.4-1c-9.3-2.6-18.5-6-27.8-8.8c-7-2.1-14.1-3.7-21.3-5.2c-1.6-0.3-4.2,0.1-5.1,1.1
		C351.8,481.1,348.7,485.9,345.1,490.9z M344.4,341.7c0.3-0.3,0.7-0.6,1-1c-0.9-1.6-1.8-3.1-2.6-4.7c-0.8-1.6-1.3-3.3-2-5
		c2-0.6,4.2-2,6.1-1.8c5.4,0.7,10.8,1.8,16,3.1c21.2,5.1,42.3,10.4,63.5,15.6c1.3,0.3,2.7,0.2,4.2,0.3c-2.3-3.3-4.8-5.6-7.7-7
		c-18.1-8.7-36.2-17.4-54.3-25.8c-10.3-4.7-21.1-7.4-31.8-6.5c-0.6,3.3-1.1,5.9-1.6,8.5c-2.6-0.9-5.8-1.1-7.7-2.7
		c-10.5-8.5-22.1-5.9-33.7-5.3c-0.2,0.5-0.3,1.1-0.5,1.6C310.3,321.3,327.3,331.5,344.4,341.7z M124.6,420.1
		c0.4-0.6,0.8-1.2,1.3-1.8c-14-19.8-27.8-39.7-41.9-59.4c-3.1-4.4-7.5-8-13.5-8.1c-7.5-0.2-14.9,0.3-22.4,0.1
		c-8.1-0.2-12,4.1-13.1,11.3c-0.7,4.4-0.7,8.9-1,13.4c0.6,0.1,1.2,0.2,1.8,0.2c0.5-0.9,0.9-2.1,1.6-2.8c3.8-3.8,7-9.1,11.7-10.8
		c12-4.5,20.7,0.4,26.2,12.3c5.1,11,10.8,21.9,16.6,32.6c1.4,2.5,4.3,5,7,5.9C107.3,415.7,116,417.7,124.6,420.1z M340.3,487.6
		c2.7-3.5,4.6-6.1,6.6-8.4c4.2-4.8,3.8-9.3,0.2-14.5c-5.3-7.6-10-15.6-14.9-23.4c-6.9-11.1-14.1-21.9-28.3-25
		c-0.9-0.2-1.6-0.9-2.5-1.2c-12.2-4.8-24.7-9-38-9.8c-2-0.1-5.1,0.9-6.2,2.5c-6,8.2-8.5,17.7-10.5,27.4c4.5-5.9,8.9-11.5,13-17.4
		c2.9-4.3,6.6-5.7,11.6-4.3c10.3,3,20.5,5.7,30.8,8.8c1.6,0.5,3.4,1.9,4.2,3.4c5.5,9.5,10.8,19,15.9,28.6
		C328.1,465.1,333.9,475.8,340.3,487.6z M497.5,369.4c-15.2-20.9-36.4-23.9-60.3-22.1c0.7,3.2,0.4,6.6,2,8.4
		c5,5.7,10.7,10.8,16.2,16c1,0.9,2.6,1.7,3.9,1.6C472,372.2,484.6,370.8,497.5,369.4z M267.6,463.5c9.3-5.9,18.4-11.4,27.1-17.2
		c3-2,5.6-4.8,8.1-7.5c0.8-0.8,1.2-2.8,0.7-3.8c-2.1-4.6-5.2-8.5-10.7-9.7c-4.2-0.9-8.5-1.7-12.5-3.1c-5.4-1.9-9.1,0.2-11.8,4.5
		C260.7,439.1,264.3,451.6,267.6,463.5z M14.5,285.4c1,3.6,1.6,6.1,2.4,8.5c5.6,17.4,5.6,17.3,24.2,17.1c5.9-0.1,11.7,0,18.4,0
		c-2.6-4.4-4.3-8.1-6.8-11.2c-3.4-4.1-6.7-9.7-11.3-11C33.1,286.3,24.1,286.5,14.5,285.4z M72.8,380.7c-0.6-1.1-1.4-2.5-2-4.1
		c-2.5-5.7-6.1-10.4-13.1-10.5c-7.2,0-12.1,4.1-16,9.7c-5.4,7.8-2.9,16-1,24.1c1.1,4.5,3,8.7,4.8,13.4c3.8-5.4,6.1-10.4,10-13.8
		C61.7,394.1,69.5,390,72.8,380.7z M520.9,387.3c-6.6-6.4-11.5-12.4-20.7-11.5c-10.1,1-20.2,1.3-30.4,2.1c-1.8,0.1-3.6,1.1-5.6,1.7
		c4.6,4.6,8.2,8.7,12.4,12.3c1.6,1.4,4.5,2.7,6.4,2.4C495.3,392.4,507.4,389.9,520.9,387.3z M367.2,402.9
		c5.7,12.4,12.1,16,24.4,14.2c3.6-0.5,7.1-0.7,10.6-1.2c3.4-0.5,6.7-1.3,11.6-2.3c-5.7-5.2-10.1-9.4-14.7-13.4
		c-0.9-0.8-2.8-1-4.2-0.8C385.9,400.5,376.8,401.7,367.2,402.9z M319.3,461.7c-0.6,4.4-1,8.3-1.6,12.1c-2.5,15-18.5,24.1-32.8,18.5
		c-13.3-5.3-20.8-15.7-24.5-29c-3.2-11.6-4-23.2-1.2-35.1c-5.3,5.2-6.9,11-6.3,18.6c1.2,16.7,7.1,31.1,19.5,42.3
		c18.2,16.4,40.6,10.3,48.7-10.5C323,473.6,325.6,467.4,319.3,461.7z M57.1,292.7c3.8,10.5,5.1,11.4,14.5,11.9
		c8,0.5,16,1.1,24.1,2.2c10.8,1.5,24-0.1,31.2-4.5C103.5,299.1,80.8,296,57.1,292.7z M544.7,459.6c12.6-2.6,24.1-5,35.5-7.4
		c2.7-0.6,6.2-1.1,4.7-5.1c-1.1-3.2-0.2-8.5-6.6-7.4c-9.5,1.7-19.2,3.2-28.7,5c-1,0.2-2.4,1.4-2.7,2.4
		C546.1,450.9,545.6,454.9,544.7,459.6z M456.6,462.8c-10.4,2-19.6,3.7-28.7,5.7c-6.6,1.4-9.9,6.8-8.7,14.4
		c10.5-1.8,20.9-3.5,31.4-5.5c1.4-0.3,3.5-1.7,3.9-3C455.5,470.9,455.8,467.3,456.6,462.8z M517.3,450.2c-10.2,1.9-19,3.4-27.8,5.2
		c-1.2,0.2-2.7,1.6-3,2.7c-0.9,4-1.3,8.2-2,13.6c10.5-2.3,19.8-4.2,28.9-6.3c0.8-0.2,1.8-1.5,2-2.4C516.1,459,516.6,455,517.3,450.2
		z M501.1,414c9-6.1,17.7-12,26.3-17.9c-0.2-0.5-0.5-1.1-0.7-1.6c-13.7-0.5-26.8,2.6-41.2,5.8C491.2,405.4,495.8,409.4,501.1,414z
		 M195.5,443.7c12.3,3.6,24,7.1,35.6,10.5c-6.7-8-13.4-15-24.6-16.2C201.2,437.4,198.1,438.3,195.5,443.7z M63.2,433.3
		c9.4,7.8,22.4,2.4,27.5-7.7c2.4-4.9,2.5-8.6-3-11C83.5,427.9,79.5,431.1,63.2,433.3z M538.7,473.7c15.1,0.4,24.4-4.3,22.8-12
		c-5.7,1.1-11.3,2.6-17,3.3C539.2,465.7,537,468,538.7,473.7z M464.1,481c-5,1-9.4,2.4-13.9,2.8c-5.7,0.6-4.6,5.2-4.5,7.9
		c0.2,4.4,3.9,1.7,6,1.4c1.8-0.2,3.7-1,5.5-1.2C463.4,491.5,464.9,487.8,464.1,481z M70.5,309.9c-3.5,4.2-6,7.2-9.6,11.5
		c11.2-3,21.3-5.7,31.6-8.5c-4.3-1.5-8.1-2-12.1-2.3C76.5,310.3,72.5,310,70.5,309.9z M300.8,467.1c-0.9-0.9-2.8-3.7-5.4-4.7
		c-2.9-1.1-7.5,4.3-7.4,8.1c0.1,3.8,2.7,5,6.1,5C298.2,475.4,301.1,474.1,300.8,467.1z M37.2,317.9c0.6,3-1.8,7.7,3.7,8
		c4.3,0.2,8.6-1.4,13.1-2.3C51.6,317,46.9,315.4,37.2,317.9z M323.2,302.6c0-0.5,0-1.1-0.1-1.6c-9.2-1.2-18.5-2.5-27.7-3.5
		c-1.2-0.1-2.5,1.7-3.9,2.7c1.2,0.8,2.4,2.3,3.7,2.3C304.5,302.7,313.8,302.6,323.2,302.6z M69.9,423.5c2.6-3.8,5.5-6,5.4-8.1
		c-0.1-2.2-3.1-4.2-4.9-6.3c-2.1,1.9-5.8,3.6-6.1,5.8C64,417,67.2,419.6,69.9,423.5z M241.8,425.7c-2.2,1.8-3.9,2.4-4.4,3.6
		c-1.7,3.4-3.1,7-4.6,10.6c-1.9,4.8-0.4,7.3,4.9,8.8C239,441.7,240.3,434.5,241.8,425.7z M413.8,474.6c-0.4-0.4-0.8-0.9-1.3-1.3
		c-4.5,2-8.8,4-13.3,6c0.1,0.5,0.3,0.9,0.4,1.4c3.7,1.1,7.3,2.2,11.7,3.4C412.3,480.8,413,477.7,413.8,474.6z M184.8,330.9
		c0.4-0.4,0.9-0.9,1.3-1.3c-0.7-1.7-1-4.4-2.1-4.9c-4.8-1.8-9.9-3-14.8-4.4c-0.2,0.5-0.5,1.1-0.7,1.6
		C173.9,324.9,179.3,327.9,184.8,330.9z"/>
	
		<linearGradient id="SVGID_00000127015462641366317710000010889865403132822155_" gradientUnits="userSpaceOnUse" x1="210.7937" y1="270.5807" x2="284.5" y2="270.5807">
		<stop  offset="0.25" style="stop-color:#4C006C"/>
		<stop  offset="0.4304" style="stop-color:#53006A"/>
		<stop  offset="0.8273" style="stop-color:#B9004E"/>
	</linearGradient>
	<path style="fill:url(#SVGID_00000127015462641366317710000010889865403132822155_);" d="M284.5,274c-2.4,12.9-5,25.1-7.1,37.3
		c-1.3,8.2-1.9,16.5-3.1,24.8c-0.3,1.9-1.6,4.9-2.8,5.1c-2.2,0.3-5.8-0.3-6.9-1.9c-9-12.9-18.2-25.7-26.2-39.2
		c-13.5-22.8-20.5-47.9-25.8-73.6c-0.8-4-1.6-8-1.8-12.1c-0.1-1.4,1-3.9,2.1-4.3c9.3-3.4,18.7-6.7,28.2-9.4
		c7.3-2.1,9.5-0.2,12.5,6.5c9.6,21.4,19.7,42.6,29.7,63.9C284,272.2,284.3,273.5,284.5,274z M253.6,270.4c-1.9,0.8-3.4,1.8-4.9,2.1
		c-4,0.7-7.7,0.5-8.6-4.6c-0.6-3.8-1.4-7.7-1.6-11.5c-0.8-13.9-1.4-27.7-2.1-41.6c-0.1-1.9-0.4-3.8-0.6-6.1
		c-4.3,1.4-9.1,0.5-9.2,6.2c-0.3,12.6-2.2,25.5-0.3,37.8c1.8,12,7.5,23.4,11.2,34.1c3.8-0.5,6.3-1.6,8-0.8c1.3,0.6,1.9,3.6,2,5.5
		c0.3,9.6,1.7,18.7,8.1,26.4c2.8,3.4,5.4,7,8,10.6c0.4-0.2,0.8-0.5,1.1-0.7C260.9,308.8,257.4,289.8,253.6,270.4z M268.5,316.7
		c0.5,0,1,0,1.6-0.1c5.3-23.3,8.9-46.4-5.6-68.1c-9.1,2.2-10.5,1.4-9.7-8.1c0.7-9.2,0.2-18-5.4-25.8c-0.7-1-0.7-2.5-1.4-3.6
		c-1-1.6-2.2-3-3.4-4.5c-0.5,0.2-1,0.4-1.5,0.6c-0.4,19.3-1.8,38.6,3.2,58.1c2.6-1.1,4.4-1.9,6.1-2.4c4-1.1,6.7-1.2,6.9,4.5
		c0.2,5.9,1.6,11.7,2.7,17.5C264.1,295.4,266.3,306,268.5,316.7z"/>
	
		<linearGradient id="SVGID_00000079443946181715332340000008944422317746288026_" gradientUnits="userSpaceOnUse" x1="219.7" y1="339.836" x2="256.2415" y2="339.836">
		<stop  offset="0.25" style="stop-color:#4C006C"/>
		<stop  offset="0.4304" style="stop-color:#53006A"/>
		<stop  offset="0.8273" style="stop-color:#B9004E"/>
	</linearGradient>
	<path style="fill:url(#SVGID_00000079443946181715332340000008944422317746288026_);" d="M219.7,334.6c1.2-3.8,1.8-8,3.9-11.2
		c3.7-6,11.5-5.4,15,0.8c0.9,1.6,1.7,3.3,2.2,5.1c1.5,5,3.6,9,10.3,7.1c0.9-0.3,3.4,2,3.8,3.4c0.9,3.2,1,6.6,1.3,9.9
		c0.6,6.1-5.4,12.1-11.3,10.5c-10.5-2.8-20.6-6.3-23.5-18.6c-0.2-0.9-0.6-1.8-0.8-2.7c-0.2-1.3-0.1-2.6-0.2-3.9
		C220.2,334.8,219.9,334.7,219.7,334.6z"/>
	
		<linearGradient id="SVGID_00000033329183733262582850000016839353561623545751_" gradientUnits="userSpaceOnUse" x1="481.6714" y1="439.0018" x2="498.2263" y2="439.0018">
		<stop  offset="0.25" style="stop-color:#4C006C"/>
		<stop  offset="0.4304" style="stop-color:#53006A"/>
		<stop  offset="0.8273" style="stop-color:#B9004E"/>
	</linearGradient>
	<path style="fill:url(#SVGID_00000033329183733262582850000016839353561623545751_);" d="M498.2,444.1c-1.5,0.4-4,2-5.6,1.4
		c-3.2-1.2-6.2-3.4-8.9-5.5c-3.1-2.3-2.5-4.6,0.8-6.3C492,430,498.7,434.2,498.2,444.1z"/>
	
		<linearGradient id="SVGID_00000143617111759285054540000002682897810555165579_" gradientUnits="userSpaceOnUse" x1="360.0582" y1="268.3753" x2="423.3499" y2="268.3753">
		<stop  offset="0.25" style="stop-color:#4C006C"/>
		<stop  offset="0.4304" style="stop-color:#53006A"/>
		<stop  offset="0.8273" style="stop-color:#B9004E"/>
	</linearGradient>
	<path style="fill:url(#SVGID_00000143617111759285054540000002682897810555165579_);" d="M404.5,309.9c-2-2.2-3.2-4-4.9-5.1
		c-9.1-6.1-14.4-14.5-16.2-25.1c-1.1-6.6-4.6-11.6-10.7-14.9c-1.1-0.6-2.4-1.6-2.7-2.6c-1.7-6.4-3.4-12.8-4.7-19.3
		c-0.2-0.9,1.6-3,2.4-3c1.5,0.1,4,0.9,4.5,2.1c1.3,3.4,1.6,7.2,2.8,10.7c1,3.1,1.9,7.1,4.3,8.6c7.2,4.6,10.1,11.2,11,18.9
		c1,8.5,6.5,13.9,12.3,19.1c2.1,1.9,4.4,3.8,7.4,5.1c-5.7-11.9-11.3-23.9-17-35.8c-4.1-8.5-8-17-12.4-25.4
		c-2.7-5.3-4.7-11-12.1-13.2c-3.7-1.1-5.8-7.1-8.4-11.1c-0.3-0.5,1.1-2.9,1.6-2.9c2.1,0.1,5.6,0.2,6,1.3c1.9,5,5.4,7,10.5,8
		c1.4,0.3,2.7,2.4,3.5,4c10.3,22.4,20.2,44.9,30.6,67.3c2.7,5.8,6.6,11.1,9.7,16.7c0.9,1.6,1.8,4.7,1.1,5.3c-1.5,1.3-4.5,2.6-6.2,2
		c-8.3-2.4-16.5-6-24.8-8.2c-9-2.4-13.8-8-17.2-16.3c-2.5-6.3-7.1-11.8-10.4-17.8c-0.8-1.6-0.4-3.8-0.6-5.7c1.9,1,4.6,1.4,5.6,3
		c3.9,5.7,7.5,11.5,10.7,17.6C385.6,303.5,391.1,307.7,404.5,309.9z"/>
	
		<linearGradient id="SVGID_00000113347266855178410340000004407930268556252568_" gradientUnits="userSpaceOnUse" x1="269.7945" y1="436.2999" x2="288.802" y2="436.2999">
		<stop  offset="0.25" style="stop-color:#4C006C"/>
		<stop  offset="0.4304" style="stop-color:#53006A"/>
		<stop  offset="0.8273" style="stop-color:#B9004E"/>
	</linearGradient>
	<path style="fill:url(#SVGID_00000113347266855178410340000004407930268556252568_);" d="M279.1,445c-5,0.1-9.1-3.6-9.3-8.4
		c-0.2-4.3,5.1-8.9,10.4-9c5-0.1,8.4,3.2,8.6,8.3C288.9,441.3,285.2,444.9,279.1,445z"/>
	
		<linearGradient id="SVGID_00000138550757559491177900000011985733332362236588_" gradientUnits="userSpaceOnUse" x1="45.0609" y1="381.26" x2="60.9227" y2="381.26">
		<stop  offset="0.25" style="stop-color:#4C006C"/>
		<stop  offset="0.4304" style="stop-color:#53006A"/>
		<stop  offset="0.8273" style="stop-color:#B9004E"/>
	</linearGradient>
	<path style="fill:url(#SVGID_00000138550757559491177900000011985733332362236588_);" d="M54.7,373.3c3.8,0.3,6.5,4,6.2,8.4
		c-0.3,4.8-4.2,8-9.1,7.5c-4.4-0.4-7.1-3.9-6.7-8.5C45.4,376.4,50,372.9,54.7,373.3z"/>
</g>
</svg>
