<?xml version="1.0" encoding="utf-8"?>
<!-- Generator: Adobe Illustrator 25.4.1, SVG Export Plug-In . SVG Version: 6.00 Build 0)  -->
<svg version="1.1" id="Capa_1" xmlns="http://www.w3.org/2000/svg" xmlns:xlink="http://www.w3.org/1999/xlink" x="0px" y="0px"
	 viewBox="0 0 595.3 841.9" style="enable-background:new 0 0 595.3 841.9;" xml:space="preserve">
<style type="text/css">
	.st0{fill:#FFFFFF;}
</style>
<g>
	<path d="M568.6,449c2.2,4.2,4,7.8,6,11.3c2.4,4.2,0.5,9.3-4,10.3c-22.6,5.1-45.1,10.4-67.7,15.3c-32.5,7-65.1,13.9-97.7,20.6
		c-2.6,0.5-5.7-0.4-8.4-1.2c-11.6-3.2-23.2-6.4-34.7-9.8c-7.6-2.2-15.1-5.1-22.9-6.7c-3.5-0.7-8,0.4-11.3,2.1
		c-13.6,7.3-27.9,10.3-43,6.6c-13.9-3.4-25.2-11.4-32.9-23.7c-4.1-6.5-7.5-13.4-10.6-18.9c-43.6-13.9-86.6-27.6-129.5-41.3
		c-9.9,18.8-29.3,26.6-49,19.2c-5.6-2.1-10.4-7-14.8-11.3c-8-7.9-12.8-17.8-16.3-28.6c-2.2-6.7-7.4-12.2-10.4-18.7
		c-6.8-14.6-9.1-30.4-10-46.4c-0.1-1.5,1.6-3.7,3-4.6c1.8-1.1,4.2-1.4,6.3-1.9c8-1.9,8.2-2.3,5.8-10c-1-3.1-2.7-4.2-5.8-3.7
		c-4.5,0.8-6.7-1.3-8.1-5.5c-2.8-8.2-5.9-16.3-9.1-24.3c-1.8-4.7-0.2-8.8,4.1-8.4c11.8,1,24.5,0.1,35.1,4.2
		c13.7,5.4,27.8,5.9,41.6,8.5c14.5,2.7,29.6,2.5,44.1,5.5c7.8,1.6,13.8-1,20.6-2.9c5.2-1.4,10.8-1.8,15.5-2.5c0-3-0.5-6.2,0.1-9.3
		c2.9-17,6.1-33.9,9.2-50.8c0.4-2,0.8-4,1.4-5.9c3.6-12.9,3.5-13,16.2-19.7c15.7-8.2,32.6-13.2,50.1-15.8c9.1-1.4,9.3-1.1,13.3,7.5
		c9.5,20.7,17.9,41.9,28.7,61.9c5.1,9.5,5,17.9,3,27.3c-0.2,0.9-0.1,1.8-0.2,3.4c24.1,4.2,48.2,7.7,72.3,17.6
		c-3.7-6.7-6.4-12.8-10.2-18c-5.4-7.3-8-14.7-7.4-24.1c1.9-26.4,2.9-52.9,4.4-79.3c0.1-1.5,1.4-2.9,2.2-4.3c1.7,0.9,4,1.5,4.9,2.9
		c2.8,4.6,5.1,9.4,7.4,14.3c2.1,4.5,4.8,7.5,10.4,7.7c2.2,0.1,5.3,2.3,6.2,4.4c10.4,22.9,20.3,46,30.6,68.9
		c8.5,18.9,17.2,37.6,26.1,56.3c0.8,1.7,3.2,3.6,5,3.8c8.5,0.6,17,0.6,25.4,1c1.8,0.1,4,1,5.4,2.2c28.1,24.5,56.1,49.2,84.1,73.8
		c7.1,6.2,14.3,12.2,21.5,18.2c2.7,2.3,6.2,13.8,4.6,16.8c-0.7,1.5-2.4,2.6-4,3.4C573.6,447.5,571.4,448,568.6,449z M173,268.6
		c-0.5,0.1-1,0.2-1.5,0.3c0,2.6-0.7,5.5,0.1,7.8c7.6,21,15.3,42,23.5,62.8c1.6,4.2,4.8,9.1,8.5,10.9c12,5.7,24.6,10.1,37,15
		c6.7,2.7,7.1,4.1,3.5,10.6c-7.9,14.2-15.7,28.5-23.3,42.8c-1,1.8-0.7,4.4-0.9,6.6c0.5,0.1,1,0.1,1.5,0.2c1.4-3.2,2.6-6.5,4.4-9.5
		c1-1.7,2.8-3.9,4.4-4c6.8-0.3,9.2-5,11.4-10.2c0.7-1.5,1.4-3,2.2-4.5c4.9-8.7,6-9,15.9-7.1c16.7,3.1,32.5,8.9,47.9,15.7
		c3.9,1.7,8.5,3.8,10.8,7.1c7.6,10.9,14.4,22.4,21.2,33.8c4.4,7.4,8.6,14.8,18.9,14.7c2.6,0,5.3,1.5,7.9,2.5
		c8.1,3.3,16.1,5.2,24.1-0.7c1.6-1.2,3.7-1.6,5.6-2.4c7.5-3,7.8-4.1,2.3-10.3c-1.2-1.4-2.6-2.6-3.9-4c-6.9-7-13.8-13.9-20.4-21.2
		c-1.3-1.5-1.9-4.4-1.4-6.3c0.3-1,3.7-1.8,5.6-1.6c13.8,1.4,27.6,3,41.4,4.5c0.7,0.1,1.5-0.5,2.8-0.9c-4-3.7-7.4-7.1-11-10.2
		c-0.9-0.8-2.7-1-4-0.9c-11.6,1.5-23.1,3.2-34.7,4.5c-2.2,0.2-5.2-0.6-6.8-2.2c-6.1-6.1-11.9-12.5-17.6-19c-1-1.1-2-3.3-1.5-4.2
		c0.5-1.1,2.7-1.6,4.2-2c1.4-0.3,3,0,4.4-0.1c8.7-0.8,17.4-1.7,26-2.6c0.1-0.6,0.3-1.3,0.4-1.9c-5.5-4.6-10.8-9.5-16.5-13.7
		c-1.8-1.3-5-1.3-7.5-1c-3.8,0.4-7.5,2.3-11.3,2.4c-11.5,0.1-23-0.3-34.4-0.5c-1.8,0-3.7-0.1-5.4-0.7c-11.4-4.2-22.8-8.5-34-13.1
		c-1.5-0.6-3.3-3.1-3.1-4.5c1.7-12.6,3.9-25.1,5.7-37.6c1.8-12.4,3.1-25,5.2-37.4c1.4-8.3,2.1-16.1-2.3-23.7c-2-3.5-3.5-7.3-5.3-11
		c-8.2-17-16.5-34-24.4-51.1c-2.1-4.5-4.9-5.2-9.3-4.4c-15.2,2.8-29.7,7.8-43.6,14.5c-4.9,2.3-7.2,5.6-5.9,11.4
		c3,12.6,5.7,25.2,8.1,38c0.4,1.9-2.1,4.4-3.2,6.6c-1.7-1.2-4.1-2-5-3.6c-3.9-7.5-7.4-15.3-11.4-23.7c-0.7,1.7-1.1,2.5-1.4,3.4
		c-2.2,7.4,2.2,13.2,5,19.2c3.9,8.2,8.6,15.9,12.7,24c0.6,1.3-0.5,3.4-0.9,5.2c-1.4-0.7-3.3-1.1-4-2.3c-1.9-3.1-3.2-6.7-4.9-9.9
		c-3.2-5.8-6.5-11.6-9.8-17.4c-0.8,0.4-1.5,0.7-2.3,1.1c3.1,6.9,6.3,13.8,9.2,20.8c0.7,1.6,1.4,4.8,0.7,5.2
		c-2.7,1.7-4.9,0.4-6.1-2.5C175.3,273.7,174.2,271.2,173,268.6z M23.5,365.4c0.2,0,0.5-0.1,0.7-0.1c1.2-6.3,2.8-12.5,3.6-18.8
		c0.7-5.3,3.7-8.2,8.5-8.8c9.2-1.1,18.4-1.9,27.6-2.2c6.2-0.2,12.9,1.4,16.5,6.5c4,5.7,8.5,8.4,15.1,9c2.3,0.2,6.3,0,5.5,4.5
		c-0.8,4.6-4.3,2.9-7,2.5c-0.2,0-0.5,0.5-1.3,1.3c2.1,2.1,3.9,5.6,6.5,6.3c6.1,1.8,12.7,2.4,19,3.4c2.9,0.5,5.5,1.8,3.9,5
		c-0.6,1.2-3.9,1.9-5.8,1.6c-4.1-0.5-8.1-1.8-12.1-2.8c-0.3,0.4-0.6,0.8-0.8,1.3c1.8,2.6,3.1,6.6,5.6,7.6c7.5,3,15.4,5,23.3,7
		c2.7,0.7,5.7,0.9,4.6,4.4c-0.4,1.2-3.8,2.2-5.5,1.9c-5.5-1.2-10.9-3.2-16.5-4.9c1.4,6.9,6.2,8.3,12,10c11.7,3.5,22.9,8.4,34.2,13
		c1.6,0.6,2.6,2.8,3.8,4.3c-0.5,0.7-1,1.4-1.5,2.1c-12.7-4.2-25.4-8.5-38.1-12.7c1.2,3.2,2.7,6.4,5,7.2c14.4,5.4,29,10.1,43.4,15.4
		c5.9,2.2,10.4,2,13.7-3.8c2.7-4.7,6.7-4.9,11.4-3.5c4,1.2,8.1,1.9,12.1,2.8c0.3-0.5,0.5-1.1,0.8-1.6c-1.4-1.2-2.6-2.9-4.2-3.4
		c-15.1-5.5-30.2-11-45.5-16c-6.8-2.2-13.8-3.6-14.9-12.4c-0.1-1-1-1.9-1.7-2.8c-4-5.2-8-10.5-12.2-15.5c-2.2-2.6-4.7-5.2-7.5-7.2
		c-7.3-5-14.8-9.5-22.2-14.4c-1-0.7-1.5-2.2-2.2-3.4c1.4-0.6,2.7-1.6,4.1-1.8c0.9-0.2,2,0.7,3.1,1c7.1,2.1,14,4.6,21.2,6
		c7.5,1.4,11-1.5,13.8-8.7c1.8-4.7,0.1-7.2-4.2-8c-4.7-0.8-9.6-0.7-14.3-1.5c-2.2-0.4-4.2-1.9-6.2-2.9c1.7-1.3,3.4-3.6,5.2-3.8
		c6.9-0.8,14-1.3,20.9-1.1c3.5,0.1,6.6,0.3,7.9-3.2c1.5-4.2,7-7.9,1.6-13.3c-2.7-2.7-4.5-6.3-6.2-9.8c-0.7-1.5,0-3.7,0.1-5.5
		c2.1,0.6,4.8,0.5,6.2,1.8c5.7,5.5,12.1,9.4,21.4,11.2c-2.5-6.6-4.6-12.2-6.9-17.7c-0.3-0.6-1.5-1.2-2.3-1.2
		c-5.7,0.2-11.7-0.3-17.1,1.2c-25.1,7-50,14.6-75.1,21.8c-16.5,4.8-33.1,9.1-49.7,13.8c-7.6,2.1-8.2,2.6-7,10.4
		C19.4,346.2,21.6,355.8,23.5,365.4z M515.3,433.8c0.5-0.5,1-0.9,1.4-1.4c-1.2-0.6-2.5-1-3.5-1.8c-8-6.6-16.2-12.9-23.8-19.9
		c-20.1-18.2-40.2-36.4-59.8-55.2c-4.5-4.3-8.5-4.6-13.4-3.4c-13.1,3.2-26.2,6.7-39.2,10.1c-1.6,0.4-3.1,1.2-4.7,1.8
		c0.6-0.2,1.1-0.4,1.7-0.5c8.4,9.1,16.5,18.4,25.3,27.1c16.5,16.2,33.3,32.1,50.2,47.9c2.9,2.7,7.2,6.5,10.3,6
		C478.4,441.6,496.8,437.5,515.3,433.8z M416,345.8c0.1-0.7,0.3-1.4,0.4-2.1c-23.9-5.6-47.8-11.2-72.9-17c1.4,4.1,1.9,6.8,3.2,9.2
		c1.2,2.2,3.1,4.5,0,6c-1.8,0.9-5,0.8-6.8-0.3c-13.9-8.2-27.5-16.7-41.3-25c-5.2-3.1-10.5-5.9-16.4-9.3c-0.7,6.6-0.6,12.4-2.1,17.9
		c-2.3,8.6-0.2,14.4,7.2,19.8c13,9.4,24.2,20.6,42.9,19.3c14.3-1.1,28-2.8,41.9-7.7c-1-1.3-1.7-1.9-2.1-2.7
		c-0.7-1.5-1.2-3.1-1.8-4.7c2-0.7,3.9-1.6,5.9-1.9c1.1-0.2,2.6,0.5,3.6,1.1c7.4,4.4,15.1,4.3,23,1.6
		C405.9,348.4,411,347.2,416,345.8z M130.6,358.7c2.3,3.2,5.5,7,8,11.3c4.7,8.2,11.6,12.5,20.8,13.8c6.8,0.9,11.9,4.6,15.4,10.6
		c1.9,3.3,3.7,7.8,6.7,9.2c9.4,4.3,19.3,7.5,29.1,10.7c1.5,0.5,4.3-0.7,5.3-2c3-3.9,5.7-8.1,8.1-12.3c4.5-7.9,8.7-15.9,13.1-23.8
		c2.2-3.9,0.8-6.2-3-7.6c-10.9-3.9-21.8-8-32.9-11.6c-3.3-1.1-5.5-2.1-6.5-5.7c-0.5-1.9-2.5-4.4-4.3-4.9c-4-1.1-8.4-1.5-12.6-1.4
		c-6.5,0.1-11.6-2.3-16.8-6.1c-3.7-2.7-8.4-3.9-12.7-5.7c-0.2,0.5-0.3,1-0.5,1.5c1.6,1.5,3.7,2.7,4.6,4.6
		c5.8,10.9,15.1,15.9,27,18.1c6.9,1.3,14.4,4.1,17.8,11.1c1.7,3.5,2.3,8.9,0.9,12.4c-1.8,4.4-7,3.1-10.9,1.6
		c-1.7-0.6-3.3-1.6-4.8-2.7c-5.7-4.2-11.6-8-19.2-7.2c-8.6,0.9-14.6-3.8-20.4-9.2C138.9,359.5,133.7,358.3,130.6,358.7z
		 M352.5,188.4c-0.5,0.2-0.9,0.3-1.4,0.5c-0.3,1.2-0.9,2.4-0.9,3.6c-0.9,23.9-1.9,47.7-2.4,71.6c-0.1,3.4,1.8,7.1,3.5,10.3
		c3,5.7,6.3,11.3,9.7,16.7c2.9,4.5,5.2,10.3,9.4,12.7c13.9,7.9,28.5,14.7,43,21.7c4.3,2.1,9,3.4,15,5.6c-2.2-4.9-3.6-8.1-5.1-11.2
		c-6.2-13.6-12.5-27.2-18.7-40.8c-5.8-12.8-11.4-25.6-17.2-38.4c-4.9-10.8-9.9-21.5-14.9-32.2c-0.7-1.4-2-3.2-3.3-3.5
		c-8.2-1.8-12.7-7.3-15.6-14.8C353.3,189.6,352.8,189,352.5,188.4z M336.7,481.3c2.4,1.1,4,2,5.7,2.5c15,4.6,30,9.5,45.2,13.5
		c6.6,1.7,13.9,2.3,20.8,1.6c11.7-1.2,23.4-3.4,35-5.9c28.4-6.2,56.6-12.9,85-19.2c11.7-2.6,23.5-4.8,35.2-7.3
		c1.9-0.4,3.7-1.2,5.6-1.9c-0.1-0.5-0.3-1-0.4-1.5c-2.9,0.3-5.8,0.3-8.6,0.9c-9.2,2.1-18.4,4.4-27.6,6.5c-11.1,2.5-12.8,1-12.3-10
		c0-0.5-0.4-1-0.6-1.5c-0.6-0.1-1.2-0.3-1.7-0.2c-17.2,3.5-34.4,7.1-51.6,10.4c-4.3,0.8-5.9,3.3-6.4,7c-0.3,2.2-0.1,4.5-0.8,6.6
		c-0.6,1.6-2,3.8-3.4,4.2c-12.3,2.7-24.6,5.2-37,7.6c-5.4,1-8.2-2.3-7.1-7.9c0.4-2.1,0.6-4.2,0.8-5.7c-4.5-0.3-8.5,0-12.2-1
		c-9.2-2.6-18.2-6-27.4-8.8c-6.9-2.1-13.9-3.7-21-5.2c-1.6-0.3-4.1,0.1-5,1.1C343.3,471.5,340.2,476.3,336.7,481.3z M336,332.1
		c0.3-0.3,0.7-0.6,1-1c-0.9-1.6-1.8-3.1-2.6-4.7c-0.8-1.6-1.3-3.3-2-5c2-0.6,4.1-2,6-1.8c5.3,0.7,10.6,1.8,15.8,3.1
		c20.9,5.1,41.7,10.4,62.5,15.6c1.3,0.3,2.7,0.2,4.1,0.3c-2.3-3.3-4.7-5.6-7.6-7c-17.8-8.7-35.6-17.4-53.5-25.8
		c-10.1-4.7-20.8-7.4-31.3-6.5c-0.6,3.3-1.1,5.9-1.6,8.5c-2.6-0.9-5.7-1.1-7.6-2.7c-10.3-8.5-21.8-5.9-33.2-5.3
		c-0.2,0.5-0.3,1.1-0.5,1.6C302.4,311.7,319.2,321.9,336,332.1z M119.6,410.5c0.4-0.6,0.8-1.2,1.3-1.8
		c-13.8-19.8-27.4-39.7-41.3-59.4c-3.1-4.4-7.4-8-13.3-8.1c-7.4-0.2-14.7,0.3-22.1,0.1c-8-0.2-11.8,4.1-12.9,11.3
		c-0.7,4.4-0.7,8.9-1,13.4c0.6,0.1,1.2,0.2,1.8,0.2c0.5-0.9,0.9-2.1,1.6-2.8c3.7-3.8,6.9-9.1,11.5-10.8c11.8-4.5,20.4,0.4,25.8,12.3
		c5,11,10.6,21.9,16.3,32.6c1.4,2.5,4.2,5,6.9,5.9C102.5,406.1,111.1,408.1,119.6,410.5z M332,478c2.7-3.5,4.5-6.1,6.5-8.4
		c4.1-4.8,3.7-9.3,0.2-14.5c-5.2-7.6-9.8-15.6-14.7-23.4c-6.8-11.1-13.9-21.9-27.9-25c-0.9-0.2-1.6-0.9-2.5-1.2
		c-12-4.8-24.3-9-37.4-9.8c-2-0.1-5,0.9-6.1,2.5c-5.9,8.2-8.4,17.7-10.3,27.4c4.4-5.9,8.8-11.5,12.8-17.4c2.9-4.3,6.5-5.7,11.4-4.3
		c10.1,3,20.2,5.7,30.3,8.8c1.6,0.5,3.3,1.9,4.1,3.4c5.4,9.5,10.6,19,15.7,28.6C320,455.5,325.7,466.2,332,478z M486.8,359.8
		c-15-20.9-35.8-23.9-59.4-22.1c0.7,3.2,0.4,6.6,2,8.4c4.9,5.7,10.5,10.8,16,16c1,0.9,2.6,1.7,3.8,1.6
		C461.7,362.6,474.1,361.2,486.8,359.8z M260.4,453.9c9.2-5.9,18.1-11.4,26.7-17.2c3-2,5.5-4.8,8-7.5c0.8-0.8,1.2-2.8,0.7-3.8
		c-2.1-4.6-5.1-8.5-10.5-9.7c-4.1-0.9-8.4-1.7-12.3-3.1c-5.3-1.9-9,0.2-11.6,4.5C253.6,429.5,257.1,442,260.4,453.9z M11.1,275.8
		c1,3.6,1.6,6.1,2.4,8.5c5.5,17.4,5.5,17.3,23.8,17.1c5.8-0.1,11.5,0,18.1,0c-2.6-4.4-4.2-8.1-6.7-11.2c-3.3-4.1-6.6-9.7-11.1-11
		C29.5,276.7,20.6,276.9,11.1,275.8z M68.6,371.1c-0.6-1.1-1.4-2.5-2-4.1c-2.5-5.7-6-10.4-12.9-10.5c-7.1,0-11.9,4.1-15.8,9.7
		c-5.3,7.8-2.9,16-1,24.1c1.1,4.5,3,8.7,4.7,13.4c3.7-5.4,6-10.4,9.8-13.8C57.6,384.5,65.3,380.4,68.6,371.1z M509.8,377.7
		c-6.5-6.4-11.3-12.4-20.4-11.5c-9.9,1-19.9,1.3-29.9,2.1c-1.8,0.1-3.5,1.1-5.5,1.7c4.5,4.6,8.1,8.7,12.2,12.3
		c1.6,1.4,4.4,2.7,6.3,2.4C484.6,382.8,496.5,380.3,509.8,377.7z M358.5,393.3c5.6,12.4,11.9,16,24,14.2c3.5-0.5,7-0.7,10.4-1.2
		c3.3-0.5,6.6-1.3,11.4-2.3c-5.6-5.2-9.9-9.4-14.5-13.4c-0.9-0.8-2.8-1-4.1-0.8C376.9,390.9,367.9,392.1,358.5,393.3z M311.3,452.1
		c-0.6,4.4-1,8.3-1.6,12.1c-2.5,15-18.2,24.1-32.3,18.5c-13.1-5.3-20.5-15.7-24.1-29c-3.2-11.6-3.9-23.2-1.2-35.1
		c-5.2,5.2-6.8,11-6.2,18.6c1.2,16.7,7,31.1,19.2,42.3c17.9,16.4,40,10.3,48-10.5C314.9,464,317.5,457.8,311.3,452.1z M53.1,283.1
		c3.7,10.5,5,11.4,14.3,11.9c7.9,0.5,15.8,1.1,23.7,2.2c10.6,1.5,23.6-0.1,30.7-4.5C98.8,289.5,76.4,286.4,53.1,283.1z M533.3,450
		c12.4-2.6,23.7-5,35-7.4c2.7-0.6,6.1-1.1,4.6-5.1c-1.1-3.2-0.2-8.5-6.5-7.4c-9.4,1.7-18.9,3.2-28.3,5c-1,0.2-2.4,1.4-2.7,2.4
		C534.6,441.3,534.1,445.3,533.3,450z M446.5,453.2c-10.2,2-19.3,3.7-28.3,5.7c-6.5,1.4-9.7,6.8-8.6,14.4
		c10.3-1.8,20.6-3.5,30.9-5.5c1.4-0.3,3.4-1.7,3.8-3C445.4,461.3,445.7,457.7,446.5,453.2z M506.3,440.6c-10,1.9-18.7,3.4-27.4,5.2
		c-1.2,0.2-2.7,1.6-3,2.7c-0.9,4-1.3,8.2-2,13.6c10.3-2.3,19.5-4.2,28.5-6.3c0.8-0.2,1.8-1.5,2-2.4
		C505.1,449.4,505.6,445.4,506.3,440.6z M490.3,404.4c8.9-6.1,17.4-12,25.9-17.9c-0.2-0.5-0.5-1.1-0.7-1.6
		c-13.5-0.5-26.4,2.6-40.6,5.8C480.6,395.8,485.1,399.8,490.3,404.4z M189.4,434.1c12.1,3.6,23.6,7.1,35.1,10.5
		c-6.6-8-13.2-15-24.2-16.2C195,427.8,191.9,428.7,189.4,434.1z M59.1,423.7c9.3,7.8,22.1,2.4,27.1-7.7c2.4-4.9,2.5-8.6-3-11
		C79.1,418.3,75.2,421.5,59.1,423.7z M527.4,464.1c14.9,0.4,24-4.3,22.5-12c-5.6,1.1-11.1,2.6-16.7,3.3
		C527.8,456.1,525.7,458.4,527.4,464.1z M453.9,471.4c-4.9,1-9.3,2.4-13.7,2.8c-5.6,0.6-4.5,5.2-4.4,7.9c0.2,4.4,3.8,1.7,5.9,1.4
		c1.8-0.2,3.6-1,5.4-1.2C453.2,481.9,454.7,478.2,453.9,471.4z M66.3,300.3c-3.4,4.2-5.9,7.2-9.5,11.5c11-3,21-5.7,31.1-8.5
		c-4.2-1.5-8-2-11.9-2.3C72.2,300.7,68.3,300.4,66.3,300.3z M293.1,457.5c-0.9-0.9-2.8-3.7-5.3-4.7c-2.9-1.1-7.4,4.3-7.3,8.1
		c0.1,3.8,2.7,5,6,5C290.5,465.8,293.4,464.5,293.1,457.5z M33.5,308.3c0.6,3-1.8,7.7,3.6,8c4.2,0.2,8.5-1.4,12.9-2.3
		C47.7,307.4,43,305.8,33.5,308.3z M315.1,293c0-0.5,0-1.1-0.1-1.6c-9.1-1.2-18.2-2.5-27.3-3.5c-1.2-0.1-2.5,1.7-3.8,2.7
		c1.2,0.8,2.4,2.3,3.6,2.3C296.7,293.1,305.9,293,315.1,293z M65.7,413.9c2.6-3.8,5.4-6,5.3-8.1c-0.1-2.2-3.1-4.2-4.8-6.3
		c-2.1,1.9-5.7,3.6-6,5.8C59.9,407.4,63,410,65.7,413.9z M235,416.1c-2.2,1.8-3.8,2.4-4.3,3.6c-1.7,3.4-3.1,7-4.5,10.6
		c-1.9,4.8-0.4,7.3,4.8,8.8C232.2,432.1,233.5,424.9,235,416.1z M404.4,465c-0.4-0.4-0.8-0.9-1.3-1.3c-4.4,2-8.7,4-13.1,6
		c0.1,0.5,0.3,0.9,0.4,1.4c3.6,1.1,7.2,2.2,11.5,3.4C402.9,471.2,403.6,468.1,404.4,465z M178.8,321.3c0.4-0.4,0.9-0.9,1.3-1.3
		c-0.7-1.7-1-4.4-2.1-4.9c-4.7-1.8-9.7-3-14.6-4.4c-0.2,0.5-0.5,1.1-0.7,1.6C168.1,315.3,173.4,318.3,178.8,321.3z"/>
	<path class="st0" d="M173,268.6c1.1,2.6,2.3,5.2,3.4,7.8c1.2,2.9,3.4,4.2,6.1,2.5c0.6-0.4-0.1-3.6-0.7-5.2
		c-2.9-7-6.1-13.9-9.2-20.8c0.8-0.4,1.5-0.7,2.3-1.1c3.3,5.8,6.6,11.5,9.8,17.4c1.8,3.2,3,6.8,4.9,9.9c0.7,1.2,2.7,1.5,4,2.3
		c0.3-1.7,1.5-3.9,0.9-5.2c-4-8.1-8.8-15.8-12.7-24c-2.8-6-7.3-11.8-5-19.2c0.3-0.8,0.7-1.6,1.4-3.4c4,8.4,7.5,16.2,11.4,23.7
		c0.9,1.6,3.3,2.4,5,3.6c1.1-2.2,3.5-4.6,3.2-6.6c-2.3-12.7-5.1-25.4-8.1-38c-1.4-5.8,1-9.1,5.9-11.4c13.9-6.6,28.4-11.7,43.6-14.5
		c4.5-0.8,7.2,0,9.3,4.4c8,17.1,16.3,34.1,24.4,51.1c1.8,3.7,3.3,7.5,5.3,11c4.4,7.6,3.7,15.4,2.3,23.7c-2.1,12.4-3.4,24.9-5.2,37.4
		c-1.8,12.5-4,25-5.7,37.6c-0.2,1.4,1.7,3.9,3.1,4.5c11.3,4.6,22.6,8.8,34,13.1c1.7,0.6,3.6,0.6,5.4,0.7c11.5,0.3,23,0.7,34.4,0.5
		c3.8,0,7.5-1.9,11.3-2.4c2.5-0.3,5.7-0.3,7.5,1c5.8,4.2,11.1,9.1,16.5,13.7c-0.1,0.6-0.3,1.3-0.4,1.9c-8.7,0.9-17.4,1.7-26,2.6
		c-1.5,0.1-3-0.2-4.4,0.1c-1.5,0.3-3.6,0.9-4.2,2c-0.5,1,0.5,3.1,1.5,4.2c5.7,6.5,11.5,12.9,17.6,19c1.5,1.5,4.6,2.4,6.8,2.2
		c11.6-1.3,23.1-3,34.7-4.5c1.3-0.2,3.1,0.1,4,0.9c3.7,3.1,7.1,6.4,11,10.2c-1.3,0.4-2.1,1-2.8,0.9c-13.8-1.5-27.6-3.1-41.4-4.5
		c-1.9-0.2-5.4,0.6-5.6,1.6c-0.5,1.9,0.1,4.9,1.4,6.3c6.6,7.3,13.6,14.2,20.4,21.2c1.3,1.3,2.7,2.6,3.9,4c5.5,6.1,5.2,7.2-2.3,10.3
		c-1.9,0.8-4,1.2-5.6,2.4c-7.9,5.8-15.9,4-24.1,0.7c-2.6-1-5.3-2.5-7.9-2.5c-10.4,0.1-14.5-7.2-18.9-14.7
		c-6.8-11.4-13.6-22.9-21.2-33.8c-2.3-3.3-6.9-5.4-10.8-7.1c-15.4-6.8-31.2-12.6-47.9-15.7c-10-1.9-11-1.5-15.9,7.1
		c-0.8,1.4-1.5,3-2.2,4.5c-2.2,5.2-4.7,9.8-11.4,10.2c-1.6,0.1-3.4,2.3-4.4,4c-1.8,3-2.9,6.3-4.4,9.5c-0.5-0.1-1-0.1-1.5-0.2
		c0.3-2.2,0-4.7,0.9-6.6c7.6-14.3,15.5-28.6,23.3-42.8c3.6-6.5,3.2-7.9-3.5-10.6c-12.4-4.9-25-9.3-37-15c-3.8-1.8-6.9-6.7-8.5-10.9
		c-8.2-20.8-15.9-41.8-23.5-62.8c-0.8-2.3-0.1-5.2-0.1-7.8C172,268.7,172.5,268.7,173,268.6z M277,264.4c-0.2-0.5-0.6-1.7-1.1-2.9
		c-9.7-21.3-19.6-42.5-29.2-63.9c-3-6.7-5.1-8.6-12.3-6.5c-9.4,2.7-18.6,6-27.8,9.4c-1.1,0.4-2.2,2.9-2.1,4.3c0.3,4,1,8.1,1.8,12.1
		c5.2,25.6,12.1,50.8,25.4,73.6c7.9,13.5,16.9,26.3,25.8,39.2c1.1,1.6,4.6,2.2,6.8,1.9c1.2-0.2,2.5-3.2,2.8-5.1
		c1.2-8.2,1.7-16.6,3.1-24.8C272.1,289.4,274.6,277.3,277,264.4z M213.2,325c0.2,0.1,0.5,0.2,0.7,0.3c0.1,1.3,0,2.6,0.2,3.9
		c0.1,0.9,0.6,1.8,0.8,2.7c2.8,12.3,12.9,15.8,23.1,18.6c5.8,1.6,11.7-4.4,11.1-10.5c-0.3-3.3-0.4-6.7-1.3-9.9
		c-0.4-1.4-2.8-3.7-3.7-3.4c-6.6,1.9-8.6-2-10.1-7.1c-0.5-1.8-1.3-3.5-2.2-5.1c-3.5-6.1-11.2-6.7-14.8-0.8
		C215,317.1,214.4,321.2,213.2,325z"/>
	<path class="st0" d="M23.5,365.4c-1.9-9.6-4.1-19.1-5.5-28.8c-1.1-7.8-0.5-8.2,7-10.4c16.5-4.7,33.2-9,49.7-13.8
		c25-7.2,50-14.8,75.1-21.8c5.4-1.5,11.4-0.9,17.1-1.2c0.8,0,2,0.6,2.3,1.2c2.3,5.6,4.4,11.2,6.9,17.7c-9.3-1.8-15.7-5.7-21.4-11.2
		c-1.4-1.3-4.1-1.3-6.2-1.8c-0.1,1.9-0.8,4-0.1,5.5c1.7,3.5,3.5,7.1,6.2,9.8c5.4,5.4-0.1,9.1-1.6,13.3c-1.3,3.5-4.4,3.3-7.9,3.2
		c-7-0.2-14,0.3-20.9,1.1c-1.9,0.2-3.5,2.5-5.2,3.8c2.1,1,4,2.6,6.2,2.9c4.7,0.8,9.6,0.7,14.3,1.5c4.4,0.8,6,3.3,4.2,8
		c-2.7,7.2-6.2,10.1-13.8,8.7c-7.2-1.4-14.2-3.9-21.2-6c-1.1-0.3-2.1-1.2-3.1-1c-1.4,0.3-2.8,1.2-4.1,1.8c0.7,1.1,1.2,2.7,2.2,3.4
		c7.4,4.9,14.9,9.4,22.2,14.4c2.8,1.9,5.3,4.5,7.5,7.2c4.2,5,8.2,10.3,12.2,15.5c0.7,0.9,1.6,1.8,1.7,2.8c1.1,8.8,8,10.2,14.9,12.4
		c15.3,5,30.4,10.5,45.5,16c1.6,0.6,2.8,2.3,4.2,3.4c-0.3,0.5-0.5,1.1-0.8,1.6c-4.1-0.9-8.2-1.6-12.1-2.8c-4.7-1.4-8.7-1.2-11.4,3.5
		c-3.3,5.8-7.8,6-13.7,3.8c-14.4-5.3-29-10-43.4-15.4c-2.3-0.9-3.8-4-5-7.2c12.7,4.2,25.4,8.5,38.1,12.7c0.5-0.7,1-1.4,1.5-2.1
		c-1.3-1.5-2.2-3.6-3.8-4.3c-11.3-4.6-22.6-9.6-34.2-13c-5.9-1.7-10.6-3.1-12-10c5.6,1.7,11,3.7,16.5,4.9c1.7,0.4,5.2-0.7,5.5-1.9
		c1.1-3.5-1.8-3.7-4.6-4.4c-7.9-2-15.8-4-23.3-7c-2.5-1-3.8-5-5.6-7.6c0.3-0.4,0.6-0.8,0.8-1.3c4,1,8,2.3,12.1,2.8
		c1.9,0.3,5.2-0.4,5.8-1.6c1.5-3.2-1-4.5-3.9-5c-6.4-1-12.9-1.6-19-3.4c-2.6-0.8-4.4-4.2-6.5-6.3c0.8-0.9,1.1-1.4,1.3-1.3
		c2.8,0.4,6.2,2.1,7-2.5c0.8-4.4-3.2-4.2-5.5-4.5c-6.6-0.7-11.1-3.4-15.1-9c-3.6-5.1-10.3-6.7-16.5-6.5c-9.2,0.3-18.4,1.1-27.6,2.2
		c-4.8,0.6-7.8,3.4-8.5,8.8c-0.8,6.3-2.4,12.6-3.6,18.8C24,365.3,23.7,365.3,23.5,365.4z"/>
	<path class="st0" d="M515.3,433.8c-18.5,3.7-36.9,7.8-55.6,10.8c-3.1,0.5-7.4-3.3-10.3-6c-16.9-15.8-33.7-31.7-50.2-47.9
		c-8.8-8.7-16.9-18-25.3-27.1c-0.6,0.2-1.1,0.4-1.7,0.5c1.6-0.6,3.1-1.4,4.7-1.8c13.1-3.4,26.1-6.9,39.2-10.1
		c4.9-1.2,9-0.9,13.4,3.4c19.5,18.8,39.7,37,59.8,55.2c7.7,6.9,15.8,13.3,23.8,19.9c1,0.8,2.3,1.2,3.5,1.8
		C516.3,432.9,515.8,433.3,515.3,433.8z M487.5,434.5c0.5-9.8-6-14.1-13.5-10.3c-3.3,1.7-3.9,3.9-0.8,6.3c2.8,2.1,5.6,4.3,8.8,5.5
		C483.6,436.5,486,434.9,487.5,434.5z"/>
	<path class="st0" d="M416,345.8c-5,1.4-10.1,2.6-15,4.2c-8,2.7-15.6,2.7-23-1.6c-1.1-0.6-2.5-1.3-3.6-1.1c-2,0.3-3.9,1.2-5.9,1.9
		c0.6,1.6,1.1,3.2,1.8,4.7c0.4,0.8,1.1,1.4,2.1,2.7c-13.9,4.9-27.6,6.6-41.9,7.7c-18.6,1.4-29.8-9.9-42.9-19.3
		c-7.4-5.3-9.5-11.1-7.2-19.8c1.5-5.4,1.4-11.3,2.1-17.9c5.9,3.3,11.2,6.1,16.4,9.3c13.8,8.3,27.4,16.8,41.3,25
		c1.8,1,4.9,1.2,6.8,0.3c3.1-1.5,1.2-3.8,0-6c-1.3-2.3-1.8-5.1-3.2-9.2c25.1,5.9,49,11.4,72.9,17C416.3,344.4,416.1,345.1,416,345.8
		z"/>
	<path class="st0" d="M130.6,358.7c3.1-0.5,8.3,0.8,12.3,4.6c5.8,5.5,11.8,10.1,20.4,9.2c7.6-0.8,13.5,3,19.2,7.2
		c1.5,1.1,3.1,2,4.8,2.7c4,1.4,9.1,2.7,10.9-1.6c1.5-3.5,0.8-8.8-0.9-12.4c-3.4-7-10.8-9.7-17.8-11.1c-11.9-2.3-21.2-7.3-27-18.1
		c-1-1.8-3.1-3.1-4.6-4.6c0.2-0.5,0.3-1,0.5-1.5c4.3,1.9,9,3,12.7,5.7c5.2,3.8,10.3,6.2,16.8,6.1c4.2-0.1,8.6,0.4,12.6,1.4
		c1.8,0.5,3.7,2.9,4.3,4.9c1,3.6,3.2,4.6,6.5,5.7c11.1,3.5,22,7.6,32.9,11.6c3.8,1.4,5.2,3.7,3,7.6c-4.4,7.9-8.6,15.9-13.1,23.8
		c-2.4,4.3-5.1,8.5-8.1,12.3c-1,1.3-3.9,2.5-5.3,2c-9.8-3.2-19.7-6.4-29.1-10.7c-3-1.4-4.8-5.9-6.7-9.2c-3.5-6.1-8.7-9.7-15.4-10.6
		c-9.3-1.3-16.1-5.6-20.8-13.8C136.1,365.7,132.9,361.9,130.6,358.7z"/>
	<path class="st0" d="M352.5,188.4c0.4,0.7,0.8,1.3,1.1,2c2.8,7.4,7.3,12.9,15.6,14.8c1.3,0.3,2.7,2.1,3.3,3.5
		c5.1,10.7,10.1,21.4,14.9,32.2c5.8,12.8,11.4,25.6,17.2,38.4c6.2,13.6,12.4,27.2,18.7,40.8c1.4,3.2,2.8,6.3,5.1,11.2
		c-5.9-2.2-10.7-3.5-15-5.6c-14.5-7-29.1-13.8-43-21.7c-4.2-2.4-6.6-8.2-9.4-12.7c-3.5-5.4-6.8-11-9.7-16.7
		c-1.7-3.2-3.5-6.9-3.5-10.3c0.5-23.9,1.5-47.8,2.4-71.6c0-1.2,0.6-2.4,0.9-3.6C351.5,188.7,352,188.6,352.5,188.4z M395.2,300.3
		c-13.2-2.3-18.6-6.5-23.8-16.8c-3.1-6.1-6.7-11.9-10.5-17.6c-1-1.5-3.6-2-5.5-3c0.2,1.9-0.2,4.1,0.6,5.7c3.3,6,7.7,11.5,10.2,17.8
		c3.3,8.3,8.1,13.8,16.9,16.3c8.3,2.3,16.2,5.8,24.4,8.2c1.8,0.5,4.6-0.7,6.1-2c0.7-0.6-0.3-3.7-1.1-5.3c-3.1-5.6-6.9-10.9-9.6-16.7
		c-10.2-22.3-20-44.9-30.1-67.3c-0.7-1.6-2-3.7-3.4-4c-4.9-1-8.4-3-10.3-8c-0.4-1.1-3.9-1.2-5.9-1.3c-0.6,0-1.9,2.4-1.6,2.9
		c2.5,4,4.7,10,8.3,11.1c7.3,2.3,9.2,7.9,11.9,13.2c4.3,8.3,8.2,16.9,12.2,25.4c5.6,11.9,11.1,23.9,16.7,35.8
		c-3-1.2-5.2-3.1-7.3-5.1c-5.8-5.3-11.1-10.7-12.1-19.1c-0.9-7.7-3.8-14.3-10.8-18.9c-2.3-1.5-3.2-5.5-4.2-8.6
		c-1.2-3.5-1.5-7.3-2.8-10.7c-0.4-1.1-2.8-2-4.4-2.1c-0.8,0-2.5,2.1-2.4,3c1.3,6.5,2.9,12.9,4.6,19.3c0.3,1.1,1.6,2,2.7,2.6
		c6,3.3,9.4,8.3,10.5,14.9c1.8,10.6,7.1,19,16,25.1C392,296.3,393.1,298.1,395.2,300.3z"/>
	<path class="st0" d="M336.7,481.3c3.5-5,6.6-9.8,10.2-14.2c0.9-1.1,3.4-1.5,5-1.1c7,1.5,14.1,3.1,21,5.2c9.2,2.7,18.2,6.2,27.4,8.8
		c3.6,1,7.7,0.7,12.2,1c-0.2,1.5-0.4,3.6-0.8,5.7c-1.1,5.6,1.6,8.9,7.1,7.9c12.4-2.3,24.7-4.8,37-7.6c1.4-0.3,2.8-2.5,3.4-4.2
		c0.7-2,0.5-4.4,0.8-6.6c0.5-3.8,2-6.2,6.4-7c17.3-3.3,34.4-6.9,51.6-10.4c0.5-0.1,1.1,0.1,1.7,0.2c0.2,0.5,0.7,1,0.6,1.5
		c-0.5,11,1.3,12.4,12.3,10c9.2-2.1,18.3-4.5,27.6-6.5c2.8-0.6,5.7-0.6,8.6-0.9c0.1,0.5,0.3,1,0.4,1.5c-1.9,0.6-3.7,1.5-5.6,1.9
		c-11.7,2.5-23.5,4.7-35.2,7.3c-28.3,6.3-56.6,13-85,19.2c-11.6,2.5-23.2,4.7-35,5.9c-6.8,0.7-14.1,0.1-20.8-1.6
		c-15.2-3.9-30.2-8.9-45.2-13.5C340.6,483.3,339,482.3,336.7,481.3z"/>
	<path class="st0" d="M336,332.1c-16.8-10.2-33.6-20.4-50.5-30.7c0.2-0.5,0.3-1.1,0.5-1.6c11.4-0.6,22.9-3.2,33.2,5.3
		c2,1.6,5.1,1.8,7.6,2.7c0.5-2.6,1-5.2,1.6-8.5c10.5-0.9,21.2,1.8,31.3,6.5c17.9,8.4,35.7,17,53.5,25.8c2.9,1.4,5.3,3.7,7.6,7
		c-1.4-0.1-2.8,0-4.1-0.3c-20.8-5.2-41.7-10.4-62.5-15.6c-5.2-1.3-10.5-2.4-15.8-3.1c-1.9-0.2-4,1.1-6,1.8c0.7,1.7,1.2,3.4,2,5
		c0.8,1.6,1.7,3.1,2.6,4.7C336.7,331.5,336.4,331.8,336,332.1z"/>
	<path class="st0" d="M119.6,410.5c-8.5-2.4-17.1-4.4-25.4-7.3c-2.7-0.9-5.5-3.4-6.9-5.9c-5.8-10.7-11.3-21.5-16.3-32.6
		C65.5,352.9,57,348,45.1,352.5c-4.5,1.7-7.7,7-11.5,10.8c-0.7,0.7-1.1,1.9-1.6,2.8c-0.6-0.1-1.2-0.2-1.8-0.2c0.3-4.5,0.3-9,1-13.4
		c1.1-7.3,5-11.5,12.9-11.3c7.4,0.2,14.7-0.3,22.1-0.1c5.8,0.2,10.1,3.7,13.3,8.1c13.9,19.7,27.6,39.6,41.3,59.4
		C120.4,409.3,120,409.9,119.6,410.5z"/>
	<path class="st0" d="M332,478c-6.3-11.9-12-22.6-17.8-33.3c-5.2-9.6-10.4-19.2-15.7-28.6c-0.8-1.5-2.5-2.9-4.1-3.4
		c-10.1-3.1-20.2-5.9-30.3-8.8c-4.9-1.4-8.5,0-11.4,4.3c-4,5.9-8.4,11.5-12.8,17.4c1.9-9.7,4.4-19.2,10.3-27.4
		c1.1-1.5,4.1-2.6,6.1-2.5c13.1,0.7,25.3,4.9,37.4,9.8c0.9,0.3,1.6,1,2.5,1.2c14,3.1,21,13.9,27.9,25c4.9,7.8,9.5,15.8,14.7,23.4
		c3.5,5.1,3.9,9.6-0.2,14.5C336.5,472,334.7,474.5,332,478z"/>
	<path class="st0" d="M486.8,359.8c-12.7,1.4-25.2,2.7-37.6,3.9c-1.2,0.1-2.9-0.7-3.8-1.6c-5.5-5.2-11.1-10.3-16-16
		c-1.6-1.8-1.3-5.2-2-8.4C451.1,336,471.8,339,486.8,359.8z"/>
	<path class="st0" d="M260.4,453.9c-3.3-11.9-6.7-24.4,0.9-36.8c2.6-4.3,6.3-6.4,11.6-4.5c4,1.4,8.2,2.2,12.3,3.1
		c5.4,1.2,8.4,5.1,10.5,9.7c0.4,1,0,3-0.7,3.8c-2.4,2.7-5,5.5-8,7.5C278.4,442.5,269.6,448,260.4,453.9z M271.7,435.4
		c6-0.1,9.7-3.7,9.5-9.2c-0.2-5.1-3.6-8.4-8.5-8.3c-5.2,0.1-10.3,4.7-10.2,9C262.7,431.7,266.8,435.5,271.7,435.4z"/>
	<path class="st0" d="M11.1,275.8c9.5,1,18.4,0.9,26.5,3.4c4.4,1.4,7.8,6.9,11.1,11c2.5,3.1,4.2,6.9,6.7,11.2
		c-6.5,0-12.3-0.1-18.1,0c-18.3,0.2-18.3,0.3-23.8-17.1C12.7,281.9,12.1,279.4,11.1,275.8z"/>
	<path class="st0" d="M68.6,371.1c-3.3,9.3-11,13.3-17.2,18.9c-3.8,3.4-6.1,8.4-9.8,13.8c-1.7-4.7-3.6-9-4.7-13.4
		c-1.9-8.1-4.4-16.3,1-24.1c3.8-5.6,8.7-9.7,15.8-9.7c6.9,0,10.4,4.7,12.9,10.5C67.2,368.6,68,370,68.6,371.1z M50.7,363.7
		c-4.6-0.4-9,3.1-9.5,7.4c-0.5,4.6,2.2,8.1,6.6,8.5c4.9,0.5,8.7-2.7,9-7.5C57.1,367.8,54.4,364.1,50.7,363.7z"/>
	<path class="st0" d="M509.8,377.7c-13.3,2.6-25.2,5.1-37.2,7.1c-2,0.3-4.7-1-6.3-2.4c-4.1-3.6-7.8-7.8-12.2-12.3
		c2-0.6,3.7-1.6,5.5-1.7c9.9-0.8,19.9-1.2,29.9-2.1C498.5,365.3,503.4,371.3,509.8,377.7z"/>
	<path class="st0" d="M358.5,393.3c9.4-1.2,18.3-2.4,27.3-3.4c1.3-0.2,3.2,0,4.1,0.8c4.5,3.9,8.9,8.1,14.5,13.4
		c-4.8,1-8.1,1.8-11.4,2.3c-3.5,0.5-7,0.7-10.4,1.2C370.4,409.3,364.2,405.7,358.5,393.3z"/>
	<path class="st0" d="M311.3,452.1c6.2,5.6,3.6,11.9,1.6,16.9c-8,20.8-30.1,26.9-48,10.5c-12.2-11.2-18-25.5-19.2-42.3
		c-0.6-7.7,1-13.4,6.2-18.6c-2.6,11.9-2,23.5,1.2,35.1c3.7,13.3,11,23.7,24.1,29c14,5.6,29.8-3.5,32.3-18.5
		C310.3,460.4,310.7,456.6,311.3,452.1z"/>
	<path class="st0" d="M53.1,283.1c23.3,3.2,45.7,6.3,68.7,9.5c-7.2,4.5-20.2,6-30.7,4.5c-7.8-1.1-15.8-1.7-23.7-2.2
		C58.1,294.5,56.8,293.7,53.1,283.1z"/>
	<path class="st0" d="M533.3,450c0.8-4.7,1.3-8.7,2.1-12.5c0.2-1,1.6-2.2,2.7-2.4c9.4-1.8,18.9-3.4,28.3-5c6.3-1.1,5.3,4.2,6.5,7.4
		c1.5,4.1-1.9,4.6-4.6,5.1C557,445,545.7,447.4,533.3,450z"/>
	<path class="st0" d="M446.5,453.2c-0.8,4.5-1.1,8.2-2.2,11.6c-0.4,1.3-2.3,2.7-3.8,3c-10.3,2-20.6,3.7-30.9,5.5
		c-1.1-7.7,2.1-13,8.6-14.4C427.2,456.9,436.2,455.2,446.5,453.2z"/>
	<path class="st0" d="M506.3,440.6c-0.7,4.8-1.2,8.8-1.9,12.7c-0.2,0.9-1.1,2.2-2,2.4c-9.1,2.1-18.2,4.1-28.5,6.3
		c0.8-5.4,1.2-9.5,2-13.6c0.2-1.1,1.8-2.4,3-2.7C487.6,444,496.3,442.4,506.3,440.6z"/>
	<path class="st0" d="M490.3,404.4c-5.2-4.6-9.7-8.6-15.4-13.7c14.2-3.2,27.1-6.3,40.6-5.8c0.2,0.5,0.5,1.1,0.7,1.6
		C507.7,392.4,499.2,398.3,490.3,404.4z"/>
	<path class="st0" d="M189.4,434.1c2.5-5.3,5.5-6.3,10.9-5.7c11,1.2,17.6,8.2,24.2,16.2C213,441.1,201.5,437.7,189.4,434.1z"/>
	<path class="st0" d="M59.1,423.7c16.1-2.2,20.1-5.3,24-18.8c5.5,2.4,5.4,6.1,3,11C81.2,426,68.4,431.5,59.1,423.7z"/>
	<path class="st0" d="M527.4,464.1c-1.7-5.7,0.4-8,5.8-8.7c5.6-0.7,11.1-2.2,16.7-3.3C551.4,459.8,542.3,464.5,527.4,464.1z"/>
	<path class="st0" d="M453.9,471.4c0.8,6.7-0.7,10.5-6.8,10.9c-1.8,0.1-3.6,1-5.4,1.2c-2.2,0.3-5.7,2.9-5.9-1.4
		c-0.1-2.7-1.2-7.3,4.4-7.9C444.6,473.8,449,472.5,453.9,471.4z"/>
	<path class="st0" d="M66.3,300.3c2.1,0.1,5.9,0.4,9.7,0.7c3.9,0.3,7.7,0.8,11.9,2.3c-10,2.7-20,5.5-31.1,8.5
		C60.3,307.5,62.8,304.5,66.3,300.3z"/>
	<path class="st0" d="M293.1,457.5c0.2,7-2.7,8.4-6.6,8.4c-3.3,0-5.8-1.2-6-5c-0.1-3.8,4.4-9.2,7.3-8.1
		C290.4,453.7,292.2,456.6,293.1,457.5z"/>
	<path class="st0" d="M33.5,308.3c9.5-2.4,14.2-0.9,16.4,5.7c-4.3,0.8-8.6,2.5-12.9,2.3C31.7,316,34.1,311.3,33.5,308.3z"/>
	<path class="st0" d="M315.1,293c-9.2,0-18.4,0.1-27.6-0.1c-1.2,0-2.4-1.5-3.6-2.3c1.3-0.9,2.6-2.8,3.8-2.7c9.1,1,18.2,2.3,27.3,3.5
		C315.1,291.9,315.1,292.4,315.1,293z"/>
	<path class="st0" d="M65.7,413.9c-2.7-4-5.8-6.5-5.5-8.6c0.3-2.2,3.9-3.9,6-5.8c1.7,2.1,4.7,4.1,4.8,6.3
		C71.1,407.9,68.3,410.1,65.7,413.9z"/>
	<path class="st0" d="M235,416.1c-1.6,8.8-2.8,15.9-4.1,23c-5.2-1.5-6.7-4-4.8-8.8c1.4-3.6,2.8-7.2,4.5-10.6
		C231.2,418.6,232.8,417.9,235,416.1z"/>
	<path class="st0" d="M404.4,465c-0.8,3.1-1.6,6.1-2.4,9.5c-4.3-1.3-7.9-2.3-11.5-3.4c-0.1-0.5-0.3-0.9-0.4-1.4c4.4-2,8.7-4,13.1-6
		C403.6,464.2,404,464.6,404.4,465z"/>
	<path class="st0" d="M178.8,321.3c-5.4-3-10.7-6-16.1-9c0.2-0.5,0.5-1.1,0.7-1.6c4.9,1.4,9.9,2.5,14.6,4.4c1.2,0.5,1.4,3.2,2.1,4.9
		C179.7,320.4,179.2,320.8,178.8,321.3z"/>
	<path d="M277,264.4c-2.4,12.9-4.9,25.1-7,37.3c-1.3,8.2-1.9,16.5-3.1,24.8c-0.3,1.9-1.6,4.9-2.8,5.1c-2.2,0.3-5.7-0.3-6.8-1.9
		c-8.9-12.9-17.9-25.7-25.8-39.2c-13.3-22.8-20.2-47.9-25.4-73.6c-0.8-4-1.6-8-1.8-12.1c-0.1-1.4,1-3.9,2.1-4.3
		c9.2-3.4,18.4-6.7,27.8-9.4c7.2-2.1,9.4-0.2,12.3,6.5c9.5,21.4,19.4,42.6,29.2,63.9C276.5,262.6,276.8,263.9,277,264.4z
		 M246.6,260.8c-1.9,0.8-3.3,1.8-4.8,2.1c-3.9,0.7-7.6,0.5-8.5-4.6c-0.6-3.8-1.4-7.7-1.6-11.5c-0.8-13.9-1.4-27.7-2.1-41.6
		c-0.1-1.9-0.4-3.8-0.6-6.1c-4.2,1.4-9,0.5-9.1,6.2c-0.3,12.6-2.2,25.5-0.3,37.8c1.8,12,7.4,23.4,11,34.1c3.7-0.5,6.2-1.6,7.9-0.8
		c1.3,0.6,1.9,3.6,2,5.5c0.3,9.6,1.7,18.7,8,26.4c2.8,3.4,5.3,7,7.9,10.6c0.4-0.2,0.8-0.5,1.1-0.7
		C253.8,299.2,250.3,280.2,246.6,260.8z M261.3,307.1c0.5,0,1,0,1.6-0.1c5.2-23.3,8.8-46.4-5.5-68.1c-9,2.2-10.3,1.4-9.6-8.1
		c0.7-9.2,0.2-18-5.3-25.8c-0.7-1-0.7-2.5-1.4-3.6c-1-1.6-2.2-3-3.3-4.5c-0.5,0.2-1,0.4-1.5,0.6c-0.4,19.3-1.8,38.6,3.2,58.1
		c2.6-1.1,4.3-1.9,6-2.4c3.9-1.1,6.6-1.2,6.8,4.5c0.2,5.9,1.6,11.7,2.7,17.5C256.9,285.8,259.1,296.4,261.3,307.1z"/>
	<path d="M213.2,325c1.2-3.8,1.8-8,3.8-11.2c3.6-6,11.3-5.4,14.8,0.8c0.9,1.6,1.7,3.3,2.2,5.1c1.5,5,3.5,9,10.1,7.1
		c0.9-0.3,3.3,2,3.7,3.4c0.9,3.2,1,6.6,1.3,9.9c0.6,6.1-5.3,12.1-11.1,10.5c-10.3-2.8-20.3-6.3-23.1-18.6c-0.2-0.9-0.6-1.8-0.8-2.7
		c-0.2-1.3-0.1-2.6-0.2-3.9C213.7,325.2,213.4,325.1,213.2,325z"/>
	<path d="M487.5,434.5c-1.5,0.4-3.9,2-5.5,1.4c-3.2-1.2-6.1-3.4-8.8-5.5c-3.1-2.3-2.5-4.6,0.8-6.3
		C481.4,420.4,488,424.6,487.5,434.5z"/>
	<path d="M395.2,300.3c-2-2.2-3.2-4-4.8-5.1c-9-6.1-14.2-14.5-16-25.1c-1.1-6.6-4.5-11.6-10.5-14.9c-1.1-0.6-2.4-1.6-2.7-2.6
		c-1.7-6.4-3.3-12.8-4.6-19.3c-0.2-0.9,1.6-3,2.4-3c1.5,0.1,3.9,0.9,4.4,2.1c1.3,3.4,1.6,7.2,2.8,10.7c1,3.1,1.9,7.1,4.2,8.6
		c7.1,4.6,9.9,11.2,10.8,18.9c1,8.5,6.4,13.9,12.1,19.1c2.1,1.9,4.3,3.8,7.3,5.1c-5.6-11.9-11.1-23.9-16.7-35.8
		c-4-8.5-7.9-17-12.2-25.4c-2.7-5.3-4.6-11-11.9-13.2c-3.6-1.1-5.7-7.1-8.3-11.1c-0.3-0.5,1.1-2.9,1.6-2.9c2.1,0.1,5.5,0.2,5.9,1.3
		c1.9,5,5.3,7,10.3,8c1.4,0.3,2.7,2.4,3.4,4c10.1,22.4,19.9,44.9,30.1,67.3c2.7,5.8,6.5,11.1,9.6,16.7c0.9,1.6,1.8,4.7,1.1,5.3
		c-1.5,1.3-4.4,2.6-6.1,2c-8.2-2.4-16.2-6-24.4-8.2c-8.9-2.4-13.6-8-16.9-16.3c-2.5-6.3-7-11.8-10.2-17.8c-0.8-1.6-0.4-3.8-0.6-5.7
		c1.9,1,4.5,1.4,5.5,3c3.8,5.7,7.4,11.5,10.5,17.6C376.6,293.9,382,298.1,395.2,300.3z"/>
	<path d="M271.7,435.4c-4.9,0.1-9-3.6-9.2-8.4c-0.2-4.3,5-8.9,10.2-9c4.9-0.1,8.3,3.2,8.5,8.3C281.4,431.7,277.7,435.3,271.7,435.4z
		"/>
	<path d="M50.7,363.7c3.7,0.3,6.4,4,6.1,8.4c-0.3,4.8-4.1,8-9,7.5c-4.3-0.4-7-3.9-6.6-8.5C41.6,366.8,46.1,363.3,50.7,363.7z"/>
	<path class="st0" d="M246.6,260.8c3.6,19.4,7.2,38.4,10.8,57.4c-0.4,0.2-0.8,0.5-1.1,0.7c-2.6-3.5-5.1-7.2-7.9-10.6
		c-6.3-7.7-7.7-16.8-8-26.4c-0.1-1.9-0.7-4.9-2-5.5c-1.7-0.8-4.2,0.3-7.9,0.8c-3.6-10.7-9.2-22.1-11-34.1c-1.8-12.3,0-25.2,0.3-37.8
		c0.1-5.8,4.9-4.8,9.1-6.2c0.2,2.3,0.5,4.2,0.6,6.1c0.7,13.9,1.3,27.7,2.1,41.6c0.2,3.9,1,7.7,1.6,11.5c0.9,5.1,4.6,5.2,8.5,4.6
		C243.3,262.6,244.7,261.6,246.6,260.8z"/>
	<path class="st0" d="M261.3,307.1c-2.1-10.7-4.3-21.3-6.4-32c-1.1-5.8-2.5-11.6-2.7-17.5c-0.2-5.7-2.9-5.6-6.8-4.5
		c-1.7,0.5-3.4,1.4-6,2.4c-5-19.5-3.6-38.8-3.2-58.1c0.5-0.2,1-0.4,1.5-0.6c1.1,1.5,2.4,2.9,3.3,4.5c0.7,1.1,0.7,2.6,1.4,3.6
		c5.5,7.9,6,16.6,5.3,25.8c-0.8,9.5,0.5,10.3,9.6,8.1c14.3,21.7,10.7,44.8,5.5,68.1C262.3,307,261.8,307,261.3,307.1z"/>
</g>
</svg>
