<?xml version="1.0" encoding="utf-8"?>
<!-- Generator: Adobe Illustrator 25.4.1, SVG Export Plug-In . SVG Version: 6.00 Build 0)  -->
<svg version="1.1" id="Capa_1" xmlns="http://www.w3.org/2000/svg" xmlns:xlink="http://www.w3.org/1999/xlink" x="0px" y="0px"
	 viewBox="0 0 595.3 841.9" style="enable-background:new 0 0 595.3 841.9;" xml:space="preserve">
<style type="text/css">
	.st0{fill:#FFFFFF;}
	.st1{fill:#A61A1A;}
</style>
<g>
	<path d="M316.7,331.8L316.7,331.8L316.7,331.8z"/>
	<path d="M321.1,339.7C321.1,339.6,321,339.6,321.1,339.7c-0.1-0.1-0.1-0.2-0.1-0.3c-0.1,0-0.3,0-0.4,0
		C320.7,339.5,320.9,339.6,321.1,339.7z"/>
	<path class="st0" d="M416.8,355.6c1.2-2,1.1-4.7,1.3-7.1c-1.1,2.3-1.7,5-3.3,7c-1.6,2-4,2.2-6.5,1.9c-0.2,0.7-0.4,1.4-0.7,2.1
		C411.4,359.3,414.9,358.9,416.8,355.6z"/>
	<path d="M405.8,363.3c1,0.6,2,1.3,3,1.9c0.2-0.2,0.3-0.3,0.5-0.5c-0.8-1.1-1.5-2.1-2.4-3.3c0,0.1-0.1,0.2-0.1,0.3
		C406.6,362.3,406.2,362.8,405.8,363.3z"/>
	<path class="st1" d="M409.2,347.9c-0.2,0.1-0.4,0.3-0.7,0.4c-0.5-1.9-0.9-3.7-1.5-5.4c-0.3-0.4-0.6-0.7-0.9-1.1
		c-0.1-0.1-0.1-0.2-0.1-0.3c-0.2-0.2-0.5-0.3-0.6-0.3c-0.7,0.2-1.5,0.9-1.8,1.6c-0.8,2-1.3,4-2.3,6.9c-0.1-0.1-0.1-0.1-0.2-0.2
		c-0.6,2.2-2.9,3.5-3.5,6.1c0.5-2.6,2.8-3.9,3.5-6.1c-0.4-0.4-0.7-0.7-0.9-1c-0.4,0.7-0.8,1.3-1.2,2c0.2,0.4,0.3,0.7,0.4,1.1
		c-0.3,0-0.7,0-1,0c-1.7,3.5-2.7,7.5-1.7,11c0.5,0,1.2-0.2,1.7-0.1c-0.5,0.7-0.8,1.2-1.1,1.6c0.1,0.2,0.2,0.4,0.3,0.6
		c0.5,0.5,1.1,1,1.9,1.7c2-0.2,3.9-1.1,5.2-2.3c-0.3-0.4-0.5-0.8-0.8-1.3c0.2-0.2,0.3-0.4,0.5-0.5c0.4,0.3,0.8,0.5,1.3,0.8
		c0.4-0.5,0.7-1.1,1-1.6c0-0.1,0.1-0.2,0.1-0.3c-0.4-0.6-0.9-1.2-1.3-1.9c0.7,0,1.4-0.1,2-0.1c0.2-0.7,0.5-1.4,0.7-2.1
		c-0.3,0-0.7-0.1-1-0.2c0.2-2.6,0.4-4.8,2.2-6.3C409.5,349.9,409.4,348.9,409.2,347.9z M398.9,365.3c0.6-3-1.8-4.8-1.2-7.8
		C397.1,360.5,399.6,362.3,398.9,365.3z M400.4,364.4c-0.6-2.9-0.1-6.2-2.9-7.6c2.7-3.9,5.5-8,8.3-12.1
		C407.8,350,404.9,361.2,400.4,364.4z"/>
	<path d="M397.3,364.5c0.2,0.1,0.3,0.3,0.5,0.4c-0.1-0.2-0.2-0.4-0.3-0.6C397.4,364.3,397.3,364.4,397.3,364.5z"/>
	<path class="st0" d="M411.9,318.3c-0.8,1.4-1.4,2.2-1.6,3.1c-0.3,1.2-0.5,2.4-0.4,3.6c0.5,8.2-9.4,13.8-18.8,11.1
		c-0.2-0.1-0.4-0.2-0.5-0.3c-1.1-0.1-2.3-0.1-3.4-0.1c0.8,1,1.7,1.9,2.5,2.9c0.8,0.9,1.6,1.8,2.4,2.7c2.2,2.8,4.5,5.5,6.6,8.3
		c0.2,0.3,0.3,0.6,0.5,0.9c0.4-0.7,0.8-1.4,1.2-2c-0.5-0.6-0.9-1-1.4-1.5c1-0.9,1.6-1.4,2.2-2c-2.2-1.4-4.2-2.7-6.2-4.1
		c0.1-0.3,0.1-0.6,0.2-0.9c5.8-1.1,11.2-3.1,15.4-8.4c0.1,1.8,0.2,2.8,0.3,3.9C412.5,334.3,413.2,325.6,411.9,318.3z"/>
	<path class="st0" d="M398.5,351.7c-0.3,0-0.6,0-0.9,0.1c-1.2,0.3-2.5,0.8-3.9,1.2c0,0.6-0.3,1.8,0.1,2.1c2.9,2.2,1.2,3.8-0.4,5.6
		c-0.3,0.3-0.3,1-0.6,2.1c1.3-0.8,2.1-1.3,3.3-2c-0.5,1.7,0,2,0.8,1.9C395.9,359.2,396.8,355.2,398.5,351.7z"/>
	<path class="st0" d="M409.5,350.9c0.5-0.4,1.1-0.8,1.8-1.1c4.3-1.9,8.1-9.8,6.5-14.6c-2.1,4.9-3.7,9.9-8.5,12.7
		C409.4,348.9,409.5,349.9,409.5,350.9z"/>
	<path d="M425.2,324.2c0.4-0.3,0.7-0.5,1-0.8c-0.5-0.7-1.1-1.4-1.7-2c-0.3,0.2-0.6,0.3-0.9,0.4c0.6,0.9,0.9,2,1.2,3
		C424.9,324.5,425.1,324.3,425.2,324.2z"/>
	<path class="st1" d="M435.1,335.2c1.8-4.4,3.9-8.5,5-12.9c1.5-6,1.6-12.2-0.8-18.1c-0.4-0.9-1.7-2.3-2.4-2.2
		c-1,0.1-2.1,1.3-2.7,2.3c-0.6,0.9-0.5,2.1-0.9,3.2c-0.7,2.1-1.5,4.2-2.2,6.3c-0.4,0.1-0.8,0.2-1.2,0.3l0,0
		c-0.5,1.1-1.1,2.1-2.1,2.9c0,0.6-0.2,1.2-0.6,1.8c-1,1.2-1.9,2.1-2.8,2.5c0.7,0.6,1.2,1.3,1.7,2c5.1-4.2,7.9-9.9,10.1-15.9
		c0.2-0.4,0.5-0.8,0.7-1.3c3,5,0.2,21.1-4.7,27.5c0.4,0.2,0.7,0.4,1,0.7C434,334.6,434.6,334.9,435.1,335.2z M427.3,319.5
		c0.6-2.4,3-3,3.6-5.4C430.3,316.5,427.9,317.1,427.3,319.5z"/>
	<path d="M435,335.5c0-0.1,0.1-0.2,0.1-0.3c-0.6-0.3-1.1-0.6-1.7-0.9C433.9,334.7,434.4,335.2,435,335.5z"/>
	<path d="M530.9,373.2l1,1.4C531.5,374.1,531.2,373.7,530.9,373.2z"/>
	<path d="M529.8,371.7c-0.3-0.4-0.6-0.8-0.8-1.2l1.9,2.6C530.5,372.7,530.2,372.2,529.8,371.7z"/>
	<path d="M536.9,382.2c0,0.3,0.1,0.6,0.2,0.9L536.9,382.2L536.9,382.2z"/>
	<path d="M536.9,382.1C536.9,382.1,536.9,382.2,536.9,382.1C536.9,382.2,536.9,382.2,536.9,382.1L536.9,382.1z"/>
	<polygon points="536.9,382.2 536.9,382.2 536.9,382.2 	"/>
	<path class="st0" d="M466.4,507.5c-0.8-1-1.6-1.8-2.4-2.8v0.1c-1.3-1.3-2.1-2.5-3.3-3.2c-1.7-1-3.6-1.7-5.4-2.5
		c-0.8-0.3-1.8-0.3-2.4-0.7c-2-1.3-4.2-2.4-5.7-4.2c-1.5-1.8-3-4.1-3.3-6.3c-0.1-0.8-0.1-1.6-0.1-2.4c-0.5-0.2-1-0.4-1.4-0.7
		c0.1,0.5,0.1,1,0.2,1.5c-2.6-2.6-5.4-2.1-8.3-0.8c-3.5-9.2-9.1-17.5-9.2-27.8c0-2.7-1.4-5.3-2.6-7.9c-4.4-2.8-7.7-7-11.1-11
		c-1.5-1-2.7-2.4-4.1-3.4c-0.1,0.2-0.2,0.3-0.2,0.3c-2.2-0.5-4.6-0.8-6.4-2c-0.2-0.1-0.3-0.4-0.4-0.9c-1.1-0.5-2.2-1-3.1-1.7
		c-4.9-2.4-8.8-5.8-12-10.2c-1.4-1.9-1.4-3.3,0.1-4.9c6.7,1.4,11.1-0.8,12.9-6c0.7-2.2,2.1-4.3,3.6-6c3-3.5,6.4-6.7,7.7-11.3
		c0.2-0.8,1.1-1.3,1.8-1.9c1.5-1.5,3-2.9,4.6-4.5c1.4,1.2,1.3,1.1-0.2,3c-1.6,1.9-3.2,3.8-4.3,6c-0.4,0.8,0.6,3,1.4,3.3
		c1.4,0.5,3.2,0.1,4.7-0.3c0.4-0.1,0.2-1.8,0.4-2.8c-0.3,0-0.5-0.1-0.8-0.1c-0.4,0.8-0.8,1.6-1.3,2.5c-2.3-1.5-2.3-3.2-0.5-4.5
		c2.2-1.5,4.7-2.4,7.2-3.5c3.2-1.4,5.3-3.9,5.3-7c0-3.2-1.8-5.2-4.6-6.4c-0.5-0.2-0.9-0.6-1.2-0.8c0.8-1.8,1.5-3.5,2.3-5.1
		c1.2-2.6,3-3.1,5.5-2.1c1.2,0.5,2.8,0.9,4,0.5c2-0.6,3.8-1.8,5.5-3c1.7-1.3,1.2-2.8,0.1-3.8c-0.9,1.3-1.4,2.8-2.2,3
		c-2.3,0.5-4.4-0.4-6.6-2c2.5-0.6,4.6-0.5,6.1-1.5c1.7-1.2,3.8-3.4,3.8-5.1c0-2.7-2.8-2.8-5.1-2.6c-0.1,0-0.3-0.2-0.5-0.5
		c1.8-4.9,1-9.6-1.8-13.8c1.4-0.8,2.8-1.5,4.6-2.5c-1.6-0.7-2.3-1.1-2.5-1.2c0.1-0.2,0.2-0.5,0.3-0.7c-0.6-0.3-1.1-0.8-1.6-1.2
		c-0.2-0.1-0.5-0.2-0.7-0.4c0.2,0.1,0.5,0.2,0.7,0.4c-0.3-0.3-0.7-0.6-1-0.7c-0.1,0.1-0.2,0.3-0.3,0.4c-0.1-0.2-0.2-0.4-0.3-0.6
		c-0.7,0.2-0.4,1.2-1.4,1.2c1.1,0,0.7-0.9,1.4-1.2l0,0c-0.1,0-0.1,0-0.2,0c0.1,0,0.1,0,0.2,0c-1.5-2.5-3.6-3.6-6.4-2.6
		c-0.3-1.9-0.5-3.6-0.7-5.4c0-0.2,0.1-0.5,0.2-0.7c-0.4-1-0.7-2.1-1.2-3c-1.8,0.4-3.4-0.8-4.9-3.6c-0.6-1-1.6-1.7-2.5-2.6
		c-0.2,0.2-0.4,0.3-0.6,0.5c0.7,1.1,1.8,2.1,1.9,3.3c0.2,1.2-0.4,2.6-0.7,3.9c2.7-1.4,4.2-1.1,4.9,2c0.7,2.8,0.4,5.9,0.4,8.8
		c0,1.7-0.3,3.3-0.1,5.1c1.5-2.7,1.5-6.3,5.3-6.8c0.9-0.1,2,1,3.7,1.9c-1.5,0.8-2.2,1.1-2.9,1.4c-3.8,1.8-4.5,3.8-2.9,7.6
		c1.8,4.5,1.6,8.6-1.9,12.3c-0.7,0.7-1.3,1.5-1.7,2.5c2.6-1.5,4.8-3.5,5.4-6.6c0.5-2.5,0.3-5.2,0.5-7.7c0.1-0.8,0.5-1.6,0.8-2.4
		c0.6,0.5,1.5,0.9,1.8,1.6c1.7,3.8,1.7,7.6,0,11.6c-1.8,4.1-5.1,6.6-8.9,9.7c1.6,0,2.4,0,3.9,0c-1.5,1.4-2.5,2.1-3.3,3.1
		c-0.6,0.8-0.7,1.9-1,2.9c0,0.1,0.1,0.2,0.1,0.3c0,1.9-5,6.3-8.4,7.2c-2.7,0.7-4.9,0-6.4-2.8c2.3-1.3,5.7-1,6.4-4
		c-2.3,0.4-4.7,1.6-6.7,1c-1.4-0.4-2-3.3-2.9-5c0.2-0.2,0.5-0.4,0.7-0.5c1,0.6,2.1,1.1,3.9,2.1c-1.1-1.7-1.9-3-2.7-4.2
		c-1.4,1.2-3.2,2-5.2,2.3l0,0c-1.5,0.6-2.6,1.1-3.7,1.6c1.5,1.4,1.5,1.4,5.5,0.1c-1.3,3.8-5,0.7-7.2,2.9c1.2,0.5,2.1,0.9,3.3,1.4
		c-0.5,1-1,1.9-1.4,2.9c-1.3,3.2-0.8,5.8,2,7.7c1.7,1.2,1.8,2.5,1.5,4.1c-0.9,6.1-4.1,11.1-8.2,15.5c-4.2,4.5-7.9,9.3-10.6,14.9
		c-4.2,8.7-11.5,14.2-19.9,18.5c-1.2,0.6-2.6,1-4,1.4c-5.7,1.4-11.4,2.8-17.1,4.2c-4.7,1.2-9.4,1.6-14.2-0.3
		c-4.3-1.6-5.7-5.7-8.2-8.9c-0.3-0.3,0.2-1.5,0.7-2c3.7-4.6,3.4-9.6,1.7-14.8c-0.9-2.7-2.3-5.4-3-8.2c-0.3-1.3,0.5-2.9,0.8-4.4
		c0.4-1.9,0.8-3.7,1-5.6c0.1-1.5,0.3-3-0.2-4.4c-0.9-2.8-3.2-4.3-6-5c-2.3-0.6-3-1.3-1.6-3.7c3.5-5.8,0.5-12.4-6.1-13.6
		c-2.2-0.4-2.7-1.2-2.5-3.4c0.3-2.5,0.1-5,0-7.5c-0.1-3.4,0.6-6.5,2.6-9.4s3.2-6.6,7.4-7.5c1.2-0.3,2.1-1.8,3.5-3.1
		c0.9,1,1.8,2.1,2.7,3.1c2.5-0.3,5.3-0.6,8-0.9c0.1-0.2,0.1-0.5,0.2-0.7c-1.1-0.3-2.2-0.5-3.2-0.8c-0.4-0.1-0.9-0.3-1.3-0.4
		c1.2,0.8,2.4,1.7,3.7,2c-1.3-0.3-2.4-1.2-3.7-2c-0.6-0.2-1-0.4-1.3-0.8c-0.2-0.1-0.4-0.2-0.5-0.3c-0.5,0-0.9,0.1-1.2,0.6
		c0.2-0.5,0.7-0.6,1.2-0.6c-0.4-0.2-0.7-0.3-1.1-0.4c0,0.2,0.1,0.3,0.1,0.5c-0.3,0.2-0.6,0.4-0.9,0.7c-0.8-0.8-2.2-1.4-2.4-2.3
		c-0.2-0.9,0.8-2,1.2-3.1c0.1,0,0.3,0,0.4,0.1c0.9-3.3,1.3-6.7,1.4-10.1c-1.2,1.1-2.7,1.9-4.8,2c0.9,0.2,1.8,0.4,2.7,0.8
		c0.7,0.3,1.2,0.8,1.8,1.2c-0.7,0.4-1.3,0.8-2,1.2c-0.5,0.2-1,0.3-1,0.3c-0.5,1.3-0.6,2.4-1.1,2.8c-3.1,2.4-7.9,1.9-10.7-0.9
		c-0.8-0.8-1.6-1.7-2.5-2.7c-1.1,3.6-0.1,4.8,7,8.8c-1.6,0.3-2.8,0.4-4.2,0.7c3.2,3.3,5.3-0.5,8.2-1.6c-2.5,6.4-7.5,5.1-12.1,4.6
		c0,0.4,0,0.8,0,1.2c1.8,0.8,3.6,1.6,5.9,2.6c-1.4,2-2.7,4.1-4.1,6.1c-1.7-2-3-3.8-4.5-5.5c-1.2-1.3-2.5-2.1-4.5-1.4
		c-0.6,0.2-1.5-0.4-2.2-0.7c-1.4-0.6-2.9-1.2-4.3-2c-0.7-0.4-1.4-1.2-1.7-2c-0.1-0.3,0.9-1.3,1.6-1.5c1.9-0.7,4.2-0.7,5.7-1.8
		c1.8-1.3,3.1-3.4,4.6-5.2c-0.2-0.2-0.4-0.5-0.6-0.7c-0.9,0.6-1.8,1.3-3.3,2.4c-0.4-2.2-0.8-4.3-1.3-6.8c-1.7,3.4-1,6.1,1.1,8.9
		c-2.3,0.3-3.8,0.2-3.4-2.4c0.2-1.5-0.3-3,0-4.5c0.2-1.3,0.6-3,1.5-3.6c0.6-0.4,2.3,0.7,3.5,1.2c0.3,0.1,0.6,0.4,1.6,1.1
		c0.1-1.4,0.3-2.3,0.2-3.2c-0.2-1.3-0.4-2.6-0.8-3.8c-1.6-4.4-2-8.6,1.4-11.9c-1.5-1.8-2.7-3.2-4-4.7c0.2-0.1,0.3-0.3,0.5-0.4
		c1.2,1.1,2.4,2.1,3.8,3.4c1.6-3.4,0.4-7.7,4.4-9.5c1,0.9,1.8,1.6,2.9,2.5c1.1-2.5-3.4-4.5-0.7-6.9c-0.1-0.8-0.2-1.6-0.4-2.4
		c-1.1,2.5-2.9,4.5-5,6.3c-0.7,0.6-2.8,0.7-3.4,0.1c-0.7-0.6-0.9-2.5-0.5-3.5c1-2.6,2.1-5.4,6-5.3c-2.7-1.7-4.9-0.9-6.9,0.6
		c-5,3.9-5.7,11-1.9,17.5c0.5,0.9,1.3,2.3,1,2.9c-2,3.2-1.4,6.3-0.7,9.6c0.2,0.8-0.4,2.4-1,2.7c-4.4,1.5-4.8,4.9-4.4,8.8
		c0.1,1.2,0,2.5,0,4.2c-1.6-0.8-2.6-1.3-3.5-1.7c-0.2,1.9,0.1,3.8-0.5,5.4c-1.3,3.5,0.1,6.7,3.8,7.5c0.8,0.2,1.6,0.5,3,0.9
		c-4.4,3.8-1.4,7.7-1.4,11.7c-1.1-0.5-2-1.2-2.8-1.9c-2-1.9-4-3.8-5.9-5.7c-0.7-0.7-1.8-1.6-1.8-2.3c0.1-4.4-1.8-8-3.9-11.6
		c-0.6-1.1-2.3-2.3-0.2-3.5c1.7-1,3.4-1.3,4.6,0.9c0.5,0.8,1.4,1.5,2.5,2.7c0-4.7-1-7.9-5.2-9.4c2.8-2.6,3-5.4,2.3-8.3
		c-0.4-1.6,0.1-2.5,1.8-3.2c3.1-1.4,3-3.7-0.3-5.7c-0.3,0.8-0.6,1.6-1.1,2.8c-2.8-2.5-6.9-1.8-9.2-5.2c-0.7-1.1-3.8-1.8-5-1.1
		c-4.4,2.2-7.7,2-10.8-2c-0.7-0.9-2.3-1.6-3.4-1.6c-3.3,0-4-1.8-4.7-4.6c-1.6-7.1-7.1-10.2-13.9-7.4c-3.7,1.5-7,4.1-10.8,6.4
		c-6.9-3.7-12.7-2.2-15.5,4.8c-0.9,2.2-1.8,3.4-4.5,3.1c-1.1-0.2-2.6,0.6-3.5,1.4c-2.8,2.3-5.9,3-9.5,2.8
		c-7.2-0.4-12.7,2.7-16.7,8.8c-1.8,2.8-4.5,5-7,7.3c-2.5,2.4-5.6,4.3-6.5,8c-0.2,0.6-1.5,1.2-2.3,1.4c-3.2,0.6-6.2,2-7.6,4.9
		c-1.4,2.8-2,6-2.9,9.1c-0.6,1.9-0.7,4-1.5,5.7c-0.4,0.9-1.8,1.3-2.7,1.9c-0.3-1.1-1-2.1-1-3.2c0.1-1.5,0.6-3,1.2-5.4
		c-1.8,1-2.9,1.4-3.7,2.2c-2.9,2.7-3.9,6.1-3.3,9.9c0.3,1.7,0.1,2.5-1.8,3c-4.6,1.1-7.3,4.9-7.3,9.8c0,0.8,0,1.6,0,2.8
		c-7.2-6.1-14-11.9-20.9-17.6c-3.7-3.1-7.7-5.8-11.3-9c-9.1-8.2-19.6-14-30.9-18.3c-5.8-2.2-11.8-4.1-18.2-2.1
		c-2.9,0.9-3.9,2.7-3.2,5.7c0.2,1,0.5,2.2,0.2,3.1c-1.2,2.8-0.3,5,1.3,7.3c1.2,1.7,2.1,3.5,3.2,5.2c0.5,0.8,1.2,1.6,1.7,2.5
		c2.9,5.1,9.1,8,10.2,14.4c0,0.1,0.1,0.2,0.1,0.3c3.2,4.6,6.4,9.2,9.8,14.1c-0.1,0.4-0.7,1.8-0.3,2.5c2,3.2,4.1,6.3,6.4,9.2
		c1.1,1.4,2.6,2.5,4,3.6c2.6,2,5.7,3.5,7.8,5.9c2.2,2.5,3.4,5.8,5,8.7c0.1,0.3,0.5,0.4,0.6,0.7c0.3,0.7,0.8,1.4,0.7,2.1
		c-0.4,4.5,1,8.5,4.2,11.5c2.9,2.7,5.4,5.3,6.2,9.4c0.2,1.1,1.3,2,1.9,3c0.4,0.6,0.9,1.1,1,1.8c0.6,3.4,1.2,6.8,1.7,10.3
		c0.6,0.1,0.5,0.3,0.3,0.4c-0.4,0.3-0.8,0.6-1.2,0.8c-8.3,5.6-15.4,12.2-18.9,22c-0.3,0.8-1,1.5-1.7,2
		c-13.5,9.7-23.8,22.4-33.4,35.7c-12.3,17.2-22.5,35.6-31.1,54.9c-1.7,3.8-3.3,7.8-4.1,11.9c-1.5,7.3,3.4,12.2,10.7,10.5
		c5.4-1.3,11-3.1,15.6-6c6.7-4.2,12.9-9.3,18.6-14.7c5.8-5.6,10.8-12.2,16.2-18.2c0.9-1,2.5-2.2,3.6-2.1c7.2,0.4,13.7-1.5,19.8-5.1
		c0.6-0.4,1.6-0.6,2.2-0.4c2,0.6,3.9,1.4,6.1,2.2c-0.1,1.5-0.1,3.2-0.3,4.9c-0.6,4.6,1.2,7.5,5.7,8.3c2.5,0.5,5.1,0.1,8.2,0.1
		c-0.6,4.9,1,9.4,6.2,10.3c4.2,0.7,8.7-0.3,13.5-0.5c2.6,3.9,6.5,5.3,11.4,2.6c3.3-1.8,5.9-4.9,8.8-7.5c0.7-0.6,1.2-1.5,1.7-2.2
		c0.6,6.4,1,12.6,0.5,18.7c-0.5,6.1-1.8,12.2-2.7,18.3c0.3,0.1,0.7,0.2,1,0.3c0.9-1.6,2.1-3.1,2.7-4.8c2.5-7.2,4.4-14.6,4.1-22.4
		c-0.1-3.3,0-6.6-0.1-9.9c-0.1-2,0.9-2.5,2.7-3.1c2.7-0.9,5.9-2,7.7-4.1c7.9-8.8,9.8-19.3,6.1-30.3c-1.2-3.6,0-5.6,1.3-8.7
		c0.9,1.8,1.5,3.2,2.3,4.9c3-7.5-2.6-17.4-10.4-19.7c-3.9-1.2-7.8-2.6-11.4-4.5c-6.3-3.4-10.4-13.7-6-20.4c0.3-0.5,0.4-1.3,0.6-1.9
		c-0.3,0.2-0.6,0.3-0.9,0.5c-1-1.2-2.5-2.2-2.9-3.6c-1.2-4.1,0.5-10,2.9-11.7c-0.6,3.7-1.2,7.3-1.8,11.1c0.5-0.1,1.4-0.2,1.4-0.4
		c0.9-4.9,1.7-9.8,2.5-14.8c-0.6,0.1-1.1,0.1-1.7,0.2c0.3-1.4,0.6-2.6,0.7-3.8c0.2-3.9-0.6-7.6-3.9-9.9c-2.9-2.1-5.7-0.6-8.4,0.9
		c-3.8,2.1-7.7,3.9-12.2,3.7c-4.6-0.2-8.3,1.6-11.7,4.6c-2.3,2.1-4.7,4.1-7.3,5.7c-3.3,2-7,3.5-10.4,5.4c-6.9,3.8-13,8.4-15.5,16.4
		c-0.7,2.3-1.6,4.6-2.2,6.9c-1.5,5.1-4.1,9.5-7.6,13.5c-1.4,1.5-2.6,3.2-3.9,4.7c0.2,0.2,0.4,0.4,0.6,0.5c5.2-2.3,7.8-7.5,11.5-11.2
		c1.7,1.3,3.1,2.4,4.4,3.6c0.4,0.3,0.8,1,0.8,1.4c-0.2,2.6-0.5,5.3-0.8,7.5c-3.7,1.7-7.4,3.1-10.8,5.1c-8.6,5-14.6,12.7-19.8,21
		c-2.7,4.3-5.7,8.5-9.1,12.3c-1.9,2.1-4.9,3.3-7.6,4.7c-0.7,0.3-1.9-0.4-2.9-0.7c0.3-0.8,0.4-1.6,0.8-2.3c0.6-1.1,1.4-2,2-3
		c6.9-12.3,16.2-22.7,27.2-31.5c0.9-0.7,1.6-1.8,2.4-2.7c-0.2-0.2-0.3-0.4-0.5-0.6c-0.7,0.3-1.4,0.5-1.9,0.9
		c-4.5,3.6-9.2,7.1-13.4,11.1c-6.5,6.2-11.5,13.6-16,21.4c-1.3,2.2-2.9,4.2-4.4,6.4c-0.2-0.2-0.4-0.3-0.7-0.5
		c0.2-0.5,0.4-1.1,0.7-1.6c6.5-9.6,12.8-19.5,19.7-28.8c4.3-5.9,8.9-11.9,14.7-16.2c7.1-5.2,10.7-11.8,13.3-19.7
		c4.3-12.8,12.8-21.7,25.2-27c4.1-1.8,7.8-4.5,11.7-6.7c8-4.5,15.9-9.2,24.2-13.2c3.7-1.8,8.2-1.8,11.6,1.4
		c4.1,3.8,6.8,8.3,7.1,14.1c0.2,5.4,0.8,10.8,1.6,16.2c0.6,3.8,1.8,7.5,6.1,9c3,1,6.1,2,9.2,2.7c1.5,0.3,3.1-0.1,4.7-0.2
		c3.4-0.3,6.7-0.6,10.1-0.9c0.8-0.1,1.6,0,2.4,0c0.1-0.3,0.1-0.5,0.2-0.8c-1.4-0.9-2.9-1.9-4.2-2.7c9.2-12.8,23.1-15.9,37.3-18.5
		c-2-1-4-1.6-6-1.7c-6.6-0.4-12.7,1.9-18.4,4.7c-3.8,1.9-7.3,2.4-11.1,0.2c-1.3-0.8-2.8-1.2-4.2-1.8c-0.2,0.3-0.5,0.6-0.7,1
		c2.2,1.9,4.5,3.9,7,6.1c-0.8,0.4-1.6,1-2.4,1.2c-5.3,1.6-10.4-0.9-13-6c-0.6-1.2-1.2-2.3-1.8-3.5c-0.4,0.1-0.8,0.2-1.1,0.4
		c0.4,1.8,0.5,3.8,1.1,5.5c1.7,4.8,5.5,7.1,10.3,7.8c-0.9,4.2-3.6,5.1-7,4.4c-2.7-0.5-5.4-1.7-8.1-2.1c-2.7-0.4-4.3-1.7-4.8-4.3
		c-0.8-4.2-1.4-8.5-1.9-12.8c-0.1-0.8,0.5-2.2,1.2-2.6c1-0.6,2.4-0.4,3.6-0.6c0.1,1.2,0.2,2.4,0.3,3.6c0,0.5-0.3,0.9-0.4,1.4
		c-0.8,4.3,1.6,8.6,5,9c-2.2-4.6-2.2-4.6-1.2-10.3c1-5.6-2.2-8.5-7.6-7c-0.5,0.1-0.9,0.2-1.4,0.3c-0.8-2.2-1.4-4.3-2.3-6.3
		c-3.6-8.7-10.8-13-20.2-12.4c-6,0.4-11.2,2.8-16.2,6c-1.1,0.7-2.3,1.4-3.6,2.3c-0.8-2-1.3-3.5-1.9-5c-0.3,0.1-0.6,0.1-0.9,0.2
		c0.3,1.6,0.6,3.1,0.8,4.7c0.1,0.6-0.2,1.2-0.3,1.7c-0.5-0.3-1.2-0.5-1.5-0.9c-1.6-2.7-1.7-5.5-0.3-8.3c1.4-2.9,1.9-5.8,0.9-9
		c-0.3-0.9,0.1-2.1,0.2-3.2c0.3-0.1,0.7-0.1,1-0.2c1,1.7,2,3.3,3,5c1.3,2.1,2.6,4.3,5.5,4c3.1-0.3,4.8-2.5,5-5.2
		c0.2-4.1-0.2-8.2-0.3-12.2c0-1,0.3-2.1,0.5-3.1c1,0.2,2.1,0.4,3.1,0.7c1.1,0.3,2.2,0.7,3.4,1.1c-0.5-1.2-1-2.4-1.6-3.5
		c-0.4-0.7-1.1-1.1-1.8-1.6c-3.3-2.2-7.2-0.3-7.4,3.6c-0.1,1.3,0.3,2.6,0.4,3.9c0.3,2.7,0.8,5.4,0.7,8.1c0,1.5-1,2.9-1.5,4.4
		c-0.4,0-0.7-0.1-1.1-0.1c-0.6-1.1-1.2-2.2-1.7-3.3c-3.3-7.3-4.8-8.3-12.4-8.1c1.6-1,3.3-1.8,5.1-2.2c4.1-1,6-3.2,5.5-7.3
		c-0.3-2.4-1.2-4.8-2.2-7.1c-0.8-1.9-1.4-3.9,0.2-5.3c1.2-1,3.2-1.4,4.8-1.4c1.5,0,3,0.8,4.6,1.2c0.6,0.1,1.3-0.1,1.9-0.1
		c-0.1-0.6,0.1-1.6-0.3-1.8c-2.4-1.6-2-3.7-1.4-6.1c0.8-3.7-1-7-4.1-8.2c-2.8-1.1-5.7,0-8,3.1c-0.3,0.4-0.6,0.7-1.2,1.3
		c-0.6-3.4,0.8-5.4,3.3-6.7c4.5-2.3,7.7-1.3,10.7,3.1c0.8,1.2,1.6,2.5,2.4,3.8c0.4-0.2,0.8-0.4,1.2-0.6c-0.9-2.4-1.8-4.7-2.6-7
		c2.4-1.9,4.8-3.8,7.8-6c0.2,3.1,0.4,5.8,0.7,9.4c0.6-1.5,1.1-2.1,1.2-2.8c0.8-3.6,0.3-7.1-1.2-10.6c-2.2-5.2,0.1-8.9,5.7-9.6
		c0.5-0.1,1-0.3,1.5-0.5c-0.8-1-1.8-1.5-2.7-1.5c-5.4-0.2-8.9,5.5-7.2,11.2c0.3,1,0.6,2.8,0.1,3.2c-2,1.8-4.1,3.6-6.5,4.6
		c-2.9,1.2-5.6-1-5.8-4.3c7,1.7,10.8-1.3,11.2-8.8c0.1-2.1,0.3-4.2,0.8-6.2c1-3.7,4.1-6.5,7.7-6c3.3,0.5,4-1.5,5.4-3.4
		c2.3-3,4.9-5.7,7.5-8.4c2.1-2.3,4.7-4.4,6.5-6.9c2.8-4.1,6.2-6.4,11.2-6.3c2,0.1,4,0.2,6-0.1c1.4-0.2,3.2-0.5,4.1-1.5
		c2.4-2.7,4.8-4.7,8.4-2c3.3-8.6,5.4-10.9,9.1-10c4.5,1,7.5,4.5,7.2,8.2c-0.6,0-1.2,0-2.8,0c1.2,2.1,1.9,3.9,3.1,5.1
		c2.7,2.5,5.6,0.7,8.5-0.5c-0.8,2.7-1.7,5-3,7.2c-1.4,2.5-3.6,4.3-6.7,3.4c-3.2-0.8-4.1-3.6-4.6-6.4c-0.2-1.3-0.3-2.7-0.4-4
		c-0.3-0.1-0.6-0.2-0.9-0.3c-0.6,1.2-1.5,2.4-1.7,3.7c-0.5,3.4,0.7,6.4,3.2,8.7c3.9,3.5,9.5,3.2,12.8-1.1c2-2.6,3.4-5.7,5.1-8.7
		c1.1,0.9,2.2,1.8,3.3,2.8c0.4-0.3,0.7-0.5,1.1-0.8c-1.1-2.2-1.9-4.7-3.4-6.6c-3.1-3.7-6.9-1.3-10.2,0c-0.3-2.5,0-4.9-0.8-6.8
		c-1.4-3-0.3-5,2-6.3c2.5-1.5,5.1-2.9,7.8-3.5c3.4-0.8,6.4,1.2,7.3,4.3c1.5,5.2,3,10.5,4.6,15.8c2.6-1.5,1.2-5.1,2.1-7.6
		c3.9,1.1,5,3.5,3.3,6.8c-0.9,1.8-2.7,3.4-1.5,6.7c1.8-2.3,3.2-4,4.5-5.8c1.7-2.5,3.2-2.9,5.6-1.3c2.6,1.7,3.6,4.5,2.6,7.9
		c-1.8-0.8-3.6-1.5-5.4-2.3c0.1,0.4,0.2,0.7,0.3,1.1c-1.6,1.1-3.2,2.3-4.8,3.4c-0.4,0.3-1,0.4-1.2,0.8c-1.4,2.2-3.3,1.7-4.5,0.3
		c-0.7-0.9-0.5-2.8-0.3-4.3c0.2-1.1,0.9-2.2,1.4-3.3c-0.3-0.2-0.6-0.3-0.9-0.5c-2.2,1.2-3.5,3.4-3.6,5.8c-0.1,1.5,1.2,3.2,2.3,4.4
		c0.7,0.8,2.1,1.1,3.2,1.7c2.3,1.2,2.9,2.7,1,4.7c-0.6,0.7-1.3,1.4-2.1,2.2c-1-4.9-1.5-5.4-4.8-5.1c-0.8,0.1-1.6,0.3-2.3,0.5
		c-5,1.5-5.2,1.4-4.6-3.7c0-0.2-0.2-0.3-0.7-1.1c-1,0.9-2.2,1.6-2.6,2.6c-1.5,3.6,1.7,7.4,5.7,7c1.4-0.1,2.9-0.5,4.2-0.8
		c0,2.2-0.7,4.5,0.1,6c1.5,2.8,0.8,5.2-0.1,7.7c-2.8,7.2-2.6,7.5,4.5,9.9c0.7,0.2,1.6,1,1.8,1.7c0.1,0.5-0.8,1.2-1.5,2.3
		c-1.2-3.4-3.1-3.3-5.3-2.3c-0.9,0.4-1.6,1.3-2.6,1.5c-1.2,0.4-2.8,0.9-3.6,0.4c-1.5-1.1-1.6-2.7-0.2-4.4c1.4-1.8,2.7-3.8,3.6-5.9
		c1.5-3.5-0.2-7.1-4.2-8.4c3.5,4.7,2.3,8.8-0.8,12.3c-3.2,3.5-3.4,6.7-1,10.8c2.1,3.5-1.1,8.3-5.3,8.5c0.2-0.7,0.5-1.3,0.6-2
		c1.1-4.2-0.7-6.6-5.1-6.8c-3.4-0.1-6.2,1.3-8.6,3.7c-0.6,0.6-1.3,1.2-2.4,2.1c-0.1-1.2-0.1-1.7-0.2-2.2c-0.1-0.5-0.2-1.1-0.3-1.7
		c-2.3,1.4-2.8,3.3-1.4,5.2c1.4,1.8,2.9,1.7,4.7,0.3c2-1.6,4.1-3.1,6.4-4.2c0.9-0.4,2.7,0,3.6,0.7c0.5,0.4,0.2,2.2-0.2,3.2
		c-1.2,2.9-2.1,5.6-0.1,8.6c0.4,0.6-0.3,2.3-0.9,3.1c-0.7,0.9-1.9,1.5-2.9,2.2c-2.6,1.8-3.9,4-3.5,7.4c0.2,2.1-0.8,4.3-1.5,6.9
		c-2.7-2.5-2.9-4.7-1.8-7.3c0.7-1.6,1.5-3.3,1.8-5.1c0.4-2.4-0.7-4.4-2.9-5.5c-2.1-0.9-3,0.8-4.1,2.2c-1.9,2.4-4.4,2.1-7.6-0.6
		c-2.5-2.1-0.1-3.2,0.8-4.7c0.2-0.4,0.5-0.8,0.8-1.1c-0.2-0.3-0.4-0.5-0.6-0.8c-1.1,0.7-2.7,1.2-3.1,2.2c-0.6,1.8-0.9,4-0.5,5.9
		c0.3,1.4,1.9,2.5,3,3.7c3.5,3.9,3.4,4.9,0.5,9.1c-0.8,1.2-1.3,2.7-1.5,4.1c-0.2,1.7-0.4,3.6,2,4.5c0.8-3.1,0-6.7,3.4-8.7
		c0.7,0.3,1.4,0.5,2,0.8c5,2.2,6.3,6.1,3.4,10.6c-0.8,1.3-1.8,2.4-2.6,3.7c-3.5,5-3.1,9.8,1.1,14.1c1.3,1.4,2.7,2.8,3.7,4.3
		c1.6,2.3,0.3,4.9-2.3,5.4c-1.7,0.3-3.5,0.5-4.9,1.4c-3.4,2-5.6,1-6.9-3.3c-0.6-2-0.4-4.8,0.6-6.6c2.8-5.1,2.1-10,0.1-15.1
		c-0.2-0.5-0.8-0.9-1.2-1.4c-0.3,0.1-0.6,0.2-0.9,0.3c0.2,1.5,0.3,3,0.6,4.5c0.7,4.3,1,8.5-3.1,11.5c-2.4,1.8-4.2,1.3-5.5-1.4
		c-0.5-1.1-1.1-2.1-1.7-3.2c-0.9-1.5-1.9-2.7-3.5-0.9c-6.5-5.5,0.3-8.7,1.9-13.3c0.1,2.5-0.1,4.7,0.5,6.6c0.3,1,1.8,2,3,2.3
		c0.8,0.2,1.9-0.7,3-1.2c-1.8-0.9-3.9-1.2-4.1-2.1c-0.3-1.3,0.3-3.1,1-4.4c2-3.5,4.4-6.9,6.9-10.8c-4.8,0.4-5.8,3.7-7.2,7.5
		c-1.9-4.9-6-2.6-8.9-4.3c-0.3,0.9-0.8,1.7-0.6,2.2c0.6,1.6,1.5,3.2,2.2,4.7c-0.9,1.5-1.6,3.2-2.7,4.6c-3.2,4.2-0.6,11.2,5.1,12.7
		c0.5,0.1,1.3,0.4,1.4,0.8c1.1,4.1,3.7,6,7.8,5.5c2.3,8.8,5.9,10.8,15.3,8.9c1.8,6.1,3.3,7.6,7.2,6.9c-0.5-0.8-0.9-1.7-1.5-2.3
		c-2.2-2-1.9-4.1-0.7-6.5c1.5-2.9,2.9-6,4.4-9.1c1.8,1.4,4,3.1,6.2,4.8c0.2-0.2,0.5-0.5,0.7-0.7c-0.5-1.2-0.9-2.4-1.5-3.5
		c-1.9-3.2-1.2-6.1,0.7-9c1.5-2.2,2.7-4.6,4.3-7.5c4.2,1.2,9,2.7,13.9,4.2c1.7,0.5,3.5,1.2,5.3,1.2c3.5,0.1,6.9-0.2,9.2-3.4
		c4-5.5,0.1-14.6-7.2-16c0.9,1.9,1.9,3.7,3.2,5.3c1.7,2.3,2.1,5,0.6,7c-1,1.4-3.4,2-5.3,2.4c-1.4,0.3-3-0.2-4.4-0.6
		c-3.8-1.1-7.7-2.3-11.4-3.7c-2-0.7-4.3-1.4-5.8-2.8c-2.3-2.3-3.9-5.3-5.9-7.9c-2-2.5-1.2-4.9-0.2-7.9c1.2,2.5,2.2,4.6,3.2,6.6
		c0.3-0.1,0.5-0.2,0.8-0.3c-0.4-1.7-0.9-3.4-1.2-5.1c-0.7-3.9,0.8-5.2,4.5-4.4c0.5,0.1,1.1,0.4,1.5,0.2c3.2-2.1,4.7-0.4,5.8,2.4
		c0,0.1,0.4,0,1.6,0c-1-1.9-1.5-3.7-2.7-4.8c-0.6-0.5-2.4,0.2-3.6,0.3c-0.6,0.1-1.2,0.3-1.7,0.2c-1.6-0.3-3.2-0.7-4.9-1.1
		c0.9-0.8,2.1-1.4,2.6-2.4c1.7-3,3.8-2,5.8-0.7c1.1,0.7,1.8,2.1,2.7,3.1c1.6,1.7,2.9,3.9,6.3,3.2c-3.5-5.2-5.3-11.7-13.3-12.2
		c1.3-0.7,2.5-0.9,3.6-0.9c1.4,0,2.9,0.4,4.2,0c2.3-0.7,3.6-0.1,4.6,2c0.6,1.2,1.6,2.3,2.5,3.7c2-4.1,1.5-6.8-1.3-9.9
		c-1.2-1.3-2.3-2.6-0.6-4.2c2.6,1.7,5.1,3.3,7.7,4.9c0.3-0.3,0.5-0.5,0.8-0.8c-0.9-1.2-1.6-2.6-2.7-3.5c-2.3-1.7-1.9-3.3-0.2-5
		c1.1-1.1,2.4-1.9,3.3-3c3.1-3.6,1.7-7.6-2.9-8.6c-4.1-0.9-4.4-1.7-2.1-5.1c1.1-0.2,2.5-0.6,2.7-1.4c0.7-2.1,1.4-4.4,1.3-6.6
		c-0.1-2.2,0.3-3.9,1.7-5.5c1.8-2.1,3.4-4.3,2.8-7.3c-0.1-0.5,0.3-1.4,0.8-1.8c1.6-1.5,3.3-2.8,5.3-4.4c2.3,2.3,5.2,4.2,6.1,8
		c0.8,3.2,1.8,6.4,3.3,9.3c3.1,5.8,4,11.2,0,17c-1.1,1.6-1.4,3.7-2.1,5.5c0.3,0.2,0.6,0.3,1,0.5c0.6-0.7,1.2-1.4,1.8-2.1
		c1.4-1.8,2.6-3.8,4.2-5.5c0.5-0.5,2-0.8,2.6-0.5c1.4,0.9,2.7,2.1,3.8,3.4c1.1,1.3,0.7,2.4-1.1,2.8c-1.5,0.3-2.9,0.7-4.4,1.1
		c0,0.4,0.1,0.7,0.1,1.1c1.6,0,3.2-0.1,4.8,0.1c0.8,0.1,2,0.8,2.1,1.3c0.6,3.7,3.1,5.8,6.1,7.4c8.6,4.5,13.4,11.8,16,20.9
		c0.2,0.8,0.6,1.6,1,2.5c-0.4-8.1-3.7-14.8-8.9-21c6.9,0.3,10.7,1.3,10.6,4.1c-1.3,1.7-2.1,2.9-3,4c1,0.4,1.9,0.9,3.1,1.4
		c-0.2,0.4-0.5,1.1-0.8,1.8c-1.4,2.7-0.2,5.4,2.8,5.9c2,0.3,4.2,0.8,4.2,2.9c0,1.3-1.9,2.6-3,3.8c-0.1,0.1,0,0.2-0.1,0.7
		c1.3,0.1,2.5,0.2,4.5,0.4c-0.9,1.3-1.6,2.2-2.2,3.1c-0.4,0.5-1.2,1.1-1.1,1.6c0.8,3.6,0.1,7.6,2.7,10.9s2.1,7.3,1.4,11
		c-0.9,4.6-5.5,6.7-9.9,4.8c-0.4-0.2-0.9-0.1-2-0.3c2.5,4.9-1.5,6-3.9,7.9c-1.3,1.1-3,1.7-4.2,2.8c-2.6,2.5-5.7,5-7.5,8.1
		c-4.1,7-5.9,14.9-5.7,23.1c0.2,11,4.3,21.1,8.2,31.2c0.4,1.2,1.1,2.2,1.6,3.2c-3.2-2.9-6.3-6-9.7-8.8c-9.3-7.7-18.9-14.9-31.8-15.5
		c-5.2-0.3-10.2-2-14.4-5.5c-0.7-0.6-1.5-0.9-2.3-1.4c-0.1,0.2-0.3,0.4-0.4,0.6c0.7,0.8,1.4,1.6,2.2,2.3c4.3,3.9,9.5,5.4,15.1,6
		c4.9,0.6,9.9,0.9,14.1,3.7c4.5,3,9.1,5.9,13.2,9.5c5.3,4.6,10.1,9.7,15.2,14.5c2.2,2.1,4.9,3.9,6.9,6.2c10.2,12.3,21,24,33.4,34.2
		c7,5.8,14.6,11.2,24.7,9.9c0.4-0.1,1,0.2,1.4,0.5c4.5,2.7,8.6,1.6,12.8-0.8c2-1.2,3.9-2.4,6-3.4c17.5-8.1,30.1-20.7,35.7-39.6
		c0.4-1.3,2-2.6,3.4-3.2c2.4-1.1,5.2-1.6,7.7-2.6c3.3-1.5,5.6-3.9,6.3-8.3c-2.5,1.8-4.6,3.4-6.7,4.9c-0.3-0.2-0.6-0.4-0.9-0.6
		c0.9-2.6,1.7-5.2,2.7-7.7c0.8-2.2,2-4.3,2.7-6.6c0.9-2.9,2.6-5,5.5-5.8c0.7-0.2,1.9,0.2,2.3,0.7c1.1,1.5,1.9,3.3,2.8,5
		c-0.6,0.2-1.1,0.5-2.1,0.9c3.2,1.9,6.4,3.1,8.8,5.3c2.3,2.1,3.7,5.2,5.8,8.4c-0.1-2.2-0.2-4.1-0.3-6.2c0.7,0.1,1.4,0.1,1.8,0.4
		c6.4,5.4,8.4,6.7,1.5,12.8c-2.6,2.3-4,5-4.4,8.6c-0.6,5-1.5,9.9-2.6,14.7c-0.4,1.6-1.7,3.1-3,5.3c-0.2-2.8-0.3-4.5-0.4-6.2
		c-0.3,0-0.5-0.1-0.8-0.1c-0.5,1.1-1.1,2.3-1.6,3.4c-1.2,3.1-3.2,5.6-6.4,6.8c-2.4,0.9-4.9,1.7-7.4,2.4c-5,1.3-9.7,3.2-13.7,6.5
		c-3.9,3.2-7.9,6.5-12.3,9.1c-10.8,6.4-22.9,9.2-35,11.5c-5.7,1-11.5,1.1-17.3,1.4c-3,0.1-5.9-0.2-8.9-0.3c-2.6,0-5.3-0.5-6.3-3.1
		c-0.7-1.9-1.7-2-3.4-2c-3.3,0-6.6,0-9.9-0.6c-10.6-1.8-21.1-4.1-31.6-5.9c-15-2.5-28.8-7.6-41.2-16.6c-3.1-2.3-6.6-4.3-10.1-5.9
		c-4.7-2.1-8.7-4.9-11.8-9c-0.8-1-1.8-1.8-2.7-2.8c0,5.9,4.4,8.7,8.1,12.4c-6.6,1.4-11.8-2.3-17.7-3.1c1.6,2.1,3.2,4.3,5.3,5
		c4.1,1.3,8.6,2.8,12.8,2.3c6.1-0.6,10.8,1.4,15,5.3c7.4,6.9,16.2,11.3,25.8,13.8c9.3,2.4,18.8,3.9,28.3,5.6
		c2.5,0.4,4.3,0.8,4.5,3.9c0.2,2,1.3,4,2.3,5.9c5.4,10.1,7.2,20.7,5,32.1c-0.9,4.4-1.3,8.9-1.6,13.4c-0.1,2.1,0.4,4.2,0.7,6.3
		c0.4,0,0.8,0,1.2,0c1.5-9.1,3-18.1,4.7-28.1c6.3,11.4,14.5,19.7,25.5,25.1c0.1-0.5,0.1-0.8-0.1-1c-2.4-2.4-4.7-5-7.3-7.2
		c-13.6-11.8-19-27.2-20-44.6c-0.1-2.5,0.8-2.8,3-2.4c3,0.6,6.2,0.7,9.2,1.1c1.5,0.2,3.1,0.5,4.3,1.3c2.8,1.8,5.7,2.9,9.1,2.2
		c1.2-0.2,2.6,0,3.8,0.1c2.9,0.3,5.9,1.2,8.6,0.8c9.3-1.4,18.6-3,27.8-5.1c12.9-3,24.6-8.5,34.3-17.9c5.1-4.9,12.1-5.5,18.8-7.9
		c-1.9,9.3,1.2,17.3,3.6,25.4c0.5-0.4,0.6-0.8,0.6-1.2c-0.7-5.2-1.7-10.3-2.1-15.5c-0.2-2.8,0.4-5.7,0.9-8.6
		c0.1-0.7,1.1-1.5,1.8-1.7c4.1-1.2,6.9-4,9.4-7.2c0.7-0.9,1.3-1.8,2.5-3.4c0,0.4,0.2,0.8,0.3,1.2c0.6-0.8,1.2-1.6,1.8-2.5
		c-0.2-0.6-0.3-1.3-0.4-1.9c-0.1-2.9-0.1-6.4,1.4-8.7C461.6,521.9,464.6,514.9,466.4,507.5z M437.1,355.6c0.6,0.1,1,1.2,1.5,1.8
		c-0.6,0.2-1.2,0.5-1.9,0.7c-1.5,0.3-3,0.5-4.9,0.8C432.7,356.3,434.4,354.9,437.1,355.6z M409.5,389.4c-1.8-3.3-4.4-3.8-8.1-2.3
		c1.5-3.1,7.9-2.5,10.4,0.2C411.2,387.8,410.5,388.5,409.5,389.4z M399.6,378.9c-0.6-2.3,0.4-3.9,2.1-5.2c0.5-0.4,1.1-0.8,1.6-1.2
		c0.3,0.4,0.6,0.6,0.6,0.8c-0.4,4.9,2.6,7.7,7.6,7.2c2.2-0.2,4.4-0.5,6.5-0.6c2.4-0.1,4.8,0,5.6,2.9c0.6,2.1-1.4,4.3-4.9,5.6
		c-0.5-4.1-3.4-5.1-6.6-5.6c-2.7-0.5-5.4-0.6-8-1.1C402.3,381.4,400.3,381.2,399.6,378.9z M395.4,402.1c2.2-3.2,3.8-6.8,8.7-7.2
		c-0.3-0.5-0.7-1-1-1.4c-1,0.5-1.9,0.9-3.3,1.6c0.3-1,0.5-1.8,0.7-2.6c0.5-1.9,1.2-3.7,3.6-2.6c2.3,1,1.9,3.2,0.9,4.6
		c-2.6,3.8-5.5,7.3-8.2,10.9C394.8,404.5,394.2,403.8,395.4,402.1z M395.3,406.6c-1,5.3-4.2,7.7-8,5.8
		C390.8,406.5,392.4,405.4,395.3,406.6z M86,541.4c-1.5,0.2-4.5-0.4-4.5-0.9c-0.2-1.9-0.1-4.2,0.9-5.8c2.3-3.7,5.2-7.1,7.7-10.7
		c3.5-5.1,8.1-9,13.6-11.5c1.7-0.8,4.2-0.1,7.1-0.1c-7.1,6-13.3,11.4-19.5,16.7c0.3,0.4,0.6,0.8,0.9,1.2c5.7-4.5,11.4-9,17.2-13.6
		c0.2,0.2,0.4,0.5,0.6,0.7c-5.1,4.8-10.2,9.6-15.2,14.4c0.3,0.3,0.5,0.6,0.8,0.9c4.9-4.1,9.8-8.2,14.8-12.4c2,1.9,2.2,3.3,0,5.2
		c-2.7,2.3-4.8,5.1-7.3,7.6C98.3,537.8,92.6,540.5,86,541.4z M113,485.2c2.2-0.7,4.4-1.5,7.2-2.4c-2.1,2.5-3.8,4.5-5.4,6.4
		c0.3,0.3,0.6,0.6,0.8,1c1.9-1.4,3.8-2.7,5.7-4.1c0.1,0.1,0.3,0.3,0.4,0.4c-1.8,3.3-3.6,6.6-5.5,10.1c-3.2-1-6.1-2.8-7.1-6.6
		c-1.5-5.7,1.3-10,4.7-14.3c1.9,1.5,3.7,3,5.1,4.1c-2.1,1.3-4.3,2.8-6.6,4.3C112.7,484.5,112.9,484.8,113,485.2z M129.5,482
		c2.2-1.2,4.5-2.3,6.7-3.5c0.1,0.1,0.2,0.2,0.4,0.3c-1.3,1.7-2.5,3.5-3.8,5.2c0.2,0.2,0.4,0.4,0.6,0.6c1.7-1.3,3.5-2.6,5.2-3.9
		c0.3,0.1,0.6,0.1,0.9,0.2c-0.1,0.9,0,1.9-0.3,2.8c-0.6,1.7-1.8,3.2-2.1,4.9c-0.4,2.2-1.3,2.8-3.5,2.4c-4.2-0.9-8-2.4-9.6-6.7
		c-1.2-3.3-0.5-6.5,1.8-9.4c1.9,1.2,3.6,2.3,5.4,3.5c-0.7,1-1.5,2-2.3,3.1C129.2,481.6,129.3,481.8,129.5,482z M146.8,479
		c2.1-1.3,4.2-2.5,6.8-4.2c-1.7,2.6-3,4.6-4.3,6.7c0.5,0.4,0.9,0.8,1.4,1.2c1.2-1.9,2.4-3.8,3.6-5.7c2,6.9-1.5,9.7-7.6,7.6
		c-1.4-0.5-2.9-1.3-3.7-2.4c-1-1.5-2.4-4-1.8-5c1.2-2,3.6-3,6.2-0.9c-0.4,0.7-0.7,1.4-1.1,2.2C146.5,478.6,146.6,478.8,146.8,479z
		 M150.2,505.5c1.8-0.9,3.7-1.9,6.2-3.2c-0.5,2.6-0.9,4.3-1.2,6.1c0.2,0.1,0.5,0.3,0.7,0.4c0.6-0.8,1.2-1.8,1.9-2.5s1.6-1.6,2.5-1.7
		c0.5-0.1,1.3,1.1,1.8,1.8c0.6,0.9,1,1.9,1.6,3.2c-1.8,1.2-3.5,2.6-5.4,3.6c-5.9,3.1-11.9-0.1-12.8-6.8c-0.8-5.4,0.7-7.5,5.9-8.1
		c0.5-0.1,1.4,0.5,1.6,0.9c0.2,0.6,0.1,1.6-0.2,2c-0.9,1.2-2.1,2.2-3.2,3.3C149.8,504.9,150,505.2,150.2,505.5z M170,512.4
		c1.9-0.7,3.7-1.4,5.8-2.1c0.1,4.3-0.7,8.2-3.2,11.4c-2.1,2.7-5.1,3.5-8.4,2.7c-2.6-0.6-6-4.3-6.3-6.7c-0.1-0.5,0.2-1.2,0.6-1.5
		c1.5-1.3,3.1-2.4,5.1-3.9c0,2.4,0,4.3,0,6.2c0.3,0.1,0.7,0.2,1,0.3c0.7-2.1,1.4-4.2,2.2-6.7c1.1,2.1,2,3.9,3,5.6
		c0.3-0.1,0.5-0.1,0.8-0.2C170.4,515.8,170.2,514.2,170,512.4z M145.9,525c-1.1-2.2-1.9-4.6-2.6-7c-0.2-0.8,0-2.3,0.4-2.5
		c1-0.5,2.4-0.8,3.5-0.5c1.9,0.6,3.5,1.8,5.6,2.9c-1.2,2.1-2.4,4.1-3.5,6.2c0.3,0.2,0.6,0.4,0.9,0.7c1.7-1.8,3.3-3.7,5.1-5.7
		c0,1.7,0,3.2,0,5.1c0.9-0.7,1.5-1.1,2.1-1.6c1.2,1.3,2.3,2.5,3.5,3.7C154.9,532.7,148.7,530.4,145.9,525z M160.2,531.2
		c-0.5,2.4-1,4.9-1.5,7.3c-0.3-0.1-0.5-0.1-0.8-0.2c0.6-2.4-0.4-5.1,1.3-7.4C159.5,531,159.8,531.1,160.2,531.2z M136.7,505
		c1.8-1.3,3.6-2.6,5.4-4c0.2,0.1,0.4,0.2,0.6,0.2c-1.1,2.6-2.1,5.1-3.2,7.7c0.2,0.1,0.4,0.3,0.6,0.4c0.7-0.6,1.3-1.1,2.2-1.9
		c0.8,2,1.6,3.7,2.3,5.4c-4.6,1.8-9,0.2-10.7-4.8c-1.4-4.2-1.5-8.8-2-13.2c-0.1-0.6,1.1-1.8,1.7-1.8c1.2,0,2.7,0.2,3.5,1
		c1.2,1.2,1.9,3,2.8,4.7c-1.2,1.7-2.6,3.5-4,5.3C136.2,504.4,136.5,504.7,136.7,505z M137.1,516.4c-2,1.6-4,3.3-6,4.9
		c0.2,0.3,0.4,0.6,0.6,0.9c2.3-1.3,4.6-2.6,7.7-4.3c-0.9,3-1.6,5.2-2.3,7.5c0.3,0.1,0.6,0.3,0.8,0.4c1-1.4,2-2.9,3-4.4
		c1.4,2.8,2.7,5.4,4.1,8.3c-1.9,0.7-3.7,1.5-5.6,2c-5.4,1.3-10.2-1.4-11.6-7.2c-0.9-3.7-0.9-7.7-1.2-11.6c0-0.6,0.7-1.7,1.3-1.9
		c1.2-0.3,3-0.8,3.8-0.2C133.8,512.4,135.4,514.5,137.1,516.4z M141.8,485c1.2,0.7,2.4,1.4,3.8,2.2c-0.9,1.4-1.6,2.6-2.4,3.8
		c0.2,0.2,0.4,0.4,0.6,0.6c1.6-1.1,3.2-2.3,4.8-3.4c0.2,0.1,0.3,0.2,0.5,0.4c-1,2-2,3.9-2.9,5.9c0.2,0.2,0.4,0.3,0.7,0.5
		c1.4-1.6,2.9-3.2,4.3-4.9c1.9,2.6,0.9,6.5-1.6,7.3c-4.1,1.3-7.5,0.5-9.4-2.3C138.2,492,138.7,488.7,141.8,485z M130.2,493.5
		c-2.1,1.8-4,3.4-5.8,5c0.2,0.3,0.4,0.7,0.7,1c1.1-0.4,2.3-0.8,3.4-1.2c0.1,0.1,0.3,0.3,0.4,0.4c-1.8,2-3.5,4.1-5.3,6.1
		c0.3,0.3,0.5,0.6,0.8,0.9c1.5-1.1,3-2.2,4.8-3.6c0.5,2.2,1,4.3,1.5,6.3c-4.1,1-6.9,0-8.9-3.2c-2.8-4.5-2.1-11.4,1.6-16
		C125.6,490.6,127.8,492,130.2,493.5z M117.6,515.4c2.1-0.8,4.3-1.7,6.4-2.5c0.1,0.1,0.2,0.3,0.3,0.4c-1.8,2.1-3.6,4.3-5.5,6.4
		c0.2,0.3,0.5,0.6,0.7,0.8c1.5-0.8,2.9-1.6,4.6-2.5c0.4,2.9,0.8,5.6,1.2,8.3c-6.1,0.3-9.9-1.8-11.6-6.2c-2-4.9-0.3-11.5,3.9-15.1
		c1.4,1.8,2.7,3.6,4.1,5.4c-1.6,1.3-3.1,2.7-4.7,4.1C117.2,514.8,117.4,515.1,117.6,515.4z M109.8,496.8c-1.6,0.6-3.4,1.3-5.1,2
		c0.1,0.4,0.2,0.7,0.3,1.1c2.7-0.1,5.4-0.3,8.1-0.4c0.1,0.2,0.2,0.4,0.2,0.5c-1.9,1.4-3.8,2.8-5.7,4.2c0.1,0.3,0.3,0.6,0.4,0.9
		c2.5-1,5-2,7.9-3.1c-1.9,2.9-3.6,5.5-5.3,8c-0.2,0.3-0.7,0.4-1.1,0.4c-7.2-0.2-12.2-6.2-11-12.2c0.8-4.1,4.2-6.1,7-8.5
		C107.2,492.2,108.4,494.4,109.8,496.8z M108.1,538.1c-1.1,0.2-2.4-0.5-3.6-0.8c0.5-1,0.9-2,1.6-2.9c1.9-2.2,3.8-4.4,5.9-6.4
		c0.9-0.8,2.8-1.9,3.2-1.5c1.8,1.5-0.4,2.2-1,3.3c-0.4,0.7-1,1.2-1.4,1.9c0.2,0.2,0.4,0.5,0.6,0.7c1.4-1.2,2.6-2.9,4.2-3.5
		s3.5-0.1,6-0.1C118.9,533.7,114.1,537,108.1,538.1z M123.2,549.9c-1.8,1-3.9,1.7-5.9,2c-2.9,0.5-4-0.7-4-3.7c0-0.4,0.1-0.8,0-1.2
		c-1.2-5.2,2-8,5.5-10.7c2.7-2.2,5.4-4.4,8.5-6.8c1.6,0.9,1.2,2.2,0.1,3.5c-1.9,2.2-3.7,4.4-5.5,6.7c0.2,0.3,0.5,0.5,0.7,0.8
		c2.7-2.4,5.3-4.7,8-7.1c0.2,0.1,0.4,0.3,0.6,0.4c-1.8,2.8-3.7,5.7-5.5,8.5c0.2,0.2,0.5,0.4,0.7,0.6c1.5-1.7,3.3-3.3,4.4-5.2
		c1.6-3,3.7-3.9,7.1-2.6c-0.4,0.7-0.7,1.5-1.2,2.2C133.1,542.5,128.8,546.9,123.2,549.9z M138.4,561.2c-1.7,0.9-3.5,1.6-5.3,2
		c-3.9,0.9-6.7-1.9-5.4-5.7c1.3-3.9,2.2-8,5.7-11c2.3-2,4.3-4.9,5.4-7.8c1.5-4,4-6.4,8.5-8.6c-1.4,7.9-6.1,13.7-8.9,20.2
		c5.3-4.9,8.2-11.4,10.7-18c0.3,0.1,0.6,0.3,0.9,0.4c-0.9,3.2-1.9,6.5-2.8,9.7c0.3,0.1,0.6,0.2,0.8,0.3c0.7-1.9,1.5-3.7,2.2-5.6
		c1.4-3.8,1.4-3.8,6.1-4c-0.6,2.5-1.1,4.9-1.9,7.2C151.3,548.9,146.9,556.6,138.4,561.2z M160.9,554c-2.4,3.7-5.6,7-8.6,10.3
		c-0.7,0.8-1.8,1.4-2.9,1.5c-0.8,0.1-2-0.3-2.6-1c-0.4-0.5-0.4-1.8-0.1-2.4c2.8-5.6,5.8-11.2,8.7-16.8c0.2,0,0.4,0.1,0.6,0.1
		c-1.1,3.2-2.2,6.5-3.4,9.7c0.4,0.2,0.7,0.3,1.1,0.5c1.8-4.1,3.8-8.2,5.2-12.4s2.3-8.6,3.4-12.9c0.3,0,0.5,0.1,0.8,0.1
		c-0.8,5.9-1.7,11.8-2.5,17.8c0.1,0.1,0.3,0.1,0.4,0.2c0.5-1.3,1.2-2.5,1.4-3.8c0.8-4.8,1.4-9.7,2-14.6c0.3-2.8,0.3-2.9,3.5-2.6
		C167.5,536.9,165.9,546,160.9,554z M178,516.4c1.7-2.7,1.3-5.4,0.6-8.3c0.9,1.5,1.7,3,2.6,4.5c0.3-0.1,0.6-0.2,1-0.3
		c-0.4-1.5-0.7-3.1-1.3-4.5c-0.7-1.6-1.6-3.1-2.1-5.2c1,0.6,2.3,1,3.1,1.8c2,2.2,2.4,9.3,0.6,11.7c-0.6,0.9-1.7,1.6-2.8,2
		C179.3,518.3,177.8,516.6,178,516.4z M178.3,521.1c2.6-1.2,3.6-0.4,4.3,2.4c2.1,9.5,0.3,17.9-6.1,25.2c-1.9,2.2-4.3,3.5-7.2,2.4
		c-0.9-0.3-2-2-1.8-2.8c1.6-6.6,3.3-13.2,1.8-20.2c-0.1-0.4,0.6-1.2,1.1-1.5c1.2-0.8,2.6-1.5,4.5-2.6c-0.7,4.9-1.4,9.3-2.1,13.8
		c0.3,0.1,0.5,0.2,0.8,0.2c0.9-3,1.9-6,2.8-9c0.2,0,0.4,0,0.6,0c0,2.5,0,5,0,7.5c0.3,0,0.6,0,0.8,0
		C179.6,531.5,178.9,526.3,178.3,521.1z M171.6,504.2c1.2-2.6,2.7-4.4,5.5-1.7c-0.5,2.9-1.8,5.5-4.8,6.6c-2.3,0.8-4.5,0.4-6.4-1.4
		c-2.9-2.7-2.7-3.6,1.4-5.5c0,1.2,0,2,0,3.8c1.3-1.7,2.1-2.7,3.1-3.9C170.7,502.7,171,503.3,171.6,504.2z M167.5,498.3
		c-3,3.4-6,4.3-8.4,3.3c-2.8-1.1-4.4-3.8-4.3-7.2c1.2,0.2,2.3,0.4,3.6,0.6c0,0.7,0.1,1.4,0.1,2.3c1.2-0.7,2.1-1.3,3.3-2
		c0,1.2,0,2.1,0,2.9C163.5,498.3,165.1,498.3,167.5,498.3z M159.7,492.8c-4.3-0.5-5.3-1.3-6.9-5.1c0.7-0.5,1.5-1.1,2.3-1.7
		c0.8,1.1,1.4,2.1,2.1,3.1C157.8,490.2,158.5,491.2,159.7,492.8z M149.2,444.7c1.4-0.8,3-1.1,4.6-1.6c0.1,0.2,0.2,0.5,0.4,0.7
		c-1,1.1-2.1,2.2-3.1,3.3c0.1,0.2,0.2,0.4,0.4,0.6c1.7-0.9,3.4-1.9,5-2.8c0.3,0.3,0.5,0.5,0.8,0.8c-1.2,1.5-2.3,3-3.5,4.5
		c0.1,0.1,0.3,0.3,0.4,0.4c1-0.7,2-1.3,3.1-2c0.9,2.9-0.3,7.6-2.1,8.2c-3.3,1.1-6.5-0.2-8-3.4C145.2,449.6,145.9,446.4,149.2,444.7z
		 M146,457.6c1.6,0.8,3.2,1.7,5,2.6c-1.8,1.6-3.5,3.1-5.2,4.6c0.2,0.2,0.4,0.5,0.5,0.7c2.4-1.3,4.7-2.6,7.1-3.9
		c0.2,0.2,0.4,0.3,0.6,0.5c-1,1.9-2.1,3.9-3.3,6.2c1.1-0.3,1.8-0.5,2.6-0.7c0.7,1.4,1.3,2.7,2,4.3c-6.3,1.7-11.2,0.6-13-2.8
		C140.6,465.7,142,461.1,146,457.6z M133.6,452.5c1.2-3.5,3.3-4.9,7.7-4.4c-1.9,1.8-3.6,3.4-5.2,4.9c0.2,0.3,0.3,0.5,0.5,0.8
		c1.6-0.8,3.1-1.5,5.2-2.5c-1,1.8-1.8,3.1-2.5,4.4c0.2,0.2,0.4,0.3,0.5,0.5c1.2-1,2.5-2.1,4.3-3.6c0,1.6,0.4,3-0.1,3.6
		c-3.4,4.4-5.4,5.3-7.9,3.7C133.7,458.3,132.6,455.4,133.6,452.5z M135.9,462.6c-2.2,2.1-4.2,4-6.3,6c0.2,0.3,0.4,0.5,0.6,0.8
		c2.7-1.6,5.4-3.2,8.1-4.7c0.2,0.2,0.4,0.5,0.6,0.7c-1.8,2.1-3.5,4.2-5.3,6.3c0.2,0.2,0.3,0.4,0.5,0.6c1.5-0.9,3-1.8,4.7-2.9
		c1.2,1.6,2.5,3.2,3.8,4.9c-3.2,1.6-6.2,2.6-9.7,1.7c-4.8-1.2-6.9-4.9-5.1-9.6c0.4-1,1-2,1.6-2.9C131.9,459.6,132,459.6,135.9,462.6
		z M121.9,457.5c2.6-3.3,4.9-7.2,10.3-8.6c-2.2,1.7-3.7,2.8-6,4.6c1.7,0,2.5,0,3.4,0c-1.5,1.7-2.9,3.4-4.3,5
		c0.2,0.2,0.3,0.4,0.5,0.7c1.5-0.8,3-1.6,4.6-2.5c0.1,0.2,0.3,0.3,0.4,0.5c-1.5,1.9-3,4-4.6,5.8c-1.1,1.2-3.5,0.4-4.1-1.4
		C121.6,460.3,121.2,458.3,121.9,457.5z M120.4,464.6c0.5-0.5,2.1,0.2,3.5,0.4c-1.6,1.7-2.9,3.1-4.2,4.5c0.1,0.2,0.3,0.4,0.4,0.6
		c0.9-0.2,1.8-0.4,3.2-0.7c-1.1,1.6-2,2.8-2.9,4c0.2,0.2,0.3,0.4,0.5,0.6c1.1-0.7,2.1-1.4,3.2-2.1c0.1,0.1,0.2,0.2,0.4,0.3
		c-1.2,2-2.4,4.1-3.8,6.4c-2.5-1-3.9-2.7-4-5.4C116.7,469.7,118,466.8,120.4,464.6z M115.1,460.2c3.2-2.4,1.1,2.9,3.7,2.2
		c-1.2,1.4-2.1,2.5-3.2,3.8C113.6,464,113,461.7,115.1,460.2z M115.9,468c-5.4-0.4-6.2,3.3-7.6,7c1.4-0.2,2.4-0.4,3.9-0.7
		c-1.6,2-3,3.8-4.5,5.7c-2.5-1.8-3.3-4.1-2.4-6.8c0.6-1.7,1.6-3.2,2.7-4.6C110.8,464.8,110.9,464.8,115.9,468z M107.5,464.3
		c-1.5,2.9-2.9,6.2-5,9c-1.3,1.8-3.7,2.8-5.7,4.3C97,473.1,102.3,466.6,107.5,464.3z M93.8,488.5c0.1-2,0.6-4.3,1.7-5.8
		c1.8-2.4,4.2-4.3,6.3-6.3c1.8,2.1,3.1,3.7,4.1,4.9c-2.2,0.4-4.8,0.9-7.3,1.3c0,0.4,0.1,0.7,0.1,1.1c0.9,0.2,1.8,0.3,2.9,0.6
		c-1,1-1.8,2-2.7,2.9c0.1,0.2,0.2,0.4,0.3,0.6c2.1-0.5,4.2-1.1,6.3-1.6c0.1,0.2,0.1,0.3,0.2,0.5c-2.4,1.8-4.8,3.7-7.3,5.2
		C96.9,492.8,93.7,490.6,93.8,488.5z M63.2,538.1c7-10.3,13.4-21,24.3-27.9c1.5-1,3.1-1.8,4.8-2.5c-5.6,5.3-11.3,10.6-16.9,15.9
		c0.3,0.4,0.7,0.8,1,1.2c4.6-4.2,9.3-8.4,13.9-12.6c0.2,0.2,0.3,0.3,0.5,0.5C85.9,517.8,81,523,76,528.1c0.3,0.3,0.5,0.5,0.8,0.8
		c1.7-1.6,3.5-3.1,5.2-4.7c5.2-4.7,10.5-9.4,15.7-14.1c1.5-1.3,2.8-1.8,4.2,0.6c-9,3.3-14.1,10.4-18.8,18
		c-4.1,6.6-11.2,8.8-17.8,11.6c-0.6,0.2-1.6-0.1-2.1-0.5C62.8,539.7,62.9,538.5,63.2,538.1z M78.2,493c-9.3,6.8-16,15.7-22.8,24.7
		c-8.5,11.2-16.1,23-21.8,35.9c-0.4,0.8-0.9,1.7-0.9,2.5c0,3.3-1.7,5.9-3.6,8.4c-1,1.4-1.5,3.2-1.7,5.1c2.4-4,6.4-6.9,7-12
		c0.5-4.9,3.6-8.1,7.8-10.2c0.4-0.2,1.3-0.1,1.6,0.2c2.2,2.2,4.7,1.7,7,0.5c2.7-1.4,5.1-3.4,7.7-5.1c0.7-0.4,1.6-0.5,2.4-0.7
		c-0.2,0.9-0.2,2-0.8,2.6c-3,3-6,5.9-9.2,8.6c-3.4,2.8-7.1,4.6-11.6,2.1c0,2.7,1.9,4.2,5.4,3.5c2.4-0.5,4.7-1.8,7.3-2.5
		c-2.8,2.3-5.7,4.5-8.5,6.8c0.1,0.2,0.3,0.4,0.4,0.6c1.7-1.1,3.7-2.1,5.2-3.5c6-5.5,11.9-11.3,17.9-16.9c1-0.9,2.1-1.6,3.1-2.4
		c0.3,0.3,0.5,0.6,0.8,0.9c-6.5,6.8-13,13.6-19.6,20.4c0,0.1,0.1,0.2,0.1,0.2c2.3-1.9,4.7-3.7,6.9-5.7c2.3-2.1,4.4-4.4,6.5-6.7
		s4.2-4.6,6.3-6.8c2.1-2.2,4.2-4.3,6.4-6.4c0.3,0.2,0.5,0.4,0.8,0.7c-0.2,0.4-0.2,0.9-0.5,1.2c-7.5,8.3-14.8,16.7-22.5,24.7
		c-7.1,7.3-15.2,13.5-24.7,17.5c-2.1,0.9-4.7,1.2-7,1.1c-4.1-0.1-5.3-1.9-3.9-6c1.5-4.2,3.2-8.5,5.3-12.5
		c11.8-22.1,24-44.1,39.6-63.8c5.9-7.4,12.9-14,19.5-20.9c0.4-0.4,0.9-0.6,1.9-1.3C85.5,484.6,82.8,489.7,78.2,493z M133.1,371.5
		c2.2-1.1,4.5-0.3,5.8,2.1c1.4,2.5,1.1,5.1-0.9,6.5c-0.7-1.5-1.3-3.1-2-4.7c-0.3,0.1-0.6,0.2-0.9,0.3c0.4,1.3,0.7,2.5,1.1,3.9
		c-1.5,0.4-2.8,0.8-4.1,1.2C130.2,375,130.4,372.8,133.1,371.5z M122.3,379.6c-4.8-0.2-5.5-5.4-9-7.2
		C117.7,373.1,120,376.3,122.3,379.6z M109.4,384c-1.2-0.6-2.5-1.2-3.6-2c-0.6-0.4-1.1-1.1-1.6-1.7c0.8-0.4,1.7-1.3,2.4-1.2
		c3.2,0.9,5.8,2.8,7.7,5.4c-0.2,0.4-0.5,0.9-0.7,1.3C112.2,385.3,110.8,384.7,109.4,384z M108.8,389.8c-2.6-1.3-5.1-2.5-8-4
		c1.8-1.8,3.8-1.8,5.6-0.7C108.1,386,110.6,386.8,108.8,389.8z M113.9,381.1c-1.8-1.9-4.2-3.2-6.3-4.8c2-3.4,6.1-1.6,10.7,4.9
		C116.6,382.7,115.4,382.8,113.9,381.1z M45.5,332.1c3.2,0.4,6.3,0.9,9.4,1.8c7.8,2.2,14.9,5.8,21.5,10.5
		c-6.5-2.8-12.9-5.6-19.4-8.4c-0.2,0.4-0.5,0.9-0.7,1.3c15.9,5.8,30.7,13.4,41.7,26.9c0.2-0.3,0.4-0.5,0.5-0.8
		c-3.2-3.2-6.4-6.4-9.6-9.5c0.3-0.4,0.6-0.7,1-1.1c7.1,5.8,14.2,11.6,21.4,17.5c-1.6,2.3-3.2,2.2-5.1,0.9
		c-9.4-6.5-18.8-13-28.2-19.4c-8.6-5.9-17.6-11.2-27.6-14.6c-1.6-0.5-3.4-0.3-5-0.9c-0.9-0.4-1.5-1.7-2.2-2.5
		C44,333.2,44.8,332,45.5,332.1z M44.2,340.8c0.1-0.6,1.6-1.6,2.2-1.5c2.6,0.6,5.3,1.2,7.7,2.3c13.5,6.2,25.9,14.3,37.7,23.5
		c3.7,2.9,7.9,5.1,11.9,7.6c1.2,0.7,3,1,1.9,2.9c-1,1.8-2.5,1.7-4.1,0.7c-7.7-4.9-15.5-9.5-23-14.7c-8.1-5.6-15.6-11.9-24.9-15.6
		c-1.7-0.7-3.4-1.1-5.1-1.6C46.5,344.8,43.9,342.6,44.2,340.8z M59.1,361.4c-3.5-4.3-6.8-8.7-10.2-13.1c0.2-0.3,0.3-0.6,0.5-0.8
		c1.7,0.7,3.5,1.2,5,2.1c6.8,4.2,13.7,8.3,20.1,13c8.4,6.1,16.8,11.9,26.4,15.9c0.8,0.3,1.1,1.8,1.6,2.8c-1.2,0.3-2.7,1.2-3.6,0.8
		c-8.5-4.4-16.9-9-25.4-13.5c-4.1-2.2-8.4-4.1-12.6-6.1C60.3,362.1,59.5,361.9,59.1,361.4z M69.3,378.3c-2.8-3.8-5.6-7.7-8.4-11.5
		c0.4-0.4,0.8-0.8,1.1-1.2c3.8,2.1,7.7,4.1,11.3,6.5c7.4,5.1,15.5,8.8,23.9,11.8c0.7,0.2,1.1,1.1,1.6,1.7c-0.7,0.5-1.5,1.5-2.2,1.5
		c-1.8-0.1-3.5-0.6-5.3-1.1c-6.7-2-13.4-4-20-6.1C70.6,379.6,69.8,379,69.3,378.3z M71.1,383.6c0.2-0.4,0.4-0.8,0.6-1.3
		c7.5,2.3,15.1,4.7,22.7,7c-0.1,1.4-0.2,2.7-0.3,4.2c-2.3,0-4.6,0-6.8,0c-0.1,0.2-0.2,0.5-0.2,0.7c1.1,0.5,2.3,1,3.4,1.5
		c-1.3,1-2.8,2-4.5,3.3C80.5,394.4,74.4,390.4,71.1,383.6z M93.2,410.7c-1.4-2.6-3.1-5.1-4.2-7.9c-0.9-2.3,1-3.7,3.1-3.7
		c2.3-0.1,4.8,0.3,7,1c2.4,0.7,4.5,2.1,6.7,3.2c0.7,0.4,1.2,1.2,1.8,1.8c-0.2,0.2-0.4,0.5-0.6,0.7c-2.8-0.9-5.5-1.7-8.3-2.6
		c-0.1,0.3-0.2,0.5-0.4,0.8c1.1,0.7,2.1,1.4,3.2,2.1C97.4,404.9,96.6,409.4,93.2,410.7z M102.2,426.6c-3.1-2.6-6-4.9-6.8-9
		c-0.8-3.9,1.1-6.7,4.9-6.9c4.2-0.3,8.2,0.5,11.9,2.3c-0.5,2-1,3.7-1.5,5.7c-1.4-0.6-3-1.4-4.6-2.2c-0.1,0.2-0.2,0.3-0.3,0.5
		c1.2,1,2.5,2,3.7,2.9c-0.1,0.1-0.1,0.2-0.2,0.3c-1.9-0.6-3.8-1.3-5.7-1.9c-0.1,0.3-0.2,0.5-0.4,0.8c3.4,1.5,6.8,3.1,10.2,4.6
		c0,0.2,0,0.5,0,0.7C109.5,423.9,105.4,423,102.2,426.6z M111.8,445.4c0.2,0.1,0.5,0.2,0.7,0.3c-0.9,0.5-1.7,1-3.4,1.9
		c-0.3-2.4-1.1-4.3-0.8-6.1c0.4-2.4,2.4-3.6,6.6-4.3C113.8,440,112.8,442.7,111.8,445.4z M109.7,429.9c0.4,0.6,0.8,1.2,1.3,2
		c-1.1-0.1-1.9-0.1-2.8-0.2c-0.1,0.2-0.1,0.4-0.2,0.5c1.4,0.8,2.9,1.5,4.6,2.4c-0.5,0.2-0.8,0.4-1.1,0.5c-1.3,0.4-3.2,1.6-3.7,1.2
		c-1.5-1.3-2.9-3.1-3.6-5c-0.8-2.1,0.2-4,2.5-4.6c3.7-0.9,7.1-0.6,9.4,3.4C113.8,434.1,111.9,428.7,109.7,429.9z M117,443.3
		c-1.2-2.7-0.5-4,1.9-4.6c1.5-0.4,2.9-0.9,4.4-1.4c0.2,0.2,0.5,0.4,0.7,0.6C121.7,439.6,119.4,441.4,117,443.3z M116.8,435.8
		c0.5-2.6,0.9-4.9,4.1-5.3c0.5,1.9,0.9,3.5,1.3,5.3C120.5,435.8,118.8,435.8,116.8,435.8z M121.5,428.3c-1.5,0.1-2.9,0.3-4.4,0.4
		c-1.6-3-1.6-3,4.4-6.8c-3.6-1-7.7-1-7.5-5.3c0.1-1.3,2.7-2.4,4.4-3.8c1.1,2.8,1.9,5,2.7,7.1c0.2,0,0.4-0.1,0.7-0.1
		c0.4-1.4,0.9-2.7,1.4-4.4C126,420.5,123.2,424.3,121.5,428.3z M125.3,396.3c-0.3,0.2-0.6,0.7-0.5,1c0.8,3.9-2.1,5.6-4.2,8
		c-1.4,1.6-1.8,4.1-2.8,6.5c-3,1.1-5.8,0.5-7.3-3.1c-0.4-1-0.6-2.5,0-3.2c0.5-0.7,2.1-1.1,3.1-0.9c1.4,0.2,2.8,0.9,4.2,1.4
		c0.2-0.2,0.5-0.5,0.7-0.7c-0.7-0.8-1.3-2-2.2-2.2c-2.5-0.7-5.1-0.9-7.7-1.3l0,0c-3.2-1.6-6.7-2.9-9.5-5.1c-1.3-1-2.1-3.9-1.6-5.5
		c0.7-2.4,3.4-2.3,5.4-1.4c2.2,0.9,4.2,2.2,6.5,3.4c0.3-0.8,0.6-1.4,0.9-2c1.4-3.6,2.5-3.9,5.6-1.5c1.3,1,2.4,2.4,3.7,3.5
		c0.6,0.6,1.2,1,2.2,1.2c-0.9-3.9-4-6-6.8-9.3c1.2-0.1,2.6-0.7,3.5-0.2c1.3,0.7,2.2,2,3.1,3.1c0.9,1,1.6,2.1,2.8,3
		c0.5-3.4-2-5.5-3.7-7.9c2.7-1.5,6.2,0.8,6.4,4.2C127.4,390.4,128.7,393.9,125.3,396.3z M128.5,396.4c0.3,0,0.7,0.1,1,0.1
		c-0.1,1.6-0.2,3.2-0.3,5.5C126.7,399.7,126.7,399.1,128.5,396.4z M213.2,391.4c-0.7,1.9-1.3,3.9-2,6c-0.6-0.1-1.5-0.2-1.9-0.3
		c-0.9-2.7-1.6-5.2-2.3-7.5c2.2-1.3,4.3-2.6,6.5-3.9C215,387.6,214,389.5,213.2,391.4z M223.7,414.5c3.4,2.8,3,4.5-1.3,6.2
		c0-1.1,0-2.2,0-4.1c-0.9,1.1-1.3,1.7-1.9,2.4c-1.5-2.1-3.3-2.1-5.5-1c-1.9,0.9-3-0.1-2.3-2.1c0.6-1.9,1.8-3.6,2.6-5.4
		c0.7-1.5,1.2-3.1,1.8-4.7c1,0.3,2.2,0.7,4.1,1.3c0,0,0.2,0.6,0.1,1.2C220.7,410.8,221.7,412.8,223.7,414.5z M243.1,366.2
		c-4.1,0.7-4,3.9-4.5,6.8c-0.1,0.7,0,1.7-0.4,2c-0.6,0.5-1.6,0.5-2.4,0.7c-0.1-0.8-0.4-1.6-0.2-2.3c0.6-2.4,1.4-4.8,2.3-7.6
		c0.6-0.1,1.8-0.3,2.9-0.6c1-0.3,1.9-0.9,3.4-0.9C243.7,364.9,243.5,366.1,243.1,366.2z M269.2,324.9c-0.8,0-1.9-1.6-2.5-2.7
		c-0.5-0.9-0.3-2.1-0.6-3.2c-0.5-2.1-1.2-4.1-1.7-6.3c-0.2-0.9,0.2-1.8,0.3-2.8c1,0.2,2.3,0,2.9,0.6c1.2,1.3,1.9,3,2.9,4.7
		c0.9-0.4,1.8-0.7,3.5-1.5c-0.3,3.4-0.2,6.3-1,9.1C272.7,323.8,270.5,324.8,269.2,324.9z M289.5,364.9c-0.4,0-0.8,0-1.2,0.1
		c-0.5-1.4-1-2.8-1.4-4.2c1.4-0.3,2.7-0.7,5-1.3C290.9,361.9,290.2,363.4,289.5,364.9z M300.9,357.1c-0.5,3.5-0.2,7.2-0.4,10.7
		c-0.2,2.5-0.5,2.5-2.7,2.5c-3.6-0.1-5.4-2.2-4.8-6.3c0.6-3.9,0.9-7.6,0.1-11.6c-0.3-1.3,1.3-3,2-4.6c1.4,0.8,3,1.2,4,2.3
		C300.6,352.1,301.3,354.3,300.9,357.1z M291.2,460.9c1.8-0.7,3.2-0.2,4.1,1.1c-2.5,3-4.7,5.9-7.1,8.8
		C287.2,466.2,288.4,462,291.2,460.9z M426.4,498.3c-1.6,3.4-3.7,6.4-3.1,10.4c0.1,0.5-0.5,1.4-0.9,1.6c-1.4,0.6-3,1-5.6,1.7
		c1.6-5.7,3.1-10.4,4.2-15.3c0.4-2,0-4.1-0.3-6.2c-0.3-2.4-0.9-4.7-1.4-7.1c-0.5,0-0.9,0.1-1.4,0.1c-0.2,2-0.3,3.9-0.5,5.9
		c-1.5,12.4-2.8,24.8-8.8,36c-6.3,11.8-15.3,21-27.2,27.3c-3.1,1.6-6.1,3.5-9.1,5.3c-2.7,1.6-5.2,2.3-8.2,0.4
		c-1.1-0.7-2.6-0.9-4-0.8c-7.3,0.5-13.6-1.6-19.3-6.2c-14.2-11.6-27.1-24.5-38.1-39.1c-6.3-8.4-10.3-17.9-13-28
		c-2.1-8.2,1.5-14.6,7.5-19.6c4.5-3.8,9.8-5.3,15.8-3.6c3.4,0.9,6.7,1.2,10.3,0.2c2.8-0.7,5.9-0.1,8.9-0.1s6,0,9.9,0
		c2.2,1.9,4.5,1.9,7.5-0.9c-2.1,0.3-3.9,0.6-5.8,0.8c-0.1-0.4-0.1-0.8-0.2-1.2c2.6-0.6,5.2-1.1,7.7-1.7c0.2,0.3,0.3,0.6,0.5,0.9
		c-0.3,0.6-0.5,1.5-1,1.9c-3.5,2.5-7.2,4.9-10.8,7.4c-1.3,0.9-2.7,1.7-4,2.6c-1.2,0.9-2.3,2-3.6,2.7c-3.9,2.2-4.8,2-7.2-1.8
		c-0.5-0.8-1.1-1.5-1.7-2.3c-0.3,0.1-0.5,0.1-0.8,0.2c0,0.7-0.2,1.5,0,2c0.7,1.7,1.2,3.6,2.4,4.8c8.3,8.2,15.7,17.6,27.6,21
		c6.7,1.9,11.5,6,13,13.2c0.2,0.8,0.7,1.4,1,2.1c0.3-0.1,0.7-0.1,1-0.2c-0.8-3.7-1.7-7.3-2.5-11c0.4-0.1,0.7-0.2,1.1-0.3
		c-1.1-1-2-2.3-3.2-3c-2.6-1.3-2.5-3.2-1.6-5.3c0.5-1.2,1.1-2.4,1.9-3.4c3-3.8,3.8-8.1,2.6-12.8c-0.4-1.7-0.6-3.5-0.9-5.3
		c-0.3-0.1-0.6-0.2-0.9-0.3c-0.5,1.3-1.5,2.7-1.4,4c0.6,5.5-1.3,10.2-4.3,14.6c-1,1.4-1.2,3.3-1.8,5.2c-10-3.6-18.4-9.4-24.8-18.5
		c4.7-2.7,9.5-5.3,14-8.2c2.6-1.7,5-3.7,7.1-6c0.9-0.9,1.3-3.2,0.7-4.3c-0.5-1-2.7-1.9-4-1.8c-3.5,0.5-7,1.6-10.5,2.3
		c-2,0.4-4.1,0.3-6.1,0.3c-1,0-2-0.8-2.9-0.7c-7.8,0.9-12.7-3.8-17.8-8.5c-2.7-2.4-5.9-4-9.6-2.2c-2.7,1.3-3.3,3.5-1.9,6.2
		c0.7,1.4,1.2,2.9,1.9,4.5c-2.7,1.3-5,3.8-8,0.5c-0.9-0.9-3.1-0.6-5.1-0.8c1.3-5.1,4-9.6,8.5-13c3.8-2.9,8.2-5,10.9-9.3
		c1.3-2,5.2-1.4,6.6,0.7c6.6,10.1,16.5,13.1,27.9,8.9c4.3-1.6,8.9-2.3,13.3-3.7c3.1-1,6.3-2.1,9-3.9c5.8-3.8,11.5-7.8,15-13.5
		c4.7,4,9.2,7.8,13.8,11.7c-0.7,0.3-1.8,0.8-3.8,1.7c1.4,0.5,2.1,1,2.9,1c6.6,0.5,12.5,2.7,17.8,6.7c4.8,3.5,8,8.2,8.4,14
		c0.6,8.4,3,16.1,7.3,23.3C430.5,488,428.8,493.3,426.4,498.3z M308.9,453.2c-0.2-1-1.3-1.9-2.5-2.7c1.3,2.5,2.5,4.8-1.1,6.5
		c-0.8-1.6-1.9-3.1-2.2-4.8c-0.2-0.7,1.2-2.4,1.9-2.5c1.6-0.1,3.4,0.3,4.8,1.1c3.2,1.9,6.3,4.2,9.3,6.4c0.4,0.3,0.7,0.9,0.9,2.2
		c-3.9-0.6-7.8-1.3-11.4-1.8C308.8,456.1,309.2,454.5,308.9,453.2z"/>
	<path d="M422.4,449.9c-0.3-0.6-0.6-1.3-0.8-1.9c-3.1-2.1-5.2-5.2-7.5-8.2c0,0.1,0,0.2,0,0.3c-1.1-0.2-2-0.6-2.8-1.2
		C414.6,442.9,417.9,447.1,422.4,449.9z"/>
	<path class="st1" d="M571.9,480.6c-1.7-13.2-4.6-26.1-8.7-38.7c-6.2-19.3-14.2-37.9-24.3-55.4l-5.2-8.4h-0.1c0,0,0,0,0.1-0.1
		l-4.7-7.5c-5.8-8.1-11.4-16.3-17.6-24.1c-1.1-1.3-1.9-2.6-2.5-4c-1.8,2.6-5,4.6-5,7.5c1.5,2.3,2.8,4.6,4.5,6.7
		c15.7,19.3,28.2,40.5,39.3,62.6c8.4,16.8,13.4,34.8,17.8,53c0.8,3.3,1.7,6.6,2.2,10c0.2,1.1-0.3,2.8-1.1,3.6
		c-6.4,5.9-9.8,13.1-10.1,21.8c-0.1,3.1-0.5,6.2-0.7,9.3c0,0.5-0.1,1-0.2,1.5c-0.6,2.9-3,5.8-4.9,5.4c-3-0.6-3.3-3.3-3.5-5.7
		s-0.1-4.8,0.1-7.2c2.7-29.1-2.1-57.2-10.7-84.9c-0.1-0.3-0.2-0.6-0.3-0.9c-0.5-1.4-1.1-2.8-1.6-4.2c-0.2,0-0.3,0.1-0.5,0.1
		c1.8,6.9,4.1,13.6,5.4,20.6c2.5,13,5.3,26,6.5,39.2c0.9,9.5-0.5,19.2-0.9,28.8c-0.2,4.9-1.3,9.8,1.3,14.5c0.3,0.5,0.2,1.2,0.3,1.8
		c0.2,5.5,0.2,11,0.7,16.4c0.4,3.9-0.2,7.1-3,10.2c-3.1,3.4-5.3,7.5-8.3,11c-2,2.3-4.3,4.5-6.9,6.1c-2.6,1.7-4.9,0.8-5.5-2.2
		c-0.9-3.9-1.6-8.2-1.2-12.1c1.5-11.9,3.5-23.8,5.4-35.7c2.9-17.9,4.8-35.8,3.1-54c-0.3-2.9-0.7-5.7-1.5-8.5c0,3.1-0.2,6.2,0,9.2
		c1.3,20.6-1.5,40.9-5.1,61.1c-1.6,8.9-3.4,17.8-4.4,26.7c-0.6,5.3,0,10.8,0.3,16.2c0.3,5.5-1.1,9.9-5.3,13.7
		c-2.9,2.6-4.8,6.4-7.4,9.4c-2.9,3.2-6,6.1-9.2,8.9c-2,1.8-4.2,3.3-7,4.5c0.4-1.5,0.7-2.9,1.2-4.4c8.1-23.9,14.2-48.3,17.8-73.3
		c3.2-22.4,4.3-45.1,2.3-67.6c-1.8-19-5-38-8.4-56.9c-2.2-12.1-5.7-24-8.9-35.9c-1.2-4.4-2.8-8.8-4.6-13c-1.1-2.6-0.3-4.6,1-6.7
		c0.6-1,1.1-2.1,1.3-3.2c-0.5,0-1.1,0-1.6,0c-1.4,2.4-2.3,4.5-3.8,6c-2.5,2.6-5.2,1.8-8.6-2.3c-1.3,1.8-0.5,3.3,0.3,5
		c0.6,1.2,1.7,3.4,1.3,3.7c-1.4,1.3-3.3,2.5-5.1,2.6c-1.3,0.1-2.7-1.5-4.1-2.4c0.1-0.3,0.3-0.6,0.4-0.9c1.1-0.2,2.2-0.4,3.3-0.5
		c-2.1-1.7-4.1-1.4-6.1,0s-3,4.3-6.1,4.2c-0.7,0-1.4,1.3-2,2.1c-7.1,9.2-14.5,18.2-21.4,27.6c-8.4,11.5-14.5,24.2-18.7,37.9
		c-0.2,0.7-0.4,1.3-0.6,2c-0.1,0.3-0.4,0.5-0.5,0.7c-0.1-0.2-0.3-0.4-0.4-0.6c-0.7,0.3-1.7,0.4-2.1,0.9c-1.3,1.8-2.4,3.7-3.6,5.6
		c-0.3,0.4-0.7,0.7-1.7,0.7c2.1-4.6,4.1-9.2,6.4-13.7c8.5-17.2,19.6-32.9,30.2-48.8c4.7-7,8.8-14.4,13.3-21.5
		c2.1-3.3,4.3-6.5,8.6-7.5c1-0.2,1.8-1.4,2.7-2.3c2.5-2.4,4.8-5.1,7.6-7.1c1-0.8,2.9-0.4,4.5-0.4c0.7-1.1,1.1-2.4,1.8-3.3
		c-0.3-0.1-0.5-0.1-0.8-0.2c1.4-2.2,3-3.2,5.3-1.8l0,0l0,0c-0.8-2.6-2.6-2.8-4.7-1.6c-2.6,1.5-4.9,3.2-7.6,4.5c-5.9,3-9,9.7-15.4,12
		c-0.7,0.2-1.2,1-1.7,1.7c-1.9,2.6-3.8,5.2-5.5,7.9c-8.4,12.7-16.7,25.5-25.1,38.2c-0.5,0.8-1.4,1.5-2.2,1.8
		c-3.7,1.4-7.5,2.3-11.1,3.8c-12.3,5.2-22.8,17.1-20.7,30.3c0,0.2-0.2,0.5-0.4,1c-0.1,0-0.2-0.1-0.3-0.1c0.9,0.6,2,1.1,3.1,1.7
		c-0.1-0.9,0.1-2.3,0.2-3.3c0.1-1.8,0.9-3.6,0.6-5.3c-0.6-3.7,1.1-6.6,3-9.4c5.2-7.9,13.2-11.9,22-14.8c0.3-0.1,0.8,0.1,1.1,0.1
		c0.2,0.4,0.4,0.7,0.7,1.1c-1.5,1-2.9,2.5-4.5,3c-11.9,3.7-18.8,14.2-16.5,25.4c0.2,1.2,0.7,2.4,0.9,3.7c1.2-1.2,1-3.6,2.1-5
		c-2.5-7,4.2-18.2,13.3-20.8c-4.3,7.7-8.3,14.8-12.5,22.3c-0.3-0.5-0.5-1-0.7-1.5c-1,1.5-0.8,3.9-2.1,5c0,0.1,0.1,0.3,0.1,0.4
		c0,0.2,0,0.5-0.1,0.8c1.3,1.4,2.6,2.8,3.8,4.3c0.8,0.6,1.7,1,2.8,1.2c0-0.1,0-0.2,0-0.3c-0.4-0.5-0.8-1-1.2-1.5
		c0.4,0.5,0.8,1,1.2,1.5c0-0.5,0-1,0-1.5c0,0.5,0,1,0,1.5c2.3,3,4.4,6.1,7.5,8.2c-0.1-0.2-0.1-0.3-0.2-0.5c-0.4-1.1-0.9-2.4-0.6-3.3
		c1.9-5.7,3.6-11.5,6.1-16.9c4.8-10.4,10-20.8,15.4-30.9c2.6-4.9,6.3-9.3,9.6-13.9c0.6-0.8,1.3-1.6,2.4-2.8c0.2,1.1,0.4,1.6,0.4,2
		c0.3,8.3,0.4,16.7,0.7,25c0.5,14.6-3.5,28.4-7.9,42.1c-3.8,11.7-7,23.5-5.3,36.2c0.5,0.3,0.9,0.5,1.4,0.7c0.1-2.1,0.5-4.3,0.5-6.5
		c0-8.3,2.1-16.3,4.6-24.1c4-12.5,8.6-24.9,9.6-38.1c0.5-6.2,0.2-12.4,0.1-18.6c-0.1-5.4-0.7-10.8-0.7-16.2
		c0.1-8.6,3.4-15.7,10-21.3c0.6-0.5,2.2-0.6,2.7-0.1c5.2,4.3,5.7,4.4,11.5,0.9c0.2-0.1,0.4-0.1,1.1-0.2
		c16.6,39.9,23.2,81.9,25.4,124.8c1.9,37.9-14,103.7-20.2,115.5c-0.3-1.2-0.6-1.9-0.7-2.5c-0.6-4.9-2.3-8.8-7-11.5
		c-4.2-2.5-4.6-7.8-6.2-12c-2.3-6-1.3-11.9,1.3-17.5c8.6-18.9,13.8-38.6,16.6-59.2c2.4-17.8,3.5-35.5,2.5-53.4c0-0.7-0.1-1.3-0.8-2
		c0,1.1,0,2.2,0,3.3c0.7,26.2-2.8,51.9-8.9,77.3c-2.4,10.2-6.4,20-10.5,29.7c-3.4,8.1-5.6,15.9-2.2,24.4c0.1,0.4,0.2,0.8,0.2,1.2
		c0,0.2-0.1,0.4-0.3,0.8c-2.7,0-5-1.3-5.5-3.9c-1.3-7.1-3.9-13.6-7.7-19.7c-2.1-3.3-1.2-6.8,1.1-10.1c10.2-14.5,17.3-30.3,19.8-47.9
		c0.3-2.2,0.4-4.4,0.1-6.6c-1.4,6-2.5,12.1-4.4,18c-1.9,6-4,12-6.7,17.7c-2.7,5.6-6.3,10.8-9.5,16.2c-0.5,0-1-0.1-1.5-0.1
		c-0.6-1.5-1.4-3-1.9-4.5c-0.6,0.8-1.2,1.6-1.8,2.5c1,2.4,3.7,3.4,2.2,6.2c-2.1,4-1.4,8,0.9,11.5c3.2,4.9,5.4,10,6,15.8
		c0.5,4.1,3,7.1,7.3,7.7c2.6,0.4,4.3,1.2,5.5,3.8c0.7,1.6,2.8,2.5,4,3.9c1.5,1.7,3.6,3.5,4,5.6c1.6,7.3,3.4,14.7-0.2,22
		c-0.6,1.2-0.9,2.5-1.2,3.7c-0.8,3-1.5,6-2.2,9c0.3,0.1,0.6,0.2,0.9,0.3c1.2-2.5,2.4-5,3.5-7.5c2.8-6.4,6.3-12.5,11.9-16.7
		c6-4.6,12.1-8.9,15.4-16.1c0.7-1.5,2.1-2.7,3.4-3.8c4.3-3.6,7.2-7.8,6.9-13.7c0-0.2,0.3-0.5,0.6-0.9c6.7,2.5,10.4-1.9,14.2-6.1
		c0.6-0.7,1-1.5,1.5-2.2c2.7-3.6,5.3-7.3,8.3-10.6c2.2-2.4,3.4-4.9,3.1-8.1c-0.2-2.3-0.5-4.6-0.8-6.9c-0.3-3-0.6-6-0.9-9
		c-0.2-1.8,0.5-2.7,2.5-2.9c3-0.2,5.1-2.1,6-4.8c0.7-2.3,1-4.7,1.4-7c0.9-5.4,1.2-11,2.6-16.3c1.1-4.4,3.8-8.2,8.6-11.6
		c1.1,8.4,2,16.1,3,24.1c0.1-0.8,0.2-1.3,0.3-1.9C573.9,499.4,573.1,490,571.9,480.6z M505.6,435.7c-3-15.6-6.6-31.2-10.4-46.6
		c-2-8.1-5.3-16-8-23.9c-0.8-2.3-1.5-4.6-2-6.9c-0.1-0.7,0.7-1.6,1.1-2.5c0.8,0.4,2,0.7,2.4,1.3c1.4,2.9,2.8,5.8,3.8,8.8
		c6.1,18.7,11,37.7,13.7,57.2c1.6,11.6,3.6,23.2,4.8,34.9c1,9.9,1,19.8,1.5,29.7c0,0.9-0.3,1.9-0.4,2.9c-0.1,0-0.3,0-0.4,0
		c-0.3-7.1-0.3-14.2-1.1-21.2C509.1,458,507.7,446.8,505.6,435.7z M566.4,468.7c-0.5-2.3-0.8-4.6-1.4-6.8c-5.6-21.9-14.4-42.6-26-62
		c-8.7-14.6-18.2-28.8-27.4-43.2c-1.6-2.5-3.5-4.9-4.9-7.5c-0.5-0.9-0.1-2.3-0.1-3.4c0.5-0.2,0.9-0.3,1.4-0.5c2.9,3.7,6,7.1,8.5,11
		c11.1,17.3,23.2,34,31.8,52.8c7.1,15.5,14,31.1,17.9,47.8c0.9,3.8,1,7.7,1.5,11.5C567.3,468.6,566.8,468.6,566.4,468.7z"/>
	<path class="st0" d="M491.7,331.8c-0.8,0.7-1.6,1.5-2.5,2c-0.6,0.3-1.3,0.3-2,0.1c-0.7,0.9-1.1,2.2-1.8,3.3c0.2,0,0.3,0,0.5,0
		c0,1.4,0,2.8-0.2,4.1c-0.2,1.2-0.9,2.3-0.9,3.4c0,0.9,0.6,1.9,1.3,2.5c0.3,0.3,1.4-0.5,2.2-0.7c0.9-0.3,1.8-0.5,3.6-1
		c-0.1,0.2-0.2,0.4-0.3,0.6c0.5,0,1,0,1.6,0c0-0.2,0.1-0.4,0.1-0.5c0.1-1.9,1.2-2.7,2.6-2.4c0.8,0.1,2.1,1.6,2,2.2
		c-0.4,2.2-1.2,4.3-2,6.4c-0.4,0.9-1.3,1.7-2.3,3c4.6,0,7.2-3,10.5-4.7l0,0c0-2.9,3.2-4.9,5-7.5c-0.7-1.5-1.1-3.1-1.1-5
		c-0.3-6.1-4.2-9-10.2-7.9C495.6,330,493.7,331,491.7,331.8C491.7,331.8,491.8,331.8,491.7,331.8L491.7,331.8z M493.5,333.2
		c0.6,0.3,1.2,0.5,2,0.8c0.7-2.4,2.7-2.5,4.9-2.3c3.1,0.2,4.9,2.1,5.3,4.9c0.6,4.4-0.4,8.5-3.7,12.3c0.5-2.8,1.2-5.1,1.2-7.5
		c0.1-4.3-3-6.1-6.5-3.7c-1.6,1.1-2.7,2.8-4.1,4.1c-0.8,0.8-1.7,1.7-2.7,1.9c-1.6,0.2-2.4-0.6-1.8-2.4c0.5-1.5,0.7-3,1.2-4.9
		c0.6,0.3,1.2,0.6,1.9,1c0.1-1.1,0.1-2.1,0.2-3.9c0.7,1.3,1.1,1.8,1.5,2.7C493.1,335,493.3,334.2,493.5,333.2z"/>
	<path d="M407.1,435.5c1.4,1,2.6,2.4,4.1,3.4c-1.2-1.5-2.5-2.9-3.8-4.3C407.3,435,407.2,435.3,407.1,435.5z"/>
	<path class="st1" d="M469.7,459.1c0-0.9-0.2-1.9-0.9-2.8c-0.9,16-0.8,32-4.8,48.5c0.8,0.9,1.7,1.8,2.4,2.8
		c1.1-4.5,1.8-9.1,2.2-13.8C469.5,482.2,469.4,470.7,469.7,459.1z"/>
	<path d="M537.1,383.1c0.2,0.5,0.4,0.9,0.7,1.4c0.4,0.6,0.8,1.3,1.1,1.9L537.1,383.1z"/>
	<path class="st1" d="M541.2,336c-2.4-4.5-6.1-8.5-9.8-12.1c-7.2-7-16.3-10.2-26.2-9.3c-9,0.8-17.8,3-26.7,4.7
		c-5.2,1-10.2,2-15.4,0.1c-2.8-1-4.8-2.9-6-5.6c-1.3-3.1-0.8-6.5,1.2-8.1c1.3,2.5,1.2,6,4.7,6.5c1.7-5.6,3.5-10.9,4.7-16.4
		c0.8-3.7,0.8-7.7,0.7-11.5c-0.1-2.3-1.5-4-3.3-4.5c-2.6,5.2-4.4,10.6-7.6,15s-7.6,8-11.8,12.2c1.8,0.3,3.5,0.6,5.1,0.9
		c0.1,0.3,0.3,0.5,0.3,0.7c0,0.3,0.1,0.6,0.1,0.9c-0.2,5.6,2.4,9.8,7.5,11.5c4.9,1.6,10.2,3,15.2,2.7c7.4-0.5,14.8-2.5,22.1-4.1
		c7.1-1.5,14.1-1.6,21,1.2c18.1,7.4,27.8,26.1,22.7,44.5c-1.2,4.3-3.7,7.8-7.7,10.5c-0.3-0.4-0.5-0.8-0.8-1.1l2.1,3.1
		c0,0,0-0.1,0.1-0.1v-0.3v0.3c14.4-15.9,10.6-31.6,0.6-47.1c8.2,6.1,12,22.4,8,35.6c-2.2,7.2-4.9,11.4-8.5,11.9l2.7,4.1
		c0-1,0.4-1.8,1.5-2.7c1.2-1,2.3-2.3,3-3.7C548.1,362.6,548.1,349.1,541.2,336z M466,287c2.3,7.7-3.4,14-3.9,21.4
		c-2.7-2.6-2.6-6.7-0.2-13c-1.6,1.7-3.2,3.5-4.8,5.2c-1.6,1.6-3.2,3.3-5.1,4.6C456.5,299.1,461.2,293.2,466,287z M457.5,303.4
		c-1.9,4.6-4,8.6-0.7,13.6C452.2,312.9,452.5,307.7,457.5,303.4z M530.9,327.3c-2.6-2-5.1-4-7.7-6c0.2-0.2,0.3-0.4,0.5-0.6
		c2.6,2,5.2,4,7.8,5.9C531.3,326.8,531.1,327.1,530.9,327.3z"/>
	<path d="M534,377.8v0.1V377.8l-0.1-0.1c-0.1,0.1-0.2,0.2-0.3,0.3l0,0c0.2,0,0.3,0,0.5-0.1L534,377.8z"/>
	<path class="st0" d="M430,314.1c-2.4-3.4-5.7-6.4-6.9-10.1c-1.4-4.4-2-8.9-6.6-11.3c1.2-2.4,2.6-3.1,4.9-1.9
		c1.4,0.8,3.2,0.9,4.8,1.3c0.1-0.3,0.2-0.5,0.3-0.8c-1.2-0.6-2.4-1.3-3.7-1.7c-1.7-0.5-3.5-0.6-2.7-3.2c0.1-0.4-0.4-1.1-0.6-1.6
		c-1.4-2.8-1.5-5.2,0.3-8.1c3.1-4.9,1.7-10.6-2.7-13.9c-3.8-2.8-7.6-2.2-12,2.1c-1.2,1.1-1.9,1.1-3,0c-3.1-3-5.5-3.1-8.2,0.1
		c-1.9,2.2-3.8,1.8-5.5,0.8c-1-0.6-1.3-2.5-1.9-3.9c-0.2-0.6-0.3-1.2-0.4-2.2c-1.3,1-2.3,1.7-3.4,2.5c-3.5-3.9,0-4.9,2.9-6.1
		c-5.4-2.8-5.6-2.8-10.2,1.9c-1.3-1.2-2.7-2.4-4-3.7c-1.4-1.3-2.8-2.6-4.3-3.9c-0.9-0.8-1.8-1.5-2.7-2.2c0.7-0.6,1.5-1.3,2.2-1.9
		c-3.4-1.7-5.4,0.1-5.4,5.3c-2.6-0.6-5.1-0.7-6.9-3.4c-0.8-1.2-3.7-2.3-4.9-1.8c-2.7,1.3-4.9,3.5-7.4,5.4c0.2,0.4,0.4,0.7,0.6,1.1
		c0.8-0.1,1.6-0.2,2.4-0.3c1-0.2,2-0.4,3-0.5c0,1.1,0.4,2.4,0,3.4c-0.5,1.2-1.5,2.2-2.4,3.1c-1.3,1.3-2.8,2.6-4.2,3.8
		c-1.6,1.3-3.3,2.5-5,3.8c-2.3,1.8-4.7,3.5-7,5.3c-0.9,0.7-1.8,1.4-2.8,2c-1.6,1-3.2,1.8-4.8,2.8c-1.1,0.7-2.2,1.5-3.2,2.3
		c-0.2-0.1-0.4-0.2-0.5-0.3c-1.3,2.1,0.1,4.4,1.5,5.9c-0.3-1-0.2-2.1,0.8-3.4c1.2,2,2.2,3.5,2.9,5.1c0.2,0.5-0.2,1.2-0.4,1.8
		c0.1-0.1,0.2-0.2,0.3-0.3c-0.1,0.1-0.2,0.2-0.3,0.3c0,0.1-0.1,0.2-0.1,0.4c-0.1,0-0.1-0.1-0.2-0.1c-1.6,1.5-2.3,3.5-3.7,5.1
		c-0.3,1-0.8,2-1.2,2.7c-0.6,1.1-5.3-0.5-6.1-1.7c-0.5-0.7-1.3-1.3-2-1.9c-0.3,0.2-0.6,0.4-0.9,0.7c0.8,2.1,1.6,4.2,2.7,6.8
		c-0.1,0-0.8,0.8-1.5,0.9c-0.1,0-0.3-0.1-0.4-0.2c-0.8,0.6-1.3,1.4-2.2,1.9c0,0.1,0,0.2,0.1,0.2c0.1,0.3-1,1.3-1.6,1.4
		c-0.9,0.2-1.8-0.1-2.9-0.2c1.1,2.9,3.3,3.8,5.7,2.4c1.2-0.7,2-2,3.2-2.6c1.4-0.7,3.3-1.6,4.5-1.1s2.1,2.4,2.6,3.9
		c0.4,1.4,0,3,0,4.5c0,0.9,0,1.9,0,3.2c3.1-1.2,3.4-3.4,3.4-5.5c0-2.4-0.8-4.7-1.1-7.1c-1-6.9,2-11.4,9.9-14.1c-1.8,2-3.7,3.8-5.2,6
		s-2.6,4.7-1.9,7.5c0.5,0,0.8,0,0.8,0c2-6.8,8.5-10.2,12.2-15.7c2.5-3.7,7-3.1,11.1-2.6c-1.5,3.5-3.4,6.6-4.2,10
		c-0.8,3.5-0.5,7.2,3.1,10.5c0-2,0.1-3.5,0-4.9c-0.7-7.2,2.9-12.1,8.9-15.4c5.2-2.9,5.6-3.2,6.9-10c-3,0.5-1.2,5.8-5.3,5.1
		c1.1-2.9,2.7-5.6,3-8.5c0.3-2.7-0.7-5.5-1.1-8.3c-0.3,0-0.6-0.1-1-0.1c0.8-0.5,1.6-1,2-1.2c2.6,1.2,4.9,2.4,7.2,3.4
		c-0.4,2.6-1,5.7-1.5,8.8c0.2,0,0.5,0.1,0.7,0.1c3.3-10.1,3.7-10.6,7.5-9.5c-0.1,1.6-0.4,3.2-0.3,4.8c0,0.6,0.8,1.2,1.6,1.7
		c-1.2-3.5,0.7-5.2,3.9-6.9c0.7,2.1,1.4,4,2.1,6c3.6-0.7,5.5,2.8,5.6,11.2c1.8-1.9,2.2-4.6,0.5-7.5c-1.2-2.1-2.8-4-4.2-6
		c0.4-0.3,0.7-0.5,1.1-0.8c2.1,2,4.2,4,6.3,6.1c0.1-0.2,0.4-1.1,0.8-2.3c4.6,4.8,1.3,9.2-0.6,13.7c3.5-1.5,5.7-6.9,4.1-10.9
		c-1-2.5-0.4-3.7,1.6-4.9c0.8,0.5,1.7,1.6,2.3,1.4c3.6-1.1,3.4,0.7,3.3,3.4c-0.1,2.3,0.8,4.4,3.3,5.6c3.2,1.6,4.3,4.6,3.8,8.1
		c-0.1,0.9-0.3,1.8,0.3,2.9c0.5-0.9,1-1.7,1.7-2.8c2.2,2.4,1.4,5.1,1.2,7.7c-0.2,1.9-1.1,4.3,2.6,2.9c0.4-0.2,1.3,0.4,1.7,0.8
		c0.7,0.8,1.6,1.8,1.7,2.8c0.1,5.4,4,9.1,5.8,13.7c0.2,0.4,0.8,0.7,1.3,0.9c1.2,0.3,2,1.3,2,2.3C428.9,316.2,429.4,315.1,430,314.1z
		 M359.2,265.1c1.5,4.2-2.5,13.8-6.6,15.6c-0.3,0.1-0.7,0.1-1.9,0.3c2-3.3,2.9-6.3-1.1-9.3c0.6,1.6,1.1,2.4,1.4,3.4
		c0.8,2.6-1.1,4.8-3.7,4.6c-5.4-0.4-10.4,0.4-14.1,5c-0.5,0.7-1.6,1-2.6,1.1c-1.4,0.2-2.9,0.2-4.5,0.2c-2.6-5.1-4.3-7.5,0.4-8.6
		c0.2,2.2,0.4,4.4,0.6,6.6c0.4,0,0.8,0,1.1,0.1c0.8-3.1,1.7-6.1,2.5-9.2c0.3,0.1,0.6,0.1,0.8,0.2c0.1,1.8,0.2,3.6,0.2,5.4
		c0.3,0.1,0.5,0.1,0.8,0.2c1.4-3.5,2.8-7,4.2-10.4c0.3,0.1,0.6,0.2,0.9,0.3c0.2,2.1,0.4,4.2,0.6,6.4c0.3,0,0.7,0.1,1,0.1
		c1.1-5.9,2.5-11.6,8-15c1.3,0.8,2.5,1.5,3.7,2.2c0.2-0.2,0.4-0.3,0.7-0.5c-0.3-0.8-0.6-1.5-0.7-2.3c-0.2-1.5-0.7-3.2-0.4-4.6
		c0.9-4.3,1-4.3-1.7-7c2.2-1.4,5-0.1,4.9,2.9c-0.1,4.5,2.2,7.8,4.6,11.2C358.7,264.2,359,264.6,359.2,265.1z M369.6,256.6
		c-0.4,1.4-1.5,2.8-2.7,3.5c-0.6,0.4-2.5-0.5-3.2-1.3c-1.7-2.2-3.7-2.7-6.3-1.9c-0.4,0.1-0.9,0-1.6,0c0.6-2.2,1.7-3.1,3.7-2.4
		c0.6,0.2,1.2,0.7,1.8,1c3.7,2.1,4.9,1.6,7.2-2.5C368.9,254.2,369.9,255.6,369.6,256.6z M415.3,278.8c-0.8-2.2-1.3-3.7-1.9-5.2
		c1.1,0.2,2.5,0,3.1,0.6C417.9,275.4,417.5,276.9,415.3,278.8z M416.1,287c-2.2-2.8-4-5.2-5.8-7.5c-0.6-0.7-1.1-1.4-1.8-2
		c-3.1-2.4-3.9-5.3-2.2-8.5c1.4-2.8,4.8-4.7,7.4-4c3.2,0.9,5.3,4.1,5,8.1c-4.2-2.7-6.1-2.8-7.8-0.4c-1.6,2.3-0.8,4.7,2.7,7.5
		C415.6,281.6,416.7,283.5,416.1,287z"/>
	<path d="M407,342.9v-0.1c-0.1-0.4-0.5-0.9-0.9-1.2c0,0.1,0,0.2,0.1,0.3C406.5,342.2,406.8,342.5,407,342.9z"/>
	<path class="st1" d="M325.4,317.1c0.4,0,0.8,0,1.2,0C326.1,317.1,325.7,317.1,325.4,317.1c-0.3,0.2-0.6,0.4-0.9,0.7
		c-0.2,0.8-0.7,1.7-1.5,2.6c-1.3,1.4-2.4,3-3.7,4.3c-0.1,3.4-0.5,6.9-1.4,10.1c0.2,0,0.4,0.1,0.6,0.1c0.3,1.4,0.6,2.7,0.9,4.1
		c0.4,0.1,0.8,0.3,1.1,0.4c0.1,0,0.3,0,0.4,0c-2.3-5.3,1-17.2,5.2-20.3c0,2.8-0.3,5.5,0.1,8c0.4,2.6,1.3,5.2,2,8c-0.4,0-1,0.1-2,0.2
		c1.7,1.4,3.1,2.7,4.6,3.9c0.2-0.2,0.4-0.3,0.6-0.5c-0.7-2.4-1.4-4.9-2.1-7.3l0.1,0.1c-1.9-2.7-2.5-4.6-1.7-6.6
		c-0.4-2.5-0.5-5.3-0.5-7.8l0,0l0,0c0-0.2,0-0.5,0-0.7C326.5,316.4,325.9,316.7,325.4,317.1z"/>
	<path d="M324.6,317.1c0,0.2-0.1,0.4-0.1,0.7c0.3-0.2,0.6-0.5,0.9-0.7C325.1,317.1,324.9,317.1,324.6,317.1z"/>
	<path class="st0" d="M383.1,316.5c-0.9,1.1-1.8,2.1-2.6,3.2c-2.9,3.7-6.5,6-11.3,5.8c-0.9,0-1.9-0.4-3.2-0.7c0.7-1.2,1.2-2.1,2-3.5
		c-1.2,0.4-1.9,0.7-3.1,1.1c0-2.6,0-4.9,0-7.3c-0.3-0.1-0.5-0.2-0.8-0.2c-0.7,1.2-1.4,2.5-2.1,3.7c-0.3,0-0.7,0.1-1,0.1
		c-0.6-2.9-1.3-5.7-1.9-8.6c-0.2,0-0.3-0.1-0.5-0.1c-0.2,2-0.5,4-0.9,7.1c-3.1-3.2-5.7-5.8-8.2-8.4c-0.2,0.1-0.4,0.2-0.7,0.3
		c1,2,2,3.9,3,5.9c-0.1,0.2-0.3,0.5-0.4,0.7c-1.9-1.1-4-2-5.8-3.4c-1.8-1.5-3.2-3.4-4.8-5.2c-0.3,0.2-0.7,0.4-1,0.5
		c1.1,2.5,2.2,5,3.5,7.8c-3.8,1.4-5.8-2.8-9.6-2.6c1,1.4,2.1,2.8,3.3,4.3c-3,1.5-5.8,1-8-0.7c-2.2-1.6-3.7-4-6-6.8
		c0.4,2.7,1.7,5,1.4,7.4c0.3,0,0.5,0,0.7,0c0.6-0.4,1.2-0.6,1.8-0.7c0-0.2,0-0.3,0-0.5c0,0.2,0,0.3,0,0.5c0.4,0,0.8,0,1.2,0.1
		c-0.4-0.1-0.8-0.1-1.2-0.1c0,0.2,0,0.5,0,0.7c1.1,2.2,0.7,4.4,1.1,6.6c0.3-0.6,0.8-1.2,1.3-1.8c0.6-0.6,1.8-0.8,2.7-1
		c2-0.4,4.1-0.4,6.1-0.8c1.6-0.3,3.3-0.7,4.7-1.5c3.9-2.1,7.8,0.2,11.7-0.4c3.2-0.4,6.3,2.3,7.2,5.4c0.6,2.1,4.6,4.6,7.4,5
		c1.4,0.2,2.8,0.8,4,1.4c2.4,1.2,4.9,2.1,7.7,0.3c-1.8-0.7-3.6-1.4-6-2.4C379.4,325,383.3,322.2,383.1,316.5z"/>
	<path d="M327.7,324.9c0.1-0.4,0.3-0.8,0.6-1.2c-0.4-2.2,0-4.4-1.1-6.6C327.2,319.6,327.3,322.4,327.7,324.9z"/>
	<path class="st1" d="M304.4,292.4c1,3.2,2.1,6.3,2.9,9.4c0.1,0.2,0.1,0.5,0.2,0.7c0.8-0.5,1.4-1.3,2.2-1.9
		c-0.1-0.1-0.3-0.2-0.4-0.4c-0.3-0.3-0.5-0.7-0.7-1.1c-2.4-5.7-2-11.5-0.2-17.1c1.5-4.7,4-9.1,6-13.7c0.3-0.8,1.1-1.3,2.4-1.8
		c-0.1,1-0.1,2-0.3,2.9c-1.2,7.1-0.9,13.9,2.6,20.4c0.4,0.8,0.3,2-0.1,3.2c1.4-1.6,2.2-3.6,3.7-5.1c-0.6-0.2-1.5-0.4-1.6-0.8
		c-0.4-1-1.1-1.9-1.4-3c-1.5-1.5-2.8-3.8-1.5-5.9c-0.1-0.1-0.3-0.1-0.4-0.2c0.5-3.1,1-6.2,1.6-9.3c0.4-2.1,1.9-4.5-0.7-5.9
		c-2.4-1.3-3.9,1.1-5.2,2.6c-5.3,5.9-8,12.9-8.9,20.7c-0.1,1.3-0.5,2.6-1,3.7c0,0.1-0.1,0.2-0.1,0.3c0.2,0.8,0.3,1.6,0.4,2.4
		C304.1,292.6,304.3,292.5,304.4,292.4z"/>
	<path d="M492.4,333.5L492.4,333.5L492.4,333.5L492.4,333.5L492.4,333.5z"/>
	<path class="st0" d="M237.6,396.6c-0.4,1.5-0.6,2.4-0.8,3.3c-0.4,1.7-0.9,3.3-1,5c-0.1,1.2,0.5,2.5,0.8,3.7
		c1.8-0.5,3.6-0.8,5.2-1.6c1.2-0.6,1.9-1.9,2.9-2.9c-2.8-2.3-2.8-2.3-5.3,1.7c-0.1-0.9-0.5-2-0.1-2.8c0.9-2.1,2.1-4,3.2-6.2
		c0.2,0.4,0.6,0.8,0.7,1.3c0.3,2.1,1.4,3.4,3.6,3.9c1.9,0.4,3.2,1.6,3,3.7c-2.2,0.3-4.3,0.6-7.2,1.1c2,1.8,3.2,2.9,4.4,4
		c-0.2,0.2-0.3,0.4-0.5,0.6c-1.5-0.5-3-1.3-4.6-1.5c-1.5-0.1-3.2,0.8-4.7,0.5c-1.4-0.2-3.1-1.1-4-2.2c-1.5-1.9-2.5-4.2-3.3-6.9
		c1.1,0.6,2.2,1.1,3.6,1.8C234,400.9,233.8,397.9,237.6,396.6z"/>
	<path class="st0" d="M164.3,424.9c-3.4-2.3-2.9-7.1,0.8-9c4.2-2.2,10.1-0.4,12.5,4.1c1.1,2,1.7,4.3,2,6.5c0.6,3.4-0.8,7.3,3.3,9.9
		c-3.3,0.4-4.7-0.9-5.2-4.1c-0.4-2.6-0.4-5.2-0.9-7.8c-0.7-3.8-3.7-6.3-7.2-6.5c-3.9-0.2-5.6,1.4-5.4,5.3
		C164.2,423.9,164.2,424.3,164.3,424.9z"/>
	<path class="st0" d="M231.9,340.7c0.5,5.4-0.2,10.6-3.8,14.8c-1.3,1.6-4.3,2.8-6.3,2.5c-4.8-0.8-9.1,0.1-13.4,2
		c-0.1-0.2-0.3-0.5-0.4-0.7c1.4-1,2.7-2.4,4.3-2.7c2.9-0.7,5.9-1.1,8.8-1c3.2,0.2,5.3-1,6.3-3.9s1.6-6,2.5-8.9
		c0.2-0.8,0.6-1.6,1-2.4C231.2,340.5,231.5,340.6,231.9,340.7z"/>
	<path class="st0" d="M179.5,370c0-3.3,2.2-5.7,5.8-6.3c3-0.5,5.4,0.7,6.1,3.9c0.5,2,0.6,4.7-0.3,6.3c-2.4,4.2-3.5,8,0.4,12.1
		c-3.4-0.4-5.6-3.7-5-6.8c0.2-1.2,0.9-2.4,1.4-3.6s1.6-2.4,1.5-3.5c-0.2-1.8-0.6-4.2-1.9-5.2c-0.9-0.7-3.4,0.4-5,1.2
		c-0.9,0.5-1.1,2-1.7,3.1C180.3,370.9,179.9,370.5,179.5,370z"/>
	<path class="st0" d="M180.7,405.9c-0.8-1.4-1.2-2.1-1.7-2.9c-2.4-4-6-4.6-9.4-1.2c-1.3,1.2-2.3,2.8-3.2,4.3
		c-0.8,1.4-1.2,3.1-2.4,4.8c-0.2-0.9-0.8-1.8-0.7-2.6c0.9-4.9,3.3-8.8,7.9-10.9c2.6-1.2,5.3-0.9,7.5,1.3
		C180.5,400.4,181.8,402.4,180.7,405.9z"/>
	<path class="st0" d="M197.5,448.7c-0.6-3.7-3.2-4.3-6.1-4.7c-3.1-0.4-5-3.8-3.6-6.1c0.4-0.7,1.4-1,2.1-1.5c0.2,0.7,0.7,1.4,0.6,2
		c-0.3,2.3,1.5,2,2.8,2.6c2,0.9,4.2,1.8,5.6,3.3C200.1,445.6,200.2,447.7,197.5,448.7z"/>
	<path class="st0" d="M199.5,484.4c-1.7,1-3.4,2-5,3.1c-2.4,1.5-3.1,3.4-1.5,6.1c0.9,1.5,1.2,3.4,1.8,5.1c-0.4,0.2-0.7,0.4-1.1,0.5
		c-1.5-2.4-3.1-4.7-4.4-7.2c-0.4-0.8-0.2-2.3,0.4-3.1C192.1,485.8,195.2,483.8,199.5,484.4z"/>
	<path class="st0" d="M178.3,438.6c-2.5-0.1-4-1.5-4.4-3.6c-0.4-1.9-0.1-3.9-0.7-6.3c-1.1,1.3-2.1,2.5-3.2,3.8c-0.3,0-0.5,0-0.8,0
		c0.1-1-0.1-2.4,0.5-2.9c1.3-1.2,3-1.9,4.5-2.8c0.5,1,1.6,2.2,1.4,3C174.4,433.4,175.9,436,178.3,438.6z"/>
	<path class="st0" d="M162.5,374.8c1.6-4.4,5.2-6.1,8.5-4.7c3.6,1.6,6.1,7.4,4.6,10.7C173.2,370.5,168.2,368.9,162.5,374.8z"/>
	<path class="st0" d="M220.5,382.2c0-1.3,0-2.6,0-4c-3.5-0.6-6,4.5-9.5,1.4c-0.4-0.4-0.5-1.1-0.7-2.2c2.8,2.6,4.7,0.8,7-0.5
		c1.2-0.7,4.2-0.4,4.4,0.2c0.6,1.6,0.1,3.5,0,5.3C221.3,382.2,220.9,382.2,220.5,382.2z"/>
	<path class="st0" d="M198,335.5c-5.3,2.1-5.9,5.7-3.6,10.2c-0.4,0.1-0.8,0.2-1.1,0.3c-0.7-1.1-1.6-2-2-3.2
		c-0.8-2.6-0.2-5.1,1.9-6.8c1-0.8,2.5-1.1,3.8-1.6C197.4,334.8,197.7,335.2,198,335.5z"/>
	<path class="st0" d="M279.2,489.4c-5.8,1.7-5.8-5.7-4.3-12.2C277,481.2,273.8,486.5,279.2,489.4z"/>
	<path class="st0" d="M164.3,380.4c1.3-0.6,3-2.1,3.9-1.7c1.5,0.7,3.1,2.3,3.7,3.8c0.9,2.4,0.3,4.8-2,6.9c0.2-2.6,0.8-5,0.5-7.1
		c-0.4-2.6-2.1-2.8-5.6-1C164.6,380.9,164.4,380.6,164.3,380.4z"/>
	<path class="st0" d="M275,455.7c-0.3-4.9,0.9-9.3,3.8-13.1c0.3,0.1,0.7,0.3,1,0.4C278.2,447.2,276.6,451.4,275,455.7z"/>
	<path class="st0" d="M190,324.7c2.9-1.6,6.1-3.4,9.3-5.1c2.1-1.1,4.2-0.1,5.9,2.8c-0.9-0.4-1.5-0.6-2.1-1c-1.8-1.3-3.3-0.9-4.8,0.5
		C195.8,324.2,192.9,325.3,190,324.7z"/>
	<path class="st0" d="M279.5,425.4c4.4,1.1,8.4,2.1,12.8,3.3C288.1,430.7,283.5,429.5,279.5,425.4z"/>
	<path class="st0" d="M234.9,299.3c5.2,0.1,7.1,3.5,7.3,12.4C239.8,307.6,241.3,301.2,234.9,299.3z"/>
	<path class="st0" d="M179.7,353.7c-0.7-3.9,1.8-8.6-4.7-9.5c0.2-0.4,0.5-0.7,0.7-1.1c1,0.3,2.2,0.3,3,0.8
		C181,345.5,181.4,349.2,179.7,353.7z"/>
	<path class="st0" d="M205.4,483.5c-3.5-0.5-6.7-1-10.2-1.5C198.4,480.1,202.4,480.8,205.4,483.5z"/>
	<path class="st0" d="M189.8,502.7c3.4,1.4,5,4.3,4.9,8.1C193,508.1,191.5,505.6,189.8,502.7z"/>
	<path class="st0" d="M191.6,499.4c1.5,2.1,3,4.1,4.5,6.2c-0.3,0.3-0.7,0.5-1,0.8c-1.5-2-3-4.1-4.5-6.1
		C190.9,499.9,191.3,499.7,191.6,499.4z"/>
	<path class="st0" d="M165.3,489.8c-0.4-2.4-0.8-4.7-1.2-7.1c0.5-0.1,0.9-0.2,1.4-0.3c0.5,2.3,0.9,4.7,1.4,7
		C166.4,489.6,165.8,489.7,165.3,489.8z"/>
	<path class="st0" d="M144.5,438.7c1.6-4,4.9-3.3,7.4-4.4c0.1,0.3,0.3,0.6,0.4,0.9c-1.2,0.5-2.5,0.9-3.7,1.4
		C147.5,437.2,146.3,437.9,144.5,438.7z"/>
	<path class="st0" d="M172.3,487.9c0.9,2.1,1.7,4.1,2.8,6.7C172.2,493.5,171.3,491.4,172.3,487.9z"/>
	<path class="st0" d="M175.8,357.9c0-1.9,0.2-3.9-0.1-5.8c-0.4-2.4-1.9-3.4-4.6-2.1c0-0.3,0-0.6,0-1c0.8-0.3,2-1.1,2.5-0.8
		c1.1,0.6,2.4,1.7,2.6,2.8c0.4,2.2,0.1,4.5,0.1,6.8C176.2,357.9,176,357.9,175.8,357.9z"/>
	<path class="st0" d="M203.4,479.8c-2.8,0-5.5,0-8.6,0C197.2,477.7,201,477.8,203.4,479.8z"/>
	<path class="st0" d="M176.3,405.8c-1.9,0.4-3.7,0.7-5.6,1.1c-0.1-0.3-0.3-0.5-0.4-0.8c1-0.6,2-1.5,3-1.8c1-0.2,2.1,0.3,3.2,0.5
		C176.5,405.1,176.4,405.5,176.3,405.8z"/>
	<path class="st0" d="M192.4,513.8c-1-2.5-1.9-4.9-2.9-7.4c0.3-0.1,0.6-0.2,0.9-0.4c1,2.4,2,4.9,3,7.3
		C193.1,513.5,192.8,513.6,192.4,513.8z"/>
	<path class="st0" d="M224.7,349.4c0.7-2,1.5-4,2.2-6c0.4,0.2,0.8,0.3,1.2,0.5c-0.8,2-1.6,3.9-2.4,5.9
		C225.3,349.6,225,349.5,224.7,349.4z"/>
	<path class="st0" d="M212,341.4c0.8,2.7,0.1,4.3-3.2,6.8C209.8,346,210.9,343.5,212,341.4z"/>
	<path class="st0" d="M138,409c0.1,2.1,0.3,4.3,0.4,6.4c-0.4,0-0.8,0-1.1,0.1c-0.2-2.1-0.3-4.3-0.5-6.4C137.3,409,137.7,409,138,409
		z"/>
	<path class="st0" d="M351.3,423.8c1.1-1.7,1.6-2.7,2.2-3.6c0.2,0.1,0.3,0.1,0.5,0.2c-0.5,2.5-0.9,5.1-1.4,7.6
		c0.2-3.4-3-3.6-4.9-5.1c-0.5-0.4-1.1-0.8-1.2-1.3c-1.3-4.5-5.5-4.4-8.8-5.7c-0.8-0.3-1.9,0.2-2.9,0.4c-3,0.6-6,1.3-9.6,2.1
		c0.5-2.3,0.9-3.8,1.3-5.3c0.3,0,0.5,0,0.8,0c0.2,0.9,0.3,1.7,0.6,3.3c2.7-0.8,5.2-1.7,7.9-2.3c1.1-0.2,2.3,0.1,3.5,0.3
		c0.9,0.2,1.9,0.8,2.8,0.8c2.9-0.2,4.3,1.2,5.5,3.6C348.3,420.5,349.8,421.9,351.3,423.8z"/>
	<path class="st0" d="M320.6,355.1c7.4-3.3,24.1,4.2,24.1,12.1c-3.6-2.8-6.9-6.2-10.9-8.2C329.8,357,325,356.3,320.6,355.1z"/>
	<path class="st0" d="M366.6,290.6c-0.3-5.2,4.7-8.7,8.9-7.7c2.5,0.6,4.9,1.7,7.8,0.6c1.5-0.5,4.1,0.7,5.5,1.9
		c1.5,1.4,1.6,3.7,0,5.7c-0.2-1-0.3-2-0.6-3c-0.8-2.9-3.6-3.7-6-1.9c-0.6,0.4-1.7,0.4-2.4,0.3c-1.1-0.2-2.2-0.8-3.2-1.3
		c-3.9-1.8-6.2,0.5-8.4,3.1C367.4,288.9,367,289.8,366.6,290.6z"/>
	<path class="st0" d="M362.8,374.4c4.3-5.1,20.2-2.3,25.6,4.3C380.4,374.3,371.8,373,362.8,374.4z"/>
	<path class="st0" d="M386.9,391.8c-1.5,0.4-2.9,1-4.4,1.1c-4.5,0.3-9,0.4-12.9-2.3c-0.5-0.4-1.3-0.9-1.3-1.4
		c-0.1-1.9-1.1-2.3-2.8-2.4c-0.7,0-1.3-1-2-1.5c0.8-0.3,1.7-1.1,2.2-0.9c1.4,0.5,2.8,1.2,3.8,2.3c4.4,5,9.9,6,16.1,4.5
		c0.3-0.1,0.7,0,1.1,0C386.8,391.4,386.9,391.6,386.9,391.8z"/>
	<path class="st0" d="M390,306.3c4.1,2.9,4.1,6.9,3.8,10.9c-0.5,5.5-3.9,8.9-9,11.1C393.2,322.6,392.7,314.8,390,306.3z"/>
	<path class="st0" d="M400.8,324.5c-0.7,6.4-8.9,11.9-14.6,9.8c-0.6-0.2-1-0.8-1.5-1.2c0.4-0.4,0.8-1.1,1.2-1
		c6.3,0.7,10.3-3,14.1-7.2C400.2,324.7,400.5,324.6,400.8,324.5z"/>
	<path class="st0" d="M405.5,306.1c-0.2-3.8,1-7.6-2.7-10.1c-0.6,2.2-1.2,4.2-2,6.8c-0.5-4.5-1-8.3-1.5-12.4c1.1,1.3,2,2.5,3,3.7
		c0.4-0.2,0.9-0.4,1.4-0.6C407.2,295.6,408.4,302.4,405.5,306.1z"/>
	<path class="st0" d="M317.3,366.9c1.2,0.8,2.5,1.5,3.5,2.5c3.8,3.8,8.3,4.9,13.5,4.3c1.4-0.2,2.8-0.2,4.1,0
		c0.5,0.1,0.9,1.1,1.4,1.6c-0.6,0.4-1.2,1.3-1.8,1.3c-3.2-0.4-6.4-1-9.6-1.6c-5-0.8-8.1-4.4-11.6-7.4
		C317,367.4,317.1,367.1,317.3,366.9z"/>
	<path class="st0" d="M354.8,402.6c1.7,3.2,0,7.2-3.1,8.3c-0.4,0.1-1.3,0.3-1.4,0.1c-1.9-2.7-5.2-2.5-7.8-3.7
		c-0.7-0.3-1.3-0.8-2-1.2c0.2-0.3,0.4-0.6,0.7-0.8c1.5,0.6,3.2,1.9,4.6,1.6c3-0.6,4.6,0.8,6.2,2.9
		C354.7,408,354.7,405.3,354.8,402.6z"/>
	<path class="st0" d="M330.5,422.9c4.4,5,9.5,6.8,16.3,3.6c-1.7,2.8-4.6,3.6-9.3,3.2C334.3,429.3,331.6,427,330.5,422.9z"/>
	<path class="st0" d="M331.9,419.8c2.8-2.1,12.5,1.1,15.3,5.4C341.9,423.3,336.8,421.5,331.9,419.8z"/>
	<path class="st0" d="M403.8,327.4c0.1-3.9,0.2-7.7,0.5-11.5c0.1-1,0.8-1.9,1.3-2.8c0.1-0.1,1.2,0.2,1.2,0.2c-0.1,1-0.2,2-0.3,3
		c-0.2,1.5-0.4,2.9-0.4,4.4C406.1,323.3,405.6,325.6,403.8,327.4z"/>
	<path class="st0" d="M384.1,310c-0.9-3.1-1.7-5.5-2.3-8c-0.2-0.7,0.4-1.5,0.6-2.3c0.6,0.4,1.5,0.7,1.8,1.3
		C385.6,303.7,385.8,306.6,384.1,310z"/>
	<path class="st0" d="M335.2,398.6c-0.2,1.1-0.5,2.2-0.7,3c1.6,0.5,3,1,5,1.7c-1.8,1.1-2.7,1.6-3.6,2.2c-0.2,0.3-0.3,0.7-0.5,1
		c-0.8-1.3-2.1-2.5-2.4-3.9c-0.2-1.3,0.7-2.9,1.1-4.3C334.5,398.4,334.8,398.5,335.2,398.6z"/>
	<path class="st0" d="M411.7,316.1c1.4-4.3,2.1-8.5-1.1-13C415.4,305.3,415.8,311.8,411.7,316.1z"/>
	<path class="st0" d="M330.1,333.2c0.1-0.8,0.2-1.6,0.4-3c1,1.2,1.6,1.9,2.2,2.7c0.6-0.5,1.3-1,1.9-1.6c0.2,0.1,0.4,0.2,0.6,0.3
		c-0.6,1.8-1.3,3.5-1.9,5.4C332.3,335.7,331.2,334.4,330.1,333.2C330,333.2,330.1,333.2,330.1,333.2z"/>
	<path class="st0" d="M400.9,282.9c0-3.7-0.1-7.4-3.7-10C401.3,273,403,277.7,400.9,282.9z"/>
	<path class="st0" d="M353.7,385.8c0,2.7,0.1,5.4,0,8.1c-0.1,2.9-0.5,5.8-0.8,8.7c-0.4,0-0.8-0.1-1.2-0.1
		C352.4,396.9,353.1,391.3,353.7,385.8L353.7,385.8z"/>
	<path class="st0" d="M330.9,299.9c1.6-2.8,3.1-5.5,4.7-8.3c0.4,0.2,0.7,0.4,1.1,0.6c-1.6,2.7-3.1,5.5-4.7,8.2
		C331.6,300.3,331.2,300.1,330.9,299.9z"/>
	<path class="st0" d="M396.2,296.1c-0.8-2.8-1.6-5.6-2.4-8.3C396.5,289.3,397.5,292.8,396.2,296.1z"/>
	<path class="st0" d="M324.6,348c-2.3,0.1-4.1,0.3-6.1,0.4C319.8,346.1,322.9,345.8,324.6,348z"/>
	<path class="st0" d="M329.8,342.4c-1.6-0.4-3.1-0.8-4.6-1.3c-0.3-0.1-0.6-1-0.5-1.5c0-0.3,0.9-0.9,1-0.8c1.6,1,3.1,2,4.6,3.1
		C330.1,342,329.9,342.2,329.8,342.4z"/>
	<path class="st0" d="M353.7,385.8c0.1-3.6,1.9-6.3,4.9-8.3C357,380.3,355.3,383,353.7,385.8L353.7,385.8z"/>
	<path class="st0" d="M414.8,368.8c0.3-1.5,0.5-3,0.8-4.5c0.2-0.1,0.4-0.3,0.6-0.4c0.5,0.9,1.5,1.9,1.3,2.5c-0.3,1.1-1.4,2-2.1,2.9
		C415.2,369.2,415,369,414.8,368.8z"/>
	<path class="st0" d="M303.7,318.8c0.2,1.8,0.5,3.7,0.7,5.5c-0.4,0.1-0.7,0.1-1.1,0.2c-0.4-1.8-0.7-3.7-1.1-5.5
		C302.8,318.9,303.2,318.8,303.7,318.8z"/>
	<path class="st0" d="M333.5,378.1c-2.7-0.5-5.4-1-8.1-1.6c0.1-0.3,0.1-0.7,0.2-1c2.7,0.5,5.4,1.1,8.1,1.6
		C333.6,377.4,333.5,377.7,333.5,378.1z"/>
	<path class="st0" d="M372.4,453.8c1-4.4,7.9-11,12.4-11.4C380.7,446.3,376.4,450.2,372.4,453.8z"/>
	<path class="st0" d="M394.1,531.9c-2.7,4.6-7.5,8.3-11.9,9.1C386.3,537.8,389.9,535.1,394.1,531.9z"/>
	<path class="st0" d="M31.8,573.4c2.8,0,5.2,0,7.7,0C37,576.3,34.3,576.3,31.8,573.4z"/>
	<path class="st0" d="M24.4,576.9c0.9,3,3.1,3.9,6.4,3.8C26.2,582.7,23.9,581.2,24.4,576.9z"/>
	<path class="st0" d="M348.5,265.6c-2.3,4.1-2.1,8,0.8,11.9C344.5,276.3,344.1,269.8,348.5,265.6z"/>
	<path class="st0" d="M109.3,403.4c-1.9-1.9-3.9-3.8-6-5.8c0.8,0,1.6,0,2.5,0c-0.2-0.7-0.4-1.3-0.7-2.5c1.4,0.8,2.3,1.4,3.3,2
		c4.3-2.1,8.9-0.5,11.8,4.9c-1.6-0.6-2.6-0.9-3.5-1.4C111.4,397.7,111.2,397.8,109.3,403.4L109.3,403.4z"/>
	<path class="st0" d="M56.7,356c4.4-0.5,16.2,7,25.7,16.3C73.9,366.7,66.5,359.4,56.7,356z"/>
	<path class="st0" d="M64,350.1c8.7,3.6,16.5,8.6,23.6,15.9C79.4,360.4,71.7,355.3,64,350.1z"/>
	<path class="st0" d="M69.2,376.7c-0.1-0.8-0.2-1.7-0.3-2.5c0.9-0.1,2.1-0.7,2.7-0.3c3,1.7,5.9,3.7,8.8,5.6
		c-0.1,0.2-0.3,0.5-0.4,0.7c-2-1.2-4-2.5-6-3.6c-1.4-0.8-2.9-2.6-4.2,1.1C69.5,377.3,69.3,377,69.2,376.7z"/>
	<path class="st0" d="M77.5,387.9c5.5-1.2,9,4,14.2,4.1C86.4,392.7,82.3,389.3,77.5,387.9z"/>
	<path class="st0" d="M299.1,363.1c-1.1-2.9-2.1-5.8-3.2-8.7c0.3-0.1,0.6-0.3,0.8-0.4c3.3,1.8,1.5,6.1,3.6,8.5
		C299.9,362.7,299.5,362.9,299.1,363.1z"/>
	<path class="st0" d="M92,404.1c0.8-2.4,2.1-2.6,6.9-1C96.4,403.5,94.3,403.8,92,404.1z"/>
</g>
</svg>
