<?xml version="1.0" encoding="utf-8"?>
<!-- Generator: Adobe Illustrator 25.4.1, SVG Export Plug-In . SVG Version: 6.00 Build 0)  -->
<svg version="1.1" id="Capa_1" xmlns="http://www.w3.org/2000/svg" xmlns:xlink="http://www.w3.org/1999/xlink" x="0px" y="0px"
	 viewBox="0 0 595.3 841.9" style="enable-background:new 0 0 595.3 841.9;" xml:space="preserve">
<style type="text/css">
	.st0{fill:#FFFFFF;}
	.st1{fill:#09080D;}
	.st2{fill:#C7D649;}
	.st3{fill:#7DC2DF;}
	.st4{fill:#E72574;}
	.st5{fill:#EE75AA;}
	.st6{fill:#E51C47;}
	.st7{fill:#1371C2;}
	.st8{fill:#865A80;}
	.st9{fill:#EE7225;}
	.st10{fill:#AB767E;}
	.st11{fill:#C6D300;}
	.st12{fill:#96539C;}
</style>
<path d="M340.2,397.2c-0.1,16.5-7.2,30.3-15.4,43.7c-2.1,3.5-3.3,4-7.3,2.8c-6.7-2-13.3-4.4-20-6.7c-1-0.3-1.9-0.8-2.9-1.2
	c-1.8,4.3-3.4,8.5-5.2,12.6c-1.2,2.7-2.5,5.4-3.9,7.9c-0.9,1.6-1.3,3-0.3,4.6c0.4,0.8,0.6,1.8,0.9,2.9c3.7-1.9,7.5-2.6,11.5-2.4
	c10.4,0.5,18.7,9.2,18.3,19.5c-0.2,5.3-2.6,9.8-6.1,13.7c-4.3,4.9-9.6,8.6-15.6,11.2c-8.9,3.9-18,6.9-27.6,8.6
	c-3.3,0.6-5.3-0.5-6.8-3.2c-5.2-9.1-9.1-18.7-11.6-28.8c-1.7-6.9-1.9-13.8,0-20.7c0.3-1.1,0.7-2.1,1-2.9c-3.8-2.6-7.6-4.8-11-7.6
	c-5.4-4.3-9.7-9.6-11-16.6c-0.4-2.5-0.2-5.2,0.1-7.8c0.2-1.5-0.1-2.1-1.3-2.8c-4.4-2.5-7.9-5.9-9.6-10.7
	c-3.5-9.7,1.9-20.9,11.9-24.3c2.9-1,6.1-1.3,9.6-2c-0.4-0.4-0.8-1.2-1.3-1.3c-8.1-1.4-15-5.3-21.2-10.6c-2.6-2.2-4.9-4.6-7.5-6.8
	c-0.5-0.4-1.3-0.4-2-0.5c-1.4-0.3-3-0.2-4.2-0.8c-4.5-2.4-8.9-5-13.2-7.7c-1.7-1.1-3-1.6-5-0.6c-3.6,1.8-6.9,1.5-10.3-1.2
	c-23.1-18.4-46.4-36.6-69.6-54.9C86.7,289.3,70,276.1,53.2,263c-8.1-6.3-15.9-12.8-22.3-20.9c-10.8-13.9-17.3-29.6-19.3-47.1
	c-2.4-20.9,1.7-40.5,12.4-58.6c12.6-21.3,30.9-35.7,54.6-42.4c29.2-8.2,56.5-3.6,81.2,14.1c11.8,8.4,22.9,17.8,34.3,26.8
	c5.7,4.4,11.3,8.9,17,13.3c20.4,16,40.7,32.1,61.1,48.1c5.8,4.6,11.5,9.3,17.5,13.7c3.2,2.4,4,5.4,3.4,9c-1.1,6.9-4.2,13.1-7.2,19.3
	c-1.2,2.4-2.6,4.7-3.8,7.1c-0.3,0.5-0.2,1.7,0.1,2c6.8,6.6,7.4,15.5,3.1,24.1c-3.3,6.5-8.3,11.5-14.1,15.8c-0.6,0.4-1.2,0.9-1.7,1.3
	c1.7,2.4,3.4,4.7,5.1,7.2c5.3-4.2,11.5-5.9,18.2-4.1c2.7,0.7,4.7,0.4,7.1-0.9c2.2-1.2,4.8-1.6,7.1-2.4c-1.3-4.4-2.9-8.8-4-13.3
	c-1.8-7.2-2.1-14.5,0.2-21.7c2.4-7.4,8.1-13.1,16.9-13.6c0.3,0,0.7-0.1,1-0.2c1-4.6,1.8-9.2,3.2-13.7c1.3-4.2,3-8.3,4.9-12.3
	c1.4-2.9,3.9-4.2,7.4-4.2c38.5,0.1,76.9,0.1,115.4,0.1c16.6,0,33.2-0.3,49.8,0.2c19.7,0.6,37.4,7.3,53,19.4
	c18.6,14.5,30.3,33.4,34.8,56.6c3.4,17.4,2,34.6-4.6,51.1c-11.7,29.5-32.9,48.6-63.4,57.4c-8.2,2.4-16.6,3.2-25.1,3.2
	c-51.2,0-102.5,0-153.7,0C341.8,397.2,341.1,397.2,340.2,397.2z M336.8,392.7c2.7,0,5,0,7.3,0c50.3,0,100.6,0,150.9-0.1
	c5.4,0,10.8-0.4,16.1-1.2c18.6-2.8,34.7-10.9,48.2-24c14.7-14.3,23.5-31.7,26.3-52c3.1-22.8-1.6-44-14.9-62.8
	c-17.9-25.4-42.8-38.6-74-38.7c-51-0.2-102.1-0.1-153.1-0.1c-1.4,0-2.8,0-4.4,0c1.6,3.2,3,6.1,4.4,9c6.9,14.3,11.1,29.3,12.3,45.2
	c0.6,7.3,0.4,14.7,0.7,22.1c0.2,4.7,0.8,9.4,0.5,14c-0.4,7.8-1.1,15.7-2.1,23.4c-1.1,8.6-2.1,17.3-4.9,25.6c-3.8,11-7.8,22-11.6,33
	C337.8,388.2,337.4,390.2,336.8,392.7z M283.1,210.6c-6.2-4.9-12.2-9.6-18.2-14.4c-21.4-16.8-42.7-33.6-64.1-50.5
	c-14.4-11.3-28.6-23-43.3-33.9C139.4,98.5,119,93,96.7,95.1c-21.4,2-39.9,10.5-55,25.9c-20.4,20.8-28.9,46-25.4,74.7
	c2.9,23.9,14.3,43.5,33.3,58.5c21.2,16.8,42.4,33.4,63.6,50.2c17.9,14.1,35.8,28.2,53.7,42.3c1.8,1.4,3.7,2.9,5.8,4.5
	c0.1-1.4,0.2-2.4,0.3-3.5c0.4-2.8,0.6-5.6,1.2-8.3c2.2-10.6,6.4-20.5,12.1-29.7c4.4-7.2,9.8-13.9,15.1-20.6
	c4.7-5.9,9.9-11.3,14.8-17c5.2-6.1,10.1-12.4,15.2-18.5c7.5-9.1,15.5-17.7,24.6-25.3c8.1-6.8,16.3-13.4,26.3-17.2
	C282.5,211,282.7,210.9,283.1,210.6z M277,405c-0.1,0-0.2,0-0.3,0c-0.1-2.3-0.2-4.7-0.4-7c-0.6-8.3-2.2-16.4-7.1-23.4
	c-3.9-5.5-9.7-8.3-15.3-7.1c-7.9,1.7-13.2,10-11.7,18.5c0.7,4.3-0.7,6.1-5.1,5.9c-3.2-0.1-6.1,0.4-9,1.8
	c-9.6,4.8-11.2,16.7-3.2,23.8c3.1,2.8,6.9,4.4,10.9,5.5c7.9,2.2,16,1.8,24,1c4.8-0.5,9.5-1.5,14.3-2.2c1.2-0.2,1.8-0.8,1.9-2.1
	C276.3,414.8,276.7,409.9,277,405z M244.3,265.4c-6.7,6-14.7,9.1-23.3,10.9c-3,0.6-4.9,2.2-6.1,4.6c-4.1,8.1-7.1,16.6-9.1,25.5
	c-0.4,1.8,0.2,2.8,1.7,3.7c8.7,5.1,17.9,9.2,27.7,11.7c6.8,1.7,13.7,2,20.4-0.9c6-2.6,9.3-8.6,8-14.9c-1.3-6.9-5.6-11.1-12.2-13
	c-1.9-0.5-3.6-1.3-3.8-3.3c-0.1-1.2,0.3-2.6,0.9-3.8C252.2,278.8,250.6,270.2,244.3,265.4z M253.4,460.5c-2,4.4-2.4,9.4-1.8,14.3
	c1.4,11.9,6.2,22.7,11.7,33.2c0.8,1.6,1.9,2,3.6,1.6c9.7-2,19.1-4.9,27.9-9.4c6-3,11.1-7.1,14.5-13c2.2-3.9,2.9-7.9,1.2-12.2
	c-2.7-7-10.7-10.8-18.4-8.8c-1.5,0.4-2.9,1.1-4.3,1.8c-2.6,1.2-5,0.2-5.9-2.5c-0.2-0.6-0.4-1.1-0.7-2.1c-2.1,4.8-5.6,4.4-9.3,3.3
	c-0.1,0-0.1,0-0.2-0.1C265.6,464.7,259.6,462.6,253.4,460.5z M303,322.8c0.5,0.4,1,0.8,1.6,1.2c4.4,2.8,9.1,5.2,14.2,6.5
	c6.8,1.6,13.6,3,20.4,4.6c2.4,0.6,3.4-0.6,4.3-2.6c3.9-8.7,6.9-17.7,8.8-27.1c0.3-1.4,0-2.3-1-3.4c-6-6.7-10.8-14.2-12.8-23.2
	c-0.3-1.4-0.8-1.7-2.2-1.6c-6.3,0.5-12.4,5.9-13.9,12.3s-2.2,6.8-8.4,4.6c-4.5-1.6-8.9-1.2-13.2,1.1
	C309.3,303.7,308.7,312.8,303,322.8z M281.5,405.4c-0.4,5.3-0.7,10.4-1.1,15.5c-0.2,2.8-1.5,4.6-4.4,5.2c-3.7,0.7-7.4,1.6-11.1,2
	c-8.8,1.1-17.7,1.8-26.5,0.2c-2.2-0.4-4.4-1-6.8-1.6c0,2.6-0.4,5.1,0.1,7.3c1.2,5.7,4.9,10,9.3,13.5c10,7.9,21.7,12,33.8,15.3
	c0.6,0.2,1.7-0.5,2.2-1.2c5.1-7.3,8.8-15.4,11.9-23.7c2.7-7.1,3.9-14.4,2-21.9C289.6,410.9,286.8,407,281.5,405.4z M249,327.6
	c4.1,5.4,8,10.6,11.8,15.9c1.4,1.9,2.8,1.9,4.8,1c8.5-3.8,16.6-8.3,24-13.9c5.1-3.9,9.3-8.6,11.7-14.6c2.1-5,2.3-9.9-1-14.6
	c-4.9-6.9-15.4-8.1-22.4-2.5c-3.6,2.9-5.9,2.3-8-1.8c-0.9-1.8-2.3-3.4-3.7-5c-0.3-0.4-1.3-0.5-1.8-0.3c-0.9,0.3-1.7,1-2.6,1.5
	C274,305.7,268.6,325.4,249,327.6z M239.3,373.8c0.7-1,1.2-1.8,1.8-2.7c4.4-6.7,12.2-9.8,20-7.9c5.8,1.4,9.8,5.2,12.8,10.1
	c1.5,2.4,2.7,5,4,7.5c6.5-3.1,12.9-9.2,15.2-15c2.1-5.3,1.4-10.3-2.5-14.6c-4.7-5.2-12.6-6.3-19.5-2.9c-1.2,0.6-2.8,0.6-4.2,0.9
	c-0.5,0.1-1,0-1.4,0.2c-3.2,1.5-5.6,0.4-7.6-2.1c-3.4-4.4-6.7-8.7-9.9-13.2c-0.8-1.1-1.5-1.3-2.7-1c-6.2,1.8-9.3,6.3-10.6,12.2
	C232.6,355.3,235.7,364.5,239.3,373.8z M237.4,381c-1-2.4-1.9-4.5-2.7-6.6c-3.5-9-6.2-18.1-4.7-27.8c1.3-8.5,5.1-15.1,13.9-17.8
	c0.2-0.1,0.4-0.3,1-0.7c-1.1-0.2-1.7-0.4-2.4-0.5c-4.4-0.9-8.9-1.3-13.1-2.7c-3.1-1.1-5.3-0.6-7.6,1.4c-0.1,0.1-0.3,0.3-0.5,0.4
	c-7.8,6.4-14.4,14.1-20.3,22.3c-1.4,2-1.2,3.3,0.2,5.1c5.8,7.1,12.2,13.7,19.4,19.3C225.4,377.1,230.8,379.9,237.4,381z
	 M335.3,397.3c-3-0.3-3.6-0.9-3.3-3.6c0.1-1.5,0.5-2.9,0.7-4.4c0.1-0.5,0.1-1.1,0-1.5c-1.5-3.5-6.9-6.6-11-6.3
	c2.7,6.3,1.9,12.3-1.6,18.1c-2.6,4.3-6,7.8-10.2,10.4c-4.4,2.8-9.1,5.1-13.5,7.5c-0.2,4-0.4,8.2-0.5,12.4c0,0.5,0.4,1.4,0.8,1.5
	c7,2.6,14.1,5.1,21.1,7.7c2,0.8,3.2-0.1,4.2-1.8c4.9-8.1,9-16.6,11.8-25.7C335.1,407,335.8,402.3,335.3,397.3z M300.2,326.5
	c-3.8,4.9-8.6,8.5-13.5,11.8c-0.4,0.3-0.8,0.9-0.9,1.4c-0.2,1-0.1,1.9-0.2,3.1c5.7,2.1,10.2,5.8,12.2,11.9
	c2.1,6.2,0.7,11.8-2.8,17.5c7-2.4,13.3-2,19.5,1.4c1.2,0.6,3.4-0.3,4.9-0.8c0.5-0.2,0.9-1.5,0.9-2.4c0-6,0.3-12.1-0.2-18.1
	c-0.5-5.6-1.9-11.1-3.1-16.6c-0.1-0.6-0.9-1.3-1.5-1.5C310.3,332.3,305.1,330,300.2,326.5z M294.7,412.8c2.2-1,4.3-1.8,6.3-2.8
	c6.5-3.2,12.2-7.4,15.7-13.9c1.9-3.4,2.6-7,1.3-10.9c-2.8-8.8-12.9-12.8-21.8-8.6c-1.6,0.8-3.1,1.6-5,0.9c-0.4-0.1-1,0.2-1.4,0.5
	c-3.3,2.3-6.6,4.6-9.8,7c-0.4,0.3-0.8,0.9-0.8,1.3c0.5,4.3,1.1,8.6,1.7,13c0.1,0.5,0.5,1.2,0.9,1.3
	C288.2,402.4,292.3,406.5,294.7,412.8z M248,262.3c6.3,5.4,9.8,15.4,4.5,26.1c3.2,2.1,6.3,2.3,9.4-0.4c1.2-1,2.7-1.8,4-2.7
	c6-4,11.4-8.6,14.9-15c2.5-4.5,4-9.4,1.8-14.5c-3.8-9.1-15.8-11.9-23.7-5.4c-2,1.6-4,2.6-6.2,1.3C251.1,255.3,249.6,258.7,248,262.3
	z M317.7,290.4c0.8-5.1,3.1-9.3,6.8-12.6c3.7-3.4,8.2-5,12.7-5.3c1-3.9,1.9-7.6,2.9-11.2c-2.6-0.6-3.3-1.3-4-4.3
	c-1.1-4.8-3.8-8.4-8-10.8c-7.5-4.3-16.2-1.6-19.8,6.2c-1.8,3.9-2.3,8.1-2.2,12.4c0.1,8.2,3,15.7,5.9,23.2c0.1,0.4,0.5,0.8,0.9,0.9
	C314.4,289.5,315.9,289.9,317.7,290.4z M220,321.8c-6-3.1-11.7-6-17.5-9.1c-0.4,0.7-1,1.5-1.5,2.4c-2,3.2-4.5,3.5-7.3,1
	c-1.3-1.1-2.7-2.1-4.1-3.2c-5.3,9.7-9.5,19.4-11.5,29.9c-0.3,1.6,0,2.7,1.3,3.7c6.2,4.4,12.4,8.9,18.6,13.4c1,0.7,2.2,1.2,3.6,1.9
	c-2-2.6-3.8-5-5.6-7.3c-1.3-1.8-1.6-3.7-0.3-5.6c1.8-2.6,3.4-5.3,5.4-7.8C206.7,334,212.7,327.3,220,321.8z M322.3,376.7
	c4.1,0.4,7.4,2,10.5,4.2c1.1,0.8,2.4,0.6,3.1-1.2c1.9-5.2,4-10.4,5.9-15.6c1.8-5.1,3.3-10.3,5-15.5c-5-0.7-5.8-1.8-5.2-6.6
	c0.1-0.7,0-1.4,0-1.8c-6.6-1.3-12.9-2.5-19.2-3.7c0,0.1-0.1,0.2-0.1,0.3c2.8,10.6,3.1,21.4,2.7,32.2
	C325,371.7,325.2,374.6,322.3,376.7z M241.9,248.5c0.5,0.1,0.7,0.2,0.8,0.1c5.4-1.5,11-2.6,16.2-4.5c6.4-2.3,12-6.1,15.6-12.2
	c2.3-3.9,2.6-7.9,0.9-12.3C262.7,227.6,251.9,237.5,241.9,248.5z M339,224.1c-0.7,1-1.3,1.6-1.8,2.3c-2.2,3.5-2.7,7.4-2.2,11.4
	c0.9,7.3,4.1,13.6,8.5,19.3c2.3,3,4.7,5.9,7,8.9c0.2-0.1,0.3-0.2,0.5-0.3C349.5,251.3,345.6,237.5,339,224.1z M343.9,265.2
	c-4.3,8,0.8,22,8.3,30.6c0.1-0.3,0.1-0.6,0.1-0.8c-0.2-6.7-0.3-13.4-0.6-20.1c0-0.6-0.3-1.2-0.6-1.6
	C348.8,270.6,346.4,268,343.9,265.2z M279.5,217.2c4,11-0.5,18.6-8.2,25.2c2.3,0.6,4.2,1.2,6.2,1.7c5-8.2,9.5-18.2,10.8-24.1
	c0.4-1.7,0.3-3.4,0.5-5.2c-0.2-0.2-0.5-0.4-0.7-0.6C285.2,215.3,282.4,216.2,279.5,217.2z M247.6,252.3c-2.4,0.5-4.3,1-6.2,1.1
	c-2.9,0.3-5.4,1.1-6.9,3.9c-0.7,1.3-1.9,2.4-2.9,3.6c-2.7,3.2-5.3,6.5-8,9.7C233.9,267.8,243.2,263.7,247.6,252.3z M333.6,214.7
	c-0.9,1.5-1.6,2.4-2.1,3.5c-3,6.7-4.4,13.9-5.7,21.1c-0.1,0.4,0.3,1,0.7,1.2c1.5,0.7,3.1,1.3,4.7,2c0-0.3,0-0.5,0-0.7
	c-1.6-7.8-1.1-15.1,4.9-21.1c0.3-0.3,0.4-1.1,0.2-1.5C335.6,217.7,334.7,216.4,333.6,214.7z M204.1,293.9c-0.2-0.1-0.4-0.2-0.6-0.4
	c-3.9,5.1-7.8,10.2-11.8,15.4c1.5,1,2.6,1.7,3.7,2.4C200.2,306.3,203.3,300.7,204.1,293.9z M347.6,340.6c0.3,0,0.5,0.1,0.8,0.1
	c0.6-3.8,1.2-7.5,1.8-11.3c-0.3,0-0.5-0.1-0.8-0.1C348.8,333,348.2,336.8,347.6,340.6z M177.5,351c0.3,1.7,0.4,2.9,0.7,4.4
	c1.2-0.3,2.3-0.6,3.7-0.9C180.3,353.2,179.1,352.3,177.5,351z"/>
<path d="M261.9,552.6c1.7-2.7,3-5.6,5-8c6.7-8.1,18.5-9.5,26.6-3.1c4.4,3.5,6.4,8.3,7.2,13.7c1,6.7,0.1,13.1-2,19.4
	c-3.3,9.6-7.6,18.7-13.3,27.2c-1.8,2.7-3.9,3.6-7,2.7c-12.3-3.3-24.2-7.6-34.5-15.4c-5.3-4-9.5-8.9-11.5-15.4
	c-3.4-10.8,3.5-21.9,14.6-23.8C252.4,549.1,255.1,549.6,261.9,552.6z M297.1,560.5c-0.2,0-0.3-0.1-0.5-0.1c-0.1-1.5-0.2-3-0.4-4.4
	c-0.9-6-3.4-11-9.5-13.1c-8.1-2.8-17.2,2.1-19.7,10.9c-1,3.6-4.1,5.1-7.5,2.9c-3.6-2.4-7.7-2.9-12-2c-9.3,2-14,11.1-10,19.9
	c1.7,3.7,4.2,6.9,7.3,9.5c9.9,8.4,21.9,12.5,34.1,16.1c1.4,0.4,2.3-0.1,3.2-1.4c4.8-7.5,8.9-15.5,11.7-24
	C295.2,570.1,296,565.3,297.1,560.5z"/>
<path class="st0" d="M336.8,392.7c0.6-2.5,1-4.5,1.7-6.4c3.8-11,7.9-22,11.6-33c2.8-8.3,3.8-17,4.9-25.6c1-7.8,1.7-15.6,2.1-23.4
	c0.2-4.7-0.4-9.3-0.5-14c-0.2-7.4-0.1-14.8-0.7-22.1c-1.2-15.8-5.5-30.9-12.3-45.2c-1.4-2.9-2.8-5.7-4.4-9c1.7,0,3,0,4.4,0
	c51,0,102.1-0.1,153.1,0.1c31.2,0.1,56.1,13.3,74,38.7c13.2,18.8,18,40,14.9,62.8c-2.8,20.3-11.6,37.7-26.3,52
	c-13.5,13.1-29.6,21.2-48.2,24c-5.3,0.8-10.7,1.2-16.1,1.2c-50.3,0.1-100.6,0.1-150.9,0.1C341.8,392.7,339.4,392.7,336.8,392.7z"/>
<path class="st0" d="M283.1,210.6c-0.4,0.3-0.5,0.4-0.7,0.5c-10.1,3.8-18.3,10.4-26.3,17.2c-9,7.6-17,16.2-24.6,25.3
	c-5.1,6.2-10.1,12.4-15.2,18.5c-4.9,5.7-10.1,11.2-14.8,17c-5.3,6.6-10.7,13.3-15.1,20.6c-5.6,9.2-9.9,19.1-12.1,29.7
	c-0.6,2.7-0.8,5.5-1.2,8.3c-0.1,1-0.2,2.1-0.3,3.5c-2.1-1.6-3.9-3-5.8-4.5c-17.9-14.1-35.8-28.2-53.7-42.3
	C92,287.7,70.8,271,49.6,254.2c-18.9-15-30.3-34.6-33.3-58.5c-3.5-28.8,5-53.9,25.4-74.7c15.1-15.4,33.6-23.9,55-25.9
	c22.3-2.1,42.8,3.4,60.7,16.8c14.7,11,28.9,22.6,43.3,33.9c21.4,16.8,42.7,33.6,64.1,50.5C270.9,201,276.9,205.7,283.1,210.6z"/>
<path class="st1" d="M277,405c-0.3,4.9-0.7,9.8-1,14.7c-0.1,1.3-0.7,1.9-1.9,2.1c-4.8,0.7-9.5,1.7-14.3,2.2c-8,0.8-16.1,1.2-24-1
	c-4-1.1-7.7-2.7-10.9-5.5c-8-7.1-6.3-19,3.2-23.8c2.8-1.4,5.8-1.9,9-1.8c4.3,0.2,5.8-1.6,5.1-5.9c-1.5-8.5,3.8-16.8,11.7-18.5
	c5.6-1.2,11.5,1.5,15.3,7.1c4.9,7,6.5,15.1,7.1,23.4c0.2,2.3,0.2,4.7,0.4,7C276.8,405,276.9,405,277,405z"/>
<path class="st2" d="M244.3,265.4c6.3,4.8,7.9,13.4,4.1,20.6c-0.6,1.1-1.1,2.5-0.9,3.8c0.2,2,1.9,2.8,3.8,3.3
	c6.7,1.8,10.9,6.1,12.2,13c1.2,6.3-2.1,12.3-8,14.9c-6.7,2.9-13.5,2.6-20.4,0.9c-9.8-2.5-19-6.6-27.7-11.7c-1.5-0.9-2.1-1.8-1.7-3.7
	c2.1-8.9,5-17.4,9.1-25.5c1.2-2.4,3.2-4,6.1-4.6C229.6,274.5,237.6,271.4,244.3,265.4z"/>
<path class="st3" d="M253.4,460.5c6.2,2.1,12.2,4.2,18.2,6.2c0.1,0,0.1,0.1,0.2,0.1c3.7,1.1,7.2,1.5,9.3-3.3c0.3,1,0.5,1.6,0.7,2.1
	c0.9,2.7,3.3,3.7,5.9,2.5c1.4-0.6,2.8-1.4,4.3-1.8c7.8-2,15.7,1.8,18.4,8.8c1.7,4.3,1,8.3-1.2,12.2c-3.4,5.9-8.5,10-14.5,13
	c-8.8,4.4-18.3,7.3-27.9,9.4c-1.7,0.3-2.7,0-3.6-1.6c-5.5-10.5-10.3-21.3-11.7-33.2C251,469.9,251.4,465,253.4,460.5z"/>
<path class="st4" d="M303,322.8c5.7-10,6.3-19.1-2.1-27.6c4.3-2.3,8.6-2.7,13.2-1.1c6.2,2.2,6.9,1.8,8.4-4.6s7.6-11.7,13.9-12.3
	c1.3-0.1,1.9,0.2,2.2,1.6c2,9,6.7,16.5,12.8,23.2c1,1.1,1.3,1.9,1,3.4c-1.9,9.4-4.9,18.4-8.8,27.1c-0.9,2-1.9,3.2-4.3,2.6
	c-6.8-1.6-13.6-3-20.4-4.6c-5.1-1.2-9.8-3.6-14.2-6.5C304,323.6,303.5,323.2,303,322.8z"/>
<path class="st5" d="M281.5,405.4c5.3,1.7,8.1,5.6,9.4,10.6c1.9,7.5,0.6,14.8-2,21.9c-3.1,8.3-6.8,16.3-11.9,23.7
	c-0.4,0.6-1.6,1.3-2.2,1.2c-12.1-3.3-23.9-7.4-33.8-15.3c-4.4-3.5-8.1-7.8-9.3-13.5c-0.5-2.3-0.1-4.7-0.1-7.3
	c2.5,0.6,4.6,1.2,6.8,1.6c8.8,1.6,17.7,0.9,26.5-0.2c3.7-0.4,7.4-1.3,11.1-2c2.9-0.5,4.2-2.4,4.4-5.2
	C280.8,415.8,281.2,410.7,281.5,405.4z"/>
<path class="st6" d="M249,327.6c19.6-2.2,25-21.9,12.8-34.2c0.9-0.5,1.7-1.2,2.6-1.5c0.5-0.2,1.5-0.1,1.8,0.3c1.3,1.6,2.7,3.2,3.7,5
	c2.2,4.2,4.4,4.8,8,1.8c6.9-5.6,17.5-4.5,22.4,2.5c3.3,4.6,3.1,9.6,1,14.6c-2.5,6-6.6,10.7-11.7,14.6c-7.4,5.6-15.5,10.2-24,13.9
	c-2,0.9-3.4,0.9-4.8-1C257,338.2,253,333,249,327.6z"/>
<path class="st7" d="M239.3,373.8c-3.6-9.3-6.7-18.5-4.5-28.5c1.3-6,4.4-10.5,10.6-12.2c1.2-0.3,1.9-0.1,2.7,1
	c3.2,4.5,6.6,8.8,9.9,13.2c2,2.6,4.4,3.6,7.6,2.1c0.4-0.2,0.9-0.1,1.4-0.2c1.4-0.3,2.9-0.3,4.2-0.9c6.9-3.3,14.8-2.3,19.5,2.9
	c3.9,4.3,4.6,9.3,2.5,14.6c-2.3,5.8-8.7,12-15.2,15c-1.3-2.5-2.5-5.1-4-7.5c-3-4.9-7-8.7-12.8-10.1c-7.8-1.9-15.6,1.2-20,7.9
	C240.6,372,240,372.8,239.3,373.8z"/>
<path class="st8" d="M237.4,381c-6.5-1.1-12-3.9-16.8-7.7c-7.2-5.7-13.6-12.2-19.4-19.3c-1.4-1.8-1.7-3.1-0.2-5.1
	c5.9-8.2,12.4-15.9,20.3-22.3c0.2-0.1,0.3-0.3,0.5-0.4c2.2-2.1,4.4-2.5,7.6-1.4c4.2,1.4,8.8,1.9,13.1,2.7c0.7,0.1,1.3,0.3,2.4,0.5
	c-0.6,0.4-0.8,0.6-1,0.7c-8.7,2.8-12.5,9.4-13.9,17.8c-1.5,9.8,1.2,18.9,4.7,27.8C235.5,376.5,236.4,378.6,237.4,381z"/>
<path class="st8" d="M335.3,397.3c0.5,5-0.2,9.7-1.7,14.4c-2.8,9.1-6.9,17.6-11.8,25.7c-1,1.7-2.1,2.5-4.2,1.8
	c-7-2.6-14.1-5.1-21.1-7.7c-0.4-0.2-0.8-1-0.8-1.5c0.1-4.2,0.4-8.4,0.5-12.4c4.5-2.4,9.1-4.8,13.5-7.5c4.2-2.6,7.6-6.2,10.2-10.4
	c3.5-5.8,4.3-11.8,1.6-18.1c4.2-0.3,9.5,2.8,11,6.3c0.2,0.4,0.1,1,0,1.5c-0.2,1.5-0.6,2.9-0.7,4.4
	C331.8,396.4,332.3,397,335.3,397.3z"/>
<path class="st3" d="M300.2,326.5c4.9,3.6,10.1,5.8,15.5,7.7c0.6,0.2,1.4,0.9,1.5,1.5c1.1,5.5,2.5,11,3.1,16.6
	c0.5,6,0.2,12.1,0.2,18.1c0,0.8-0.4,2.2-0.9,2.4c-1.6,0.6-3.8,1.5-4.9,0.8c-6.2-3.4-12.5-3.9-19.5-1.4c3.5-5.6,4.9-11.3,2.8-17.5
	c-2.1-6.1-6.6-9.8-12.2-11.9c0.1-1.2,0-2.1,0.2-3.1c0.1-0.5,0.4-1.1,0.9-1.4C291.6,334.9,296.4,331.3,300.2,326.5z"/>
<path class="st6" d="M294.7,412.8c-2.4-6.3-6.5-10.4-12.8-12.1c-0.4-0.1-0.8-0.8-0.9-1.3c-0.6-4.3-1.2-8.6-1.7-13
	c0-0.4,0.4-1.1,0.8-1.3c3.2-2.4,6.5-4.7,9.8-7c0.4-0.3,1-0.6,1.4-0.5c1.9,0.7,3.4-0.1,5-0.9c8.8-4.2,18.9-0.2,21.8,8.6
	c1.2,3.8,0.5,7.4-1.3,10.9c-3.6,6.5-9.2,10.7-15.7,13.9C299,411,297,411.8,294.7,412.8z"/>
<path class="st9" d="M248,262.3c1.6-3.6,3.2-7,4.7-10.5c2.2,1.3,4.2,0.3,6.2-1.3c7.9-6.4,19.9-3.7,23.7,5.4
	c2.1,5.1,0.7,9.9-1.8,14.5c-3.5,6.4-8.9,11.1-14.9,15c-1.3,0.9-2.8,1.6-4,2.7c-3.1,2.6-6.2,2.5-9.4,0.4
	C257.8,277.7,254.3,267.7,248,262.3z"/>
<path class="st7" d="M317.7,290.4c-1.8-0.5-3.3-0.9-4.8-1.4c-0.4-0.1-0.8-0.6-0.9-0.9c-2.9-7.5-5.8-15-5.9-23.2
	c-0.1-4.3,0.4-8.4,2.2-12.4c3.7-7.8,12.4-10.5,19.8-6.2c4.2,2.4,6.9,6,8,10.8c0.7,3,1.3,3.7,4,4.3c-0.9,3.6-1.9,7.3-2.9,11.2
	c-4.5,0.3-9,1.9-12.7,5.3C320.7,281.1,318.5,285.3,317.7,290.4z"/>
<path class="st3" d="M220,321.8c-7.3,5.5-13.3,12.2-18.9,19.3c-2,2.5-3.6,5.2-5.4,7.8c-1.3,1.9-1.1,3.8,0.3,5.6
	c1.8,2.4,3.6,4.7,5.6,7.3c-1.4-0.7-2.6-1.2-3.6-1.9c-6.2-4.4-12.4-8.9-18.6-13.4c-1.3-0.9-1.6-2.1-1.3-3.7
	c2-10.5,6.2-20.2,11.5-29.9c1.4,1.1,2.8,2.1,4.1,3.2c2.8,2.5,5.3,2.2,7.3-1c0.5-0.9,1.1-1.7,1.5-2.4
	C208.3,315.8,214.1,318.7,220,321.8z"/>
<path class="st1" d="M322.3,376.7c2.9-2.1,2.7-5,2.8-7.7c0.4-10.8,0.1-21.6-2.7-32.2c0-0.1,0.1-0.2,0.1-0.3
	c6.3,1.2,12.6,2.4,19.2,3.7c0,0.4,0.1,1.1,0,1.8c-0.6,4.8,0.2,5.9,5.2,6.6c-1.7,5.2-3.2,10.4-5,15.5c-1.8,5.3-4,10.4-5.9,15.6
	c-0.6,1.8-1.9,2-3.1,1.2C329.8,378.7,326.5,377.1,322.3,376.7z"/>
<path class="st10" d="M241.9,248.5c10.1-11,20.8-20.9,33.5-28.9c1.7,4.4,1.4,8.5-0.9,12.3c-3.6,6.1-9.2,9.8-15.6,12.2
	c-5.3,1.9-10.8,3.1-16.2,4.5C242.5,248.7,242.3,248.6,241.9,248.5z"/>
<path class="st1" d="M339,224.1c6.6,13.5,10.5,27.2,12.1,41.6c-0.2,0.1-0.3,0.2-0.5,0.3c-2.4-3-4.8-5.9-7-8.9
	c-4.4-5.8-7.5-12.1-8.5-19.3c-0.5-4-0.1-7.9,2.2-11.4C337.7,225.7,338.3,225.1,339,224.1z"/>
<path class="st3" d="M343.9,265.2c2.5,2.8,4.9,5.4,7.2,8c0.4,0.4,0.6,1.1,0.6,1.6c0.2,6.7,0.4,13.4,0.6,20.1c0,0.2-0.1,0.5-0.1,0.8
	C344.7,287.2,339.6,273.2,343.9,265.2z"/>
<path class="st0" d="M279.5,217.2c2.9-1,5.7-2,8.5-2.9c0.2,0.2,0.5,0.4,0.7,0.6c-0.1,1.7-0.1,3.5-0.5,5.2
	c-1.3,5.9-5.8,15.9-10.8,24.1c-1.9-0.5-3.9-1.1-6.2-1.7C279,235.9,283.4,228.2,279.5,217.2z"/>
<path class="st11" d="M247.6,252.3c-4.4,11.3-13.7,15.4-24,18.3c2.7-3.2,5.3-6.4,8-9.7c1-1.2,2.2-2.3,2.9-3.6c1.5-2.8,4-3.7,6.9-3.9
	C243.3,253.3,245.2,252.8,247.6,252.3z"/>
<path class="st0" d="M333.6,214.7c1.1,1.7,2,3,2.7,4.4c0.2,0.4,0.1,1.2-0.2,1.5c-6,6-6.5,13.3-4.9,21.1c0,0.2,0,0.4,0,0.7
	c-1.6-0.7-3.2-1.2-4.7-2c-0.3-0.2-0.7-0.8-0.7-1.2c1.3-7.2,2.6-14.4,5.7-21.1C332,217.1,332.7,216.1,333.6,214.7z"/>
<path class="st7" d="M204.1,293.9c-0.8,6.8-3.9,12.4-8.7,17.5c-1.1-0.7-2.2-1.4-3.7-2.4c4-5.2,7.9-10.3,11.8-15.4
	C203.7,293.6,203.9,293.8,204.1,293.9z"/>
<path class="st0" d="M347.6,340.6c0.6-3.8,1.2-7.5,1.7-11.3c0.3,0,0.5,0.1,0.8,0.1c-0.6,3.8-1.2,7.5-1.8,11.3
	C348.1,340.7,347.9,340.6,347.6,340.6z"/>
<path class="st0" d="M177.5,351c1.6,1.3,2.8,2.3,4.3,3.5c-1.4,0.3-2.4,0.6-3.7,0.9C177.9,353.9,177.7,352.7,177.5,351z"/>
<path class="st12" d="M297.1,560.5c-1.1,4.7-1.9,9.6-3.4,14.2c-2.8,8.5-6.9,16.4-11.7,24c-0.8,1.3-1.7,1.8-3.2,1.4
	c-12.2-3.6-24.2-7.7-34.1-16.1c-3.1-2.6-5.6-5.8-7.3-9.5c-3.9-8.7,0.7-17.8,10-19.9c4.3-0.9,8.4-0.4,12,2c3.4,2.3,6.5,0.7,7.5-2.9
	c2.5-8.8,11.6-13.7,19.7-10.9c6.1,2.2,8.6,7.1,9.5,13.1c0.2,1.5,0.3,2.9,0.4,4.4C296.7,560.4,296.9,560.5,297.1,560.5z"/>
</svg>
