<?xml version="1.0" encoding="utf-8"?>
<!-- Generator: Adobe Illustrator 25.4.1, SVG Export Plug-In . SVG Version: 6.00 Build 0)  -->
<svg version="1.1" id="Capa_1" xmlns="http://www.w3.org/2000/svg" xmlns:xlink="http://www.w3.org/1999/xlink" x="0px" y="0px"
	 viewBox="0 0 595.3 841.9" style="enable-background:new 0 0 595.3 841.9;" xml:space="preserve">
<style type="text/css">
	.st0{fill:#D69DC6;}
	.st1{fill:#7C646F;}
	.st2{fill:#EAB8CD;}
	.st3{fill:#604950;}
	.st4{fill:#050506;}
	.st5{fill:#EDD3D9;}
	.st6{fill:#030304;}
	.st7{fill:#464248;}
	.st8{fill:#675E69;}
	.st9{fill:#E4D9E6;}
	.st10{fill:#B5559B;}
	.st11{fill:#D893C0;}
	.st12{fill:#DDDCDE;}
	.st13{fill:#E8D0D8;}
	.st14{fill:#D697C3;}
	.st15{fill:#A59A9E;}
	.st16{fill:#5F1845;}
	.st17{fill:#651945;}
	.st18{fill:#921A64;}
	.st19{fill:#901A63;}
	.st20{fill:#2B292D;}
	.st21{fill:#D1C6D5;}
	.st22{fill:#DFCBDC;}
	.st23{fill:#CF90BF;}
	.st24{fill:#6B3E62;}
	.st25{fill:#85697A;}
	.st26{fill:#E8D1DF;}
	.st27{fill:#631B48;}
	.st28{fill:#CE91C0;}
	.st29{fill:#981E71;}
	.st30{fill:#A73286;}
	.st31{fill:#51163F;}
	.st32{fill:#DCCCD4;}
	.st33{fill:#692556;}
</style>
<g>
	<path class="st0" d="M428.2,163.9c25.2-6.6,45.5-22.9,67.9-35.1c18.2-9.9,44.1-11.2,62.3,5.2c8.8,8,5.8,18.6,11.1,26.7
		c-1.1,23-12.4,38.8-33.3,48.1c-8.2,8.1-19.6,11-28.4,18.3c-5.7,4.7-11.9,8.7-16.2,14.9c0,1-0.2,1.9-0.4,2.9c-2.6,0.8-4-0.8-5.2-2.7
		c-12.3-24.3-25.9-47.6-47.9-65C433.9,173.9,427,171.7,428.2,163.9z"/>
	<path class="st1" d="M500.2,268.9c0,3,0.1,6,0.1,9c-5.7,5.3,0.2,16.1-11.8,19.6c-10,2.9-12.5,0.6-13.5-7.8c-1.6-12.2-5-24-8-35.8
		c1.1-7,5.6-10.9,12-13c7.9,2.5,9.1,11.4,15,15.8C496,260.8,498.1,264.8,500.2,268.9z"/>
	<path class="st2" d="M491.7,242.1c-1-5.5,0.5-9.7,5.8-12.4c13.1-6.6,24.6-16.2,38.8-20.8c-0.2,3.1-1,6.7-4,7.5
		c-12.5,3-20.4,12.1-28.6,20.7C500.3,240.6,496.4,242.2,491.7,242.1z"/>
	<path class="st3" d="M493.9,256.7c-10.8,1.8-8.1-10.7-14.5-13.7c2.3-4.1,5.4-3.4,8.6-1.4c1.1,1.1,2.2,2.2,3.2,3.3
		C492.1,248.9,496.2,252.1,493.9,256.7z"/>
	<path class="st4" d="M421.8,481.3c-28.8,14.7-60.4,27-69.4,62.8c-7.7,30.9-13.8,62.2-17.6,93.9c0.3,25.1-6.3,49.2-11.3,73.4
		c-1.1,5.1-4.2,9.5-9.9,9.8c-8.9,0.5-11.2-6.7-14-13.1c-8-30-17.4-59.7-19-91c-6.5-25.1-13-50.1-19.5-75.2c-4.2-4-1.9-11.2-7.1-14.7
		c-25.2-31-63.9-46.5-89.5-77.2c-4.1-4.9-8.9-9.3-11-15.6c-0.3-1.4-0.4-2.9-0.2-4.3c6.1-12.1,19.8-13.9,29.2-21.6
		c13.6-3.3,23.4-15.5,38.2-16.2c1.5,0.1,3,0.4,4.4,0.9c15.6,11.4,27.2,26.2,36.1,43.3c18.2,34.9,26.1,73.3,38.6,110.2
		c1.7,5,2.1,10.7,6.7,14.6c6-3.7,5.6-9.7,7-14.7c6-21.2,10.2-42.8,15.3-64.2c5.5-22.8,18.1-38.1,41.3-44.8
		c18.8-5.4,36.4-13.9,51.6-26.7c10.9-6.1,15.5-18.5,25.4-25.5c10.1-11.2,17.1-24.5,24.3-37.6c3.7-6.7,7.5-11.1,15-7
		c6.3,3.4,18.6,1.8,13.6,15.9c-1.9,5.3-0.7,11.8-2.5,17.5c-0.2,1.8-0.5,3.6-0.7,5.4c2.7,9.2-2.9,16.4-6.3,23.9
		c-12.9,29.4-33.7,52.6-58.1,72.9C429.4,479,426.2,481.5,421.8,481.3z"/>
	<path class="st5" d="M302.9,706.1c-7.2,3.8-8.6-2.3-9.2-6.5c-2.5-18.3-6.3-36.1-14.6-52.9c-2.4-4.9-0.7-11.8-0.9-17.8
		c0.4-4.1-1.1-8.5,2.5-12C288,646.8,295.4,676.5,302.9,706.1z"/>
	<path class="st6" d="M117.7,303.5c6.1-41.8,20.2-80.2,48.6-112.3c28.3-32,63.6-52.4,105.1-62.2c2.7-0.6,6.3,0.3,7.1-3.8
		c1.9,0.3,3.9,0.5,5.8,0.8c13.5,0.9,27,0,40.4,0.5c2.2,1,3.1,3.4,1.1,4.3c-21.7,10.1-30.5,28.9-35.1,50.8c-8.9,22.6-7,46.6-9.5,70.1
		c-6.3,16.9-24.1,19.5-36.4,28.9c-4.9,3.7-11.3,6.1-17.3,8.5c-4.2,1.5-8.7,1.9-13.1,1.5c-19.9-1.5-34,7.4-43.9,24
		c-2.9,4.3-4.4,9.6-8.2,13.4c-7.7,6.3-16.7,10.8-25.3,15.7c-12.6,7.1-15,5.9-19.2-8.4C117.7,324.7,117.9,314.1,117.7,303.5z"/>
	<path class="st7" d="M332.6,127.4c20.4-0.3,38.7,7,56.7,15.4c4.7,7.6,5.1,14.2-4.9,17.5c-19.5,6.4-20.8,10-9.9,28.7
		c0.7,1.2,1,2.5,1,3.9c-4,6.6-10.9,6.7-17.4,7.9c-10-11.5-22.3-18.9-37.3-22.8c-6.5-1.7-6.6-7.2-0.2-10.5c4-2.1,6.2-4.8,6.2-9.2
		c0.2-9-1.3-18.5,6.8-25.4c0.2-0.1-1.6-2.3-2-3.8C332,128.6,332.3,128,332.6,127.4z"/>
	<path class="st8" d="M373.7,191.1c-11.3-6.3-10.8-16.3-8.3-26.9c2.4-10.3,9.9-6.7,16.6-6.8c11.2-0.1,5.7-9.3,7.3-14.6
		c12.1,2.5,21.8,10.4,32.9,15c1,1.8,1.9,3.6,2.9,5.3c4.5,6.3-1,8.8-4.7,11.5c-6,4.3-12.6,7.5-19.6,9.8
		C390.9,183.5,380.4,179.5,373.7,191.1z"/>
	<path class="st9" d="M293.3,115.7c7.2-7.1,6.1-15.3,3-23.7c5.9,3.1,10.2,8,13.9,13.3c2.4,3.5,4.4,6.8,0.2,11.8
		c-5.1,6-6.4,0.6-9.7-0.9C298.7,115.1,295.8,115.7,293.3,115.7z"/>
	<path class="st7" d="M325.6,128.4c-13.7-2.4-27.9,3.2-41.4-2.4c16.1,0.2,32.4-4.4,48.4,1.4c0,0-0.8,1.2-0.8,1.2
		C329.6,129.8,327.6,130,325.6,128.4z"/>
	<path class="st9" d="M448.1,119.8c-1.2,3.1-3.3,4.8-6.7,4.5c-2.5-0.2-3.4-1.9-2.7-4.1c0.9-2.6,3.1-3.9,5.7-3.9
		C446.5,116.2,448.2,117.2,448.1,119.8z"/>
	<path class="st10" d="M397.9,183.3c8.7-7.2,21.6-8.6,27.1-20.1c1.1,0.2,2.1,0.5,3.2,0.7c6.6,5.8,13.3,11.5,19.8,17.5
		c18.2,16.8,32,36.6,40,60.3c-2.9,0.5-5.8,0.9-8.6,1.4c-4,3.6-8,7.2-12,10.7c-0.4,0.6-0.7,1.2-1.1,1.8c-5.7,3.4-13.3,4.4-14.5,13.1
		c-0.3,2.4-2.8,4.3-5.5,4.2c-2.8-0.1-5.2-2.1-4.8-4.7c1.2-8.2-3.1-2-5-2.1c-0.4-0.3-0.7-0.7-1.1-1c-5.5-5.3,2.4-14.1-7-20.2
		c-6.9-4.4-9.6-15.6-13.1-24.3c-3.5-8.7-10.4-15.5-14.3-24.1C399.1,192.2,394.1,188.8,397.9,183.3z"/>
	<path class="st11" d="M117.7,303.5c0.7,11.8,1.4,23.6,2.1,35.5c9.7,29.1,17.2,59,33.3,85.6c0.8,2,1,4.3,1.6,6.4
		c0.2,1,0.4,2,0.6,3.1c-6.3,5.4-14.1,7.9-21.2,11.9c-13.6-2.4-22.2,7.2-32,13.6c-17.2,11.2-35.2,15.7-54.5,6.6
		c-21.1-9.9-31.7-26-27.3-50.1c1.4-0.4,3.7-0.5,4.1-1.4c12.3-25.9,36.9-35.9,60.4-47.6c9.3-4.6,17.6-11.1,26.7-16.3
		c4.9-2.8,4.7-7,5-11.5C117.1,327.3,114.9,315.3,117.7,303.5z"/>
	<path class="st3" d="M497.5,374.3c1.1-7.4-2.2-14.3,0.1-22.4c1.6-5.7-10.1-5.4-15.3-9c-4.5-3.1-4.8,1.9-6.5,4.8
		c-8.2,14.1-15.2,29.2-26.6,41.2c-3.2-7.2-10.9-2.5-15.5-6c-0.7-7.5,6.1-10.9,9.2-16.3c5.8-10,15-19.1,6.7-32.4
		c-2.4-3.9,2.9-9.5-0.8-15.2c-10.9,2.7-22.1,2.8-32.8-2.9c-4.7-2.5-9-4.8-5.9-11.2c6.8-5.2,16.3,0.1,22.9-6c1.2-1.6,2.3-3.3,3.3-4.9
		c4-4.4,6.4-11.8,15.2-5.7c4.9,3.4,6.8-2.5,7.6-5.9c2.4-9.6,5.7-18.9,8-28.5c0,0,0.4,0,0.4,0c10.4,9.2,7.3,22.9,10.9,34.4
		c1.1,3.4-0.7,7.6,3.9,9.5c-4.9-12.7,15.6,2.9,11.1-10c-2-5.6,3.1-7.5,6.9-9.8C509.4,310.3,507.6,342.4,497.5,374.3z"/>
	<path class="st12" d="M134,445.9c4.1-9.3,12.2-11.4,21.2-11.9c17.3,22.9,39.1,40.7,63.1,56.1c14.7,9.4,27.9,20.8,35.7,37.1
		c-18.3-0.9-34.9-7.2-51.1-15.2c-27.1-13.4-51.9-30.9-79.6-43.3c-8.9-4-6.1-9.6-0.2-14.7C126.6,451,134.1,453.5,134,445.9z"/>
	<path class="st13" d="M425,412.4c-16.2,16.8-37.7,24-59,30.6c-17.8,5.5-27.3,16.8-31.4,34.2c-6.6,27.6-13.5,55.2-20.1,82.8
		c-1,4.3-0.8,9.4-7,9.7c-6.5,0.3-6.3-5.4-7.6-9.3c-12.2-36.8-20.5-74.9-36.3-110.6c-9.2-20.9-22.1-38.7-39.5-53.4
		c-1-16,12.7-25.5,30.9-21.4c22.1,14.8,28.8,38.4,35.5,62c3.4,12,5.7,24.2,9.4,36.1c0.8,2.7,1.6,6.3,5.6,5.8
		c2.8-0.4,3.6-3.2,4.4-5.5c2.9-9,5.2-18.2,7.7-27.3c4.6-16.2,15.3-25.2,31.4-28.1c21.6-3.9,43.2-7.4,63.2-17
		C421.9,398.7,428.2,400.2,425,412.4z"/>
	<path class="st14" d="M253.8,377.4c-14.8-1.9-24.7,4.4-29.8,19.1c-0.9-0.5-1.9-1.1-2.8-1.7c-4.3-2.5-8.9-4.6-11.6-9.1
		c-7.9-12.5-16.4-24.7-21.1-38.9c-2.3-6.9-4.5-10.5-13.6-7.4c-11.4,3.9-15.5-1.2-13.4-13.4c2.2-3.9,2.1-8.9,6-11.9
		c11.1,0.4,16.4-9.9,25.4-13.7c12.6-5.3,24.6-11.9,38.2-14.7c8.5-2.5,14.2,1.2,15.4,9.2c1.1,7.6-5.9,9.2-11.6,11.2
		c-16.3,5.7-16.2,5.7-8.5,21.7c6.1,12.6,13.2,24.5,22.7,34.7c2.4,3.5,4.9,7,6.3,11C255.4,375.1,254.9,376.3,253.8,377.4z"/>
	<path class="st15" d="M425,412.4c-0.7-7.5-3.9-11.6-12-8.7c3.5-10.7,11.9-16.3,21.3-21c6.1-0.6,14.8-7.6,15,6.1
		C440.5,396.1,434.9,406.4,425,412.4z"/>
	<path class="st16" d="M213,385.9c2.7,3,5.5,5.9,8.2,8.9c-14.4,1.4-23.2,16-38.2,15.8c-1.3-0.8-2.1-1.9-2.3-3.5
		C187.1,393.5,199.8,389.3,213,385.9z"/>
	<path class="st17" d="M154.6,430.9c-0.9-1.1-1.7-2.3-2.6-3.4c-0.1-12.5,14.3-21.3,29.7-18c0.4,0.4,0.8,0.7,1.2,1.1
		C176.2,421.1,161.9,421,154.6,430.9z"/>
	<path class="st18" d="M181.8,409.5c-11.5,3.4-24.4,4.3-29.7,18c-18.2-26.8-29.5-56.1-32.3-88.6c2.8,6,7.3,7.5,12.5,3.5
		c9-7,19.4-11.1,29.2-16.5c2.9,14.4,5.7,15.7,16.8,7.8c3.3-2.3,7.8-8.3,9.6-0.2c4.4,19.5,17.1,34.7,25.1,52.3
		C204.7,396.6,187.7,395.8,181.8,409.5z"/>
	<path class="st19" d="M248.1,365.8c-15.5-12.8-22.4-31.1-30.9-48.4c-2.9-5.9-1.5-10.7,5.7-12.4c2.9-0.7,5.8-1.4,8.6-2.4
		c4.7-1.7,12.9,0.3,12-7.8c-0.8-6.9-6.9-9-13.7-8c-1.3,1.3-2.3,1.1-3.2-0.5c16.8-11.1,36.5-17.7,50.9-32.4c0.7,0.6,1.4,1.1,2.1,1.6
		c2.6,30.9,10.7,61.2,10,92.5c-6.1,7.7-13.7,13.3-23.2,16.3C260.4,365.8,254.3,366.5,248.1,365.8z"/>
	<path class="st20" d="M325.6,128.4c2.1,0.1,4.1,0.2,6.2,0.2c3.2,3.4,10.5,1.1,11.5,9.3c-10.3-1-15.7,0.9-12.2,14
		c1.9,7.1,2.6,20.1-12.6,19.4c1.6,6,6,4.3,8.9,5.1c13.8,3.7,25.3,10.2,31.9,23.4c2.3,6.9-1.8,10.9-7.3,11.6
		c-10.2,1.3-16,8.5-23,14.3c-1.8,1.3-3.7,2.2-6,1.9c-2.1-0.8-3.6-2.3-4.7-4.2c-3.6-8.5-6.4-17.3-10.4-25.8
		c-4.4-9.3-9.8-16.7-20.6-18.6c1.1-4.2,2.5-8.4,3.4-12.7C294.9,146.9,306.2,133.9,325.6,128.4z"/>
	<path class="st21" d="M287.4,179.2c9.3-4.2,15.1,0.2,19.3,8.1c6.1,11.3,10.9,23.1,13.8,35.7c0.8,1.8,2.1,4.5,0.7,5.5
		c-13.4,9.7-24.6,23-42.3,25.6c0,0-1.3-0.2-1.3-0.2C279,228.7,277.2,203.2,287.4,179.2z"/>
	<path class="st22" d="M226.7,286.3c1.1,0.2,2.1,0.3,3.2,0.5c-19.9,9.1-40,17.7-57.1,31.8c-8.3,6.8-3.8-2.7-5.4-4.6
		c9-17.6,22.4-28.1,43-27.4C215.8,286.8,221.3,286.4,226.7,286.3z"/>
	<path class="st23" d="M397.9,183.3c12,20.6,23.1,41.7,34.7,62.5c4,7.2,1,14.3,4.8,20.4c0.7,1.4,0.5,2.6-0.5,3.7
		c-8.6,5.3-17.7,9.9-22.5,19.6c-1.1,1-2.4,1.4-3.9,1.4c-2.9-1-4.9-3.1-6.8-5.4c-15.6-27.2-24-57-30.8-87.3c-0.1-1.5,0.1-2.9,0.5-4.3
		c0.5-0.9,0.6-1.8,0.2-2.8C378,174.7,380.4,174,397.9,183.3z"/>
	<path class="st24" d="M373.5,193.9c0.3,1.4,0.6,2.7,1,4.1c3.5,6.5-2.9,5.1-5,7.6c-8.3,9.9-17.1,17.7-30.2,20
		c-4.6,1.7-9.5,4.8-13-1.7c7.2-7.5,13.8-15.5,25.8-15.6c4.4,0,5.3-5.1,7.2-8.4C362,192.8,369,196.3,373.5,193.9z"/>
	<path class="st25" d="M437.2,269.6c0.1-1.1,0.2-2.2,0.3-3.4c1.3-2,2.5-4,4.2-6.7c3.2,2.7-0.1,8.5,5.5,11.1
		c1.3-11.8,7.8-18,19.8-16.8c2.7,7.6-3.5,34.5-9.2,38.8c-2.3,1.8-7,4.4-7.8,2.3c-5.9-15.9-8.2,1.4-12.1,1.1
		C430.8,287.4,431.4,278.6,437.2,269.6z"/>
	<path class="st4" d="M265.9,361.7c8.6-1.5,12.5-11.5,21.7-11.8c1.3-0.7,2.6-0.6,3.7,0.4c3.8,5.2,3.1,12.3,8.2,18.6
		c3.4-7.1,3.1-14.2,4.6-20.8c0.4-3.6,0.7-7.2,2.9-10.4c21.9-5.9,38.8-22,60-29.3c2.5-0.8,3.4-3.5,4.9-5.5c0.9-1.2,1.9-2.2,3.2-2.9
		c6.9-2.2,14-3.1,21.2-3c4.7,1.4,6.5,7.7,12.4,7.1c0.5,0.3,1.1,0.6,1.6,0.9c5.7,9.5,25.6,16.7,35,12.6c3.9-1.7,12.7,3.6,10.9,5.9
		c-8.1,10.1,6.2,19.6-0.9,30.4c-6.6,10-13.4,19.6-20.9,28.8c-4.9,9.2-13.8,14.4-21.3,21c-18.5,10.8-38.9,14.8-59.8,17.3
		c-19.1,2.2-30.6,12.3-33.8,31.8c-1.4,8.3-4.1,16.5-6.5,24.6c-1.2,4.1-1.4,9.7-7.5,9.7c-6.3,0-7.7-4.9-9-10.1
		c-4.3-17.4-9-34.7-13.5-52.1c-4.9-18.8-13.6-35.2-29-47.5c0.1-1.1,0.2-2.1,0.3-3.2C253.1,365.3,263,366.8,265.9,361.7z"/>
	<path class="st26" d="M437.2,269.6c0.3,8.8,0.5,17.6,0.8,26.5c-0.3,2-0.5,3.9-0.8,5.9c-11.8,3.3-20.5,0.3-24.5-12.1
		C414.4,275.3,424.8,271.2,437.2,269.6z"/>
	<path class="st25" d="M412.6,289.8c7.7,4.9,13.4,14.1,24.5,12.1c-8.3,6.9-17.9,2.2-26.9,3.1c0,0-0.1-0.1-0.1-0.1
		c-4.3-5.1-4.1-10.2,0.1-15.2C411.1,289.8,411.8,289.8,412.6,289.8z"/>
	<path class="st27" d="M265.9,361.7c0.4,8.2-9.1,7.1-11.8,12.4c-3-2.1-5.2-4.8-6.1-8.4C252.9,359.4,260,362.9,265.9,361.7z"/>
	<path class="st28" d="M309.3,338.4c-0.5,3.8-1,7.6-1.5,11.4c-6,0.6-11.9,4.1-18.1,1.2c-0.8-0.2-1.5-0.5-2.1-1.1
		c-3.1-23.5-6.6-47-9.2-70.6c-0.9-8.3,0.2-16.8,0.5-25.2c12.4-7,22.1-18.2,35.8-23.2c3.6-1.3,5.5-4.1,5.8-8c1.1,1.2,2.2,2.4,3.3,3.6
		c19.9,26.2,18.8,71.6-2.3,96.4C317.4,328,313.3,333.2,309.3,338.4z"/>
	<path class="st29" d="M316.3,322.9c23.8-21.6,20.5-47.6,12.2-74.5c-2.2-7.1-3.1-14.5-4.7-21.8c0.8-0.9,1.7-1.8,2.5-2.7
		c4,3.1,7.8,0.2,11.7-0.3c3.3,0.5-1.4,12.5,8.8,5.1c5.5-4,16.9-0.1,16.7,8.9c-0.2,10.2,18.4,20.4,2.1,30.5c13.5,0,14.6,1.8,7.4,15.7
		c8.4-4.4,16.9-9.1,17.8,6.4c-1.8,9.2-11.5,7.4-16.6,12l0.2,0.3c-14.5,7.4-27,18.7-43.3,22.9C325.8,326.5,320.6,328.4,316.3,322.9z"
		/>
	<path class="st30" d="M389.3,289.7c-1.5-8.1-5-10.9-11.8-4.5c-3.9,3.7-7.8,6.2-14,2.7c2.2-5.5,9.7-6.4,11-12.2
		c0.3-1.3,0.8-3.1,0.3-4c-0.6-1-2.5-1.8-3.7-1.6c-9.4,1.5-9.4,1.5-16.3-5.3c1.9-2.1,4.4-2.1,6.8-1.7c2.8,0.4,6.1,2.5,7.9-1.2
		c2.1-4.3-2.1-4.4-4.5-5.8c-2.6-1.4-1.9-3.9-2.3-6.4c-1.1-7.5-0.4-16-10.6-19c-11.1-3.2-10.2,8.5-16.5,12.5
		c-6.6-7.7,6.3-13,2.3-19.9c1.9-4,5.4-4.8,9.5-5.8c11.5-2.8,18.6-12.2,26.9-19.7c4.7,13.3,11,26.3,13.7,39.9
		c3.3,16.9,13.2,30.8,18.5,46.7c-0.6,5.4-3.8,8-9.1,8.3C394.4,293,391.4,292.5,389.3,289.7z"/>
	<path class="st3" d="M398.4,290.5c2.8-2,5.5-3.9,8.3-5.9c1.2,1.7,2.4,3.4,3.7,5.2c0,5.1-0.1,10.1-0.1,15.2
		c-2.6,1.1-3.1,6.4-6.6,4.6c-4.2-2.2-5.1-6.9-4.9-11.5C397,295.6,396.9,293.1,398.4,290.5z"/>
	<path class="st31" d="M316.3,322.9c17.2,2.1,30.3-7.5,43.3-16.2c5-3.3,9.3-5,14.9-4.5c-0.8,4,1.5,10.6-4.5,10.9
		c-16.4,0.7-27,12.8-40.1,19.6c-6.9,3.6-13.2,5.4-20.5,5.7C306.6,331,314.9,328.5,316.3,322.9z"/>
	<path class="st32" d="M289.7,351c6.2,1.4,11.4-11.2,18.1-1.2c-0.7,6.8-1.4,13.5-2.1,20.3c-0.3,3.1-1,6.2-4.7,6.5
		c-3.7,0.3-5.1-2.5-5.9-5.5C293.3,364.4,291.5,357.7,289.7,351z"/>
	<path class="st33" d="M398.4,290.5c2.3,2.5,1.8,5,0.3,7.6c-7.8,3.4-15.9,4.4-24.3,3.9c0.8-9.2,13-4.5,15-12.2
		C392.4,290,395.4,290.2,398.4,290.5z"/>
</g>
</svg>
