<?xml version="1.0" encoding="utf-8"?>
<!-- Generator: Adobe Illustrator 25.4.1, SVG Export Plug-In . SVG Version: 6.00 Build 0)  -->
<svg version="1.1" id="Capa_1" xmlns="http://www.w3.org/2000/svg" xmlns:xlink="http://www.w3.org/1999/xlink" x="0px" y="0px"
	 viewBox="0 0 595.3 841.9" style="enable-background:new 0 0 595.3 841.9;" xml:space="preserve">
<style type="text/css">
	.st0{fill:#FFFFFF;}
	.st1{fill:#FDFDFD;}
	.st2{fill:#D9A9CE;}
</style>
<g>
	<path class="st0" d="M111.2,326.4c-5.5,7.4-11.6,11.8-19.3,14c-7.7,2.2-14.5,0.5-21-3.5c-2.1-1.3-3-3.2-2.7-5.6
		c0.3-2.3,2.1-3.2,4.1-4c15.2-5.4,17.7-10,13.7-25.8c-2.2-9-5.9-17.9-2.9-27.5c0.7-2.3-1.2-3.7-2.5-5.1c-3.6-3.7-7.2-7.4-9.5-12.1
		c-4.1-8.1-5-16.5-1.8-25.1c3.6-9.6,4.2-19.1,2.3-29.2c-1.5-7.7-0.3-15.4,3.5-22.4c4.2-7.6,10.1-12.5,19.2-12.7
		c3.3-0.1,5.1-0.6,4-4.7c-1.1-3.9-0.8-8-0.2-12.1c0.2-1.2,0.8-2.7-0.8-3.3c-1.6-0.6-2.2,1-2.9,1.9c-2.7,3.3-3.8,7.5-5.8,11.2
		c-1.3,2.4-2.5,5.2-6,4.9c-3.9-0.4-4.3-3.6-4.8-6.5c-1.2-7.6-2-15.3-1.4-23.1c1.1-13.8,9.4-23.1,20.1-30.7c2.2-1.6,4.7-2.9,7.1-4.2
		c9.7-5,15.7-12.7,18.6-23.3c4.7-17.4,14-24.3,32.3-24.7c1.8,0,3.4,0.4,4.2-2.2c6.9-22.8,21.2-31.1,44.8-26.6c5.1,1,10,2.3,14.8,4.3
		c2.7,1.1,4.3,0.6,5.7-2.1C234,6.8,268.2-4.7,289.5,10.5c7.7,5.5,16.1,6.2,25.2,3.2c10.8-3.6,21.5-7.7,33.3-6.4
		c7.1,0.7,13.8,2.4,19.3,7.1c1.5,1.2,2.8,1.4,4.5,0.9c11.3-2.9,20.6,1.3,28.6,8.7c4.1,3.8,7.9,8.3,11,13c6,8.8,14.2,12.5,24.6,13.3
		c16.3,1.3,27.9,10.4,33.9,25.2c2.2,5.4,4.8,8.1,9.8,10.5c16.3,7.7,24.4,23.5,21.8,41.2c-0.8,5.8-1.5,11.7-3,17.4
		c-2.6,9.7,1,16.8,8,22.9c5.7,4.9,12.4,8.6,17.4,14.4c7.3,8.3,9.7,17.9,7.2,28.7c-1.6,7.2-4.1,14.1-7.4,20.7
		c-2.9,5.9-3.4,11.3,0.6,17.5c7.2,11.3,5.2,22.8-1.7,33.7c-1.3,2.1-3.1,3.8-5.8,3.4c-2.8-0.4-3.9-2.5-4.6-4.9
		c-1.4-4.8-3.3-9.4-7.1-12.9c-1.4-1.3-2.9-3.6-5-2.6c-2.3,1.1-1.1,3.6-0.8,5.5c0.7,4.8,3.1,9,5.4,13.2c8.5,15.8,3.4,35.5-12,44.8
		c-4.9,3-10.1,5.3-15,8.1c-9.9,5.4-11.3,15.3-3.2,23.1c5.4,5.3,9,11.6,11.1,18.7c4.3,14.1-2.5,27.3-16.4,32c-2.7,0.9-5.5,1.4-7.7-1
		c-2.3-2.5-1.3-4.9,0.2-7.5c2.5-4.3,1.7-9-0.3-13.2c-2.6-5.6-7-9.8-11.9-13.5c-2.7-2.1-4.5-1.8-5.8,1.5c-1.5,3.7-3.1,7.4-4.7,11.2
		c-2.4,5.8-5.2,11.4-9,16.4c-4.4,5.8-10.2,9.1-17.7,6.9c-3.9-1.2-5.1,0.3-5.8,3.9c-2.1,11.2-4,22.4-6.7,33.5
		c-2.3,9.6-6.4,18.3-13.4,25.5c-0.9,0.9-1.8,2.1-1.9,3.2c-0.6,14.5-3.8,28.8-1.1,43.4c3.5,18.4,15,31.6,28.3,43.5
		c24.1,21.7,50.6,40.1,79.6,54.9c9.5,4.8,18.7,10.2,28,15.4c5.4,3.1,6.4,6.4,3.3,11.8c-1.4,2.4-3.1,4.5-4.8,6.7
		c-4.4,6.1-9.5,11.7-12.5,18.7c-3,7-8.9,11.6-14.2,16.7c-9.2,8.7-18.6,17.2-27,26.7c-10,11.4-24.1,15-38,18.5
		c-13.5,3.5-25.8,8.4-34.9,19.5c-3.9,4.8-9.3,5.1-14.6,3.4c-4.6-1.4-8.6-0.6-12.5,1.9c-2,1.3-4.3,2.3-6,4
		c-10.8,10.7-24.5,13.1-38.8,13.5c-3.5,0.1-7.1,0.4-9.9,2.7c-11.7,9.4-25.8,10.8-39.9,12.6c-12.4,1.6-23.7,6.1-33.9,13.2
		c-4.8,3.4-9.9,6.2-15.3,8.7c-7.8,3.7-15.7,4.9-23.9,1.3c-4.7-2-9.4-1.1-13.8,1.2c-7.9,4-15.5,4.7-23.6,0.3
		c-4.5-2.4-9.4-4.1-14.5-5.1c-7.7-1.5-13.6-6.5-19.1-11.5c-33.1-30.4-60.7-65.3-84.5-103.3c-4.1-6.6-3.5-9.2,3.3-13.5
		c9.2-5.8,18.6-11.1,27.8-16.8c26.5-16.4,51-35.3,73.9-56.4c3.2-3,4.6-6.2,4.5-10.6c-0.8-42.4-0.9-84.9-3.4-127.3
		c-0.4-7.1-1.7-12.8-6.1-19c-8.3-11.6-9-25.8-8.8-39.7c0.1-8.4,0.5-16.9,1.1-25.3c0.2-3.5-0.3-5.1-4.3-5.8
		c-9.5-1.6-13.2-9-15.2-17.5c-1.5-6.5-0.9-13.2-0.6-19.8C113.1,339.3,113.2,333.5,111.2,326.4z M142.5,109.1
		c15.6-0.8,29,4.3,39,16.2c7.2,8.5,14.9,8.1,23.5,4.1c10-4.7,20.2-4.8,30.7-2.9c4.9,0.9,9.7,2,14.6,2.6c12.4,1.7,22.3-3.3,29.9-12.7
		c5.4-6.7,4.5-18-1.4-24.3c-4.2-4.5-13.3-7-18.3-4.6c-7.3,3.4-14.5,6.9-21.5,10.9c-19.9,11.2-39.7,12.8-59.9,0.5
		c-14-8.5-27.3-3.1-36.6,10.3c-0.2,0.1-0.4,0.2-0.6,0.4c0.1,0.1,0.3,0.2,0.4,0.2C142.4,109.5,142.5,109.3,142.5,109.1z M150.6,618.5
		c-2.4,1.9-3.5,2.8-4.6,3.7c-28.2,25.8-59.2,47.5-92.8,65.8c-4.1,2.2-4.5,4-2.2,7.8c10.7,17.4,23.7,33.2,36.1,49.3
		c13.4,17.5,28.8,33.3,44.9,48.4c3.8,3.6,7,4.2,12.1,2.1c14.7-6.2,29.4-12.4,44.7-17.2c4.6-1.4,8.9-1.4,13.5,0.1
		c7.9,2.7,15.1,6.7,22.2,10.9c5.9,3.5,11.5,3.7,17.7,0.6c9.6-4.7,19.8-7.3,30.5-8.8c7.7-1,16.2-0.1,22.8-5.1
		c9.7-7.5,20.6-10.1,32.5-9.8c4,0.1,6.5-1.5,8.8-4.5c7-9,14.1-17.9,21.1-26.8c5.4-6.8,12-11.5,20.5-14.2
		c27.2-8.6,52.4-21.4,74.6-39.3c9.6-7.7,19.6-12.5,31.8-13.1c7.4-0.3,13.3-3.3,17.4-9.9c2.3-3.7,5.1-7.2,8.1-10.4
		c3.5-3.7,2.7-5.4-1.6-7.9c-23-13-47-24.1-68.3-40.1c-16.9-12.7-33.9-25.2-48-41.1c-11.9-13.5-19.4-28.8-19.7-47.2
		c-0.1-6.8,0.5-13.6,1-20.3c0.1-1.2,0.8-2.8-0.4-3.6c-1.5-1-2.2,0.8-3.1,1.5c-5,3.7-9.8,7.8-15,11.3c-12,8.1-24.6,15.4-39.3,15.9
		c-8.5,0.3-16.2,1.4-24.1,4.7c-14.2,5.9-29.3,3.8-44.1,2c-7.6-0.9-14.4-3.7-21.1-7.5c-5.4-3.2-9.5-8.8-15.4-10.5
		c-18.5-5.1-32.9-16.7-47.2-28.5c-2.4-2-4.5-4.7-8-5.6c-0.2,11.2,1.6,21.9,1.9,32.8c1.4,51.8,3.4,103.6,0.5,155.4
		c-0.2,2.7-1,4.8-3.7,5.4c-3.1,0.6-4.8-1.4-5.6-4.1c-1.1-4-0.6-8-0.3-12.1C149.3,639,149.9,629.5,150.6,618.5z M309.7,507.6
		c10,0,18.5-2.7,26.5-6.8c12.7-6.5,23.4-15.7,34.4-24.6c13.4-10.7,19.9-24.3,22.5-40.8c2.7-17,5.1-34.3,13.4-49.8
		c4.5-8.4,10.1-16.2,14.5-24.6c2.8-5.4,6.1-11,5.1-17.6c-1.7-12.3-1-24.2,5.8-35.1c0.9-1.4,1-2.6,0.2-4c-6.4-10.8-5-21.8-0.6-32.8
		c2.6-6.5,4.6-13.2,6.1-20c2.7-12.5-1.6-21.9-12.1-28.9c-1.7-1.1-3.3-2.3-5-3.4c-17.1-11.8-22.6-28.6-19.3-48.1
		c1.1-6.3-0.5-8-5.6-10.2c-11.4-4.9-21.9-11.6-28.4-22.6c-2-3.4-3.6-3.8-7.2-3.1c-24.4,4.6-45.2-3.6-63.6-19
		c-2.6-2.2-3.3-3.7-5.4,0.6c-7.9,16-26.8,25-44.3,21.7c-14.1-2.7-28.1-6.4-42,1.3c-2.8,1.5-4.7,2.8-5.7,5.8
		c-2.3,6.8-6.3,12.5-12.5,16.3c-2.4,1.5-2.9,3.2-3.1,5.8c-0.8,12.8-4.1,24.6-13.7,33.9c-1.1,1.1-1.8,2.2-2,3.8
		c-1.1,10-5.4,18.7-10.9,26.8c-16.3,24.1-23.3,50-19,79.4c5,33.9,6.3,68,3.5,102.2c-0.5,5.9,0.2,11.8,1.2,17.6
		c1.5,8.6,4.5,16.2,10.8,22.9c11.1,11.9,23.9,21.7,36.9,31.2c3.3,2.4,6.7,4.8,11.4,6.2c-1.1-4-2.1-7.2-2.8-10.6
		c-0.6-2.6,0.1-4.8,2.8-5.8c2.9-1,4.5,0.8,5.6,3.1c0.6,1.3,0.9,2.8,1.4,4.2c1.7,5,3.4,10.1,7.5,13.9c12.6,11.7,26.9,19.1,44.5,18.7
		c4-0.1,8.1,0.4,12.1,0.2c14.3-0.5,26.6-4.3,31.5-19.8c0.2-0.5,0.4-1,0.7-1.5c1.6-2.5,3.5-4.5,6.7-2.9c2.8,1.4,3.1,3.9,2,6.6
		C312.8,500.6,311.4,503.6,309.7,507.6z M436.4,112.8c5.8,1.1,9.8-1.6,13.8-3.9c12.8-7.3,16.2-25.9,6.9-37.2
		c-6.1-7.5-13.9-11.7-23.7-12.1c-11.7-0.5-21.1-5.4-28.1-15c-3.3-4.6-7-9-10.9-13.2c-7.7-8.2-17.4-9.4-26.9-3.6
		c-3.6,2.2-6.8,4.9-10.1,7.6c-14.6,11.9-29.4,23.3-49.1,25.5c-3.5,0.4-7.7-0.6-9.8,4.3c-1.5,3.6-5.1,6.2-5.7,10.5
		c-1.5,11,0.4,21.1,7.6,30c8.4,10.5,20.3,14.8,32.4,18.6c17.5,5.4,33.3,1.7,47.4-9.9c6.1-5.1,9.9-11.7,13-18.8
		c4.9-11.5,13.3-18.6,26-20.2c10.5-1.3,18.9,3.5,22.6,13.4C445.3,97.7,443.2,105.6,436.4,112.8z M487.1,183.8
		c0.8-2.6,1.3-4.2,1.8-5.7c5-17.6,1.1-25.4-15.7-33c-10.3-4.7-20.1-10.3-23.8-22.2c-0.7-2.4-2.1-2-3.8-1.4
		c-5.2,1.7-10.6,1.5-15.8,0.1c-4.2-1.1-10.2,0.1-11.3-5.9c-1.3-6.4,5-6.7,8.7-8.9c6-3.7,7.9-8.1,5.7-14.3c-2.4-6.7-8.4-8.9-16.8-6.6
		c-8.3,2.3-11.8,8.8-14.8,15.8c-4.9,11.4-12.7,20.3-23.3,26.3c-4.4,2.5-3.8,4.3-1.2,7.3c10.2,12,23.4,19,38.5,21.9
		c11.9,2.3,24.1,2.5,36,4.7C465.3,164.6,476.8,172.4,487.1,183.8z M168,52.8c-0.1,6.1,1.1,6.9,6.4,4.5c12.8-5.7,25-5.2,36.1,4
		c4.8,4,9.2,8.5,14.1,12.2c8.2,6.2,17.8,9.8,27.8,6.4c9.2-3.1,17.8-4.2,26.5,0.7c2.7,1.5,3.9,1.2,3.9-2.2c0.1-5.5,2-10.3,4.9-14.9
		c5.2-8.4,2.9-18.3-5.3-23.9c-10.2-6.9-20.7-5.8-31.5-1.7c-11.3,4.3-22.5,4.5-33.8-0.1c-10.3-4.1-21-6.8-32.2-4.4
		C175.5,35.7,168.2,44.1,168,52.8z M473.1,396.7c4.1-3.5,4.8-7.2,4.1-11.5c-1.2-7.4-4.3-13.7-9.8-18.6c-13.4-11.9-7.6-31.3,5.7-37.8
		c4.4-2.2,8.9-4.5,13.2-6.9c12.7-7.1,16.7-21.2,10-34.1c-3.3-6.2-7.2-12.6-6.1-19.7c1-6.2-1.2-8.5-6.6-9.3c-0.9-0.1-1.7-0.6-2.6-1
		c-8.4-3.6-8.4-3.6-14.4,3.7c-0.2,0.3-0.5,0.6-0.7,0.9c-11.3,13.7-9.3,30.9,4.9,41.5c2.4,1.8,5.3,3.2,4.3,6.8
		c-1,3.5-4.3,4.1-7.1,4.2c-8.2,0.5-16.6,1.6-24.4-2c-2.7-1.2-3.8-0.5-5,2c-2.2,4.8-3.2,9.9-3.3,15c-0.3,14.4,3.3,27.3,16.4,35.7
		C462.9,373,471.5,381.9,473.1,396.7z M458.3,305.1c-5.1-7.5-9.3-15.3-9.2-24.7c0.2-11.8,6.1-20.9,13.9-29c2.7-2.7,3.9-4.9,0.5-8.1
		c-1.9-1.8-3.1-4.5-4.4-6.9c-5.1-9.6-4.8-20.2-5.2-30.6c-0.4-10.9-2-21.5-6.7-31.5c-1.1-2.3-2.3-4-5.2-4.1c-9-0.2-17.9-1.9-26.8-3.2
		c-2.7-0.4-3.8,0.8-4.2,3c-2.5,14.1-0.9,27.2,10.3,37.5c3.3,3.1,7.4,5.4,11,8.2c11.3,8.6,17.5,19.4,15.2,34.2
		c-1.2,7.9-3.1,15.5-6.1,22.8c-1.9,4.6-3.4,9.3-3.9,14.3C436.4,299.6,445.7,308,458.3,305.1z M91.1,329.4
		c9.3-2.1,14.8-10.1,14.6-20.8c-0.1-6.4-0.7-12.8,0.3-19.2c1.9-12.5,8.5-20.9,21-24c2.6-0.7,4-1.8,4.8-4.4
		c3.6-10.9,9.2-20.7,15-30.5c3.7-6.3,7.8-12.4,10.2-19.5c1-3,0.9-4.4-2.9-4c-7.8,0.8-15.7,1-23.6,1.8c-13.9,1.4-21.6,11.7-19.4,25.4
		c1.6,10.2-0.3,19.8-7.7,27c-10.4,10.2-14.2,20.9-8.7,35.2C98.9,307.4,99.5,319,91.1,329.4z M132.7,163.5c-2.3,0.1-5.2,0.1-8.1,0.6
		c-11.2,1.7-21.8,11.9-22.6,21.8c-0.6,7.2,0.5,14.3,2.5,21.2c0.9,3.2,1.8,4.4,4.9,1.4c5.8-5.8,13-8.8,21.2-9.4
		c8-0.6,16.1-1.2,24.2-1.7c5.1-0.3,9.1-2.5,11.9-6.8c4.3-6.6,6.4-13.9,7.7-21.6c0.4-2.2-0.4-3.1-2.6-2.9
		C158.9,166.9,146.3,164.2,132.7,163.5z M86,144.3c1.6-1.9,2.6-3.1,3.6-4.2c3.8-4.6,8.6-7.3,14.6-7.9c5.6-0.5,10.4,1.8,15.1,4.4
		c11.7,6.4,25.7,1.1,30.4-11.3c0.7-1.8,1.2-3.7,0.1-5.3c-1.3-1.7-3.4-1-5.1-0.5c-4.6,1.2-9.2,2.7-12.5,6.4c-1.6,1.8-3.7,2.4-6,1.3
		c-2.4-1.2-2.6-3.4-2.5-5.6c0.1-1.9,0.9-3.5,1.7-5.2c2.9-5.6,6.3-11,11-15c10.2-8.7,19.6-17.8,23.5-31.1c0.1-0.2,0.2-0.3,0.3-0.5
		c2.8-4.8,1.4-7.4-4.4-7.8c-12.3-0.9-21.3,4.9-24.2,16.9c-3.5,14.4-11.7,24.6-24.8,31.1c-4.5,2.2-8.4,5.2-11.9,8.8
		C88,125.5,84.6,133.5,86,144.3z M360,20.7c-7.4-4.1-14.6-5.1-22-3.6c-6.3,1.3-12.5,2.9-18.5,5.1c-13.3,4.9-25.4,2.9-37.1-4.9
		c-15.9-10.5-39.4-1.5-48.6,10.4c-0.7,0.9-2.2,1.9-1.3,3.3c0.8,1.2,2.4,0.6,3.6,0.5c5.4-0.2,10.3-2.2,15.4-4
		c20.9-7.7,45.5,3.1,47.6,21.8c0.2,2.2,1.3,2.9,3.3,2.5c9-1.5,18.1-2.6,26.2-7.6C339.6,37.6,349.5,29.4,360,20.7z M458.1,174.7
		c1.2,5,2.3,10,3.5,14.9c2.3,10.3,0.9,20.9,2.5,31.3c2.3,15.4,11,25.4,25.5,30.2c11,3.7,22.3,6.6,28.5,18.2
		c1.1-4.6,1.4-8.6-0.4-12.9c-3-7-8.3-12-13.6-17.1c-10.1-9.6-17.3-21.1-19.3-35C482.8,191.3,471.8,178.3,458.1,174.7z M487.4,678.2
		c-10.1,0.6-18.8,2.4-25.9,9.4c-4,3.9-8.9,7-13.6,10.2c-21.5,14.8-44.9,25.6-69.6,33.8c-6.8,2.2-15.9,11.6-18.5,18.5
		c9-3.7,9-3.8,19.6-2c2.8,0.5,4.6-0.5,6.2-2.5c9.6-11.2,22.4-16.7,36.3-20.4c13.6-3.5,27.7-6.6,37.3-18.4
		c6.8-8.3,14.9-15.2,22.7-22.4C483.7,682.7,485.9,681.3,487.4,678.2z M235.2,88.6c-10.9-1.4-17.7-8.5-25-14.8
		c-1.5-1.3-3.1-2.6-4.5-4C192,56.1,170,65.1,164.2,82.2c-0.6,1.7-0.8,2.8,1.5,2.9c8.6,0.2,15.7,4.2,23.1,8.1
		C202.6,100.6,223.4,98.6,235.2,88.6z M76.7,242.2c0.6,4.9,1.8,9.6,5,13.7c6,7.7,5.7,7.6,12.4,1.2c7-6.6,8.8-14.4,6.9-23.5
		c-0.6-2.7-0.9-5.5-0.6-8.2c0.4-3.5-0.8-6.4-2.3-9.4c-5.5-10.8-7-22.2-5.4-34.2c0.2-1.4,2-3.3,0.1-4.4c-1.5-0.9-3.2,0.4-4.5,1.4
		c-1.4,1.1-2.7,2.5-3.7,4c-4.6,6.5-4.8,13.8-3.3,21.1c1.9,9.3,1.2,18.2-1.8,27.1C78.3,234.6,76.9,238.2,76.7,242.2z M165.6,156.5
		c2.4,0,4.8,0.2,7.1,0c7.5-0.8,13-4.5,16.4-11.2c1-2,1.1-3.3-1.6-3.9c-4.2-1-7.3-4-10.3-6.9c-3.9-3.8-8.2-7.3-12.5-10.7
		c-2.7-2.2-4.4-2.8-5.5,1.9c-4.3,18.6-25.8,28.8-42.4,20.6c-7.2-3.6-8.7-2.8-9.7,5.2c-0.2,1.8-0.1,3.7-0.2,5.5
		c-0.1,2.7,0.2,4.4,3.5,2.3c6.7-4.3,14.3-5.1,22.2-5.1C143.7,154.1,154.5,156.3,165.6,156.5z M494.3,199.8
		c-0.2,11.8,6,20.8,13.1,29.3c4.4,5.3,4.7,5.1,7.6-1.4c1-2.3,2.3-4.6,3.1-7c2.2-6.9,5.5-13.6,4.2-21.3c-2-12.3-12.6-16.9-20.7-23.8
		c-1.7-1.4-2.1,0.5-2.4,1.7C497.2,184.6,494.1,191.8,494.3,199.8z M492.5,123.9c0.2-14.3-5.7-23.8-16.7-29.4c-3-1.5-4.8-1.9-5.6,2.2
		c-1.3,5.9-4.5,10.8-8.6,15.1c-4.6,4.9-4.8,8-0.6,13.4c1.8,2.3,4.1,4.1,6.5,5.9c6.1,4.6,13.9,5.8,19.9,10.4c1.9,1.5,2.5,0.3,2.7-1.5
		C491,134.1,491.9,128.1,492.5,123.9z M122.7,347.6c0,4.4-0.3,8.8,0.1,13.2c0.4,4.4,1.7,8.8,5.8,11.3c2.5,1.6,5,1.9,4.9-2.5
		c-0.2-5.7,0.1-11.3-0.5-17c-2.3-23.9-6.4-47.7-5.1-71.9c0.1-1.5,1.1-3.7-0.4-4.6c-1.8-1.1-3.4,0.8-4.8,1.8
		c-1.2,0.8-2.4,1.9-3.1,3.1c-6.8,10.6-6.5,23.2-2.9,33.5C120.6,325.6,122.8,336.2,122.7,347.6z M224.6,800.8
		c-5.5-3.1-10.3-5.7-15-8.4c-8.6-5-17.3-6.7-26.6-1.6c-1.7,1-3.8,1.3-5.7,2.1c-8.2,3.2-16.4,6.5-25.7,10.2c3.5,1.4,5.8,2,7.8,3.2
		c7.3,4.3,14.2,4.4,21.8,0.3c5.7-3.1,12.4-2.9,18.2-0.4C209.3,810.1,216.3,804.9,224.6,800.8z M432.2,360.4
		c-5,13-14.9,22.9-19.7,35.7c-0.7,1.8-3.5,4-1,5.7c2.1,1.5,5.2,1.6,7.9,0.2c1.8-1,3-2.6,4.1-4.3c4.8-7.2,6.9-15.8,11.2-23.2
		C438.1,368.8,437.6,365,432.2,360.4z M98.1,146.5c0.1-0.1,0.3-0.3,0.4-0.4c-0.2-0.1-0.5-0.3-0.7-0.3c-0.1,0-0.2,0.2-0.4,0.3
		C97.6,146.2,97.8,146.3,98.1,146.5z"/>
	<path class="st1" d="M142.5,109.1c0,0.2-0.1,0.5-0.1,0.7c-0.1-0.1-0.3-0.2-0.4-0.2c0.2-0.1,0.4-0.2,0.6-0.4
		C142.6,109.2,142.5,109.1,142.5,109.1z"/>
	<path class="st1" d="M98.1,146.5c-0.2-0.1-0.5-0.3-0.7-0.4c0.1-0.1,0.3-0.4,0.4-0.3c0.3,0.1,0.5,0.2,0.7,0.3
		C98.3,146.2,98.2,146.3,98.1,146.5z"/>
	<path class="st0" d="M411.6,642.5c2.8,0.1,5,0.7,5.5,3.3c0.7,3.4-1.4,5.1-4.3,6c-9.5,3.1-19.1,5.6-29,6.6
		c-20.5,2.1-40.8,5-61.2,7.7c-15.3,2.1-27.5,9.7-38.5,19.8c-2.7,2.5-5.5,7-9.6,3.1c-4.2-4,0.1-6.9,2.7-9.5
		c12.5-12.7,27.2-21,45.1-23.2c17.7-2.2,35.2-5.4,53.1-6.5c10.3-0.6,20.3-3.1,30.3-5.7C407.7,643.4,409.9,642.9,411.6,642.5z"/>
	<path class="st0" d="M250.6,599.4c0.3,28.8-5.1,56.6-14.3,83.7c-1,3-2.6,5.7-6.3,4.6c-3.5-1.1-3.8-4.1-2.9-7.2
		c2.6-9.2,5.6-18.3,7.8-27.5c5.8-24.9,6.4-50.2,6.1-75.6c0-0.9-0.1-1.8-0.1-2.8c0-3,0.9-5.7,4.3-5.9c3.5-0.2,4.7,2.4,5,5.4
		C251.2,582.5,250.5,591,250.6,599.4z"/>
	<path class="st2" d="M367.5,408.7c-0.6-8.5,3.6-17.6,5.1-27.1c0.7-4.3,1.8-8.5,1.8-13c0-5-0.7-9.1-5-12.6c-2.6-2.1-4.2-5.8-4.1-9.8
		c0.1-3.1,0.1-6.2,0-9.4c-0.1-5.2-2.4-9.1-7.6-10c-4-0.7-6.2-3.3-7.7-6.3c-1.9-3.8-4.7-5.9-8.6-7.1c-3.5-1.1-6.4-3.1-5.2-7
		c1.1-3.8,4.6-2.9,7.9-2.6c7.9,0.7,14.2,5.5,21.7,7.3c7.8,1.9,15.4,4.4,23.2,6c4.1,0.8,6.5,3.4,8.6,6.2c3.8,5,8.1,5.8,12.8,1.9
		c0.8-0.7,1.4-1.7,2.3-2.3c2-1.4,4.3-1.2,6.3-0.5c2,0.7,1.3,2.8,1.5,4.3c1,7-1.9,11.5-8.3,14.2c-6.2,2.7-10.8,6.9-12,14.2
		c-0.5,2.9-2.4,5.5-5.3,7.3c-5,3-6.7,7.8-7.9,13.5c-2.4,11.8-1.5,24.1-6.3,35.4c-0.6,1.3-1.3,2.6-2,3.9c-1.8,3.1-4.3,5.3-8,4.5
		c-4.4-0.9-3.2-4.7-3.4-7.6C367.5,411.5,367.5,410.8,367.5,408.7z"/>
	<path class="st2" d="M206.2,368.9c1.3-6.6,2.5-13.3,4-19.9c0.7-3.1,0.8-6.1,0.1-9.2c-1.7-7.5,0-14,5.9-19.3
		c4.6-4.2,6.3-11.6,3.9-15.9c-2.8-5.1-7.2-6.7-14.8-4.9c-7.5,1.8-14.9,2.8-21.6-2c-4-2.8-6.7-1.1-9.6,1.4c-1.7,1.5-3.3,4.2-6,2.9
		c-3-1.4-2.5-4.6-2.3-7.3c0.2-3.1,0.4-6.2,1.1-9.2c0.8-3.6,3.1-5.9,7.2-4.9c4.6,1.1,9,0.7,13.6-0.1c8.8-1.4,17.3,0.1,24.8,5
		c6.3,4.2,12.7,5.4,19.7,2.7c4.8-1.8,9.7-1.7,14.7-1.5c5.1,0.2,7.3,3.1,5.9,8.1c-1,3.7-3.4,6.4-6.7,8.3c-5.2,3-8.6,7.3-9.7,13.3
		c-0.7,4.3-3.5,7.2-6.8,9.6c-3.5,2.5-5.3,5.8-6.4,9.8c-2.9,10.1-2.3,20.7-5.4,30.7c-0.8,2.4-1.3,5.1-2.5,7.2c-1,1.8-2.8,3.9-5.3,3
		c-2.1-0.7-3.6-2.5-3.4-5.1c0.1-0.9,0-1.8,0-2.8C206.4,368.9,206.3,368.9,206.2,368.9z"/>
	<path class="st0" d="M235.1,410.8c-5.7,0.1-11.1,1.1-16.3,3c-3.5,1.2-6.9,1.2-8.2-2.8c-1.3-3.9,1.8-5.6,4.8-6.8
		c12.6-5.2,25.9-8.3,39.2-11c4.5-0.9,8.8,0.2,12.6,2.7c3,1.9,6,2.4,9.4,1.1c8.1-3,15-1.1,21.4,4.5c6.6,5.8,13.7,11.1,19.5,17.8
		c1.4,1.7,2.8,3.4,3.8,5.4c1.2,2.3,1.1,4.7-0.9,6.6c-2.1,1.9-4.3,1.5-6.6,0.1C289.7,415.8,261.9,415.3,235.1,410.8z M293.8,411.5
		c-6.7-7.4-10.4-8.1-16.2-3.9C282.7,408.9,287.7,410.1,293.8,411.5z"/>
	<path class="st0" d="M357.1,268.8c0.2,0,1.2-0.1,2,0.1c16.7,4.9,33.6,9.4,49,17.7c6.9,3.7,9.9,10.6,12.4,17.6
		c0.9,2.7,0.6,5.2-2.3,6.5c-3,1.4-5.3-0.4-6.1-3c-3.9-11.7-13.1-16.4-24-19.5c-7.6-2.2-14.9-5.2-22.3-8c-6.5-2.5-12.8-2.2-19.3,0.4
		c-3.1,1.2-2.5,2.3-0.9,4.2c2.5,3.1,6,4.2,9.6,4.9c12.5,2.3,24.9,4.6,37.2,7.7c5.9,1.5,9.5,5.3,12.4,10.1c1.3,2.1,1.1,4.3-0.9,5.9
		c-2,1.6-4.5,1.6-5.9-0.4c-7.2-9.7-18.6-8.3-28.4-11c-7.7-2.1-16-2.2-23.6-5.3c-6.1-2.5-9.4-7.5-12.7-12.5c-2.7-4.1-1.2-7.9,3.3-9.9
		C342.8,271.6,349.2,268.7,357.1,268.8z"/>
	<path class="st0" d="M245,267.5c-4.7-6.9-10.7-9.8-18-10.7c-14.9-1.8-29.7-1.2-44.5,0.6c-2.2,0.3-4.4,0.5-6.6,0.7
		c-2.9,0.3-5.3-0.7-5.9-3.7c-0.7-3.5,1.7-5.1,4.6-5.7c3-0.7,6.2-0.8,9.3-1.2c15.9-2,31.9-2.5,47.8,0.3c12.1,2.1,19.9,9.7,25.1,20.3
		c2.9,5.8-1.5,11.4-8.1,10.3c-6.3-1-12.4-0.6-18.6,0.5c-7.9,1.4-15.7,0.8-23.5-1.3c-6.4-1.7-12.9-3-19.6-2.2
		c-3.3,0.4-6.1-0.5-6.4-4.3c-0.3-3.5,2.4-4.7,5.3-5.2c7.6-1.4,15.1-0.1,22.3,2c8,2.3,15.9,2.4,24,0.9
		C236.2,267.9,240.2,267.9,245,267.5z"/>
	<path class="st0" d="M272,222.7c0.1,2.9-0.9,5.3-4,5.6c-3,0.4-4.5-1.5-5.4-4.4c-2.8-8.9-2.9-9.1-12.1-8.7
		c-23.7,0.9-47.3,2.1-70.6,6.9c-3.3,0.7-6.2,0.3-7-3.3c-0.8-3.7,2-5.3,5.1-6c15.6-3.6,31.4-5.4,47.4-6.1c10.4-0.4,20.8-1.6,31.3-1
		C267.5,206.5,270.7,212.8,272,222.7z"/>
	<path class="st0" d="M423.6,267.9c-0.1,2-0.8,4.2-3.7,4.8c-2.8,0.5-5-0.9-5.3-3.5c-0.9-7.2-6-10.7-11.6-13.6
		c-14.6-7.6-29.3-15.2-44-22.6c-5.3-2.6-10.4-5.4-15.2-8.8c-3-2.1-5.1-4.7-2.6-8.3c2.5-3.4,5.3-1.6,8.1,0.2
		c14.2,9.2,29.9,15.6,44.8,23.4c6.8,3.6,13.6,7.2,20,11.5C420,254.8,423.1,260.3,423.6,267.9z"/>
	<path class="st0" d="M283.5,259.9c-0.3,17.3-2.7,34.4-9.8,50.7c-1,2.3-2.4,4.5-3.8,6.6c-1.7,2.5-4,4.2-7,2.3
		c-3.1-1.9-2-4.5-0.6-7.2c10-19.7,12.8-40.7,10.8-62.5c-0.2-1.8-0.5-3.6-0.6-5.5c-0.1-3,0.7-5.7,4.2-6c3.1-0.2,4.6,2,5,4.8
		C282.4,248.6,282.9,254.1,283.5,259.9z"/>
	<path class="st0" d="M241.6,427.4c11.6,0.6,22.7,4.3,34,6.3c4.1,0.7,8.2,2,12.2,3.3c2.3,0.7,4.3,2.1,5.9,3.9c1.7,1.8,2.2,3.9,0.7,6
		c-1.5,2.1-3.7,2.3-5.9,1.2c-13.9-6.8-29.4-7.4-44.2-11c-4.7-1.1-9,1-13.3,2.8c-3.1,1.3-6,1.4-7.5-2c-1.6-3.6,0.9-5.4,3.7-6.8
		C231.8,429,236.4,427.3,241.6,427.4z"/>
	<path class="st0" d="M306.9,290.5c3.6-17.9,8.3-36.5,22.4-51.1c2.2-2.3,4.8-4.1,7.6-1.4c2.5,2.4,1.3,5.1-0.7,7.4
		c-11.4,12.8-16.2,28.5-19.4,44.9c-0.2,1.1-0.5,2.2-0.8,3.2c-0.8,2.6-2.5,4.1-5.3,3.6C308.3,296.7,307,294.6,306.9,290.5z"/>
	<path class="st0" d="M276.2,329.4c6.6,0.3,13,2.1,17.7,7.7c1.9,2.2,3.6,4.6,1.3,7.3c-2.3,2.7-4.9,1.7-7.2-0.4
		c-5.7-5-12.1-6.5-19.3-3.7c-2.5,1-4.8,0.5-6-2.1c-1.4-2.9,0.2-4.9,2.6-6.3C268.5,330,272.1,329.4,276.2,329.4z"/>
	<path class="st0" d="M239.3,336.9c2,0,3.3,0.9,4.1,2.5c0.9,1.6,0.7,3.5-0.5,4.6c-6.2,5.7-6.7,12.1-2.7,19.3c1.1,2,0.2,3.9-1.7,5.2
		c-1.7,1.2-3.7,1.2-5.1-0.2c-5.3-4.8-5.7-11.2-4.9-17.7c0.8-6,3.9-10.5,9.3-13.4C238.3,336.9,238.9,337,239.3,336.9z"/>
	<path class="st0" d="M321.8,364.4c0,5.6-2.4,10.3-5.9,14.5c-2,2.3-4.4,3.6-7.2,1.4c-2.7-2.1-1.9-4.5-0.3-6.8
		c3.5-4.9,5.7-9.8,2.4-15.8c-1.1-1.9-0.3-4,1.9-5.1c2.3-1.2,4.2-0.5,5.8,1.5C320.8,357.1,321.9,360.6,321.8,364.4z"/>
	<path class="st0" d="M267.3,383.1c-0.2-5.5,2.1-10.3,3.9-15.3c1-2.7,3.2-3.6,5.7-2.8c2.4,0.7,3.6,3,2.9,5.2
		c-1.7,5.8-3,11.6-3.2,17.7c-0.1,2.3-1.9,4.1-4.4,4.1c-2.8,0-4.2-1.9-4.6-4.5C267.4,386.1,267.4,384.6,267.3,383.1z"/>
	<path class="st0" d="M304.5,367.6c-0.1,2.9-1.6,5-4.9,5.3c-3.6,0.3-9-6.7-8.7-11.2c0.2-2.8,1.8-4.4,4.5-4.6
		C299.4,356.8,304.5,362.7,304.5,367.6z"/>
	<path class="st0" d="M257.5,349.7c2.8,0.2,5.2,1.6,5.3,5.2c0.1,2.7-5.4,6.9-8.9,6.8c-3.2-0.1-5.1-1.8-5.2-5.1
		C248.5,353,252.8,349.6,257.5,349.7z"/>
	<path class="st2" d="M293.8,411.5c-6.1-1.4-11.1-2.6-16.2-3.9C283.3,403.4,287.1,404.2,293.8,411.5z"/>
</g>
</svg>
