<?xml version="1.0" encoding="utf-8"?>
<!-- Generator: Adobe Illustrator 25.4.1, SVG Export Plug-In . SVG Version: 6.00 Build 0)  -->
<svg version="1.1" id="Capa_1" xmlns="http://www.w3.org/2000/svg" xmlns:xlink="http://www.w3.org/1999/xlink" x="0px" y="0px"
	 viewBox="0 0 595.3 841.9" style="enable-background:new 0 0 595.3 841.9;" xml:space="preserve">
<style type="text/css">
	.st0{fill:#1C1D1D;}
	.st1{fill:#FDFDFD;}
	.st2{fill:#D9A9CE;}
</style>
<path class="st0" d="M81.7,336c-5.5,7.4-11.6,11.8-19.3,14c-7.7,2.2-14.5,0.5-21-3.5c-2.1-1.3-3-3.2-2.7-5.6c0.3-2.3,2.1-3.2,4.1-4
	c15.2-5.4,17.7-10,13.7-25.8c-2.2-9-5.9-17.9-2.9-27.5c0.7-2.3-1.2-3.7-2.5-5.1c-3.6-3.7-7.2-7.4-9.5-12.1c-4.1-8.1-5-16.5-1.8-25.1
	c3.6-9.6,4.2-19.1,2.3-29.2c-1.5-7.7-0.3-15.4,3.5-22.4c4.2-7.6,10.1-12.5,19.2-12.7c3.3-0.1,5.1-0.6,4-4.7c-1.1-3.9-0.8-8-0.2-12.1
	c0.2-1.2,0.8-2.7-0.8-3.3c-1.6-0.6-2.2,1-2.9,1.9c-2.7,3.3-3.8,7.5-5.8,11.2c-1.3,2.4-2.5,5.2-6,4.9c-3.9-0.4-4.3-3.6-4.8-6.5
	c-1.2-7.6-2-15.3-1.4-23.1c1.1-13.8,9.4-23.1,20.1-30.7c2.2-1.6,4.7-2.9,7.1-4.2c9.7-5,15.7-12.7,18.6-23.3
	c4.7-17.4,14-24.3,32.3-24.7c1.8,0,3.4,0.4,4.2-2.2c6.9-22.8,21.2-31.1,44.8-26.6c5.1,1,10,2.3,14.8,4.3c2.7,1.1,4.3,0.6,5.7-2.1
	c10.1-19.4,44.3-30.8,65.6-15.6c7.7,5.5,16.1,6.2,25.2,3.2c10.8-3.6,21.5-7.7,33.3-6.4c7.1,0.7,13.8,2.4,19.3,7.1
	c1.5,1.2,2.8,1.4,4.5,0.9c11.3-2.9,20.6,1.3,28.6,8.7c4.1,3.8,7.9,8.3,11,13c6,8.8,14.2,12.5,24.6,13.3
	c16.3,1.3,27.9,10.4,33.9,25.2c2.2,5.4,4.8,8.1,9.8,10.5c16.3,7.7,24.4,23.5,21.8,41.2c-0.8,5.8-1.5,11.7-3,17.4
	c-2.6,9.7,1,16.8,8,22.9c5.7,4.9,12.4,8.6,17.4,14.4c7.3,8.3,9.7,17.9,7.2,28.7c-1.6,7.2-4.1,14.1-7.4,20.7
	c-2.9,5.9-3.4,11.3,0.6,17.5c7.2,11.3,5.2,22.8-1.7,33.7c-1.3,2.1-3.1,3.8-5.8,3.4c-2.8-0.4-3.9-2.5-4.6-4.9
	c-1.4-4.8-3.3-9.4-7.1-12.9c-1.4-1.3-2.9-3.6-5-2.6c-2.3,1.1-1.1,3.6-0.8,5.5c0.7,4.8,3.1,9,5.4,13.2c8.5,15.8,3.4,35.5-12,44.8
	c-4.9,3-10.1,5.3-15,8.1c-9.9,5.4-11.3,15.3-3.2,23.1c5.4,5.3,9,11.6,11.1,18.7c4.3,14.1-2.5,27.3-16.4,32c-2.7,0.9-5.5,1.4-7.7-1
	c-2.3-2.5-1.3-4.9,0.2-7.5c2.5-4.3,1.7-9-0.3-13.2c-2.6-5.6-7-9.8-11.9-13.5c-2.7-2.1-4.5-1.8-5.8,1.5c-1.5,3.7-3.1,7.4-4.7,11.2
	c-2.4,5.8-5.2,11.4-9,16.4c-4.4,5.8-10.2,9.1-17.7,6.9c-3.9-1.2-5.1,0.3-5.8,3.9c-2.1,11.2-4,22.4-6.7,33.5
	c-2.3,9.6-6.4,18.3-13.4,25.5c-0.9,0.9-1.8,2.1-1.9,3.2c-0.6,14.5-3.8,28.8-1.1,43.4c3.5,18.4,15,31.6,28.3,43.5
	c24.1,21.7,50.6,40.1,79.6,54.9c9.5,4.8,18.7,10.2,28,15.4c5.4,3.1,6.4,6.4,3.3,11.8c-1.4,2.4-3.1,4.5-4.8,6.7
	c-4.4,6.1-9.5,11.7-12.5,18.7c-3,7-8.9,11.6-14.2,16.7c-9.2,8.7-18.6,17.2-27,26.7c-10,11.4-24.1,15-38,18.5
	c-13.5,3.5-25.8,8.4-34.9,19.5c-3.9,4.8-9.3,5.1-14.6,3.4c-4.6-1.4-8.6-0.6-12.5,1.9c-2,1.3-4.3,2.3-6,4
	c-10.8,10.7-24.5,13.1-38.8,13.5c-3.5,0.1-7.1,0.4-9.9,2.7c-11.7,9.4-25.8,10.8-39.9,12.6c-12.4,1.6-23.7,6.1-33.9,13.2
	c-4.8,3.4-9.9,6.2-15.3,8.7c-7.8,3.7-15.7,4.9-23.9,1.3c-4.7-2-9.4-1.1-13.8,1.2c-7.9,4-15.5,4.7-23.6,0.3
	c-4.5-2.4-9.4-4.1-14.5-5.1c-7.7-1.5-13.6-6.5-19.1-11.5c-33.1-30.4-60.7-65.3-84.5-103.3c-4.1-6.6-3.5-9.2,3.3-13.5
	c9.2-5.8,18.6-11.1,27.8-16.8c26.5-16.4,51-35.3,73.9-56.4c3.2-3,4.6-6.2,4.5-10.6c-0.8-42.4-0.9-84.9-3.4-127.3
	c-0.4-7.1-1.7-12.8-6.1-19c-8.3-11.6-9-25.8-8.8-39.7c0.1-8.4,0.5-16.9,1.1-25.3c0.2-3.5-0.3-5.1-4.3-5.8c-9.5-1.6-13.2-9-15.2-17.5
	c-1.5-6.5-0.9-13.2-0.6-19.8C83.5,348.9,83.6,343.1,81.7,336z M112.9,118.7c15.6-0.8,29,4.3,39,16.2c7.2,8.5,14.9,8.1,23.5,4.1
	c10-4.7,20.2-4.8,30.7-2.9c4.9,0.9,9.7,2,14.6,2.6c12.4,1.7,22.3-3.3,29.9-12.7c5.4-6.7,4.5-18-1.4-24.3c-4.2-4.5-13.3-7-18.3-4.6
	c-7.3,3.4-14.5,6.9-21.5,10.9c-19.9,11.2-39.7,12.8-59.9,0.5c-14-8.5-27.3-3.1-36.6,10.3c-0.2,0.1-0.4,0.2-0.6,0.4
	c0.1,0.1,0.3,0.2,0.4,0.2C112.9,119.2,112.9,118.9,112.9,118.7z M121.1,628.2c-2.4,1.9-3.5,2.8-4.6,3.7
	c-28.2,25.8-59.2,47.5-92.8,65.8c-4.1,2.2-4.5,4-2.2,7.8c10.7,17.4,23.7,33.2,36.1,49.3c13.4,17.5,28.8,33.3,44.9,48.4
	c3.8,3.6,7,4.2,12.1,2.1c14.7-6.2,29.4-12.4,44.7-17.2c4.6-1.4,8.9-1.4,13.5,0.1c7.9,2.7,15.1,6.7,22.2,10.9
	c5.9,3.5,11.5,3.7,17.7,0.6c9.6-4.7,19.8-7.3,30.5-8.8c7.7-1,16.2-0.1,22.8-5.1c9.7-7.5,20.6-10.1,32.5-9.8c4,0.1,6.5-1.5,8.8-4.5
	c7-9,14.1-17.9,21.1-26.8c5.4-6.8,12-11.5,20.5-14.2c27.2-8.6,52.4-21.4,74.6-39.3c9.6-7.7,19.6-12.5,31.8-13.1
	c7.4-0.3,13.3-3.3,17.4-9.9c2.3-3.7,5.1-7.2,8.1-10.4c3.5-3.7,2.7-5.4-1.6-7.9c-23-13-47-24.1-68.3-40.1
	c-16.9-12.7-33.9-25.2-48-41.1c-11.9-13.5-19.4-28.8-19.7-47.2c-0.1-6.8,0.5-13.6,1-20.3c0.1-1.2,0.8-2.8-0.4-3.6
	c-1.5-1-2.2,0.8-3.1,1.5c-5,3.7-9.8,7.8-15,11.3c-12,8.1-24.6,15.4-39.3,15.9c-8.5,0.3-16.2,1.4-24.1,4.7c-14.2,5.9-29.3,3.8-44.1,2
	c-7.6-0.9-14.4-3.7-21.1-7.5c-5.4-3.2-9.5-8.8-15.4-10.5c-18.5-5.1-32.9-16.7-47.2-28.5c-2.4-2-4.5-4.7-8-5.6
	c-0.2,11.2,1.6,21.9,1.9,32.8c1.4,51.8,3.4,103.6,0.5,155.4c-0.2,2.7-1,4.8-3.7,5.4c-3.1,0.6-4.8-1.4-5.6-4.1c-1.1-4-0.6-8-0.3-12.1
	C119.8,648.7,120.4,639.2,121.1,628.2z M280.1,517.2c10,0,18.5-2.7,26.5-6.8c12.7-6.5,23.4-15.7,34.4-24.6
	c13.4-10.7,19.9-24.3,22.5-40.8c2.7-17,5.1-34.3,13.4-49.8c4.5-8.4,10.1-16.2,14.5-24.6c2.8-5.4,6.1-11,5.1-17.6
	c-1.7-12.3-1-24.2,5.8-35.1c0.9-1.4,1-2.6,0.2-4c-6.4-10.8-5-21.8-0.6-32.8c2.6-6.5,4.6-13.2,6.1-20c2.7-12.5-1.6-21.9-12.1-28.9
	c-1.7-1.1-3.3-2.3-5-3.4c-17.1-11.8-22.6-28.6-19.3-48.1c1.1-6.3-0.5-8-5.6-10.2c-11.4-4.9-21.9-11.6-28.4-22.6
	c-2-3.4-3.6-3.8-7.2-3.1c-24.4,4.6-45.2-3.6-63.6-19c-2.6-2.2-3.3-3.7-5.4,0.6c-7.9,16-26.8,25-44.3,21.7c-14.1-2.7-28.1-6.4-42,1.3
	c-2.8,1.5-4.7,2.8-5.7,5.8c-2.3,6.8-6.3,12.5-12.5,16.3c-2.4,1.5-2.9,3.2-3.1,5.8c-0.8,12.8-4.1,24.6-13.7,33.9
	c-1.1,1.1-1.8,2.2-2,3.8c-1.1,10-5.4,18.7-10.9,26.8c-16.3,24.1-23.3,50-19,79.4c5,33.9,6.3,68,3.5,102.2
	c-0.5,5.9,0.2,11.8,1.2,17.6c1.5,8.6,4.5,16.2,10.8,22.9c11.1,11.9,23.9,21.7,36.9,31.2c3.3,2.4,6.7,4.8,11.4,6.2
	c-1.1-4-2.1-7.2-2.8-10.6c-0.6-2.6,0.1-4.8,2.8-5.8c2.9-1,4.5,0.8,5.6,3.1c0.6,1.3,0.9,2.8,1.4,4.2c1.7,5,3.4,10.1,7.5,13.9
	c12.6,11.7,26.9,19.1,44.5,18.7c4-0.1,8.1,0.4,12.1,0.2c14.3-0.5,26.6-4.3,31.5-19.8c0.2-0.5,0.4-1,0.7-1.5c1.6-2.5,3.5-4.5,6.7-2.9
	c2.8,1.4,3.1,3.9,2,6.6C283.2,510.3,281.8,513.3,280.1,517.2z M406.9,122.5c5.8,1.1,9.8-1.6,13.8-3.9c12.8-7.3,16.2-25.9,6.9-37.2
	c-6.1-7.5-13.9-11.7-23.7-12.1c-11.7-0.5-21.1-5.4-28.1-15c-3.3-4.6-7-9-10.9-13.2c-7.7-8.2-17.4-9.4-26.9-3.6
	c-3.6,2.2-6.8,4.9-10.1,7.6c-14.6,11.9-29.4,23.3-49.1,25.5c-3.5,0.4-7.7-0.6-9.8,4.3c-1.5,3.6-5.1,6.2-5.7,10.5
	c-1.5,11,0.4,21.1,7.6,30c8.4,10.5,20.3,14.8,32.4,18.6c17.5,5.4,33.3,1.7,47.4-9.9c6.1-5.1,9.9-11.7,13-18.8
	c4.9-11.5,13.3-18.6,26-20.2c10.5-1.3,18.9,3.5,22.6,13.4C415.7,107.4,413.7,115.2,406.9,122.5z M457.6,193.4
	c0.8-2.6,1.3-4.2,1.8-5.7c5-17.6,1.1-25.4-15.7-33c-10.3-4.7-20.1-10.3-23.8-22.2c-0.7-2.4-2.1-2-3.8-1.4
	c-5.2,1.7-10.6,1.5-15.8,0.1c-4.2-1.1-10.2,0.1-11.3-5.9c-1.3-6.4,5-6.7,8.7-8.9c6-3.7,7.9-8.1,5.7-14.3c-2.4-6.7-8.4-8.9-16.8-6.6
	c-8.3,2.3-11.8,8.8-14.8,15.8c-4.9,11.4-12.7,20.3-23.3,26.3c-4.4,2.5-3.8,4.3-1.2,7.3c10.2,12,23.4,19,38.5,21.9
	c11.9,2.3,24.1,2.5,36,4.7C435.7,174.2,447.3,182.1,457.6,193.4z M138.5,62.5c-0.1,6.1,1.1,6.9,6.4,4.5c12.8-5.7,25-5.2,36.1,4
	c4.8,4,9.2,8.5,14.1,12.2c8.2,6.2,17.8,9.8,27.8,6.4c9.2-3.1,17.8-4.2,26.5,0.7c2.7,1.5,3.9,1.2,3.9-2.2c0.1-5.5,2-10.3,4.9-14.9
	c5.2-8.4,2.9-18.3-5.3-23.9c-10.2-6.9-20.7-5.8-31.5-1.7c-11.3,4.3-22.5,4.5-33.8-0.1c-10.3-4.1-21-6.8-32.2-4.4
	C145.9,45.3,138.6,53.7,138.5,62.5z M443.6,406.4c4.1-3.5,4.8-7.2,4.1-11.5c-1.2-7.4-4.3-13.7-9.8-18.6
	c-13.4-11.9-7.6-31.3,5.7-37.8c4.4-2.2,8.9-4.5,13.2-6.9c12.7-7.1,16.7-21.2,10-34.1c-3.3-6.2-7.2-12.6-6.1-19.7
	c1-6.2-1.2-8.5-6.6-9.3c-0.9-0.1-1.7-0.6-2.6-1c-8.4-3.6-8.4-3.6-14.4,3.7c-0.2,0.3-0.5,0.6-0.7,0.9c-11.3,13.7-9.3,30.9,4.9,41.5
	c2.4,1.8,5.3,3.2,4.3,6.8c-1,3.5-4.3,4.1-7.1,4.2c-8.2,0.5-16.6,1.6-24.4-2c-2.7-1.2-3.8-0.5-5,2c-2.2,4.8-3.2,9.9-3.3,15
	c-0.3,14.4,3.3,27.3,16.4,35.7C433.3,382.6,442,391.5,443.6,406.4z M428.8,314.8c-5.1-7.5-9.3-15.3-9.2-24.7
	c0.2-11.8,6.1-20.9,13.9-29c2.7-2.7,3.9-4.9,0.5-8.1c-1.9-1.8-3.1-4.5-4.4-6.9c-5.1-9.6-4.8-20.2-5.2-30.6
	c-0.4-10.9-2-21.5-6.7-31.5c-1.1-2.3-2.3-4-5.2-4.1c-9-0.2-17.9-1.9-26.8-3.2c-2.7-0.4-3.8,0.8-4.2,3c-2.5,14.1-0.9,27.2,10.3,37.5
	c3.3,3.1,7.4,5.4,11,8.2c11.3,8.6,17.5,19.4,15.2,34.2c-1.2,7.9-3.1,15.5-6.1,22.8c-1.9,4.6-3.4,9.3-3.9,14.3
	C406.8,309.3,416.2,317.6,428.8,314.8z M61.6,339.1c9.3-2.1,14.8-10.1,14.6-20.8c-0.1-6.4-0.7-12.8,0.3-19.2
	c1.9-12.5,8.5-20.9,21-24c2.6-0.7,4-1.8,4.8-4.4c3.6-10.9,9.2-20.7,15-30.5c3.7-6.3,7.8-12.4,10.2-19.5c1-3,0.9-4.4-2.9-4
	c-7.8,0.8-15.7,1-23.6,1.8c-13.9,1.4-21.6,11.7-19.4,25.4c1.6,10.2-0.3,19.8-7.7,27c-10.4,10.2-14.2,20.9-8.7,35.2
	C69.4,317.1,70,328.7,61.6,339.1z M103.2,173.2c-2.3,0.1-5.2,0.1-8.1,0.6c-11.2,1.7-21.8,11.9-22.6,21.8c-0.6,7.2,0.5,14.3,2.5,21.2
	c0.9,3.2,1.8,4.4,4.9,1.4c5.8-5.8,13-8.8,21.2-9.4c8-0.6,16.1-1.2,24.2-1.7c5.1-0.3,9.1-2.5,11.9-6.8c4.3-6.6,6.4-13.9,7.7-21.6
	c0.4-2.2-0.4-3.1-2.6-2.9C129.4,176.5,116.7,173.9,103.2,173.2z M56.4,154c1.6-1.9,2.6-3.1,3.6-4.2c3.8-4.6,8.6-7.3,14.6-7.9
	c5.6-0.5,10.4,1.8,15.1,4.4c11.7,6.4,25.7,1.1,30.4-11.3c0.7-1.8,1.2-3.7,0.1-5.3c-1.3-1.7-3.4-1-5.1-0.5c-4.6,1.2-9.2,2.7-12.5,6.4
	c-1.6,1.8-3.7,2.4-6,1.3c-2.4-1.2-2.6-3.4-2.5-5.6c0.1-1.9,0.9-3.5,1.7-5.2c2.9-5.6,6.3-11,11-15c10.2-8.7,19.6-17.8,23.5-31.1
	c0.1-0.2,0.2-0.3,0.3-0.5c2.8-4.8,1.4-7.4-4.4-7.8c-12.3-0.9-21.3,4.9-24.2,16.9c-3.5,14.4-11.7,24.6-24.8,31.1
	c-4.5,2.2-8.4,5.2-11.9,8.8C58.5,135.1,55.1,143.2,56.4,154z M330.4,30.3c-7.4-4.1-14.6-5.1-22-3.6c-6.3,1.3-12.5,2.9-18.5,5.1
	c-13.3,4.9-25.4,2.9-37.1-4.9c-15.9-10.5-39.4-1.5-48.6,10.4c-0.7,0.9-2.2,1.9-1.3,3.3c0.8,1.2,2.4,0.6,3.6,0.5
	c5.4-0.2,10.3-2.2,15.4-4c20.9-7.7,45.5,3.1,47.6,21.8c0.2,2.2,1.3,2.9,3.3,2.5c9-1.5,18.1-2.6,26.2-7.6
	C310.1,47.2,319.9,39.1,330.4,30.3z M428.6,184.4c1.2,5,2.3,10,3.5,14.9c2.3,10.3,0.9,20.9,2.5,31.3c2.3,15.4,11,25.4,25.5,30.2
	c11,3.7,22.3,6.6,28.5,18.2c1.1-4.6,1.4-8.6-0.4-12.9c-3-7-8.3-12-13.6-17.1c-10.1-9.6-17.3-21.1-19.3-35
	C453.2,200.9,442.2,188,428.6,184.4z M457.8,687.9c-10.1,0.6-18.8,2.4-25.9,9.4c-4,3.9-8.9,7-13.6,10.2
	c-21.5,14.8-44.9,25.6-69.6,33.8c-6.8,2.2-15.9,11.6-18.5,18.5c9-3.7,9-3.8,19.6-2c2.8,0.5,4.6-0.5,6.2-2.5
	c9.6-11.2,22.4-16.7,36.3-20.4c13.6-3.5,27.7-6.6,37.3-18.4c6.8-8.3,14.9-15.2,22.7-22.4C454.2,692.4,456.4,691,457.8,687.9z
	 M205.6,98.3c-10.9-1.4-17.7-8.5-25-14.8c-1.5-1.3-3.1-2.6-4.5-4c-13.7-13.7-35.7-4.7-41.5,12.4c-0.6,1.7-0.8,2.8,1.5,2.9
	c8.6,0.2,15.7,4.2,23.1,8.1C173,110.2,193.8,108.3,205.6,98.3z M47.2,251.9c0.6,4.9,1.8,9.6,5,13.7c6,7.7,5.7,7.6,12.4,1.2
	c7-6.6,8.8-14.4,6.9-23.5c-0.6-2.7-0.9-5.5-0.6-8.2c0.4-3.5-0.8-6.4-2.3-9.4c-5.5-10.8-7-22.2-5.4-34.2c0.2-1.4,2-3.3,0.1-4.4
	c-1.5-0.9-3.2,0.4-4.5,1.4c-1.4,1.1-2.7,2.5-3.7,4c-4.6,6.5-4.8,13.8-3.3,21.1c1.9,9.3,1.2,18.2-1.8,27.1
	C48.8,244.2,47.3,247.8,47.2,251.9z M136,166.1c2.4,0,4.8,0.2,7.1,0c7.5-0.8,13-4.5,16.4-11.2c1-2,1.1-3.3-1.6-3.9
	c-4.2-1-7.3-4-10.3-6.9c-3.9-3.8-8.2-7.3-12.5-10.7c-2.7-2.2-4.4-2.8-5.5,1.9c-4.3,18.6-25.8,28.8-42.4,20.6
	c-7.2-3.6-8.7-2.8-9.7,5.2c-0.2,1.8-0.1,3.7-0.2,5.5c-0.1,2.7,0.2,4.4,3.5,2.3c6.7-4.3,14.3-5.1,22.2-5.1
	C114.1,163.8,125,166,136,166.1z M464.8,209.4c-0.2,11.8,6,20.8,13.1,29.3c4.4,5.3,4.7,5.1,7.6-1.4c1-2.3,2.3-4.6,3.1-7
	c2.2-6.9,5.5-13.6,4.2-21.3c-2-12.3-12.6-16.9-20.7-23.8c-1.7-1.4-2.1,0.5-2.4,1.7C467.6,194.3,464.6,201.5,464.8,209.4z M463,133.6
	c0.2-14.3-5.7-23.8-16.7-29.4c-3-1.5-4.8-1.9-5.6,2.2c-1.3,5.9-4.5,10.8-8.6,15.1c-4.6,4.9-4.8,8-0.6,13.4c1.8,2.3,4.1,4.1,6.5,5.9
	c6.1,4.6,13.9,5.8,19.9,10.4c1.9,1.5,2.5,0.3,2.7-1.5C461.4,143.7,462.4,137.8,463,133.6z M93.1,357.3c0,4.4-0.3,8.8,0.1,13.2
	c0.4,4.4,1.7,8.8,5.8,11.3c2.5,1.6,5,1.9,4.9-2.5c-0.2-5.7,0.1-11.3-0.5-17c-2.3-23.9-6.4-47.7-5.1-71.9c0.1-1.5,1.1-3.7-0.4-4.6
	c-1.8-1.1-3.4,0.8-4.8,1.8c-1.2,0.8-2.4,1.9-3.1,3.1c-6.8,10.6-6.5,23.2-2.9,33.5C91,335.3,93.2,345.9,93.1,357.3z M195.1,810.4
	c-5.5-3.1-10.3-5.7-15-8.4c-8.6-5-17.3-6.7-26.6-1.6c-1.7,1-3.8,1.3-5.7,2.1c-8.2,3.2-16.4,6.5-25.7,10.2c3.5,1.4,5.8,2,7.8,3.2
	c7.3,4.3,14.2,4.4,21.8,0.3c5.7-3.1,12.4-2.9,18.2-0.4C179.7,819.8,186.8,814.5,195.1,810.4z M402.6,370.1
	c-5,13-14.9,22.9-19.7,35.7c-0.7,1.8-3.5,4-1,5.7c2.1,1.5,5.2,1.6,7.9,0.2c1.8-1,3-2.6,4.1-4.3c4.8-7.2,6.9-15.8,11.2-23.2
	C408.5,378.5,408,374.6,402.6,370.1z M68.5,156.1c0.1-0.1,0.3-0.3,0.4-0.4c-0.2-0.1-0.5-0.3-0.7-0.3c-0.1,0-0.2,0.2-0.4,0.3
	C68,155.9,68.3,156,68.5,156.1z"/>
<path class="st1" d="M121.1,628.2c-0.7,11-1.3,20.5-1.9,30c-0.2,4-0.8,8.1,0.3,12.1c0.8,2.7,2.5,4.7,5.6,4.1
	c2.7-0.5,3.5-2.7,3.7-5.4c3-51.8,0.9-103.6-0.5-155.4c-0.3-10.8-2-21.6-1.9-32.8c3.5,0.9,5.5,3.6,8,5.6
	c14.3,11.8,28.7,23.4,47.2,28.5c5.9,1.6,10,7.3,15.4,10.5c6.6,3.9,13.5,6.6,21.1,7.5c14.8,1.8,29.8,3.9,44.1-2
	c7.9-3.3,15.6-4.3,24.1-4.7c14.7-0.5,27.3-7.8,39.3-15.9c5.2-3.5,10-7.5,15-11.3c0.9-0.7,1.6-2.5,3.1-1.5c1.2,0.8,0.5,2.4,0.4,3.6
	c-0.5,6.8-1.2,13.5-1,20.3c0.3,18.4,7.8,33.7,19.7,47.2c14.1,16,31.1,28.5,48,41.1c21.3,15.9,45.3,27.1,68.3,40.1
	c4.3,2.4,5.2,4.1,1.6,7.9c-3,3.2-5.8,6.7-8.1,10.4c-4,6.6-10,9.6-17.4,9.9c-12.2,0.5-22.2,5.3-31.8,13.1
	c-22.2,17.9-47.4,30.6-74.6,39.3c-8.4,2.7-15.1,7.4-20.5,14.2c-7,8.9-14.2,17.8-21.1,26.8c-2.3,3-4.8,4.6-8.8,4.5
	c-11.9-0.3-22.8,2.3-32.5,9.8c-6.6,5.1-15.2,4.1-22.8,5.1c-10.7,1.5-20.9,4-30.5,8.8c-6.2,3-11.8,2.9-17.7-0.6
	c-7.1-4.2-14.3-8.3-22.2-10.9c-4.6-1.5-8.9-1.6-13.5-0.1c-15.3,4.8-30,11-44.7,17.2c-5.1,2.1-8.2,1.5-12.1-2.1
	c-16.1-15.1-31.4-30.9-44.9-48.4c-12.4-16.2-25.4-31.9-36.1-49.3c-2.4-3.8-1.9-5.6,2.2-7.8c33.5-18.2,64.6-39.9,92.8-65.8
	C117.6,631,118.7,630.1,121.1,628.2z M382.1,652.2c-1.7,0.4-3.9,0.9-6,1.5c-10,2.6-20,5.1-30.3,5.7c-17.8,1.1-35.4,4.3-53.1,6.5
	c-17.8,2.3-32.6,10.6-45.1,23.2c-2.6,2.6-6.9,5.6-2.7,9.5c4.1,3.9,6.9-0.7,9.6-3.1c11-10.1,23.3-17.7,38.5-19.8
	c20.4-2.7,40.7-5.6,61.2-7.7c9.9-1,19.5-3.5,29-6.6c2.9-0.9,5-2.6,4.3-6C387,652.9,384.9,652.3,382.1,652.2z M221,609.1
	c-0.1-8.4,0.6-16.9-0.4-25.3c-0.4-3-1.5-5.6-5-5.4c-3.5,0.2-4.4,2.9-4.3,5.9c0,0.9,0.1,1.8,0.1,2.8c0.4,25.4-0.2,50.7-6.1,75.6
	c-2.2,9.3-5.1,18.4-7.8,27.5c-0.9,3.2-0.6,6.2,2.9,7.2c3.6,1.1,5.3-1.6,6.3-4.6C216,665.7,221.4,637.9,221,609.1z"/>
<path class="st1" d="M280.1,517.2c1.7-4,3.1-7,4.2-10c1-2.7,0.8-5.2-2-6.6c-3.2-1.6-5.2,0.4-6.7,2.9c-0.3,0.5-0.5,1-0.7,1.5
	c-4.9,15.5-17.1,19.3-31.5,19.8c-4,0.1-8.1-0.3-12.1-0.2c-17.6,0.4-32-7.1-44.5-18.7c-4.1-3.8-5.7-8.9-7.5-13.9
	c-0.5-1.4-0.7-2.9-1.4-4.2c-1.1-2.3-2.7-4-5.6-3.1c-2.8,0.9-3.4,3.2-2.8,5.8c0.8,3.3,1.7,6.6,2.8,10.6c-4.7-1.4-8.1-3.8-11.4-6.2
	c-13.1-9.5-25.8-19.3-36.9-31.2c-6.3-6.8-9.3-14.3-10.8-22.9c-1-5.8-1.7-11.7-1.2-17.6c2.8-34.2,1.5-68.4-3.5-102.2
	c-4.3-29.3,2.7-55.3,19-79.4c5.5-8.1,9.8-16.8,10.9-26.8c0.2-1.5,0.9-2.7,2-3.8c9.6-9.3,12.9-21.1,13.7-33.9
	c0.2-2.6,0.6-4.3,3.1-5.8c6.2-3.8,10.2-9.4,12.5-16.3c1-3,3-4.3,5.7-5.8c13.9-7.6,27.9-3.9,42-1.3c17.5,3.3,36.4-5.7,44.3-21.7
	c2.1-4.2,2.8-2.7,5.4-0.6c18.4,15.4,39.2,23.7,63.6,19c3.6-0.7,5.2-0.3,7.2,3.1c6.5,11,17,17.7,28.4,22.6c5.1,2.2,6.6,3.9,5.6,10.2
	c-3.4,19.6,2.2,36.4,19.3,48.1c1.7,1.1,3.3,2.3,5,3.4c10.5,6.9,14.7,16.4,12.1,28.9c-1.5,6.8-3.5,13.5-6.1,20
	c-4.4,11-5.8,22,0.6,32.8c0.9,1.5,0.7,2.6-0.2,4c-6.8,10.9-7.6,22.8-5.8,35.1c0.9,6.7-2.3,12.2-5.1,17.6c-4.4,8.4-10,16.3-14.5,24.6
	c-8.4,15.5-10.8,32.7-13.4,49.8c-2.6,16.5-9.2,30.1-22.5,40.8c-11.1,8.9-21.7,18-34.4,24.6C298.6,514.6,290.2,517.3,280.1,517.2z
	 M338,418.3c0,2.1,0,2.8,0,3.6c0.2,3-1,6.7,3.4,7.6c3.7,0.7,6.2-1.4,8-4.5c0.7-1.3,1.4-2.5,2-3.9c4.8-11.3,3.9-23.7,6.3-35.4
	c1.2-5.7,2.9-10.5,7.9-13.5c2.9-1.7,4.8-4.4,5.3-7.3c1.2-7.4,5.7-11.5,12-14.2c6.4-2.8,9.4-7.2,8.3-14.2c-0.2-1.6,0.5-3.6-1.5-4.3
	c-2.1-0.7-4.4-0.9-6.3,0.5c-0.9,0.6-1.5,1.6-2.3,2.3c-4.7,4-9,3.1-12.8-1.9c-2.2-2.9-4.6-5.4-8.6-6.2c-7.8-1.6-15.5-4.1-23.2-6
	c-7.4-1.8-13.8-6.6-21.7-7.3c-3.3-0.3-6.7-1.2-7.9,2.6c-1.2,3.9,1.7,5.9,5.2,7c3.8,1.1,6.6,3.3,8.6,7.1c1.5,3,3.7,5.5,7.7,6.3
	c5.2,0.9,7.5,4.9,7.6,10c0,3.1,0.1,6.2,0,9.4c-0.2,3.9,1.4,7.6,4.1,9.8c4.3,3.5,5,7.6,5,12.6c0,4.4-1.1,8.7-1.8,13
	C341.5,400.7,337.4,409.8,338,418.3z M176.6,378.5c0.1,0,0.2,0,0.3,0.1c0,0.9,0.1,1.8,0,2.8c-0.2,2.6,1.3,4.4,3.4,5.1
	c2.4,0.8,4.2-1.3,5.3-3c1.3-2.2,1.7-4.8,2.5-7.2c3.2-10,2.6-20.6,5.4-30.7c1.1-4,2.9-7.3,6.4-9.8c3.3-2.4,6.1-5.3,6.8-9.6
	c1-6,4.5-10.3,9.7-13.3c3.3-1.9,5.7-4.7,6.7-8.3c1.4-5-0.8-7.9-5.9-8.1c-4.9-0.2-9.9-0.3-14.7,1.5c-7,2.7-13.4,1.4-19.7-2.7
	c-7.5-4.9-16-6.4-24.8-5c-4.6,0.7-9,1.2-13.6,0.1c-4.1-1-6.3,1.3-7.2,4.9c-0.7,3-0.9,6.1-1.1,9.2c-0.2,2.7-0.7,5.9,2.3,7.3
	c2.7,1.3,4.2-1.3,6-2.9c2.9-2.5,5.6-4.3,9.6-1.4c6.7,4.7,14.2,3.7,21.6,2c7.6-1.8,12-0.2,14.8,4.9c2.4,4.4,0.7,11.8-3.9,15.9
	c-5.9,5.3-7.5,11.8-5.9,19.3c0.7,3.1,0.6,6.1-0.1,9.2C179.1,365.2,177.9,371.9,176.6,378.5z M205.5,420.5
	c26.8,4.4,54.7,4.9,78.6,20.6c2.2,1.5,4.5,1.8,6.6-0.1c2-1.8,2.1-4.3,0.9-6.6c-1-1.9-2.3-3.7-3.8-5.4c-5.8-6.7-12.9-12-19.5-17.8
	c-6.4-5.6-13.3-7.5-21.4-4.5c-3.4,1.3-6.4,0.8-9.4-1.1c-3.8-2.5-8.2-3.6-12.6-2.7c-13.3,2.7-26.5,5.8-39.2,11
	c-3,1.2-6.1,2.9-4.8,6.8c1.4,4,4.8,4,8.2,2.8C194.4,421.6,199.8,420.6,205.5,420.5z M327.6,278.4c-7.9-0.1-14.3,2.8-20.7,5.7
	c-4.4,2-5.9,5.8-3.3,9.9c3.2,5,6.6,10,12.7,12.5c7.6,3.2,15.8,3.2,23.6,5.3c9.8,2.7,21.2,1.3,28.4,11c1.4,1.9,3.9,2,5.9,0.4
	c2.1-1.6,2.2-3.8,0.9-5.9c-2.9-4.8-6.5-8.6-12.4-10.1c-12.3-3.2-24.7-5.5-37.2-7.7c-3.6-0.7-7.1-1.8-9.6-4.9c-1.6-1.9-2.2-3,0.9-4.2
	c6.5-2.5,12.8-2.8,19.3-0.4c7.4,2.8,14.7,5.8,22.3,8c10.9,3.1,20.2,7.8,24,19.5c0.8,2.6,3.1,4.3,6.1,3c2.9-1.3,3.3-3.9,2.3-6.5
	c-2.5-7-5.5-13.9-12.4-17.6c-15.4-8.3-32.3-12.8-49-17.7C328.8,278.3,327.8,278.5,327.6,278.4z M215.4,277.2
	c-4.8,0.4-8.8,0.4-12.7,1.1c-8.1,1.5-16,1.4-24-0.9c-7.3-2.1-14.7-3.3-22.3-2c-2.9,0.5-5.6,1.6-5.3,5.2c0.3,3.8,3.1,4.8,6.4,4.3
	c6.7-0.9,13.2,0.4,19.6,2.2c7.7,2.1,15.5,2.7,23.5,1.3c6.2-1.1,12.3-1.5,18.6-0.5c6.5,1.1,10.9-4.5,8.1-10.3
	c-5.2-10.5-13.1-18.1-25.1-20.3c-15.9-2.8-31.8-2.3-47.8-0.3c-3.1,0.4-6.2,0.6-9.3,1.2c-2.9,0.6-5.3,2.2-4.6,5.7c0.6,3,3,4,5.9,3.7
	c2.2-0.2,4.4-0.4,6.6-0.7c14.8-1.9,29.7-2.4,44.5-0.6C204.7,267.4,210.7,270.3,215.4,277.2z M242.4,232.3
	c-1.3-9.8-4.5-16.2-15.2-16.8c-10.5-0.6-20.9,0.6-31.3,1c-16,0.6-31.8,2.5-47.4,6.1c-3.1,0.7-5.9,2.3-5.1,6c0.8,3.6,3.7,4,7,3.3
	c23.3-4.8,46.9-6,70.6-6.9c9.2-0.4,9.3-0.2,12.1,8.7c0.9,2.8,2.3,4.7,5.4,4.4C241.5,237.6,242.5,235.2,242.4,232.3z M394.1,277.5
	c-0.5-7.6-3.7-13.1-9.6-17c-6.4-4.2-13.2-7.9-20-11.5c-14.9-7.8-30.6-14.3-44.8-23.4c-2.8-1.8-5.7-3.6-8.1-0.2
	c-2.5,3.5-0.3,6.2,2.6,8.3c4.8,3.4,10,6.1,15.2,8.8c14.7,7.4,29.4,15,44,22.6c5.6,2.9,10.7,6.4,11.6,13.6c0.3,2.6,2.5,4,5.3,3.5
	C393.2,281.8,394,279.6,394.1,277.5z M254,269.5c-0.6-5.8-1.1-11.3-1.8-16.7c-0.3-2.8-1.9-5.1-5-4.8c-3.5,0.3-4.3,3-4.2,6
	c0.1,1.8,0.4,3.6,0.6,5.5c1.9,21.8-0.9,42.8-10.8,62.5c-1.3,2.7-2.5,5.3,0.6,7.2c2.9,1.8,5.3,0.2,7-2.3c1.4-2.1,2.8-4.3,3.8-6.6
	C251.2,303.9,253.6,286.8,254,269.5z M212,437c-5.1-0.1-9.8,1.6-14.3,3.7c-2.8,1.3-5.4,3.2-3.7,6.8c1.5,3.4,4.4,3.3,7.5,2
	c4.2-1.8,8.6-3.9,13.3-2.8c14.7,3.6,30.2,4.2,44.2,11c2.2,1.1,4.4,0.9,5.9-1.2c1.5-2.1,1-4.2-0.7-6c-1.7-1.8-3.7-3.2-5.9-3.9
	c-4-1.3-8-2.6-12.2-3.3C234.7,441.3,223.6,437.6,212,437z M277.3,300.1c0.1,4.1,1.4,6.2,3.7,6.6c2.8,0.4,4.5-1.1,5.3-3.6
	c0.3-1,0.6-2.1,0.8-3.2c3.2-16.4,8-32.1,19.4-44.9c2-2.2,3.2-5,0.7-7.4c-2.8-2.7-5.4-0.9-7.6,1.4
	C285.6,263.6,280.9,282.2,277.3,300.1z M246.7,339c-4.1,0.1-7.7,0.6-10.9,2.5c-2.5,1.4-4,3.4-2.6,6.3c1.2,2.6,3.5,3.1,6,2.1
	c7.2-2.8,13.6-1.3,19.3,3.7c2.3,2,4.9,3,7.2,0.4c2.3-2.7,0.6-5.1-1.3-7.3C259.6,341.2,253.3,339.3,246.7,339z M209.8,346.5
	c-0.4,0.1-1,0.1-1.5,0.3c-5.4,2.8-8.6,7.3-9.3,13.4c-0.8,6.5-0.4,12.9,4.9,17.7c1.4,1.3,3.4,1.3,5.1,0.2c1.9-1.3,2.8-3.2,1.7-5.2
	c-3.9-7.2-3.5-13.6,2.7-19.3c1.3-1.2,1.4-3,0.5-4.6C213,347.4,211.7,346.5,209.8,346.5z M292.2,374c0.1-3.8-1-7.2-3.3-10.3
	c-1.6-2-3.5-2.7-5.8-1.5c-2.2,1.1-2.9,3.2-1.9,5.1c3.3,6,1.1,10.9-2.4,15.8c-1.6,2.3-2.4,4.7,0.3,6.8c2.8,2.2,5.2,0.9,7.2-1.4
	C289.9,384.4,292.2,379.6,292.2,374z M237.8,392.8c0.1,1.5,0.1,2.9,0.3,4.4c0.4,2.6,1.8,4.5,4.6,4.5c2.5,0,4.3-1.8,4.4-4.1
	c0.2-6.1,1.6-11.9,3.2-17.7c0.6-2.2-0.6-4.5-2.9-5.2c-2.5-0.8-4.7,0.1-5.7,2.8C239.8,382.5,237.6,387.3,237.8,392.8z M275,377.3
	c0-5-5.2-10.8-9.1-10.5c-2.8,0.2-4.4,1.8-4.5,4.6c-0.3,4.5,5.2,11.5,8.7,11.2C273.4,382.3,274.8,380.2,275,377.3z M227.9,359.3
	c-4.7-0.1-9,3.4-8.8,6.9c0.1,3.2,2,5,5.2,5.1c3.5,0.1,8.9-4.1,8.9-6.8C233.1,360.9,230.7,359.5,227.9,359.3z"/>
<path class="st1" d="M406.9,122.5c6.8-7.3,8.9-15.1,5.5-24.1c-3.7-9.9-12.1-14.7-22.6-13.4c-12.7,1.6-21.1,8.7-26,20.2
	c-3.1,7.2-6.9,13.8-13,18.8c-14.1,11.6-29.9,15.3-47.4,9.9c-12.1-3.8-24-8.1-32.4-18.6c-7.2-8.9-9.1-19-7.6-30
	c0.6-4.3,4.2-6.9,5.7-10.5c2.1-4.9,6.3-4,9.8-4.3c19.7-2.2,34.5-13.6,49.1-25.5c3.3-2.7,6.5-5.4,10.1-7.6c9.5-5.8,19.2-4.5,26.9,3.6
	c3.9,4.1,7.5,8.6,10.9,13.2c7,9.6,16.3,14.5,28.1,15c9.8,0.4,17.6,4.7,23.7,12.1c9.3,11.3,6,29.9-6.9,37.2
	C416.7,120.9,412.6,123.6,406.9,122.5z"/>
<path class="st1" d="M457.6,193.4c-10.3-11.4-21.8-19.2-36-21.8c-11.9-2.2-24.2-2.4-36-4.7c-15.1-2.9-28.3-9.9-38.5-21.9
	c-2.6-3-3.2-4.8,1.2-7.3c10.7-6,18.5-14.9,23.3-26.3c3-7,6.5-13.6,14.8-15.8c8.5-2.3,14.5-0.1,16.8,6.6c2.2,6.2,0.3,10.7-5.7,14.3
	c-3.6,2.2-9.9,2.6-8.7,8.9c1.2,5.9,7.2,4.8,11.3,5.9c5.2,1.3,10.5,1.6,15.8-0.1c1.7-0.6,3-1,3.8,1.4c3.7,11.9,13.5,17.5,23.8,22.2
	c16.8,7.6,20.7,15.4,15.7,33C458.9,189.3,458.4,190.8,457.6,193.4z"/>
<path class="st1" d="M138.5,62.5c0.1-8.7,7.5-17.2,16.9-19.2c11.3-2.5,21.9,0.2,32.2,4.4c11.3,4.5,22.5,4.4,33.8,0.1
	c10.8-4.1,21.3-5.2,31.5,1.7c8.2,5.6,10.6,15.5,5.3,23.9c-2.9,4.6-4.8,9.5-4.9,14.9c0,3.3-1.2,3.7-3.9,2.2
	c-8.7-4.9-17.2-3.8-26.5-0.7c-10,3.4-19.5-0.2-27.8-6.4c-5-3.7-9.4-8.2-14.1-12.2c-11.1-9.3-23.2-9.8-36.1-4
	C139.6,69.4,138.4,68.5,138.5,62.5z"/>
<path class="st1" d="M443.6,406.4c-1.6-14.9-10.2-23.8-21.5-31c-13.1-8.3-16.7-21.3-16.4-35.7c0.1-5.1,1.1-10.2,3.3-15
	c1.1-2.5,2.2-3.3,5-2c7.9,3.6,16.2,2.4,24.4,2c2.8-0.2,6.1-0.8,7.1-4.2c1-3.7-1.9-5.1-4.3-6.8c-14.2-10.6-16.2-27.8-4.9-41.5
	c0.2-0.3,0.5-0.6,0.7-0.9c6-7.3,6-7.3,14.4-3.7c0.8,0.4,1.7,0.8,2.6,1c5.4,0.9,7.6,3.1,6.6,9.3c-1.1,7.1,2.9,13.5,6.1,19.7
	c6.7,12.8,2.7,26.9-10,34.1c-4.3,2.4-8.7,4.7-13.2,6.9c-13.2,6.5-19.1,25.9-5.7,37.8c5.6,5,8.6,11.2,9.8,18.6
	C448.4,399.2,447.6,402.8,443.6,406.4z"/>
<path class="st1" d="M113.1,118.8c9.2-13.5,22.6-18.9,36.6-10.3c20.2,12.3,40,10.7,59.9-0.5c7-3.9,14.2-7.4,21.5-10.9
	c5-2.4,14.1,0.2,18.3,4.6c5.9,6.3,6.8,17.6,1.4,24.3c-7.6,9.4-17.5,14.4-29.9,12.7c-4.9-0.7-9.8-1.7-14.6-2.6
	c-10.5-1.9-20.7-1.8-30.7,2.9c-8.6,4-16.4,4.5-23.5-4.1c-10-11.9-23.4-17-39-16.2L113.1,118.8z"/>
<path class="st1" d="M428.8,314.8c-12.6,2.8-21.9-5.5-20.7-18.3c0.5-5,2-9.7,3.9-14.3c3-7.3,4.9-14.9,6.1-22.8
	c2.2-14.8-3.9-25.6-15.2-34.2c-3.6-2.8-7.7-5.1-11-8.2c-11.1-10.3-12.8-23.4-10.3-37.5c0.4-2.2,1.5-3.4,4.2-3
	c8.9,1.3,17.7,3,26.8,3.2c2.9,0.1,4.2,1.8,5.2,4.1c4.7,10,6.3,20.6,6.7,31.5c0.4,10.4,0.2,21,5.2,30.6c1.3,2.4,2.5,5.1,4.4,6.9
	c3.5,3.2,2.2,5.4-0.5,8.1c-7.9,8.1-13.8,17.1-13.9,29C419.5,299.4,423.7,307.2,428.8,314.8z"/>
<path class="st1" d="M61.6,339.1c8.4-10.4,7.8-22,3.6-33c-5.4-14.3-1.6-25,8.7-35.2c7.4-7.2,9.4-16.8,7.7-27
	c-2.2-13.7,5.5-24,19.4-25.4c7.8-0.8,15.7-1,23.6-1.8c3.8-0.4,3.9,1,2.9,4c-2.4,7-6.4,13.2-10.2,19.5c-5.8,9.8-11.4,19.7-15,30.5
	c-0.9,2.6-2.2,3.7-4.8,4.4c-12.5,3.1-19.1,11.6-21,24c-1,6.4-0.4,12.8-0.3,19.2C76.4,329,70.8,337,61.6,339.1z"/>
<path class="st1" d="M103.2,173.2c13.5,0.7,26.2,3.4,39.1,2.5c2.2-0.1,3,0.7,2.6,2.9c-1.3,7.7-3.4,15-7.7,21.6
	c-2.8,4.3-6.8,6.5-11.9,6.8c-8.1,0.5-16.1,1.1-24.2,1.7c-8.2,0.6-15.4,3.6-21.2,9.4c-3,3-4,1.8-4.9-1.4c-2-6.9-3.1-14-2.5-21.2
	c0.8-10,11.4-20.1,22.6-21.8C98,173.3,100.9,173.3,103.2,173.2z"/>
<path class="st1" d="M56.4,154c-1.4-10.8,2-18.8,8.8-25.7c3.5-3.5,7.5-6.5,11.9-8.8c13.1-6.5,21.3-16.7,24.8-31.1
	c2.9-12,11.9-17.8,24.2-16.9c5.7,0.4,7.2,3,4.4,7.8c-0.1,0.2-0.2,0.3-0.3,0.5c-3.9,13.3-13.3,22.4-23.5,31.1c-4.7,4-8.1,9.4-11,15
	c-0.8,1.6-1.6,3.3-1.7,5.2c-0.1,2.3,0.2,4.5,2.5,5.6c2.3,1.1,4.4,0.5,6-1.3c3.4-3.8,7.9-5.2,12.5-6.4c1.7-0.4,3.9-1.2,5.1,0.5
	c1.1,1.5,0.5,3.5-0.1,5.3c-4.7,12.4-18.7,17.7-30.4,11.3c-4.7-2.6-9.5-4.9-15.1-4.4c-6,0.6-10.8,3.3-14.6,7.9
	C59.1,150.9,58,152.1,56.4,154z"/>
<path class="st1" d="M330.4,30.3c-10.5,8.8-20.4,16.9-31.3,23.6c-8.1,5-17.2,6.1-26.2,7.6c-2,0.3-3-0.4-3.3-2.5
	c-2.1-18.7-26.8-29.5-47.6-21.8c-5,1.8-9.9,3.8-15.4,4c-1.2,0-2.8,0.7-3.6-0.5c-0.9-1.4,0.6-2.4,1.3-3.3
	c9.1-11.9,32.7-20.9,48.6-10.4c11.7,7.8,23.8,9.8,37.1,4.9c6-2.2,12.3-3.8,18.5-5.1C315.8,25.2,323,26.2,330.4,30.3z"/>
<path class="st1" d="M428.6,184.4c13.6,3.6,24.7,16.5,26.5,29.5c2,13.9,9.2,25.4,19.3,35c5.3,5.1,10.6,10.1,13.6,17.1
	c1.8,4.2,1.5,8.3,0.4,12.9c-6.2-11.6-17.5-14.5-28.5-18.2c-14.5-4.8-23.1-14.8-25.5-30.2c-1.6-10.4-0.1-21-2.5-31.3
	C430.9,194.3,429.7,189.4,428.6,184.4z"/>
<path class="st1" d="M457.8,687.9c-1.4,3.1-3.6,4.5-5.4,6.2c-7.8,7.2-15.9,14.2-22.7,22.4c-9.6,11.8-23.7,14.9-37.3,18.4
	c-14,3.6-26.7,9.1-36.3,20.4c-1.6,1.9-3.4,2.9-6.2,2.5c-10.6-1.8-10.6-1.6-19.6,2c2.6-6.9,11.7-16.3,18.5-18.5
	c24.7-8.1,48.1-19,69.6-33.8c4.7-3.2,9.6-6.3,13.6-10.2C439,690.3,447.7,688.5,457.8,687.9z"/>
<path class="st1" d="M205.6,98.3c-11.8,10-32.6,11.9-46.4,4.6c-7.3-3.9-14.5-8-23.1-8.1c-2.3,0-2.1-1.2-1.5-2.9
	c5.8-17.1,27.9-26.1,41.5-12.4c1.4,1.4,3,2.7,4.5,4C188,89.8,194.7,96.9,205.6,98.3z"/>
<path class="st1" d="M47.2,251.9c0.1-4,1.6-7.6,2.8-11.3c3-8.9,3.8-17.8,1.8-27.1c-1.5-7.3-1.3-14.7,3.3-21.1c1-1.5,2.3-2.8,3.7-4
	c1.3-1,3-2.3,4.5-1.4c1.9,1.1,0.1,3-0.1,4.4c-1.6,11.9-0.1,23.4,5.4,34.2c1.5,3,2.7,5.8,2.3,9.4c-0.3,2.7,0.1,5.5,0.6,8.2
	c1.9,9.1,0.1,16.9-6.9,23.5c-6.7,6.4-6.5,6.5-12.4-1.2C49,261.4,47.8,256.7,47.2,251.9z"/>
<path class="st1" d="M136,166.1c-11-0.1-21.9-2.3-32.9-2.4c-7.9-0.1-15.4,0.8-22.2,5.1c-3.4,2.1-3.6,0.4-3.5-2.3
	c0-1.8,0-3.7,0.2-5.5c1-8.1,2.5-8.8,9.7-5.2c16.7,8.3,38.1-1.9,42.4-20.6c1.1-4.7,2.8-4.1,5.5-1.9c4.3,3.5,8.6,6.9,12.5,10.7
	c3.1,3,6.1,5.9,10.3,6.9c2.7,0.7,2.6,1.9,1.6,3.9c-3.4,6.8-9,10.5-16.4,11.2C140.8,166.3,138.4,166.1,136,166.1z"/>
<path class="st1" d="M464.8,209.4c-0.2-7.9,2.9-15.1,4.9-22.5c0.3-1.2,0.8-3.1,2.4-1.7c8.1,6.8,18.7,11.5,20.7,23.8
	c1.3,7.7-2,14.4-4.2,21.3c-0.8,2.4-2.1,4.7-3.1,7c-2.9,6.5-3.2,6.7-7.6,1.4C470.8,230.3,464.6,221.2,464.8,209.4z"/>
<path class="st1" d="M463,133.6c-0.6,4.1-1.5,10.1-2.4,16.1c-0.3,1.8-0.8,3-2.7,1.5c-6.1-4.6-13.8-5.8-19.9-10.4
	c-2.4-1.8-4.7-3.6-6.5-5.9c-4.2-5.4-4-8.5,0.6-13.4c4.1-4.3,7.4-9.2,8.6-15.1c0.9-4.1,2.7-3.7,5.6-2.2
	C457.3,109.8,463.2,119.3,463,133.6z"/>
<path class="st1" d="M93.1,357.3c0.1-11.4-2.1-22-6-33.1c-3.6-10.3-3.9-22.8,2.9-33.5c0.8-1.2,1.9-2.2,3.1-3.1c1.4-1,3-2.9,4.8-1.8
	c1.5,0.9,0.4,3,0.4,4.6c-1.3,24.2,2.7,48,5.1,71.9c0.6,5.7,0.3,11.4,0.5,17c0.1,4.4-2.3,4.1-4.9,2.5c-4.1-2.5-5.4-6.9-5.8-11.3
	C92.8,366.1,93.1,361.7,93.1,357.3z"/>
<path class="st1" d="M195.1,810.4c-8.3,4.1-15.4,9.3-25.1,5.3c-5.9-2.5-12.5-2.6-18.2,0.4c-7.6,4.1-14.5,4.1-21.8-0.3
	c-2-1.2-4.4-1.8-7.8-3.2c9.3-3.7,17.5-6.9,25.7-10.2c1.9-0.7,3.9-1.1,5.7-2.1c9.2-5.1,18-3.4,26.6,1.6
	C184.8,804.8,189.6,807.4,195.1,810.4z"/>
<path class="st1" d="M402.6,370.1c5.4,4.5,5.9,8.4,2.6,14.1c-4.3,7.4-6.4,16-11.2,23.2c-1.1,1.7-2.3,3.3-4.1,4.3
	c-2.7,1.4-5.8,1.3-7.9-0.2c-2.5-1.7,0.3-3.9,1-5.7C387.7,393,397.6,383.1,402.6,370.1z"/>
<path class="st1" d="M112.9,118.7c0,0.2-0.1,0.5-0.1,0.7c-0.1-0.1-0.3-0.2-0.4-0.2c0.2-0.1,0.4-0.2,0.6-0.4
	C113.1,118.8,112.9,118.7,112.9,118.7z"/>
<path class="st1" d="M68.5,156.1c-0.2-0.1-0.5-0.3-0.7-0.4c0.1-0.1,0.3-0.4,0.4-0.3c0.3,0.1,0.5,0.2,0.7,0.3
	C68.8,155.8,68.6,156,68.5,156.1z"/>
<path class="st0" d="M382.1,652.2c2.8,0.1,5,0.7,5.5,3.3c0.7,3.4-1.4,5.1-4.3,6c-9.5,3.1-19.1,5.6-29,6.6c-20.5,2.1-40.8,5-61.2,7.7
	c-15.3,2.1-27.5,9.7-38.5,19.8c-2.7,2.5-5.5,7-9.6,3.1c-4.2-4,0.1-6.9,2.7-9.5c12.5-12.7,27.2-21,45.1-23.2
	c17.7-2.2,35.2-5.4,53.1-6.5c10.3-0.6,20.3-3.1,30.3-5.7C378.2,653.1,380.3,652.6,382.1,652.2z"/>
<path class="st0" d="M221,609.1c0.3,28.8-5.1,56.6-14.3,83.7c-1,3-2.6,5.7-6.3,4.6c-3.5-1.1-3.8-4.1-2.9-7.2
	c2.6-9.2,5.6-18.3,7.8-27.5c5.8-24.9,6.4-50.2,6.1-75.6c0-0.9-0.1-1.8-0.1-2.8c0-3,0.9-5.7,4.3-5.9c3.5-0.2,4.7,2.4,5,5.4
	C221.6,592.2,220.9,600.7,221,609.1z"/>
<path class="st2" d="M338,418.3c-0.6-8.5,3.6-17.6,5.1-27.1c0.7-4.3,1.8-8.5,1.8-13c0-5-0.7-9.1-5-12.6c-2.6-2.1-4.2-5.8-4.1-9.8
	c0.1-3.1,0.1-6.2,0-9.4c-0.1-5.2-2.4-9.1-7.6-10c-4-0.7-6.2-3.3-7.7-6.3c-1.9-3.8-4.7-5.9-8.6-7.1c-3.5-1.1-6.4-3.1-5.2-7
	c1.1-3.8,4.6-2.9,7.9-2.6c7.9,0.7,14.2,5.5,21.7,7.3c7.8,1.9,15.4,4.4,23.2,6c4.1,0.8,6.5,3.4,8.6,6.2c3.8,5,8.1,5.8,12.8,1.9
	c0.8-0.7,1.4-1.7,2.3-2.3c2-1.4,4.3-1.2,6.3-0.5c2,0.7,1.3,2.8,1.5,4.3c1,7-1.9,11.5-8.3,14.2c-6.2,2.7-10.8,6.9-12,14.2
	c-0.5,2.9-2.4,5.5-5.3,7.3c-5,3-6.7,7.8-7.9,13.5c-2.4,11.8-1.5,24.1-6.3,35.4c-0.6,1.3-1.3,2.6-2,3.9c-1.8,3.1-4.3,5.3-8,4.5
	c-4.4-0.9-3.2-4.7-3.4-7.6C337.9,421.2,338,420.4,338,418.3z"/>
<path class="st2" d="M176.6,378.5c1.3-6.6,2.5-13.3,4-19.9c0.7-3.1,0.8-6.1,0.1-9.2c-1.7-7.5,0-14,5.9-19.3
	c4.6-4.2,6.3-11.6,3.9-15.9c-2.8-5.1-7.2-6.7-14.8-4.9c-7.5,1.8-14.9,2.8-21.6-2c-4-2.8-6.7-1.1-9.6,1.4c-1.7,1.5-3.3,4.2-6,2.9
	c-3-1.4-2.5-4.6-2.3-7.3c0.2-3.1,0.4-6.2,1.1-9.2c0.8-3.6,3.1-5.9,7.2-4.9c4.6,1.1,9,0.7,13.6-0.1c8.8-1.4,17.3,0.1,24.8,5
	c6.3,4.2,12.7,5.4,19.7,2.7c4.8-1.8,9.7-1.7,14.7-1.5c5.1,0.2,7.3,3.1,5.9,8.1c-1,3.7-3.4,6.4-6.7,8.3c-5.2,3-8.6,7.3-9.7,13.3
	c-0.7,4.3-3.5,7.2-6.8,9.6c-3.5,2.5-5.3,5.8-6.4,9.8c-2.9,10.1-2.3,20.7-5.4,30.7c-0.8,2.4-1.3,5.1-2.5,7.2c-1,1.8-2.8,3.9-5.3,3
	c-2.1-0.7-3.6-2.5-3.4-5.1c0.1-0.9,0-1.8,0-2.8C176.8,378.5,176.7,378.5,176.6,378.5z"/>
<path class="st0" d="M205.5,420.5c-5.7,0.1-11.1,1.1-16.3,3c-3.5,1.2-6.9,1.2-8.2-2.8c-1.3-3.9,1.8-5.6,4.8-6.8
	c12.6-5.2,25.9-8.3,39.2-11c4.5-0.9,8.8,0.2,12.6,2.7c3,1.9,6,2.4,9.4,1.1c8.1-3,15-1.1,21.4,4.5c6.6,5.8,13.7,11.1,19.5,17.8
	c1.4,1.7,2.8,3.4,3.8,5.4c1.2,2.3,1.1,4.7-0.9,6.6c-2.1,1.9-4.3,1.5-6.6,0.1C260.2,425.4,232.3,424.9,205.5,420.5z M264.2,421.2
	c-6.7-7.4-10.4-8.1-16.2-3.9C253.1,418.6,258.2,419.8,264.2,421.2z"/>
<path class="st0" d="M327.6,278.4c0.2,0,1.2-0.1,2,0.1c16.7,4.9,33.6,9.4,49,17.7c6.9,3.7,9.9,10.6,12.4,17.6
	c0.9,2.7,0.6,5.2-2.3,6.5c-3,1.4-5.3-0.4-6.1-3c-3.9-11.7-13.1-16.4-24-19.5c-7.6-2.2-14.9-5.2-22.3-8c-6.5-2.5-12.8-2.2-19.3,0.4
	c-3.1,1.2-2.5,2.3-0.9,4.2c2.5,3.1,6,4.2,9.6,4.9c12.5,2.3,24.9,4.6,37.2,7.7c5.9,1.5,9.5,5.3,12.4,10.1c1.3,2.1,1.1,4.3-0.9,5.9
	c-2,1.6-4.5,1.6-5.9-0.4c-7.2-9.7-18.6-8.3-28.4-11c-7.7-2.1-16-2.2-23.6-5.3c-6.1-2.5-9.4-7.5-12.7-12.5c-2.7-4.1-1.2-7.9,3.3-9.9
	C313.3,281.3,319.7,278.4,327.6,278.4z"/>
<path class="st0" d="M215.4,277.2c-4.7-6.9-10.7-9.8-18-10.7c-14.9-1.8-29.7-1.2-44.5,0.6c-2.2,0.3-4.4,0.5-6.6,0.7
	c-2.9,0.3-5.3-0.7-5.9-3.7c-0.7-3.5,1.7-5.1,4.6-5.7c3-0.7,6.2-0.8,9.3-1.2c15.9-2,31.9-2.5,47.8,0.3c12.1,2.1,19.9,9.7,25.1,20.3
	c2.9,5.8-1.5,11.4-8.1,10.3c-6.3-1-12.4-0.6-18.6,0.5c-7.9,1.4-15.7,0.8-23.5-1.3c-6.4-1.7-12.9-3-19.6-2.2
	c-3.3,0.4-6.1-0.5-6.4-4.3c-0.3-3.5,2.4-4.7,5.3-5.2c7.6-1.4,15.1-0.1,22.3,2c8,2.3,15.9,2.4,24,0.9
	C206.6,277.6,210.6,277.6,215.4,277.2z"/>
<path class="st0" d="M242.4,232.3c0.1,2.9-0.9,5.3-4,5.6c-3,0.4-4.5-1.5-5.4-4.4c-2.8-8.9-2.9-9.1-12.1-8.7
	c-23.7,0.9-47.3,2.1-70.6,6.9c-3.3,0.7-6.2,0.3-7-3.3c-0.8-3.7,2-5.3,5.1-6c15.6-3.6,31.4-5.4,47.4-6.1c10.4-0.4,20.8-1.6,31.3-1
	C237.9,216.1,241.1,222.5,242.4,232.3z"/>
<path class="st0" d="M394.1,277.5c-0.1,2-0.8,4.2-3.7,4.8c-2.8,0.5-5-0.9-5.3-3.5c-0.9-7.2-6-10.7-11.6-13.6
	c-14.6-7.6-29.3-15.2-44-22.6c-5.3-2.6-10.4-5.4-15.2-8.8c-3-2.1-5.1-4.7-2.6-8.3c2.5-3.4,5.3-1.6,8.1,0.2
	c14.2,9.2,29.9,15.6,44.8,23.4c6.8,3.6,13.6,7.2,20,11.5C390.4,264.4,393.6,269.9,394.1,277.5z"/>
<path class="st0" d="M254,269.5c-0.3,17.3-2.7,34.4-9.8,50.7c-1,2.3-2.4,4.5-3.8,6.6c-1.7,2.5-4,4.2-7,2.3c-3.1-1.9-2-4.5-0.6-7.2
	c10-19.7,12.8-40.7,10.8-62.5c-0.2-1.8-0.5-3.6-0.6-5.5c-0.1-3,0.7-5.7,4.2-6c3.1-0.2,4.6,2,5,4.8
	C252.9,258.3,253.4,263.7,254,269.5z"/>
<path class="st0" d="M212,437c11.6,0.6,22.7,4.3,34,6.3c4.1,0.7,8.2,2,12.2,3.3c2.3,0.7,4.3,2.1,5.9,3.9c1.7,1.8,2.2,3.9,0.7,6
	c-1.5,2.1-3.7,2.3-5.9,1.2c-13.9-6.8-29.4-7.4-44.2-11c-4.7-1.1-9,1-13.3,2.8c-3.1,1.3-6,1.4-7.5-2c-1.6-3.6,0.9-5.4,3.7-6.8
	C202.2,438.6,206.9,436.9,212,437z"/>
<path class="st0" d="M277.3,300.1c3.6-17.9,8.3-36.5,22.4-51.1c2.2-2.3,4.8-4.1,7.6-1.4c2.5,2.4,1.3,5.1-0.7,7.4
	c-11.4,12.8-16.2,28.5-19.4,44.9c-0.2,1.1-0.5,2.2-0.8,3.2c-0.8,2.6-2.5,4.1-5.3,3.6C278.8,306.4,277.4,304.2,277.3,300.1z"/>
<path class="st0" d="M246.7,339c6.6,0.3,13,2.1,17.7,7.7c1.9,2.2,3.6,4.6,1.3,7.3c-2.3,2.7-4.9,1.7-7.2-0.4
	c-5.7-5-12.1-6.5-19.3-3.7c-2.5,1-4.8,0.5-6-2.1c-1.4-2.9,0.2-4.9,2.6-6.3C239,339.7,242.6,339.1,246.7,339z"/>
<path class="st0" d="M209.8,346.5c2,0,3.3,0.9,4.1,2.5c0.9,1.6,0.7,3.5-0.5,4.6c-6.2,5.7-6.7,12.1-2.7,19.3c1.1,2,0.2,3.9-1.7,5.2
	c-1.7,1.2-3.7,1.2-5.1-0.2c-5.3-4.8-5.7-11.2-4.9-17.7c0.8-6,3.9-10.5,9.3-13.4C208.8,346.6,209.4,346.6,209.8,346.5z"/>
<path class="st0" d="M292.2,374c0,5.6-2.4,10.3-5.9,14.5c-2,2.3-4.4,3.6-7.2,1.4c-2.7-2.1-1.9-4.5-0.3-6.8c3.5-4.9,5.7-9.8,2.4-15.8
	c-1.1-1.9-0.3-4,1.9-5.1c2.3-1.2,4.2-0.5,5.8,1.5C291.2,366.8,292.3,370.2,292.2,374z"/>
<path class="st0" d="M237.8,392.8c-0.2-5.5,2.1-10.3,3.9-15.3c1-2.7,3.2-3.6,5.7-2.8c2.4,0.7,3.6,3,2.9,5.2
	c-1.7,5.8-3,11.6-3.2,17.7c-0.1,2.3-1.9,4.1-4.4,4.1c-2.8,0-4.2-1.9-4.6-4.5C237.9,395.7,237.9,394.3,237.8,392.8z"/>
<path class="st0" d="M275,377.3c-0.1,2.9-1.6,5-4.9,5.3c-3.6,0.3-9-6.7-8.7-11.2c0.2-2.8,1.8-4.4,4.5-4.6
	C269.8,366.5,274.9,372.3,275,377.3z"/>
<path class="st0" d="M227.9,359.3c2.8,0.2,5.2,1.6,5.3,5.2c0.1,2.7-5.4,6.9-8.9,6.8c-3.2-0.1-5.1-1.8-5.2-5.1
	C218.9,362.7,223.2,359.2,227.9,359.3z"/>
<path class="st2" d="M264.2,421.2c-6.1-1.4-11.1-2.6-16.2-3.9C253.8,413.1,257.6,413.8,264.2,421.2z"/>
</svg>
