<?xml version="1.0" encoding="utf-8"?>
<!-- Generator: Adobe Illustrator 25.4.1, SVG Export Plug-In . SVG Version: 6.00 Build 0)  -->
<svg version="1.1" id="Capa_1" xmlns="http://www.w3.org/2000/svg" xmlns:xlink="http://www.w3.org/1999/xlink" x="0px" y="0px"
	 viewBox="0 0 595.3 841.9" style="enable-background:new 0 0 595.3 841.9;" xml:space="preserve">
<style type="text/css">
	.st0{fill:#E167A3;}
</style>
<g>
	<path class="st0" d="M389.2,407.4c2.4,4.6-0.1,7.8-9.9,11.8c0.6-3.9,1-7.3,1.7-11.6c-8.5,3.3-16.3,6.1-23.8,9.3
		c-1.6,0.7-2.9,2.6-3.9,4.2c-3.6,5.9-8.9,6.9-15.4,6.9c-5.3,0-10.6,2.1-15.9,2.9c-1.3,0.2-3.9-0.8-4.2-1.8c-0.8-2.5-3.9-6.3,0.4-7.7
		c19.5-6.4,32.7-20.8,45.7-35.3c9.8-10.9,22.9-16.9,35-24.3c8.9-5.4,18-10.4,27.1-15.4c1.9-1,4-1.5,7.3-2.7
		c-2.2,9.6-4.2,17.9-6.2,26.9c2.6-0.6,4.7-1.2,7.5-1.8c-1.5,5.8-2.6,11.1-4.5,16.2c-0.6,1.7-3.1,3.3-5,3.9
		C412.2,392.8,400.2,398.6,389.2,407.4z"/>
	<g>
		<path class="st0" d="M497.9,170.2c3.4-9.4,6.2-18.5,9.9-27.2c4.5-10.8,10.2-20.9,18.5-29.3c5.9-6,10.7-6.3,15.2,0.6
			c4.9,7.6,8.8,16.1,11.9,24.6c2.9,7.9,5.6,16.4,5.6,24.6c0,7.3,1.8,12.3,5.9,18.2c3.6,5.2,4.1,12.9,4.8,19.7
			c0.6,6.4-0.3,13-0.5,19.5c-0.2,6.4-4,9.9-9.6,11.1c-13.8,2.9-26.7,1.2-37.5-8.8c-2.4-2.2-4.5-4.9-7.3-8c-2,4.1-3.8,6.9-4.8,10
			c-3.8,11.3-11.2,19.5-22,24.5c-3.9,1.8-4.2,4.2-3.6,8c2.6,18.1,5.4,36.3,7,54.5c0.7,7.7-1.7,15.7-2.6,23.6
			c-0.3,2.3-0.4,4.5-0.7,6.9c5.3-6.3,10.5-12.3,15.4-18.6c1.2-1.5,1.4-3.9,1.6-5.9c0.7-6.4,1.3-12.9,1.7-19.4c0.1-1.3-0.7-3.1-1.6-4
			c-11-10.7-10.2-24.6-10-38.1c0-1.8,2.7-4.7,4.6-5.3c10.7-3.3,20.5-2.5,27.9,7.4c2.6,3.5,5.8,6.6,8.3,9.5
			c5.6-4.9,10.5-10.4,16.5-14.1c6.4-3.9,13.8-6.3,20.8-9.2c4.4-1.8,7.2-0.2,9.2,4.2c6.7,15.3,2.1,29-5.9,42.1
			c-1.8,2.9-2.7,4.6-0.3,7.2c3.5,3.7,3.2,8.2,2.2,12.5c-1.9,7.9-3.9,15.7-6.4,23.5c-1.9,5.7-10,8.7-14.9,5.2
			c-7-5-13.5-10.9-20.8-16.9c-2.2,1.9-5.6,4.6-8.7,7.7c-0.8,0.8-1.4,2.7-1,3.7c6.5,16.6,3.9,33.8,4.1,50.9c0,0.9,0,1.8,0,2.6
			c0,0.3,0.3,0.6,0.5,1.1c19.6-5.1,38.3,0.8,57,5.4c5.5,1.4,7.1,4.2,3.9,8.8c-5.6,8.3-11.9,16.1-18.4,23.7c-1.7,2-5.3,2.8-8.1,3.4
			c-7.6,1.6-15.4,2.9-23.2,4.3c-1.1,9.8-7.7,17.4-16.5,22.9c-5.3,3.3-11.6,5.1-17.5,7.5c-3,1.2-5.3,0.5-7.3-2.3
			c-6.1-8.7-8.7-18-6-28.5c0.4-1.7,0.8-3.4,1.2-5.5c-1.2-0.1-2.2-0.4-2.8-0.2c-9.7,4.1-19.2,1.2-28.5-1.3c-7.7-2.1-8.2-3.2-7.8-11.3
			c0.1-2.3,0.4-4.5,0.6-7.5c-4.8,2.7-9.2,5.2-14.1,7.9c2.8,2.6,5.7,5,8.1,7.9c2,2.3,4.1,5,4.7,7.9c3.1,14.4,7.7,29,7.9,43.5
			c0.3,18.8-2.4,37.7-5.3,56.4c-1.5,9.8-6.3,19-9.9,28.4c-2.2,5.8-4.8,11.4-7.2,17.1c-2.5,5.9-4,6.7-10.1,4.5
			c-9.3-3.3-18.6-6.6-27.7-10.4c-27.5-11.5-49-30-64.6-55.5c-2.1-3.5-4.5-6.8-6.8-10.1c-0.3-0.4-0.7-0.6-1.5-1.2
			c-0.2,1.4-0.5,2.3-0.5,3.3c0.7,20.8-6.7,40.3-9.7,60.4c-1.8,12-10.5,19.7-16.8,28.9c-2.3,3.3-6,1.6-8.7,0.2
			c-10.7-5.7-21.3-11.6-32-17.4c-17.1-9.3-27.1-24.9-37.7-40.5c-8.2-12-8.7-25.1-10.1-38.3c-1.2-11.3-1.4-11.6-12.9-11.8
			c1.7,6.6,3.6,13.3,5,20.1c2.1,9.7-3.6,16.8-9,23.8c-0.8,1.1-4.5,1.1-6.1,0.2c-7.1-3.9-14.6-7.6-20.6-12.9
			c-4.6-4.1-7.8-10.3-10.7-16c-4.8-9.4-4.5-8.8-15.1-9.3c-8-0.4-15.8-3-23.7-4.8c-18.9-4.5-32.2-17.3-45-30.9
			c-1.1-1.1-2-2.4-2.9-3.8c-4.2-6.8-2.6-10.7,5.4-11.5c15.8-1.6,31.7-2.9,47.5-4c2.8-0.2,5.8,1,9.3,1.7c-0.7-1.5-1.5-3.2-2.2-4.8
			c-3.2-7.1-6.3-14.2-9.6-21.2c-4.4-9.3-6.1-19.1-6-29.3c0-3.2-1.3-4.5-4-5.8c-4.7-2.2-9-5.2-13.6-7.9c-1.8,11.5-11.8,16-20.3,21.5
			c-1.8,1.1-6.7,0.5-7.8-1c-6.8-9.4-13-19.2-19.2-29c-1-1.5-1.5-3.8-1.2-5.6c1.3-6.4-1.7-10-7-12.5c-5.8-2.7-9.1-7.7-11.6-13.2
			c-3.6-8-7.5-16-10.4-24.3c-2.4-6.6,0.3-9.3,7.1-7.3c11.6,3.5,23.4,6.9,34.5,11.7c6.6,2.8,12.2,8.2,18.5,12.6
			c1.8-4.7,3.4-9.6,5.5-14.4c3.4-8,13.8-12.5,21.7-9.1c2.3,1,4.6,3.5,5.6,5.8c5.1,12.2,10.4,24.5,6.7,38.3c-0.4,1.6-0.2,3.6,0.4,5.1
			c2.7,7,5.6,14,8.6,20.9c0.7,1.7,1.9,3.5,3.3,4.4c5.4,3.5,11.1,6.6,17.3,10.3c-11.6-29.5-20.2-59.8-23.4-91.5
			c-3.1,2-5.3,4.5-7.7,4.7c-2.5,0.2-5.1-2-7.7-3.1c-14.3-5.8-25.2-15.9-34.9-27.6c-0.7-0.8-1.4-1.6-2.2-2.3c-0.4-0.3-0.9-0.5-2-1
			c-1.4,3.6-2.7,7.2-4.1,10.7c-1.3,3.4-3.6,5.3-7.4,5.8c-12.2,1.8-24.4,4.9-36.3-1.3c-2.5-1.3-5.6-3.1-6.6-5.5
			c-4.3-10.2-8.2-20.6-11.8-31.1c-1.6-4.6-1.6-9.3,1.3-13.8c0.9-1.4,0.9-4.3,0-5.7C2.9,213.4,0.3,200.4,2,186.1
			c0.8-6.9-0.7-14.1-0.6-21.1c0.1-8.5,3.2-10.1,10.6-6.2c14.5,7.6,26.1,18.7,37.1,30.4c8.8,9.4,16.5,20,24.8,30.2
			c2.1-2.3,5-5,7.5-8.2c7.3-9.4,17.1-14.5,28.1-17.7c2.2-0.6,4.3-1.6,6.5-2.3c11-3.7,19,1.3,20.2,13.2c1,9.6,1.7,19.4,1.4,29.1
			c-0.2,4.2-3.4,8.3-5,12.6c-0.9,2.4-1,5-0.8,8c7.8-12.6,19.2-11.6,29.8-7.7c37.1,13.7,70.3,33.2,94.9,65.4
			c16.7,21.8,30.2,45.5,43.5,69.4c2.1,3.8,4.4,7.6,7.2,12.5c9.9-41.5,31.7-75.5,57.2-107.2c25.4-31.6,54.4-59.5,91.9-78.5
			c-1.1-1.7-2.2-3.7-3.6-5.6c-10.7-13.4-19.8-27.5-22-45c-1.3-10.9,2.2-14.7,13.3-13.6c13.5,1.3,24.8,7.6,35.9,14.7
			C485.9,162.1,491.7,166.1,497.9,170.2z M489.7,238.8c-1.9-2.6-4.2-5-5.6-7.9c-3.7-7.5-3.6-7.6,3.3-11.7c0.2-0.1,0.1-0.6,0.2-1.2
			c-3.2,0.3-6.5,1.2-9.5,0.6c-2.3-0.4-4.1-2.8-6.2-4.4c1.5-1,3-2.5,4.7-3c2.3-0.8,4.9-0.8,7.3-1.3c1.3-0.3,2.6-0.9,3.9-1.3
			c-0.2-1.5-0.3-2.8-0.5-5.1c7,3.5,3.1,12.1,8.6,15c6.5-6.3,3.8-13.7,1.4-20.8c8.7-1.2,11.7,1.7,12.4,10.2c4.3,1.3,8.1,2.5,13.1,4
			c-1.3-4-2.2-7.9-4-11.2c-0.3-0.5-4.7,1.2-7.5,1.9c-2.5-3.2-3.3-8.9-1.7-18.1c4.5,1.9,8.7,3.6,12.8,5.3c0.2-0.9,0.5-2.5,0.9-4.1
			c0.4-0.1,0.9-0.3,1.3-0.4c1.4,2.5,2.9,4.9,4.2,7.4c3.2,6.4,3.2,6.4-3.9,8.6c1.4,3.7,1.8,9.1,4.5,10.8c7.9,5,14.5,12.4,24.8,13.4
			c5.2,0.5,8.5-0.6,8.6-5.7c0.1-10.4-0.2-20.8-1.5-31.1c-0.8-6.6-6.3-9.5-13.6-8.2c6-11.5,3.8-22-2.2-32.1c-5.6,0.9-5.5,0.9-5.8-4.6
			c-0.2-3.3-0.7-6.7-0.9-10c-0.1-1.2,0.4-2.4,0.8-4.3c2,1.7,3.3,2.7,4.5,3.7c0.3-0.2,0.7-0.4,1-0.6c-3.2-5.4-6.4-10.9-9.5-16.3
			c-0.4,0.3-0.9,0.5-1.3,0.8c2,7.9,1.8,8.5-5.8,11.4c1.1-3.5,2-6.4,3-9.2c-0.6-0.3-1.3-0.6-1.9-0.9c-4,7-8.3,13.9-11.9,21.2
			c-1.4,2.9-1.8,6.6-1.6,9.8c0.3,5.5,1.6,10.9,2.1,16.3c0.7,8-5.7,12-10.7,17.1c0.4-5.7,0.7-11.4,1.1-17.1c-0.6,0-1.2,0-1.7,0
			c-0.7,2.7-1.6,5.4-2.1,8.1c-1.5,7.3-3,7.7-9.3,3.4c-10.1-6.8-19.9-14.1-30.7-19.7c-7.1-3.7-15.6-4.9-23.6-6.9c-1-0.3-3,1-3.6,2
			c-0.5,0.9,0.1,3.3,0.9,3.8c2.6,1.5,5.5,2.3,8.2,3.4c0.3-2.2,0.6-4,0.9-5.8c1.9,0.5,4,0.9,5.8,1.7c2.7,1.2,5.4,2.7,8,4.1
			c4,2.2,7.7,9,7.1,11.9c-9.6-3.4-19.3-6.9-29.2-10.4c0.1,11.1,9.8,26.9,20.4,38.1c-0.2-1.5-0.4-3.1-0.7-5.2c3.2-0.4,6.1-0.7,9-1.1
			c-6.6,9-5.1,17.3-1,25.7c0.7,1.4,0.3,3.3,0.4,5c-2.4-1.5-3.7-3.1-4.9-4.8c-2-3-4.9-3.9-7.8-2.2c-8.5,4.8-16.8,10-25.2,15
			c-0.1,0.7-0.2,1.4-0.2,2.1c8.2-2.2,10,3.5,12.1,8.4c6.8,16.1,8.1,10.7-6.2,20.8c-2.4,1.7-4.4,2-7.2,0.2c-4.2-2.7-8.7-4.8-13.1-7.2
			c-0.3,0.4-0.6,0.8-1,1.2c14.4,8.3,22.9,21.7,31.6,35.4c-5.9-1-11.4-2.5-16.4-5.2c-3.6-1.9-8.5-5-9.1-8.2
			c-1.6-8.7-8.5-10.6-14.3-14.1c-1-0.6-2.9,0.2-4.3,0.4c0,0.6,0,1.2-0.1,1.7c4.7,2.9,9.3,5.8,14,8.6c-0.7,1.1-0.9,1.7-1.2,2
			c-24.7,23.1-45.2,49.9-67.2,75.4c-1.3,1.5-2.5,3.5-3,5.5c-3.7,14.1-14.9,23.4-22.4,35.4c-0.8-5-1.5-9.8-0.7-14.4
			c0.9-4.8,3.1-9.3,4.9-13.9c1.6-4.4,3.3-8.7,5-13.1c-0.8-0.3-1.5-0.5-2.3-0.8c-4.4,13-10.5,25.7-12.6,39c-2,12.9-7.2,26.1-0.7,39.6
			c-0.5,0.1-1,0.3-1.6,0.4c-2.8-2.2-5.5-4.4-9-7.2c-1.4,7.3-6.2,6.3-10.8,5.6c-7.3-1.1-14.7-2.3-22-3.2c-2.3-0.3-5,0.1-7.2,1
			c-11.5,4.3-22.8,8.8-34.1,13.2c-3.3-4.6-6-7.9-8.3-11.4c-6.8-10.4-15.6-19.6-19.3-31.9c-1.4-4.6-7-6.1-11.5-4
			c-1.4,0.7-3,0.9-3.6,1c-1.6-7.5-2.2-14.6-4.7-21c-2.5-6.1-7-11.4-10.6-17c0.5-0.4,1-0.7,1.6-1.1c2.9,2.3,5.9,4.7,8.8,7
			c-9-21.8-29-34.8-42.5-54.8c5.6,1.8,9.5,0.8,9.6-4.3c0-3.5-1.9-7.1-2.8-10.3c-9.6,3-9.6,8.5-8.5,16.1c1.7,12.8,7.7,23.7,13.1,34.9
			c2,4.1,4.5,7.9,6.7,11.9c0.6-0.2,1.2-0.5,1.7-0.7c-1.4-5.2-2.9-10.4-4.3-15.6c0.5-0.1,1.1-0.2,1.6-0.4c8.5,10,11.7,22,13.4,36.3
			c-3.7-2.3-6.1-3.8-9.5-5.8c1.8,11.3,3.4,21.7,5.1,32.1c0.6-0.1,1.2-0.2,1.8-0.3c-0.9-4.4-1.8-8.7-2.7-13.1c0.5-0.2,1-0.3,1.5-0.5
			c1.1,1.3,2.2,2.6,3.3,3.9c7.9,9.2,15.7,18.6,23.8,27.7c5.4,6,11.3,11.6,16.9,17.5c1.1,1.2,1.7,2.8,2.5,4.3
			c-0.5,0.6-0.9,1.1-1.4,1.7c-7.8-3.6-15.6-7.2-23.6-10.9c-0.7,3.9-1.5,8.4-2.3,12.9c-0.6,0-1.1,0-1.7,0c-0.5-1.6-1.1-3.1-1.6-4.7
			c-2.1-6.4-2.5-14-6.5-18.8c-11.7-14-24.3-27.6-40.5-36.8c-5.5-3.1-8.9-6.7-10.4-12.9c-1.2-5.4-3.4-10.5-5.3-16
			c-2,1.3-2.8,1.8-3.9,2.6c-1.8-3.4-3.3-6.4-4.9-9.3c0.4-0.3,0.7-0.5,1.1-0.8c1.4,0.6,2.9,1.1,4.1,1.6c4.5-12.1,1.1-23.3-3.4-34.2
			c-1.1-2.6-3.1-4.7-4.7-7c-1.8,1.7-3.5,3.5-5.3,5.2c-0.2,0.2-0.6,0.3-1.2,0.5c-0.6-1.4-1.2-2.8-2-4.9c-5.7,6.7-7.2,14.4-9.6,21.6
			c-2,6.1-3.7,6.8-8.5,2.6c-8-7.1-15.9-14.5-26.5-17.8c-7.8-2.4-15.5-4.9-23.2-7.4c-0.3,0.5-0.6,1-0.9,1.6
			c3.4,7.2,6.8,14.3,10.1,21.5c3.4,7.6,9.1,11.8,17.5,12.5c2.6,0.2,5.2,1.3,8.1,2.1c-0.7,1.2-0.8,1.9-1.2,2.1
			c-7,4.8-7.3,6.6-2.2,13.5c1.6,2.1,3.1,4.4,4.7,6.5c-0.3,0.3-0.6,0.6-1,0.9c-1.2-0.4-2.4-0.8-5-1.7c5.2,7.2,9.6,13.1,13.8,19.2
			c2.5,3.6,3.8,2.9,5.7-0.7c2.3-4.2,5.4-8.1,8.6-11.8c0.6-0.8,3-0.1,4.4-0.1c1.8-6.3,2.6-12.5-1.2-19.3c-1.9-3.4-2.3-9-1-12.7
			c1.7-4.6,5.9-8.2,9.2-12.4c0.7,0.6,1.9,1.6,3,2.5c0.5-0.1,0.9-0.2,1.4-0.3c-4.8-6.8-4-12.8,1.8-19c3,7.6,6.3,14,8,20.9
			c0.7,3-1.6,6.9-3.2,10.1c-0.3,0.5-4.3-1-6.5-1.5c-0.5-0.1-1,0-1.9,0c0.7,3.6,1.3,6.9,1.9,10.2c-0.5,0.2-1.1,0.3-1.6,0.5
			c-2.3-3.7-4.6-7.4-6.9-11.1c-0.5,0.1-1,0.2-1.5,0.3c-0.2,1.3-0.9,2.9-0.5,4c5.9,14.5,11.9,29,30.5,32.1c-2,7.7,2.5,12.2,6.3,17
			c2.2,2.8,4.3,5.6,6.4,8.5c3,4.1,6.7,8,8.5,12.5c3.9,9.6,6.8,19.7,10,29.6c0.5,1.5,0.8,3.1,1.1,4.7c-0.5,0.3-1.1,0.6-1.6,0.9
			c-5-6.5-10-12.9-15-19.4c-0.6,0.4-1.2,0.8-1.7,1.3c2.3,4.5,4.8,8.8,6.8,13.4c0.9,2,0.9,4.4,1.3,6.6c-2.3-0.1-4.7,0.2-6.8-0.5
			c-4.1-1.4-8.1-4.9-12.1-4.9c-13.9,0-27.9,1.2-41.8,2c4.1,1.2,8.1,1,12.1,1.2c4.6,0.2,9.2,0.5,13.8,0.9c4.1,0.3,6.1,2.2,6.3,5.9
			c-11.3-5.2-21.9-4.8-32.5,3.1c7.2,6.1,13.5,12.9,21.1,17.4c7.4,4.3,16.2,6.1,24.4,9.1c0.1-0.3,0.2-0.6,0.3-1
			c-2.7-1.9-5.3-3.8-8-5.6c0.3-0.6,0.6-1.1,0.8-1.7c7.5,1.7,15.1,3.3,23.5,5.2c-1.4,1.7-2.6,3.2-4,5c1.4,0.1,2.6,0.3,3.7,0.1
			c9.1-1.6,14.6,2.2,17.4,10.9c3.3,10.4,10.2,17.8,20,22.8c10.4,5.4,11.3,5.2,14.8-6.2c0.4-1.3-0.1-3.6-1-4.5
			c-3.9-3.8-8-7.3-10.6-9.6c-3.1,0-5.8,0.4-5.9-0.1c-1-3.2-1.5-6.5-2.2-10.5c9.2,0.4,13.1,7.1,18.3,12.2
			c-4-14.1-12.2-25.2-25.2-34.1c11.2-0.5,20.1,4.5,21,11.2c2.6,0.4,5.3,0.9,8,1.3c0.4-0.5,0.8-1.1,1.2-1.6
			c-3.9-4.2-7.7-8.3-11.6-12.5c0.3-0.4,0.6-0.8,1-1.2c6.3,1.9,12.6,3.8,19.9,6c-0.9-5.2-1.4-8.6-2-12.1c0.5-0.2,1.1-0.4,1.6-0.6
			c2.9,3.5,5.7,7,9,11.1c-2-18.8-16.8-22.4-30.8-27.6c3.6-1.6,7.6-3.9,10.3-2.8c6.5,2.7,12.9,6.5,18.5,10.8
			c6.9,5.3,8.7,13.1,8.4,21.7c-0.1,4.9,0.2,9.1-3.4,13.2c-1.8,2-2.7,5.7-2.3,8.5c1.8,12.9,12.7,20.3,18.2,31c-1-8.7-2-17-3-25.3
			c0.7-0.2,1.3-0.5,2-0.7c6.3,9.9,11.7,20.5,20.8,27.1c2.9-7,5.8-13.7,8.6-20.5c0.5-1.2,1.1-2.7,0.7-3.7c-2.1-5.4-1-11.6,3.6-14.8
			c9.3-6.3,18.8-12.5,28.4-18.5c3.2-2,6.5-1.6,9.8,1.4c-9.1,8.2-18,16.2-26.9,24.2c0.3,0.3,0.5,0.6,0.8,0.9c4.2-3.5,8.5-7,12.7-10.5
			c0.6,0.4,1.3,0.8,1.9,1.2c-2.6,5.3-4.4,11.3-7.9,15.9c-7.4,9.6-15.8,18.5-23.7,27.8c-0.8,1-1.5,3.4-1,4c3.9,4.3,8.1,8.4,13.3,13.6
			c-0.6-3.1-0.8-4.7-1.3-6.2c-1.7-6.1-0.9-11.4,3.3-16.7c5-6.3,11.1-12.9,13-20.4c4.6-18.5,18.7-30.8,27-48.2
			c16.9,8.6,33.2,16.8,49.6,25.2c-5,3.1-9.2,5-12.6,7.9c-4.5,4-4.2,6.6,0.2,12.7c1.3-2.3,2.5-4.5,3.8-6.9c2.6,3.8,4.3,8,7.4,10.3
			c8.5,6.3,17.6,11.7,26.5,17.5c0.9,0.6,2.1,1.5,2.8,1.3c6.1-2.3,10.3,2.5,15.3,3.9c4,1.1,5.9,3.8,7.3,7.6
			c4.2,11.1,8.7,22.1,13.1,33.2c0.4,0.1,0.9,0.2,1.3,0.3c4.8-13.3,11.8-26.3,13.9-40.1c4.4-29.3,6-18.7-5.7-46.3
			c-0.3-0.7-0.9-1.3-0.8-1.9c0.3-4.8-0.7-10.5,1.6-14.1c1.9-2.9,2.4-4.9,1.1-7.2c-0.9-1.6-3.2-3-5-3.4c-11.5-2.4-11.6-2.3-9.7-14.3
			c0.5-3.3,0.2-5.8-3.5-7.1c-2.3-0.8-4.2-2.6-6.3-3.9c9.2-1.3,17.1,1,24,6.8c-0.7-5.8-1.1-11.1-6.2-14.7c-2.2-1.5-4.3-3.2-6-5.2
			c-1.7-2-2.8-4.5-4.2-6.8c2.4-1,4.8-2.1,7.3-2.9c2-0.6,4.4-0.3,6.1-1.3c8.2-4.7,17-8.9,21.6-18c0.4-0.8,1.3-1.3,3.3-3
			c-0.3,3.3-0.5,5.1-0.7,6.8c1,0.5,2,0.9,2.5,1.2c-0.4,2.8-0.8,5-1.1,7.2c-0.3-0.2-0.7-0.5-1-0.7c-2.1,3.4-4.1,6.7-6.2,10.1
			c0.5,0.4,1,0.9,1.4,1.3c7.2-6.2,15.2-10.8,24.2-13.2c0.3,0.4,0.6,0.8,0.9,1.3c-2.8,2.9-5.5,5.7-8.3,8.6c1.2,0.6,1.8,0.4,2.4,0.3
			c1.8-0.3,3.6-0.5,5.3-0.8c-0.1,1.7,0.3,3.6-0.3,5c-1.4,3.4-3.4,6.5-5.4,10.4c4.4-1.2,8.5-2.3,12.5-3.3c6.8-1.7,8.5,0.1,7,6.9
			c-1.1,4.6-2,9.3-3,13.9c0.5,0.2,1.1,0.3,1.6,0.5c2.3-4.7,4.7-9.4,7.1-14.3c6.4,4.9,6.7,7.3,1.6,11.9c-2.2,2-4.7,3.8-6.9,5.7
			c-4.1,3.6-0.5,6.6,0.7,9.9c1.3,3.3,3.5,2.8,6,1.7c3.7-1.7,8-2.5,11.1-5c4.7-3.8,9.2-8.2,12.5-13.2c1.5-2.3,0-6.7-0.4-10
			c-0.4-3.1,0-5,3.8-5.4c5.3-0.7,10.6-2,15.9-3c1.8-0.4,3.7-0.6,5.5-0.9c0.4,0.7,0.8,1.4,1.2,2.1c-1.9,0.9-3.9,1.8-5.8,2.7
			c13.2,1,27.3-10.5,31.4-24.3c-9.6-1.9-18.8-6.1-28.9-3.8c-0.6,0.1-1.6,0.2-2-0.2c-4.2-4.5-9.4-2.4-14.2-2.6
			c-0.4,4.6-7.1,9.7-15.2,11.1c2.7-3,4.7-5.1,7.5-8.3c-9.2,3.4-9.5,3-9.2-5.4c0.3-8.6,0.1-17.3,0.1-25.9c-0.8,6.2-1.7,12.4-6.7,17.3
			c-1.6-9-5.8-17.5-3.9-26.8c1.5-7.6,3.1-15.2,4.9-22.8c0.4-1.6,1.2-3.4,2.4-4.5c4.7-4.5,9.7-8.7,14.6-13c2.5-2.1,4.8-1.9,6.8,0.7
			c0.9,1.1,1.7,2.3,2.6,3.4c0.2-0.1,0.4-0.3,0.6-0.4c-1-3.4-2-6.9-3-10.3c0.6-0.3,1.2-0.5,1.8-0.8c4.6,5.9,9.2,11.8,13.9,17.7
			c-0.4,0.4-0.8,0.9-1.2,1.3c-2.9-1.5-5.7-3.1-8.6-4.6c-0.4,0.6-0.8,1.2-1.2,1.8c4.7,3.5,9.2,7.2,14.2,10.2c0.9,0.6,4.5-1,5-2.3
			c2.3-6,4-12.2,5.9-18.3c-0.4-0.1-0.7-0.3-1.1-0.4c-2,2.4-4,4.9-6,7.3c-0.6-0.2-1.2-0.4-1.8-0.6c2.6-10.7,10.3-21.4-0.2-32.6
			c3,0,4.7,0.3,6.3-0.1c1.4-0.3,3.3-1,3.8-2c2.4-5.4,4.3-10.9,6.4-16.4c-0.3-0.1-0.6-0.2-0.8-0.3c-2.1,2.6-4.2,5.2-6.4,7.7
			c-0.5-0.3-0.9-0.6-1.4-0.9c2.9-7.6,12.6-13.9,4.7-23.6c-1.2,0.3-2.7,0.4-3.9,1.1c-6.4,3.9-15.8,3.4-19,12.4
			c-6.4,0-8.5,5.6-11.4,9.6c-2.8,3.9-5.2,3.8-8,0.6c-3.8-4.2-7.7-8.3-11.2-12.7c-5.7-7.3-12.7-7.1-20.8-4.3
			c0.9,11.5-1.1,23.6,9.3,32.3c3.9,3.3,4.8,6.9,2.4,11.7c-1.1,2.1-0.7,4.8-1,7.3c0,0.2,0.3,0.5,0.5,0.7c1.4-0.5,2.8-1,5.4-2
			c0,3.1,0.8,5.8-0.2,7.6c-2.5,4.6-5.3,9.3-9,12.8c-11.5,11.1-17.7,25.2-24.6,39.2c-2.5,5.1-7.1,9.1-10.7,13.6
			c-0.6-0.4-1.2-0.8-1.9-1.1c0.9-3,1.8-6.1,2.8-9.1c-0.3-0.1-0.5-0.2-0.8-0.3c-2.7,3.3-5.4,6.6-8.1,9.9c-0.8-0.4-1.6-0.8-2.4-1.2
			c10.1-22.6,15.7-46,13.4-71c0.6,0,1.2,0,1.8,0c2.1,1.9,4.1,3.9,7.1,6.7c0-4.3,0.3-7.5,0-10.6c-0.8-7.8-0.2-15.9-6.2-22.4
			c-1.1-1.2-0.8-4.3-0.1-6.2c2.3-6.3,2.1-7.7-3.4-11.7c-0.5-0.4-1.1-1-1.2-1.6c-0.9-8.2-1.8-16.4-2.7-24.6c2.4,1.2,3.5,3.3,5.1,4.6
			c1.5,1.3,4.2,3.1,5.4,2.6C485,243.8,489.5,243.6,489.7,238.8c1.4-0.3,3.2-0.1,4.1-0.8c7-5.5,9.3-13.5,11.6-21.7
			c-4.1,2.1-6.7,5.2-8.4,9.6C495.3,230.4,492.2,234.5,489.7,238.8z M152,256.4c3.3,15.4,8.8,30,7.7,45.8c-0.1,1.9-0.6,4.3,0.3,5.7
			c4.5,7,9.4,13.7,14.1,20.5c-0.9-8.4-6.2-15.4-5.8-24c4.8,5.9,9.5,11.9,12.8,18.5c3.3,6.6,5.3,13.9,8.4,22.5c0-5.8,0-10.1,0-15.8
			c4.5,3.3,9.3,5.1,10.7,8.3c2.3,5.3,2.3,11.6,3.2,17.5c-0.6,0.5-1.2,1-1.9,1.5c-2.6-7.4-7.5-7.4-13.2-6c-2.9,0.7-3.9,2-3.4,4.7
			c1.2,5.9,1.2,12.2,7.4,16.1c2.4,1.5,3.3,5.3,5.1,7.9c1.5,2.2,3.3,4.2,5,6.3c-4.9-8.8-4.4-18.3-5.2-27.5c1.2,0.4,2,0.9,2.2,1.6
			c2.4,8.8,9.3,11.5,17.1,14.4c16.8,6.3,33.3,13.5,49.7,20.8c8.7,3.9,16.9,8.7,25.4,12.9c3,1.5,6.3,2.2,9.4,3.3
			c0.4-0.6,0.7-1.2,1.1-1.7c-4-4.4-8-8.7-11.9-13.1c-0.9-1.1-1.4-2.5-2-3.9c-0.7-1.6-1.1-3.4-2.2-4.7c-1.3-1.6-3.3-2.6-4.8-4
			c-16.6-15.6-33.2-31.1-49.6-46.9c-5.5-5.3-13.1-8.6-15.7-16.6c-0.3-0.9-1.4-1.5-2.3-2.2c-6.8-5.1-13.7-10-20.3-15.3
			c-2.3-1.8-4.3-4.2-5.6-6.8c-3.3-6.6-6.2-13.5-9.2-20.2c-0.4-1-0.6-2-0.9-3c0.4-0.3,0.8-0.6,1.1-0.9c13.7,10.7,27.5,21.3,41.2,32
			c0.3-0.4,0.6-0.8,1-1.2c-3.6-3.2-7.1-6.4-10.9-9.5c-4.2-3.4-0.9-6.6,0.6-9.3c1.6-2.9,3.8-0.9,5.7,0.5c5.6,4.3,11.3,8.6,17.6,13.3
			c-1.4-2.1-2.3-4.4-4-5.6c-13.5-9.2-27.1-18.4-40.9-27.2c-5.2-3.3-11.2-5.6-18.4-9.1c5.6,13.9,3.2,26.3,1.9,38.8
			c-1.4-1.3-1.9-2.7-2.1-4.2c-0.7-4.4-0.5-9-1.9-13c-2.8-8.1-6.4-16-9.7-24c-0.3-0.8-0.9-1.6-1.6-2c-7.1-4.6-17.4-0.1-19,8.3
			c-0.8,3.9-1.5,7.8-2.4,12.6c-5.9-6.2-11.2-11.7-16.4-17.3c0.4-0.1,0.8-0.2,1.2-0.2c-1.8-4.4-3.7-8.8-5.8-13.8
			c9.4,0.7,7.6-8.6,13.6-12.8c-0.4,3.5-0.3,5.8-1,8c-0.7,2.3-2,4.3-3.1,6.5c10.8-9.6,5.4-21.7,6.2-32.2c-3.5,0-6.3,0.5-8.7-0.1
			c-5.5-1.4-10.8-2.7-15.9,0.8c-0.1,0.1-0.6-0.3-2-0.9c3.7-3.9,7.3-7.5,10.8-11.2c-5,0.6-9.4,2-13.4,4
			c-10.9,5.2-18.4,13.7-23.6,24.5c-0.8,1.7-2.5,3-3.8,4.6c-1.5-1.5-3.4-2.8-4.5-4.6c-3-4.9-5.7-10-8.6-15.1
			c-0.5,0.3-1.1,0.6-1.6,0.9c2.9,6.2,5.8,12.4,8.7,18.6c-0.4,0.3-0.7,0.5-1.1,0.8c-4.5-4-9.8-7.3-13.4-12
			c-4.4-5.8-8.5-12.4-10.4-19.3c-1.2-4.2-2.7-7.7-5.1-11.1c-2-2.9-4.3-5.6-6.2-8.6c-5.4-8.3-14.4-8.4-22.6-10c-0.2,0-0.6,0.4-2,1.3
			c1.5,3.3,3.2,6.8,4.7,10.3c1.5,3.7,2.7,7.5,4.1,11.6c-2.7,0.3-3.9,0.4-6.5,0.7c3.2,10.4,6.3,20,9,29.8c0.6,2,0.1,4.9-1,6.7
			c-2.2,3.6-3.2,6.9-1.7,11c3.6,9.6,7,19.2,10.7,28.7c0.4,1.2,1.6,2.5,2.8,2.9c4,1.4,8,2.8,12.2,3.6c8.1,1.6,15.6-4.9,16.2-13.1
			c0.1-2,1.3-4,2.1-6.1c-3.6-3.7-8.9-7.1-11.1-12c-2.1-4.7-1-10.9-1.2-16.4c6.1,3.7,4.8,11.4,11.2,15c-3.1-9.8,3.9-9.9,9.8-11.5
			c2.9,5.4,7.3,10.2,7,17.8c-4-2.4-7.2-4.3-10.4-6.2c-0.3,0.5-0.7,0.9-1,1.4c0.6,2.4,2.3,5.2,1.5,7c-1.9,4.8,1.3,6.9,3,9.5
			c5.1-6.9,10.2-13.8,15.3-20.6c0.2-0.3,0.9-0.3,2.3-0.7c0,3.7,0.3,7.1-0.1,10.5c-0.7,6.1,1,8.7,7.8,10c-0.4-5.5-0.8-10.9-1.2-16.3
			c0.5-0.1,1.1-0.3,1.6-0.4c1.1,1.7,2.2,3.4,3.4,5c1.6,2,3.1,4.5,5.3,5.7c9,5.3,15.6,11.8,14.3,23.3c-0.2,2.2,0.2,4.6,0.9,6.8
			c0.6,2,1.9,3.8,3.2,6.2c4.1-5.4,7.5-9.9,11-14.5c0.4,0.3,0.9,0.6,1.3,0.9c0.6,3.8,1.1,7.6,1.7,11.3
			C137.5,278.1,142.7,266.4,152,256.4z M310.4,517.8c-8,14.6-12.3,30-21.8,43c-0.6,0.8-1,2-0.9,2.9c0.6,7.2,0.9,14.5,2.5,21.5
			c0.5,2.3,4.6,4,7.4,5.5c0.9,0.5,3.3-0.2,3.9-1.1c5.6-7.6,12.2-14.4,13.5-24.7c1.4-10.7,4.4-21.3,6.7-31.9
			c-2.9,6.3-4.8,12.9-6.5,19.5c-1.7,6.5-9.5,12.2-17,12c3.3-7.5,7.5-14.6,9.5-22.2C309.7,534.7,309.6,526.4,310.4,517.8z
			 M435.5,576.8c-0.5-2.9-0.6-4.1-1-5.1c-4.1-11.2-8.6-22.3-12.4-33.6c-2-5.8-6.3-6.7-11.6-7.8c0.1,1.6,0,2.6,0.3,3.5
			c3.3,10.8,9.4,20.9,8.3,32.9c-0.1,1,1.4,2.5,2.5,3.1C425.7,572,429.9,574,435.5,576.8z M263,345.3c0.4,18.1,11.1,31.4,24.1,29.5
			c-3.8-5.2-7.7-9.9-11-15c-3.2-4.9-5.7-10.3-8.1-14.7c0,0.2-0.3,1.7-0.7,3.8C265.8,347.6,264.6,346.6,263,345.3z M88.9,271
			c6,5.3,12.1,10.5,18.6,16.1C110.7,278.7,99.7,269.2,88.9,271z M256.8,566.8c0.6-0.4,1.2-0.9,1.7-1.3c-5-6.6-9.9-13.2-14.9-19.9
			c-0.5,0.3-0.9,0.7-1.4,1C242.8,556.5,249.6,561.8,256.8,566.8z M360.5,534.4c2.2-11-5.6-14.6-13.1-18.3
			C351.7,522.2,356.1,528.3,360.5,534.4z M327.2,465.4c-0.4,0.1-0.9,0.2-1.3,0.3c0.3,3.8,0.7,7.7,0.9,11.5c0.2,3.8,0,7.7,0,11.5
			c2.1,1.6,4.1,3.3,7.2,5.7C331.6,484,329.4,474.7,327.2,465.4z M244.2,324.5c-4,8.3-3.1,12.6,3.5,16.1
			C246.6,335.1,251.5,328.9,244.2,324.5z M379.8,543.7c5.2-6.2,2-12.2,0.6-18.1c-0.5,0-0.9,0-1.4,0.1
			C379.3,531.6,379.5,537.7,379.8,543.7z M257.8,327.6c0.5-0.5,1-0.9,1.5-1.4c-4-5.1-7.9-10.3-11.9-15.4c-0.7,0.5-1.3,1-2,1.6
			C249.6,317.5,253.7,322.6,257.8,327.6z M339.7,336c-4.7,5-4.9,10.3-0.9,16.3C339.2,346.2,339.5,341.1,339.7,336z M123.6,195.3
			c-0.5,0.3-1.1,0.6-1.6,0.9c0.3,2.8,0.6,5.6,1,9.1c2.5-1.3,4.2-2.1,6.6-3.3C127.2,199.4,125.4,197.4,123.6,195.3z M242,310.9
			c2.8-5.9-1.8-7.6-4.1-10.6c-0.6,0.3-1.2,0.7-1.8,1C238.1,304.5,240,307.7,242,310.9z"/>
		<path class="st0" d="M328.3,453.4c5.2-3.4,9.5-5.7,14.9-4.7c9.2,1.8,18.5,3.1,27.4,5.7c6.8,2,13.2,5.6,19.6,8.9
			c8.9,4.6,17.7,9.4,26.5,14.3c1.8,1,3.6,2.3,4.9,3.8c1.1,1.3,1.6,3.2,2.4,4.8c-1.7,0-3.5,0.2-5.2,0.1c-14.2-0.6-25.2-10-38.2-13.9
			c-16.5-5-32.6-11.4-48.8-17.2C331,454.9,330.3,454.4,328.3,453.4z"/>
		<path class="st0" d="M383.7,356.6c3.9-5.4,6.7-12.5,11.9-15.9c18.5-12.2,37.8-23.2,56.9-34.7c0.5-0.3,1.3-0.3,2.3-0.5
			c0.2,1,0.8,2,0.5,2.6c-3.2,7.6-6.5,14.2-14.9,18.5c-17.7,9-34.5,19.8-51.7,29.8c-1,0.6-2.1,1.1-3.1,1.7
			C384.9,357.6,384.3,357.1,383.7,356.6z"/>
		<path class="st0" d="M261.9,454.5c-1,1.6-1.8,3.4-2.9,4.9c-1.9,2.4-4,4.6-5.9,6.8c-2.2,2.6-4.8,5-6.6,7.9
			c-2.1,3.2-3.5,6.8-5.2,10.2c-0.7-0.1-1.4-0.3-2-0.4c0.3-3.8,0.4-7.6,0.8-11.3c0.5-4.8,0.2-9-5.9-9.3c-0.5-7.9,9.1-17.3,18.3-17.8
			c-0.2,2.7-0.4,5.4-0.6,8.1c0.4,0.1,0.8,0.1,1.3,0.2c0.2-1.8,0.9-3.6,0.7-5.3c-0.4-3.8,1.5-6,4.8-6.3c14.4-1.2,28.8-2,43.1-2.9
			c0.6,0,1.2,0.6,3.2,1.8c-3,0.5-4.5,0.7-6.1,0.9c-9.9,1.5-19.9,3-29.8,4.4c-5,0.7-7.4,3.5-7.3,8.5
			C261.7,454.9,261.9,454.5,261.9,454.5z"/>
		<path class="st0" d="M422.3,527.3c-1.3-0.6-2.7-1-4-1.7c-9.4-4.8-18.7-10-28.2-14.5c-7.4-3.5-12.2-9.5-17.1-15.4
			c-2.1-2.4,0.6-12.6,3.3-12.3c2.8,0.3,6.8,2,7.8,4.3c5.2,11.7,16.6,16.4,25.6,23.7c5.1,4.1,9.3,9.3,13.9,14
			C423.2,526,422.7,526.6,422.3,527.3z"/>
		<path class="st0" d="M465.9,270.2c2.3,0.2,4,0.3,4.8,0.3c2.8,7.5,5.5,14.4,8.1,21.3c-0.5,0.4-1,0.7-1.6,1.1
			c-4.4-2.9-9.7-4.7-11.6-10.6c-1.9-6-3.6-12.2-5.3-18.3c-0.9-3.4,5-10.5,8.4-10c0.8,0.1,2,1.3,2,2c-0.4,4.3,2.6,9.8-4,12.1
			C466.5,268.3,466.4,269,465.9,270.2z"/>
		<path class="st0" d="M265.2,512.1c-16.6,0.1-28.2-21.9-16.5-36.1C250.9,490.2,256.2,502,265.2,512.1z"/>
		<path class="st0" d="M425.3,425.1c-2.3,0.1-4.6,0.3-7.7,0.5c1.2,2.5,2.3,4.4,3.2,6.4c0.9,1.9,1.8,3.9,2.1,6.3
			c-10-3.9-20.3-7.2-23.8-20.2c9.5-0.4,17.9,2.3,26.2,5.4C425.3,424.1,425.3,424.6,425.3,425.1z"/>
		<path class="st0" d="M507.5,269.2c-0.6-1.1-1.4-1.8-1.4-2.6c-0.2-1.8-0.1-3.7,0-5.5c1.4,1,3.3,1.7,4.1,3c3,4.9,6.6,9.7,8.1,15.1
			c0.9,3.3-1.6,7.6-2.6,11.9C503.9,282.2,501,274.1,507.5,269.2z"/>
		<path class="st0" d="M522.8,296.5c-0.6-6-1.1-12.1-1.7-18.1c14.6,7.8,17.4,15.1,13.2,34.3c-3.7-0.2-4.7-2.7-4.6-5.7
			c0.1-4.6,0.7-9.1,0.9-13.7c0-1.4-0.8-2.9-1.2-4.4c-1.2,0.9-2.8,1.5-3.6,2.7c-1,1.4-1.5,3.3-2.1,5
			C523.3,296.6,523,296.5,522.8,296.5z"/>
		<path class="st0" d="M393.6,412.8c10-6.1,20.5-9.6,32-6.5c1.7,0.5,2.7,3.3,4.1,5c-0.3,0.5-0.6,1-0.9,1.5
			C417,412.8,405.3,412.8,393.6,412.8z"/>
		<path class="st0" d="M185.5,488.4c-2-0.9-3.6-1.4-4.9-2.3c-5.4-3.6-10.8-7.2-16-11.1c-3.6-2.7-4-6.8-4.4-11.2
			C170.1,466.1,182.9,478.5,185.5,488.4z"/>
		<path class="st0" d="M399.7,432.6c-3-1.7-6-3.3-8.9-5c-4.1-2.4-8.1-2.7-12.6-1c-6.4,2.5-12.9,4.6-19.4,6.9
			c-1.4,0.5-2.8,0.8-4.2,1.1c-0.2-0.4-0.4-0.8-0.6-1.2c1-0.7,1.8-1.8,2.9-2.1c11.2-3.7,22.4-7.3,33.6-10.8c0.9-0.3,2.4-0.2,2.9,0.3
			c2.7,3.4,5.1,7,7.6,10.6C400.6,431.8,400.2,432.2,399.7,432.6z"/>
		<path class="st0" d="M80.4,371c0-7.6-0.1-14.7,0.1-21.8c0-0.8,2-2.1,3.1-2.1c1,0,2.6,1.1,3,2.2C89.8,356.2,87.4,365,80.4,371z"/>
		<path class="st0" d="M431.4,533.9c12.3,5.8,15.5,16.5,8.1,24.1C436.7,549.7,434,541.8,431.4,533.9z"/>
		<path class="st0" d="M251,438.1c-6.8,5.2-12.5,9.6-18.6,14.3C228.6,440.4,239.7,435.2,251,438.1z"/>
		<path class="st0" d="M520.5,404.6c0.4,4.1,2.1,8.5,0.6,10.4c-3.1,3.9-8,6-13.9,4.7C508.7,412.7,512.9,408.2,520.5,404.6z"/>
		<path class="st0" d="M196.5,415.7c-8.2-3.2-18.4-17.7-16.4-23.2C183.9,393.7,196.3,411.2,196.5,415.7z"/>
		<path class="st0" d="M314.7,457.1c-4.7,6.4-16.9,10.8-22.4,8C294.7,460.7,310.7,455,314.7,457.1z"/>
		<path class="st0" d="M469.7,350.1c-4.5,9.4-8.6,17.8-12.6,26.2C454.2,368.6,462,352.3,469.7,350.1z"/>
		<path class="st0" d="M525.1,166.6c4-5,7.3-9.1,11.2-13.9C538.9,164.4,536.1,168.3,525.1,166.6z"/>
		<path class="st0" d="M491.6,417.9c3.1-6.6,8.7-9.3,15.3-7.9C504.1,416.5,499.8,418.7,491.6,417.9z"/>
		<path class="st0" d="M541.3,209.1c-1.2-4.8-2.4-9.7-3.7-14.9C546.1,194.9,547.8,201.3,541.3,209.1z"/>
		<path class="st0" d="M531.1,182.7c-2.5-5.2-0.8-9,3.2-11.9c0.6-0.4,2.6,0,2.9,0.6C539.9,176,537.2,181,531.1,182.7z"/>
		<path class="st0" d="M327.2,394.5c-3.3,6.3-6.5,12.6-10.1,19.4C314.6,407.8,319.2,398.6,327.2,394.5z"/>
		<path class="st0" d="M577.7,403.2c-1.8,6.7-5.6,9.1-11.7,7.7C567.6,405.6,572.2,402.4,577.7,403.2z"/>
		<path class="st0" d="M134.6,452.7c5.9,2.3,12.8,2.7,16.2,9.4c-0.2,0.5-0.5,0.9-0.7,1.4c-5.5-2.9-11-5.8-16.6-8.7
			C133.9,454.1,134.3,453.4,134.6,452.7z"/>
		<path class="st0" d="M547.2,160.9c-0.6,4.7-1.3,9.4-2.2,15.9c-2.1-2.3-4.3-3.8-4.1-4.7C541.8,168,542.1,163.4,547.2,160.9z"/>
		<path class="st0" d="M116.7,370.2c-5.8-1.2-8.7-4.5-9.2-10.5C113.5,360.5,117.1,364.6,116.7,370.2z"/>
		<path class="st0" d="M457.9,193c-3.5-4.2-6.7-8-10.6-12.7C455.8,181.4,460.3,187.1,457.9,193z"/>
		<path class="st0" d="M59.6,329c-4.8-4.2-9-7.9-14-12.3C52.5,316.5,59.1,322.4,59.6,329z"/>
		<path class="st0" d="M439.7,473.9c-2.9-2.4-5.7-4.8-10-8.4c4.3,0,7.9-1.1,9.7,0.3c1.7,1.4,1.6,5.2,2.2,7.9
			C440.9,473.8,440.3,473.9,439.7,473.9z"/>
		<path class="st0" d="M110.1,471.3c-2.8-1.9-5.6-3.8-8.4-5.8c0.3-0.8,0.6-1.7,0.9-2.5c2.8,0.6,5.8,0.8,8.2,2c1,0.5,0.6,3.5,0.9,5.3
			C111.2,470.7,110.6,471,110.1,471.3z"/>
		<path class="st0" d="M540.6,299.9c1.3-3.2,1.7-6.8,3.1-7.2c4.1-1.2,5.2,2.6,7,6C547.6,299.1,545.1,299.4,540.6,299.9z"/>
		<path class="st0" d="M414.8,510.2c-3.5-2.5-7.1-5-11.2-7.9C410.4,500.6,414.3,503.1,414.8,510.2z"/>
		<path class="st0" d="M505.7,353.3c-0.6-3.1-1.3-6.2-2.1-10.1c6,2.6,6.2,3.4,4,9.7C506.9,353,506.3,353.1,505.7,353.3z"/>
		<path class="st0" d="M503.6,192.8c-2.6-4-4.5-7-6.8-10.5C502.4,182.3,504.6,185.5,503.6,192.8z"/>
		<path class="st0" d="M261.9,454.5c0,0-0.2,0.4-0.2,0.4c1.2,0.8,3.6,2.1,3.5,2.3c-0.8,2-2.1,3.8-3.2,5.6c-0.5-0.3-1.1-0.6-1.6-0.9
			C260.9,459.5,261.4,457,261.9,454.5z"/>
		<path class="st0" d="M523.8,315.5c0.2-2.9,0.4-5.7,0.7-8.6c0.9,0.1,1.8,0.1,2.7,0.2c-0.2,2.8-0.4,5.7-0.6,8.5
			C525.7,315.6,524.8,315.5,523.8,315.5z"/>
		<path class="st0" d="M76.4,360.6c-4.4-2-4.9-5.4-1.4-11.3C75.5,353.9,75.9,357,76.4,360.6z"/>
		<path class="st0" d="M42.3,215.7c-9.7,0.3-19.2-6.3-20.4-15.6c7.6,5,14.4,9.5,21.2,14C42.8,214.6,42.5,215.2,42.3,215.7z"/>
		<path class="st0" d="M15.6,209.8c3.6,3.2,8.8,7.6,13.8,12C24.2,223.5,15.4,213.8,15.6,209.8z"/>
		<path class="st0" d="M38.9,243.5c2.1,6.1,3.8,11.3,5.9,17.3C36.6,257.5,34.3,250.8,38.9,243.5z"/>
	</g>
</g>
</svg>
