<?xml version="1.0" encoding="utf-8"?>
<!-- Generator: Adobe Illustrator 25.4.1, SVG Export Plug-In . SVG Version: 6.00 Build 0)  -->
<svg version="1.1" id="Capa_1" xmlns="http://www.w3.org/2000/svg" xmlns:xlink="http://www.w3.org/1999/xlink" x="0px" y="0px"
	 viewBox="0 0 595.3 841.9" style="enable-background:new 0 0 595.3 841.9;" xml:space="preserve">
<style type="text/css">
	.st0{fill:#232323;}
	.st1{fill:#1C1C1D;}
	.st2{fill:#272727;}
	.st3{fill:#1B1B1B;}
	.st4{fill:#FAF9FA;}
	.st5{fill:#262627;}
	.st6{fill:#FAF9F9;}
	.st7{fill:#1B1B1C;}
	.st8{fill:#1D1D1E;}
	.st9{fill:#2A2A2A;}
	.st10{fill:#F7F6F6;}
	.st11{fill:#222222;}
	.st12{fill:#FCFBFB;}
	.st13{fill:#181818;}
	.st14{fill:#292929;}
	.st15{fill:#F9F8F8;}
	.st16{fill:#F5F3F3;}
	.st17{fill:#F6F5F5;}
	.st18{fill:#2E2E2E;}
	.st19{fill:#030404;}
	.st20{fill:#F4F3F3;}
	.st21{fill:#FDFCFC;}
	.st22{fill:#FDFCFB;}
	.st23{fill:#1E1F1F;}
	.st24{fill:#FAF9F8;}
	.st25{fill:#282829;}
	.st26{fill:#F5F4F4;}
	.st27{fill:#F2F0F0;}
	.st28{fill:#F7F6F5;}
	.st29{fill:#F5F4F5;}
	.st30{fill:#363636;}
	.st31{fill:#212122;}
	.st32{fill:#FBFAF9;}
	.st33{fill:#F1F0F0;}
	.st34{fill:#E2E1E1;}
	.st35{fill:#313131;}
	.st36{fill:#363737;}
	.st37{fill:#2F2F30;}
	.st38{fill:#FCFBFA;}
	.st39{fill:#FEFDFD;}
	.st40{fill:#F1F1F1;}
	.st41{fill:#262626;}
	.st42{fill:#F2F1F1;}
	.st43{fill:#F8F7F7;}
	.st44{fill:#FBFBFB;}
	.st45{fill:#E6E5E6;}
	.st46{fill:#020303;}
	.st47{fill:#CFCECE;}
	.st48{fill:#313232;}
	.st49{fill:#FFFFFF;}
	.st50{fill:#F8F7F6;}
	.st51{fill:#2B2B2B;}
	.st52{fill:#E4E3E3;}
	.st53{fill:#393838;}
	.st54{fill:#FCFCFC;}
	.st55{fill:#FAFAF9;}
	.st56{fill:#FFFEFE;}
	.st57{fill:#383838;}
	.st58{fill:#FAFAFA;}
	.st59{fill:#EDECEC;}
	.st60{fill:#040405;}
	.st61{fill:#EEEDED;}
	.st62{fill:#424242;}
	.st63{fill:#A6A6A6;}
	.st64{fill:#FEFEFE;}
	.st65{fill:#222323;}
	.st66{fill:#FDFDFD;}
	.st67{fill:#FBFAFA;}
	.st68{fill:#2B2B2C;}
	.st69{fill:#ECEAEA;}
	.st70{fill:#F3F3F3;}
	.st71{fill:#020304;}
	.st72{fill:#F5F5F5;}
	.st73{fill:#424142;}
	.st74{fill:#F6F6F6;}
	.st75{fill:#FFFEFF;}
	.st76{fill:#DFDDDE;}
	.st77{fill:#EBEAEA;}
	.st78{fill:#E8E7E8;}
	.st79{fill:#F9F9F9;}
	.st80{fill:#F3F2F2;}
	.st81{fill:#373737;}
	.st82{fill:#1C1C1C;}
	.st83{fill:#F0EFEF;}
	.st84{fill:#ECEBEB;}
	.st85{fill:#252525;}
	.st86{fill:#404040;}
	.st87{fill:#F7F6F7;}
	.st88{fill:#4D4C4C;}
	.st89{fill:#EFEDED;}
	.st90{fill:#E3E2E2;}
	.st91{fill:#525252;}
	.st92{fill:#E6E6E6;}
	.st93{fill:#050506;}
	.st94{fill:#454545;}
	.st95{fill:#030304;}
	.st96{fill:#252526;}
	.st97{fill:#1E1E1F;}
	.st98{fill:#1B1C1C;}
	.st99{fill:#303030;}
	.st100{fill:#232324;}
	.st101{fill:#151516;}
	.st102{fill:#353535;}
	.st103{fill:#EFEFEF;}
	.st104{fill:#DEDDDD;}
	.st105{fill:#E7E5E6;}
	.st106{fill:#F8F6F6;}
	.st107{fill:#F2F2F1;}
	.st108{fill:#383939;}
	.st109{fill:#F0EFF0;}
	.st110{fill:#020203;}
	.st111{fill:#585858;}
	.st112{fill:#090A0B;}
	.st113{fill:#EAEAEA;}
	.st114{fill:#F3F2F3;}
	.st115{fill:#868686;}
	.st116{fill:#E1E0E0;}
	.st117{fill:#F7F5F5;}
	.st118{fill:#E7E6E6;}
	.st119{fill:#505050;}
	.st120{fill:#393939;}
	.st121{fill:#F2F2F2;}
	.st122{fill:#EEEDEE;}
	.st123{fill:#191919;}
	.st124{fill:#282828;}
	.st125{fill:#ECEAEB;}
	.st126{fill:#2F2F2F;}
	.st127{fill:#070708;}
	.st128{fill:#1D1D1D;}
	.st129{fill:#6A6A69;}
	.st130{fill:#454646;}
	.st131{fill:#4E4F4F;}
	.st132{fill:#434343;}
	.st133{fill:#484848;}
	.st134{fill:#474747;}
	.st135{fill:#4E4E4E;}
	.st136{fill:#EFEEEE;}
	.st137{fill:#FAF8F8;}
	.st138{fill:#2D2D2D;}
	.st139{fill:#E7E5E5;}
	.st140{fill:#040505;}
	.st141{fill:#2A2A2B;}
	.st142{fill:#EDECED;}
	.st143{fill:#060707;}
	.st144{fill:#E9E7E8;}
	.st145{fill:#404141;}
	.st146{fill:#C1BFC0;}
	.st147{fill:#E8E7E7;}
	.st148{fill:#A3A3A3;}
	.st149{fill:#969696;}
	.st150{fill:#B8B7B7;}
	.st151{fill:#BAB9B9;}
	.st152{fill:#E5E4E4;}
	.st153{fill:#3D3C3C;}
	.st154{fill:#292A2A;}
	.st155{fill:#F9F8F7;}
	.st156{fill:#EFEFF0;}
</style>
<g>
	<path class="st0" d="M47.7,362.6c3.7-1.1,2.6-4.2,2.8-6.8c3.2-6,1.8-12,0-18c-0.8-1.4-1.7-2.8-2.5-4.2c1.7-1.7,3.7-2.6,6.1-2.8
		c2.2,0,4.4,0.5,6.3,1.7c1.9,1.3,2.1,4.5,4.9,4.6c0.5-1.8,0-3.5-0.4-5.1c-2.4-4.1-5.1-8.1-3.6-13.3c2.4-4.8,4.9-9.6,3.1-15.3
		c0-2.3,0.8-4.2,2.6-5.7c19.4,2,38,1.1,53-13.9c9.5-4.6,20.1-6.8,29.1-12.5c4.6-0.5,9.1,1.1,13.7,0.9c5.4,0.3,10.7-0.1,15.9-1.7
		c3.2-0.6,6.3-0.6,9.5,0c6.1,2,12.6,1.4,18.9,2.5c11.8,2.6,23.7,4.5,34.9,9.1c4.4,2,9.2,3.6,10.8,9c-0.5,2.6-2,4.3-4.4,5.4
		c-5,0.8-9.6-0.9-14.4-1.9c-11.8-2.5-24.6-0.6-35.3-8c-10.5-5.1-21.2-3.1-32-1.2c-16.4,3.2-31.4,11-47.3,15.8
		c-3.2,1.3-4.8,4.2-6.5,7c-1.9,2.5-4.3,4.7-6.2,7.2c-1.1,1.5-2.2,3-3.1,4.5c4.7,6.7,8.4-2.6,12.8-0.8c4.6,0.4,6.6,2.9,6.1,7.4
		c-4.6,8.3-14.1,12.4-18,21.2c-2,4.4-7.6,8.8-1.9,13.7c5.2,4.4,10.7,2.6,15.2-2.1c1.8-1.9,3.9-3.5,6.5-4.2c2.5,0.1,4.1,1.5,5.1,3.7
		c-2.8,16.7,13.6,15.2,21,22.3c0.7,1.4,1,2.9,0.9,4.5c-0.4,1.5-1.2,2.8-2.4,3.8c-6.5,3-12.5,0.2-18.4-1.9
		c-18.4-6.7-38.4-8-56.6-15.6c-2.9-1.2-6.2-1.6-9.4-1.1c-2.8,0.4-5.2,1.7-5.7,4.6c-0.6,3.6,2.5,4.2,4.9,5c4,1.3,8.5,1.7,10.5,6.2
		c0.3,1.5,0.2,3-0.4,4.5c-6.5,3.9-12.5,8.4-18,13.6c-4-0.9-4.8-4.2-5.7-7.4C46.9,385.9,40.9,374.7,47.7,362.6z"/>
	<path class="st1" d="M439.8,363.8l-0.6,0.8l0.6,0.9c4.8,19.3,0,38.5-2.1,57.5c-1.1,9.8,1.5,20-2.7,29.5c-2.6,6-2.1,13.9-10.7,15.7
		c-4.3-4-4-9.3-4.3-14.4c2.3-14.8-3.4-25.8-15.9-33.7c-1.5-4.5,0-7.5,4.6-8.9c5.2-1.1,10.9,2.3,15.7-1.9c3.5-5.9,3.4-11.7-0.3-17.5
		c-2.7-2.5-6.2-3.1-9.5-4.4c-5-2.9-6.6-6.3-1.7-10.7c1.8-1,3.7-1.5,5.7-2c2.7-0.8,6.8-0.5,6.3-4.7c-0.4-3.8-4.6-3.2-7.1-4.6
		c-1.4-0.6-2.5-1.4-3.6-2.4c-0.9-7.3,6.5-6.2,9.5-9.4c3.3-3,2.8-7.1,2.9-11c-0.1-2.8-0.1-5.5-0.1-8.3c0-6.4-2.3-12.3-4.3-18.2
		c-0.5-1.3-0.8-2.6-1.1-3.9c-0.5-2.5-0.9-5.1-2.4-7.3c-4.4-3.7-8.6-1.7-12.8,0.2c-6.7,3.1-12.5,8.5-20.6,8.1
		c-8.1-5.1-3.3-9.7,1-13.6c5.8-5.3,11.8-10.5,17.6-15.8c3.8-3.8,4.2-7.8,0.8-12c-9.7-6.9-19.1,2.7-28.7,0.4
		c-2.3-0.8-3.9-2.2-4.9-4.5c-1.2-4-0.1-7.6,1.7-11.2c1.4-2.7,3.2-5.1,5.5-7c5.6-3,9.6-9,16.7-9.3c2.2,0.8,3.6,2.4,4.3,4.6
		c-2,3.5-4.1,7.1-6.2,10.7c19.3,2.2,25.5,9.6,23.9,29c-0.2,3-2.9,7.2,2.3,6.6c11.3-1.2,9.9,8.9,13.9,14.1c4.5,4.5-0.5,11.2,3.6,15.8
		l0,0.1C441.1,335,436.1,349.7,439.8,363.8z"/>
	<path class="st2" d="M225.8,620.8c-17.1,6.9-36.3,9.3-50.5,22.6c-7.4,3.8-9.4-2.1-12.1-6.8c-2.4-16.7,2.2-32.8,4.3-49.2
		c0.1-3.3,0.7-6.5,1.5-9.7c2.2-5.9,2.2-12.1,3.1-18.2c0.2-1.5,0.6-3,1-4.5c2.3-8.6,0.8-18,5.3-26.2c1.6-3.7,2.8-7.5,1.9-11.5
		c-6.8,4.3-1.8,19.9-16.1,16.7c-1.7-2.9-1.6-6-1.2-9.1c1.9-6.3,1.4-12.8,1.8-19.3c0.7-6.1,2.8-11.2,9.9-12.1
		c9.2,2.1,14.3-4.2,19.7-9.9c5.1-0.7,6.3,3.1,7.7,6.7c0.4,7.5-5.2,12.5-8.2,18.5c-2.9,5.9-1.3,12.2-1.9,18.3
		c-3.7,19.2-5.2,38.8-8.9,58c-0.3,3.3-0.8,6.6-1.6,9.8c-2.3,6-2,12.2-2.2,18.4c-1.4,7.8-1.2,12.5,9.2,8.1
		c16.6-6.9,32.8-14.7,50.1-19.9c5.1-1.6,10.3-3.2,15.6-3.9c3.9-0.4,7.6-1.9,11.5-2.5c12.1-0.7,23.8-4,35.9-4.8
		c1.7-0.1,3.3,0.3,4.9,1c2.7,2.4,4.2,5.3,3.7,9.1c-3.4,5.7-8.4,4.6-13.4,3.2c-6.5,0.1-13.1-1.7-19.4,1.1
		c-13.6,5.2-28.8,5.3-41.6,12.9C233.2,621.1,228.6,618,225.8,620.8z"/>
	<path class="st3" d="M415.1,500.7c-6.5,11.6-10.5,24.2-13.7,37.1c-0.7,2.9-2.6,4.2-5.3,4.5c-5.9,0.2-1.3,3.3-1.3,5.1
		c1.5,3.2,3,6.3,4.6,9.3c2.1,4.2,4.5,8.3,5.6,12.9c0.3,6.7-0.5,13.2-4,19.1c-16.3,15.8-12.9,39.2-22.2,57.7
		c-10.4,3.3-7.9-6.5-11-10.7c-1.1-2.9-2.3-5.7-3.3-8.7c-0.7-2.3-0.9-4.6-0.7-6.9c0.5-3.1,1.7-5.8,5-6.9c3.1-0.4,5.1,1.3,6.8,3.5
		c3.8,2.4,2.6-1.3,3.1-2.8c1.2-16.1-5.9-29.6-12.6-43.3c-2.9-6.1-6.4-12.1-7.2-19c2.9-9.2,7.3-12.4,14.8-3.9c0.8,1.2,1.4,2.6,1.9,4
		c1.3,5.3,1.7,10.8,5.4,15.3c0.9,1,1.8,2,2.8,3c1.1,1,2.2,2.7,3.5,2.6c2.2-0.1,1.1-2,0.7-3c-1.3-3.8-3-7.4-5.4-10.6
		c-1.8-2.5-2.9-5.2-3.3-8.2c-0.6-5.3-0.5-10.7-2.4-15.8c-0.5-1.6-0.9-3.1-1.1-4.7c0.1-11.4-3.6-23.3,3.4-34
		c11.4-3.7,9.3,8.4,15.3,12.9c6.6-2.8,7.3-13.4,15.8-14.5C413.8,495.3,416.9,496.1,415.1,500.7z"/>
	<path class="st4" d="M424.6,468.8c4.6-13.6,17.5-26.4,3.7-41.6c-0.3-0.3-0.5-1.3-0.3-1.4c20.9-16.8,3.3-41.1,11.6-60.3
		c9.6,8.1,12.7,32.9,4,39.8c-3.6,2.8-3.9,6.4-1.9,7.1c16.9,6,7.2,17.9,5.4,26.7c-1.6,8.2,3.6,15.6,1.4,23.7
		c-8.5-0.4-2.6-8.3-7.6-11.1c-1.1,8.7-0.5,17.4-4.3,25.6c5.4,0.2,6.3-7.6,11.3-4.2c1.3,0.9,2.3,4.7,1.5,5.6
		c-2.7,3.1-5.8,6.6-9.5,7.7c-1.6,0.5-5.1-1.9-5.7,1.5c-1.9,11.1-8.9,7.1-15.1,5.5C415.2,483.9,419.9,476.3,424.6,468.8z"/>
	<path class="st5" d="M69.4,230.7c8.7-18.2,16.7-37.2,38.2-44.2c4.8-1.6,3.8-5.8,5.8-8.5c7.7-10.2,15.4-20,29.8-20.4
		c12.5-9,25.5-16,41.6-10c4.8,3.7,12.8,3.9,13.3,12.3c0.8,1.3,1,2.7,0.5,4.1c-7,4.4-11-5-17.2-3.8c-3.9,0.8-5.3,6.1-10,5.5
		c-10.2-2.9-19.4-1.9-27,6.3c-1.4,1.7-3,3.1-5,3.9c-10.5,0.9-18,3.5-9.4,15.8c6.4,8.2,13.9,15.5,18.2,25.1c0.2,4.8-2.2,7.1-7,6.9
		c-9.5-4.6-16.1-13.1-25.4-18c-9.7-9.7-14.9-1.4-20.3,5.3c-3.8,5.2-8.1,10-11.4,15.7c-2.8,3.6-5,7.8-9.8,9.5
		C70.9,235.9,67.4,235.8,69.4,230.7z"/>
	<path class="st6" d="M297.2,602.1c4.4-0.3,9.5,2.4,12.5-3.3c0.3-5.2-2.3-9.4-5.1-13.5c-2.8-5.1-5.8-10.4-11.2-13
		c-15.8-7.8-16.5-21.4-14.6-36.2c2.2-2.8,5.1-2.4,6.5,0.1c6.9,12.5,22.7,14.5,30.6,25.9c0.8,1.1,2.9,0.9,4.5,0.8
		c1.3-0.3,2.6-0.3,3.9,0c3.7,1.8,3.7,6.5,6.7,8.8c1.2,0.4,2.4,0.9,3.6,1.2c2,0.4,4,1.1,5.8,2.1c5.2,5.5,9,11.8,9.7,19.6
		c-0.3,1.5-0.9,2.9-2,4c-13.5-4.6-23.8,5.6-35.9,7.8c2.1,1.1,4.3,2.2,10,5.2c-8.6,0-13.9,0-19.2,0l0,0c-2.2-2.4-4.4-4.7-6.7-7.1
		C295.4,603.1,295.7,602.3,297.2,602.1z"/>
	<path class="st7" d="M104.9,576.2c-9.1-2.8-19.6-2.5-26.1-11.3c-1.1-1.5-1.2-3.1-0.2-4.7c2-1.7,4.4-2.2,7-1.9
		c10.5,3.9,21.1,6.7,32.1,1.9c1.4-0.6,2.9-1.1,4.4-1.5c5.5-1.4,11.8-3.5,15.2,2.7c3.2,5.9-3.2,8.9-5.9,12.9
		c-7.3,14.4-1.2,27.8,4.4,40.4c4.8,10.8,9.1,21.2,8,33.1c-1,10.7,4.2,6.2,8.8,4c1.6-0.2,3.1,0.3,4.4,1.3c1.1,2.4,0.9,4.6-0.7,6.7
		c-0.1,0.9,0,1.8,0.4,2.7c-7.5,17.7-17.1,24.8-29.2,21.9c1-12.9,2.3-25.7,3-38.6c0.4-8.8,0.4-17.7-6.1-24.9
		c-5.7-7.8-9.3-16.1-8.3-26.3C116.8,586.3,113.5,579.4,104.9,576.2z"/>
	<path class="st8" d="M69.4,230.7c1.5,3.2,4.1,3.9,7.3,3.4c0.7,0,1.4-0.1,2.1-0.1c4.9,0.3,9.9,0.3,14.8,0.7
		c4.5,0.6,8.7,2.1,13.1,2.8c12.8,2.4,25.4,6.3,38.6,3.8c5.5-0.9,11.2-0.8,16.6-2.7c1.6-0.5,3.3-0.9,5-1.1c14-0.7,28-1.4,42,0.5
		c6.5,2.4,13.3,2.1,20,2.5c7.3,1.2,14.5,2.7,21.8,4.3c11.7,6.3,25.6,9.1,34.5,20.3c0.7,3.3-0.5,6-3,8.1c-8.7,2.7-13.3-6.8-21.1-6.9
		c-1.3-0.4-2.6-1-3.7-1.8c-1.1-0.8-2.2-1.6-3.3-2.5c-6.1-4.1-13.2-4.2-20.1-5.1c-1.6-0.2-3.1-0.6-4.6-1c-19.3-5.7-38.9-5-58.5-2.6
		c-4.5,1.2-9.1,2.3-13.5,3.6c-6.4,0-10.5,4.3-14.8,8.1c-17.6-4.6-33.4-14.5-51.6-17.6c-7.4-3.8-16.9,0.4-23.4-6.3
		C66.2,237.2,64.8,233.4,69.4,230.7z"/>
	<path class="st6" d="M92.1,243.9c17.8,4.4,35.7,8.7,51.1,19.6c1.8-0.1,3.5,0.5,5.1,1.4c1,0.7,1.8,1.6,2.4,2.6
		c0.6,1.8,0.6,3.5-1.1,4.8c-6.8,10.4-18.5,10.5-28.7,13.6c-1.7,0.7-3.2,0.2-3.5-1.5c-0.4-2.4,1.7-3.6,3.4-4.9
		c-1-7.1-4-13.1-10.4-17.5c0.7,14.5-7.6,4-12,4.7l0,0c-3.9-10-10.3-15.3-21.9-13c-7.5,1.5-10.8-2.7-9.6-10.2
		C75.4,242.6,83.8,242,92.1,243.9z"/>
	<path class="st9" d="M278.1,157.9c21.2-0.2,38.4,11.3,56.8,19.4c7,8.2,18.1,10.8,25.5,18.5c1,0.3,2.1,0.6,3.1,0.9
		c4.7,1.6,5.9,5.1,5.3,9.6c-0.8,2.4-2.3,4-4.6,4.9c-1,0.2-2.2,0.6-3.1,0.2c-21-9.1-21-9.1-35.2,8.4c-2.1,1.1-4.3,1.2-6.5,0.4
		c-4.4-3.9-2.1-8.1-0.6-12.3c0.6-1.3,1.4-2.5,2.2-3.7c1.7-2.2,3.6-4.3,5-6.7c1.8-3.9,2.4-7.8-0.1-11.6c-1.1-0.6-2.3-1.1-3.4-1.5
		c-3.7-0.9-7.3-2-10.6-3.9c-3.2-1.7-5.6-0.6-7.7,2c-2.7,3.2-4.6,6.8-7.1,10.1c-3.9,3.9-7.8,7.8-14,4.5c-4.6-7.6,0.7-13.1,3.9-19.1
		c5.5-7.9-0.7-8.9-6.2-10.2c-1.5-0.4-2.8-1-4.1-1.7c-1.9-1.4-3.2-3.2-3.5-5.7C274,157.8,275.3,156.2,278.1,157.9z"/>
	<path class="st10" d="M367.3,204.6c-1.3-2.6-2.5-5.2-3.8-7.8c0-4,0-8,0-13c20,13.2,41.4,23.7,49.5,48.2c1.2,3.6,2.8,7.4,0.1,10.4
		c-3.1,3.5-6.7,1.4-9.7-1.1C389.4,230.9,377.1,218.9,367.3,204.6z"/>
	<path class="st6" d="M120.9,279.5c-0.3,2.1-3.6,4.3,0,6.4c-14.9,17.7-34,18-54.4,12.9c-1.1,1-2.2,0.9-3.1-0.2
		c5.4-13.2,25.9-24.3,40.4-20.9C109.6,279,115.1,279.3,120.9,279.5z"/>
	<path class="st11" d="M278.1,157.9c-1.3,1.1-2.7,2.3-4,3.4c-2.2,5-2.7,10.5-3.2,15.9c-0.2,1.4-0.5,2.8-0.9,4.2
		c-1.7,4.9-1.5,10.2-2.6,15.3c-0.8,3.2-2.4,6-4.4,8.5c-6.2,7-9.8,4.9-11.7-3.3c-0.8-9.1-1.4-18.1,2.6-26.7c2.2-4.3,4.4-8.7,2.1-13.8
		c-6.6-3.1-13-5.1-18.6,1.7c-1.4,8.4,0.3,16.9-1.5,25.2c-1,3.2-2.6,5.8-6.2,6.5c-1.6,0-3-0.5-4.3-1.4c-3.2-4.2-2.3-9.8-4.7-14.3
		c-1.9-3.7-4.4-7.2-5.4-11.3c-0.2-1.4,0-2.8,0.5-4.1c3.8-4.8,11.2-5.3,13.7-11.7c3.7-3.2,7.8-5.1,12.8-3.1
		c6.3,3.3,13.5-0.6,19.8,2.6C268.6,150.6,273.5,153.8,278.1,157.9z"/>
	<path class="st12" d="M60.8,511.8c-4.3,0.4-4.8-14.4-11.6-3.1c-2.5,4.2-3.8,2.7-4.7-0.2c-2.1-7.3-8-4.9-12.9-5.7
		c-5.2-0.9-13.1,3.5-15-4.1c-1.6-6.1-2.1-15.1,1.3-19.4c4-5,12.6-7.3,19.9-2c1,17,17.6,14.5,26.8,21.3
		C64.8,503.5,64.2,508,60.8,511.8z"/>
	<path class="st13" d="M62.3,499.4c-1.8-0.7-3.6-2.2-5.4-2.1c-19.1,0.8-19.1,0.9-19.1-20c5.1-6.6,6.3-14.3,6.5-22.3
		c2.8-11.1,5.5-22.2,4.9-33.8c1.2-3.4,3.4-5.6,7.3-5.4c2.1,1.5,2.7,3.7,2.8,6.2c-1.1,5.8-1.7,11.6,0.4,17.4
		c3.6,11.2-3.6,20.6-5.8,30.7c-2.4,10.7-2,17.6,11.6,17.1c4-0.2,8.6,0,12,3.2c1.2,2.3,1.3,4.7,0.5,7.2c-2.5,4.6-6.6,5.4-11.2,4.6
		C64.9,501.9,63.4,500.9,62.3,499.4z"/>
	<path class="st14" d="M62.3,499.4c1.5,0.1,3,0.3,4.5,0.4c3.3,4.1,8.5,5.3,12.8,8c7,5.1,0.1,13.3,4.2,19.1
		c-6.7,10.3-2.2,22.1-4.3,33c-0.2,1.7-0.5,3.3-0.7,5c-13-6-14-17.2-11.5-29c0.9-4,4.3-7.2-0.6-10.7c-2.1-4.4-3.8-9-5.8-13.4
		c0,0-0.1,0.1-0.1,0.1C61.4,507.7,58.4,503.1,62.3,499.4z"/>
	<path class="st15" d="M127.4,684.4c4.1,1.4,9.3,2.4,11-2.2c3.4-9.4,13.5-11.9,18.2-19.7c3.5,2.3,7.3,4.3,10.4,7.1
		c1.8,1.6,2.4,6.5-0.2,6.3c-15.8-1.5-18.5,12.4-26,20.8c-4.5,5.1-9.3,8.9-10.4-2.3c-1.1,0-2.1,0-3.2,0c-0.7-0.7-1-1.4-0.7-2.1
		c0.2-0.7,0.5-1.1,0.7-1.1C127.3,688.9,127.4,686.7,127.4,684.4z"/>
	<path class="st16" d="M51,419.9c0.6,12.3-1.4,24.1-6.8,35.2c-3.7-11.3,1.8-21.9,2.4-32.9c0.9-17.8-1.6-34.8-7.6-51.3
		c-1.7-4.7,0.2-8.2,2.7-11.6c0.2-0.2,3.9,2.2,6,3.4c-2.6,11.8-1.9,23.1,5.6,33.2C50.8,403.6,57.4,412.3,51,419.9z"/>
	<path class="st6" d="M366.7,621.1c0,2,0.1,4.1,0.1,6.1c1.7,6.5,5.5,13-0.3,19.3c-10.1,9.2-4.6-10.3-11.8-6.4
		c6.1-11.9-4.6-20-6.6-30c-0.5-2.6,1.8-5.8,2.8-8.7C363.5,602.1,361.6,614.4,366.7,621.1z"/>
	<path class="st17" d="M396.7,540.6c1.6-0.9,3.1-1.8,4.7-2.7c5.4,3.1,7.6-0.1,9.1-4.6c1.8-5.3,3.6-10.6,7.3-15.5
		c-3.2,13.1-4.1,26.2-3.2,39.4c-9,5.5-9,5.5-18.7,0c-1.8-2.8-4.8-5.1-3.8-9.1C390.1,543.4,390.4,540.1,396.7,540.6z"/>
	<path class="st18" d="M229.4,152.1c-0.2,8.3-7.5,9.3-12.8,12.5c-5.7,4.7-1.4,10.1-1,15.2c0.7,2.1,1.3,4.2,1.8,6.3
		c0.8,5.1,3.2,10.9-5.2,12.1c-1.5-0.3-2.8-1-3.9-2c-3.6-10.2-13.6-18-11.4-30.3c0.4-2,0.8-3.9,1.1-5.9c1,0,1.8,0.3,2.5,1
		c7.7,2.4,3.8-5,6.1-7.2C214,149,222.5,161,229.4,152.1z"/>
	<path class="st15" d="M184.8,147.6c-14.3,1.5-29.2,0.7-41.6,10c0.6-6.6,5.1-8,10.8-9.3c6.6-1.5,13-4.5,14.8-12.4
		c8.5-6.1,17-6.1,25.5,0C195.4,143.2,184.6,141,184.8,147.6z"/>
	<path class="st2" d="M367.3,204.6c14.8,9.5,27.3,21.2,36.1,36.6c-1.3,1.2-2.6,2.3-3.9,3.5c-1.4-1.3-2.8-2.6-4.2-3.9
		c-4.8-0.6-8.5-3.2-11.9-6.5c-2.2-1.6-4.2-3.4-5.9-5.6c-2.6-4.2-6.2-7-10.8-8.6c-2.6-1.5-4.3-3.7-4.9-6.7c0-1.5,0.4-2.8,1.2-4
		C364.4,207.8,365.8,206.2,367.3,204.6z"/>
	<path class="st17" d="M104.9,576.2c7.6-2.9,13-3.3,11.9,7.9c-1.3,12.9,2.9,24.9,7.5,36.8c-5.3-1.2-6.4-6.7-10.1-9.7
		c-6.1-4.9-5.4-5-0.5-12.6c1.3-2-0.1-6.1-0.7-9.1C111.8,584.1,104.9,582.2,104.9,576.2z"/>
	<path class="st19" d="M63.4,298.6c1,0.1,2.1,0.1,3.1,0.2c-0.1,1.8-0.2,3.6-0.4,5.4c1.5,6.5-5.5,9.7-6.1,15.4
		c-0.6,5.2-2.4,9.9-5.8,14c-2.1,0-4.2,0.1-6.3,0.1c1.3-6.8-12.5-10.6-3.7-18.8C49.1,307.5,53.3,299.7,63.4,298.6
		C63.4,298.6,63.4,298.6,63.4,298.6z"/>
	<path class="st0" d="M424.6,468.8c2.1,9.1-1.4,16.9-5.5,24.5c-0.6,2.9-0.2,6.3-4,7.4c-1.1-3-3.4-4.1-6.3-4.2
		c-3.2-9.4,5.1-17,3.9-26.1c1.2-4.1,4.2-7.4,4.7-11.7c1.5-3.1,1.1-8.1,6.9-6.7C424.4,457.6,424.5,463.2,424.6,468.8z"/>
	<path class="st20" d="M360.4,195.8c-8.4-6.3-23.1-3.9-25.5-18.5C350.3,174,356.4,183.5,360.4,195.8z"/>
	<path class="st21" d="M395.9,557.1c7.5-9.7,6.8,4.2,11.1,3.8c3.4-3.8-3-7.6,0.1-11.6c6-0.8,3.3,6.9,7.5,7.8
		c1.1,2.1,2.1,4.3,3.2,6.4c-2.2,2-3.9,4.6-6.4,6.4l0,0c-8.4,18-6.7-4.3-10.9-2.7C399,563.8,397.4,560.5,395.9,557.1z"/>
	<path class="st22" d="M194.3,135.8c-8.5,0-17,0-25.5,0c-0.9-10.8,6.7-9.4,13.5-9.6C189.2,126,195.1,126.6,194.3,135.8z"/>
	<path class="st23" d="M366.7,621.1c-8.4-4.1-7.5-15.5-15.8-19.7c-1-1-1.9-2-2.9-3c-0.4-1-0.4-2,0.1-3c1.9-1.8,4.1-2.4,6.7-2.2
		c8.7,4.5,18.1,8.5,15.6,21.2C367.4,615.7,366.8,618.3,366.7,621.1z"/>
	<path class="st24" d="M400.5,567.2c4-0.5,5,10.8,10.9,2.7c1.7,9.5,9.8,18.5,1.3,28.5c-3.9-4.5,2-13-4.7-16
		c-3.9-1.8-2.6,6.4-7.1,6.4C401.5,581.5,402.8,574.3,400.5,567.2z"/>
	<path class="st6" d="M63.4,298.6c-6.4,5.4-12.7,10.8-19.1,16.2C47.1,305.2,44.4,289.1,63.4,298.6z"/>
	<path class="st25" d="M156.2,659.8c-0.2-2.6-0.4-5.2-0.5-7.8c-0.9-4.5,2.5-6.9,4.7-10c1.6-1.9,3-4.1,5.5-5.1
		c3.1,2.2,4.5,6.9,9.4,6.4c-0.3,0.7-0.5,1.5-0.4,2.2c-3.3,4.2-7.5,7.4-11.9,10.5C162.1,659.8,158.8,659.3,156.2,659.8z"/>
	<path class="st26" d="M162.9,656.1c1.8-5.9,6.8-8.2,11.9-10.5c-2.3,13.9,5.8,1.4,8.6,3.6C180.3,662.3,171.3,658.4,162.9,656.1z"/>
	<path class="st22" d="M50.6,231.6c4.3-5.6-1.4-8.1-4-11.7C60,222,60,222,54.8,243.3C50.8,240,56.4,233.6,50.6,231.6L50.6,231.6z"/>
	<path class="st27" d="M439.8,363.8c-0.9-14.3-1.8-28.6-2.7-42.9C443.7,334.9,439.7,349.5,439.8,363.8z"/>
	<path class="st28" d="M127.2,691.2c0,1.1,0,2.1,0,3.2c0,3.7,1.1,6.2-5.5,6.3c-6.8,0.1-3.8-3.5-3.1-4.8c2.3-4-3-8.1,0.4-11.8
		C121.8,686.5,124.5,688.9,127.2,691.2z"/>
	<path class="st10" d="M412.1,219c10.1,4.8,10.8,10.6,8.6,19.9C417.7,231.9,415.5,226.8,412.1,219z"/>
	<path class="st29" d="M225.8,620.8c2.7-2.9,6.3-3.2,10-3.1c0.3,3.8,7.8,1.6,5.9,6.2c-0.8,2-5.1,4.1-8,1.2
		C231.4,622.8,229,621.2,225.8,620.8z"/>
	<path class="st30" d="M92.1,243.9c-8.4-0.1-16.8-0.2-25.2-0.4c0-0.9,0.1-1.7,0.4-2.5C75.6,242.4,84.4,238.4,92.1,243.9z"/>
	<path class="st31" d="M370.2,633.7c5.2,2.7,0.2,12.2,8.6,12.7c-1.1,5.3-4,5.6-8,2.8C366.5,644.3,367.8,639,370.2,633.7z"/>
	<path class="st32" d="M207.1,646.5c3.6,0.2,7.5-0.6,11.7,5c-5.9-1-10.2,3.2-14.7-1.6C203.9,649.8,206,647.7,207.1,646.5
		L207.1,646.5z"/>
	<path class="st22" d="M50.6,231.6c-1.5,3.3-2.9,6.5-5,11c-1.5-5.8-2.6-10.4-4.1-16.2C45.4,228.6,48,230.1,50.6,231.6
		C50.6,231.6,50.6,231.6,50.6,231.6z"/>
	<path class="st33" d="M60.2,518.8c-3,4.2-7.3,3.6-12.2,4.4C50.8,514.1,55.5,516.6,60.2,518.8L60.2,518.8z"/>
	<path class="st16" d="M50.5,337.8c4.9,6,2.1,12,0,18C50.3,349.8,48,343.8,50.5,337.8z"/>
	<path class="st34" d="M370.2,633.7c0.2,5.2,0.4,10.4,0.6,15.5c-1.4-0.9-2.9-1.8-4.3-2.7c0.1-6.4,0.2-12.9,0.3-19.3
		C367.9,629.4,369,631.6,370.2,633.7z"/>
	<path class="st35" d="M262,151.5c-6.7-0.3-13.7,2.5-19.8-2.6C249,148.6,255.8,147.4,262,151.5z"/>
	<path class="st36" d="M297.2,602.1c-0.5,0.6-0.9,1.4-1,2.2c-6.3,0.1-12.6,0.3-18.9,0.4C283.4,599.4,290.5,602.3,297.2,602.1z"/>
	<path class="st24" d="M411.4,569.9c0.1-4.2,2.2-6.3,6.4-6.4c-0.8,3.3,1.9,7.3-1.7,9.7C415.5,573.6,413,571.1,411.4,569.9z"/>
	<path class="st15" d="M302.9,611.4c-4.7,4.9-10.2,3.4-15.8,0C292.4,611.4,297.6,611.4,302.9,611.4
		C302.9,611.4,302.9,611.4,302.9,611.4z"/>
	<path class="st37" d="M206.7,153.7c-0.2,3.8,2.3,8.4-1.2,11c-2.5,1.9-3.8-1.8-4.9-3.9C202.6,158.5,204.7,156.1,206.7,153.7z"/>
	<path class="st27" d="M437,320.9c-3.4-4.7-2.8-10.4-3.6-15.8C439.4,309.3,436.7,315.4,437,320.9z"/>
	<path class="st15" d="M98.5,266.7c0.3,2.1,3.1,4.9-1.1,5.9c-1.1,0.3-3.5-0.9-3.7-1.8C93,267.2,96.1,267.1,98.5,266.7
		C98.5,266.7,98.5,266.7,98.5,266.7z"/>
	<path class="st27" d="M445.3,312.6c0.3,2.3-0.3,3.9-2.1,3.6c-1-0.2-2-2-2.5-3.2c-0.2-0.7,0.8-1.7,1.2-2.6
		C443.1,311.1,444.4,312,445.3,312.6z"/>
	<path class="st33" d="M60.9,511.7c6.8,2.4,5.1,8.4,5.8,13.4c-2.2-2.1-4.4-4.2-6.5-6.4c0,0,0,0,0,0
		C60.4,516.5,60.7,514.1,60.9,511.7z"/>
	<path class="st38" d="M207.1,646.5c-2.8-0.5-6.4,1.1-8-2.7c-0.2-0.5,0.7-2.1,1.2-2.2C204.2,640.8,205.5,643.8,207.1,646.5
		L207.1,646.5z"/>
	<path class="st39" d="M235.5,292.3c4.4,0.9,8.7,1.8,13.1,2.7c17.1,0.6,28.9,11.9,42.1,20.5c4.8,3.8,9.1,8,11.8,13.6
		c3.1,8.2,11,13.9,12.4,23.1c0.2,3.1-0.4,5.9-3.3,7.6c-2.2,0.6-4.2,0-6.2-0.8c-2.5-1.1-4.8-2.7-6.9-4.4c-1.6-1.1-3.2-2.3-4.9-3.1
		c-4.7-1.9-8.6-0.2-12.2,2.7c-3.9,2.3-8.6,3.6-10.4,8.4c-6,10.5,1.3,20.2,1.7,30.3c-2.4,4.6-7.7,3.3-11.2,5.6
		c-3.6,0.4-6.3,2.9-9.7,4c-7.7,0.8-15,0.9-17.3-8.8c-0.1-4,1.4-7.3,3.7-10.4c5.1-4.8,13.5-5.2,16.1-14c1-3.4,4.8-2.1-0.5-7
		c-7.1-6.5-9.6-18.2-14.2-26.7c-0.6,7.7,15,14.3,3,24.3c-6.7,0.5-9.1-4.6-11.6-9.1c-2.9-5.2-5.8-10.1-12.1-11.7
		c-12.5-3.6-24.3-10.1-38.2-3.9c-7.6,3.4-12.8-2.5-16.4-8.9c-0.8-1.3-1.4-2.7-2-4c-4.8-7.8-7.5-16.2-7.2-25.5c0.2-4,3.2-9.6,5.5-7.8
		c15.6,12.5,5.4-7.9,10.7-8c7.8-0.1,15.6,0,23.4,0c5.9,8.6,14.4,10.9,24.3,11.4C224.4,292.7,230,289,235.5,292.3z"/>
	<path class="st17" d="M57,423.1c-0.1-2.1-0.2-4.2-0.2-6.4c-5.9-4.3-6-8.6,0.1-12.8c1.3-9.1,5.2-14.9,15.7-11.9
		c8.5,1.3,17,2.9,25.1,6c5.7,2.8,11.5,5.2,17.9,6.2c1.4,0.3,2.8,0.8,4.1,1.3c8.3,2.1,11.1,8.3,11.8,16c0.4,1.2,0.7,2.5,1.1,3.8
		c0.8,2.4,2,4.7,3.5,6.7c1.2,1.6,2.3,3.3,2.8,5.3c0.3,2.2-0.1,4.2-1.3,6c-1,1.1-2.1,2-3.3,2.8c-6.7,4.1-12,5.2-12.2-5.4
		c-0.1-3.7-0.2-7.4-2.6-10.5c-0.9-1.1-1.7-2.3-2.5-3.4c-10.8-9.6-25.4-10.5-37.6-16.8c3,1.7,7.2,1.3,8.1,6
		c-2.3,11.3,4.2,23-1.5,34.2c0.3,3.6,0.3,7.2-0.6,10.8c-3.1,9.4-5.6,19-9.6,28c-10,7.2-20.2-3.6-30.5,1.6
		c3.9-18,10.3-34.2,11.7-51.5C54.9,433.7,54.5,428.4,57,423.1z"/>
	<path class="st12" d="M156,254.2c3.7-1.6,6.5-5.5,11.3-3.9c22-2.3,43.8-2,65.3,3.7c1.1,0.2,2.2,0.4,3.3,0.6
		c7.2,1.6,14.4,3.1,21.2,5.9c0.5,1,0.9,1.9,1.4,2.9c-0.8,1.1-1.3,2.3-1.4,3.6c0.1-1.4,0.6-2.6,1.3-3.8c9.3-1.3,15.1,5.6,22.2,9.5
		c13.8,1.4,21.5,10.4,27.2,22c-0.1,2.4-1.1,4.3-3.2,5.5c-2.8,1.4-7.1,0-8.3,4.3c-1.1,3.4-2.6,6.4-6.2,7.8c-8.7-2.1-14.3-8.9-21.1-14
		c-3.2-4.3-7.5-5.6-12.7-4.9c-1.5,0-2.7-0.6-3.6-1.7c-3.5-2.2-7-4.3-10.5-6.5c-5.1-10.5-14-13.4-24.7-11.8
		c-3.7,0.6-7.2,1.9-10.9,0.4c-14.1-2.5-28.5-2.5-42.6-4.5c-1.1-0.8-2-1.8-2.7-3c-0.5-2,0.2-4.8-3.3-4.9c-1.9-0.6-3.1-2-3.6-3.9
		C154.4,256.2,155,255.1,156,254.2z"/>
	<path class="st26" d="M73.3,387.2c-1.3-4.4-4.5-3.3-7.6-2.7c-5.2,1-10-0.5-11.6-5.4c-1.2-3.7-1.3-9.2,0.7-12.1
		c3-4.3,8.9-2.3,13.2-1.1c23.7,6.7,47.2,13.8,70.8,20.6c3.4,1,7.1,1.1,10.7,1.7c13.2,2.3,13.8,3.8,5.9,15.9
		c-6.1,6.9-13.6,7.6-21.7,4.2c-8.4-3.5-17.3-5-25.9-7.8C97,394.4,82.9,396.5,73.3,387.2z"/>
	<path class="st40" d="M150.2,381.4c-6.2,0.7-11-3.8-17.3-4.3c-12.9-1-2.8-11.3-5.2-16.8c1.9-9.9,8.1-15.7,17.6-18.4
		c2.2-1.2,3.4-3.1,3.3-5.7c-0.2-2.7-0.5-5.3,1.2-7.7c2.9-3.1,6.4-4,10.4-2.3c2.1,1.3,3.7,3,4.9,5.2c5.6,11.9,1.4,23.9,0.2,35.9
		C159.8,371.7,165.2,387.4,150.2,381.4z"/>
	<path class="st15" d="M168.8,283.2c2.1,4.4,8.5,0.2,10.4,5.2c-6.7,2.2-5.3,11.7-9.8,13.2c-8.1,2.8,0.3-12-10.4-9.8
		c-2.4,10.3,1.6,19.9,6.5,29.4c-6.5,2.2-11.2-2.4-16.6-4.4c-9.5-3.4-20.6-0.7-29.3-7.8c-3.4-2.8-9.2-4-4.5-10.2
		c16.9-5.5,33.7-11.1,50.6-16.6C167.1,281.2,168.2,281.5,168.8,283.2z"/>
	<path class="st41" d="M115.1,298.8c8.4,4.2,13.4,17.3,26.6,9.5c3.5-2.1,6.3,2.3,8.5,5.1c1.7,2,0.7,3.8-0.6,5.5
		c-2.3,2.4-4.9,4.4-6.6,7.3c-1.4,2.6-3.4,5-3.5,8.1c2.1,4.6,12.1,0.6,10.3,9.4c-10.7,1.1-14.1,11.9-22.1,16.7
		c-1.1-1.4-2.1-2.9-3.2-4.3c-11.7-4.3-10.6-12.3-6.3-21.3c2.3-4.8,9.2-7.8,5.9-14.8c-2.5-5.9-12-3.5-13.1-11.1
		C111.5,305.2,110.5,300.9,115.1,298.8z"/>
	<path class="st42" d="M127.5,317.6c6.2,5.7,2.2,9.7-2.2,13.9c-8.3,7.8-10.1,16-0.9,24.6c-3.4,4.2-6,10.3-10.4,12.2
		c-6.3,2.7-13.7-0.7-18.6-4.7c-5.2-4.3,0.9-8.4,2.9-12.5c5-10.3,10.8-19.6,22.2-23.7C124.9,325.5,118.9,316.2,127.5,317.6z"/>
	<path class="st42" d="M92,317.7c-2.1,6.5-4.2,12.9-6.3,19.4c1.1,3.5,6.5,3.8,6.2,8.4c-1.6,2.5-3.8,4.8-4.6,7.5
		c-2.2,7.7-7.9,7.5-13.1,5.3c-6.8-3-1.2-7.6,0.2-10.9c1.1-2.4,2-4.5,1.9-7.1c2.2-5.2,2.8-10.3-0.1-15.5c-11.8-7.6-0.6-9.6,3.3-13.4
		C84.9,310.8,91.3,308.5,92,317.7z"/>
	<path class="st43" d="M206.9,272.9c9.5-4,17.8-4.5,28.7-1c10.5,3.4,5.7,8.4,6.6,13.3c-11.5-3.1-23-6.1-34.6-9.2
		c-0.6-0.4-1.2-0.8-1.8-1.2C206.2,274.2,206.6,273.5,206.9,272.9z"/>
	<path class="st2" d="M252.7,291.7c1-0.2,1.9-0.7,2.6-1.5c5.4,1.1,11.1,1.6,15.5,5.5c6.5,5.1,12.9,10.3,19.4,15.4
		c1,1.1,1.6,2.5,1.7,4c-0.2,1.5-1,2.7-2.2,3.6c-13.7-7.9-27.3-15.8-41-23.7C250,293.9,251.4,292.8,252.7,291.7z"/>
	<path class="st15" d="M235.5,292.3c-12.3,6.3-25.5,2.3-38,1.6c-10.3-0.6-1-7,0-10.9c1-1.6,2-1.6,3.1-0.1
		C210.2,293.5,224.9,285.1,235.5,292.3z"/>
	<path class="st0" d="M73.3,387.2c12.5,0.9,24.6,3,35.3,10.1c-0.4,2.3-1.8,3.8-3.8,4.7c-2.1,0.3-4.2,0.3-6.2-0.7
		c-8.5-3.6-19.6,0.2-26-9.3C72.8,390.4,73,388.8,73.3,387.2z"/>
	<path class="st44" d="M162.4,266.7c14.9,1.4,30.4-0.6,44.6,6.2c0,0-0.5,0.9-0.5,0.9c-6.2,1.2-12.4,1.5-18.5-0.2c-3.2,0-6.4,0-9.7,0
		c-3.7,1.8-7.6,0.8-11.5,0.9c-2.8-3.9-15.3,4.5-11-8.6C158.2,264.8,160.4,264.8,162.4,266.7z"/>
	<path class="st45" d="M127.5,317.6c-2.3,3.2-4.6,6.4-7,9.6c2.3-6.3-1.1-7.2-6.1-6.3c-0.9,1-2,1.3-3.3,0.9c-2.7-1.9-4.6-4.4-5.6-7.5
		c-0.9-4.6,0.5-6.9,5.5-5.4C115.5,313.8,124.7,309.6,127.5,317.6z"/>
	<path class="st46" d="M153,400.8c8-6.7,3.1-9.9-3.4-12.6c0.2-1.5,0.3-3,0.5-4.5c3.9-0.4,7.7-0.8,11.6-0.3c3,1.5,4.5,4.3,5.8,7.2
		c1,3,1.2,6.1,0.3,9.2c-0.8,2.2-2.3,3.9-4.2,5.3c-2.1,1.1-4.2,1.3-6.5,0.7C154.8,404.8,153.9,402.7,153,400.8z"/>
	<path class="st47" d="M54.3,333.5c-3.4-5.9,4.2-9.3,3.2-14.6c0.5-1.8,1.5-2.3,3.2-1.3c0.5,6.2,2.1,11.6,8.7,13.9
		c-0.1,4.2,2,8.9-2.9,11.9c-3.8-2.1-2.8-7.7-6.9-9.6C57.9,333.7,56.1,333.6,54.3,333.5z"/>
	<path class="st34" d="M111.3,321c1,0,2.1,0,3.1,0c-0.5,4.1-4.8,3.5-7.1,4.7c-2.8,1.5-6.9,7-9.9,1.4c-1.5-2.9,1.2-7.1,4.3-9.6
		C105.8,316.2,108.6,318.5,111.3,321z"/>
	<path class="st48" d="M60.2,317.8c-0.6,0.9-1.5,1.3-2.6,1.1c-1.7-7.6,6.1-9.6,8.6-14.7c7.1,6.2,2.4,10.3-2.6,14.3
		C62.2,319.5,61.1,319.2,60.2,317.8z"/>
	<path class="st2" d="M200.6,283c-1,0-2.1,0.1-3.1,0.1c-9.6-1.5-19.1-1.4-28.7,0.1c-1.1-0.3-2.1-0.7-3.2-1
		C177.4,278.1,189.1,276.8,200.6,283z"/>
	<path class="st33" d="M161.8,383.6c-3.9,0-7.9,0-11.8,0c0.2-0.7,0.2-1.5,0.1-2.2c11,2.4,5.5-10.7,11.9-12.6c2.2,1.5,3,3.7,3.4,6.3
		C165.5,378.5,165.1,381.6,161.8,383.6z"/>
	<path class="st49" d="M92,317.7c-2.7-5-8.1-4.7-12.6-6.3c4.1-5.4,8.6-3.9,13.1-0.8C96.2,313.1,95.1,315.5,92,317.7z"/>
	<path class="st41" d="M56.9,403.9c-2.9,4.3-2.6,8.5-0.1,12.8c-1.9,1-3.8,2.1-5.7,3.1c-1.5-8.3-2.9-16.5,2.3-24.1
		C53.7,398.8,53.9,402,56.9,403.9z"/>
	<path class="st50" d="M156,266.7c-0.8,8,8.7,1,9.6,6.6c-0.6,1.7-2.3,2-3.7,2.8c-4.6,0.3-8.5-1.7-12.3-3.8c-0.1-2-0.3-4-0.4-6
		c0.5-0.4,1.1-0.7,1.6-1.1C152.8,264.7,154.6,265.1,156,266.7z"/>
	<path class="st49" d="M59.7,333.8c7.3-0.4,6.6,5,6.9,9.6C61,346.6,61,346.6,59.7,333.8z"/>
	<path class="st51" d="M60.2,317.8c1.1,0.2,2.3,0.5,3.4,0.7c-1.8,6,4.1,8.6,5.9,13C61.6,330.1,58,325.9,60.2,317.8z"/>
	<path class="st2" d="M188,273.6c6.2,0.1,12.3,0.2,18.5,0.2c0.2,0.8,0.6,1.6,1.2,2.2C201.1,275.6,194,278.5,188,273.6z"/>
	<path class="st2" d="M161.9,276.1c1.2-0.9,2.5-1.9,3.7-2.8c4.2,0.1,8.5,0.2,12.7,0.3C173.4,278.1,167.4,275.7,161.9,276.1z"/>
	<path class="st52" d="M91.9,345.5c-2.5-2.5-6.8-3.6-6.2-8.4C87,340.4,95.8,338.3,91.9,345.5z"/>
	<path class="st51" d="M76.1,324.8c5.8,5.1,2.6,10.3,0.1,15.5C76.2,335.1,76.2,329.9,76.1,324.8z"/>
	<path class="st53" d="M111.3,321c-3.2-1.2-6.4-2.4-9.6-3.6c1.3-1,2.5-2,3.8-3.1C110.8,313.6,112.8,315.8,111.3,321z"/>
	<path class="st54" d="M424.3,452c-1.1,3.2-2.1,6.3-3.2,9.5c-0.9,4.2-9.9,2.9-6.6,9.9c4.9,9.9-4.1,16.6-5.7,25.1
		c-3.1,4.6-6.1,9.2-9.3,13.7c-2.1,2.9,2,10.1-5.1,8.9c-4.1-0.7-3.9-6.8-5.9-9.9c-3-4.4-0.1-10.8-5.8-13.6c-4.6-1.7-4.6,4-7.6,4.8
		c-1.5,0.1-2.8-0.3-3.9-1.1c-2.9-2.6-4-5.9-3.5-9.8c0.3-1.4,0.9-2.7,1.7-3.9c0.8-1.1,1.8-2.1,2.7-3.1c3.1-3.3,2.9-7.1-0.1-9.9
		c-2.9-2.7-3.9,2.1-6.2,2.6c-9.3,0.8-5.8-6.2-7-9.6c-1.3,3,2.1,8-1.7,11.6c-1.5,0.6-2.8,0.4-4-0.5c-2.9-5.1-4.4-10.8-7-16
		c-2.7-9.3,11.1-11.1,9.1-20.1c-1.4-5.5-2-11.1-2.3-16.8c1.3-21.2-1.3-42.2-3-63.2c-1.6-9.2,7.4-15.3,6.9-24.2
		c8.8-2.8,18.1-8.9,25,3.2c0.9,1.2,1.5,2.4,1.9,3.8c-0.2,3.7-3.7,5.5-5,8.5c-0.6,1.7-0.8,3.4-0.3,5.2c2.9,3.1,7.5,1.5,10.6,3.9
		c1,1,1.5,2.3,1.7,3.6c-1,7.3,5.3,6.1,9.2,7.8c1.4,0.6,2.6,1.4,3.8,2.4c5.9,7.4,5.4,15.5,2.5,23.8c-0.4,1.4-1.1,2.7-1.8,3.9
		c-5.1,3.9,4.8,4.2,1.8,7.6c-1.5,2.9-4.6,5.8-0.5,9.1C422.8,424,425.6,436.8,424.3,452z"/>
	<path class="st55" d="M377.6,270.5c10.4,0.3,20.5-13.4,31.1-0.5c1.4,5.3,2.2,10.7-0.5,15.9c-8.1,4.5-13,13.1-21.7,17
		c-4.1,1.8-8,6.4-0.3,9.9c2.6,0.1,6.1-0.2,6.1,3.3c0.1,5.5-4.3,6.9-8.8,6.9c-8.9,0.1-18.2-2.3-25.5,5.5c-1.9,1.2-4,1.9-6.2,2.4
		c-2.9,0.6-5.8,1.2-8.8,1.1c-8.5-2.5-9-11.3-13.4-17.1c-5.7-12-0.8-20.4,9.1-27.1c3.5-2.7,7.2-5,11.2-7c1.3-0.7,2.6-1.2,4-1.7
		C361.8,276.1,368.4,269.8,377.6,270.5z"/>
	<path class="st15" d="M357.1,327.3c4.5-14.7,16.3-7.4,25.2-7.9c6-0.4,13.6,2.1,3.9-6.7c6.3-3.7,12.6-7.3,18.9-11
		c6.4-1.9,12.7-3.5,18.8,1c0.1,2.9,0.2,5.8,0.4,8.6c-6.1,2.4-11.7,5.7-17.6,7.8c8.3,6.7,10.1-10.1,18.3-4.8
		c3.9,5.6,4.6,12.1,5.4,18.6c-5.9,7.2-14.3,4.3-21.7,5.1c-9.5,1-19.9-2.4-28.3,4.9c-4.9-12.8-15.4-4-23-6.1
		C354.3,333.7,354.6,330.5,357.1,327.3z"/>
	<path class="st54" d="M375.4,257.1c-0.9,2.9-1.8,5.8-2.7,8.7c-3.4,5.8-8.6,9-15,10.5c-3.1,0.3-6.2,0-9.2-1
		c-10.7-7.4-12.8-19.2-15.8-30.6c0.1-1.5,0.6-2.9,1.4-4.2c1.6-1.6,3.6-2.7,5.7-3.6c6.9-3.9,13.8-6.4,20.9-0.4
		c2.2,2.1,3.6,4.7,4.8,7.3C367.2,249.6,371.8,253,375.4,257.1z"/>
	<path class="st56" d="M401.9,375.2c-1.1,0-2.1,0-3.2,0c2.7-4.9-5.3-5.6-3.9-10c3-4.4,2.5-8.5-1-12.4c-1.8-3.3-3.8-6.6-1.3-10.5
		c2-1.5,4.2-2.2,6.7-2.4c3.3-0.2,6.4,0.3,9.2,2.2c2.3,2.3,2.8,5.3,2.7,8.4c-0.6,4.2,0.5,7.9,3.8,10.8c1,0.3,2,0.6,3,0.8
		c2.3,3.4,7.3,0.5,9.7,4c-0.5,6.6-7,2.3-9.2,5.1c3.1-1.2,6.3-1.6,9.6,1.9c-2.6,6.4-9.6,1.6-13.2,4.8c-6.8,5.9-0.4,5.9,3.2,7.2
		c1.9,2.2,1.7,4.4,0.1,6.6c-5.8,2.4-9.2-0.3-10.7-5.5C406,382.2,405.1,378.2,401.9,375.2z"/>
	<path class="st57" d="M397.6,342.8c-1.8,0.2-3.5,0.3-5.3,0.5c-3.1,2.6-6.3,3-9.6,0.3l-1.1-0.8c0,0-1.3,0.1-1.3,0.1
		c-1.8-9.8,6-8.2,11-8.6c13-0.9,26-1,39-1.5c0.1,3.4,0.3,6.9,0.4,10.3c-1.1,1.1-2.5,1.8-4,2.2c-1.5,0.1-3.1,0-4.6-0.2
		C413.9,344.7,406.2,339.3,397.6,342.8z"/>
	<path class="st54" d="M417.8,391.2c0-2,0-3.9,0-5.9c3.7-1.2,6.8,0.2,9.6,2.6c2.5,8.3,2.6,16.6-0.1,24.9c-5.1,5.3-10.3,5.5-15.6,0.3
		c-1.2-0.7-1.9-1.7-2.1-3c0-1.3,0.2-2.5,0.5-3.8c0.9-2.4,2-4.7,2.9-7C414.1,396.2,415.3,393.3,417.8,391.2z"/>
	<path class="st58" d="M424.8,314.3c-2.9,12.3-12.7,9.8-21.3,9.7c-3.2,0-6.8-0.3-7.1-4.3c-0.4-4.1,3-4.7,6.3-5.1
		c7.2-1,14.3-2.2,21.5-3.3C424.4,312.4,424.6,313.3,424.8,314.3z"/>
	<path class="st54" d="M386.3,231.8c3,3,6,5.9,9,8.9c-6.1,2.1-7.9,10.8-15.7,10.3c-3-1.7-4.4-4.4-5.2-7.6
		C373.6,234.8,379.9,233.3,386.3,231.8z"/>
	<path class="st17" d="M375.6,244.1c3.1,1.3,3.8,4,4,7c-1.4,2-2.8,4-4.2,6.1c-8.6,0.5-12.4-3.7-11.9-12.1
		C367.2,240.7,371.3,240.8,375.6,244.1z"/>
	<path class="st59" d="M414.6,378c6.6-4.2,10.8-8.9,3.2-15.9c6.8-0.7,13.8-2.6,13.1,8.7C430,384.2,420,375.6,414.6,378z"/>
	<path class="st2" d="M357.1,273.1c7.1,1.7,8.9-8.2,15.6-7.2c1.6,1.5,3.2,3.1,4.8,4.6c-8.1,3.8-14.4,11.3-23.9,12.3
		C350.5,278,353.6,275.5,357.1,273.1z"/>
	<path class="st60" d="M414.7,361.3c-6.7,0.9-9.8-1.1-6.5-8.2c4.1-4.3,8.9-4.3,14.1-2.8c2.5,1,4.2,2.7,5,5.4
		C424.8,361.2,417.9,357,414.7,361.3z"/>
	<path class="st61" d="M427.3,412.7c0-8.3,0.1-16.6,0.1-24.9C432.3,396.1,431.6,404.4,427.3,412.7z"/>
	<path class="st62" d="M423.8,302.7c-6.1-3.5-12.5-0.1-18.8-1C411.5,297.6,417.9,295.1,423.8,302.7z"/>
	<path class="st59" d="M427.4,355.7c-1.2-0.9-2.3-1.8-3.5-2.7c-0.5-3.8,0.6-7.1,3.5-9.7c1.1,0,2.1,0,3.2,0
		C430.5,347.6,432.4,352.6,427.4,355.7z"/>
	<path class="st63" d="M411.4,410.5c0.1,0.8,0.2,1.7,0.3,2.5c-4.3,0-7.8,0.9-6.2,6.6c-5.7-2.8-3.9-6.1-0.6-9.5
		C407.2,408.3,409.4,408.5,411.4,410.5z"/>
	<path class="st2" d="M408.2,285.8c0.2-5.3,0.3-10.6,0.5-15.9C412.8,275.4,413.4,280.7,408.2,285.8z"/>
	<path class="st64" d="M120.9,429.5c9.8,3.3,1.1,11.7,5.6,16.9c2-1.1,4.5-2.7,7.1-4.2c5.2,4.9,3.6,11.9,5.7,17.8
		c3.9,10.2-2.5,22.1,5.5,31.5c3-0.4,5.5-3.1,8.8-2.2c9.5,2.9,7.5-8.3,12.9-10.5c7-2.1,10.9,1.5,13.5,7.4c1.1,3.5,1.1,6.8-1.8,9.5
		c-7.6-0.7-10.8,2.9-10.1,10.3c-2.9,6,1.3,13-2.7,18.8c0,3.4,0,6.8,0,10.2c11.2,3.8,13.2,11.6,9.6,21.9l-0.1,0
		c-1.4,1.6-3.1,2.9-5.2,3.5c-3.6,0.8-7.2,1.7-8.9-3c-0.6-3.4,0.2-6.9-0.9-10.3c-0.6-2-0.9-4-1-6.1c-1-1.9,0.6,0.5-0.4-1.4
		c-1.2-2.2-2.2-4.4-5.1-4.4c0.3,2.3,3.9,1.9,3.8,4.6c-0.1,2.2-1.1,4.1-2.2,5.9c-3,5.1-8.1,7.9-12.6,11.3c-1.2,0.9-2.5,1.5-3.9,1.8
		c-13.1-6.3-23.2,5.6-35.2,6c-6.1-0.7-11.9-2.3-17.5-4.6c-2-0.2-4.1-0.4-6.1-0.5c-7.3-12.2-6-23.7,2.4-34.8c5.4-6.5,3-15,6.1-22.1
		c2.2-1.6,8.3-0.5,4-6.4c-2.4-3.3-4.5-6.9-5.5-10.9c-0.1-9.7,6.5-17.9,6-27.6c0.5-1.4,1.3-2.7,2.3-3.8c5-1.4,6.2-4.8,5.3-9.5
		c1.6-5,5.5-6.7,10.2-7.1C117.4,439.4,117.5,432.3,120.9,429.5z"/>
	<path class="st17" d="M239,604.6c-19.2,8.1-37.8,17.9-57.7,23.6c-16.7,4.8-1.9-10-6.2-13.7c2.4-2,1.3-5.2,2.5-7.7
		c0.6-6.9,3.3-13.7,2-20.8c2.9-19.9,5.9-39.7,8.8-59.6c2.5-6.6-0.3-13.8,2.1-20.4c3.6-5.1,8.6-9.4,9.7-16
		c0.2-9.2,5.3-15.2,12.6-19.9c9.9,1.2,12.1,9.2,14.7,16.8c-0.1,1.1-0.1,2.4-0.8,3.1c-22,23.3-22.2,53.6-26.3,82.6
		c-2.3,6.7-1.9,13.7-2,20.6c-0.4,15.5,8.2,5.2,13.4,4.6c7.2-1.8,13.1-8,21.3-6.4C237,595,242.8,597.7,239,604.6z"/>
	<path class="st65" d="M232.6,592.8c-6.4,2.9-12.8,5.7-19.2,8.6c-3.3-1.5-5.3-3.8-4.4-7.7c6.9-10.5,19.2-10.3,29.2-14.5
		c8.3-3.5,16.6-7.1,25.3-9.5c9.3-2.6,11.3-8.3,8.4-16.9c-3.1-9.1-5.5-18.3-5.2-28c-0.7-9.8,1.8-19.7-1.9-29.3
		c-11.9-6.3-20.5-16.5-30.7-24.9c-1.3-0.9-2.3-2-3.2-3.3c-1.5-2.8-2-5.9-2-9.1c0.1-3.9,1-7.6,3.2-10.9c3.2-4.1,4.8-9.1,7.2-13.6
		c11.3-17.6,31.5-21.7,48-31.6c3.1-2.1,5.8-4.8,9.6-5.7c3.4,0.2,5.7,1.7,6.9,5c-2,11-10.6,16.1-19.5,20.1c-5.8,2.6-9.4,5.7-10.1,12
		c-1.7,1.5-3.7,2.4-5.9,3c-23.6,7.1-25.9,19.2-7.2,38c1.7,1.2,3.4,2.4,5.2,3.5c5.2,2.7,10.2,2.5,15.2-0.5c2.6-1.5,5.2-2.4,8.2-1.4
		c2.8,1.6,4.4,3.9,4.1,7.2c-1.8,5.3-6.7,7.1-11,9.5c-1.1,0.8-2.2,1.5-3.3,2.4c-3.2,6.1-1.3,12.1,0.3,18.1c1.3,5.8,1.3,11.7,2.2,17.6
		c0,1.6-0.5,2.9-1.6,4.1c1.2,8.3,2.7,16.5,3.6,24.8c0.4,3.9,2.7,5.8,5.8,6.3c11.6,1.8,15.5,10.6,18.8,20c-1.5,1.9-0.3,4.8-2.7,6.3
		c-0.9,0-1.8,0-2.7,0c-11.7-14.2-25.1-10.4-39.4-4.6C254.2,591.6,244.2,597.9,232.6,592.8z"/>
	<path class="st66" d="M165.8,636.9c-0.9,2,0,5.4-3.8,5.3c-3.8,2.9-6.6,6.8-9.2,10.8c-3.7,5.5-7.6,10.9-16.6,13.5
		c6.5-21.1,2.1-39-6.9-57.1c-5.3-10.8-8.9-23.8-2.4-36.4c5.4-2.9,10.6-7.5,17.2-2.5c6.5,6,1.3,12.6,0.8,18.9
		c-0.3,3.8-0.1,7.4,3.7,9.4c3.9,1.9,6.8-0.1,9.7-2.7c4.1-3.6,5.9-10.1,12.9-10.1C170.4,603,164.3,619.6,165.8,636.9z"/>
	<path class="st64" d="M171.3,585.9c-3.6,4.5-7.7,8.8-10.7,13.6c-4.1,6.5-9,6.1-15,3.3c-6.3-2.9-6-8.2-5.1-13.5
		c0.9-5.4,5.7-10.2,2.8-16.3c-1.6-3.3-5.6-5.9-2.9-10.5c10.9,4.9,20.5-3.9,31.1-2.8c3.4,5.3,2.9,10.8,0.5,16.3
		C171.7,579.4,171.5,582.7,171.3,585.9z"/>
	<path class="st67" d="M232.6,592.8c13.3-1.4,25.4-6.6,37.7-11.3c21.5-8.4,23.7-7.9,33.2,10.8c-12.6,4.8-25.5,7.2-39,6.1
		c-6.1-0.3-12.1-1.4-17.7-1.5c1.4,2.5,8.6-2.7,8.1,4.3c-5.4,0.8-10,4.9-15.8,3.4C236.9,600.7,234.8,596.7,232.6,592.8z"/>
	<path class="st52" d="M175.1,557c2.2-9.6-5.2-15.1-9.6-21.9c9.2-5.1,9-14.3,10-22.9c1.4-12.6,5.5-3.4,8.7-1.2
		c-2.3,5.6,0.2,11.7-2.1,17.3C175.5,536.9,180.8,548.3,175.1,557z"/>
	<path class="st68" d="M214.1,471c-4.6,6.3-9.2,12.7-13.9,19c-1.8-2.2-3.7-4.3-5.5-6.5c-0.3-0.7-0.7-1.3-1-2
		c2.1-7.4,6.7-12.9,12.5-17.7c3.4-1.1,5.8,0.4,7.9,2.8C214.7,468.2,214.8,469.6,214.1,471z"/>
	<path class="st69" d="M178.3,495.8c-0.1-2.8-0.3-5.7-0.4-8.5c0.3-0.6,0.7-1.2,1-1.8c2.1-2,4.5-3.3,7.3-4c2.9-0.4,5.7-0.3,7.6,2.4
		l1-0.3C191.3,490.5,190.4,500.7,178.3,495.8z"/>
	<path class="st70" d="M254.9,601.2c-3.1-1.3-6.2-2.6-9.2-4c6.4-0.6,12.9-4.3,18.9,1.1C261.3,599.3,258.1,600.2,254.9,601.2z"/>
	<path class="st10" d="M171.9,576.1c-1-5.3,2.2-11.4-3.1-15.8c-0.9-0.7-1.2-1.4-0.9-2.1c0.3-0.7,0.6-1.1,0.9-1.1
		c2.1,0,4.1-0.1,6.2-0.1C174.3,563.5,176.4,570.3,171.9,576.1z"/>
	<path class="st71" d="M306.1,592.2c0-2.5,0.3-4.8,2.7-6.3c2.7,4.1,7.7,8.1,0.8,12.9C306.7,597.6,306.2,595,306.1,592.2z"/>
	<path class="st72" d="M179.6,586.1c2.5,7.5,3.9,15-1.1,22.1c-2.8-4.1-2-8.4-0.6-12.7C178.5,592.4,179.1,589.2,179.6,586.1z"/>
	<path class="st25" d="M177.9,595.5c0.2,4.2,0.4,8.5,0.6,12.7c-1.1,2.1-2.2,4.2-3.4,6.3C176.1,608.2,172.8,601.2,177.9,595.5z"/>
	<path class="st69" d="M165.4,524.9c0.5-6.3-1.8-13,2.7-18.8C168.6,512.6,170.2,519.2,165.4,524.9z"/>
	<path class="st73" d="M190.6,506.1c0.4,6.9,1.3,13.9-2.1,20.4C188.1,519.6,185.9,512.5,190.6,506.1z"/>
	<path class="st73" d="M182,528.4c0-5.9-0.8-11.8,2.1-17.3C184.6,517,186.5,523.1,182,528.4z"/>
	<path class="st74" d="M370.4,614.4c-3-8.2-8.6-14.3-15.7-19.3c-9.7-8.3-11.7-19.3-11.4-31.2c0.1-6-0.1-12.1,1.2-18
		c2.7-6.8,1.4-15.1,7.4-20.8c1.3-1,2.9-1.5,4.5-1.6c8.5,2.8,5.3,10.6,7,16.3c-0.8,3.9-1.3,7.9-2.7,11.7
		c9.5,20.8,25.1,39.5,21.6,64.7c-1.7,4-2.7,9.8-8.7,3.7C373.8,617.3,373.4,615.1,370.4,614.4z"/>
	<path class="st75" d="M357.8,525c-1.3,0.1-2.6,0.1-3.9,0.2c-8.7-7.3-2.9-15.8-2.2-23.9c1.1-2.1,2.9-3.2,5-3.9
		c4.7-3.2,1.5-7.6,1.8-11.5c0.3-4.6,1.8-9.2,6.9-8.6c4.7,0.5,6.5,4.7,4.6,9.5l0,0c-3.2,5.3-2.1,9.5,3.1,12.7l0.1,0.1
		c7.1,4.1,4,11,4.8,16.9c0.8,6-2,12.4,1.9,18.1l0-0.1c3.1,5-0.8,11.3,2.8,16.2c0.8,2.5,0,5.8,3.1,7.3c2,6.4,5.5,13.6-6.6,12.3l0,0
		c-1.7-5.5-2.3-11.5-5.6-16.4c-0.7-0.8-0.8-1.7-0.5-2.7c-0.1-6.8-6.3-8.1-10.3-11.4C360.3,535.1,373.2,525.5,357.8,525z"/>
	<path class="st76" d="M379,570.4c8.2-0.9,6.6-7,6.6-12.3c6.7,5.9,7.3,13.8,6.8,23.2C388,577.6,383.5,574,379,570.4z"/>
	<path class="st77" d="M379.8,534.7c-8.7-10.4,0.9-24.3-6.7-34.9c3.4-0.9,3.5-9.5,9.5-4C375.1,508.2,381.8,521.8,379.8,534.7z"/>
	<path class="st78" d="M363.6,538.7c5.2,2.6,11.8,4.2,9.3,12.5c-4.3-10.5-8.3-7.8-12.2,0.2c0-4.7-0.1-9.3-0.1-14
		C362,537,363,537.3,363.6,538.7z"/>
	<path class="st76" d="M373.4,553.9c7,3.7,6.4,10,5.6,16.4C374.8,565.7,372.4,560.4,373.4,553.9z"/>
	<path class="st52" d="M396.7,540.6c-3.3,1.4-4,4.4-4.6,7.4c-1.6-3.8-3.2-7.6-4.9-11.6C392.1,533.3,394.4,537,396.7,540.6z"/>
	<path class="st78" d="M382.6,550.8c-4.9-4.7-3.3-10.6-2.8-16.2C382.6,539.6,383.2,545.1,382.6,550.8z"/>
	<path class="st31" d="M373.5,619.9c5.2,4,6.2-1.6,8.7-3.7c0.3,3.5,0.6,7.6-3.3,8.9C375.1,626.3,374.1,622.9,373.5,619.9z"/>
	<path class="st58" d="M214.3,186.8c-0.4-2.1-0.9-4.2-1.3-6.3c-0.4-4.9-4.5-10.8,3.8-13.3c2.1,3.4,4.2,6.8,6.3,10.2
		c3.8,4.8-0.6,11.2,3.1,16l0,0.1c9.8,5.5,7.3-2.8,8.1-7.3c0.1-8.7-0.2-17.4,0.2-26.2c5.7-4.9,12.4-1.1,18.5-2.2
		c9.5,3.3,7,10.4,5.5,17.2c-6.1,8.3-2.5,18-4.1,27c-0.6,2.8-2.4,6.1,1.3,7.7c3.2,1.4,3.8-2,5.1-3.9c4.2-3.1,8-1.3,11.8,0.9
		c1.1,0.8,2,1.9,2.6,3.2c0.5,5.2-2.5,9-5.1,13c-1.5,2.2-2.9,4.4-4.5,6.4c-2.9,2.6-5.4,5.7-9.6,6.4c-1.2-0.5-2.1-1.3-2.8-2.4
		c-0.5,0-2.5-4.2-1.4,0.5c0.3,1.2,1.7,2.1,2.3,3.5c1.1,3.8,1,7.4-2.3,10.3c-7.7,0.5-15.2-0.1-22.4-3.1c-2.7-2.4-6.5-1.7-9.6-2.9
		c-19.1-2.4-38.2-3.5-57.4-0.1l0.1,0c-2.6,1.9-5.5,1.3-8.3,1.3c-11.5-0.6-12.3-8.5-11.8-17.4c3.2-2.4,8.2-4.1,3.9-9.6
		c-8.9-5.3-13.5-14.2-19.1-22.2c-3.3-15.2,8-10.9,15.6-11.6c7.4,0.9,10.1,8,15.3,11.8c1.1,1,2,2.1,2.8,3.4c1.2,2.7,1.2,5.6,0.8,8.4
		c-1.9,5.7,0.9,10.3,3.6,14.9c1.9,3.2,4.7,4.1,8.1,3c3.5-1.9,1.1-3-0.7-4.1c-1.8-0.8-3.4-1.8-4.6-3.3c-0.4-1.3-0.4-2.6,0.1-3.8
		c1.4-1.4,3.1-2.3,4.8-3.4c3.4-3.3,1.3-7.6,2-11.3c0.6-3.1,1.4-7.7,4.7-7.1c6.6,1.1,4.9,8.4,7.4,12.7c1,2,1.9,4,2.6,6.1
		c0.4,1.5,0.2,3.9,1.2,4.3c4,1.4,3.3-2.5,3.9-4.3c2.3-7.7,2.6-17.5,15.3-12.5l0.2,0c2.8,2.2,5.6,2.5,7.3-0.9
		C219.5,191.8,217,189.2,214.3,186.8z"/>
	<path class="st79" d="M159.2,205.8c0-3.1,0-6.2,0-9.2c1.8-4.8,0.2-8.3-3.9-10.9c-4.6-4.4-10.5-7.8-11.7-14.9
		c-0.4-0.9-1.5-2.1-1.2-2.7c3.7-7.4,23.1-9.7,30-3.6c1.3-1.4,4.8,6.7,4.6-1.1c-0.1-2.8-1.1-6,2-8.2c8.9-1.5,11.9,7.2,18.1,10.6
		c2.7,11,11.8,19.3,13.1,30.8c-11.4-0.3-9.6,9.4-12.1,15.9c-1.3,3.3,1.2,9.5-6.1,8.1c-7.2-1.4-4.4-6.7-3.9-11
		c0.4-2.4,2.7-5.4,0.5-7.1c-1.4-1.1-1.7,3-3.6,3.7c-5.3-3-2-8.9-4.3-13c-3.3,1.5-1.8,4.4-2.2,6.7c-3.7,3.6,0.5,9.1-3.1,12.7
		c-2.3,0.1-4.7,0.1-7,0.2C163.2,212.9,161.1,209.5,159.2,205.8z"/>
	<path class="st67" d="M143.2,225.4c5.3,3.9,1.2,13.6,9.6,15.5c-1.4,2.5-5.1,1.2-6.4,3.8c-14.7,6.2-27.8-2-41.4-4.7
		c-2.2-1.5-4.1-3.2-5.4-5.5c-1.4-2.2-3.1-3.7-5.9-3.8c-3.4-2.4-13.3,8.2-11-5.5c-1.1-8.2,7.9-10,10.2-16c7.4-5.8,14.9-11.2,25-6.4
		c10.1,3.3,16.2,11.3,22.2,19.3C141.2,223.1,143,223.4,143.2,225.4z"/>
	<path class="st42" d="M143.3,183.4c-4.3,5.1-16.7-3-16.1,10c-3.8-4.9-8.8-9-3.9-16.5c5.2-7.9,10.7-2.9,16.3-1.7
		C144.5,176.3,146.1,178.8,143.3,183.4z"/>
	<path class="st9" d="M143.3,183.4c-1.2-2.7-2.5-5.4-3.7-8.2c1.3-1.5,2.6-2.9,3.9-4.4c4.4,4.3,8.8,8.6,13.1,12.8
		c5.7,4.7,5.9,9-1,12.6C148.7,194.7,150.2,185.1,143.3,183.4z"/>
	<path class="st80" d="M82.6,225.2c1.8,11,10.1-4.4,12.8,3.1c3.1,1.1,4,4.5,6.4,6.3c2.3,1,3.2,2.9,3.3,5.3
		c-4.9,3.8-7.4-4.4-11.9-2.5c-5-3.3-11.9,1.7-16.4-3.7c0,0,0,0.2,0,0.2C77.3,230.2,79.1,227.2,82.6,225.2z"/>
	<path class="st33" d="M117.8,202.9c-8.3,2.1-16.7,4.3-25,6.4C99.5,201,104.7,186.5,117.8,202.9z"/>
	<path class="st81" d="M178.9,155.2c0.3,2.6,0.7,5.2,0.9,7.7c0.4,5,10.3,10.4,3.3,13.6c-6.8,3.1-7.4-7.5-10.8-12
		C176.3,162.7,173.9,156.3,178.9,155.2z"/>
	<path class="st42" d="M143.2,225.4c-1.1-1.1-2.2-2.2-3.2-3.3c4.6,0.3,8.9,0.2,6.4-6.5C152.4,221.2,149.5,223.8,143.2,225.4z"/>
	<path class="st49" d="M280.6,534.8c-0.9-0.6-1.1-1.3-0.5-2.3c-1.8-9.9-1.3-19.9-2-29.8c6-7.8,7.4-0.9,8.7,3.2
		c2.3,7,0.2,14.7,3.8,21.7c-1.1-7-1.7-14.1-1.2-21.2c0.5-7.4,2.9-14.3,10.5-16c10.6-2.4,10.9-9.6,10.8-17.8c1.9-3.5,5.5-4.4,7.6-1.9
		c4.6,5.5,8.5,0.6,12.6,0.2c11.5-0.4,17.5,4.6,16.1,16.7c-4.5,7.8-1.5,16.4-2.1,24.6c-0.1,2.3-0.5,4.6-1.1,6.8
		c-1.8,5.1-1.8,10.4-2.1,15.7c-0.1,2.3-0.5,4.5-1.1,6.7c-2.5,8-2.5,16-0.5,24c0.6,2.3,0.7,4.5,0.4,6.8c-0.4,1.5-1.1,2.9-2.2,4
		c-2.3,0-4.5,0.1-6.8,0.1c-3.4-12.5-0.6-25.2-1.5-37.8c1-6.9,3-13.5,3.4-20.6c-0.2,3.3-0.3,6.6-1.4,9.7c-4.9,16,0.7,32.7-3.6,48.6
		c-5.2-2.7-1.2-10-6.4-12.8c-0.7-0.7-1.4-1.4-2.2-2.1c0.7,0.7,1.5,1.3,2.2,2.1c-1.4,8.6-7.6,3.5-8.8,1.7
		C304.8,552.3,285.2,551.5,280.6,534.8z"/>
	<path class="st82" d="M338.3,576.2c0.3-1.1,0.6-2.2,0.9-3.4c-1.1-12.1-2.2-24.2,0.4-36.3c0-2.6-0.1-5.2,0.4-7.8
		c1.5-5.8,3.4-11.6,2.8-17.8c1-6.9-2.1-14,1-20.9c2.5-12.4-0.9-19.3-15.1-16.1c-1.3-1-1.9-2.4-1.9-4c1.3-4.7,4.4-8.4,6.2-12.8
		c15.2-31.9,16.2-64.9,7.9-98.7c-1.4-5.6-3.6-11.1-3.3-17c0.4-3.5,1.3-6.7,4.7-8.5c5,0.1,6.8,3.8,8.6,7.6c2.5,4.8-0.5,10.7,3,15.4
		c1.1,23.1,7.2,46,2.7,69.3c-2.3,6.6-1.8,12.8,3.1,18.2c0.2,3.9,2,8.1-4.9,8.4c-5.4,0.2-8,3.9-7.1,9.5c4.1,4.5,3.9,10.8,6.2,16
		l0.1-0.1c3.7,3.6,3.7,8.5,4.9,13c-0.1,5.2-7.1,6.8-6.6,12.3c0.6,12.5-4.2,24.5-3.3,37c-4.5,7.6-3.7,15.7-1.9,23.8
		c-0.9,11.4,5.3,21.1,7.6,31.7c-2.2,0.1-4.4,0.2-6.6,0.3C344.8,589,341.6,582.6,338.3,576.2z"/>
	<path class="st80" d="M331.6,534.8c0,13.8,0,27.7,0,41.5c0,0-1.6,0-1.6,0s-1.6,0-1.6,0c1.7-17-3.5-34.4,3.2-51.1
		C333.7,528.4,333.8,531.6,331.6,534.8z"/>
	<path class="st10" d="M140.1,563.5c1,3.2,2.1,6.4,3.1,9.6c-5.4-4.6-10.9-0.3-16.3-0.1c0.2-5.4,12.1-5.1,7.2-11.5
		c-4.5-5.8-10.2,3.3-16,2.2c-4.5,1.9-9,2.3-13.4-0.3c11.1-5.8,21.5-14.9,35.2-6.3C141.7,559.2,141.9,561.4,140.1,563.5z"/>
	<path class="st83" d="M104.8,563.4c4.5,0.1,8.9,0.2,13.4,0.3c-11.5,5.2-22.4,4.4-32.6-3.4C92.4,559,98.4,562.5,104.8,563.4z"/>
	<path class="st84" d="M152.8,653c0.5-5.8,2.6-10.2,9.2-10.8c-2.1,3.3-4.2,6.5-6.3,9.8C154.7,652.4,153.8,652.7,152.8,653z"/>
	<path class="st12" d="M264.6,228.4c0.1-2.9,0.9-5.4,3.9-6.6c1.7-0.6,3.5-0.1,5.2-0.2c2.9-1.2,2.6-4,3.2-6.4
		c0.2-1.4,0.5-2.8,0.8-4.2c0.6-2,1.7-5.1,3.3-4.8c13.3,2.3,15.2-6.1,15.6-16.1c-0.5-4.4,1.7-7.5,5-10c3.4-2,7.3-2,11-2.7
		c3.6,3.5,8.4,3.1,12.8,4.1c6.7,9.2-1.9,16.5-3.1,24.8l0,0c-5.1,6.5-11.8,11.8-14.7,20.3c6.5,0.4,7.2-6.4,11.6-8c2,0,4,0.1,6.1,0.1
		c-0.6,13,11.7,2.6,15.1,8.3c1.3,1,1.9,2.3,2,3.9c-2.2,4.8-7.9,6.4-10.1,11.2c-2.4,1.9-5,2.3-7.9,1.5c-1.1-0.2-1.8-1.6-3.1-1.2
		c0.9,2.5-1.5,7.9,4.9,5.4c2.6-2,4.9-4.8,8.7-3.5c4.3,9.7,8.6,19.4,12.9,29.1c3.5,2.5,6.5,5.1,3.3,9.8c-3.1,2-6.3,4-9.4,6
		c-12.6,9.4-23.7,8.4-34.5-3.6c-6.6-7.4-17.6-10-23-19.2c-10.7-6.2-21.4-12.4-32.2-18.7c0-4,0-8.1,0-12.1c0.7-1.4,1.7-1.6,3-0.8
		l0.4,0.3C262.7,239.1,260.7,229.6,264.6,228.4z"/>
	<path class="st9" d="M284,266.1c7.5-0.2,11.6,6,16.5,9.8c12.3,9.7,23.1,22.1,41.1,13c-5.2,7.5-16,12.8-9.6,24.7
		c1,2.2,1.6,4.4,0.6,6.8c-15.6-1.6-20.3-14.3-26.1-25.8c-6.9-9.4-16.7-15.4-25.9-22.1C281.7,270.4,282.8,268.3,284,266.1z"/>
	<path class="st40" d="M232.6,253.9c-21.8-1.2-43.5-2.5-65.3-3.7C189.4,245.4,211.2,246.1,232.6,253.9z"/>
	<path class="st80" d="M162.5,241.3c20.2-5.8,40.4-5.2,60.6-0.2c-4.2,2.5-8.4,2.1-12.7,0.4C194.4,239,178.4,240.3,162.5,241.3z"/>
	<path class="st40" d="M156,254.2c0,1,0,1.9-0.1,2.9c-1.7,1.9-2.5,4.4-4.4,6.2c-1.5,1.2-3.4,1.8-4.7,3.2c-1.2-1-2.4-2-3.6-3
		C142.4,253.4,148,252.2,156,254.2z"/>
	<path class="st40" d="M257.1,260.4c-7.7,0.3-14.8-1.7-21.2-5.9C243.8,253.3,250.7,255.8,257.1,260.4z"/>
	<path class="st85" d="M210.3,241.5c4.2-0.1,8.5-0.2,12.7-0.4c2.1,1.1,4.2,2.2,6.4,3.3C223,243.6,216,246.7,210.3,241.5z"/>
	<path class="st30" d="M76.7,233.9c5.2,2.3,11.5-0.2,16.4,3.7C87.4,237.1,80.8,241.2,76.7,233.9z"/>
	<path class="st80" d="M146.4,244.8c1.2-2.8,3.7-3.5,6.4-3.8c3.3,0.1,6.5,0.2,9.8,0.3C157.6,244.6,152,244.7,146.4,244.8z"/>
	<path class="st86" d="M146.8,266.5c-0.2-2,0.1-3.4,2.7-2.8c0.9,0.7,1.1,1.4,0.7,1.9c-0.4,0.5-0.7,0.7-1.1,0.7c0,0,0.1-0.1,0.1-0.1
		C148.4,266.4,147.6,266.4,146.8,266.5z"/>
	<path class="st87" d="M341.2,228.4c-5.8-2.6-19.3,7.3-16.1-10c-0.2-4.9,4-6.9,6.3-10.1c10.8-15.1,14.4-15.2,26.2-0.8
		c1,1.3,3.5,1.3,5.3,2c0.3,0.8,0.4,1.6,0.4,2.5c-3.9,8.1-11.6,12.2-18.3,17.5C343.6,229.8,342.3,229.5,341.2,228.4z"/>
	<path class="st12" d="M274,209.1c-4.1-1-8.2-2-12.2-3c-1.1-0.5-1.6-1.1-1.5-1.9c0.1-0.9,0.3-1.4,0.6-1.4c1.2-2.1,2.5-4.2,3.7-6.3
		c3.9-5-0.3-11.5,3-16.6c-0.7-1-0.5-1.8,0.4-2.6c4.5-3.5-3.6-16.9,10.2-13.1c1-0.5,1.8-0.3,2.5,0.5c3.7,3.9,14.3,2.5,9.6,12.7
		c1.2,7.4-10,10.6-6.4,18.8C287.6,206,278,205.4,274,209.1z"/>
	<path class="st6" d="M274,209.1c1.7-5.4,10.1-5.8,9.8-12.8c6.6,2.6,8.3-4.4,12.7-6.3c6.2,18,5.2,19.2-13.2,18.2
		c-2.5-0.1-2.6,2.7-2.9,4.7c-3,1-4.6-0.5-5.7-3L274,209.1z"/>
	<path class="st6" d="M319,218.3c-2.2,11-5.4,19.9-18.8,9c6.9-7.3,10.5-18.1,21.9-21.2C321.8,210.4,317.3,213.6,319,218.3z"/>
	<path class="st6" d="M322.1,206.1c-0.1-3.3-11.1-5-1.3-9.8c6.8-3.3,1.2-10.5,4.4-15c0.7-0.3,1.5-0.5,2.3-0.4c4.4,6,2.8,12.4,1,18.7
		C326.4,201.8,324.2,204,322.1,206.1z"/>
	<path class="st17" d="M290.2,177.5c0.3-6.9-8-7.3-9.6-12.7C285.6,167.6,302,161.9,290.2,177.5z"/>
	<path class="st17" d="M278.1,164.3c-9.2-0.2-5.2,10-10.2,13.1c1.7-5.5-4.3-14,6.3-16C275.4,162.3,276.8,163.3,278.1,164.3z"/>
	<path class="st6" d="M312.5,177.3c-1.7,9-7.4,1.3-11,2.7C303.5,172.6,307.2,171.6,312.5,177.3z"/>
	<path class="st88" d="M328.5,199.7c-0.3-6.3,1.8-12.6-1-18.7C334.7,186.8,332.7,193.2,328.5,199.7z"/>
	<path class="st35" d="M251.8,158.5c-5.2,3-10.6,1.2-15.9,0.4l-1.3,0.9l-1.4-0.6c9.2-7.2,18.4-6.9,27.6,0.1
		C257.7,160.1,254.7,160.1,251.8,158.5z"/>
	<path class="st89" d="M233.2,159.2c0.9-0.3,1.8-0.4,2.7-0.3c-0.1,10.2-0.2,20.4-0.3,30.6l-1.1,0.5
		C234.1,179.7,233.6,169.5,233.2,159.2z"/>
	<path class="st37" d="M216.7,167.2c-6,3.1-2.3,8.9-3.8,13.3c-4.6-13.2-4.1-15.3,3.8-15.9C216.7,165.5,216.7,166.3,216.7,167.2z"/>
	<path class="st89" d="M251.8,158.5c3,0.3,6,0.6,9,0.8c-0.6,5.2,0.7,10.7-2.3,15.6C258,168.8,258.2,162.3,251.8,158.5z"/>
	<path class="st90" d="M234.5,190c0,0,1.1-0.5,1.1-0.5c0.5,4,1.3,8.5-4.1,9.5c-3.7,0.7-5.1-2.2-5.3-5.6
		C230,194.8,232.9,193.9,234.5,190z"/>
	<path class="st91" d="M260.8,202.8c0.3,1.1,0.6,2.2,1,3.3c-1.5,3.7-3,9-8,6.1c-4.4-2.5-2.1-6.9,0.6-10.3c0.7,1.7,1.4,3.3,2.2,5
		C258,205.5,259.4,204.2,260.8,202.8z"/>
	<path class="st90" d="M226.1,193.3c-5-4.6-3-10.5-3.1-16C227.2,182.1,225.5,187.9,226.1,193.3z"/>
	<path class="st17" d="M267.5,179.9c-0.3,5.7,2.4,11.9-3,16.6C264.8,190.8,264.6,185.1,267.5,179.9z"/>
	<path class="st92" d="M89.3,486c2.3,3.4,4.8,6.6,6.9,10.1c2,3.4,6.6,7.5,3.6,10.7c-4.6,4.9-7.7-2.1-11.5-3.7c-1.7,4-4.5,6.2-9,5.8
		c-6.9,0.6-13.5,0.8-12.5-9.3c3.2-0.9,7.5,1.8,9.4-3.1c2.5-2.9,4.9-5.8,7.9-8.1C85.7,487.3,87.3,486.3,89.3,486z"/>
	<path class="st71" d="M86.7,489.9c-2.4,3.9-5.4,6.9-10.4,6.8c-0.2-2.6-0.4-5.2-0.7-7.8c-6.8-11.7,3.7-19.1,7-28.3
		c1.7-0.6,3.2-0.2,4.4,1.1C91.1,471.2,85.9,480.5,86.7,489.9z"/>
	<path class="st93" d="M57,423.1c1.2,5.3,1.4,10.6-0.3,15.9C52.5,433.6,52.4,428.3,57,423.1z"/>
	<path class="st5" d="M79.3,509.1c3-1.9,6-3.9,9-5.8c2.6,8.6,5.9,17.5-6.3,21.8C72.1,521.2,85.3,513.5,79.3,509.1z"/>
	<path class="st49" d="M130.4,694.4c1.5-2.7,2.9-5.7,6.8-4.9c0.6,0.1,1.4,1.7,1.2,2.2C136.9,695.5,133.3,693.9,130.4,694.4
		C130.4,694.4,130.4,694.4,130.4,694.4z"/>
	<path class="st90" d="M214.3,186.8c7.8,1.9,7.1,7.2,3.9,12c-3.5,5.1-6,1.3-7.9-2.2C223.6,198.3,214.2,190.6,214.3,186.8z"/>
	<path class="st17" d="M341.2,228.4c1.2,0,2.3-0.1,3.5-0.1c7.7-2.4,12.9-10.4,22-10c8.5-2.2,12.5,1.3,12.4,9.9
		c-4.7,5.7-10.2,10.1-18.1,9.9c-7-2.6-13.8-3.4-19.4,3.1c-3-3-2.9-6.1-0.4-9.4C341.1,230.7,341.2,229.5,341.2,228.4z"/>
	<path class="st94" d="M360.9,238.2c6-3.3,10.4-9.7,18.1-9.9c2.4,1.2,4.9,2.4,7.3,3.6c-3,4.6-12.1,3.8-10.7,12.2
		c-4,0.3-8.1,0.6-12.1,0.9C359.9,243.8,360.4,241,360.9,238.2z"/>
	<path class="st95" d="M366.6,218.3c-6.7,4.7-11.6,13.3-22,10c3.5-8.6,11.7-11.7,18.7-16.3C364.5,214.1,365.6,216.2,366.6,218.3z"/>
	<path class="st51" d="M414.4,471.4c-2.1-3-11.4-4.6-2.5-9.7c1.6-0.9,6,2.8,9.1-0.2C421.7,466.7,416.1,467.8,414.4,471.4z"/>
	<path class="st43" d="M264.6,481.3c-1.1-1.2-2.3-2.4-3.4-3.6c0.9-7.4-12.6-11.2-5.2-20.3c1.2-0.6,2.6-0.8,3.9-0.7
		c3.8,1.1,5.2,5.4,8.8,6.7c1.2,0.3,2.3,0.5,3.5,0.6c1.9-0.1,3.7-0.6,5.4-1.3c6.5-4.4,10-9.8,6.3-17.7c-1.8-5.2-7.1-7.8-9.4-12.5
		c-8.4-4.6-8.9-9.4,0.9-11.7c12.2-2.9,21.1-9.3,27.1-20.1c-1.2-6.1,4.8-8.2,6.8-12.6c3.6-7.5,3-15.1,0.4-22.7
		c-0.9-2-1.6-4.1-0.2-6.2c2.7-1.7,2.9-4.5,3.3-7.3c13,7,14.8,20.2,18.3,32.5c0.5,1.6,0.8,3.2,1,4.9c0.6,7.5,0.7,14.9,0,22.4
		c-0.1,1.6-0.5,3.2-0.9,4.8c-4.9,15.8-7.3,32.7-19.5,45.3c-7.8,4.4-12.6,12.9-21.8,15.2c-2.3,0.6-5.5-0.4-6.4,3.1
		C277.4,483.8,271,482,264.6,481.3z"/>
	<path class="st0" d="M162.4,404.2c1.2-1.2,2.4-2.4,3.5-3.6c13.1-6.1,23.9,4.1,36,5.2c7,0.6,14.3,5.3,19.8-3.1
		c2.1-4.6,3.6-9.3,5.2-14.1c1.2-3.3,2.3-6.6,3.4-10c1.7-4.9,2.5-9.7-0.1-14.5c-2.3-4.2-4.7-8.4-7.1-12.7c-2-3.8-5-7.1-5-11.7
		c0.3-1.5,1-2.7,2.2-3.6c7.5-0.8,10.6,3.8,13.1,9.8c2,4.9,2.9,10.9,9,13.1c11,9.9,2.1,17.6-2.7,25.9c-0.9,3.2-1.9,6.4-2.8,9.6
		c1.1,4.7,0.5,9.2-0.9,13.7c-2,5.1-2.2,10.7-4,15.9c-0.7,1.5-1.8,2.7-3.2,3.6C205.1,424,181.9,419.1,162.4,404.2z"/>
	<path class="st43" d="M233.5,407.2c-2.7-5.2,4.8-7.8,3.3-12.8c2.8,7.5,10.2,3.7,15,6.3c4.5,2.7,6.6-1.6,9.6-3.2
		c0.9-8.5,6.8-1.8,9.9-3.3c1.7-1.7,3.7-2,5.9-1.6c4.2,3.8,16-1.1,12.8,11.2c-8.3,8.4-20.6,9.1-30.1,15.4c-7,4.6-13.8,8.8-18,16.3
		c-3.6,1.6-5.7-0.4-7.5-3.1c-0.8-2.2-0.8-4.4,0.1-6.6c-1.9-2.5,9.4-2.9,0.9-7.1C231.2,416.7,234.1,411.1,233.5,407.2z"/>
	<path class="st96" d="M220.2,336c-0.2,1.5-0.3,3.1-0.5,4.6c-6.4,5.2-13.7,3.4-20.7,2.3c-8.4-1.3-15.3,0.3-20.3,7.6
		c-3.2,4.4-2.6,9.8-3.6,14.8c-1.1,4.5-2.2,9-5.1,12.7c-3.8,2.7-5.6,0.1-7.3-2.7c-0.2-2.2-0.4-4.3-0.6-6.5c0.8-12.7,3.7-25.3,0.1-38
		c-2-3.8,0.3-5.4,3.3-6.6c6,6.4,9.9,11.3,21.1,4.2C196.6,322.1,209.2,331.8,220.2,336z"/>
	<path class="st97" d="M277.4,395c-2-0.3-4.1-0.5-6.1-0.8c-5-11.3-11.9-22.4-3.1-35c3.4-1.2,5.4,0.7,7.1,3.3
		c0.4,1.4,0.5,2.8,0.3,4.2c-0.7,4.4-3,8.9,0.5,13c-1-6.8,0.5-12.2,8.2-13c6.6-0.7,11.2,3.1,13.3,8.9c3,7.9,0.1,14.6-6.7,18.9
		C287,397.1,282,397.1,277.4,395z"/>
	<path class="st43" d="M239.6,384.8c0.9-8.6,9.7-16.4,2.7-25.9c5.5-13.9-7.2-21.5-12.1-34.8c14.3,4.9,12.5,19.9,21,26.4
		c13.5,10.3,3.7,21.7,0,32.2C250.6,384.5,243.6,384.1,239.6,384.8z"/>
	<path class="st51" d="M328,385.6c-4.2-11.6-6.8-23.9-15.1-33.7c-2.2-8.4-11.5-12.6-12.7-21.5c0.7-2.4,2-4.2,4.5-4.8
		c20.1,7.5,24.6,25.7,29.7,43.5c-0.1,1.5-0.4,3-0.8,4.5C332,377.7,332.3,382.8,328,385.6z"/>
	<path class="st98" d="M312.1,391c-3.2,3.2-6.3,6.5-9.5,9.7c-1.9-1.1-3.7-2.1-5.6-3.2c-3.2-4.8,0.7-8.1,2.6-11.8c3-4.4,3-9,0.8-13.6
		c-1-1.8-1.8-3.7-1.8-5.9c1.1-4.2,3.9-7.1,7.4-9.4c2.2-0.7,2.9,0.9,3.5,2.4c-0.8,1.9,0,2.9,1.7,3.7
		C316.1,372.1,314.6,381.6,312.1,391z"/>
	<path class="st99" d="M165.6,324.2c-1.1,2.2-2.2,4.4-3.3,6.6c-1.3-1.2-2.7-2.3-4-3.5c-3.8-3.5-12.5-0.6-12-9.5c1.3-1.5,2.7-3,4-4.5
		c6.5-0.1,10,5.7,15.3,7.8C165.6,322.2,165.6,323.2,165.6,324.2z"/>
	<path class="st60" d="M274.5,362.6c-2.1-1.1-4.2-2.2-6.3-3.3c1.1-7.6,7.1-6.6,12.2-7c1.5-0.7,2.9-0.4,4.2,0.7
		c0.7,1.5,0.9,3,0.7,4.6C283.1,362.3,280.5,366,274.5,362.6z"/>
	<path class="st60" d="M306,356.8c0,4-2.3,6.6-5.3,8.7c-4.9-0.3-7.7-3.1-9.1-7.6c0.4-5.2,2.1-8.4,8-5.1
		C301.7,354.2,303.9,355.5,306,356.8z"/>
	<path class="st71" d="M303.5,326.2c-1.1,1.4-2.2,2.8-3.3,4.2c-3.5-3.9-7-7.7-10.5-11.6c0.3-1.9,0.7-3.8,1-5.6
		C299.9,312.6,304.8,316.4,303.5,326.2z"/>
	<path class="st100" d="M299.6,352.9c-3.6,0.3-6.2,1.6-6.2,5.8c-4,2.8-6.8,0.6-9.5-2.3c-0.1-1.3-0.2-2.6-0.2-4
		c2.7-7.7,8.1-3.9,12.9-3.1C297.5,350.6,298.5,351.7,299.6,352.9z"/>
	<path class="st74" d="M261.3,397.5c-1.2,6.8-4.2,8.5-9.6,3.2C253.3,394.7,256.6,394,261.3,397.5z"/>
	<path class="st84" d="M296.5,349.4c-4.2,1.3-9.9-3.5-12.9,3.1c-1,0-2.1-0.1-3.1-0.1C284.2,342.9,290.2,345,296.5,349.4z"/>
	<path class="st101" d="M236.6,426.2c-0.1,2-0.1,4-0.2,6c1,2,1.5,4.1,1,6.3c-1.3,4.1-3.4,7.7-6.7,10.5c-2.9,1.8-6.1,0-9,0.6
		c-3.1,5.7,0.5,12.9-4,18.2c-1.3,1-2.6,1-3.9,0c-2.1-1.1-4.2-2.2-6.2-3.3c-5.5-6.7-0.1-22.8-16.9-19.8c-3.5,1.5-4.3,4.5-4.3,7.9
		c-1.5,7.3-1.1,15-4,22.1c-4,6.2-11.8,1.6-16.5,5.7c-2.6,4.9,1.5,12.6-5.5,15.3c-3.7,1.4-7.1-1-7.3-5.7c-2.3-1.9-2.8-4.3-1.9-7.1
		c-2.4,4.2-1.9,9.4-4.7,13.4c-11.4,1.6-8.5-8.2-9.5-13.3c-1.4-7-0.4-14.4-0.5-21.7c-1.5-6.4-1.5-12.8,0-19.3c0-2.1,0-4.2,0-6.3
		c-0.5-1-0.9-2-1.2-3c-0.6-1.5-1.3-3-2.3-4.2c-0.7-0.8-1.4-1.6-2.2-2.4l0,0c-3-7.2,1.2-19.3-12.9-19.1l0,0c-3.7-3.2-10.6,0-12.7-6.4
		c1.2-1.1,2.5-2.3,3.7-3.4c9.1-0.3,17.7,2.2,25.5,6.3c7.5,3.9,13.5,4.3,18.9-2.9c1.2,1.4,2.3,2.9,3.5,4.3c5,8.6,11.8,14.3,22.1,15.5
		c13,1.6,25.9,3.7,37.9,9.4c4.8,2.3,9.2,1.3,12.6-3.1c0.3-1.7,0.5-3.3,0.8-5C233.7,420.9,236.5,421.5,236.6,426.2z"/>
	<path class="st2" d="M111.5,439.8c-3.3,1.8-6.6,3.6-10,5.4c-1.2,3.4-3.6,5.5-7.1,6.4c-4.3,1.1-8.3,0.6-12-1.9
		c-4.3-2.4-5-4.9-0.4-7.8c5-3.3,4.1-11.1,2.3-12.1c-13.3-7.2-1.2-9.1,2.1-12.8c5.4-1.7,8.8,1.4,12.2,4.7
		C100.9,429,116,427.5,111.5,439.8z"/>
	<path class="st102" d="M95.4,423.2c-3-2.1-5.9-4.2-8.9-6.4c-2.1-3.2-5.7-3.5-8.4-2.6c-4.1,1.3-9.3,6.7-10.9-0.6
		c-1.4-6.7,8.7-5.8,10.4-5.6c15.7,2.2,31.6,5.2,43.2,17.8C111.3,433.8,103.5,427.4,95.4,423.2z"/>
	<path class="st103" d="M95.4,423.2c8.7-1.2,16.4,6.1,25.4,2.7c0,1.2,0.1,2.3,0.1,3.5c0,14.9,0,14.9-9.3,10.3
		c0.5-3.8,0.9-7.4-4.7-7.6C101,431.9,97.7,428.1,95.4,423.2z"/>
	<path class="st40" d="M82.5,449.6c4.3-0.2,8.5-0.3,12.8-0.5c1.8,2,1.9,3.9,0,5.8l0,0c-0.7,0.8-1.6,1.6-2.4,2.2
		c-1.4,0.8-2.8,1.6-4.2,2.5c-0.9,0.7-1.8,1.1-2.9,1.5c-1.1-0.2-2.2-0.4-3.3-0.5C82.5,457,82.5,453.3,82.5,449.6z"/>
	<path class="st83" d="M117.7,407.2c16.6-1.9,11.4,10.8,12.9,19.1C125.6,420.3,128.2,409.3,117.7,407.2z"/>
	<path class="st83" d="M104.9,400.8c4.2,2.1,8.5,4.3,12.7,6.4c-7.1,0.5-13.7-0.5-19.1-5.8C100.7,401.2,102.8,401,104.9,400.8z"/>
	<path class="st104" d="M136.2,442.2c0,6.4,0,12.8,0,19.3c-5.2-5.8-2.4-12.7-2.7-19.2C134.4,442.2,135.3,442.2,136.2,442.2z"/>
	<path class="st83" d="M130.5,426.2c0.8,0.2,1.5,0.3,2.3,0.5c2.3,1,2.4,2.8,2.1,4.9c-0.5,0.5-1,0.9-1.5,1.4
		C131.1,431.3,130.4,428.9,130.5,426.2z"/>
	<path class="st83" d="M136.7,432.8c0,1-0.2,2-0.6,3c-0.9-1-1.8-1.9-2.7-2.9c0,0,1-1.1,1-1.1C135.6,431.3,136.4,431.7,136.7,432.8z"
		/>
	<path class="st17" d="M303.5,326.2c-1.6-7-5.9-11.3-12.9-13.1c0-0.7-0.1-1.4-0.5-2c1-3.1,2.1-6.3,3.1-9.4c3-1.7,7.3,0.5,9.6-3.2
		c1.2-1.3,2.4-2.6,3.5-4c10.4,7.1,16.1,18.5,24.8,27.2c7.2,4.5,7.8,12.3,9.5,19.5c7.5,27.5,13.8,55.2,6.9,83.9
		c-3,12.6-3.3,26.1-12.7,36.5c-12,8.2-12.1-1.9-12.4-8.8c-0.3-7.9,4.1-15.2,5.5-23c0.5-2.4,0.6-5,1.2-7.4c7-16.6,0.8-33.8,2.7-50.7
		C327.1,353.6,321.1,336.3,303.5,326.2z"/>
	<path class="st43" d="M149.1,266.4c0.1-0.9,0.2-1.7,0.4-2.6c0.2-4.1,2.1-6.5,6.5-6.7c1.1,1.1,2.2,2.1,3.2,3.2
		c1.8,0.3,2.8,1.4,3.2,3.2c0,1.1,0,2.1,0,3.2c-2.1,0-4.2,0-6.4,0C153.7,266.6,151.4,266.5,149.1,266.4z"/>
	<path class="st105" d="M270.8,295.8c-5.2-1.8-10.3-3.7-15.5-5.5C262.2,287.2,267.5,288.6,270.8,295.8z"/>
	<path class="st43" d="M197.5,257.1c-4.1,0-8.2,0-12.3,0c0-1.1,0-2.1,0-3.2c6.2,0,12.5,0,18.7,0C204.2,259.9,201.1,259,197.5,257.1z
		"/>
	<path class="st21" d="M302.9,298.6c-0.8,8.4-5.5,4.9-9.6,3.2C294,293.3,299.7,299.8,302.9,298.6z"/>
	<path class="st43" d="M258.3,263.1c0.2,2.8,3.9,5.5,0.9,8.3c-1.7,1.5-4.2,0.3-5-1.6c-1.8-4,1.8-5.1,4.3-6.6L258.3,263.1z"/>
	<path class="st106" d="M193,261.3c-6.2,3.3-10.5,2-16.6,1.3C182.6,259.2,186.9,260.5,193,261.3z"/>
	<path class="st43" d="M207.1,260.3c3.1,0,6.2,0,9.3,0c0,0.8,0.1,1.7,0.1,2.5c-4.2,0.2-8.4,0.4-12.6,0.7
		C203,260.5,204,259.3,207.1,260.3z"/>
	<path class="st50" d="M162.4,263.5c-1.1-1.1-2.1-2.1-3.2-3.2c1.9-2.7,4.9-4.6,7.1-1.7C167.9,260.7,164.5,262.4,162.4,263.5z"/>
	<path class="st44" d="M207.1,260.3c-1.1,1.1-2.1,2.1-3.2,3.2c-3.1-1.2-5.2-3.3-6.4-6.4c2.6-0.1,5-0.6,6.4-3.2
		C206.5,255.3,207,257.7,207.1,260.3z"/>
	<path class="st107" d="M268.5,284.9c-6.9-0.1-9.4-1.3-11.1-4C261.5,278.1,263.5,281,268.5,284.9z"/>
	<path class="st45" d="M133.6,333.7c2.3-3.2,4.6-6.4,6.8-9.5c5.2-1,9.3-0.3,9.7,6.1c0.7,2.5,1.4,5,2.2,7.5
		C145.9,337.3,138.2,342.8,133.6,333.7z"/>
	<path class="st33" d="M150.2,330.3c-3.2-2-6.5-4.1-9.7-6.1c0.1-3.7,2.7-5.2,5.7-6.3c4,3.2,8,6.3,12,9.5
		C155.5,328.3,152.9,329.3,150.2,330.3z"/>
	<path class="st108" d="M133.6,333.7c4.5,9.3,12.9,0.8,18.7,4.1c-0.1,2.3,0.2,4.7-2.5,5.9c-3.3-5.1-8.5-2.9-12.9-3.4
		C132.6,339.7,129,338.7,133.6,333.7z"/>
	<path class="st109" d="M168.2,378.4c1.1-4.3-0.4-9.2,3.5-12.8c4.2-5.2,0.3-11.9,3-17.4c6.1-9.3,13-14.3,25.1-9
		c5.7,2.5,13.3,1,20,1.3c0.8,3.8,6.5,4.5,6.1,9.2c-3.7,7.8,0.3,16.6-3,24.6c-0.8,2,4.3-0.4,5.1,3c1.8,7.7,1.4,13.9-8.5,14.5
		c-8.8-6.5-6.1-17.6-10.3-26c-1.4-2.8-1.4-6.9-4.9-7.7c-4.6-1-5.9,3.5-8,6.4c-0.9,1.3-1.6,2.7-2.4,4.1
		c-11.8,20.2-8.6,26.5,14.3,28.1c3.7,0.2,7.5,0.1,11.1,1c3.4,0.8,5.3,3.1,6.6,6.1c-1.9,8.7-5.9,11.4-15.3,8.3
		c-14.5-4.8-29.6-7.8-44.4-11.5c-0.3-3.2-0.7-6.3-1-9.5C163.3,386.2,163.4,381.7,168.2,378.4z"/>
	<path class="st105" d="M229.1,427c0.5,7.5,3,15-10.1,8.1c-15.6-8.2-33.8-9.4-50.9-13.7c-8.6-2.2-14.3-6.2-11.6-16.3
		c2-0.3,3.9-0.6,5.9-0.9C184.6,411.8,206.9,419.4,229.1,427z"/>
	<path class="st110" d="M168.2,378.4c-1.1,4.2-2.2,8.5-3.3,12.7c-1-2.5-2.1-5-3.1-7.5c0.3-2.8,0.6-5.6,0.9-8.3
		C164.5,376.3,166.4,377.4,168.2,378.4z"/>
	<path class="st80" d="M357.7,489c-3.4-3.2-4.2-7.3-3.6-11.7c6.1-4.9,1.2-11.6,2.8-17.7c6.9,2.7-0.3,15,10.3,14.5
		c7.7,1.2,8.4,6.2,6.7,12.5c-1.3,0.1-2.6,0.3-3.9,0.4c-2.1-2.4-1.6-8.3-6.5-6.7c-3.6,1.2-1.7,5-1,8.1c0.8,3.4,0.6,7.1,0.7,10.7
		c0,0.3-0.7,1-0.8,0.9c-0.9-0.3-1.7-0.8-2.5-1.3C356.7,496,359,492.1,357.7,489z"/>
	<path class="st28" d="M417.8,391.2c-0.1,3.5,0.6,7.3-3.2,9.6c-4.3,3.4-8.5,3.4-12.8,0c3.4-8.5,3.4-17,0-25.5
		C412,375.8,405.6,392.7,417.8,391.2z"/>
	<path class="st111" d="M373.8,486.5c-2.2-4.2-4.5-8.3-6.7-12.5c0.1-2.8-4.8-5.1-1.6-7.9c1.5-1.3,6.3-1.8,6.9-0.8
		C377,471.9,385.2,478.8,373.8,486.5z"/>
	<path class="st28" d="M354,356c-1.9-4.2-3.9-8.5-5.8-12.7c5.3-4.6-2.6-11.4,2.6-15.9c2.1,0,4.2,0,6.4,0c0,3.2,0,6.4,0,9.6
		C366.7,345.1,353.2,349.3,354,356z"/>
	<path class="st13" d="M389.1,362.5c-4.2-4.2-13.9,5.7-15.3-5.9c6.9-5.7,14.3-5.7,22.1-2.2c3.3,1.5,5.4,4,3.1,7.3
		C396.3,365.2,392.6,364.7,389.1,362.5z"/>
	<path class="st15" d="M382.6,343.6c3.2-0.1,6.4-0.2,9.6-0.3c1.1,3,2.2,5.9,3.4,8.9c-0.6,0.6-1.2,1.3-1.8,1.9
		c-5.9-0.3-12,2.1-17.6-1.5C371.6,344.8,381.8,347.5,382.6,343.6z"/>
	<path class="st112" d="M391.1,446c-5.6-2.9-10.6-6.4-14.3-11.6c5.9-5,9.7,2.7,14.7,1.8c3.4,1.2,5.7,3.2,5.2,7.2
		C395.5,445.7,394.2,447.7,391.1,446z"/>
	<path class="st83" d="M395.7,441.7c-1.4-1.8-2.8-3.7-4.2-5.5c4,0.1,9.4-4.6,11.1,3.7c0.9,4.5,4.8,9,0.8,13.3
		c-2.6,2.8-5.7,1.8-7.8-1.5C398,448.4,397,445,395.7,441.7z"/>
	<path class="st28" d="M395.5,365.6c1.9,2.9,6.8,4.8,3.2,9.6c-4.9-0.5-11,1.9-13.9-4c-1.3-2.6,1.9-4.4,4.2-5.5
		C391.2,363.6,393.3,363.9,395.5,365.6z"/>
	<path class="st28" d="M367.1,378.6c-5.8-7.1-1.8-14.3-3.3-20.3C365.8,364.2,371.1,369.4,367.1,378.6z"/>
	<path class="st26" d="M360.9,431.3c10.5,3.9,8.7,11.9,8.3,19.2C366.6,444.5,364,438.5,360.9,431.3z"/>
	<path class="st110" d="M388.6,407.3c-9.2,2.9-12.9,1.2-15.2-3.4c-0.3-0.6,0.4-2.4,1-2.6C379.8,399.3,381.7,404.2,388.6,407.3z"/>
	<path class="st59" d="M395.5,365.6c-2.1,0-4.3,0-6.4,0c0-1.1,0-2.1,0-3.2c2.1-2.4,12.6,3.5,6.7-6.8c-1.1-0.3-1.6-0.8-1.4-1.4
		c0.2-0.7,0.5-1,0.8-1c0,0,0.4-1,0.4-1C404.2,356.8,404.8,361.3,395.5,365.6z"/>
	<path class="st113" d="M380.7,446.4c2.4,2.9,4.8,5.8,8.7,10.4C380.6,456.7,379.7,452,380.7,446.4z"/>
	<path class="st114" d="M387.1,476.1c2.1,4.5,5.5,7.8,2.3,12.8C384.2,485.5,385.8,481.2,387.1,476.1z"/>
	<path class="st115" d="M395.2,353.2c0.2,0.8,0.4,1.6,0.6,2.4c-7.3,0.3-14.7,0.6-22,0.9c0.8-1.3,1.7-2.7,2.5-4
		C382.6,352.8,388.9,353,395.2,353.2z"/>
	<path class="st116" d="M359.8,443.5c-9-4.7-5.8-11.5-3.1-18.2C357.7,431.4,358.7,437.4,359.8,443.5z"/>
	<path class="st49" d="M401.8,400.7c4.3,0,8.5,0,12.8,0c-0.1,2.6-0.6,5-3.2,6.4c-4.2,1.8-6.6-1.4-9.6-3.2
		C401.9,402.9,401.9,401.8,401.8,400.7z"/>
	<path class="st117" d="M371.7,430c0.4-5.3,3.2-6.9,7.4-6.4C379.3,428.9,374.2,428.1,371.7,430z"/>
	<path class="st116" d="M354,477.3c-2.1-5.3-4.1-10.7-6.2-16C354.5,464.9,355,470.8,354,477.3z"/>
	<path class="st14" d="M395.7,441.7c3.8,1.7,7.7,4,6.5,8.8c-0.7,2.6-4.3,1.6-6.7,1.3c-1.5-1.9-2.9-3.8-4.4-5.7
		C392.7,444.5,394.2,443.1,395.7,441.7z"/>
	<path class="st80" d="M373,499.6c-9.1-2.3-7.4-7.2-3.1-12.7C369.4,491.5,370.9,495.6,373,499.6z"/>
	<path class="st43" d="M401.9,403.9c3.2,1.1,6.4,2.1,9.6,3.2c0,1.1,0,2.2-0.1,3.4c-2.1-0.2-4.3-0.3-6.4-0.5
		C405.3,407.2,398.4,408.2,401.9,403.9z"/>
	<path class="st25" d="M340.7,341.3c-3.7-6.2-8.8-11.8-9.5-19.5c0.3-2.7,0.5-5.5,0.8-8.2c8.6,2.1,4.9,13.6,12.6,16.5
		c0.7,1.3,0.6,2.5-0.2,3.6C341.3,335.4,341.3,338.5,340.7,341.3z"/>
	<path class="st15" d="M344.3,333.7c0.1-1.2,0.2-2.4,0.2-3.6c1.4-2.4,3.8-2.7,6.3-2.8c-1.6,5.2,9.4,12.5-2.6,15.9
		C346.9,340.1,345.6,336.9,344.3,333.7z"/>
	<path class="st80" d="M350.9,282.9c-1.1-3.3-2.2-6.5-3.4-9.8c3.2,0,6.4,0,9.5,0c-1.7,3-5.4,5.3-3.4,9.7
		C352.8,282.8,351.8,282.9,350.9,282.9z"/>
	<path class="st46" d="M322.2,241.5c3.1-0.4,6.2-0.7,9.4-1.1c1.4-0.6,2.6-0.4,3.6,0.6c-0.3,0.9-0.5,1.9-0.5,2.9
		c-2.1,2.1-4.2,4.3-6.4,6.4C317.8,253.3,319.9,247.5,322.2,241.5z"/>
	<path class="st118" d="M335.2,241.1c-1.2-0.2-2.4-0.4-3.6-0.6c-0.7-7.2,2.6-10,9.6-8.6c0.1,3.1,0.3,6.3,0.4,9.4
		C339.4,241.2,337.3,241.1,335.2,241.1z"/>
	<path class="st75" d="M427.4,343.3c0,3.6,0.3,7.4-3.5,9.7c-5.2,0-10.5,0.1-15.7,0.1c0-3,0-6,0-9c5.3-4.3,11-2.4,16.7-1.2
		C425.8,342.4,426.7,342.5,427.4,343.3z"/>
	<path class="st59" d="M425,343c-5.6,0.4-11.1,0.8-16.7,1.2c-3.5-0.4-7.1-0.9-10.6-1.3C406.7,340.1,415.8,339.9,425,343z"/>
	<path class="st66" d="M140.1,563.5c0-2.1-0.1-4.3-0.1-6.4c0-1.1,0-2.1,0-3.2c7.7-0.7,15.8-4.4,22.4,3.2c2.1,3.6,4.3,0.3,6.4,0
		c0,1.1,0,2.1,0,3.2C159.4,562.9,150.3,568.5,140.1,563.5z"/>
	<path class="st17" d="M85.8,461.2c0-1,0.1-2,0.2-3c9.3,0.5,0.5,10.6,5.6,12.3c-1.2-4.8-2.2-10,0.5-15.4c1.1,0,2.2,0,3.3,0
		c2.1,11.2-2.4,21-6.1,31c-0.9,1.3-1.7,2.6-2.6,3.9C86.4,480.3,86.1,470.7,85.8,461.2z"/>
	<path class="st10" d="M162.4,557.1c-7.2-2.5-15.4,1.7-22.4-3.2c3.7-3.7,9.6-4.5,12.1-9.6c3.7,0.7,7,2.9,10.8,3.2
		C167.2,551,163.3,554,162.4,557.1z"/>
	<path class="st69" d="M165.7,480.6c2.8-8.3,11.2-2.8,15.8-6.4c1.3-0.7,2.4-0.6,3.5,0.4c0.6,1.2,0.7,2.5,0.3,3.9
		c-1.6,3-4.2,5.1-6.2,7.7c-0.4,0.4-0.8,0.8-1.3,1.2C174.9,483.1,171.6,479.5,165.7,480.6z"/>
	<path class="st10" d="M156,540.9c-0.9-4.8-7.8,1-7.7-4.2c0-1.9,3.1-5.1,5.1-5.3c7.5-0.9,6.2,6.5,8.7,10.4
		C159.8,543.2,157.8,542.9,156,540.9z"/>
	<path class="st17" d="M95.3,455c0-1.9,0-3.9,0-5.8c2.1-1.3,4.2-2.7,6.2-4c0.8,3.4,7.4,3.8,5,8.7C103.7,459.4,99,454.3,95.3,455z"/>
	<path class="st119" d="M156,540.9c2,0.3,4.1,0.6,6.1,0.9c0.3,1.9,0.6,3.8,0.9,5.7c-5.5,5.3-10.3,8.3-10.8-3.2
		C153.4,543.2,154.7,542.1,156,540.9z"/>
	<path class="st17" d="M123.7,499.9c-1.2-5.8,0.4-9,3.8-13.3C130.8,493.3,127.4,495.8,123.7,499.9z"/>
	<path class="st28" d="M123.4,465.3c0,5,0,10,0,19.6C120.2,475.2,120.5,470,123.4,465.3z"/>
	<path class="st69" d="M146.2,496.4c0.4-2.6,1-5.1,1.2-7.7c0.2-2.7,0.9-6.1,3.7-5.5c2.4,0.5,2.6,4.1,1.7,6.8
		C150.6,492.2,148.4,494.3,146.2,496.4z"/>
	<path class="st100" d="M210.1,594.9c1.1,2.2,2.2,4.3,3.3,6.5c-1.9,0.6-4.3,0.6-5.8,1.8c-3.2,2.6-6.2,7-10.7,4.7
		c-5.4-2.8-2-8.2-2.1-12.5c2.7-7.7-0.5-16,2.2-23.7c-0.8-18.1,4.7-35.4,6.9-53.2c1.8-14.8,18.1-21,21.7-34.8
		c-0.8-3.9,1.1-6.1,4.7-7.2c3.9,0.9,4.8,4,5.2,7.4c-0.5,13.2-11.6,20.6-16.7,31.4c-8.2,17.6-8,37-11.9,55.4
		c-1.4,7.3-5.1,14.5,0.1,21.8C208.2,593.2,209.1,594,210.1,594.9z"/>
	<path class="st49" d="M230,477.4c-1.4,2.1-2.8,4.2-4.2,6.3c-6-2.3-6.9-9.2-11.6-12.7c-0.2-1.1-0.3-2.1-0.5-3.2
		c0.7-0.3,1.3-0.4,2.1-0.4c6.4-6.6-0.6-15.8,4.3-22.7c4.5-1.9,6,3.2,9.3,4c2.9,2.9,0.7,7.2,2.9,10.3c0.1,2.9,0.2,5.8,0.2,8.7
		C234.9,471.8,232.7,474.7,230,477.4z"/>
	<path class="st120" d="M197,571.7c0.2,8,2.8,16.2-2.2,23.7C194.7,587.4,194,579.4,197,571.7z"/>
	<path class="st121" d="M189.2,587.6c-1.2-5.4-2.4-8.6,0.6-11.6C191.7,579.4,191.6,582.6,189.2,587.6z"/>
	<path class="st66" d="M210.1,594.9c-1,0.4-2,0.8-3,1.2c-9.4-6.3-3.6-15.1-3.7-23c4-20,2.6-41.3,13.6-59.8c8,5,11-2.2,15.4-6.2
		c6.2-5.6,11.8-16.5,20.6-2.7c1.1-1,0.4-3.7,1.5-3.6c5.2,0.6,7.9-17,14.8-2c0.7,9-1.5,18.1,1.4,26.9c-0.4,10.3,2.2,20,6.2,29.3
		c4.8,10.9,0.3,14.8-9.9,18C247.6,579.1,228,585,210.1,594.9z"/>
	<path class="st106" d="M267.5,496.5c-9.1,1.1-11.8,7.7-13.7,17.5c-3.1-5.2-1.6-12.3-7.3-13c-6.4-0.8-7.6,6.5-11.6,8.9
		c-5,3-9.2,19.1-18,3.4c3.1-10.9,15.3-16.7,15.9-29c3.7-4.9-2.9-12.1,3.8-16.3c11.1,6.1,15.1,21.8,30.3,22.3
		C269.8,492.2,269.5,494.3,267.5,496.5z"/>
	<path class="st40" d="M258.1,458.2c-5.6,7.5,7.6,12.1,3.1,19.4c-12.6-4.3-15.6-14.2-16-26.2c-0.5-14.9,12.3-14,20.8-18.4
		c11,1.4,17.3,7.2,17.7,18.7c-0.8,6.7-3.5,11.5-11.2,11.4c-4.3-1.2-6.2-4.5-7.3-8.4C258.4,446.7,261.6,459.4,258.1,458.2z"/>
	<path class="st6" d="M312.4,471c5.1,12.5,4.2,21.5-12.1,22.9c-5.8,0.5-6.6,5.7-7.1,10.7c-1.1,10,1.8,19.7,3.3,30.3
		c-9.5-0.9-12.8-5.5-13-14c-0.2-7.1,2.9-14.8-2.9-21.2c-2.8-2.9-2.8-5.9-0.1-8.9c4.3-2.5,8.6-5,12.8-7.5c0.7,0,1.4,0.1,2.1,0.1
		c9.6,1,9.3-6.9,11.4-12.7c1.1-2.1,2.6-3.6,5.2-3.5c0.9,0.8,1.2,1.6,1,2.4C313,470.5,312.7,471,312.4,471z"/>
	<path class="st122" d="M283.8,356.4c3.8-2,6.1,2.6,9.5,2.3c2.5,2.3,4.9,4.6,7.4,6.9c0.7,1.2,1.4,2.3,2,3.5
		c2.6,6.1,2.7,12.2-0.1,18.3c-1.9,3.4-3.7,6.8-5.6,10.2c-2.3,2.1-4.6,4.2-7,6.3c0.3-9.5-11.7-1.1-12.7-8.8
		c10.1,2.1,15.6-3.5,18.6-12c1.9-5.3-1.5-8.8-5.7-11.6c-4.1-2.7-8.8-2.2-11.4,1.1c-3.9,4.9,0.8,7.1,4.6,8.8c2.1,0.9,4.4,1.2,0.9,3.3
		c-4.8,3-8.5,2.2-10.9-3.1c-1.5-5.3-1.2-10.6-0.2-16c0.4-1,0.8-2,1.2-3C279.1,362.8,282,360.3,283.8,356.4z"/>
	<path class="st123" d="M312.3,467.5c-1.1,1-2.2,2.1-3.2,3.1c-3.9,6.3-6,14.6-16,13.8c0,0,0.3-1,0.3-1c-1.2-2.1-2.3-4.3-3.5-6.4
		c5.3-6.4,10.7-12.6,18.6-15.9c2.8-1.7,4,0.2,5.2,2.3C313.8,464.9,313.3,466.3,312.3,467.5z"/>
	<path class="st124" d="M281.5,451.8c-1.6-9.2-7.5-14.8-15.5-18.7c2.9-0.2,5.8-0.4,8.6-0.6c6.1,0.7,10.8,3.2,12.2,9.8
		C284.4,445.1,288.2,451.4,281.5,451.8z"/>
	<path class="st125" d="M280.6,490.8c0,3,0.1,5.9,0.1,8.9c-0.2,10.9-0.4,21.9-0.6,32.8c-3.8-6.3-1.5-13.5-3.2-20.1
		c-0.9-7.4-3.2-14.9,1.2-22C278.9,490.3,279.8,490.5,280.6,490.8z"/>
	<path class="st126" d="M267.5,496.5c-0.2-2-0.4-4.1-0.6-6.1c8.3,11.1,2.4,23.6,3.8,35.4C266.2,516.4,269.6,506.2,267.5,496.5z"/>
	<path class="st127" d="M236.6,468.1c-3.3,5,3.9,12.4-3.8,16.3c-1-2.3-1.9-4.6-2.9-7c-1.6-3.9,0.3-6.8,2.6-9.6
		C233.9,467.9,235.3,468,236.6,468.1z"/>
	<path class="st124" d="M232.3,459c-1-3.4-2-6.8-2.9-10.3c2-3.3,4-6.5,6-9.8c3.2,2.5,1.7,5.8,1.5,8.8
		C232.3,450.3,232.8,454.9,232.3,459z"/>
	<path class="st126" d="M278.1,490.4c-0.4,7.3-0.8,14.7-1.2,22C273.1,504.8,271.3,497.4,278.1,490.4z"/>
	<path class="st115" d="M236.9,447.8c-0.5-2.9-1-5.9-1.5-8.8c0.3-2.2,0.6-4.5,1-6.7c1.8,1.1,3.7,2.1,5.5,3.2
		C240.2,439.6,238.5,443.7,236.9,447.8z"/>
	<path class="st126" d="M264.6,481.3c6.4,0.5,12.7,0.9,18.9-1.2C277.6,486.2,271.2,484.9,264.6,481.3z"/>
	<path class="st117" d="M132.2,599.1c-2.1-9.4-2.4-14.4-0.2-21.1C134.3,584.7,133.9,589.9,132.2,599.1z"/>
	<path class="st59" d="M184.1,478.8c0.3-1,0.5-1.9,0.7-2.9c-0.7-1.3-0.5-2.5,0.5-3.6c2.4-2.3,5.3-4.2,7.3-7c3-4.6,3.2-8.9-1.2-12.8
		c-1.2-0.8-2.2-1.8-3.3-2.7c-2-2.5-2.4-5.1-0.2-7.8c11-5.9,20.2-1.4,20.9,10.5c0.2,4-0.8,8.1-1.3,12.1c-4.6,6.4-9.1,12.9-13.7,19.3
		c-2.7-0.1-5.5-0.1-8.2-0.2C183,482.7,183,480.8,184.1,478.8z"/>
	<path class="st128" d="M184.1,478.8c0.5,1.7,1,3.3,1.4,5c-0.6,4.9-3.6,3.3-6.4,2.4C179.1,482.6,180.4,479.9,184.1,478.8z"/>
	<path class="st129" d="M363.6,538.7c-1-0.4-2-0.8-3.1-1.3c-4.9-3.2-1-8.5-2.8-12.4c1.7-4.4,4.7-8.3,8.8-3.5
		C371.8,527.6,370.4,534,363.6,538.7z"/>
	<path class="st52" d="M347,541.2c1.4-13.4,2.8-26.9,4.2-40.3c0.7-2.3,1.7-2.4,2.9-0.4c-0.1,8.2-0.1,16.5-0.2,24.7
		c-4.6,5.6-0.9,13.7-5.9,19.2c-1.1-0.4-1.7-1-1.6-1.8C346.5,541.7,346.7,541.2,347,541.2z"/>
	<path class="st23" d="M347,541.2c0.3,1.1,0.6,2.1,1,3.2c-0.3,6.4-0.6,12.7-0.9,19.1C342.9,556.1,343,548.7,347,541.2z"/>
	<path class="st23" d="M354.1,500.6l-1.5-0.1c0,0-1.4,0.5-1.4,0.5c-1.4-5.9,4.6-7.8,6.5-11.9c3.4,2.6,1.4,6.4,2.2,9.6
		C357.9,499.3,356,499.9,354.1,500.6z"/>
	<path class="st130" d="M159.2,205.8c5.3-0.8,6.3,4.2,9,6.8c0.4,1,0.8,2,1.2,3c2.8,2.5,6.2,5.4,2.8,9c-4.2,4.5-7.3,0.9-9.8-2.7
		C162.6,216.3,149.8,213.3,159.2,205.8z"/>
	<path class="st131" d="M239,214.5c-1.2,4.2,0.3,10-5.8,9.8c-4.1-0.2-3.5-4.5-3.3-7.6c0.4-4.1,0-9.8,5.1-10.2
		C240.5,206.1,238.2,211.8,239,214.5z"/>
	<path class="st132" d="M184.9,206c1.7-4.6-3.7-10.3,4-14.5c-2.6,6.1,15.1,11.1-1,17.9C186.9,208.3,185.9,207.2,184.9,206z"/>
	<path class="st133" d="M222.9,221.7c0.1,3.1,0.7,7.9-3.4,7.5c-6.4-0.6-4.1-7.3-5.5-11.4c-1.3-3.4,0.4-7.4,4.1-6.7
		C223.4,212.1,222.2,217.7,222.9,221.7z"/>
	<path class="st134" d="M254.8,234.6c-1,0.1-2,0.4-3,0.8c-3.2,0.5-7.7,2.6-6-3.9c0.9-3.8,0.5-9.2,6.5-9.1c3.7,0,3.2,3.4,3.1,5.9
		C255.2,230.4,255,232.5,254.8,234.6z"/>
	<path class="st20" d="M264.6,228.4c-0.5,3.1-0.6,6.3-1.6,9.1c-0.8,2.2-1.7,5.8-4.9,5.1c-4.2-0.9-2.5-4.9-2.9-7.7
		C258.3,232.7,259.6,227.9,264.6,228.4z"/>
	<path class="st135" d="M274.6,209.9c1.9,1,3.8,2,5.7,3c-0.2,0.8-0.2,1.6,0,2.5c-2.9,3.1-0.4,11.7-9.1,9.1c-0.9-0.9-1.9-1.8-2.8-2.7
		C269.8,217.4,270.9,213,274.6,209.9z"/>
	<path class="st83" d="M155.6,196.3c4.8-3.9,4.5-8.1,1-12.6c4.6,0.5,8,2.4,8.5,7.4c0.4,4.1-2.7,5-5.9,5.5
		C158,196.5,156.8,196.4,155.6,196.3z"/>
	<path class="st136" d="M162.4,221.9c2.3,1.5,4.2,4.9,7.6,2.7c4.6-3.1-1-5.9-0.6-8.9c1.9,0,3.8,0,5.7,0.1c2.3,3.1,2.7,6.3,0.2,9.6
		C169.6,229.5,164.5,231.4,162.4,221.9z"/>
	<path class="st79" d="M175.3,225.2c-0.1-3.2-0.1-6.4-0.2-9.6c3.3,2,7.4,3.5,6.9,8.2C182,224.5,177.7,224.8,175.3,225.2z"/>
	<path class="st83" d="M175.2,212.4c0.4-4.4-1.5-9.4,3.1-12.7C175.6,203.5,184.5,210.2,175.2,212.4z"/>
	<path class="st39" d="M159.2,167.7c4.9-0.1,9.9,0,11.9,5.6c1.7,4.7-1.1,6.8-5.6,7.2C164.1,175.9,157.4,173.9,159.2,167.7z"/>
	<path class="st83" d="M159.2,167.7c1.7,4.4,6.9,7.2,6.3,12.8C163.4,176.3,151.2,177,159.2,167.7z"/>
	<path class="st39" d="M101.7,234.7c-4.1-0.1-6.3-2.2-6.4-6.3C103.9,224,100.7,231.4,101.7,234.7z"/>
	<path class="st26" d="M312.3,467.5c0.1-0.8,0.2-1.6,0.3-2.4c8.2-5,11.5,1.5,15.5,6.5c0.1,0.8,0.3,1.7,0.6,2.5
		c-8.5,15.4-10.5-4-16.3-3C312.4,469.8,312.4,468.6,312.3,467.5z"/>
	<path class="st23" d="M340.7,533.8c0,13,2.5,26.1-1.5,39c-0.3-2-0.7-4.1-1-6.1c-2.9-8.5-2.6-17-0.2-25.6c0.1-1.8,0.3-3.6,0.4-5.4
		C338.7,534.6,339.4,533.9,340.7,533.8z"/>
	<path class="st6" d="M323.2,512.6c-1.3-6.3-2.6-12.6-4.4-20.8C327.1,498.6,324.6,505.7,323.2,512.6z"/>
	<path class="st80" d="M343.8,490.1c0,6.9,0.1,13.8,0.1,20.7c-0.2,1.4-1,2.2-2.4,2.3C344,505.6,333.9,496.8,343.8,490.1z"/>
	<path class="st80" d="M338,541.2c0.1,8.5,0.1,17,0.2,25.6C332.8,558.3,333.1,549.7,338,541.2z"/>
	<path class="st137" d="M322,563.5c-5.2-0.3-8.8-2.6-11.2-8.9C317,555.6,321.3,557,322,563.5L322,563.5z"/>
	<path class="st26" d="M331.6,534.8c0-3.2,0-6.4,0-9.6c0-3,0-6.1,0-9.1C334.1,522.5,337.3,528.9,331.6,534.8z"/>
	<path class="st43" d="M324.3,543.9c-2.8-7.1-2.6-11.1-1.3-15.4C327.1,532.4,324.8,536.7,324.3,543.9z"/>
	<path class="st80" d="M340.7,533.8c-0.7,0.7-1.5,1.4-2.3,2c-0.4-5.8-2.4-11.9,2.5-17c2.6,3.1,2.4,6.3,0.3,9.6
		C341,530.2,340.9,532,340.7,533.8z"/>
	<path class="st23" d="M341.2,528.4c-0.1-3.2-0.2-6.4-0.3-9.6c0.2-1.9,0.4-3.8,0.6-5.7c0.8-0.8,1.6-1.5,2.4-2.3
		C343.7,516.7,346.7,523.2,341.2,528.4z"/>
	<path class="st138" d="M328.1,471.6c-6.5,1-7.9-10.2-15.5-6.5c-1.4-1.3-2.8-2.7-4.1-4c9.6-13.8,15.1-29.2,19.4-45.3
		c5.2,3.6,0.2,9.5,3.2,13.6c0.7,7.6-3.7,13.7-5.4,20.6c-1.8,7.2-3.4,15.4,9.2,11.7C335.4,466.8,329.7,467.8,328.1,471.6z"/>
	<path class="st80" d="M322.2,241.5c-0.1,4.4-3.7,11.3,6.1,8.9c-1.9,3.3-5.4,6.6-8.1,3.7c-3.3-3.5-4.5-9-0.5-13.7
		c0.2-0.2,1-0.2,1.4,0C321.6,240.6,321.8,241.1,322.2,241.5z"/>
	<path class="st139" d="M271.2,224.4c5.7-0.4,6.5-5.6,9.1-9.1C279.5,220.5,283.3,230.4,271.2,224.4z"/>
	<path class="st11" d="M331.8,371.7c4.1,17.2,8.5,34.4-0.1,51.6c-3.2-2.6,0-7.3-3.4-9.8c0-8.5,0.1-17,0.1-25.5
		c3.7-4.3,0.2-9.9,2.5-14.4C331.2,373,331.6,372.4,331.8,371.7z"/>
	<path class="st140" d="M281.5,451.8c1.8-3.2,3.5-6.3,5.3-9.5c9.3,13-0.5,18.9-9.5,25c-2.1-1.3-4.3-1.3-6.4,0c-1,0-2.1-0.1-3.1-0.1
		c-2.1-3.9-2.1-6.6,3.5-5.9C278.7,462.4,279.8,456.8,281.5,451.8z"/>
	<path class="st141" d="M271.3,461.2c-2.6,1.1-3.3,3.4-3.5,5.9c-5.5-0.4-4.5-6-7-8.9c-1.1-4-2.7-8.4,2.6-10.5c3-1.2,4.7,0.8,4.8,4
		C266.5,455.8,269.9,458.2,271.3,461.2z"/>
	<path class="st84" d="M312.1,391c1.4-9.4,2.4-18.9-0.9-28.1C319.1,372,317.6,381.5,312.1,391z"/>
	<path class="st142" d="M268.3,451.8c-0.9-2-2.4-3.7-4.6-2.8c-4.4,1.8-2.2,6.1-2.9,9.2c0,0-1.4,0-1.4,0s-1.4,0-1.4,0
		c2.3-3.9-5.6-10.7,3-12.4C263.9,445.2,272.2,442.4,268.3,451.8z"/>
	<path class="st143" d="M328.3,413.5c3.9,2.3,3,6.3,3.4,9.8c-0.2,2-0.4,4-0.6,6c-4.3-3.8-1.3-9.3-3.2-13.6
		C327.3,414.9,327.4,414.1,328.3,413.5z"/>
	<path class="st60" d="M330.8,373.5c0,5,2.6,10.3-2.5,14.4c-0.9-0.7-1-1.4-0.4-2.4C329.9,381.8,326.4,376.7,330.8,373.5z"/>
	<path class="st141" d="M270.9,467.2c2.1-2.7,4.3-2.8,6.4,0C275.2,467.2,273,467.2,270.9,467.2z"/>
	<path class="st49" d="M220.4,391.2c4.7-2.7,7.5-7.1,5.3-12c-7.9-18.3-8.1-18.2,0-29.4c2.3,4.2,4.6,8.3,7,12.5
		c2.2,2.9,1.4,6.2,1.1,9.4c-3.2,4.9-1.6,11.1-4.4,16.1c1.5,6-3.4,10.4-3.7,16c-2.3-1.2-4.6-2.4-6.9-3.5
		C217,396.9,217.1,393.8,220.4,391.2z"/>
	<path class="st20" d="M236.6,426.2c-0.7-3.8-3.6-4.1-6.7-4.2c-0.9-5.4,0-10.4,3.6-14.8c3,2.3,1,14.4,11,2.9
		C243.9,418.2,241.7,422.9,236.6,426.2z"/>
	<path class="st144" d="M232.2,371.9c0.2-3.2,0.4-6.4,0.5-9.6c4.9,5.3,3.2,10.6-0.2,15.9C230.8,376.2,231,374,232.2,371.9z"/>
	<path class="st109" d="M232.2,371.9c0.1,2.1,0.3,4.2,0.4,6.3c-0.6,3.4,0.6,7.4-3.2,9.7C229.7,382.4,227.8,376.6,232.2,371.9z"/>
	<path class="st52" d="M174.6,348.3c0.2,6,2.7,12.4-3,17.4C171.7,359.7,171.6,353.7,174.6,348.3z"/>
	<path class="st145" d="M273.3,365.6c0.1,5.3,0.1,10.7,0.2,16C269.4,376.3,269.1,371,273.3,365.6z"/>
	<path class="st146" d="M302.6,387.4c0-6.1,0.1-12.2,0.1-18.3C308.3,375.2,307,381.3,302.6,387.4z"/>
	<path class="st147" d="M142.8,448.5c1.3-4.2,2.7-8.5,4-12.7c1.6-4.7,4-8.6,9.3-9.8c9.4,0.6,16.4,2.9,10.1,14.5
		c-3.7,6.7-3,14.1-4.9,22.4c-1.9-4.6-3.9-9.2-5.7-13.8c-1.9-4.8-4-3.7-6.3-0.4C147,450.5,144.9,450.5,142.8,448.5z"/>
	<path class="st12" d="M156.1,425.9c-1.9,4.4-5,7.7-9.3,9.8c-0.2-0.5-0.3-1.1-0.7-1.4c-5.6-5.4-11.4-16.2-7.6-19.1
		C148.5,407.8,150.6,421.3,156.1,425.9z"/>
	<path class="st148" d="M184.8,475.9c-1.1-0.6-2.2-1.1-3.3-1.7c-0.2-7.6-1.6-15.5,3.2-22.4c2.6,0.6,4.4,2.2,5.5,4.6
		c2.5,7.3-0.3,13-5.4,18l0.6,0.8L184.8,475.9z"/>
	<path class="st149" d="M175.3,455.1c-9.6-8.1,1.1-13.7,2.4-20.4c0.5,6.9,2.5,14-2.7,20.2L175.3,455.1z"/>
	<path class="st33" d="M220,444.8c-1.6,7.5,3.8,16.4-4.3,22.7c0.7-7.7,1.3-15.4,2-23.1c0-0.2,0.7-0.5,1-0.4
		C219.2,444.1,219.6,444.5,220,444.8z"/>
	<path class="st32" d="M142.8,448.5c2.2,0.1,4.3,0.1,6.5,0.2c0.3,3,0.6,6,0.9,9c1.3,3.5-0.3,4.2-3.4,3.6
		C144.6,457.2,140.2,453.9,142.8,448.5z"/>
	<path class="st150" d="M146.7,461.2c1.1-1.2,2.3-2.4,3.4-3.6c3.2,3.7,4,8.7-0.8,10.2C145.2,469,147.1,463.8,146.7,461.2z"/>
	<path class="st151" d="M175,454.8c-0.1,4.5,1.6,9.3-3.2,12.8c1.6-4.1-3.5-9.7,3.5-12.5C175.3,455.1,175,454.8,175,454.8z"/>
	<path class="st152" d="M187.4,454.8c-0.9-1-1.8-2-2.8-3c-4.4-5-0.6-7.4,3.2-9.8c0.2,2.8,0.7,5.3,3.5,6.7
		C192.5,452.3,190.7,454,187.4,454.8z"/>
	<path class="st153" d="M136.7,432.8c-0.7-0.5-1.4-0.8-2.3-1c-0.6-1.7-1.1-3.4-1.7-5.1C136.2,427.4,137.1,429.7,136.7,432.8z"/>
	<path class="st64" d="M92.1,455c0,5.2,0,10.3,0,17.1c-5.1-4.6-0.8-11.4-6.1-14C87.2,455.5,89.6,455.1,92.1,455z"/>
	<path class="st154" d="M220.4,391.2c-0.5,3-1.1,6.1-1.6,9.1c-9-2.2-18.2-0.1-27.5-2.5c-7.7-2-10.2-7.3-9.4-11.4
		c2.6-13.1,9.4-24.8,18.6-34.5c4.1-4.4,8.6-4.6,10.1,4.2C212.7,368,217,379.5,220.4,391.2z"/>
	<path class="st120" d="M203.3,573.1c3.1,7.4-4.3,16.4,3.7,23c-6.9,3.8-6.6-1.7-6.4-5.4C201.1,584.8,198.7,578.4,203.3,573.1z"/>
	<path class="st33" d="M224.5,454.3c2.7,4.9,2.3,9.1,0.3,14.1C222.1,463.6,222.5,459.3,224.5,454.3z"/>
	<path class="st43" d="M216.7,544.4c1.5,6.4,3.9,12.9-3.8,21.6C214.5,556.8,210.8,550.3,216.7,544.4L216.7,544.4z"/>
	<path class="st155" d="M250.4,524.2c3,0.8,4.1,2.6,4.1,4.8c0,1.2-1.3,3.4-1.8,3.4c-2.4-0.2-3.5-2.3-3.6-4.5
		C249,526.6,249.9,525.4,250.4,524.2z"/>
	<path class="st106" d="M216.7,544.4c0-5.1,0-10.3,0-15.4C220.1,534.3,221.5,539.5,216.7,544.4C216.7,544.4,216.7,544.4,216.7,544.4
		z"/>
	<path class="st49" d="M293.1,484.3c5.3-4.6,10.6-9.2,16-13.8C308.3,487.4,305.1,490.2,293.1,484.3z"/>
	<path class="st41" d="M187.4,454.8c1.3-2,2.6-4,3.9-6c0.8,0.3,1.6,0.3,2.4,0.1c3.5,6.2,2.9,12.5,0.9,18.9c-3.5,2-4.1,8.2-10,6.6
		C183.3,467.5,191.1,461.9,187.4,454.8z"/>
	<path class="st152" d="M194.7,467.7c-0.3-6.3-0.6-12.6-0.9-18.9C200,454.8,201.3,461.1,194.7,467.7z"/>
	<path class="st156" d="M210,382.8c-0.3,5.9-3.2,9.1-8,8c-4.4-1-12.5-1.6-10.2-8.2c2-5.9,3.9-16.2,10.5-16.2
		C212.8,366.4,201.9,379.9,210,382.8z"/>
</g>
</svg>
