<?xml version="1.0" encoding="utf-8"?>
<!-- Generator: Adobe Illustrator 25.4.1, SVG Export Plug-In . SVG Version: 6.00 Build 0)  -->
<svg version="1.1" id="Capa_1" xmlns="http://www.w3.org/2000/svg" xmlns:xlink="http://www.w3.org/1999/xlink" x="0px" y="0px"
	 viewBox="0 0 595.3 841.9" style="enable-background:new 0 0 595.3 841.9;" xml:space="preserve">
<style type="text/css">
	.st0{fill:#F7F7F7;}
	.st1{fill:#F6F6F6;}
	.st2{fill:#F0EFF0;}
	.st3{fill:#080808;}
	.st4{fill:#BAB9B9;}
	.st5{fill:#FFFFFF;}
	.st6{fill:#B1B0B0;}
	.st7{fill:#AEADAD;}
	.st8{fill:#7D7C7C;}
	.st9{fill:#8B8B8A;}
	.st10{fill:#020303;}
	.st11{fill:#020203;}
	.st12{fill:#030304;}
	.st13{fill:#040405;}
	.st14{fill:#070808;}
	.st15{fill:#050607;}
	.st16{fill:#0A0B0B;}
	.st17{fill:#121313;}
	.st18{fill:#181919;}
	.st19{fill:#161616;}
	.st20{fill:#161717;}
	.st21{fill:#141515;}
	.st22{fill:#1D1D1E;}
	.st23{fill:#232323;}
	.st24{fill:#1B1C1C;}
	.st25{fill:#19191A;}
	.st26{fill:#212122;}
	.st27{fill:#171718;}
	.st28{fill:#202020;}
	.st29{fill:#151616;}
	.st30{fill:#1B1B1B;}
	.st31{fill:#1C1C1D;}
	.st32{fill:#141414;}
	.st33{fill:#1E1F1F;}
	.st34{fill:#2A2B2B;}
	.st35{fill:#1C1C1C;}
	.st36{fill:#1D1D1D;}
	.st37{fill:#262727;}
	.st38{fill:#272727;}
	.st39{fill:#202121;}
	.st40{fill:#222222;}
	.st41{fill:#2A2A2B;}
	.st42{fill:#242525;}
	.st43{fill:#111112;}
	.st44{fill:#1E1E1E;}
	.st45{fill:#222323;}
	.st46{fill:#2C2D2D;}
	.st47{fill:#D6D6D6;}
	.st48{fill:#252626;}
	.st49{fill:#1D1E1E;}
	.st50{fill:#252525;}
	.st51{fill:#2A2A2A;}
	.st52{fill:#1F1F20;}
	.st53{fill:#303030;}
	.st54{fill:#585858;}
	.st55{fill:#2B2B2B;}
	.st56{fill:#373737;}
	.st57{fill:#2D2D2D;}
	.st58{fill:#2C2C2C;}
	.st59{fill:#292929;}
	.st60{fill:#2C2C2D;}
	.st61{fill:#262626;}
	.st62{fill:#3C3C3C;}
	.st63{fill:#444544;}
	.st64{fill:#494949;}
	.st65{fill:#252526;}
	.st66{fill:#CECDCD;}
	.st67{fill:#464746;}
	.st68{fill:#AFAFAF;}
	.st69{fill:#444545;}
	.st70{fill:#4A4A4A;}
	.st71{fill:#525252;}
	.st72{fill:#3A3A3A;}
	.st73{fill:#2F2F2F;}
	.st74{fill:#FDFDFD;}
	.st75{fill:#FBFBFB;}
	.st76{fill:#F8F8F8;}
	.st77{fill:#FAFAFA;}
	.st78{fill:#F3F3F3;}
	.st79{fill:#F9F9F9;}
	.st80{fill:#F6F5F6;}
	.st81{fill:#F8F7F8;}
	.st82{fill:#F7F6F7;}
	.st83{fill:#F5F5F5;}
	.st84{fill:#F4F4F4;}
	.st85{fill:#F6F5F5;}
	.st86{fill:#F3F2F3;}
	.st87{fill:#F4F3F4;}
	.st88{fill:#F1F0F1;}
	.st89{fill:#ECEBEB;}
	.st90{fill:#EFEEEF;}
	.st91{fill:#F2F2F2;}
	.st92{fill:#F0F0F0;}
	.st93{fill:#F1F0F0;}
	.st94{fill:#E6E5E6;}
	.st95{fill:#F2F1F2;}
	.st96{fill:#EAE9EA;}
	.st97{fill:#ECEBEC;}
	.st98{fill:#EDECED;}
	.st99{fill:#EBEAEB;}
	.st100{fill:#ECECEC;}
	.st101{fill:#EAEAEA;}
	.st102{fill:#E8E7E8;}
	.st103{fill:#E0DFDF;}
	.st104{fill:#EDECEC;}
	.st105{fill:#E6E5E5;}
	.st106{fill:#EBEAEA;}
	.st107{fill:#E7E6E6;}
	.st108{fill:#E1E0E1;}
	.st109{fill:#505050;}
	.st110{fill:#CBCACA;}
	.st111{fill:#E9E8E9;}
	.st112{fill:#F1F1F1;}
	.st113{fill:#E3E3E3;}
	.st114{fill:#E8E8E8;}
	.st115{fill:#E1E0E0;}
	.st116{fill:#DDDCDC;}
	.st117{fill:#E2E1E1;}
	.st118{fill:#B0AFAF;}
	.st119{fill:#D5D4D4;}
	.st120{fill:#DBDADA;}
	.st121{fill:#C5C3C3;}
	.st122{fill:#D6D5D5;}
	.st123{fill:#E7E6E7;}
	.st124{fill:#BCBCBB;}
	.st125{fill:#BEBCBC;}
	.st126{fill:#D4D3D3;}
	.st127{fill:#4F4F4F;}
	.st128{fill:#F7F7F8;}
	.st129{fill:#414141;}
	.st130{fill:#646464;}
	.st131{fill:#3E3E3E;}
	.st132{fill:#515151;}
</style>
<g>
	<path class="st0" d="M464.6,556.9c4.9-5.8,10-11.4,16.4-15.5c1.3-0.8,2.7-1.6,4.1-2.1c1-0.4,2.5-0.9,3,0c0.4,0.9,0.2,2.9-0.5,3.3
		c-2.4,1.4-2.7,6.2-7.2,4.4c-0.6-0.2-2,1.3-2.8,2.2c-2.4,2.9-3.6,7.1-8.6,6.6c-0.2,0-0.5,0.7-0.8,1.1
		C467.1,556.9,465.8,556.9,464.6,556.9z"/>
	<path class="st1" d="M375.2,556.9c1.9-6.3,6.7-8.8,12.9-10.2c-0.7,3.7-3.7,6.5-2.7,10.2C382,556.9,378.6,556.9,375.2,556.9z"/>
	<path class="st2" d="M347.2,556.9c1.4-1.5,3.4-1.8,5.2-1.5c6.7,1.1,13.2,0.3,19.6-1.8c0.7,1.5-0.8,2.2-0.5,3.3
		C363.4,556.9,355.3,556.9,347.2,556.9z"/>
	<path class="st3" d="M545.7,225c0.3,8.3,2.1,15.1,10.9,18.6c8.2,3.3,15.9,7.7,23.7,11.8c1.7,0.9,5.3,1,4.1,3.9
		c-0.9,2.3-3.5,0.4-5.3-0.1c-10.1-2.6-20.3-4-30.7-4.9c-4.1-0.3-6.4,1.3-8.1,4.7c-2.2,4.4-4.3,8.9-6.7,13.2
		c-1.7,3.1-1.4,4.2,2.5,4.2c16.6,0.2,33.2-1.3,49.7-2.2c2.3-0.1,5.9-1.7,6.4,1.4c0.5,2.8-3.4,2.2-5.4,2.8
		c-15.3,4.4-31.2,6.5-46.5,11.1c-7.4,2.2-13.7,5.4-18.3,11.8c-3.6,5.1-7.3,10-11.2,14.8c-1.8,2.2-1.6,3.1,1,4.3
		c12.6,5.9,25.6,11,39,14.7c1.8,0.5,3.6,1,5.3,1.6c1.4,0.5,3.7,0.5,3.2,2.5c-0.5,2.4-2.7,2-4.6,1.5c-5.3-1.1-10.6-2.3-15.9-3.3
		c-11.9-2.2-23.8-4-36-4.2c-3.9-0.1-7.2,1-10.1,3.8c-3.7,3.8-8.1,6.7-12.9,9c-3.3,1.5-4.1,2.9-1.2,5.9c3.9,3.9,8.1,7.2,12.8,10
		c1,0.6,2.6,1.1,1.8,2.7c-0.8,1.7-2.2,0.5-3.2,0.2c-6.5-2.1-13.1-3.9-19.3-6.6c-4.1-1.7-6.9-0.7-9.2,2.5
		c-5.4,7.4-10.7,14.8-15.9,22.3c-1.6,2.2-3.2,4.4-4.5,6.9c-1.6,3.3-0.9,5.8,0.7,8.6c6.5,11.7,15.1,22,23,32.7
		c1.3,1.7,2.6,3.5,3.8,5.3c0.8,1.1,1.9,2.5,0.7,3.7c-1.4,1.5-2.5-0.3-3.4-1c-1.7-1.3-3.2-2.9-4.8-4.3c-9.9-8.8-21.1-15.7-32-23.1
		c-2.8-1.9-5.8-2-8.7-0.3c-10.4,6.1-20.2,13.3-29.7,20.7c-5.2,4.1-6.6,11.1-9.4,16.9c-0.8,1.6,1.2,2.3,2.1,3.2
		c9.8,10,21.1,18.3,31.1,28c1.8,1.8,6,3.4,4.2,6.2c-2,3.1-5-0.4-7.1-1.5c-12.8-6.6-26.7-10.8-39.7-16.9c-4.2-2-5.1,2.2-8.2,3.7
		c5.9,3.1,11.8,4,17.6,5.6c2.3,0.6,5.9,0.3,5.6,3.5c-0.3,2.4-3.7,1.4-5.7,1.6c-6.3,0.6-12.7,0.9-19,1.3c-8.6,0.5-14.3,4.8-17.7,12.8
		c-4.4,10.4-7.8,21.2-13.1,31.2c-0.4,0.7-0.6,1.4-1.1,2.1c-0.9,1.3-1.3,3.7-3.5,3c-2-0.6-1-2.7-0.9-4.1c0.5-6.6-0.5-13.3,1.9-19.9
		c-1.8,0.1-2,1.6-2.5,2.5c-6,10.9-14.7,19.9-20.8,30.7c-1.5,2.6-2.5,1.2-3.5-0.6c-6.4-11.3-15.7-20.6-22.1-32.2
		c1.6,6.6-0.1,13.2,1.1,19.6c0.3,1.5,0.9,3.4-1.1,4c-2,0.6-2.4-1.4-3.2-2.7c-5.8-10.3-9.5-21.5-13.8-32.4
		c-3.6-9.2-9.9-13.8-19.7-14.2c-6.7-0.3-13.3-0.8-20-1.3c-1.3-0.1-3.1,0.4-3.4-1.5c-0.3-2.1,1.7-2.4,3.1-2.7
		c6.5-1.7,13.2-3,19.7-5.8c-2.9-3.6-5.2-5.6-10.2-3.2c-13.4,6.3-27.6,10.8-40.8,17.8c-1.3,0.7-2.7,1.9-4-0.1
		c-1.1-1.8,0.6-2.5,1.4-3.4c10.1-10.3,21.7-19,32.2-28.8c3.4-3.2,4.3-5.6,2.1-10.1c-3.6-7.3-7.7-13.5-14.9-17.7
		c-7.1-4.2-13.6-9.2-20.3-14c-4.2-2.9-8-2.8-12.4,0.2c-11.7,8.1-23.8,15.7-34.2,25.6c-1.1,1.1-2.7,3.4-4.1,2.1
		c-2-1.7,0.1-3.7,1.2-5.2c8.2-11.3,17.2-22,24.3-34c4.7-7.8,4.7-8.8-0.6-16.2c-5.7-7.9-11.3-15.9-17-23.9c-2.7-3.8-5.6-5-10.3-3
		c-6.1,2.6-12.5,4.4-18.9,6.5c-1,0.3-2.4,1.6-3.2-0.2c-0.7-1.6,0.8-2.1,1.8-2.7c5.9-3.5,11.3-7.6,15.5-13.7
		c-7.2-3.8-13.5-8.4-19.6-13.4c-4.1-3.3-9.6-1.9-14.5-1.5c-14.8,1.2-29.5,3.6-44,7.1c-0.6,0.1-1.2,0.3-1.8,0.4
		c-1.6,0.4-3-0.1-3.5-1.6c-0.5-1.8,1.2-2.1,2.5-2.5c6.9-2.2,13.9-4.2,20.8-6.5c8.2-2.7,16.1-6.5,24-10c2.8-1.2,3-2.3,1.1-4.7
		c-4.4-5.4-8.6-10.9-12.8-16.5c-3.5-4.8-8.3-7.2-13.8-8.9c-13.9-4.3-28.2-7.1-42.4-10.1c-3.2-0.7-6.3-1.7-9.4-2.6
		c-1.3-0.4-3.3-0.2-3-2.2c0.3-2.1,2.4-1.6,3.8-1.6c4.5,0.1,9,0.2,13.5,0.7c13,1.3,26,1.5,39,1.6c3.8,0,4.3-0.8,2.5-4
		c-2.5-4.5-4.6-9.1-6.9-13.7c-1.6-3.3-4-4.7-7.8-4.4c-10.5,0.8-21,2.1-31.1,5.1c-0.7,0.2-1.5,0.4-2.2,0.6c-1.3,0.4-2.6,0.5-3.1-1
		c-0.4-1.3,0.8-1.8,1.8-2.3c6.2-3.1,12.4-6.3,18.6-9.4c3.2-1.6,6.3-3.4,9.6-4.7c7.1-2.8,8.3-8.9,8.9-15.4c0.2-2.5-1.2-2-2.6-1.5
		c-2.9,1.1-5.7,2.3-8.6,3.4c-1,0.4-2.3,0.7-3-0.3c-0.7-1,0-2,0.8-2.9c2.3-2.7,4.4-5.7,6.8-8.2c4.9-5.1,5.9-11.3,6.5-17.9
		c0.3-3.3-2.3-3.8-4.1-4.9c-11.7-7.3-23.3-14.8-34.4-22.9c-1.1-0.8-2.3-1.6-3.4-2.5c-0.9-0.7-2.6-1.3-1.7-2.8
		c0.9-1.5,2.4-0.8,3.7-0.2c5,2.1,10,4.1,15,6.3c7.2,3.2,14.4,6.4,21.5,9.9c3,1.5,3.8,0.6,4.1-2.1c0.1-0.6,0.1-1.3,0.4-1.8
		c7-13.8,2.7-26.3-4.4-38.5c-4.7-8.2-8.4-16.9-13.6-24.8c-0.7-1-1.6-2.2,0-3.2c1.6-1,2.2,0.5,2.9,1.4c6.9,9.2,14.8,17.5,22.1,26.3
		c2.5,3,4.3,3.3,7.4,0.4c10-9.1,18.8-19.4,28.3-28.9c1.7-1.7,1.1-2.5-0.5-3.4c-1.6-0.9-3.2-1.9-4.8-2.9c-1.3-0.8-3.2-1.4-2.7-3.3
		c0.6-2.3,2.9-1.4,4.4-1.3c3.9,0.4,7.7,0.9,11.5,1.6c6.9,1.3,12.3-2.2,17.9-5.2c2.3-1.2,0.8-3,0.3-4.4
		c-5.1-14.1-12.5-26.9-20.3-39.5c-1.1-1.8-4.3-4.2-2-5.8c2.8-2,3.8,2.1,5.1,3.8c9.3,11.5,19.2,22.4,27.6,34.5c1.6,2.2,3.8,2.7,6,2.8
		c4.3,0.2,8.6,0.1,13.2,0.1c-3.1-5.8-6.1-11.3-9.1-16.8c-0.5-1-1.7-2.3-0.3-3.3c1.5-1.2,2.5,0.2,3.4,1.2c6,6.3,12.1,12.5,17.4,19.4
		c2.2,2.8,4.8,4.2,8.3,4.3c5.6,0.3,11.2,0.4,16.7,1c2.1,0.2,2.7-0.7,3.1-2.4c3.2-13.4,9.1-26,12.4-39.4c0.2-0.6,0.3-1.2,0.5-1.8
		c0.4-1,0.7-2.3,2.1-1.9c1.7,0.4,1.3,1.9,1,3.1c-1.3,5.7-2.8,11.4-4.1,17.2c-1.1,5-1.6,10.1-2,15.2c-0.3,4.4,1.4,7.2,4.9,9.8
		c6.3,4.6,13.5,7.4,20.4,10.7c0.1-0.4,0.2-0.7,0.1-0.9c-0.5-2.1-3.3-4.5-1.1-6.3c2.1-1.6,2.9,2,4.5,3c3.4,2,6.7,4.4,10.5,7
		c0.8-7.2-0.6-13.9-0.9-20.6c-0.1-1.4-0.9-3,0.9-3.6c1.8-0.5,2.3,1.4,2.9,2.5c7.7,14.6,17.5,27.7,28.2,41.8
		c1.4-6.9,2.5-12.6,3.6-18.4c0.1-0.8,0.1-1.6,0.3-2.3c0.4-1.3,0.2-3.2,2.1-3.1c2,0.1,1.5,2.1,1.4,3.3c-0.5,6.7-0.1,13.3-0.1,20
		c-0.1,11.6,7.5,18.2,14.8,25.2c1.9,1.8,2.9-0.3,4.2-1.3c14.3-10.5,14.5-25.6,13.4-41.1c-0.1-2.1-1.7-5.5,1.3-5.9
		c2.7-0.4,2,3.3,2.4,5.2c1.3,5.7,2.2,11.5,3.3,17.3c1.9-0.1,2.4-1.6,3.2-2.7c9.1-12,17.9-24.1,25-37.4c0.7-1.3,1.1-3.5,2.9-3.1
		c2.4,0.6,1.3,2.9,1.1,4.4c-0.8,6.3-0.9,12.6-1.1,20c4.5-3.1,8.4-5.7,12.1-8.5c1-0.8,1.4-2.8,3.2-1.5c1.6,1.1,0.3,2.5-0.2,3.8
		c-0.3,0.9-0.7,1.7-1.5,3.4c9-3.8,17.5-7.1,24.2-13.7c1.5-1.4,1.6-3.2,1.6-5.1c-0.1-11.3-2.9-22.1-5.6-32.9c-0.4-1.4-2-3.6,0.7-4.2
		c2.1-0.5,2.1,1.9,2.5,3.2c4.2,13.1,8.5,26.2,12.4,39.4c0.8,2.6,1.9,2.6,4.1,2.8c14.3,1.3,25.6-3,33.3-15.8c2-3.4,5.5-5.9,8.3-8.8
		c0.9-0.9,1.7-2.7,3.3-1.3c1.3,1.1,0.2,2.2-0.3,3.3c-3,5.5-6,11.1-9,16.7c0.4,0.2,0.7,0.3,0.9,0.4C458,90,465.9,86.9,472.1,77
		c6.4-10.2,15-18.9,22.7-28.2c0.9-1.1,1.7-3.2,3.5-1.9c1.8,1.3,0.2,2.8-0.6,4c-8.4,12.7-15.5,26-21.4,40.1c-1.8,4.4-0.4,5.8,3.2,7.9
		c7.3,4.3,14.8,3.5,22.5,2.1c2.6-0.5,6.5-2.3,7.6,0.6c1.3,3.3-3.2,3.9-5.4,5c-3.9,2.1-3.7,3.4-0.7,6.5c9,9,17.4,18.5,26.7,27.2
		c2.8,2.6,4.6,2.7,7.1-0.2c7.2-8.7,14.6-17.3,21.9-25.9c0.9-1.1,1.7-3.3,3.4-2.1c1.7,1.2,0.1,2.8-0.7,4c-7.5,12.7-14,25.8-20.1,39.2
		c-1.7,3.8-1.6,7.5-0.6,11.4c1.3,4.8,2.9,9.5,3.9,14.3c0.6,3,1.6,2.6,3.6,1.6c11.6-5.9,23.6-10.8,35.6-15.8c1.6-0.6,3.6-2.6,4.8-0.3
		c1.1,2-1.5,2.7-2.7,3.7c-12.3,8.9-24.9,17.4-37.9,25.3c-2.5,1.5-2.8,3.3-2.8,6c0.3,9.7,6.4,16.1,12.1,22.9c1,1.2,3.3,2.5,2.1,4.2
		c-1.3,1.8-3.4,0.3-5.1-0.3C552,227.2,549.2,225.5,545.7,225z"/>
	<path class="st4" d="M564.1,394c-0.3,0.3-0.6,0.6-0.8,0.9c-2.1-1.7-3.4-3.9-4.1-6.7C560.8,390.1,562.4,392,564.1,394z"/>
	<path class="st5" d="M75.4,331.6c7.1-2.5,14-5.8,20.8-9c3.7-1.8,4.3-4.1,1.7-7.3c-4.4-5.6-8.8-11.2-13-16.9
		c-4.5-6.2-10.7-9.7-17.9-11.5c-9-2.3-18-4.5-27-6.7c1.2-2.3,3-1,4.7-0.9c8.5,0.1,17.1,0.2,25.6,0.2c6.3,0,7.6-2.1,4.9-7.7
		c-2.5-5.1-5.2-10.2-7.7-15.3c-1.9-3.9-4.9-5.5-9.4-5.3c-6.8,0.4-13.6,1-20.5,1.6c5-2.6,10.1-5.1,15.1-7.8
		c7.2-3.9,11.3-12.2,10.3-20.1c-0.3-2.5-1.7-3.6-4.2-2.8c-2,0.6-4.1,1.2-6.9,2.1c4.5-5.7,9.4-10.4,10.1-17.4
		c0.2-2.8,0.7-5.5,1.2-8.3c0.4-2.2-1-3.1-2.4-4c-9.2-6-18.4-11.9-27.7-17.9c1.6-1.4,3-0.1,4.3,0.5c6.5,3,12.9,6.1,19.3,9.1
		c4.1,1.9,5.4,1.3,6.5-3.1c0.1-0.4,0.1-1,0.3-1.4c8.1-16.6,3.1-31.5-5.7-45.9c-0.8-1.3-1.4-2.6-1.4-4.4c3.7,4.2,7.5,8.3,11.1,12.6
		c2.6,3.1,5.1,2.9,7.9,0.4c11.5-9.8,21.2-21.4,31.7-32c3.5-3.5-0.5-5.3-2.8-8.2c9.4,2.8,17.3,1.1,25.1-3.3c4.3-2.4,5.1-5,3.5-9.4
		c-2.7-7.5-6.4-14.7-9.8-21.9c5.4,5.4,9.9,11.5,14.4,17.7c1.2,1.7,2.5,3,4.7,3.5c6.3,1.4,12.6,1.1,19,1.3c2.4,0.1,3.2-1.8,2-4
		c-1-2-2.3-3.9-3.7-6.2c3.6,1.3,5.3,4.3,7,6.7c3.9,5.7,9,8.1,15.7,8.1c5,0,9.9,0.3,14.9,0.7c2.3,0.2,3.5-0.8,4.1-2.8
		c1.4-4.5,2.8-9.1,4.6-13.9c-2.2,12.5,6.9,16.4,15.2,20.8c4.1,2.2,8.4,3.9,12.7,5.8c4,1.7,4.6,1.2,4.5-3.3c2.8,1.9,5.6,3.9,8.4,5.6
		c3.4,2.1,4.8,1.4,5-2.6c0.2-4.9,0-9.8-0.4-14.8c4.6,7.8,9.8,15,15.2,22.1c2.9,3.9,5.6,7.8,8.7,11.5c5.2,6.3,5.4,6.2,9.1-0.8
		c-1.9,13.7,7.3,21.3,15.5,29.5c2.6,2.5,4.7,2,7.1-0.2c8.6-8,16.8-16.3,16.3-29.5c0.1,0.7,0.2,1.5,0.3,2.2c1.1,4.1,2.6,4.7,5.5,1.5
		c8.8-9.8,16-20.9,23.2-31.9c0.8-1.3,1.5-2.6,2.4-4.2c0,5.1-0.2,9.8,0.1,14.4c0.3,4.6,1.6,5.2,5.5,2.7c2.6-1.7,5.1-3.5,8-5.4
		c-0.6,4.3,1,5.2,4.5,3.4c5.8-2.9,11.9-5.1,17.6-8.4c7.1-4.1,11.9-9.4,10.4-18.5c1.4,4.5,2.9,9,4.1,13.5c0.7,2.7,2.1,3.7,5,3.4
		c5.6-0.5,11.1-0.8,16.7-0.9c5.1-0.1,8.8-2.1,11.8-6.2c1.6-2.2,3.2-4.6,5.6-6.2c0.2,0.3,0.6,0.5,0.5,0.6c-2.8,7.5-2.8,7.5,5.2,7.3
		c3.6-0.1,7.1-0.3,10.7-0.5c3.7-0.2,6.6-1.6,8.9-4.9c3.9-5.7,8.4-11.1,13.1-17.3c0.3,2.4-0.7,3.5-1.3,4.7c-3,6.1-6.1,12.2-8.1,18.7
		c-1.1,3.5-0.5,5.7,2.8,7.7c7.9,4.6,16.1,6.9,25.8,3.8c-5.1,5.8-5,5.7,0,10.9c9,9.4,17.6,19.2,27.4,27.9c5.3,4.7,6.7,4.7,11.2-0.6
		c2.4-2.8,4.9-5.6,7.4-8.4c0.2-0.2,0.5-0.3,0.8-0.5c1.2,0.8,0.3,1.5-0.1,2.3c-0.5,1.1-1,2.3-1.6,3.3c-10.6,20.2-10.9,23.8-3.5,45.3
		c1.1,3.3,3,3.4,5.7,2.1c7.5-3.6,14.8-7.5,23-10.5c0.1,1.7-1,2-1.8,2.5c-7.8,5.1-15.6,10.2-23.4,15.1c-2.8,1.7-3.8,3.6-3.5,7.1
		c0.6,9.1,4,16.8,10.5,23.4c-2.1-0.6-4.1-1.3-6.2-1.9c-2.8-0.8-4.3,0.4-4.2,3.2c0.4,8.4,1.7,16.4,10.8,20.3
		c4.9,2.1,9.6,4.7,14.2,7.4c-7.2-0.9-14.2-1.6-21.4-1.8c-3.7-0.1-6.3,1.3-7.9,4.5c-2.9,5.7-5.8,11.3-8.6,17
		c-2.2,4.5-0.8,6.7,4.4,6.7c9,0.1,18-0.1,27-0.2c1.4-0.1,3-1.4,3.8,1c-8.8,2.2-17.6,4.5-26.5,6.6c-8.4,2-14.8,6.7-19.7,13.6
		c-3.6,5-7.5,9.8-11.2,14.8c-2.5,3.3-2.2,5.6,1.6,7.4c7,3.3,13.8,6.8,21.2,9.2c-0.3,2.1-1.6,1-2.6,0.8c-8.1-1.2-16.3-2.1-24.5-2.3
		c-5-0.1-9.4,1.3-13,5c-3.7,3.8-8.4,6.3-13,8.9c-5.8,3.2-5.9,4.4-1.6,9.2c1.3,1.5,2.7,3,4.8,5.2c-4-1.4-7.1-2.3-10-3.6
		c-3.8-1.7-6.9-0.8-9.6,2.1c-1.8,1.9-3.6,3.9-5.1,6c-5.4,7.6-10.7,15.2-16,22.8c-3.4,4.8-3.8,9.5-0.6,14.7
		c4.6,7.5,9.5,14.8,14.8,21.9c0.9,1.2,2.4,2,2.1,4.1c-7.6-5.1-15.3-9.9-22.5-15.3c-6.3-4.8-12-4.6-18.2-0.2
		c-8.4,6-17.2,11.7-25.4,17.9c-6.9,5.2-8.9,13.6-12.1,21.1c-0.8,1.8,1.3,2.9,2.5,4.1c7.5,7.4,15.5,14.3,23.7,21
		c2.3,1.9,4.4,3.8,6.5,6.2c-11-5.8-23-9.1-34.2-14.3c-6.9-3.2-9.1-2.7-14.2,2.7c-2.8,3.1-2.6,4.6,1.2,6.1c3.4,1.3,7,2.4,11.9,4
		c-4,0.3-6.7,0.7-9.4,0.7c-12.4,0-20.9,5.2-25.2,17.2c-3,8.5-6.7,16.8-10.4,26.2c-1.2-6.1,0.2-10.9,0.9-15.7
		c0.2-1.4,0.4-2.8,0.5-4.1c0.1-1.2-0.2-2.2-1.5-2.6c-1.1-0.3-1.8,0.4-2.3,1.2c-1.5,2-3.1,3.9-4.3,6c-6.2,10.2-13.4,19.7-20.5,29.5
		c-6.4-9.1-13.4-18-19.2-27.7c-1.3-2.1-2.7-4.2-4.2-6.1c-1-1.3-1.6-3.6-3.7-2.9c-2.1,0.7-1.3,2.9-1.2,4.5c0.4,5.6,2.2,11,1.7,16.9
		c-2.2-1.5-2.5-3.9-3.3-5.8c-2.9-7-5.8-14-8.5-21.1c-3.9-10.5-11.8-15-22.5-15.5c-3.2-0.1-6.4-0.3-9.7-1.2c3.5-1.2,7-2.3,10.5-3.7
		c3.2-1.2,3.9-3,1.3-5.9c-5.1-5.5-7.5-6.2-14.2-3.1c-10.5,5-21.8,8-32,13.6c-0.5,0.3-1.2,0.2-2.5,0.3c8.4-7.3,16.3-14,24.1-20.9
		c9.7-8.6,9.5-8.7,4-20.4c-2.6-5.7-6.4-10.1-11.6-13.5c-7.9-5.1-15.6-10.7-23.4-16c-4.9-3.4-9.7-3.2-14.6,0.3
		c-7.1,5-14.3,9.8-21.4,14.7c-1,0.7-1.8,1.7-3.6,1.5c6.4-8.6,12.5-16.9,17.7-25.8c3.1-5.2,3-9.8-0.5-14.6
		c-6.3-8.7-12.3-17.5-18.7-26c-5-6.6-6.5-6.7-14.2-4.1c-2.3,0.8-4.6,1.5-7.8,2.6c2.2-2.4,3.7-4.1,5.2-5.8c3.6-4.1,3.7-4.8-1-7.6
		c-6-3.6-11.9-7.2-17-12.1c-2.7-2.6-6.5-2.7-10.1-2.6c-8.4,0.2-16.7,1.1-25,2.3C76.4,332.8,75.2,333.4,75.4,331.6z"/>
	<path class="st6" d="M44.7,279.3c-1.5,0.8-3.3-0.4-4.7,0.9c-2.2-0.3-4.4-0.7-6.6-1C37.3,278.3,41,278.1,44.7,279.3z"/>
	<path class="st7" d="M565.1,280.2c-1-1.3-2.6-0.2-3.8-1c3.4-1.2,6.9-0.9,11.5-0.8C569.6,279.6,567.5,280.4,565.1,280.2z"/>
	<path class="st8" d="M75.4,331.6c0.2,1.2,1.3,0.6,1.9,1c-2.3,1.4-4.9,1.1-7.7,1.8C71.3,332.3,73.4,332,75.4,331.6z"/>
	<path class="st9" d="M527.8,332.6c0.9-0.3,1.8-0.5,2.6-0.8c1.8,0.3,3.5,0.7,5.2,2.4C532.8,333.6,530.2,334,527.8,332.6z"/>
	<path class="st10" d="M207.7,284.9c13.2,1.9,23.5,11.3,36.3,14.3c1.3,0.3,2.7,0.9,4,1c2.9,0.2,5.9-0.5,8,2.9
		c0.7,1.1,3.4,3.2,5.8,0.8c0.7-0.7,1.9-0.1,2.5,0.6c1.5,1.4,2.8,1.7,4.1-0.2c0.1-0.1,0.3-0.3,0.4-0.3c5,1.4,6.5-1.9,7.8-5.6
		c0.4-1.1,1.5-2.1,3-1.7c1,0.2,0.7,1.4-1.1,4.6c2.3,0.5,4.4,1.4,5.9,3.7c0.1-2.9,0.2-5.9,0.4-8.8c0.1-1.4,0.5-3.1,2.3-2.7
		c2,0.4,1.4,2,1,3.3c-1.5,5.7,3.9,7,6.7,10.6c1.5-3.9,3.8-7.2,3.2-11.4c-0.2-1.1,0.1-2.2,1.5-2.4c2.9-0.4,3.3-0.9,2.4-4.1
		c-0.3-1.1-1.5-2.4-0.1-3.3c1.8-1.1,2,1.4,3.4,1.7c0.9-4.4-3.3-6.9-3.8-10.8c-0.3,1.7-2.3,2.7-0.3,5.1c1.7,2-1.2,4.1-2.6,5.7
		c-0.8,0.9-1.9,1.7-3.2,0.8c-1.9-1.4-1.4-3.4-1-5.1c0.7-3,1.8-5.9,2.7-8.8c0.1-3.6,1.8-6.6,3.7-9.5c0.8-1,1.4-2.2,2.8-2.6
		c3.1-1.6,3.5-4,2-6.9c-1.5-2.7-2.8-5.5-4.4-8.1c-2.8-4.3-3.4-8.8-1-13.2c4.9-8.7,4.7-17.4,2-26.8c-1.9-6.8-2-14.1-3.4-21
		c-1.3-6.4-3.3-12.6-6.4-18.3c-0.5-0.9-1.4-1.9-0.5-3c1.1-1.2,2.3-0.4,3.4,0.3c1.5,0.8,2.9,1.7,4.3,2.7c2.6,1.8,5.3,2,7.7,0
		c2.8-2.4,5.3-2,7.8,0.4c10.9,10.6,21.4,21.6,31.6,32.8c1.9,2.1,2,3.7-0.2,5.8c-5.5,5.2-10.3,11.1-14.7,17.5
		c2.1,1.1,3.8,0.3,5.5-0.1c0.8-0.2,1.6,0,2,0.8c0.5,1.1-0.4,1.6-1.2,2.1c-1.5,0.8-3.2,1.3-4.9,1.1c-8.1-0.5-16.7,5.3-18.3,13.5
		c-1.8,9.4-3.1,18.8,0.3,28.4c2.1,5.9,0.7,11.6-3.8,16.8c-4.2,4.8-7.4,10.4-11.1,15.7c-0.6,0.9-0.7,1.7,0.4,2.3
		c1.2,0.7,2.2,1.8,3.7,0.4c2.1-2,4.3-3.2,6.8-0.6c0.7,0.7,1.3,0.3,2-0.2c2.7-1.8,5.1-2.5,6.5,1.5c0.1,0.3,1,0.7,1.1,0.7
		c4.9-3.9,8.5,0.8,12.7,1.8c1.6,0.4,3.8-0.1,4.4-1.5c0.5-1.1,1-3.4-1.4-4.2c-1.5-0.5-2-1.8-2.4-3.2c-0.4-1.7,0.2-2.4,2-1.6
		c0.6,0.2,0.9,2.1,1.8,0.4c0.6-1.1,0-2-1.2-2.6c-4.4-2-9.1-2.8-14-3c-1.4,0-3.7,0.7-3.8-1.4c-0.2-1.9,2-2,3.5-2.1
		c8.5-0.9,16.8-2.2,24.7-5.9c2.8-1.3,10,0.7,12.2,3.1c1.6,1.9,3.7,2.3,5.9,1.4c2.4-1.1,3.6-1.1,4.8,1.9c1.8,4.4,9,6.3,14.8,4.3
		c2.8-0.9,5.4-2.3,8.2-3.3c2.2-0.8,4.4-1.5,6.5,0.6c-1.1,2.1-3.4,1.3-4.9,2.2c-1.6,0.9-4.6,0.3-3.5,4c0.5,1.5-1.3,1.4-2.2,0.6
		c-3.4-3-3.6-0.5-3.3,2c0.3,2.3,1.1,4.5,1.6,6.7c0.2,0.8,0.3,1.7-0.4,2.1c-1.1,0.7-1.7-0.3-2.1-1.1c-1.2-1.9-1.6-4-2-6.1
		c-0.3-1.2,0.8-3.2-1.1-3.6c-2.1-0.5-4.3-0.9-6.4-0.6c-1.6,0.2-0.6,1.8-0.4,2.7c1,4.8,0.8,9.5-1.2,14.1c0.1,0.9-0.5,1.5-1,2.1
		c-0.6,4-0.5,8,0.4,12c0.4,1.6,0.4,3.4,0.1,5.1c-1,4.5,0.4,7.3,5.1,8.7c7.6,2.2,13.9,6.7,20,11.5c3.9,3.1,3.8,3.3,8.9,2.4
		c-1.9-2.4-3.8-4.4-6.2-6c-0.8-0.5-2.4-1-1.6-2.3c0.8-1.3,2.1-0.7,3.3-0.2c2.2,0.8,3.6,2.4,5,4.1c2.4,2.9,5.3,3.6,8.7,2.4
		c4.2-1.4,7.6-0.4,10.6,2.7c0.4,0.4,0.8,1.1,1.3,1.3c7.4,3,5.5,8.1,4.2,14.1c-3.1,14.6-14.3,20.5-26,26.2c-3.4,1.6-6.3-0.4-9.2-1.7
		c-3-1.4-5.5-2.9-6.3,2.5c-0.6,4.2-4.4,5.6-8.5,5.7c-1,0-2.3-0.4-2.8,1c-0.6,1.5,0.5,2.2,1.6,2.9c0.8,0.5,2.3,1.1,1.5,2.4
		c-0.9,1.4-2.3,0.5-3.4,0.1c-5.9-2.5-11-6.3-16.1-10c-1.4-1-2.6-2.1-4.5-2c-3,0.1-6.6,0-7.7,2.9c-1,2.6,2.3,4.3,4,6.1
		c1.1,1.2,4.3,1.9,3,3.8c-1.4,1.8-3.6-0.4-5.2-1.5c-2.4-1.7-4.2-4-5.8-7.6c-0.9,4.3,1.4,6.2,3.3,7.9c6.4,5.7,11.8,12.3,17.4,18.7
		c2.1,2.4,2.7,4.6,1.1,7.5c-2.5,4.8-4.7,9.8-7.2,14.6c-0.7,1.3-1.3,3.7-3.5,2.8c-1.7-0.7-1-2.6-0.7-4.2c0.7-4.1,1.3-8.3,1.8-12.4
		c1.2-10.2-8.7-19.3-18.3-16.1c-22.5,7.3-44.1,2.7-65.7-3.5c-15.8-4.5-30.5-12-46-17.5c-1-0.3-2.9-0.6-2-2.3c0.7-1.4,2-0.8,3.3-0.5
		c4.8,1.3,9.3,3.5,13.8,5.4c1.8,0.7,3.6,1.4,5.5,1.9c-6-7-13.7-12-20.6-17.9c-8-6.8-16.6-11.6-27.6-9.4c-1.4,0.3-3-0.2-4.6-0.3
		c-0.1,2.8,1.4,4.1,3.8,5c5.7,2,11.3,4.4,17.5,3.7c2-0.2,4,0.1,5.4,1.9c-0.2,0.3-0.4,0.8-0.5,0.8c-6.1-1.1-6.2,3-6.4,7.2
		c-0.1,1.5-0.1,3.1-0.3,4.6c-0.7,5.8-3.4,7.6-8.5,4.9c-8.6-4.6-17.1-9.3-24.9-15.3c-2.7-2.1-4.8-4.8-6.2-8c-0.4-1-1.3-2-0.4-3
		c0.8-1,2-0.4,3-0.1c3.3,1,6.5,2.2,9.8,2.9c1.7,0.4,4.9,1.5,5-0.8c0.1-2.2-0.3-5.7-3.9-6.6c-3-0.8-5.9-2-8.9-2.6
		c-4.6-0.9-6.2-5.3-9.7-7.6c-0.7-0.4-0.7-1.6,0.1-2c4.2-1.8,3.4-5.7,3.8-8.9c0.7-5.5,4.2-10.1,4.5-15.7c-6.3,1.4-12.5,3.9-18.3,7.6
		c0.1,1.1,1.1,0.9,1.6,1.3c1.2,0.9,3.8-0.5,3.9,1.5c0.1,2.4-2.8,1.8-4.2,2.8c-4.1,2.6-6.1-0.3-7.9-3.1c-1.1-1.8,0.8-2.4,1.8-3.1
		c4.8-3.5,10-6.1,16.7-8.6c-4.2,0-7.2,0.1-10.2,0c-2.6-0.1-4.1-1.4-2-3.8c1.6-2,1.1-3.2-0.5-4.7c-2.7-2.5-3.7-6-4.8-9.4
		c-0.9-2.8-1.4-5.7-3.9-7.8c-3.4,2.9-6.4,5.7-1.6,9.9c0.8,0.7,1.5,1.9,0.4,2.8c-1.2,1-1.9-0.4-2.7-1c-0.4-0.3-0.7-0.7-1-1
		c-1-0.9-2.1-2.2-3.6-1.2c-1.4,0.9-0.3,2.2,0,3.3c1.1,4.2,2.2,8.3,3.2,12.5c0.5,2.1,0.8,4.2-0.7,6.8c-5.3-5.6-10.6-11-15.6-16.6
		c-1.3-1.4-0.9-3.4,0.5-4.6c1.8-1.7,2.2,0.4,3.4,1.2c1.5,1.2,3.7,1.5,6,2.3c-0.2-2.8-2.6-4.6-2.5-7.5c0-1.9-3.6-1-5.4,2.2
		c-3.4-3.3-7.4-5.3-12.2-5.5c-1.7-0.1-6-6.1-5.7-7.7c0.2-1.1,1.3-1,2.1-1.5c1.5-0.7,3.3-0.5,4.5-2.1c1-1.4,1.7-2.1-0.2-3.4
		c-1.5-1-2.3-2.9-3.7-4.1c-3.1-2.7,0.1-8.6-3.9-9.7c-3.9-1.1-6.9-2.8-9.6-5.9c3,6.8,3.6,14.2,6.5,20.9c0.4,1,0.7,2.1,0.9,3.1
		c0.2,1-0.1,1.9-1,2.4c-1,0.5-1.7-0.2-2.4-0.8c-3.4-3.3-6.2-7.2-7.2-11.7c-2-8.7-4.3-17.5-2.1-26.6c0.4-1.7-0.3-4.4,3.1-3.4
		c0.2,0.1,0.7-0.1,0.7-0.2c-0.2-1.2-1.7-2.8,0.7-3.3c1.5-0.3,2,1.9,3.3,2.3c2.7,0.9,5.6,2.1,7.4-1.7c1.7-3.6,5.2-4.7,8.8-5.1
		c3.4-0.4,6.8-0.7,10.3-1.1c-0.8-2.5-1.9-4.8-1.5-7.3c0.4-2.8-0.7-3.5-3.3-2.8c-7,1.9-14.1,3.4-21.1,5.5c-2.1,0.6-7,0-3.9,5
		c0.2,0.2-0.4,1.1-0.8,1.4c-0.5,0.4-1.2,0.2-1.7-0.3c-0.8-0.9-1.5-1.9-2.9-3.5c-2.1,7.6-3.1,14.2-4.2,20.8c-0.2,1.3,0.1,3.2-1.6,3.5
		c-1.6,0.3-2.4-1.4-3-2.5c-6.9-11.4-11.6-23.5-13.3-36.8c-1.1-8.1-0.7-16,0.9-24c1.2-5.8,4.1-9.7,10.1-11.4
		c7.9-2.2,15.6-5.2,23.8-6.1c3-0.3,6.6-1,5.9,4.3c-0.3,2.2,2,2.1,3.3,1.9c1.9-0.2,4.6,0.7,5.3-2.3c0.5-1.9,0.8-4,1.5-5.8
		c1.8-4.8,4-9.5-1.8-13.6c-1.5,2.6-3.4,5.5-5.1,8.5c-1.2,2-2.8,3.2-5.2,3.3c-9,0.2-18,0.7-27,0.6c-6.8-0.1-7.8-1.7-6.2-8.3
		c0.9-3.9,2-7.8,2.7-11.8c1.3-7.2,6.5-11.7,11.6-16.9c-0.9,0-1.3-0.2-1.6-0.1c-1.7,0.5-3.6,2.1-5,0.1c-1.2-1.7,0.8-3.1,1.8-4.4
		c4.2-5.5,8.4-11.1,12.7-16.6c4.3-5.5,5.5-5.9,12.3-3.7c7.6,2.5,15.2,5.2,22.8,7.9c0.2-1.7-1.1-1.8-1.8-2.2c-3.6-2.4-7.4-4.6-11-7
		c-8.5-5.8-8.2-8.4,0.6-13.7c19.7-11.8,40.8-14.7,63.1-10.1c15.5,3.2,30.9,6.2,45.6,12.3c18.2,7.6,32.7,19.9,46,34
		c1.4,1.4,2.6,3.2,0.8,4.8c-1.8,1.6-3-0.5-4.3-1.5c-16.3-13-34.3-23.3-54.9-27c-15.2-2.7-30.7-2.1-44.8,6.9
		c-11,7.1-22.4,13.4-29.9,24.6c-0.9,1.3-1.7,2.5-2.7,3.9c1.4,0.9,2.4-0.2,3.5-0.1c2.2,0.2,3.1,1.8,1.4,3c-5.6,4.2-3.5,10-3.9,15.3
		c-0.1,1.1,0.1,2.2,0,3.3c-0.1,1.5,0.5,3.8-1.4,3.9c-2.1,0.1-1.4-2.3-1.5-3.7c-0.1-3.3,0-6.7,0-10.7c-2.3,1.4-3.3,3-3.9,4.9
		c-1,2.9-2.6,5.3-5.8,6.1c-2.6,0.7-2.3,3.1-3,4.8c-1,2.4-1.5,5-2.2,7.6c0.8,6.5-1.2,12.7-2.4,18.9c-0.5,2.7-0.1,4.6,3.4,3.5
		c4-1.2,7.5-4.8,12.7-1.3c-1.5-4.2-2.4-7.7-2.3-11.3c0-1.1,0.2-2.3,1.7-2.2c1.3,0.1,1.1,1.3,1.3,2.1c0,0.1,0,0.3,0.1,0.5
		c2.5,15.2,2.6,12.8,16.5,15.9c10.1,2.2,18.8,14.8,16.2,25c-0.2,0.9-0.1,2.3-1.6,2.4c-1.3,0.1-2-0.7-2.5-1.7
		c-1.1-1.9-2.7-3.1-4.9-3.9c2.9,5,1.5,12.1,8.3,15c1,0.4,2.6,1.4,1.9,2.8c-0.7,1.4-2.1,0.6-3.2-0.1c-1.8-1.2-2.8-1.2-4.1,1.1
		c-2.2,4.1-3.2,4.1-6.1,0.3c-5-6.5-11-9.5-19.5-9.5c-8.4,0-16,3.4-24.2,3.6c-1.7,0-4.4,1.4-3.4,4.2c1,2.7,3.1,3.4,5.7,1.6
		c1.8-1.2,3.7-2.2,5.6-3.4c1.7-1,3.5-1.7,5.3-1c6.9,2.7,14,3.3,21.3,3.2c1.6,0,3.2,0.3,4.1,1.7c3.2,5.2,9.4,8.8,8.3,16.2
		c-0.2,1.2,0.8,1.9,1.5,2.7c4.8,5.4,10.3,9.6,16.9,12.8c5.3,2.6,10.3,2.4,15.6,0.5c1.9-0.7,2.7-1.6,2.9-3.6c0.2-2.6-1.6-5.4,1.3-7.8
		c0.9-0.7-4.1-5.1-5.7-4.6c-0.1,0-0.3,0.2-0.4,0.2c-0.4,0-1.2,0.1-1.3-0.1c-2.2-4.9-8.6-0.5-11-5.1c-1.2-2.2-3.4-3.9-3.9-6.9
		c5.1,0,5.5,7.3,11.2,6.2c-3.1-3-6.1-5.6-9.5-7.8c-1-0.6-2.5-1.4-1.8-2.7c0.9-1.7,2.6-0.6,3.6,0.1c6.8,5.4,14.5,9.5,19.9,16.5
		C206.6,283.4,207.2,284.1,207.7,284.9z"/>
	<path class="st11" d="M399.4,137.8c5.3-7.5,10.8-14.7,15.7-22.4c3.3-5.3,7.8-7.8,13.7-8.2c10.5-0.7,21.2-0.7,31.5,1.4
		c11.4,2.4,20.2,9.9,29.1,16.8c10.6,8.1,18.5,18.7,25.5,29.9c0.6,0.9,1.4,1.7,0.8,2.9c-0.5,1-1.1,1-4.8,0.3
		c4.9,5.8,10.8,10.7,11.8,18.7c0.4,2.9,0.8,5.8,1.1,8.7c0.6,6.9,0.1,7.6-6.7,7.6c-10.5,0-21.1-0.2-31.6-0.3c-2.8,0-5.6,0-8.5,0.4
		c7.1,1.6,14.2,3.1,21.3,4.7c8.2,1.8,16.3,3.5,24.1,6.7c3,1.2,4.2,3,4.9,6c4.4,18.4,1.5,35.9-6,53c-1.9,4.2-3.7,8.5-5.6,12.7
		c-0.6,1.3-0.9,3.4-3,3c-1.7-0.3-1.5-2.1-1.7-3.4c-0.6-4.1-1.3-8.2-2.5-12.2c-1,7.8-2.1,15.6-2.8,23.5c-0.7,7.7-4.1,13.8-9.4,19.2
		c-1.5,1.5-2.6,1.8-4-0.2c-2.1-3.1-4.3-6-6.6-9c-3.1-4.1-3.9-8.6-3.1-13.6c4.3-27.7-7.1-48.7-28.3-65.4c-2.6-2-5.4-3.6-7.9-5.7
		c-3.2-2.7-6.3-3-9.6-0.4c-0.8,0.6-1.8,1.8-2.7,0.7c-1-1.2,0-2.3,1-3.2c0.6-0.5,1.2-1,1.9-1.3c0.6-0.4,1-0.9,0.5-1.4
		c-0.5-0.5-1.3-1.1-2-0.4c-0.6,0.6-1,1.6-1.6,2.3c-0.6,0.7-1.2,1.6-2.3,1c-1-0.6-1-1.7-0.4-2.4c2.4-2.8,0.4-3.8-1.8-5.1
		c-18.2-10.7-37.7-12.2-58-8.6c-4.9,0.9-9.3,3.4-13.8,5.5c-3.3,1.5-5.8,0.8-7.8-1.8c-9.1-12.3-18.1-24.7-27-37.2
		c-2.4-3.3-2.6-6.8,0.7-10.1c22.7-22.4,48.6-38.6,81-42.8c2.1-0.3,4.4-0.6,5.7,0.9c1.6,1.8-0.4,3.7-1.2,5.5
		c-3.5,7.6-7.1,15.1-10.6,22.7c-0.3,3-2.1,5.3-3.7,7.6C396.6,142.4,396.9,139.3,399.4,137.8z"/>
	<path class="st12" d="M307.9,457.4c-4.9,3.9-5.2,7.2-1.2,12.7c5.7,7.7,1.7,15.3-7.8,17c-0.3,0.1-0.6,0.1-0.9,0.1
		c-12.8,1.9-12.6,1.9-15.2-10.6c-2-9.6-4-19.4-8.2-29.2c-3.1,3.3-6,6.3-8.8,9.4c-2,2.2,0.2,2.9,1.5,3.7c2.9,1.9,5.9,3.6,2.3,7.4
		c-0.3,0.3-0.5,0.9-0.4,1.2c0.3,1.3,1.7,2.5,0.2,3.8c-0.7,0.6-1.5,0.1-2-0.5c-1.1-1.3-2.6-3.1-1.5-4.5c2.5-3.2,0.3-4.3-1.9-5.8
		c-3.1-2.1-3.4-4.5-0.7-7.3c2.6-2.7,5-5.5,7.6-8.2c4.6-4.9,3.7-8.8-2.5-10.8c-7.1-2.4-7.2-2.4-11.2,4.1c-1.3,2.1-2.4,4.4-2.5,6.9
		c-0.1,3.2-0.5,6.7-4,7.7c-4,1.1-7.6-1.2-9.7-4.1c-4.4-6.3-7.2-13.4-6.5-21.3c0.5-5.1,2.6-6.7,7.4-5c21.8,7.4,44.2,13,65.5,21.9
		c9.5,4,18.8,7.7,26.3,15.1c2.4,2.4,5.5,2.8,8.4,0.7c0.9-0.6,1.8-1.7,2.8-0.8c1.2,1.1,0.2,2.3-0.5,3.3c-2.3,3.1-4.8,6-7.9,8.4
		c-2.9,2.3-5.8,4.6-8.5,7.2c-3.2,3-4.8,2.9-6.7-1.2c-2.5-5.3-5.1-10.6-8.4-15.5C311.4,461,310,458.7,307.9,457.4z"/>
	<path class="st13" d="M265.5,276.3c7.9,1.2,13.1-1.9,15.8-8.7c1-2.7,1.7-5.7,4-7.7c0.7-0.5,1.4-1.4,2.4-0.5
		c1.1,0.9,0.3,1.7-0.2,2.3c-1.5,2-2.4,4.3-3,6.7c-1.8,6.9-7.1,9.9-13.3,11.4c-8.7,2.1-16.9-6.3-15.8-15.8c0.8-7,3.2-13.1,10.3-16.4
		c2.7-1.3,4.9-3.7,7.3-5.7c2-1.7,3.9-3.5,6.4-4.5c1.4-0.5,3.3-1.5,4.1,0.4c0.8,1.9-1.2,2.1-2.5,2.4c-2.2,0.6-2.1,1.9-1.5,3.8
		c2.9,9.1,1.3,17.1-6.7,23.2C269.9,269.6,268,272.8,265.5,276.3z"/>
	<path class="st14" d="M439.4,346.1c12.7-4.8,27.6-19.6,30.1-29.9c-2.6,1.7-4.7,3.2-6.9,4.6c-0.8,0.5-1.9,1-2.5,0.2
		c-0.9-1.2,0.2-1.9,1.1-2.6c3.9-3,7.8-6.1,10.9-10c1-1.2,1.9-2.5,2.8-3.7c1-1.4,1-4.2,3.3-3.9c1.9,0.2,2.2,2.8,3.1,4.3
		c3.2,5.6,3.3,11-1,16.3c-9.4,11.6-20.9,21.1-32.7,30.1c-3.2,2.4-6.8,2.1-9.8-0.5c-2.9-2.5-1.7-5.4,0-7.9c2.3-3.4,0-4.7-2.4-6
		c-0.9-0.5-2.1-0.6-3-1.1c-0.9-0.5-2.3-0.8-1.8-2.2c0.4-1,1.4-0.8,2.4-0.7C440.3,333.5,443.5,339.1,439.4,346.1z"/>
	<path class="st15" d="M331,238.5c-1.1-1.6-2.8-1.8-4.5-2c-1.2-0.1-2.4-0.5-2.3-1.7c0.2-1.7,1.8-1.4,3-1.3c4,0.4,7.2,2.1,8.4,6.2
		c0.6,2.1,1.8,3.4,3.9,4c3.3,1.1,4.3,3.6,3.9,7c-0.7,5.7-3.3,10.2-8.2,13.3c-1.8,1.1-3.6,2.4-5.2,3.8c-1.9,1.6-2.8,4.9-6.3,3.5
		c-4.1-1.6-7.6-6.6-7.4-10.4c0-0.7-0.2-1.7,0.8-1.9c1.3-0.3,1.6,0.8,1.8,1.6c0.7,2.6,1.5,5,4.2,6.3c0.9,0.4,1.4,1.9,2.6,0.9
		c1-0.8,1.5-2,0.8-3.3c-4.4-8.2,0.1-14.5,4.7-20.7c1.4-1.9,2.3-3.1,0.2-4.8C331.2,238.9,331.1,238.7,331,238.5z"/>
	<path class="st16" d="M315.3,492.4c1.5,0.4,2.4,1.1,1.5,2.6c-3.7,6.6-7.7,13-12.2,19.1c-1.2,1.7-2.4,1.2-3.6-0.5
		c-2.5-3.7-5.3-7.2-7.9-10.9c-2.2-3-0.7-4.5,2.3-4.2c7,0.5,13.1-1.2,18.6-5.5C314.5,492.8,315,492.6,315.3,492.4z"/>
	<path class="st17" d="M352.3,267.2c0.5-0.9,0.9-1.6,1.3-2.3c0.9-1.4,2-3.5,3.9-2.2c2.2,1.4-0.4,2.6-1,3.7c-1.3,2.4-0.8,3.8,1.5,5.3
		c7.8,5.1,16.3,8.7,25.3,11.2c1.4,0.4,3.8,0.2,3.5,2.1c-0.3,2.1-2.6,1.2-3.9,0.9c-12.4-2.8-23.6-8.2-33.2-16.6
		c-1.6-1.3-2.6-3.1-3.1-5.1c-0.8-3.3,1.5-6.6,4.6-6.7c1-0.1,1.9,0.2,2.3,1.1c0.5,1-0.5,1.3-1.1,1.7C349,263.1,349,263.1,352.3,267.2
		z"/>
	<path class="st18" d="M232.2,279.3c-2.5-0.4-5,0.6-7.5,1.3c-4.8,1.2-10.2-2.4-11.1-7.2c-0.2-1-0.1-1.9,0.9-2.3
		c1.2-0.5,1.8,0.6,2.1,1.4c2.1,5.4,5.9,6.1,10.8,4.1c1-0.4,2.1-0.5,3.2-0.5c7.7-0.5,8.9-1.6,10.3-8.8c0.4-2.3,0.4-6.4,2.8-5.9
		c2.7,0.6,0.6,4.3,0.3,6.5C242.6,276.5,239.6,279.4,232.2,279.3z"/>
	<path class="st18" d="M244.1,228.9c-0.9-6.1-5-11.1-10.8-15c-1.2-0.8-4.1-1-2.9-3.1c0.8-1.5,3-0.4,4.6,0.4
		c6.5,3,12.4,12.6,12.1,19.7c-0.1,3.1,0.8,6.1,1.9,9c0.4,1.1,1.4,2.5-0.1,3.2c-1.8,0.9-2.4-1-2.9-2.2
		C244.6,237.5,243.5,234,244.1,228.9z"/>
	<path class="st19" d="M470.3,291.8c-0.5,3-1.1,6.4-2.9,9.3c-4.8,7.8-12.4,11.9-20.9,14.4c-1.3,0.4-3.6,0.9-4.1-1
		c-0.5-2.2,2-1.8,3.3-2.2c10.6-3.6,19.6-8.7,21.4-21.1c0.2-1.3,0.3-2.6,1.7-3C469.5,288.1,470.3,289.8,470.3,291.8z"/>
	<path class="st20" d="M390.2,234.2c1.2-2.5,3.8-2.6,5.9-3.1c5.3-1.3,9.7-4,13.2-8.1c3.3-3.9,7.8-6,12.2-8.3
		c1.1-0.5,2.6-1.3,3.3,0.2c0.8,1.7-1.1,1.9-2,2.5c-5.2,2.8-9.8,6.2-13.9,10.7c-4.1,4.5-10,5.9-15.8,7.3
		C392,235.5,391,235.1,390.2,234.2z"/>
	<path class="st21" d="M249.5,260.3c1.3,2.2,0.6,3.9,0.2,5.7c-1.6,8.7,1.6,14.2,9.9,17.2c2.3,0.8,4.6,1.7,7,2.3c1,0.3,2,0.5,1.8,1.6
		c-0.1,0.6-1,1.2-1.6,1.4c-3.4,1.1-15.7-5.1-18-8.9C245.2,273.6,245.4,265,249.5,260.3z"/>
	<path class="st22" d="M217.9,172.2c0,3.8-0.6,7.4-1.6,11c-0.4,1.4-0.4,3.9-2.2,3.5c-2.2-0.5-1.1-2.9-0.8-4.4
		c1.1-5.1,1.1-10.1,0.8-15.3c-0.3-3.9-1.1-7.7-3.1-11.1c-0.6-1.1-1.7-2.3-0.4-3.2c1.2-0.8,2.2,0.7,3,1.6c3,3.5,3.3,7.9,3.8,12.2
		C217.8,168.5,217.8,170.4,217.9,172.2z"/>
	<path class="st23" d="M358.6,232.6c1.2,0.6,2.9-0.4,3.3,1.2c0.5,1.8-1.3,1.7-2.2,2.3c-2.6,1.8-1.3,4.4-1.5,6.7
		c-0.1,1.3,0.6,3.2-1.1,3.6c-1.8,0.4-2.1-1.6-2.3-2.8c-0.2-1.5-0.9-1.7-2.2-1.5c-1.5,0.2-2.8-0.4-3.9-1.2c-1.7-1.2-4.6-2.7-3.1-4.8
		c1.5-2.2,2.8,1,4.3,1.8c1.4,0.7,3,2.4,4.4,1.6c1.2-0.7,0.8-2.8,0.6-4.3c-0.2-1.8-0.6-3.8,1.1-5.2c1.3-1,3.1-2.4,4.5-0.8
		C361.9,230.9,359.2,231.2,358.6,232.6z"/>
	<path class="st24" d="M431.2,273c-0.6,0.7-1.1,1.5-1.8,2.1c-4.9,4.9-10.8,7.5-17.7,7.9c-1.5,0.1-3.1,0-4.6,0.5
		c-1.3,0.4-2.6,0.8-3-0.8c-0.4-1.2,0.9-1.9,1.9-2.2c1.1-0.4,2.4-1,3.6-0.9c6.9,0.4,12.6-2.2,17.7-6.6c0.9-0.8,1.9-1.7,3.3-1.2
		C430.9,271.9,431,272.5,431.2,273z"/>
	<path class="st25" d="M427.9,294.4c-0.1,1.4-1.2,1.6-2.3,1.6c-6.9,0.3-11.7,3.3-13.4,10.3c-0.3,1.4-1.1,3.5-3,2.7
		c-1.4-0.6-0.4-2.5,0-3.7c2.5-8.5,7.8-12.7,15.6-12.3C426,293.1,427.3,293,427.9,294.4z"/>
	<path class="st26" d="M182.4,228.1c-1.7-0.6-5.5,1.1-5.4-1.7c0.1-2.7,3.9-1.9,6.3-1.6c4.1,0.5,6.7-1.5,8.9-4.6
		c0.8-1.1,1.6-2.3,2.3-3.4c0.6-0.9,1.5-1.3,2.4-0.8c0.9,0.6,0.5,1.6,0.2,2.5C195,224.4,189.2,228.2,182.4,228.1z"/>
	<path class="st27" d="M262.8,203.3c4.1-3.1,8.2-2.9,12.2-1.1c3.5,1.5,6.8,3.7,10.9,3.7c1.2,0,2.2,0.6,2.1,1.9
		c-0.1,1.3-1.4,1-2.2,1.1c-0.8,0.1-1.6,0-2.3-0.1C276.4,207.6,270.6,202.3,262.8,203.3z"/>
	<path class="st28" d="M477.6,252.4c2.1,7.9,2.5,15.1,2.1,22.3c-0.1,1-0.5,1.9-1.7,1.7c-0.5-0.1-1.2-0.8-1.2-1.2
		c0.5-7.1-2.2-14.1-0.4-21.2C476.4,253.7,476.7,253.5,477.6,252.4z"/>
	<path class="st29" d="M241,257.3c0.7,8.6-6,17-13,16.7c-1.4-0.1-3.3,0.1-3.3-1.6c-0.1-1.5,1.8-1.5,3-1.4c4.4,0.3,6.3-2.2,7.9-5.8
		C236.8,262.3,237.7,259.1,241,257.3z"/>
	<path class="st27" d="M374.2,257.8c-0.3,3.2-2.7,3.7-4.5,4.7c-1.8,1-3.7,1.8-3.6,4.3c0.1,2,0.7,3.6,3.3,3.5c0.3,0,1,0.8,1,1.3
		c0,1.2-1,1.4-1.9,1.6c-1.7,0.2-3.6,0.3-4.4-1.6c-1.3-2.9-2.2-6,0-8.8C366.5,259.6,370.1,258.2,374.2,257.8z"/>
	<path class="st30" d="M257.1,239.4c-0.7,0-1.6,0.1-1.9-0.8c-0.3-0.9,0.2-1.6,0.9-1.9c1.3-0.5,2.6-0.9,3.9-1.3
		c4-1.1,7.2-3.3,9.6-6.8c0.8-1.1,1.5-3.4,3.3-2.1c1.5,1.1,0,2.8-0.8,4C269.3,235.3,262.4,239.4,257.1,239.4z"/>
	<path class="st31" d="M186.1,254.3c1.8-0.5,2.8,0.3,3.6,1.1c3.1,3.2,6.9,5,11.4,5.7c1.2,0.2,2.4,0.8,3.4,1.5
		c0.9,0.6,2.6,1.3,1.9,2.7c-0.8,1.7-2.2,0.3-3.2-0.1c-5-1.9-10.7-2.1-14.6-6.5C187.5,257.5,186.1,256.5,186.1,254.3z"/>
	<path class="st32" d="M295.1,255.4c-0.3-3.7-1.6-7.3-1.1-11c0.1-0.9,0-2,1.2-2.2c0.9-0.1,1.6,0.6,1.6,1.4c0.1,4.8,2.1,9.4,1.5,14.3
		c-0.2,1.3-0.8,2.7-1.4,3.9c-0.4,0.8-1.2,1.5-2.3,1.1c-1.2-0.5-0.7-1.6-0.4-2.4C294.8,258.8,295.3,257.2,295.1,255.4z"/>
	<path class="st33" d="M189.6,294.5c-5.5-1.3-10.6-4.3-14.8-8.8c-0.5-0.6-1-1.3-0.4-2c1-1.2,2-0.3,2.8,0.4c4.1,3.2,8.4,6.2,13.6,7.5
		c0.8,0.2,1.8,0.8,1.5,1.9C192.1,294.7,191,294.4,189.6,294.5z"/>
	<path class="st34" d="M438.6,331.4c-0.6,0-0.9,0-1.2,0c-1.7-0.2-4.6,0.5-4.6-1.6c-0.1-2,2.8-1.7,4.5-1.8c4.2-0.2,8.4,0,12-2.8
		c0.7-0.5,1.9-0.9,2.5,0.1c0.5,0.9-0.1,1.7-0.8,2.4C447.3,331.1,442.8,331,438.6,331.4z"/>
	<path class="st20" d="M129.2,202c0.5-0.9,0.5-2.5,1.7-2.4c1.7,0.1,1.3,1.9,1.3,2.9c0.1,3.4-0.5,6.8-1.6,10
		c-0.9,2.7-1.3,5.4-1.4,8.1c-2.9,1.1-4.2,0.2-3.6-3.4C126.6,212.2,127.6,207,129.2,202z"/>
	<path class="st30" d="M391.6,336.8c-0.2,1.5-1.3,1.4-2.1,1.1c-5.8-2.5-10.8-5.9-13.8-11.6c-0.4-0.7-0.8-1.4-0.1-2
		c0.7-0.6,1.7-0.4,2.1,0.1c3.2,4.9,8.1,7.8,12.8,11.1C391,335.7,391.3,336.3,391.6,336.8z"/>
	<path class="st35" d="M409.3,316.5c1.3,0,3.3-0.5,3.5,1.2c0.2,1.8-1.8,1.7-3.1,1.8c-3,0.2-5.7,1.2-8.2,2.9
		c-1.5,1.1-3.3,1.7-5.2,1.6c-0.8,0-1.6-0.4-1.6-1.3c0-0.5,0.4-1.4,0.8-1.5C400.4,320.3,403.9,315.6,409.3,316.5z"/>
	<path class="st36" d="M295.3,215.6c-0.1,1.2-0.4,3-1.5,1.9c-2.8-2.7-4.1-6.6-4.3-10.4c-0.1-3,2.7-4.3,5-5.6c0.8-0.5,1.5-0.1,2,0.6
		c0.5,0.6,0.2,1.4-0.3,1.6c-5,2.6-2.8,6.2-1.4,9.8C295,214.3,295.1,215,295.3,215.6z"/>
	<path class="st37" d="M228.5,288.4c6.2,1.9,11.1,4.9,16.8,4.1c0.8-0.1,1.5,0.6,1.5,1.4c0.1,0.9-0.6,1.2-1.4,1.4
		C240.2,297.3,231.9,294.3,228.5,288.4z"/>
	<path class="st38" d="M139.6,198.2c-0.7,1.6,1.4,5-1.4,5.1c-2.2,0.1-1.9-3.5-2.1-5.5c-0.4-3.4,0.7-6.7,1.6-9.9
		c0.3-0.9,0.7-1.8,1.8-1.6c1.3,0.2,1.1,1.3,1,2.2C140.2,191.7,139,194.8,139.6,198.2z"/>
	<path class="st39" d="M350,219.3c-0.3,4.5-4.1,9.4-8.2,10.6c-0.9,0.3-2.2,1-2.8-0.4c-0.5-1.3,0.7-1.9,1.6-2.4
		c3.4-1.9,6-4.3,6.5-8.5c0.1-1,0.6-2.3,2-1.9C350.5,217.1,349.8,218.5,350,219.3z"/>
	<path class="st40" d="M303.5,262.7c-0.6,0.9-1.1,1.8-1.7,2.7c-3.3,1.8-2.9,6.3-5.7,8.4c-0.7,0.7-1.2,2.1-2.5,1.5
		c-1.2-0.6-0.8-1.9-0.5-2.8c1.4-3.9,3.6-7.4,5.9-10.7C301.2,258.9,302.1,262,303.5,262.7z"/>
	<path class="st41" d="M295.2,234.7c-1.2-0.2-2-0.9-1.4-2.2c1.9-4.4,4.5-8.5,7.4-12.3c0.5-0.6,1.3-1.1,2-0.7
		c0.4,0.2,0.7,1.2,0.5,1.7c-2,4.7-5,8.8-7.7,13.1C295.9,234.5,295.5,234.6,295.2,234.7z"/>
	<path class="st42" d="M396.3,296.1c1.5,0.3,3.5,0.5,3.7,2.1c0.3,2.3-1.6,1.5-2.9,1.4c-0.9,0-1.5,0.4-1.5,1.3c0,1-0.2,2.2,1.3,2.6
		c1,0.3,2.4,0.6,1.6,2.2c-0.7,1.3-2.1,1.1-3.3,0.7c-2.9-1.1-3.2-3.6-3-6.1C392.5,298.1,393.7,296.3,396.3,296.1z"/>
	<path class="st43" d="M157.9,195.5c2.3,5.7,1.3,11.5,0.9,17.3c0,0.5-0.6,1.2-1.1,1.3c-0.9,0.2-1.5-0.5-1.5-1.3
		C156.3,206.9,155.3,201,157.9,195.5z"/>
	<path class="st36" d="M377.9,334c4.8,1.8,6.9,7.2,12.3,6.9c0.3,0,0.9,0.9,0.9,1.4c-0.2,1.4-1.4,1.5-2.5,1.6
		C384.1,344.2,379.3,339.9,377.9,334z"/>
	<path class="st44" d="M200.2,291.3c-0.1,1.3,0.4,3.5-1.5,3.6c-1.8,0.1-1.5-2.1-1.4-3.3c0-3.7-2.7-4-5.2-4.6
		c-1.2-0.3-2.9-0.3-2.6-1.8c0.2-1.5,1.9-1.2,3.1-1.1C197.5,284.1,200.2,286.6,200.2,291.3z"/>
	<path class="st45" d="M372.3,232c-0.4-0.1-1.9,0.5-2.2-0.9c-0.3-1.4,1.1-1.8,2.1-1.9c3.6-0.5,6.8-1.7,9.8-3.7
		c0.8-0.5,1.9-0.8,2.5,0.1c0.8,1.2-0.2,1.9-1.1,2.6C380.4,230.5,377,232.2,372.3,232z"/>
	<path class="st38" d="M153.1,174.2c-1.3-0.2-1.5-1.1-1.3-2.1c0.8-3.9,2.1-7.7,4.5-11c0.5-0.7,1.1-1.1,2-0.9c0.8,0.1,1,0.8,0.8,1.4
		c-1.6,4-3.2,8-4.9,12C154,173.8,153.5,174,153.1,174.2z"/>
	<path class="st46" d="M382.6,313.8c0,1.8,1.8,3.5-0.7,3.9c-1.7,0.3-2.5-1.3-2.8-2.6c-0.5-3-0.8-6.1-1.1-9.2c-0.1-1,0.2-2.4,1.7-2.3
		c1.2,0,1.2,1.2,1.4,2.1C381.7,308.6,382.2,311.5,382.6,313.8z"/>
	<path class="st47" d="M129.2,202c0.2,4-1,7.8-2.2,11.6c-0.6,2-0.6,3.9-0.5,5.9c0.1,2.1,1.2,2.2,2.7,1.1c0.1,0.3,0.1,0.6,0,0.9
		c-1.3,1.5-3,2.3-5.2,2.9c0.4-8.8,3.2-16.9,4.2-25.3C128.8,200.1,128.2,201.3,129.2,202z"/>
	<path class="st48" d="M263.9,302.1c-0.5,0-2.1,0.2-2.3-1.4c-0.2-1.6,1.5-1.3,2.4-1.4c2.9-0.5,5.6-1.7,8.2-3.2
		c0.9-0.5,2-1.5,2.9-0.3c0.9,1.2-0.3,2-1.1,2.6C271.2,300.7,268.1,301.9,263.9,302.1z"/>
	<path class="st49" d="M285.5,281.2c-1.7-0.3-3,2-4,0.1c-0.8-1.8,1.1-2.7,2.2-3.4c1.2-0.7,2.9-1.5,4,0.4c0.2,0.4,0.5,0.8,0.6,1.2
		c0.3,2.6,1.3,5.6-0.9,7.4c-2.2,1.8-1.8-0.7-1.9-1.9C285.4,283.8,285.5,282.5,285.5,281.2z"/>
	<path class="st50" d="M274.1,430.7c3.2-1.4,12.4,0.7,14,2.9c0.4,0.6,0.7,1.2,0.2,1.6c-0.4,0.3-1.2,0.5-1.7,0.3
		C282.6,434,278.2,433.5,274.1,430.7z"/>
	<path class="st51" d="M369.6,197.8c2.9,0.5,5.7,1.5,8.1,3.3c0.7,0.5,1.6,1.3,0.9,2.3c-0.5,0.7-1.3,0.5-2.1,0.2
		c-2.5-0.8-4.7-2.3-7.4-2.6c-1.2-0.1-2.9-0.3-2.7-1.8C366.5,197.5,368.1,197.5,369.6,197.8z"/>
	<path class="st52" d="M176.6,278.2c-0.4,1.1-1.2,1.2-2.2,1.1c-2.5-0.5-6.9-5.9-6.9-8.6c0-0.5,0.2-1.3,0.6-1.6
		c0.4-0.2,1.4-0.1,1.6,0.2c1.8,3,3.8,5.9,6.6,8C176.5,277.5,176.5,277.9,176.6,278.2z"/>
	<path class="st31" d="M393.7,330.1c-0.1,1.6-1.3,1.7-2.3,1.4c-3.3-1.2-5.9-3.2-7.7-6.2c-0.4-0.6-0.6-1.6,0-2.1
		c0.3-0.3,1.2-0.2,1.6,0c2.7,2,5.3,4.1,7.9,6.2C393.5,329.5,393.6,329.8,393.7,330.1z"/>
	<path class="st23" d="M283.1,225.4c-2.1-0.6-4.2-0.4-6.4,0c-0.9,0.2-2,0.3-2.2-1c-0.2-1.1,0.6-1.7,1.5-2.1c2.7-1.1,5.4-1.2,8.1,0
		c0.9,0.4,1.8,0.9,1.6,2C285.5,226,284.2,225.3,283.1,225.4z"/>
	<path class="st18" d="M474.2,259.3c-0.1,0.7-0.1,1.1-0.1,1.3c-0.5,2.1,0.3,5.7-2.6,5.4c-2.3-0.2-0.7-3.4-0.6-5.2
		c0.1-0.9,0-1.9,0.1-2.8c0.2-1.4-1.8-4,0.9-4.1c2.2-0.1,2.1,2.6,2.3,4.4C474.3,258.8,474.2,259.3,474.2,259.3z"/>
	<path class="st53" d="M316.4,486.4c-0.5,1.8-0.5,4.1-2.6,4c-2.1,0-0.9-2.1-1.2-3.3c-0.3-1.6-1.1-3.1-1.6-4.7
		c-0.2-0.9-0.2-2,0.7-2.4c1.1-0.5,1.7,0.5,2.1,1.2C314.9,482.9,315.7,484.7,316.4,486.4z"/>
	<path class="st54" d="M207.7,284.9c-1-0.1-1.8-0.6-2.1-1.6c2.3-3.9,6.4-1.5,9.4-2.7c0.5-0.2,1,0.6,0.9,1.3c-0.1,1.1-1,1.5-1.7,2.1
		C212.3,285.7,209.7,283,207.7,284.9z"/>
	<path class="st55" d="M244.6,419.2c0.1,1.1-0.8,1.4-1.5,1.3c-3.3-0.4-6.2-1.8-9-3.5c-0.5-0.3-0.9-0.9-0.5-1.6
		c0.3-0.7,0.9-0.9,1.5-0.7c3,1.2,5.9,2.5,8.9,3.8C244.2,418.6,244.4,419,244.6,419.2z"/>
	<path class="st56" d="M250.2,422.5c4.8-1,8,0.9,11.4,2.1c0.6,0.2,1.1,0.8,0.8,1.4c-0.4,1-1.2,1.3-2.3,1
		C256.9,426,253.6,425.5,250.2,422.5z"/>
	<path class="st57" d="M213.8,195.9c-1.1,2.7-1.9,5.6-4.8,7.1c-0.7,0.4-1.8,0.1-1.7-0.8c0.6-3.1,2.4-5.6,4.4-8
		c0.2-0.3,0.9-0.4,1.2-0.3C213.7,194.3,213.9,195.1,213.8,195.9z"/>
	<path class="st58" d="M449.2,331.7c0.5,0.2,1.1,0.4,1.6,0.6c0.7,0.3,0.8,1.4,0.6,1.5c-3.8,0.5-2.1,4.5-4,5.9
		c-0.7,0.5-2.2-1.3-2.6-2.6c-0.5-1.8,0.1-3.4,1.6-4.4C447.3,332.2,448.2,332,449.2,331.7z"/>
	<path class="st59" d="M330.3,451.4c2.8,1,5.2,2.9,7.4,4.9c0.9,0.9-0.9,1.7-1.9,1.5c-2.8-0.5-4.9-2.5-6.8-4.4
		C327.7,452.2,328.9,451.7,330.3,451.4z"/>
	<path class="st60" d="M438.8,314.8c-2.5,3.9-6,3.3-9,3.9c-0.3,0.1-0.9-0.4-1-0.7c-0.4-0.9,0.2-1.5,0.8-1.9
		C432.2,314.1,435.1,314.6,438.8,314.8z"/>
	<path class="st40" d="M163.5,150.3c-1.4,4.2-4.5,5.7-6.7,7.9c-0.5,0.5-1.1,0.4-1.7-0.1c-0.7-0.5-0.4-1.2-0.1-1.7
		C156.8,153.6,159.1,151.2,163.5,150.3z"/>
	<path class="st61" d="M412.9,234c-1.4-0.1-1.7-0.9-1.7-1.9c-0.1-1.8,0.6-3.3,1.7-4.6c0.8-0.9,1.6-2.8,3.2-1.8
		c1.8,1.1,0.3,2.6-0.5,3.5C414.4,230.6,415,233.1,412.9,234z"/>
	<path class="st40" d="M316.7,287.1c-0.8-0.3-1.2-0.9-1.2-1.8c0-2.1,0.9-3.9,2.4-5.3c0.7-0.7,1.7-1.7,2.8-0.7c1.1,1,0.1,1.9-0.4,2.8
		c-0.7,1.2-1.4,2.4-1.9,3.7C318,286.6,317.6,287.1,316.7,287.1z"/>
	<path class="st28" d="M333.9,273.9c-0.6,0-1.3,0-1.5-1c-0.2-1,4.7-5.9,5.9-5.9c0.8,0,1.5,0.3,1.4,1.3
		C339.6,269.8,335.7,273.8,333.9,273.9z"/>
	<path class="st46" d="M289.1,288.1c0.3-1,0-3.3,1.8-2.9c2.5,0.6,1.3,3.9,3.1,5.6c0.5,0.5-0.9,1.5-1.8,1.4
		C290,291.8,289,290.4,289.1,288.1z"/>
	<path class="st38" d="M154.8,338.1c0,1.2-0.5,2.3-1.6,1.7c-2.3-1.4-3-4.1-4.1-6.3c-0.4-0.8,0.4-1.8,1.1-1.6
		C153.1,332.9,154.1,335.5,154.8,338.1z"/>
	<path class="st59" d="M354.6,207.4c-1.4-0.2-3.2-0.2-2.7-1.8c0.7-2.2,3-1.6,4.8-1.7c1.4-0.1,3.6,0,3.2,1.5
		C359.3,208.3,356.1,206.1,354.6,207.4z"/>
	<path class="st62" d="M358.1,258.7c-1.3-0.6-1.9-1.5-1.4-2.7c0.8-2,1.7-4.1,4.1-4.5c0.8-0.1,1.4,0.9,1,1.7
		C360.8,255.2,360.1,257.5,358.1,258.7z"/>
	<path class="st45" d="M287.1,253.3c-0.6,1.9-0.2,4.5-3,5c-1.2,0.2-1.6-1.1-1.2-1.9c1.1-1.9,0.1-5.1,2.8-5.9
		C287.3,250,287,252.1,287.1,253.3z"/>
	<path class="st55" d="M331,238.5l0.3,0.2c0,0,0,0.4,0,0.4c-0.3,2.7-1.8,4.7-4.3,5.9c-0.5,0.2-1.4-0.3-1.2-0.9
		C326.4,241.1,328.1,239.2,331,238.5z"/>
	<path class="st51" d="M312.4,295.6c-1.3,0.1-1.7-0.6-1.6-1.4c0.3-2.1,0.6-4.4,2.7-5.5c0.8-0.5,1.2,0.7,1.2,1.4
		C314.8,292.4,314.2,294.4,312.4,295.6z"/>
	<path class="st63" d="M324.6,286.5c-1-0.3-1.6-1-1.3-2c0.5-1.5,0.7-3.5,2.6-4c1.1-0.3,1.8,0.7,1.5,1.7
		C327,283.9,326.6,285.8,324.6,286.5z"/>
	<path class="st64" d="M398.2,281.2c1.2,0.1,2.7,0.2,2.6,1.8c-0.1,1.5-1.5,1.9-2.8,1.7c-1.3-0.2-3.1-0.5-2.9-2.2
		C395.3,281,397,281.2,398.2,281.2z"/>
	<path class="st65" d="M469.9,239.9c1.9,0.2,2.7,1.7,3.2,3.4c0.2,0.7,0.2,1.8-0.8,1.8c-2.3,0-2.9-2.1-3.7-3.6
		C468.1,240.5,469,240.1,469.9,239.9z"/>
	<path class="st53" d="M322.5,247.7c-1.3-0.1-1.6-0.8-1.5-1.6c0.3-1.7,0.9-3.4,2.8-3.7c1.2-0.2,1.3,1.1,1.1,2
		C324.5,246,323.8,247.2,322.5,247.7z"/>
	<path class="st66" d="M399.4,137.8c-2,3.1-3.9,6.2-5.9,9.3c-0.3-0.2-0.6-0.4-1-0.5c1.9-3.3,3.8-6.6,5.8-10
		C398.7,137,399,137.4,399.4,137.8z"/>
	<path class="st67" d="M312.2,473.1c1.1,0.6,1.6,1.5,1.2,2.7c-0.4,1.2-0.6,2.7-2.1,2.6c-0.9,0-1.5-1-1.3-2.1
		C310.2,474.9,310.6,473.6,312.2,473.1z"/>
	<path class="st68" d="M296.1,273.8c1-3.4,2.9-6.2,4.9-9.1c0-0.1,0.3,0,0.4,0c0.2,0.2,0.3,0.4,0.5,0.7c-2.2,2.8-3.2,6.3-4.8,9.4
		C296.7,274.5,296.4,274.2,296.1,273.8z"/>
	<path class="st69" d="M372.5,316.8c-0.3-1,0.1-1.6,1-2.1c1.7-0.2,2.6,0.6,2.7,2.2c0,0.5-0.4,1.2-0.8,1.4
		C373.8,319.1,373.5,317.2,372.5,316.8z"/>
	<path class="st70" d="M248.5,283.6c0,1-0.6,1.6-1.4,1.6c-1.2,0-2-0.8-2.1-1.9c-0.1-1,0.4-1.9,1.5-1.8
		C247.8,281.6,248.2,282.6,248.5,283.6z"/>
	<path class="st71" d="M296.8,296.5c0,1-0.4,1.9-1.4,1.9c-1,0-1.4-1-1.4-1.9c0-1,0.3-1.9,1.4-1.9
		C296.3,294.6,296.7,295.5,296.8,296.5z"/>
	<path class="st72" d="M288.9,243.7c2,1.1,1.8,2.7,1.4,4.4c-0.2,0.5-1,0.9-1.5,0.3C287.6,246.8,288.2,245.2,288.9,243.7z"/>
	<path class="st73" d="M284.9,246.6c-0.1,1.1-0.5,2-1.6,1.9c-1.2,0-1.3-1.1-1.4-2c0-0.8,0.2-1.6,1.2-1.6
		C284.3,244.9,284.8,245.6,284.9,246.6z"/>
	<path class="st74" d="M326.9,327.2c-5.3,3.6-10.8,6.7-16.4,9.7c-1.1,0.6-3.2,1.2-2.4,2.8c1.1,2.2,2.6,0.1,3.8-0.4
		c5.9-2.5,11.2-5.9,16.6-9.3c1.6-1,3-2.1,5-2.4c1-0.1,2.3-0.8,2.6-1.6c2.8-6.6,7.3-12.8,5.1-20.6c-1.4-5,1.1-9.8,0.6-14.8
		c-0.2-2.4,3.3-1.9,5.2-3.2c0.2,2.2,0.3,4,0.5,5.8c0.1,0.8,0.6,1.6,1.4,1.6c0.9,0,1.2-0.8,1.2-1.7c0-2.1,0-4.3,0-6.3
		c4.3,1.1,4.2,1.1,4.9,5.6c0.9,5.7,0.9,11.4-0.1,17.1c-0.3,1.6-0.2,3.3-0.3,5.2c2.8-0.3,2.6-2.2,2.9-3.8c1-5.5,1.9-10.9,3.9-16.2
		c1.1-2.8,3-3.9,5.2-2.9c1.9,0.9,3.1,2.6,1.4,5.6c-1.9,3.3-2.3,7.5-3.6,11.9c5.5-2,4.7-6.7,6.1-10.7c2.7,9.5,1.8,13.8-4.1,20.3
		c-0.1,0.1-0.2,0.2-0.3,0.3c-1.1,1.6-3.6,3.4-1.8,5.1c1.9,1.8,2.2-2.4,4.1-2.4c2.2,12.7,2.2,12.7-2.5,15.9c-0.2-0.2-0.5-0.4-0.5-0.6
		c-0.5-2,0.2-5.5-2.4-5.1c-2.3,0.4-1,3.8-0.4,5.6c1.2,3.6-0.6,3.7-3.1,3.3c-2-0.3-3.9-0.8-5.9-1.3c-0.8-0.2-2-0.5-1.5-1.8
		c0.5-1.1,1.7-2.3-0.1-3c-1.4-0.5-2,1.1-2.8,2c-2,2.4-4.7,2.3-7.3,1.9c-3.6-0.4-6.9-0.2-10.2,1.8c-3.2,1.9-7.2,1.7-10.9,1.9
		c-6.4,0.3-12.6,1.3-18.6,3.8c-1.8,0.8-3.6,1.8-5.2,3c-2,1.6-5.4,4-3.7,6c1.8,2.1,3.3-1.9,5-3.1c6.4-4.8,13.9-5.9,21.5-6.5
		c5.6-0.4,10.8-1.5,16.2-3.2c4.9-1.5,10.7-1.8,16.1-0.1c1.6,0.5,3.3,1,4.9,1.3c3.3,0.7,5.2,6.6,3.2,9.3c-4.3,5.6-10.3,7.2-16.9,7.1
		c-6-0.1-12.1-0.3-18.1-1c-9.7-1.1-19.4-1.6-29.2-1c-6.2,0.3-8.9-2.1-10.2-7.8c-0.4-1.8,0.8-2.5,1.8-3.4c3.2-3.1,5.4-6.7,5.7-11.3
		c0.5-6.6,2.6-8,9.2-6.7c0.7,0.2,1.9,0.8,2.1,0.6c4.7-5.4,10.1-0.5,15-1C322.1,328.4,323.8,324.9,326.9,327.2z"/>
	<path class="st75" d="M293.1,324.3c0,2.7-2,3.3-3.5,4.3c-2.8,2-4.8,4.3-5.1,7.9c-0.1,1.2-0.3,2.3,1.1,2.6c1.1,0.2,1.6-0.9,1.8-1.7
		c0.5-1.8,0.6-3.7,2.5-4.5c1.7,6.9-3.2,8.5-8,10.4c-1.3,0.5-4.1,0.1-3.4,2.7c0.6,2.1,2.8,0.7,4.3,1.4c-6,3.2-11.6,0.4-16.9-0.6
		c-0.8-0.7-0.7-0.8-0.3-1.1c1.4-1.1,5.1-0.2,4.2-2.8c-0.9-2.4-4.2-1-5.7,0.1c-3.1,2.5-6.1,1.7-9.1,0.5c-5.7-2.2-11.9-3.3-16-8.6
		c-1.2-1.6-3.6-2.3-5.5-3.4c-0.9-0.5-2.4-0.5-2.4,0.3c0.4,5-2.6,1.5-3.4,1.2c-5.6-1.8-11.1-3.8-16.6-5.9c-6.3-2.4-6.9-3.7-4.6-9.8
		c1-2.7,1.6-5.6,0.7-8.2c-1.9-5.4-1.3-10.8-0.6-16.3c0.1-0.8-0.6-2,0.9-2.1c1.3-0.1,1.3,1,1.5,1.9c0.2,0.6,0.1,1.3,0.3,1.8
		c0.6,1.4,0.3,4.1,2.6,3.5c2.2-0.6,0.1-2.6,0.3-4c0.1-0.6-0.1-1.2-0.1-1.9c0.1-0.8-0.5-2.1,0.9-2.2c1.5-0.1,1.5,0.9,1.7,2.2
		c0.6,4.9,1.3,9.8,2,14.7c0.1,0.8,0.1,1.6,0.4,2.3c0.6,1.1,0.8,3.1,2.7,2.5c1.6-0.5,0.8-2.1,0.5-3.2c-0.8-3.7-1.9-7.4-0.8-11.4
		c1.9,4.1,4,8.2,5.7,12.4c2.9,7.1,7.5,13.1,11.2,19.8c0.4,0.8,1.1,1.9,2.1,1.5c1.3-0.5,0.9-1.9,0.5-2.8c-1-2.1-2.1-4.1-3.3-6.1
		c-3.3-5.1-6-10.4-8.5-15.9c-1.3-2.9,0.3-4.2,1.9-5.3c1.9-1.2,3.6,0,4.7,1.7c0.6,0.9,1.2,1.9,1.5,2.9c2.1,9.8,9.4,16.2,15.5,23.2
		c1.1,1.2,2.2,2.7,4.2,2.3c-1.4-2.9,4.8-2.3,2.6-5.9c-1.3-2.2,1.6-2.7,2.6-4.2c1,2.8,1.3,5.5,3.1,7.5c0.9,1.1,1.9,2.4,3.4,1.6
		c1.6-0.8,0.8-2.1,0-3.1c-0.8-1-0.3-1.7,0.5-2.2c0.5-0.3,1.1-0.6,1.6,0.1c1.1,1.7,1.7,4.5,4.4,3.9c2.3-0.5,2.6-3.3,4.3-4.7
		C282.6,326.1,287.8,326.4,293.1,324.3z"/>
	<path class="st76" d="M229,374.2c3.4,5.2,7.4,9.9,11.6,14.4c4,4.3,8.1,8.6,11.4,13.6c-4.9-4-9.8-8.1-14.8-12
		c-11.3-9-23-17.2-35.2-24.9c-3-1.9-2.3-3.7-1.5-6c0.5-1.4,1-1.4,2.3-0.9c3.6,1.5,7.4,2,11.2,2.8c3.8,0.8,5.2,5.1,8.7,6.6
		C220.7,371.9,222.9,374.1,229,374.2z"/>
	<path class="st74" d="M130.6,225c-0.9,3.5,0.1,6,1.8,8c1.9,2.2,0.9,3.1-1.1,3.9c-6.8,2.9-13.6,5.9-20.4,8.9
		c-1.4,0.6-2.2,0.2-3.2-0.8c-2.4-2.5-3.6-5.6-4.1-8.7c-0.5-2.9,2.1-4.1,4.7-4.6c3.8-0.7,7.6-1.3,11.4-2.1
		C123.4,228.9,126.6,227,130.6,225z"/>
	<path class="st75" d="M158.9,237.4c-6.7-2.1-13.5-3.1-20.6-3.1c-2.8,0-3.7-3.3-4.7-5.6c-1-2.2,1.1-3.6,2.4-5.1
		c1.4-1.7,2.9-1.7,4.8-0.8c6.6,3.1,13.7,4.8,20.9,6c2.4,0.4,3,1.1,1.4,3.2c-0.8,1.1-1.4,2.5-1.7,3.8
		C161.2,237.6,160.4,237.9,158.9,237.4z"/>
	<path class="st77" d="M272.1,396.8c2.3-0.6,4.5-1.2,6.7-1.8c0.9-0.2,2.1-0.6,2-1.6c-0.2-1.3-1.5-1.5-2.6-1.2
		c-3.4,0.7-6.8,1.5-10.2,2.2c-0.1-0.4-0.2-0.7-0.4-1.1c4.9-1.5,9.7-3.3,14.7-4.5c4.2-1,8.5-1.5,12.8-2.2c2.4-0.4,3.9,0.1,5.1,2.6
		c3.1,6.6,2.6,7.9-4.5,9.1c-4.4,0.7-8.9,1.1-13.3,2.1C278.1,401.4,274.8,400.4,272.1,396.8z"/>
	<path class="st75" d="M134.2,272c0.8,2.2-0.9,3-3.5,3.7c-5.4,1.3-10.7,2.8-15.2,6.4c-1.9,1.5-4.2,0.6-5.9-0.8
		c-1.9-1.6-2.8-4.1-3.1-6.4c-0.2-1,1.5-1.5,2.5-1.7c7.2-1.8,14.4-3.5,20.6-8c2-1.5,3.5-0.4,4,1.9C133.8,268.3,133.9,269.7,134.2,272
		z"/>
	<path class="st75" d="M140.6,244.7c6.4,1.3,13,1.9,19.7,2.3c2.5,0.1,3.2,1.3,1.8,3.7c-2.1,3.3-3.7,6-8.7,3.8
		c-4.8-2.2-10.4-1-15.6-1.6c-3.2-0.4-3.3-1.7-3.8-3.8c-0.6-2.7,1-3.6,3.2-4C138.4,244.9,139.4,244.8,140.6,244.7z"/>
	<path class="st77" d="M110.2,228.3c0.7-5.5,3.3-9.8,4.6-14.6c0.7-2.6-1-6,0.6-7.5c1.5-1.4,4.9,0.8,7.4-0.4c0.3-0.1,0.6,0,1.4,0
		c-1.3,6.4-3,12.5-3.1,18.9c0,1.5-1.2,1.5-2.3,1.7C116.1,227,113.4,227.6,110.2,228.3z"/>
	<path class="st76" d="M137,269.6c-0.8-3.3,0.7-3.5,3.2-2.9c3.6,0.9,7.2,1.9,11,1.4c3.1-0.4,5.4,0.7,6.9,3.4c0.7,1.2,2.4,2.2,1.1,4
		c-1.2,1.7-2.8,2.5-4.8,1.9c-5-1.6-9.9-3.2-15.3-3.1C136.4,274.4,137.6,271.1,137,269.6z"/>
	<path class="st78" d="M294.6,379.9c-7.3-2.2-14.2-1.2-21.1-0.5c-1.8,0.2-3.7,0.2-5.5,0.5c-3.9,0.7-4.3-1.4-4-4.5
		c0.2-2.4,0.6-3,3.3-2.1c4.1,1.4,8.6,0.6,12.9,0.5c3.3-0.1,6.5,0.1,9.7,0.6C292.7,374.9,294.7,376.2,294.6,379.9z"/>
	<path class="st79" d="M388.2,396c-0.1,2.7-0.8,4.8-3.8,5.6c-2.7,0.8-4.9,0.5-6.2-2.2c-0.1-0.1-0.2-0.3-0.3-0.4
		c-6.4-8.6-6.4-8.6,3.8-11C384.1,387.5,388.1,392.4,388.2,396z"/>
	<path class="st80" d="M233.9,376.4c6.3,0.8,10.4,2.7,13.2,7.2c1.8,3,4.6,5.2,7.8,6.2c4.7,1.4,5.1,4.2,3.4,8.2
		C247,394.8,242.3,384.4,233.9,376.4z"/>
	<path class="st76" d="M297,371.9c-0.5,0.5-0.8,1-0.9,0.9c-8.1-3.4-16.7-1.9-25-2.1c-1.7-0.1-4.9,0.5-4.1-2.3
		c0.7-2.2-1.6-7.6,4.8-6.1C280.6,364.3,288.6,368.5,297,371.9z"/>
	<path class="st75" d="M141.9,317.1c-1.2-2.6-3.9-3.1-6.4-3.8c1.4-3.1-2.7-5.7-0.9-8.8c1-1.7,0-5.1,2.5-5.3c3-0.3,4.7,2,5.5,5
		c0.4,1.6,1.5,3,2.3,4.5c0.6,1,2.8,1.6,2.1,2.7c-1,1.8-2.5,3.3-3.4,5.2C143.4,316.9,142.7,316.9,141.9,317.1z"/>
	<path class="st79" d="M369.5,378.3c0-0.3-0.1-2.4,0.4-2.6c3.1-1.1,7.1-2.5,9.6-1.9c3.2,0.7,3.4,6.1,3,9c-0.6,4.4-5.7,3-8.7,3.3
		C369.4,386.6,369.5,382.5,369.5,378.3z"/>
	<path class="st76" d="M286.3,403.2c4.9-1.3,12.4,1.9,14.9,6.2c0.6,1,0.5,1.7-0.2,2.4c-0.5,0.6-0.9,1.3-1.5,1.7
		c-1.9,1.3-2.9,4.6-5.8,3.7c-2.6-0.8-3.4-3.4-3.9-6.1C289.1,408.4,287.5,405.9,286.3,403.2z"/>
	<path class="st81" d="M181.2,348c4.9,3.3,9.2,8.4,16.9,5.3c-1.5,3.9-3.2,6.7-6.5,7.9c-2.3,0.8-11.2-2.9-12.2-4.6
		C178.1,354.3,178.5,352.3,181.2,348z"/>
	<path class="st82" d="M196.6,361.8c-3.6,11.4-0.8,12.1-13.5,7.8c-3.3-1.1-7-2.2-6.2-7.1c0.3-1.9,0.6-2.7,2.9-1.5
		c2.6,1.3,5.5,2,8.3,2.8C190.8,364.6,193.4,364.7,196.6,361.8z"/>
	<path class="st83" d="M128.7,278.9c0.8,1.2,0.8,3,2.7,3.3c6.1,1,7.5,5.6,8.1,10.8c0.1,1.2,0.3,2.4,0.4,3.6
		c-2.8-0.1-4.4-1.4-5.9-3.7c-1.5-2.4-3.8-4.4-5.9-6.4c-2.9-2.8-6-4.7-9.9-0.8C120.2,280.8,125.4,281.3,128.7,278.9L128.7,278.9z"/>
	<path class="st0" d="M200.7,344.6c-1,3.6-2.7,6.1-6.4,6.6c-2.9,0.4-10.2-3.8-11.6-6.6c-1.2-2.6,0.1-4.4,1.9-6
		C189.3,342.2,194.1,345.5,200.7,344.6z"/>
	<path class="st80" d="M164,244.2c-6.4-0.7-12.5-1.3-18.6-2c-3.2-0.4-6.4-1.3-9.6,0.1c-2.3,1-3.6-1-5.7-1.5
		C140.8,236.1,158.2,237.8,164,244.2z"/>
	<path class="st84" d="M128.8,279c2.9-0.5,5.8-0.8,8.7-1.4c4.5-0.8,7.6,0.4,9,5.2c1.5,5,0.6,8.1-3.8,11c-0.9-3.7-0.7-7.8-3.3-10.8
		C136.6,279.8,132.6,279.6,128.8,279C128.7,278.9,128.8,279,128.8,279z"/>
	<path class="st79" d="M238.4,355.9c-12.5,1.7-25.1,4.4-37.1-1.9C213.7,353.7,226.1,353.6,238.4,355.9z"/>
	<path class="st0" d="M132.1,301.4c-1.5-1.4-2.6-2.5-4-2.2c-4.3,0.9-6.5-2.5-8.3-4.9c-1.6-2.1,1.2-4.7,2.4-6.7
		c1.1-2,2.8,0.2,3.6,1.1C128.9,292.1,134.1,294.6,132.1,301.4z"/>
	<path class="st78" d="M257.8,387.7c-3.9-1.4-7-3.8-9.3-7.4c-2.6-4.2-6.8-5.8-11.3-6.6c-2.5-0.4-4.1-1.7-5.7-3.7
		c2.9-2.4,5.1-2.2,8,0.1c5.8,4.5,12.1,8.4,18.2,12.6C257.9,384.4,260.2,386.1,257.8,387.7z"/>
	<path class="st0" d="M373.2,371.6c-5,0.8-5.3-2.1-5.3-5.1c0-4,3-6.3,9.1-5.4c3.1,0.5,2.5,4.7,2.5,7
		C379.4,372.7,374.9,370.9,373.2,371.6z"/>
	<path class="st85" d="M143.7,169.6c-3.4,3.8-7,7.4-8.7,12.4c-0.5,1.6-2.3,2-4,1.6c-2.5-0.7-2.6-3.2-3.5-5.1c-0.7-1.4-0.1-2.4,1.2-3
		C133.5,173.1,138.3,170.7,143.7,169.6z"/>
	<path class="st1" d="M170.2,310.1c6.9-2.8,13.3-3.7,19.1-6.3c1.3-0.6,2.3,0.6,2.3,2.1c0,1.7,0.9,3.3-1.8,4.4
		C183.5,312.8,177.5,312.6,170.2,310.1z"/>
	<path class="st0" d="M242.9,358.5c3.3,1.3,5.2,4,7.6,6c3.9,3.3-2.1,5.3-0.4,9.1c-2.3-1.6-3.7-2.5-5.1-3.4c-3.3-2.3-8.3-4-2.9-9
		C242.8,360.7,242.7,359.6,242.9,358.5z"/>
	<path class="st86" d="M380.8,358c6.7,2.8,13.3,4.8,18.7,10.3c-5.3-0.3-10.1-0.7-14.8-0.8c-1.6,0-2.1-0.6-2.4-2
		C381.9,363,381.4,360.7,380.8,358z"/>
	<path class="st83" d="M205.5,331.7c-0.6,1.5-0.5,4.5-4.1,3c-2.8-1.2-5.7-2.4-8.5-3.7c-1.4-0.7-2.6-1.7-2.9-3.4
		c-0.3-1.7,0.5-3.1,1.7-4.1c1.5-1.3,2.2,0.5,3,1.1c2.8,2.3,5.7,4.3,9.3,4.9C204.9,329.6,205.9,329.6,205.5,331.7z"/>
	<path class="st84" d="M186.8,324.5c-1.1,7-3.1,8.7-9.3,8.7c-3.5,0-7.1,0-11.3,0C172.9,329.1,179.5,326.6,186.8,324.5z"/>
	<path class="st84" d="M386.3,382.4c6.4,2.4,11.9,5.8,18.6,7.3C391.6,395.2,389.4,394.2,386.3,382.4z"/>
	<path class="st87" d="M132.5,311c-0.4,2.5-0.9,4.5-3.7,2.7c-2.1-1.4-4.4-2.2-6.9-2.3c-1.6-0.1-2.2-1-2.5-2.2
		c-0.5-1.7,1.1-1.4,2-1.8c0.5-0.2,1.1-0.6,1.5-1.1c1.6-1.7,3.4-5.2,5.6-3.5C130.6,304.6,131.2,308.4,132.5,311z"/>
	<path class="st78" d="M297.3,401.7c8.9-3.7,9.2-4.4,6-13.9c4.6,1.5,8.3,11,5.6,14.5C306.9,404.9,300.6,404.6,297.3,401.7z"/>
	<path class="st83" d="M220.2,361.5c6.7-0.8,12.9-1.5,19.4-2.2C234.9,368,228,368.7,220.2,361.5z"/>
	<path class="st88" d="M197.9,341.6c-4.1-0.2-7.4-2.2-10.3-4.8c-1.2-1.1-2-2.9-0.6-4.6c1.7-2,2.2,0.6,3.2,1c3.3,1.3,6.5,2.8,9.7,4.4
		c1,0.5,3.4-0.2,2.8,2c-0.4,1.4-2,1.8-3.5,1.9C198.8,341.6,198.4,341.6,197.9,341.6z"/>
	<path class="st81" d="M202.3,318.3c-1.8-2.1-3.2-3.8-4.7-5.6c-1.6-1.9-3.5-4.5-2.6-6.5c0.9-2.1,4.4-0.9,6.6-1.8
		c1.4-0.5,1.5,0.7,1.7,1.5C204.3,309.8,204.8,313.6,202.3,318.3z"/>
	<path class="st84" d="M374.8,348.8c-0.8,3.3,5.5,6.7-0.2,9.5c-2.6,1.3-6,1.4-7.2-1.8C365,349.8,372.2,351.3,374.8,348.8z"/>
	<path class="st84" d="M211.2,375.2c-6.1,0-10.8,0-16,0c1.1-2.7,2-5,2.9-7.4c0.2-0.6,0.6-1.3,1.2-0.8
		C203,369.4,206.6,372,211.2,375.2z"/>
	<path class="st84" d="M262.9,394.7c3.1,2.2,5.8,4.4,8.7,6.1c2.6,1.6,1.4,3.3,0.6,5c-1.3,2.5-2.7,0.3-3.7-0.2
		C261.6,401.5,261.1,400.3,262.9,394.7z"/>
	<path class="st89" d="M265.1,412.1c1.2-3,2.7-3.7,5.4-2.3c6.2,3.3,12.6,6.2,19.2,8.6C281.2,417.6,273.3,414.9,265.1,412.1z"/>
	<path class="st90" d="M170.9,319.8c6.9-1.2,12.5-2.8,17.8-5.4c2,5.1,1.9,5-3,6.2C181.1,321.7,176.6,321.7,170.9,319.8z"/>
	<path class="st1" d="M383.8,370.7c5.1,1.7,9.3,4.6,13.8,7.9C383.2,379.5,385.3,381.1,383.8,370.7z"/>
	<path class="st91" d="M260.3,378c-7.8-2.1-9-4.1-5.9-8.7c1.3-1.9,2.5-1.9,4.1-0.8c1.4,0.9,3.8,0.8,2.8,3.7
		C260.7,374,260.7,375.9,260.3,378z"/>
	<path class="st92" d="M264.4,407.3c-1,1.2-1.8,3.7-3.8,3c-2.4-0.8-6.1-0.7-6.8-3.5c-0.4-1.6,1.3-4.4,3.6-5.3
		C258.5,401.1,264.4,405.9,264.4,407.3z"/>
	<path class="st86" d="M167.6,231.4c2.4,5,4.5,9.6,5,14.8C162.3,240.3,163.1,237.4,167.6,231.4z"/>
	<path class="st93" d="M377.4,345.9c5.4,1.5,10,4.2,14.9,7.7c-4.4,0.9-8.2-0.2-11.8-0.7C377.3,352.5,379.1,348.2,377.4,345.9z"/>
	<path class="st1" d="M367.4,348.3c-2.7,0.2-4.6-0.6-4.2-2.6c0.7-2.9,3.4-4.4,6.2-4.7c2.2-0.3,3.8,2,3.6,3.5
		C372.6,347.9,368.9,347.2,367.4,348.3z"/>
	<path class="st91" d="M149.9,301.6c-0.1,2.2,0.1,5.2-1.5,5.6c-2.2,0.5-2.3-2.6-3.3-4.2c-1.5-2.4-0.8-4.7,0.4-6.9
		c0.3-0.5,0.8-1.1,1.4-0.6C149,297.1,149.9,299.3,149.9,301.6z"/>
	<path class="st94" d="M193,312.5c3.5,5.1,9.2,6.9,9.3,13C196.1,323.2,192.8,319.1,193,312.5z"/>
	<path class="st95" d="M263.5,384.5c3.5,1,7,2,10.5,3c-4.6,0.2-8.3,6.3-13.4,1.8C261.4,387.6,259.5,384.3,263.5,384.5z"/>
	<path class="st96" d="M311,388c-3.6-2.3-7.2-4.4-11.2-5.8c-3.8-1.3-1.1-4.4-2-6.5C302.5,379.5,307.5,383,311,388z"/>
	<path class="st97" d="M293.7,383.2c-8,2-15,2.1-23.1-0.1C278.7,382.1,285.7,380.6,293.7,383.2z"/>
	<path class="st98" d="M166.6,264.7c-6.5-6.5-6.5-6.5-1.4-11.9C166,256.7,168.5,260.1,166.6,264.7z"/>
	<path class="st99" d="M278.7,304.2c2.3,1.7,3.1,4,5.2,5.1c1.2,0.6,0.8,2,0.1,2.8c-0.9,1.2-2,2.4-3.7,2.5c-1.2,0-1-1.3-1.3-2.1
		C278.3,310.1,277.8,307.6,278.7,304.2z"/>
	<path class="st33" d="M229,374.2c-1.4-0.1-1.7,3.1-3.9,1.2c-2.1-1.8-5.1-2.9-5.9-5.6c-0.8-2.9,3.5,0.7,3.4-2.1
		C225.1,369.6,227.3,371.7,229,374.2z"/>
	<path class="st100" d="M276,313.6c-7.3,1.3-6.7-0.7-6.9-4.8c-0.1-1,0.5-1.8,1.3-2.2c1-0.4,1.8,0.3,2.3,1.1
		C273.8,309.7,275.6,311.3,276,313.6z"/>
	<path class="st100" d="M304.3,312.1c-0.3-2.8,1.3-4.5,3.4-4.9c1.7-0.3,2.5,2.2,1.9,3.4c-0.8,1.6,0.7,4.7-2.3,4.7
		C305.9,315.3,303.3,315,304.3,312.1z"/>
	<path class="st101" d="M235.8,299.8c7.9,2.2,7.9,2.2,6.9,9.3C237.7,308.3,238.8,303.1,235.8,299.8z"/>
	<path class="st102" d="M316.2,307.1c0.8,2.5,4.2,4.8,0.6,7.4c-0.9,0.7-4.4,0.5-4.4-0.5C312.2,311.3,312.3,308,316.2,307.1z"/>
	<path class="st103" d="M114.9,267.9c-2.8,1-5.6,2.5-8.4,2.8c-3.2,0.4-1.3-3.6-3.3-4.9C107,267.5,111.1,266,114.9,267.9z"/>
	<path class="st104" d="M255.6,363.7c1.3-2.3,3.1-2.8,5.2-2.3c1.4,0.4,3.2,0,3.6,2.2c0.2,1.1,0.4,2.4-0.5,3c-1.4,1-2.6-0.4-3.8-0.8
		C258.7,365.2,257.3,364.5,255.6,363.7z"/>
	<path class="st94" d="M241.3,312.5c2.9,0.5,4.6,0.7,6.2,1c1.3,0.2,3.3,0,3.5,1.5c0.3,1.8-1.8,2.7-3.1,3.7c-1.5,1.1-1.9-0.9-2.7-1.6
		C244,316.1,243.1,314.7,241.3,312.5z"/>
	<path class="st2" d="M316.6,320.3c-0.9,1.3-0.1,4.3-2.6,4.3c-1.1,0-3.5-1.1-3.4-3.5c0.1-2.4,1.4-3.6,3.7-3.6
		C315.7,317.6,317.1,318.1,316.6,320.3z"/>
	<path class="st97" d="M244.8,355.2c4.3,0.3,7.7,1.4,11.1,3.1C252.5,362,252.5,362,244.8,355.2z"/>
	<path class="st98" d="M282.2,322.3c-1.4-0.1-2.2-2.2-1.8-3.2c0.7-2.2,3.5-2.3,5.4-3.2c0.9-0.4,1.2,1.2,0.9,2
		C285.9,319.7,285.9,322.4,282.2,322.3z"/>
	<path class="st105" d="M341.8,418c4.3-3.5,9.4-1.8,14.5,5.1C351.2,420.3,347.2,417.1,341.8,418z"/>
	<path class="st97" d="M287.9,305.8c2.2,1.6,5.5,2.3,4.9,5.5c-0.2,0.8-3.2,2-4,1.6C286.1,311.1,288.6,308.2,287.9,305.8z"/>
	<path class="st106" d="M303.2,322.2c0.9-1.2-1.1-3.8,1.7-4.2c0.9-0.1,3.5-0.1,2.8,2.5c-0.6,2.2-0.9,5.1-3.5,5.3
		C302.4,326,303.5,323.6,303.2,322.2z"/>
	<path class="st100" d="M294.1,314.7c1.2,4.7-1.3,6.5-5.6,7.8C289.7,319.1,288.9,315.1,294.1,314.7z"/>
	<path class="st107" d="M323.1,320c-0.1,2.6-0.9,4.5-3.4,5c-1,0.2-1.8-1.1-1.2-1.8c1.5-1.7-0.3-5.4,3.2-5.6
		C323,317.6,324,318.7,323.1,320z"/>
	<path class="st108" d="M286.6,413.7c-3.3-2.2-4.2-5.6-6.1-8.3c-0.5-0.8-0.5-1.5,0.5-1.8c0.7-0.2,1.7-0.5,2,0.5
		C284.1,407.2,286.8,409.6,286.6,413.7z"/>
	<path class="st109" d="M263.5,384.5c-0.6,0.3-2.2,0-1.6,0.7c1.9,2.3-0.1,3-1.3,4.1c-1-0.4-2.2-0.5-2.7-1.6c0.7-1.6-1.5-3.3,0.1-5
		C260,382.7,261.8,383.2,263.5,384.5z"/>
	<path class="st99" d="M300.5,321.5c0,2.3,0.1,4.4-2.3,4.7c-1.6,0.2-2.1-1.4-1.6-2.5c0.7-1.5-1.2-4.4,2.1-4.5
		C301,319,300.7,320.6,300.5,321.5z"/>
	<path class="st110" d="M183.4,301.7c-4.4,0.1-8.1-0.2-12-2.1C175.8,297.7,179.5,297.9,183.4,301.7z"/>
	<path class="st104" d="M325.2,323.2c0.8-3,0.8-6.1,4.5-6.4c1-0.1,1.9,0.6,1.7,1.6C330.8,321.4,328.8,322.9,325.2,323.2z"/>
	<path class="st111" d="M297.8,312.2c0.7-1.3-1-3.7,1.5-4c1.3-0.1,2.8,1.3,2.3,3.2c-0.4,1.6,0.2,4.2-2.3,4.3
		C296.6,315.8,298.4,313.5,297.8,312.2z"/>
	<path class="st112" d="M273.8,317.3c1,0.5,3-0.7,2.7,1.4c-0.3,2.3-1.8,5-3.8,5c-2,0-0.8-3-1.3-4.6
		C270.6,316.4,272.8,317.7,273.8,317.3z"/>
	<path class="st113" d="M266.4,312.9c-2.5-0.4-5.1,0.7-5.7-2.7c-0.2-1.3,0.1-3,1.4-2.9C265.1,307.4,265,310.5,266.4,312.9z"/>
	<path class="st111" d="M325.7,310.9c-1.2,0.9,0.3,3.7-2.3,3.8c-1.6,0.1-2.4-0.9-2.3-2.7c0.1-2.3,1.8-2.8,3.3-3.3
		C325.2,308.5,325.8,309.7,325.7,310.9z"/>
	<path class="st114" d="M258.7,313.5c-3.1-1.2-5.7-0.8-5.4-4c0.1-1.3,0.6-3,1.7-2.8C258.1,307.2,256.8,310.4,258.7,313.5z"/>
	<path class="st115" d="M264.2,322.6c-0.4-2.7-0.7-4.4-1-6.8c2,0.4,4.1-0.1,4.8,2C268.9,320.6,266.1,320.9,264.2,322.6z"/>
	<path class="st116" d="M307.2,266.8c0.3,4.6,0.5,8-0.5,12.4C303.4,274.5,305.1,271.2,307.2,266.8z"/>
	<path class="st117" d="M228.4,296.9c-1.7,0.8-3,1.4-4.3,2c-0.9-1.4-2.3-3.7-3.9-6.5C223.5,293.1,225.3,295.3,228.4,296.9z"/>
	<path class="st118" d="M311.6,392c3.5,3.3,1.8,7.3,1.9,11c-0.4,0-0.8,0.1-1.2,0.1C312.2,399.4,311.9,395.7,311.6,392z"/>
	<path class="st119" d="M162.7,283.6c-1.4-1.6-3.9-1.7-3.3-3.8c0.2-0.8,1.7-2.9,3-2.1C164.3,278.8,163.4,280.9,162.7,283.6z"/>
	<path class="st120" d="M363.9,431.4c4.2,3.2,0.6,5.8-0.5,9.7C362.9,437.1,364.5,434.4,363.9,431.4z"/>
	<path class="st121" d="M100.7,240c1.5,2.4,2.8,4.8,4.2,7.3C102.3,245.5,99.6,243.9,100.7,240z"/>
	<path class="st122" d="M338.2,312.4c0.1,1.7-0.7,2.2-2.2,2.2c-1,0-2.4,0.3-2.6-1.1c-0.2-2.2,1.9-1.3,3-1.9
		C337.3,311.2,338.1,311.1,338.2,312.4z"/>
	<path class="st123" d="M276.2,404.9c1.5,1.5,2.5,3.3,3.3,5.4C274.1,408.5,274.1,408.5,276.2,404.9z"/>
	<path class="st75" d="M259.9,316.5c-1.7,1.5-3.1,2.7-4.8,4.2c-0.2-1.9-0.4-3.3-0.6-4.9C256.3,316,257.9,316.2,259.9,316.5z"/>
	<path class="st124" d="M310.4,274.4c1.2,3,0.4,5.8-1.5,8.3C309.4,279.9,309.9,277.1,310.4,274.4z"/>
	<path class="st125" d="M332.8,291.4c2.9-0.7,4.5-1.6,5.9-0.2c0.3,0.3,0,1.9-0.3,2C336.7,293.7,335.4,292.5,332.8,291.4z"/>
	<path class="st126" d="M253.1,325.7c-1.6-1.1-3.5-2.1-3.3-4.3c0.1-0.8,1.6-2.4,2.2-0.1C252.4,322.7,252.6,324.1,253.1,325.7z"/>
	<path class="st127" d="M263.4,358.6c2.3-1.7,3.6-0.5,5.8,0.4C266.8,359.6,265.3,359.8,263.4,358.6z"/>
	<path class="st79" d="M284,465.8c4.3,1.1,8.3,1.3,12.2,0.3c5.6-1.3,6.5,3.4,8.5,6.5c2,3.1,1.9,6.4-1.2,9.1c-1.7,1.4-2.9,1.9-4-0.9
		c-1.8-4.7-5.4-7.6-10.3-8.3C285.2,472.1,283.8,470,284,465.8z"/>
	<path class="st128" d="M282.2,460.2c7.8-1.5,14.2-4.7,17.2-12.5c0.6-1.5,1.7-1.2,2.6-0.6c1.4,0.9,3.9,0.7,4.1,3.1
		c0.4,4-3.5,9.8-7.8,11.7C292.3,464.7,286.1,464.1,282.2,460.2z"/>
	<path class="st31" d="M352.3,349.4c-4.4,3.9-9.1,3.9-13.6,4.2c-7.7,0.6-15.4-1-23.1,0.1c-1.1,0.2-2.4-0.4-3.6-0.7
		c-0.9-0.2-1.9-0.6-1.5-1.8c0.3-0.9,1.1-0.9,1.9-0.9c8.9,0,17.8-0.2,26.8,0C343.4,350.4,347.3,348.1,352.3,349.4z"/>
	<path class="st51" d="M306.7,334.5c-0.1,0.5-0.2,1-0.3,1.4c-0.9,2.1-1.7,4.4-4,5.4c-0.2,0.1-1.3-0.8-1.2-1c0.8-2.8,1.8-5.7,4-7.5
		C306.4,331.7,306.5,333.5,306.7,334.5z"/>
	<path class="st73" d="M335.7,332.8c-1.3,2-3.3,3.2-5.9,3.4c-1,0.1-2.3-0.7-1.9-1.3c1.4-2.3,4-2.9,6.5-3.6
		C335.1,331,335.8,331.6,335.7,332.8z"/>
	<path class="st129" d="M356.6,346.8c1.3,0.3,2.3,1,2.6,2.2c0.2,1-0.6,1.3-1.4,1.3c-1.2-0.1-1.9-0.8-2.2-1.9
		C355.4,347.6,355.6,346.9,356.6,346.8z"/>
	<path class="st130" d="M348.9,301.2c1,0,1.6,0.6,1.7,1.4c0.1,0.9,0.1,2.1-1.2,2.1c-0.8,0-1.3-0.8-1.3-1.7
		C348.1,302.2,348,301.4,348.9,301.2z"/>
	<path class="st55" d="M211.8,303.5c3.2,2,3.8,4.9,4.8,7.6c0.3,0.8,0.3,1.5-0.5,2c-1,0.5-1.9,0-2.3-0.9
		C212.5,309.7,210.8,307.2,211.8,303.5z"/>
	<path class="st33" d="M247.5,330.1c2.1,1.5,3.6,3.5,4.2,6.1c0.2,0.8-0.7,0.9-1.2,0.9c-1.5,0-4.9-4.1-4.7-5.7
		C245.9,330.6,246.5,330.1,247.5,330.1z"/>
	<path class="st61" d="M220.1,326.3c2.7-1,4.6-0.1,5.9,2.1c0.3,0.6-0.1,1.4-0.8,1.4C222.7,330,220.8,329,220.1,326.3z"/>
	<path class="st131" d="M216.3,324c-0.1,0.8-0.3,1.7-1.2,1.6c-0.9-0.1-1.7-0.5-1.9-1.6c-0.2-1.1,0.3-1.8,1.4-1.7
		C215.5,322.4,216,323.2,216.3,324z"/>
	<path class="st71" d="M281.1,341.8c-1,0-1.6-0.7-1.6-1.5c0-1.2,0.9-2,2.1-2c0.8,0,1.4,0.7,1.2,1.7C282.7,341,282,341.6,281.1,341.8
		z"/>
	<path class="st63" d="M298.9,393.9c-0.5,1.3-1.3,1.9-2.5,1.9c-0.8,0-1.5-0.6-1.3-1.5c0.3-1.4,1.3-2.1,2.7-2
		C298.9,392.4,298.8,393.3,298.9,393.9z"/>
	<path class="st132" d="M291.4,397.3c-0.9-0.2-1.9-0.3-1.8-1.6c0.1-0.9,0.8-1.2,1.6-1.4c1-0.1,1.9,0.3,2,1.3
		C293.3,396.7,292.3,397,291.4,397.3z"/>
</g>
</svg>
