<?xml version="1.0" encoding="utf-8"?>
<!-- Generator: Adobe Illustrator 25.4.1, SVG Export Plug-In . SVG Version: 6.00 Build 0)  -->
<svg version="1.1" id="Capa_1" xmlns="http://www.w3.org/2000/svg" xmlns:xlink="http://www.w3.org/1999/xlink" x="0px" y="0px"
	 viewBox="0 0 595.3 841.9" style="enable-background:new 0 0 595.3 841.9;" xml:space="preserve">
<style type="text/css">
	.st0{fill:#080808;}
	.st1{fill:#FFFFFF;}
	.st2{fill:#B1B0B0;}
	.st3{fill:#AEADAD;}
	.st4{fill:#7D7C7C;}
	.st5{fill:#8B8B8A;}
	.st6{fill:#020303;}
	.st7{fill:#020203;}
	.st8{fill:#030304;}
	.st9{fill:#040405;}
	.st10{fill:#070808;}
	.st11{fill:#050607;}
	.st12{fill:#0A0B0B;}
	.st13{fill:#121313;}
	.st14{fill:#181919;}
	.st15{fill:#161616;}
	.st16{fill:#161717;}
	.st17{fill:#141515;}
	.st18{fill:#1D1D1E;}
	.st19{fill:#232323;}
	.st20{fill:#1B1C1C;}
	.st21{fill:#19191A;}
	.st22{fill:#212122;}
	.st23{fill:#171718;}
	.st24{fill:#202020;}
	.st25{fill:#151616;}
	.st26{fill:#1B1B1B;}
	.st27{fill:#1C1C1D;}
	.st28{fill:#141414;}
	.st29{fill:#1E1F1F;}
	.st30{fill:#2A2B2B;}
	.st31{fill:#1C1C1C;}
	.st32{fill:#1D1D1D;}
	.st33{fill:#262727;}
	.st34{fill:#272727;}
	.st35{fill:#202121;}
	.st36{fill:#222222;}
	.st37{fill:#2A2A2B;}
	.st38{fill:#242525;}
	.st39{fill:#111112;}
	.st40{fill:#1E1E1E;}
	.st41{fill:#222323;}
	.st42{fill:#2C2D2D;}
	.st43{fill:#D6D6D6;}
	.st44{fill:#252626;}
	.st45{fill:#1D1E1E;}
	.st46{fill:#252525;}
	.st47{fill:#2A2A2A;}
	.st48{fill:#1F1F20;}
	.st49{fill:#303030;}
	.st50{fill:#585858;}
	.st51{fill:#2B2B2B;}
	.st52{fill:#373737;}
	.st53{fill:#2D2D2D;}
	.st54{fill:#2C2C2C;}
	.st55{fill:#292929;}
	.st56{fill:#2C2C2D;}
	.st57{fill:#262626;}
	.st58{fill:#3C3C3C;}
	.st59{fill:#444544;}
	.st60{fill:#494949;}
	.st61{fill:#252526;}
	.st62{fill:#CECDCD;}
	.st63{fill:#464746;}
	.st64{fill:#AFAFAF;}
	.st65{fill:#444545;}
	.st66{fill:#4A4A4A;}
	.st67{fill:#525252;}
	.st68{fill:#3A3A3A;}
	.st69{fill:#2F2F2F;}
	.st70{fill:#FDFDFD;}
	.st71{fill:#FBFBFB;}
	.st72{fill:#F8F8F8;}
	.st73{fill:#FAFAFA;}
	.st74{fill:#F3F3F3;}
	.st75{fill:#F9F9F9;}
	.st76{fill:#F6F5F6;}
	.st77{fill:#F8F7F8;}
	.st78{fill:#F7F6F7;}
	.st79{fill:#F5F5F5;}
	.st80{fill:#F7F7F7;}
	.st81{fill:#F4F4F4;}
	.st82{fill:#F6F5F5;}
	.st83{fill:#F6F6F6;}
	.st84{fill:#F3F2F3;}
	.st85{fill:#F4F3F4;}
	.st86{fill:#F1F0F1;}
	.st87{fill:#ECEBEB;}
	.st88{fill:#EFEEEF;}
	.st89{fill:#F2F2F2;}
	.st90{fill:#F0F0F0;}
	.st91{fill:#F1F0F0;}
	.st92{fill:#E6E5E6;}
	.st93{fill:#F2F1F2;}
	.st94{fill:#EAE9EA;}
	.st95{fill:#ECEBEC;}
	.st96{fill:#EDECED;}
	.st97{fill:#EBEAEB;}
	.st98{fill:#ECECEC;}
	.st99{fill:#EAEAEA;}
	.st100{fill:#E8E7E8;}
	.st101{fill:#E0DFDF;}
	.st102{fill:#EDECEC;}
	.st103{fill:#F0EFF0;}
	.st104{fill:#E6E5E5;}
	.st105{fill:#EBEAEA;}
	.st106{fill:#E7E6E6;}
	.st107{fill:#E1E0E1;}
	.st108{fill:#505050;}
	.st109{fill:#CBCACA;}
	.st110{fill:#E9E8E9;}
	.st111{fill:#F1F1F1;}
	.st112{fill:#E3E3E3;}
	.st113{fill:#E8E8E8;}
	.st114{fill:#E1E0E0;}
	.st115{fill:#DDDCDC;}
	.st116{fill:#E2E1E1;}
	.st117{fill:#B0AFAF;}
	.st118{fill:#D5D4D4;}
	.st119{fill:#DBDADA;}
	.st120{fill:#C5C3C3;}
	.st121{fill:#D6D5D5;}
	.st122{fill:#E7E6E7;}
	.st123{fill:#BCBCBB;}
	.st124{fill:#BEBCBC;}
	.st125{fill:#D4D3D3;}
	.st126{fill:#4F4F4F;}
	.st127{fill:#F7F7F8;}
	.st128{fill:#414141;}
	.st129{fill:#646464;}
	.st130{fill:#3E3E3E;}
	.st131{fill:#515151;}
</style>
<path class="st0" d="M536.8,227.7c0.3,8.3,2.1,15.1,10.9,18.6c8.2,3.3,15.9,7.7,23.7,11.8c1.7,0.9,5.3,1,4.1,3.9
	c-0.9,2.3-3.5,0.4-5.3-0.1c-10.1-2.6-20.3-4-30.7-4.9c-4.1-0.3-6.4,1.3-8.1,4.7c-2.2,4.4-4.3,8.9-6.7,13.2c-1.7,3.1-1.4,4.2,2.5,4.2
	c16.6,0.2,33.2-1.3,49.7-2.2c2.3-0.1,5.9-1.7,6.4,1.4c0.5,2.8-3.4,2.2-5.4,2.8c-15.3,4.4-31.2,6.5-46.5,11.1
	c-7.4,2.2-13.7,5.4-18.3,11.8c-3.6,5.1-7.3,10-11.2,14.8c-1.8,2.2-1.6,3.1,1,4.3c12.6,5.9,25.6,11,39,14.7c1.8,0.5,3.6,1,5.3,1.6
	c1.4,0.5,3.7,0.5,3.2,2.5c-0.5,2.4-2.7,2-4.6,1.5c-5.3-1.1-10.6-2.3-15.9-3.3c-11.9-2.2-23.8-4-36-4.2c-3.9-0.1-7.2,1-10.1,3.8
	c-3.7,3.8-8.1,6.7-12.9,9c-3.3,1.5-4.1,2.9-1.2,5.9c3.9,3.9,8.1,7.2,12.8,10c1,0.6,2.6,1.1,1.8,2.7c-0.8,1.7-2.2,0.5-3.2,0.2
	c-6.5-2.1-13.1-3.9-19.3-6.6c-4.1-1.7-6.9-0.7-9.2,2.5c-5.4,7.4-10.7,14.8-15.9,22.3c-1.6,2.2-3.2,4.4-4.5,6.9
	c-1.6,3.3-0.9,5.8,0.7,8.6c6.5,11.7,15.1,22,23,32.7c1.3,1.7,2.6,3.5,3.8,5.3c0.8,1.1,1.9,2.5,0.7,3.7c-1.4,1.5-2.5-0.3-3.4-1
	c-1.7-1.3-3.2-2.9-4.8-4.3c-9.9-8.8-21.1-15.7-32-23.1c-2.8-1.9-5.8-2-8.7-0.3c-10.4,6.1-20.2,13.3-29.7,20.7
	c-5.2,4.1-6.6,11.1-9.4,16.9c-0.8,1.6,1.2,2.3,2.1,3.2c9.8,10,21.1,18.3,31.1,28c1.8,1.8,6,3.4,4.2,6.2c-2,3.1-5-0.4-7.1-1.5
	c-12.8-6.6-26.7-10.8-39.7-16.9c-4.2-2-5.1,2.2-8.2,3.7c5.9,3.1,11.8,4,17.6,5.6c2.3,0.6,5.9,0.3,5.6,3.5c-0.3,2.4-3.7,1.4-5.7,1.6
	c-6.3,0.6-12.7,0.9-19,1.3c-8.6,0.5-14.3,4.8-17.7,12.8c-4.4,10.4-7.8,21.2-13.1,31.2c-0.4,0.7-0.6,1.4-1.1,2.1
	c-0.9,1.3-1.3,3.7-3.5,3c-2-0.6-1-2.7-0.9-4.1c0.5-6.6-0.5-13.3,1.9-19.9c-1.8,0.1-2,1.6-2.5,2.5c-6,10.9-14.7,19.9-20.8,30.7
	c-1.5,2.6-2.5,1.2-3.5-0.6c-6.4-11.3-15.7-20.6-22.1-32.2c1.6,6.6-0.1,13.2,1.1,19.6c0.3,1.5,0.9,3.4-1.1,4s-2.4-1.4-3.2-2.7
	c-5.8-10.3-9.5-21.5-13.8-32.4c-3.6-9.2-9.9-13.8-19.7-14.2c-6.7-0.3-13.3-0.8-20-1.3c-1.3-0.1-3.1,0.4-3.4-1.5
	c-0.3-2.1,1.7-2.4,3.1-2.7c6.5-1.7,13.2-3,19.7-5.8c-2.9-3.6-5.2-5.6-10.2-3.2c-13.4,6.3-27.6,10.8-40.8,17.8
	c-1.3,0.7-2.7,1.9-4-0.1c-1.1-1.8,0.6-2.5,1.4-3.4c10.1-10.3,21.7-19,32.2-28.8c3.4-3.2,4.3-5.6,2.1-10.1
	c-3.6-7.3-7.7-13.5-14.9-17.7c-7.1-4.2-13.6-9.2-20.3-14c-4.2-2.9-8-2.8-12.4,0.2c-11.7,8.1-23.8,15.7-34.2,25.6
	c-1.1,1.1-2.7,3.4-4.1,2.1c-2-1.7,0.1-3.7,1.2-5.2c8.2-11.3,17.2-22,24.3-34c4.7-7.8,4.7-8.8-0.6-16.2c-5.7-7.9-11.3-15.9-17-23.9
	c-2.7-3.8-5.6-5-10.3-3c-6.1,2.6-12.5,4.4-18.9,6.5c-1,0.3-2.4,1.6-3.2-0.2c-0.7-1.6,0.8-2.1,1.8-2.7c5.9-3.5,11.3-7.6,15.5-13.7
	c-7.2-3.8-13.5-8.4-19.6-13.4c-4.1-3.3-9.6-1.9-14.5-1.5c-14.8,1.2-29.5,3.6-44,7.1c-0.6,0.1-1.2,0.3-1.8,0.4
	c-1.6,0.4-3-0.1-3.5-1.6c-0.5-1.8,1.2-2.1,2.5-2.5c6.9-2.2,13.9-4.2,20.8-6.5c8.2-2.7,16.1-6.5,24-10c2.8-1.2,3-2.3,1.1-4.7
	c-4.4-5.4-8.6-10.9-12.8-16.5c-3.5-4.8-8.3-7.2-13.8-8.9c-13.9-4.3-28.2-7.1-42.4-10.1c-3.2-0.7-6.3-1.7-9.4-2.6
	c-1.3-0.4-3.3-0.2-3-2.2c0.3-2.1,2.4-1.6,3.8-1.6c4.5,0.1,9,0.2,13.5,0.7c13,1.3,26,1.5,39,1.6c3.8,0,4.3-0.8,2.5-4
	c-2.5-4.5-4.6-9.1-6.9-13.7c-1.6-3.3-4-4.7-7.8-4.4c-10.5,0.8-21,2.1-31.1,5.1c-0.7,0.2-1.5,0.4-2.2,0.6c-1.3,0.4-2.6,0.5-3.1-1
	c-0.4-1.3,0.8-1.8,1.8-2.3c6.2-3.1,12.4-6.3,18.6-9.4c3.2-1.6,6.3-3.4,9.6-4.7c7.1-2.8,8.3-8.9,8.9-15.4c0.2-2.5-1.2-2-2.6-1.5
	c-2.9,1.1-5.7,2.3-8.6,3.4c-1,0.4-2.3,0.7-3-0.3s0-2,0.8-2.9c2.3-2.7,4.4-5.7,6.8-8.2c4.9-5.1,5.9-11.3,6.5-17.9
	c0.3-3.3-2.3-3.8-4.1-4.9c-11.7-7.3-23.3-14.8-34.4-22.9c-1.1-0.8-2.3-1.6-3.4-2.5c-0.9-0.7-2.6-1.3-1.7-2.8s2.4-0.8,3.7-0.2
	c5,2.1,10,4.1,15,6.3c7.2,3.2,14.4,6.4,21.5,9.9c3,1.5,3.8,0.6,4.1-2.1c0.1-0.6,0.1-1.3,0.4-1.8c7-13.8,2.7-26.3-4.4-38.5
	c-4.7-8.2-8.4-16.9-13.6-24.8c-0.7-1-1.6-2.2,0-3.2c1.6-1,2.2,0.5,2.9,1.4c6.9,9.2,14.8,17.5,22.1,26.3c2.5,3,4.3,3.3,7.4,0.4
	c10-9.1,18.8-19.4,28.3-28.9c1.7-1.7,1.1-2.5-0.5-3.4s-3.2-1.9-4.8-2.9c-1.3-0.8-3.2-1.4-2.7-3.3c0.6-2.3,2.9-1.4,4.4-1.3
	c3.9,0.4,7.7,0.9,11.5,1.6c6.9,1.3,12.3-2.2,17.9-5.2c2.3-1.2,0.8-3,0.3-4.4C115.2,80.8,107.8,68,100,55.4c-1.1-1.8-4.3-4.2-2-5.8
	c2.8-2,3.8,2.1,5.1,3.8c9.3,11.5,19.2,22.4,27.6,34.5c1.6,2.2,3.8,2.7,6,2.8c4.3,0.2,8.6,0.1,13.2,0.1c-3.1-5.8-6.1-11.3-9.1-16.8
	c-0.5-1-1.7-2.3-0.3-3.3c1.5-1.2,2.5,0.2,3.4,1.2c6,6.3,12.1,12.5,17.4,19.4c2.2,2.8,4.8,4.2,8.3,4.3c5.6,0.3,11.2,0.4,16.7,1
	c2.1,0.2,2.7-0.7,3.1-2.4c3.2-13.4,9.1-26,12.4-39.4c0.2-0.6,0.3-1.2,0.5-1.8c0.4-1,0.7-2.3,2.1-1.9c1.7,0.4,1.3,1.9,1,3.1
	c-1.3,5.7-2.8,11.4-4.1,17.2c-1.1,5-1.6,10.1-2,15.2c-0.3,4.4,1.4,7.2,4.9,9.8c6.3,4.6,13.5,7.4,20.4,10.7c0.1-0.4,0.2-0.7,0.1-0.9
	c-0.5-2.1-3.3-4.5-1.1-6.3c2.1-1.6,2.9,2,4.5,3c3.4,2,6.7,4.4,10.5,7c0.8-7.2-0.6-13.9-0.9-20.6c-0.1-1.4-0.9-3,0.9-3.6
	c1.8-0.5,2.3,1.4,2.9,2.5c7.7,14.6,17.5,27.7,28.2,41.8c1.4-6.9,2.5-12.6,3.6-18.4c0.1-0.8,0.1-1.6,0.3-2.3c0.4-1.3,0.2-3.2,2.1-3.1
	c2,0.1,1.5,2.1,1.4,3.3c-0.5,6.7-0.1,13.3-0.1,20c-0.1,11.6,7.5,18.2,14.8,25.2c1.9,1.8,2.9-0.3,4.2-1.3
	c14.3-10.5,14.5-25.6,13.4-41.1c-0.1-2.1-1.7-5.5,1.3-5.9c2.7-0.4,2,3.3,2.4,5.2c1.3,5.7,2.2,11.5,3.3,17.3c1.9-0.1,2.4-1.6,3.2-2.7
	c9.1-12,17.9-24.1,25-37.4c0.7-1.3,1.1-3.5,2.9-3.1c2.4,0.6,1.3,2.9,1.1,4.4c-0.8,6.3-0.9,12.6-1.1,20c4.5-3.1,8.4-5.7,12.1-8.5
	c1-0.8,1.4-2.8,3.2-1.5c1.6,1.1,0.3,2.5-0.2,3.8c-0.3,0.9-0.7,1.7-1.5,3.4c9-3.8,17.5-7.1,24.2-13.7c1.5-1.4,1.6-3.2,1.6-5.1
	c-0.1-11.3-2.9-22.1-5.6-32.9c-0.4-1.4-2-3.6,0.7-4.2c2.1-0.5,2.1,1.9,2.5,3.2c4.2,13.1,8.5,26.2,12.4,39.4c0.8,2.6,1.9,2.6,4.1,2.8
	c14.3,1.3,25.6-3,33.3-15.8c2-3.4,5.5-5.9,8.3-8.8c0.9-0.9,1.7-2.7,3.3-1.3c1.3,1.1,0.2,2.2-0.3,3.3c-3,5.5-6,11.1-9,16.7
	c0.4,0.2,0.7,0.3,0.9,0.4c11.6,1.4,19.5-1.7,25.7-11.6c6.4-10.2,15-18.9,22.7-28.2c0.9-1.1,1.7-3.2,3.5-1.9s0.2,2.8-0.6,4
	c-8.4,12.7-15.5,26-21.4,40.1c-1.8,4.4-0.4,5.8,3.2,7.9c7.3,4.3,14.8,3.5,22.5,2.1c2.6-0.5,6.5-2.3,7.6,0.6c1.3,3.3-3.2,3.9-5.4,5
	c-3.9,2.1-3.7,3.4-0.7,6.5c9,9,17.4,18.5,26.7,27.2c2.8,2.6,4.6,2.7,7.1-0.2c7.2-8.7,14.6-17.3,21.9-25.9c0.9-1.1,1.7-3.3,3.4-2.1
	c1.7,1.2,0.1,2.8-0.7,4c-7.5,12.7-14,25.8-20.1,39.2c-1.7,3.8-1.6,7.5-0.6,11.4c1.3,4.8,2.9,9.5,3.9,14.3c0.6,3,1.6,2.6,3.6,1.6
	c11.6-5.9,23.6-10.8,35.6-15.8c1.6-0.6,3.6-2.6,4.8-0.3c1.1,2-1.5,2.7-2.7,3.7c-12.3,8.9-24.9,17.4-37.9,25.3
	c-2.5,1.5-2.8,3.3-2.8,6c0.3,9.7,6.4,16.1,12.1,22.9c1,1.2,3.3,2.5,2.1,4.2c-1.3,1.8-3.4,0.3-5.1-0.3
	C543.1,229.9,540.3,228.2,536.8,227.7z"/>
<path class="st1" d="M66.5,334.3c7.1-2.5,14-5.8,20.8-9c3.7-1.8,4.3-4.1,1.7-7.3c-4.4-5.6-8.8-11.2-13-16.9
	c-4.5-6.2-10.7-9.7-17.9-11.5c-9-2.3-18-4.5-27-6.7c1.2-2.3,3-1,4.7-0.9c8.5,0.1,17.1,0.2,25.6,0.2c6.3,0,7.6-2.1,4.9-7.7
	c-2.5-5.1-5.2-10.2-7.7-15.3c-1.9-3.9-4.9-5.5-9.4-5.3c-6.8,0.4-13.6,1-20.5,1.6c5-2.6,10.1-5.1,15.1-7.8
	c7.2-3.9,11.3-12.2,10.3-20.1c-0.3-2.5-1.7-3.6-4.2-2.8c-2,0.6-4.1,1.2-6.9,2.1c4.5-5.7,9.4-10.4,10.1-17.4c0.2-2.8,0.7-5.5,1.2-8.3
	c0.4-2.2-1-3.1-2.4-4c-9.2-6-18.4-11.9-27.7-17.9c1.6-1.4,3-0.1,4.3,0.5c6.5,3,12.9,6.1,19.3,9.1c4.1,1.9,5.4,1.3,6.5-3.1
	c0.1-0.4,0.1-1,0.3-1.4c8.1-16.6,3.1-31.5-5.7-45.9c-0.8-1.3-1.4-2.6-1.4-4.4c3.7,4.2,7.5,8.3,11.1,12.6c2.6,3.1,5.1,2.9,7.9,0.4
	c11.5-9.8,21.2-21.4,31.7-32c3.5-3.5-0.5-5.3-2.8-8.2c9.4,2.8,17.3,1.1,25.1-3.3c4.3-2.4,5.1-5,3.5-9.4c-2.7-7.5-6.4-14.7-9.8-21.9
	c5.4,5.4,9.9,11.5,14.4,17.7c1.2,1.7,2.5,3,4.7,3.5c6.3,1.4,12.6,1.1,19,1.3c2.4,0.1,3.2-1.8,2-4c-1-2-2.3-3.9-3.7-6.2
	c3.6,1.3,5.3,4.3,7,6.7c3.9,5.7,9,8.1,15.7,8.1c5,0,9.9,0.3,14.9,0.7c2.3,0.2,3.5-0.8,4.1-2.8c1.4-4.5,2.8-9.1,4.6-13.9
	c-2.2,12.5,6.9,16.4,15.2,20.8c4.1,2.2,8.4,3.9,12.7,5.8c4,1.7,4.6,1.2,4.5-3.3c2.8,1.9,5.6,3.9,8.4,5.6c3.4,2.1,4.8,1.4,5-2.6
	c0.2-4.9,0-9.8-0.4-14.8c4.6,7.8,9.8,15,15.2,22.1c2.9,3.9,5.6,7.8,8.7,11.5c5.2,6.3,5.4,6.2,9.1-0.8c-1.9,13.7,7.3,21.3,15.5,29.5
	c2.6,2.5,4.7,2,7.1-0.2c8.6-8,16.8-16.3,16.3-29.5c0.1,0.7,0.2,1.5,0.3,2.2c1.1,4.1,2.6,4.7,5.5,1.5c8.8-9.8,16-20.9,23.2-31.9
	c0.8-1.3,1.5-2.6,2.4-4.2c0,5.1-0.2,9.8,0.1,14.4c0.3,4.6,1.6,5.2,5.5,2.7c2.6-1.7,5.1-3.5,8-5.4c-0.6,4.3,1,5.2,4.5,3.4
	c5.8-2.9,11.9-5.1,17.6-8.4c7.1-4.1,11.9-9.4,10.4-18.5c1.4,4.5,2.9,9,4.1,13.5c0.7,2.7,2.1,3.7,5,3.4c5.6-0.5,11.1-0.8,16.7-0.9
	c5.1-0.1,8.8-2.1,11.8-6.2c1.6-2.2,3.2-4.6,5.6-6.2c0.2,0.3,0.6,0.5,0.5,0.6c-2.8,7.5-2.8,7.5,5.2,7.3c3.6-0.1,7.1-0.3,10.7-0.5
	c3.7-0.2,6.6-1.6,8.9-4.9c3.9-5.7,8.4-11.1,13.1-17.3c0.3,2.4-0.7,3.5-1.3,4.7c-3,6.1-6.1,12.2-8.1,18.7c-1.1,3.5-0.5,5.7,2.8,7.7
	c7.9,4.6,16.1,6.9,25.8,3.8c-5.1,5.8-5,5.7,0,10.9c9,9.4,17.6,19.2,27.4,27.9c5.3,4.7,6.7,4.7,11.2-0.6c2.4-2.8,4.9-5.6,7.4-8.4
	c0.2-0.2,0.5-0.3,0.8-0.5c1.2,0.8,0.3,1.5-0.1,2.3c-0.5,1.1-1,2.3-1.6,3.3c-10.6,20.2-10.9,23.8-3.5,45.3c1.1,3.3,3,3.4,5.7,2.1
	c7.5-3.6,14.8-7.5,23-10.5c0.1,1.7-1,2-1.8,2.5c-7.8,5.1-15.6,10.2-23.4,15.1c-2.8,1.7-3.8,3.6-3.5,7.1c0.6,9.1,4,16.8,10.5,23.4
	c-2.1-0.6-4.1-1.3-6.2-1.9c-2.8-0.8-4.3,0.4-4.2,3.2c0.4,8.4,1.7,16.4,10.8,20.3c4.9,2.1,9.6,4.7,14.2,7.4
	c-7.2-0.9-14.2-1.6-21.4-1.8c-3.7-0.1-6.3,1.3-7.9,4.5c-2.9,5.7-5.8,11.3-8.6,17c-2.2,4.5-0.8,6.7,4.4,6.7c9,0.1,18-0.1,27-0.2
	c1.4-0.1,3-1.4,3.8,1c-8.8,2.2-17.6,4.5-26.5,6.6c-8.4,2-14.8,6.7-19.7,13.6c-3.6,5-7.5,9.8-11.2,14.8c-2.5,3.3-2.2,5.6,1.6,7.4
	c7,3.3,13.8,6.8,21.2,9.2c-0.3,2.1-1.6,1-2.6,0.8c-8.1-1.2-16.3-2.1-24.5-2.3c-5-0.1-9.4,1.3-13,5c-3.7,3.8-8.4,6.3-13,8.9
	c-5.8,3.2-5.9,4.4-1.6,9.2c1.3,1.5,2.7,3,4.8,5.2c-4-1.4-7.1-2.3-10-3.6c-3.8-1.7-6.9-0.8-9.6,2.1c-1.8,1.9-3.6,3.9-5.1,6
	c-5.4,7.6-10.7,15.2-16,22.8c-3.4,4.8-3.8,9.5-0.6,14.7c4.6,7.5,9.5,14.8,14.8,21.9c0.9,1.2,2.4,2,2.1,4.1
	c-7.6-5.1-15.3-9.9-22.5-15.3c-6.3-4.8-12-4.6-18.2-0.2c-8.4,6-17.2,11.7-25.4,17.9c-6.9,5.2-8.9,13.6-12.1,21.1
	c-0.8,1.8,1.3,2.9,2.5,4.1c7.5,7.4,15.5,14.3,23.7,21c2.3,1.9,4.4,3.8,6.5,6.2c-11-5.8-23-9.1-34.2-14.3c-6.9-3.2-9.1-2.7-14.2,2.7
	c-2.8,3.1-2.6,4.6,1.2,6.1c3.4,1.3,7,2.4,11.9,4c-4,0.3-6.7,0.7-9.4,0.7c-12.4,0-20.9,5.2-25.2,17.2c-3,8.5-6.7,16.8-10.4,26.2
	c-1.2-6.1,0.2-10.9,0.9-15.7c0.2-1.4,0.4-2.8,0.5-4.1c0.1-1.2-0.2-2.2-1.5-2.6c-1.1-0.3-1.8,0.4-2.3,1.2c-1.5,2-3.1,3.9-4.3,6
	c-6.2,10.2-13.4,19.7-20.5,29.5c-6.4-9.1-13.4-18-19.2-27.7c-1.3-2.1-2.7-4.2-4.2-6.1c-1-1.3-1.6-3.6-3.7-2.9s-1.3,2.9-1.2,4.5
	c0.4,5.6,2.2,11,1.7,16.9c-2.2-1.5-2.5-3.9-3.3-5.8c-2.9-7-5.8-14-8.5-21.1c-3.9-10.5-11.8-15-22.5-15.5c-3.2-0.1-6.4-0.3-9.7-1.2
	c3.5-1.2,7-2.3,10.5-3.7c3.2-1.2,3.9-3,1.3-5.9c-5.1-5.5-7.5-6.2-14.2-3.1c-10.5,5-21.8,8-32,13.6c-0.5,0.3-1.2,0.2-2.5,0.3
	c8.4-7.3,16.3-14,24.1-20.9c9.7-8.6,9.5-8.7,4-20.4c-2.6-5.7-6.4-10.1-11.6-13.5c-7.9-5.1-15.6-10.7-23.4-16
	c-4.9-3.4-9.7-3.2-14.6,0.3c-7.1,5-14.3,9.8-21.4,14.7c-1,0.7-1.8,1.7-3.6,1.5c6.4-8.6,12.5-16.9,17.7-25.8c3.1-5.2,3-9.8-0.5-14.6
	c-6.3-8.7-12.3-17.5-18.7-26c-5-6.6-6.5-6.7-14.2-4.1c-2.3,0.8-4.6,1.5-7.8,2.6c2.2-2.4,3.7-4.1,5.2-5.8c3.6-4.1,3.7-4.8-1-7.6
	c-6-3.6-11.9-7.2-17-12.1c-2.7-2.6-6.5-2.7-10.1-2.6c-8.4,0.2-16.7,1.1-25,2.3C67.5,335.5,66.3,336.1,66.5,334.3z"/>
<path class="st2" d="M35.8,282c-1.5,0.8-3.3-0.4-4.7,0.9c-2.2-0.3-4.4-0.7-6.6-1C28.4,281,32.1,280.8,35.8,282z"/>
<path class="st3" d="M556.2,282.9c-1-1.3-2.6-0.2-3.8-1c3.4-1.2,6.9-0.9,11.5-0.8C560.7,282.3,558.6,283.1,556.2,282.9z"/>
<path class="st4" d="M66.5,334.3c0.2,1.2,1.3,0.6,1.9,1c-2.3,1.4-4.9,1.1-7.7,1.8C62.4,335,64.5,334.7,66.5,334.3z"/>
<path class="st5" d="M518.9,335.3c0.9-0.3,1.8-0.5,2.6-0.8c1.8,0.3,3.5,0.7,5.2,2.4C523.9,336.3,521.3,336.7,518.9,335.3z"/>
<path class="st6" d="M198.8,287.6c13.2,1.9,23.5,11.3,36.3,14.3c1.3,0.3,2.7,0.9,4,1c2.9,0.2,5.9-0.5,8,2.9c0.7,1.1,3.4,3.2,5.8,0.8
	c0.7-0.7,1.9-0.1,2.5,0.6c1.5,1.4,2.8,1.7,4.1-0.2c0.1-0.1,0.3-0.3,0.4-0.3c5,1.4,6.5-1.9,7.8-5.6c0.4-1.1,1.5-2.1,3-1.7
	c1,0.2,0.7,1.4-1.1,4.6c2.3,0.5,4.4,1.4,5.9,3.7c0.1-2.9,0.2-5.9,0.4-8.8c0.1-1.4,0.5-3.1,2.3-2.7c2,0.4,1.4,2,1,3.3
	c-1.5,5.7,3.9,7,6.7,10.6c1.5-3.9,3.8-7.2,3.2-11.4c-0.2-1.1,0.1-2.2,1.5-2.4c2.9-0.4,3.3-0.9,2.4-4.1c-0.3-1.1-1.5-2.4-0.1-3.3
	c1.8-1.1,2,1.4,3.4,1.7c0.9-4.4-3.3-6.9-3.8-10.8c-0.3,1.7-2.3,2.7-0.3,5.1c1.7,2-1.2,4.1-2.6,5.7c-0.8,0.9-1.9,1.7-3.2,0.8
	c-1.9-1.4-1.4-3.4-1-5.1c0.7-3,1.8-5.9,2.7-8.8c0.1-3.6,1.8-6.6,3.7-9.5c0.8-1,1.4-2.2,2.8-2.6c3.1-1.6,3.5-4,2-6.9
	c-1.5-2.7-2.8-5.5-4.4-8.1c-2.8-4.3-3.4-8.8-1-13.2c4.9-8.7,4.7-17.4,2-26.8c-1.9-6.8-2-14.1-3.4-21c-1.3-6.4-3.3-12.6-6.4-18.3
	c-0.5-0.9-1.4-1.9-0.5-3c1.1-1.2,2.3-0.4,3.4,0.3c1.5,0.8,2.9,1.7,4.3,2.7c2.6,1.8,5.3,2,7.7,0c2.8-2.4,5.3-2,7.8,0.4
	c10.9,10.6,21.4,21.6,31.6,32.8c1.9,2.1,2,3.7-0.2,5.8c-5.5,5.2-10.3,11.1-14.7,17.5c2.1,1.1,3.8,0.3,5.5-0.1c0.8-0.2,1.6,0,2,0.8
	c0.5,1.1-0.4,1.6-1.2,2.1c-1.5,0.8-3.2,1.3-4.9,1.1c-8.1-0.5-16.7,5.3-18.3,13.5c-1.8,9.4-3.1,18.8,0.3,28.4
	c2.1,5.9,0.7,11.6-3.8,16.8c-4.2,4.8-7.4,10.4-11.1,15.7c-0.6,0.9-0.7,1.7,0.4,2.3c1.2,0.7,2.2,1.8,3.7,0.4c2.1-2,4.3-3.2,6.8-0.6
	c0.7,0.7,1.3,0.3,2-0.2c2.7-1.8,5.1-2.5,6.5,1.5c0.1,0.3,1,0.7,1.1,0.7c4.9-3.9,8.5,0.8,12.7,1.8c1.6,0.4,3.8-0.1,4.4-1.5
	c0.5-1.1,1-3.4-1.4-4.2c-1.5-0.5-2-1.8-2.4-3.2c-0.4-1.7,0.2-2.4,2-1.6c0.6,0.2,0.9,2.1,1.8,0.4c0.6-1.1,0-2-1.2-2.6
	c-4.4-2-9.1-2.8-14-3c-1.4,0-3.7,0.7-3.8-1.4c-0.2-1.9,2-2,3.5-2.1c8.5-0.9,16.8-2.2,24.7-5.9c2.8-1.3,10,0.7,12.2,3.1
	c1.6,1.9,3.7,2.3,5.9,1.4c2.4-1.1,3.6-1.1,4.8,1.9c1.8,4.4,9,6.3,14.8,4.3c2.8-0.9,5.4-2.3,8.2-3.3c2.2-0.8,4.4-1.5,6.5,0.6
	c-1.1,2.1-3.4,1.3-4.9,2.2c-1.6,0.9-4.6,0.3-3.5,4c0.5,1.5-1.3,1.4-2.2,0.6c-3.4-3-3.6-0.5-3.3,2c0.3,2.3,1.1,4.5,1.6,6.7
	c0.2,0.8,0.3,1.7-0.4,2.1c-1.1,0.7-1.7-0.3-2.1-1.1c-1.2-1.9-1.6-4-2-6.1c-0.3-1.2,0.8-3.2-1.1-3.6c-2.1-0.5-4.3-0.9-6.4-0.6
	c-1.6,0.2-0.6,1.8-0.4,2.7c1,4.8,0.8,9.5-1.2,14.1c0.1,0.9-0.5,1.5-1,2.1c-0.6,4-0.5,8,0.4,12c0.4,1.6,0.4,3.4,0.1,5.1
	c-1,4.5,0.4,7.3,5.1,8.7c7.6,2.2,13.9,6.7,20,11.5c3.9,3.1,3.8,3.3,8.9,2.4c-1.9-2.4-3.8-4.4-6.2-6c-0.8-0.5-2.4-1-1.6-2.3
	s2.1-0.7,3.3-0.2c2.2,0.8,3.6,2.4,5,4.1c2.4,2.9,5.3,3.6,8.7,2.4c4.2-1.4,7.6-0.4,10.6,2.7c0.4,0.4,0.8,1.1,1.3,1.3
	c7.4,3,5.5,8.1,4.2,14.1c-3.1,14.6-14.3,20.5-26,26.2c-3.4,1.6-6.3-0.4-9.2-1.7c-3-1.4-5.5-2.9-6.3,2.5c-0.6,4.2-4.4,5.6-8.5,5.7
	c-1,0-2.3-0.4-2.8,1c-0.6,1.5,0.5,2.2,1.6,2.9c0.8,0.5,2.3,1.1,1.5,2.4c-0.9,1.4-2.3,0.5-3.4,0.1c-5.9-2.5-11-6.3-16.1-10
	c-1.4-1-2.6-2.1-4.5-2c-3,0.1-6.6,0-7.7,2.9c-1,2.6,2.3,4.3,4,6.1c1.1,1.2,4.3,1.9,3,3.8c-1.4,1.8-3.6-0.4-5.2-1.5
	c-2.4-1.7-4.2-4-5.8-7.6c-0.9,4.3,1.4,6.2,3.3,7.9c6.4,5.7,11.8,12.3,17.4,18.7c2.1,2.4,2.7,4.6,1.1,7.5c-2.5,4.8-4.7,9.8-7.2,14.6
	c-0.7,1.3-1.3,3.7-3.5,2.8c-1.7-0.7-1-2.6-0.7-4.2c0.7-4.1,1.3-8.3,1.8-12.4c1.2-10.2-8.7-19.3-18.3-16.1
	c-22.5,7.3-44.1,2.7-65.7-3.5c-15.8-4.5-30.5-12-46-17.5c-1-0.3-2.9-0.6-2-2.3c0.7-1.4,2-0.8,3.3-0.5c4.8,1.3,9.3,3.5,13.8,5.4
	c1.8,0.7,3.6,1.4,5.5,1.9c-6-7-13.7-12-20.6-17.9c-8-6.8-16.6-11.6-27.6-9.4c-1.4,0.3-3-0.2-4.6-0.3c-0.1,2.8,1.4,4.1,3.8,5
	c5.7,2,11.3,4.4,17.5,3.7c2-0.2,4,0.1,5.4,1.9c-0.2,0.3-0.4,0.8-0.5,0.8c-6.1-1.1-6.2,3-6.4,7.2c-0.1,1.5-0.1,3.1-0.3,4.6
	c-0.7,5.8-3.4,7.6-8.5,4.9c-8.6-4.6-17.1-9.3-24.9-15.3c-2.7-2.1-4.8-4.8-6.2-8c-0.4-1-1.3-2-0.4-3c0.8-1,2-0.4,3-0.1
	c3.3,1,6.5,2.2,9.8,2.9c1.7,0.4,4.9,1.5,5-0.8c0.1-2.2-0.3-5.7-3.9-6.6c-3-0.8-5.9-2-8.9-2.6c-4.6-0.9-6.2-5.3-9.7-7.6
	c-0.7-0.4-0.7-1.6,0.1-2c4.2-1.8,3.4-5.7,3.8-8.9c0.7-5.5,4.2-10.1,4.5-15.7c-6.3,1.4-12.5,3.9-18.3,7.6c0.1,1.1,1.1,0.9,1.6,1.3
	c1.2,0.9,3.8-0.5,3.9,1.5c0.1,2.4-2.8,1.8-4.2,2.8c-4.1,2.6-6.1-0.3-7.9-3.1c-1.1-1.8,0.8-2.4,1.8-3.1c4.8-3.5,10-6.1,16.7-8.6
	c-4.2,0-7.2,0.1-10.2,0c-2.6-0.1-4.1-1.4-2-3.8c1.6-2,1.1-3.2-0.5-4.7c-2.7-2.5-3.7-6-4.8-9.4c-0.9-2.8-1.4-5.7-3.9-7.8
	c-3.4,2.9-6.4,5.7-1.6,9.9c0.8,0.7,1.5,1.9,0.4,2.8c-1.2,1-1.9-0.4-2.7-1c-0.4-0.3-0.7-0.7-1-1c-1-0.9-2.1-2.2-3.6-1.2
	c-1.4,0.9-0.3,2.2,0,3.3c1.1,4.2,2.2,8.3,3.2,12.5c0.5,2.1,0.8,4.2-0.7,6.8c-5.3-5.6-10.6-11-15.6-16.6c-1.3-1.4-0.9-3.4,0.5-4.6
	c1.8-1.7,2.2,0.4,3.4,1.2c1.5,1.2,3.7,1.5,6,2.3c-0.2-2.8-2.6-4.6-2.5-7.5c0-1.9-3.6-1-5.4,2.2c-3.4-3.3-7.4-5.3-12.2-5.5
	c-1.7-0.1-6-6.1-5.7-7.7c0.2-1.1,1.3-1,2.1-1.5c1.5-0.7,3.3-0.5,4.5-2.1c1-1.4,1.7-2.1-0.2-3.4c-1.5-1-2.3-2.9-3.7-4.1
	c-3.1-2.7,0.1-8.6-3.9-9.7c-3.9-1.1-6.9-2.8-9.6-5.9c3,6.8,3.6,14.2,6.5,20.9c0.4,1,0.7,2.1,0.9,3.1c0.2,1-0.1,1.9-1,2.4
	c-1,0.5-1.7-0.2-2.4-0.8c-3.4-3.3-6.2-7.2-7.2-11.7c-2-8.7-4.3-17.5-2.1-26.6c0.4-1.7-0.3-4.4,3.1-3.4c0.2,0.1,0.7-0.1,0.7-0.2
	c-0.2-1.2-1.7-2.8,0.7-3.3c1.5-0.3,2,1.9,3.3,2.3c2.7,0.9,5.6,2.1,7.4-1.7c1.7-3.6,5.2-4.7,8.8-5.1c3.4-0.4,6.8-0.7,10.3-1.1
	c-0.8-2.5-1.9-4.8-1.5-7.3c0.4-2.8-0.7-3.5-3.3-2.8c-7,1.9-14.1,3.4-21.1,5.5c-2.1,0.6-7,0-3.9,5c0.2,0.2-0.4,1.1-0.8,1.4
	c-0.5,0.4-1.2,0.2-1.7-0.3c-0.8-0.9-1.5-1.9-2.9-3.5c-2.1,7.6-3.1,14.2-4.2,20.8c-0.2,1.3,0.1,3.2-1.6,3.5c-1.6,0.3-2.4-1.4-3-2.5
	c-6.9-11.4-11.6-23.5-13.3-36.8c-1.1-8.1-0.7-16,0.9-24c1.2-5.8,4.1-9.7,10.1-11.4c7.9-2.2,15.6-5.2,23.8-6.1c3-0.3,6.6-1,5.9,4.3
	c-0.3,2.2,2,2.1,3.3,1.9c1.9-0.2,4.6,0.7,5.3-2.3c0.5-1.9,0.8-4,1.5-5.8c1.8-4.8,4-9.5-1.8-13.6c-1.5,2.6-3.4,5.5-5.1,8.5
	c-1.2,2-2.8,3.2-5.2,3.3c-9,0.2-18,0.7-27,0.6c-6.8-0.1-7.8-1.7-6.2-8.3c0.9-3.9,2-7.8,2.7-11.8c1.3-7.2,6.5-11.7,11.6-16.9
	c-0.9,0-1.3-0.2-1.6-0.1c-1.7,0.5-3.6,2.1-5,0.1c-1.2-1.7,0.8-3.1,1.8-4.4c4.2-5.5,8.4-11.1,12.7-16.6c4.3-5.5,5.5-5.9,12.3-3.7
	c7.6,2.5,15.2,5.2,22.8,7.9c0.2-1.7-1.1-1.8-1.8-2.2c-3.6-2.4-7.4-4.6-11-7c-8.5-5.8-8.2-8.4,0.6-13.7
	c19.7-11.8,40.8-14.7,63.1-10.1c15.5,3.2,30.9,6.2,45.6,12.3c18.2,7.6,32.7,19.9,46,34c1.4,1.4,2.6,3.2,0.8,4.8
	c-1.8,1.6-3-0.5-4.3-1.5c-16.3-13-34.3-23.3-54.9-27c-15.2-2.7-30.7-2.1-44.8,6.9c-11,7.1-22.4,13.4-29.9,24.6
	c-0.9,1.3-1.7,2.5-2.7,3.9c1.4,0.9,2.4-0.2,3.5-0.1c2.2,0.2,3.1,1.8,1.4,3c-5.6,4.2-3.5,10-3.9,15.3c-0.1,1.1,0.1,2.2,0,3.3
	c-0.1,1.5,0.5,3.8-1.4,3.9c-2.1,0.1-1.4-2.3-1.5-3.7c-0.1-3.3,0-6.7,0-10.7c-2.3,1.4-3.3,3-3.9,4.9c-1,2.9-2.6,5.3-5.8,6.1
	c-2.6,0.7-2.3,3.1-3,4.8c-1,2.4-1.5,5-2.2,7.6c0.8,6.5-1.2,12.7-2.4,18.9c-0.5,2.7-0.1,4.6,3.4,3.5c4-1.2,7.5-4.8,12.7-1.3
	c-1.5-4.2-2.4-7.7-2.3-11.3c0-1.1,0.2-2.3,1.7-2.2c1.3,0.1,1.1,1.3,1.3,2.1c0,0.1,0,0.3,0.1,0.5c2.5,15.2,2.6,12.8,16.5,15.9
	c10.1,2.2,18.8,14.8,16.2,25c-0.2,0.9-0.1,2.3-1.6,2.4c-1.3,0.1-2-0.7-2.5-1.7c-1.1-1.9-2.7-3.1-4.9-3.9c2.9,5,1.5,12.1,8.3,15
	c1,0.4,2.6,1.4,1.9,2.8c-0.7,1.4-2.1,0.6-3.2-0.1c-1.8-1.2-2.8-1.2-4.1,1.1c-2.2,4.1-3.2,4.1-6.1,0.3c-5-6.5-11-9.5-19.5-9.5
	c-8.4,0-16,3.4-24.2,3.6c-1.7,0-4.4,1.4-3.4,4.2c1,2.7,3.1,3.4,5.7,1.6c1.8-1.2,3.7-2.2,5.6-3.4c1.7-1,3.5-1.7,5.3-1
	c6.9,2.7,14,3.3,21.3,3.2c1.6,0,3.2,0.3,4.1,1.7c3.2,5.2,9.4,8.8,8.3,16.2c-0.2,1.2,0.8,1.9,1.5,2.7c4.8,5.4,10.3,9.6,16.9,12.8
	c5.3,2.6,10.3,2.4,15.6,0.5c1.9-0.7,2.7-1.6,2.9-3.6c0.2-2.6-1.6-5.4,1.3-7.8c0.9-0.7-4.1-5.1-5.7-4.6c-0.1,0-0.3,0.2-0.4,0.2
	c-0.4,0-1.2,0.1-1.3-0.1c-2.2-4.9-8.6-0.5-11-5.1c-1.2-2.2-3.4-3.9-3.9-6.9c5.1,0,5.5,7.3,11.2,6.2c-3.1-3-6.1-5.6-9.5-7.8
	c-1-0.6-2.5-1.4-1.8-2.7c0.9-1.7,2.6-0.6,3.6,0.1c6.8,5.4,14.5,9.5,19.9,16.5C197.7,286.1,198.3,286.8,198.8,287.6z"/>
<path class="st7" d="M390.5,140.5c5.3-7.5,10.8-14.7,15.7-22.4c3.3-5.3,7.8-7.8,13.7-8.2c10.5-0.7,21.2-0.7,31.5,1.4
	c11.4,2.4,20.2,9.9,29.1,16.8c10.6,8.1,18.5,18.7,25.5,29.9c0.6,0.9,1.4,1.7,0.8,2.9c-0.5,1-1.1,1-4.8,0.3
	c4.9,5.8,10.8,10.7,11.8,18.7c0.4,2.9,0.8,5.8,1.1,8.7c0.6,6.9,0.1,7.6-6.7,7.6c-10.5,0-21.1-0.2-31.6-0.3c-2.8,0-5.6,0-8.5,0.4
	c7.1,1.6,14.2,3.1,21.3,4.7c8.2,1.8,16.3,3.5,24.1,6.7c3,1.2,4.2,3,4.9,6c4.4,18.4,1.5,35.9-6,53c-1.9,4.2-3.7,8.5-5.6,12.7
	c-0.6,1.3-0.9,3.4-3,3c-1.7-0.3-1.5-2.1-1.7-3.4c-0.6-4.1-1.3-8.2-2.5-12.2c-1,7.8-2.1,15.6-2.8,23.5c-0.7,7.7-4.1,13.8-9.4,19.2
	c-1.5,1.5-2.6,1.8-4-0.2c-2.1-3.1-4.3-6-6.6-9c-3.1-4.1-3.9-8.6-3.1-13.6c4.3-27.7-7.1-48.7-28.3-65.4c-2.6-2-5.4-3.6-7.9-5.7
	c-3.2-2.7-6.3-3-9.6-0.4c-0.8,0.6-1.8,1.8-2.7,0.7c-1-1.2,0-2.3,1-3.2c0.6-0.5,1.2-1,1.9-1.3c0.6-0.4,1-0.9,0.5-1.4s-1.3-1.1-2-0.4
	c-0.6,0.6-1,1.6-1.6,2.3s-1.2,1.6-2.3,1c-1-0.6-1-1.7-0.4-2.4c2.4-2.8,0.4-3.8-1.8-5.1c-18.2-10.7-37.7-12.2-58-8.6
	c-4.9,0.9-9.3,3.4-13.8,5.5c-3.3,1.5-5.8,0.8-7.8-1.8c-9.1-12.3-18.1-24.7-27-37.2c-2.4-3.3-2.6-6.8,0.7-10.1
	c22.7-22.4,48.6-38.6,81-42.8c2.1-0.3,4.4-0.6,5.7,0.9c1.6,1.8-0.4,3.7-1.2,5.5c-3.5,7.6-7.1,15.1-10.6,22.7c-0.3,3-2.1,5.3-3.7,7.6
	C387.7,145.1,388,142,390.5,140.5z"/>
<path class="st8" d="M299,460.1c-4.9,3.9-5.2,7.2-1.2,12.7c5.7,7.7,1.7,15.3-7.8,17c-0.3,0.1-0.6,0.1-0.9,0.1
	c-12.8,1.9-12.6,1.9-15.2-10.6c-2-9.6-4-19.4-8.2-29.2c-3.1,3.3-6,6.3-8.8,9.4c-2,2.2,0.2,2.9,1.5,3.7c2.9,1.9,5.9,3.6,2.3,7.4
	c-0.3,0.3-0.5,0.9-0.4,1.2c0.3,1.3,1.7,2.5,0.2,3.8c-0.7,0.6-1.5,0.1-2-0.5c-1.1-1.3-2.6-3.1-1.5-4.5c2.5-3.2,0.3-4.3-1.9-5.8
	c-3.1-2.1-3.4-4.5-0.7-7.3c2.6-2.7,5-5.5,7.6-8.2c4.6-4.9,3.7-8.8-2.5-10.8c-7.1-2.4-7.2-2.4-11.2,4.1c-1.3,2.1-2.4,4.4-2.5,6.9
	c-0.1,3.2-0.5,6.7-4,7.7c-4,1.1-7.6-1.2-9.7-4.1c-4.4-6.3-7.2-13.4-6.5-21.3c0.5-5.1,2.6-6.7,7.4-5c21.8,7.4,44.2,13,65.5,21.9
	c9.5,4,18.8,7.7,26.3,15.1c2.4,2.4,5.5,2.8,8.4,0.7c0.9-0.6,1.8-1.7,2.8-0.8c1.2,1.1,0.2,2.3-0.5,3.3c-2.3,3.1-4.8,6-7.9,8.4
	c-2.9,2.3-5.8,4.6-8.5,7.2c-3.2,3-4.8,2.9-6.7-1.2c-2.5-5.3-5.1-10.6-8.4-15.5C302.5,463.7,301.1,461.4,299,460.1z"/>
<path class="st9" d="M256.6,279c7.9,1.2,13.1-1.9,15.8-8.7c1-2.7,1.7-5.7,4-7.7c0.7-0.5,1.4-1.4,2.4-0.5c1.1,0.9,0.3,1.7-0.2,2.3
	c-1.5,2-2.4,4.3-3,6.7c-1.8,6.9-7.1,9.9-13.3,11.4c-8.7,2.1-16.9-6.3-15.8-15.8c0.8-7,3.2-13.1,10.3-16.4c2.7-1.3,4.9-3.7,7.3-5.7
	c2-1.7,3.9-3.5,6.4-4.5c1.4-0.5,3.3-1.5,4.1,0.4c0.8,1.9-1.2,2.1-2.5,2.4c-2.2,0.6-2.1,1.9-1.5,3.8c2.9,9.1,1.3,17.1-6.7,23.2
	C261,272.3,259.1,275.5,256.6,279z"/>
<path class="st10" d="M430.5,348.8c12.7-4.8,27.6-19.6,30.1-29.9c-2.6,1.7-4.7,3.2-6.9,4.6c-0.8,0.5-1.9,1-2.5,0.2
	c-0.9-1.2,0.2-1.9,1.1-2.6c3.9-3,7.8-6.1,10.9-10c1-1.2,1.9-2.5,2.8-3.7c1-1.4,1-4.2,3.3-3.9c1.9,0.2,2.2,2.8,3.1,4.3
	c3.2,5.6,3.3,11-1,16.3c-9.4,11.6-20.9,21.1-32.7,30.1c-3.2,2.4-6.8,2.1-9.8-0.5c-2.9-2.5-1.7-5.4,0-7.9c2.3-3.4,0-4.7-2.4-6
	c-0.9-0.5-2.1-0.6-3-1.1s-2.3-0.8-1.8-2.2c0.4-1,1.4-0.8,2.4-0.7C431.4,336.2,434.6,341.8,430.5,348.8z"/>
<path class="st11" d="M322.1,241.2c-1.1-1.6-2.8-1.8-4.5-2c-1.2-0.1-2.4-0.5-2.3-1.7c0.2-1.7,1.8-1.4,3-1.3c4,0.4,7.2,2.1,8.4,6.2
	c0.6,2.1,1.8,3.4,3.9,4c3.3,1.1,4.3,3.6,3.9,7c-0.7,5.7-3.3,10.2-8.2,13.3c-1.8,1.1-3.6,2.4-5.2,3.8c-1.9,1.6-2.8,4.9-6.3,3.5
	c-4.1-1.6-7.6-6.6-7.4-10.4c0-0.7-0.2-1.7,0.8-1.9c1.3-0.3,1.6,0.8,1.8,1.6c0.7,2.6,1.5,5,4.2,6.3c0.9,0.4,1.4,1.9,2.6,0.9
	c1-0.8,1.5-2,0.8-3.3c-4.4-8.2,0.1-14.5,4.7-20.7c1.4-1.9,2.3-3.1,0.2-4.8C322.3,241.6,322.2,241.4,322.1,241.2z"/>
<path class="st12" d="M306.4,495.1c1.5,0.4,2.4,1.1,1.5,2.6c-3.7,6.6-7.7,13-12.2,19.1c-1.2,1.7-2.4,1.2-3.6-0.5
	c-2.5-3.7-5.3-7.2-7.9-10.9c-2.2-3-0.7-4.5,2.3-4.2c7,0.5,13.1-1.2,18.6-5.5C305.6,495.5,306.1,495.3,306.4,495.1z"/>
<path class="st13" d="M343.4,269.9c0.5-0.9,0.9-1.6,1.3-2.3c0.9-1.4,2-3.5,3.9-2.2c2.2,1.4-0.4,2.6-1,3.7c-1.3,2.4-0.8,3.8,1.5,5.3
	c7.8,5.1,16.3,8.7,25.3,11.2c1.4,0.4,3.8,0.2,3.5,2.1c-0.3,2.1-2.6,1.2-3.9,0.9c-12.4-2.8-23.6-8.2-33.2-16.6
	c-1.6-1.3-2.6-3.1-3.1-5.1c-0.8-3.3,1.5-6.6,4.6-6.7c1-0.1,1.9,0.2,2.3,1.1c0.5,1-0.5,1.3-1.1,1.7
	C340.1,265.8,340.1,265.8,343.4,269.9z"/>
<path class="st14" d="M223.3,282c-2.5-0.4-5,0.6-7.5,1.3c-4.8,1.2-10.2-2.4-11.1-7.2c-0.2-1-0.1-1.9,0.9-2.3
	c1.2-0.5,1.8,0.6,2.1,1.4c2.1,5.4,5.9,6.1,10.8,4.1c1-0.4,2.1-0.5,3.2-0.5c7.7-0.5,8.9-1.6,10.3-8.8c0.4-2.3,0.4-6.4,2.8-5.9
	c2.7,0.6,0.6,4.3,0.3,6.5C233.7,279.2,230.7,282.1,223.3,282z"/>
<path class="st14" d="M235.2,231.6c-0.9-6.1-5-11.1-10.8-15c-1.2-0.8-4.1-1-2.9-3.1c0.8-1.5,3-0.4,4.6,0.4
	c6.5,3,12.4,12.6,12.1,19.7c-0.1,3.1,0.8,6.1,1.9,9c0.4,1.1,1.4,2.5-0.1,3.2c-1.8,0.9-2.4-1-2.9-2.2
	C235.7,240.2,234.6,236.7,235.2,231.6z"/>
<path class="st15" d="M461.4,294.5c-0.5,3-1.1,6.4-2.9,9.3c-4.8,7.8-12.4,11.9-20.9,14.4c-1.3,0.4-3.6,0.9-4.1-1
	c-0.5-2.2,2-1.8,3.3-2.2c10.6-3.6,19.6-8.7,21.4-21.1c0.2-1.3,0.3-2.6,1.7-3C460.6,290.8,461.4,292.5,461.4,294.5z"/>
<path class="st16" d="M381.3,236.9c1.2-2.5,3.8-2.6,5.9-3.1c5.3-1.3,9.7-4,13.2-8.1c3.3-3.9,7.8-6,12.2-8.3c1.1-0.5,2.6-1.3,3.3,0.2
	c0.8,1.7-1.1,1.9-2,2.5c-5.2,2.8-9.8,6.2-13.9,10.7s-10,5.9-15.8,7.3C383.1,238.2,382.1,237.8,381.3,236.9z"/>
<path class="st17" d="M240.6,263c1.3,2.2,0.6,3.9,0.2,5.7c-1.6,8.7,1.6,14.2,9.9,17.2c2.3,0.8,4.6,1.7,7,2.3c1,0.3,2,0.5,1.8,1.6
	c-0.1,0.6-1,1.2-1.6,1.4c-3.4,1.1-15.7-5.1-18-8.9C236.3,276.3,236.5,267.7,240.6,263z"/>
<path class="st18" d="M209,174.9c0,3.8-0.6,7.4-1.6,11c-0.4,1.4-0.4,3.9-2.2,3.5c-2.2-0.5-1.1-2.9-0.8-4.4
	c1.1-5.1,1.1-10.1,0.8-15.3c-0.3-3.9-1.1-7.7-3.1-11.1c-0.6-1.1-1.7-2.3-0.4-3.2c1.2-0.8,2.2,0.7,3,1.6c3,3.5,3.3,7.9,3.8,12.2
	C208.9,171.2,208.9,173.1,209,174.9z"/>
<path class="st19" d="M349.7,235.3c1.2,0.6,2.9-0.4,3.3,1.2c0.5,1.8-1.3,1.7-2.2,2.3c-2.6,1.8-1.3,4.4-1.5,6.7
	c-0.1,1.3,0.6,3.2-1.1,3.6c-1.8,0.4-2.1-1.6-2.3-2.8c-0.2-1.5-0.9-1.7-2.2-1.5c-1.5,0.2-2.8-0.4-3.9-1.2c-1.7-1.2-4.6-2.7-3.1-4.8
	c1.5-2.2,2.8,1,4.3,1.8c1.4,0.7,3,2.4,4.4,1.6c1.2-0.7,0.8-2.8,0.6-4.3c-0.2-1.8-0.6-3.8,1.1-5.2c1.3-1,3.1-2.4,4.5-0.8
	C353,233.6,350.3,233.9,349.7,235.3z"/>
<path class="st20" d="M422.3,275.7c-0.6,0.7-1.1,1.5-1.8,2.1c-4.9,4.9-10.8,7.5-17.7,7.9c-1.5,0.1-3.1,0-4.6,0.5
	c-1.3,0.4-2.6,0.8-3-0.8c-0.4-1.2,0.9-1.9,1.9-2.2c1.1-0.4,2.4-1,3.6-0.9c6.9,0.4,12.6-2.2,17.7-6.6c0.9-0.8,1.9-1.7,3.3-1.2
	C422,274.6,422.1,275.2,422.3,275.7z"/>
<path class="st21" d="M419,297.1c-0.1,1.4-1.2,1.6-2.3,1.6c-6.9,0.3-11.7,3.3-13.4,10.3c-0.3,1.4-1.1,3.5-3,2.7
	c-1.4-0.6-0.4-2.5,0-3.7c2.5-8.5,7.8-12.7,15.6-12.3C417.1,295.8,418.4,295.7,419,297.1z"/>
<path class="st22" d="M173.5,230.8c-1.7-0.6-5.5,1.1-5.4-1.7c0.1-2.7,3.9-1.9,6.3-1.6c4.1,0.5,6.7-1.5,8.9-4.6
	c0.8-1.1,1.6-2.3,2.3-3.4c0.6-0.9,1.5-1.3,2.4-0.8c0.9,0.6,0.5,1.6,0.2,2.5C186.1,227.1,180.3,230.9,173.5,230.8z"/>
<path class="st23" d="M253.9,206c4.1-3.1,8.2-2.9,12.2-1.1c3.5,1.5,6.8,3.7,10.9,3.7c1.2,0,2.2,0.6,2.1,1.9c-0.1,1.3-1.4,1-2.2,1.1
	c-0.8,0.1-1.6,0-2.3-0.1C267.5,210.3,261.7,205,253.9,206z"/>
<path class="st24" d="M468.7,255.1c2.1,7.9,2.5,15.1,2.1,22.3c-0.1,1-0.5,1.9-1.7,1.7c-0.5-0.1-1.2-0.8-1.2-1.2
	c0.5-7.1-2.2-14.1-0.4-21.2C467.5,256.4,467.8,256.2,468.7,255.1z"/>
<path class="st25" d="M232.1,260c0.7,8.6-6,17-13,16.7c-1.4-0.1-3.3,0.1-3.3-1.6c-0.1-1.5,1.8-1.5,3-1.4c4.4,0.3,6.3-2.2,7.9-5.8
	C227.9,265,228.8,261.8,232.1,260z"/>
<path class="st23" d="M365.3,260.5c-0.3,3.2-2.7,3.7-4.5,4.7s-3.7,1.8-3.6,4.3c0.1,2,0.7,3.6,3.3,3.5c0.3,0,1,0.8,1,1.3
	c0,1.2-1,1.4-1.9,1.6c-1.7,0.2-3.6,0.3-4.4-1.6c-1.3-2.9-2.2-6,0-8.8C357.6,262.3,361.2,260.9,365.3,260.5z"/>
<path class="st26" d="M248.2,242.1c-0.7,0-1.6,0.1-1.9-0.8c-0.3-0.9,0.2-1.6,0.9-1.9c1.3-0.5,2.6-0.9,3.9-1.3c4-1.1,7.2-3.3,9.6-6.8
	c0.8-1.1,1.5-3.4,3.3-2.1c1.5,1.1,0,2.8-0.8,4C260.4,238,253.5,242.1,248.2,242.1z"/>
<path class="st27" d="M177.2,257c1.8-0.5,2.8,0.3,3.6,1.1c3.1,3.2,6.9,5,11.4,5.7c1.2,0.2,2.4,0.8,3.4,1.5c0.9,0.6,2.6,1.3,1.9,2.7
	c-0.8,1.7-2.2,0.3-3.2-0.1c-5-1.9-10.7-2.1-14.6-6.5C178.6,260.2,177.2,259.2,177.2,257z"/>
<path class="st28" d="M286.2,258.1c-0.3-3.7-1.6-7.3-1.1-11c0.1-0.9,0-2,1.2-2.2c0.9-0.1,1.6,0.6,1.6,1.4c0.1,4.8,2.1,9.4,1.5,14.3
	c-0.2,1.3-0.8,2.7-1.4,3.9c-0.4,0.8-1.2,1.5-2.3,1.1c-1.2-0.5-0.7-1.6-0.4-2.4C285.9,261.5,286.4,259.9,286.2,258.1z"/>
<path class="st29" d="M180.7,297.2c-5.5-1.3-10.6-4.3-14.8-8.8c-0.5-0.6-1-1.3-0.4-2c1-1.2,2-0.3,2.8,0.4c4.1,3.2,8.4,6.2,13.6,7.5
	c0.8,0.2,1.8,0.8,1.5,1.9C183.2,297.4,182.1,297.1,180.7,297.2z"/>
<path class="st30" d="M429.7,334.1c-0.6,0-0.9,0-1.2,0c-1.7-0.2-4.6,0.5-4.6-1.6c-0.1-2,2.8-1.7,4.5-1.8c4.2-0.2,8.4,0,12-2.8
	c0.7-0.5,1.9-0.9,2.5,0.1c0.5,0.9-0.1,1.7-0.8,2.4C438.4,333.8,433.9,333.7,429.7,334.1z"/>
<path class="st16" d="M120.3,204.7c0.5-0.9,0.5-2.5,1.7-2.4c1.7,0.1,1.3,1.9,1.3,2.9c0.1,3.4-0.5,6.8-1.6,10
	c-0.9,2.7-1.3,5.4-1.4,8.1c-2.9,1.1-4.2,0.2-3.6-3.4C117.7,214.9,118.7,209.7,120.3,204.7z"/>
<path class="st26" d="M382.7,339.5c-0.2,1.5-1.3,1.4-2.1,1.1c-5.8-2.5-10.8-5.9-13.8-11.6c-0.4-0.7-0.8-1.4-0.1-2
	c0.7-0.6,1.7-0.4,2.1,0.1c3.2,4.9,8.1,7.8,12.8,11.1C382.1,338.4,382.4,339,382.7,339.5z"/>
<path class="st31" d="M400.4,319.2c1.3,0,3.3-0.5,3.5,1.2c0.2,1.8-1.8,1.7-3.1,1.8c-3,0.2-5.7,1.2-8.2,2.9c-1.5,1.1-3.3,1.7-5.2,1.6
	c-0.8,0-1.6-0.4-1.6-1.3c0-0.5,0.4-1.4,0.8-1.5C391.5,323,395,318.3,400.4,319.2z"/>
<path class="st32" d="M286.4,218.3c-0.1,1.2-0.4,3-1.5,1.9c-2.8-2.7-4.1-6.6-4.3-10.4c-0.1-3,2.7-4.3,5-5.6c0.8-0.5,1.5-0.1,2,0.6
	c0.5,0.6,0.2,1.4-0.3,1.6c-5,2.6-2.8,6.2-1.4,9.8C286.1,217,286.2,217.7,286.4,218.3z"/>
<path class="st33" d="M219.6,291.1c6.2,1.9,11.1,4.9,16.8,4.1c0.8-0.1,1.5,0.6,1.5,1.4c0.1,0.9-0.6,1.2-1.4,1.4
	C231.3,300,223,297,219.6,291.1z"/>
<path class="st34" d="M130.7,200.9c-0.7,1.6,1.4,5-1.4,5.1c-2.2,0.1-1.9-3.5-2.1-5.5c-0.4-3.4,0.7-6.7,1.6-9.9
	c0.3-0.9,0.7-1.8,1.8-1.6c1.3,0.2,1.1,1.3,1,2.2C131.3,194.4,130.1,197.5,130.7,200.9z"/>
<path class="st35" d="M341.1,222c-0.3,4.5-4.1,9.4-8.2,10.6c-0.9,0.3-2.2,1-2.8-0.4c-0.5-1.3,0.7-1.9,1.6-2.4c3.4-1.9,6-4.3,6.5-8.5
	c0.1-1,0.6-2.3,2-1.9C341.6,219.8,340.9,221.2,341.1,222z"/>
<path class="st36" d="M294.6,265.4c-0.6,0.9-1.1,1.8-1.7,2.7c-3.3,1.8-2.9,6.3-5.7,8.4c-0.7,0.7-1.2,2.1-2.5,1.5
	c-1.2-0.6-0.8-1.9-0.5-2.8c1.4-3.9,3.6-7.4,5.9-10.7C292.3,261.6,293.2,264.7,294.6,265.4z"/>
<path class="st37" d="M286.3,237.4c-1.2-0.2-2-0.9-1.4-2.2c1.9-4.4,4.5-8.5,7.4-12.3c0.5-0.6,1.3-1.1,2-0.7c0.4,0.2,0.7,1.2,0.5,1.7
	c-2,4.7-5,8.8-7.7,13.1C287,237.2,286.6,237.3,286.3,237.4z"/>
<path class="st38" d="M387.4,298.8c1.5,0.3,3.5,0.5,3.7,2.1c0.3,2.3-1.6,1.5-2.9,1.4c-0.9,0-1.5,0.4-1.5,1.3c0,1-0.2,2.2,1.3,2.6
	c1,0.3,2.4,0.6,1.6,2.2c-0.7,1.3-2.1,1.1-3.3,0.7c-2.9-1.1-3.2-3.6-3-6.1C383.6,300.8,384.8,299,387.4,298.8z"/>
<path class="st39" d="M149,198.2c2.3,5.7,1.3,11.5,0.9,17.3c0,0.5-0.6,1.2-1.1,1.3c-0.9,0.2-1.5-0.5-1.5-1.3
	C147.4,209.6,146.4,203.7,149,198.2z"/>
<path class="st32" d="M369,336.7c4.8,1.8,6.9,7.2,12.3,6.9c0.3,0,0.9,0.9,0.9,1.4c-0.2,1.4-1.4,1.5-2.5,1.6
	C375.2,346.9,370.4,342.6,369,336.7z"/>
<path class="st40" d="M191.3,294c-0.1,1.3,0.4,3.5-1.5,3.6c-1.8,0.1-1.5-2.1-1.4-3.3c0-3.7-2.7-4-5.2-4.6c-1.2-0.3-2.9-0.3-2.6-1.8
	c0.2-1.5,1.9-1.2,3.1-1.1C188.6,286.8,191.3,289.3,191.3,294z"/>
<path class="st41" d="M363.4,234.7c-0.4-0.1-1.9,0.5-2.2-0.9c-0.3-1.4,1.1-1.8,2.1-1.9c3.6-0.5,6.8-1.7,9.8-3.7
	c0.8-0.5,1.9-0.8,2.5,0.1c0.8,1.2-0.2,1.9-1.1,2.6C371.5,233.2,368.1,234.9,363.4,234.7z"/>
<path class="st34" d="M144.2,176.9c-1.3-0.2-1.5-1.1-1.3-2.1c0.8-3.9,2.1-7.7,4.5-11c0.5-0.7,1.1-1.1,2-0.9c0.8,0.1,1,0.8,0.8,1.4
	c-1.6,4-3.2,8-4.9,12C145.1,176.5,144.6,176.7,144.2,176.9z"/>
<path class="st42" d="M373.7,316.5c0,1.8,1.8,3.5-0.7,3.9c-1.7,0.3-2.5-1.3-2.8-2.6c-0.5-3-0.8-6.1-1.1-9.2c-0.1-1,0.2-2.4,1.7-2.3
	c1.2,0,1.2,1.2,1.4,2.1C372.8,311.3,373.3,314.2,373.7,316.5z"/>
<path class="st43" d="M120.3,204.7c0.2,4-1,7.8-2.2,11.6c-0.6,2-0.6,3.9-0.5,5.9c0.1,2.1,1.2,2.2,2.7,1.1c0.1,0.3,0.1,0.6,0,0.9
	c-1.3,1.5-3,2.3-5.2,2.9c0.4-8.8,3.2-16.9,4.2-25.3C119.9,202.8,119.3,204,120.3,204.7z"/>
<path class="st44" d="M255,304.8c-0.5,0-2.1,0.2-2.3-1.4c-0.2-1.6,1.5-1.3,2.4-1.4c2.9-0.5,5.6-1.7,8.2-3.2c0.9-0.5,2-1.5,2.9-0.3
	s-0.3,2-1.1,2.6C262.3,303.4,259.2,304.6,255,304.8z"/>
<path class="st45" d="M276.6,283.9c-1.7-0.3-3,2-4,0.1c-0.8-1.8,1.1-2.7,2.2-3.4c1.2-0.7,2.9-1.5,4,0.4c0.2,0.4,0.5,0.8,0.6,1.2
	c0.3,2.6,1.3,5.6-0.9,7.4c-2.2,1.8-1.8-0.7-1.9-1.9C276.5,286.5,276.6,285.2,276.6,283.9z"/>
<path class="st46" d="M265.2,433.4c3.2-1.4,12.4,0.7,14,2.9c0.4,0.6,0.7,1.2,0.2,1.6c-0.4,0.3-1.2,0.5-1.7,0.3
	C273.7,436.7,269.3,436.2,265.2,433.4z"/>
<path class="st47" d="M360.7,200.5c2.9,0.5,5.7,1.5,8.1,3.3c0.7,0.5,1.6,1.3,0.9,2.3c-0.5,0.7-1.3,0.5-2.1,0.2
	c-2.5-0.8-4.7-2.3-7.4-2.6c-1.2-0.1-2.9-0.3-2.7-1.8C357.6,200.2,359.2,200.2,360.7,200.5z"/>
<path class="st48" d="M167.7,280.9c-0.4,1.1-1.2,1.2-2.2,1.1c-2.5-0.5-6.9-5.9-6.9-8.6c0-0.5,0.2-1.3,0.6-1.6
	c0.4-0.2,1.4-0.1,1.6,0.2c1.8,3,3.8,5.9,6.6,8C167.6,280.2,167.6,280.6,167.7,280.9z"/>
<path class="st27" d="M384.8,332.8c-0.1,1.6-1.3,1.7-2.3,1.4c-3.3-1.2-5.9-3.2-7.7-6.2c-0.4-0.6-0.6-1.6,0-2.1
	c0.3-0.3,1.2-0.2,1.6,0c2.7,2,5.3,4.1,7.9,6.2C384.6,332.2,384.7,332.5,384.8,332.8z"/>
<path class="st19" d="M274.2,228.1c-2.1-0.6-4.2-0.4-6.4,0c-0.9,0.2-2,0.3-2.2-1c-0.2-1.1,0.6-1.7,1.5-2.1c2.7-1.1,5.4-1.2,8.1,0
	c0.9,0.4,1.8,0.9,1.6,2C276.6,228.7,275.3,228,274.2,228.1z"/>
<path class="st14" d="M465.3,262c-0.1,0.7-0.1,1.1-0.1,1.3c-0.5,2.1,0.3,5.7-2.6,5.4c-2.3-0.2-0.7-3.4-0.6-5.2
	c0.1-0.9,0-1.9,0.1-2.8c0.2-1.4-1.8-4,0.9-4.1c2.2-0.1,2.1,2.6,2.3,4.4C465.4,261.5,465.3,262,465.3,262z"/>
<path class="st49" d="M307.5,489.1c-0.5,1.8-0.5,4.1-2.6,4c-2.1,0-0.9-2.1-1.2-3.3c-0.3-1.6-1.1-3.1-1.6-4.7c-0.2-0.9-0.2-2,0.7-2.4
	c1.1-0.5,1.7,0.5,2.1,1.2C306,485.6,306.8,487.4,307.5,489.1z"/>
<path class="st50" d="M198.8,287.6c-1-0.1-1.8-0.6-2.1-1.6c2.3-3.9,6.4-1.5,9.4-2.7c0.5-0.2,1,0.6,0.9,1.3c-0.1,1.1-1,1.5-1.7,2.1
	C203.4,288.4,200.8,285.7,198.8,287.6z"/>
<path class="st51" d="M235.7,421.9c0.1,1.1-0.8,1.4-1.5,1.3c-3.3-0.4-6.2-1.8-9-3.5c-0.5-0.3-0.9-0.9-0.5-1.6
	c0.3-0.7,0.9-0.9,1.5-0.7c3,1.2,5.9,2.5,8.9,3.8C235.3,421.3,235.5,421.7,235.7,421.9z"/>
<path class="st52" d="M241.3,425.2c4.8-1,8,0.9,11.4,2.1c0.6,0.2,1.1,0.8,0.8,1.4c-0.4,1-1.2,1.3-2.3,1
	C248,428.7,244.7,428.2,241.3,425.2z"/>
<path class="st53" d="M204.9,198.6c-1.1,2.7-1.9,5.6-4.8,7.1c-0.7,0.4-1.8,0.1-1.7-0.8c0.6-3.1,2.4-5.6,4.4-8
	c0.2-0.3,0.9-0.4,1.2-0.3C204.8,197,205,197.8,204.9,198.6z"/>
<path class="st54" d="M440.3,334.4c0.5,0.2,1.1,0.4,1.6,0.6c0.7,0.3,0.8,1.4,0.6,1.5c-3.8,0.5-2.1,4.5-4,5.9
	c-0.7,0.5-2.2-1.3-2.6-2.6c-0.5-1.8,0.1-3.4,1.6-4.4C438.4,334.9,439.3,334.7,440.3,334.4z"/>
<path class="st55" d="M321.4,454.1c2.8,1,5.2,2.9,7.4,4.9c0.9,0.9-0.9,1.7-1.9,1.5c-2.8-0.5-4.9-2.5-6.8-4.4
	C318.8,454.9,320,454.4,321.4,454.1z"/>
<path class="st56" d="M429.9,317.5c-2.5,3.9-6,3.3-9,3.9c-0.3,0.1-0.9-0.4-1-0.7c-0.4-0.9,0.2-1.5,0.8-1.9
	C423.3,316.8,426.2,317.3,429.9,317.5z"/>
<path class="st36" d="M154.6,153c-1.4,4.2-4.5,5.7-6.7,7.9c-0.5,0.5-1.1,0.4-1.7-0.1c-0.7-0.5-0.4-1.2-0.1-1.7
	C147.9,156.3,150.2,153.9,154.6,153z"/>
<path class="st57" d="M404,236.7c-1.4-0.1-1.7-0.9-1.7-1.9c-0.1-1.8,0.6-3.3,1.7-4.6c0.8-0.9,1.6-2.8,3.2-1.8
	c1.8,1.1,0.3,2.6-0.5,3.5C405.5,233.3,406.1,235.8,404,236.7z"/>
<path class="st36" d="M307.8,289.8c-0.8-0.3-1.2-0.9-1.2-1.8c0-2.1,0.9-3.9,2.4-5.3c0.7-0.7,1.7-1.7,2.8-0.7c1.1,1,0.1,1.9-0.4,2.8
	c-0.7,1.2-1.4,2.4-1.9,3.7C309.1,289.3,308.7,289.8,307.8,289.8z"/>
<path class="st24" d="M325,276.6c-0.6,0-1.3,0-1.5-1s4.7-5.9,5.9-5.9c0.8,0,1.5,0.3,1.4,1.3C330.7,272.5,326.8,276.5,325,276.6z"/>
<path class="st42" d="M280.2,290.8c0.3-1,0-3.3,1.8-2.9c2.5,0.6,1.3,3.9,3.1,5.6c0.5,0.5-0.9,1.5-1.8,1.4
	C281.1,294.5,280.1,293.1,280.2,290.8z"/>
<path class="st34" d="M145.9,340.8c0,1.2-0.5,2.3-1.6,1.7c-2.3-1.4-3-4.1-4.1-6.3c-0.4-0.8,0.4-1.8,1.1-1.6
	C144.2,335.6,145.2,338.2,145.9,340.8z"/>
<path class="st55" d="M345.7,210.1c-1.4-0.2-3.2-0.2-2.7-1.8c0.7-2.2,3-1.6,4.8-1.7c1.4-0.1,3.6,0,3.2,1.5
	C350.4,211,347.2,208.8,345.7,210.1z"/>
<path class="st58" d="M349.2,261.4c-1.3-0.6-1.9-1.5-1.4-2.7c0.8-2,1.7-4.1,4.1-4.5c0.8-0.1,1.4,0.9,1,1.7
	C351.9,257.9,351.2,260.2,349.2,261.4z"/>
<path class="st41" d="M278.2,256c-0.6,1.9-0.2,4.5-3,5c-1.2,0.2-1.6-1.1-1.2-1.9c1.1-1.9,0.1-5.1,2.8-5.9
	C278.4,252.7,278.1,254.8,278.2,256z"/>
<path class="st51" d="M322.1,241.2l0.3,0.2v0.4c-0.3,2.7-1.8,4.7-4.3,5.9c-0.5,0.2-1.4-0.3-1.2-0.9
	C317.5,243.8,319.2,241.9,322.1,241.2z"/>
<path class="st47" d="M303.5,298.3c-1.3,0.1-1.7-0.6-1.6-1.4c0.3-2.1,0.6-4.4,2.7-5.5c0.8-0.5,1.2,0.7,1.2,1.4
	C305.9,295.1,305.3,297.1,303.5,298.3z"/>
<path class="st59" d="M315.7,289.2c-1-0.3-1.6-1-1.3-2c0.5-1.5,0.7-3.5,2.6-4c1.1-0.3,1.8,0.7,1.5,1.7
	C318.1,286.6,317.7,288.5,315.7,289.2z"/>
<path class="st60" d="M389.3,283.9c1.2,0.1,2.7,0.2,2.6,1.8c-0.1,1.5-1.5,1.9-2.8,1.7c-1.3-0.2-3.1-0.5-2.9-2.2
	C386.4,283.7,388.1,283.9,389.3,283.9z"/>
<path class="st61" d="M461,242.6c1.9,0.2,2.7,1.7,3.2,3.4c0.2,0.7,0.2,1.8-0.8,1.8c-2.3,0-2.9-2.1-3.7-3.6
	C459.2,243.2,460.1,242.8,461,242.6z"/>
<path class="st49" d="M313.6,250.4c-1.3-0.1-1.6-0.8-1.5-1.6c0.3-1.7,0.9-3.4,2.8-3.7c1.2-0.2,1.3,1.1,1.1,2
	C315.6,248.7,314.9,249.9,313.6,250.4z"/>
<path class="st62" d="M390.5,140.5c-2,3.1-3.9,6.2-5.9,9.3c-0.3-0.2-0.6-0.4-1-0.5c1.9-3.3,3.8-6.6,5.8-10
	C389.8,139.7,390.1,140.1,390.5,140.5z"/>
<path class="st63" d="M303.3,475.8c1.1,0.6,1.6,1.5,1.2,2.7s-0.6,2.7-2.1,2.6c-0.9,0-1.5-1-1.3-2.1
	C301.3,477.6,301.7,476.3,303.3,475.8z"/>
<path class="st64" d="M287.2,276.5c1-3.4,2.9-6.2,4.9-9.1c0-0.1,0.3,0,0.4,0c0.2,0.2,0.3,0.4,0.5,0.7c-2.2,2.8-3.2,6.3-4.8,9.4
	C287.8,277.2,287.5,276.9,287.2,276.5z"/>
<path class="st65" d="M363.6,319.5c-0.3-1,0.1-1.6,1-2.1c1.7-0.2,2.6,0.6,2.7,2.2c0,0.5-0.4,1.2-0.8,1.4
	C364.9,321.8,364.6,319.9,363.6,319.5z"/>
<path class="st66" d="M239.6,286.3c0,1-0.6,1.6-1.4,1.6c-1.2,0-2-0.8-2.1-1.9c-0.1-1,0.4-1.9,1.5-1.8
	C238.9,284.3,239.3,285.3,239.6,286.3z"/>
<path class="st67" d="M287.9,299.2c0,1-0.4,1.9-1.4,1.9s-1.4-1-1.4-1.9c0-1,0.3-1.9,1.4-1.9C287.4,297.3,287.8,298.2,287.9,299.2z"
	/>
<path class="st68" d="M280,246.4c2,1.1,1.8,2.7,1.4,4.4c-0.2,0.5-1,0.9-1.5,0.3C278.7,249.5,279.3,247.9,280,246.4z"/>
<path class="st69" d="M276,249.3c-0.1,1.1-0.5,2-1.6,1.9c-1.2,0-1.3-1.1-1.4-2c0-0.8,0.2-1.6,1.2-1.6
	C275.4,247.6,275.9,248.3,276,249.3z"/>
<path class="st70" d="M318,329.9c-5.3,3.6-10.8,6.7-16.4,9.7c-1.1,0.6-3.2,1.2-2.4,2.8c1.1,2.2,2.6,0.1,3.8-0.4
	c5.9-2.5,11.2-5.9,16.6-9.3c1.6-1,3-2.1,5-2.4c1-0.1,2.3-0.8,2.6-1.6c2.8-6.6,7.3-12.8,5.1-20.6c-1.4-5,1.1-9.8,0.6-14.8
	c-0.2-2.4,3.3-1.9,5.2-3.2c0.2,2.2,0.3,4,0.5,5.8c0.1,0.8,0.6,1.6,1.4,1.6c0.9,0,1.2-0.8,1.2-1.7c0-2.1,0-4.3,0-6.3
	c4.3,1.1,4.2,1.1,4.9,5.6c0.9,5.7,0.9,11.4-0.1,17.1c-0.3,1.6-0.2,3.3-0.3,5.2c2.8-0.3,2.6-2.2,2.9-3.8c1-5.5,1.9-10.9,3.9-16.2
	c1.1-2.8,3-3.9,5.2-2.9c1.9,0.9,3.1,2.6,1.4,5.6c-1.9,3.3-2.3,7.5-3.6,11.9c5.5-2,4.7-6.7,6.1-10.7c2.7,9.5,1.8,13.8-4.1,20.3
	c-0.1,0.1-0.2,0.2-0.3,0.3c-1.1,1.6-3.6,3.4-1.8,5.1c1.9,1.8,2.2-2.4,4.1-2.4c2.2,12.7,2.2,12.7-2.5,15.9c-0.2-0.2-0.5-0.4-0.5-0.6
	c-0.5-2,0.2-5.5-2.4-5.1c-2.3,0.4-1,3.8-0.4,5.6c1.2,3.6-0.6,3.7-3.1,3.3c-2-0.3-3.9-0.8-5.9-1.3c-0.8-0.2-2-0.5-1.5-1.8
	c0.5-1.1,1.7-2.3-0.1-3c-1.4-0.5-2,1.1-2.8,2c-2,2.4-4.7,2.3-7.3,1.9c-3.6-0.4-6.9-0.2-10.2,1.8c-3.2,1.9-7.2,1.7-10.9,1.9
	c-6.4,0.3-12.6,1.3-18.6,3.8c-1.8,0.8-3.6,1.8-5.2,3c-2,1.6-5.4,4-3.7,6c1.8,2.1,3.3-1.9,5-3.1c6.4-4.8,13.9-5.9,21.5-6.5
	c5.6-0.4,10.8-1.5,16.2-3.2c4.9-1.5,10.7-1.8,16.1-0.1c1.6,0.5,3.3,1,4.9,1.3c3.3,0.7,5.2,6.6,3.2,9.3c-4.3,5.6-10.3,7.2-16.9,7.1
	c-6-0.1-12.1-0.3-18.1-1c-9.7-1.1-19.4-1.6-29.2-1c-6.2,0.3-8.9-2.1-10.2-7.8c-0.4-1.8,0.8-2.5,1.8-3.4c3.2-3.1,5.4-6.7,5.7-11.3
	c0.5-6.6,2.6-8,9.2-6.7c0.7,0.2,1.9,0.8,2.1,0.6c4.7-5.4,10.1-0.5,15-1C313.2,331.1,314.9,327.6,318,329.9z"/>
<path class="st71" d="M284.2,327c0,2.7-2,3.3-3.5,4.3c-2.8,2-4.8,4.3-5.1,7.9c-0.1,1.2-0.3,2.3,1.1,2.6c1.1,0.2,1.6-0.9,1.8-1.7
	c0.5-1.8,0.6-3.7,2.5-4.5c1.7,6.9-3.2,8.5-8,10.4c-1.3,0.5-4.1,0.1-3.4,2.7c0.6,2.1,2.8,0.7,4.3,1.4c-6,3.2-11.6,0.4-16.9-0.6
	c-0.8-0.7-0.7-0.8-0.3-1.1c1.4-1.1,5.1-0.2,4.2-2.8c-0.9-2.4-4.2-1-5.7,0.1c-3.1,2.5-6.1,1.7-9.1,0.5c-5.7-2.2-11.9-3.3-16-8.6
	c-1.2-1.6-3.6-2.3-5.5-3.4c-0.9-0.5-2.4-0.5-2.4,0.3c0.4,5-2.6,1.5-3.4,1.2c-5.6-1.8-11.1-3.8-16.6-5.9c-6.3-2.4-6.9-3.7-4.6-9.8
	c1-2.7,1.6-5.6,0.7-8.2c-1.9-5.4-1.3-10.8-0.6-16.3c0.1-0.8-0.6-2,0.9-2.1c1.3-0.1,1.3,1,1.5,1.9c0.2,0.6,0.1,1.3,0.3,1.8
	c0.6,1.4,0.3,4.1,2.6,3.5c2.2-0.6,0.1-2.6,0.3-4c0.1-0.6-0.1-1.2-0.1-1.9c0.1-0.8-0.5-2.1,0.9-2.2c1.5-0.1,1.5,0.9,1.7,2.2
	c0.6,4.9,1.3,9.8,2,14.7c0.1,0.8,0.1,1.6,0.4,2.3c0.6,1.1,0.8,3.1,2.7,2.5c1.6-0.5,0.8-2.1,0.5-3.2c-0.8-3.7-1.9-7.4-0.8-11.4
	c1.9,4.1,4,8.2,5.7,12.4c2.9,7.1,7.5,13.1,11.2,19.8c0.4,0.8,1.1,1.9,2.1,1.5c1.3-0.5,0.9-1.9,0.5-2.8c-1-2.1-2.1-4.1-3.3-6.1
	c-3.3-5.1-6-10.4-8.5-15.9c-1.3-2.9,0.3-4.2,1.9-5.3c1.9-1.2,3.6,0,4.7,1.7c0.6,0.9,1.2,1.9,1.5,2.9c2.1,9.8,9.4,16.2,15.5,23.2
	c1.1,1.2,2.2,2.7,4.2,2.3c-1.4-2.9,4.8-2.3,2.6-5.9c-1.3-2.2,1.6-2.7,2.6-4.2c1,2.8,1.3,5.5,3.1,7.5c0.9,1.1,1.9,2.4,3.4,1.6
	c1.6-0.8,0.8-2.1,0-3.1s-0.3-1.7,0.5-2.2c0.5-0.3,1.1-0.6,1.6,0.1c1.1,1.7,1.7,4.5,4.4,3.9c2.3-0.5,2.6-3.3,4.3-4.7
	C273.7,328.8,278.9,329.1,284.2,327z"/>
<path class="st72" d="M220.1,376.9c3.4,5.2,7.4,9.9,11.6,14.4c4,4.3,8.1,8.6,11.4,13.6c-4.9-4-9.8-8.1-14.8-12
	c-11.3-9-23-17.2-35.2-24.9c-3-1.9-2.3-3.7-1.5-6c0.5-1.4,1-1.4,2.3-0.9c3.6,1.5,7.4,2,11.2,2.8s5.2,5.1,8.7,6.6
	C211.8,374.6,214,376.8,220.1,376.9z"/>
<path class="st70" d="M121.7,227.7c-0.9,3.5,0.1,6,1.8,8c1.9,2.2,0.9,3.1-1.1,3.9c-6.8,2.9-13.6,5.9-20.4,8.9
	c-1.4,0.6-2.2,0.2-3.2-0.8c-2.4-2.5-3.6-5.6-4.1-8.7c-0.5-2.9,2.1-4.1,4.7-4.6c3.8-0.7,7.6-1.3,11.4-2.1
	C114.5,231.6,117.7,229.7,121.7,227.7z"/>
<path class="st71" d="M150,240.1c-6.7-2.1-13.5-3.1-20.6-3.1c-2.8,0-3.7-3.3-4.7-5.6c-1-2.2,1.1-3.6,2.4-5.1
	c1.4-1.7,2.9-1.7,4.8-0.8c6.6,3.1,13.7,4.8,20.9,6c2.4,0.4,3,1.1,1.4,3.2c-0.8,1.1-1.4,2.5-1.7,3.8
	C152.3,240.3,151.5,240.6,150,240.1z"/>
<path class="st73" d="M263.2,399.5c2.3-0.6,4.5-1.2,6.7-1.8c0.9-0.2,2.1-0.6,2-1.6c-0.2-1.3-1.5-1.5-2.6-1.2
	c-3.4,0.7-6.8,1.5-10.2,2.2c-0.1-0.4-0.2-0.7-0.4-1.1c4.9-1.5,9.7-3.3,14.7-4.5c4.2-1,8.5-1.5,12.8-2.2c2.4-0.4,3.9,0.1,5.1,2.6
	c3.1,6.6,2.6,7.9-4.5,9.1c-4.4,0.7-8.9,1.1-13.3,2.1C269.2,404.1,265.9,403.1,263.2,399.5z"/>
<path class="st71" d="M125.3,274.7c0.8,2.2-0.9,3-3.5,3.7c-5.4,1.3-10.7,2.8-15.2,6.4c-1.9,1.5-4.2,0.6-5.9-0.8
	c-1.9-1.6-2.8-4.1-3.1-6.4c-0.2-1,1.5-1.5,2.5-1.7c7.2-1.8,14.4-3.5,20.6-8c2-1.5,3.5-0.4,4,1.9C124.9,271,125,272.4,125.3,274.7z"
	/>
<path class="st71" d="M131.7,247.4c6.4,1.3,13,1.9,19.7,2.3c2.5,0.1,3.2,1.3,1.8,3.7c-2.1,3.3-3.7,6-8.7,3.8
	c-4.8-2.2-10.4-1-15.6-1.6c-3.2-0.4-3.3-1.7-3.8-3.8c-0.6-2.7,1-3.6,3.2-4C129.5,247.6,130.5,247.5,131.7,247.4z"/>
<path class="st73" d="M101.3,231c0.7-5.5,3.3-9.8,4.6-14.6c0.7-2.6-1-6,0.6-7.5c1.5-1.4,4.9,0.8,7.4-0.4c0.3-0.1,0.6,0,1.4,0
	c-1.3,6.4-3,12.5-3.1,18.9c0,1.5-1.2,1.5-2.3,1.7C107.2,229.7,104.5,230.3,101.3,231z"/>
<path class="st72" d="M128.1,272.3c-0.8-3.3,0.7-3.5,3.2-2.9c3.6,0.9,7.2,1.9,11,1.4c3.1-0.4,5.4,0.7,6.9,3.4c0.7,1.2,2.4,2.2,1.1,4
	c-1.2,1.7-2.8,2.5-4.8,1.9c-5-1.6-9.9-3.2-15.3-3.1C127.5,277.1,128.7,273.8,128.1,272.3z"/>
<path class="st74" d="M285.7,382.6c-7.3-2.2-14.2-1.2-21.1-0.5c-1.8,0.2-3.7,0.2-5.5,0.5c-3.9,0.7-4.3-1.4-4-4.5
	c0.2-2.4,0.6-3,3.3-2.1c4.1,1.4,8.6,0.6,12.9,0.5c3.3-0.1,6.5,0.1,9.7,0.6C283.8,377.6,285.8,378.9,285.7,382.6z"/>
<path class="st75" d="M379.3,398.7c-0.1,2.7-0.8,4.8-3.8,5.6c-2.7,0.8-4.9,0.5-6.2-2.2c-0.1-0.1-0.2-0.3-0.3-0.4
	c-6.4-8.6-6.4-8.6,3.8-11C375.2,390.2,379.2,395.1,379.3,398.7z"/>
<path class="st76" d="M225,379.1c6.3,0.8,10.4,2.7,13.2,7.2c1.8,3,4.6,5.2,7.8,6.2c4.7,1.4,5.1,4.2,3.4,8.2
	C238.1,397.5,233.4,387.1,225,379.1z"/>
<path class="st72" d="M288.1,374.6c-0.5,0.5-0.8,1-0.9,0.9c-8.1-3.4-16.7-1.9-25-2.1c-1.7-0.1-4.9,0.5-4.1-2.3
	c0.7-2.2-1.6-7.6,4.8-6.1C271.7,367,279.7,371.2,288.1,374.6z"/>
<path class="st71" d="M133,319.8c-1.2-2.6-3.9-3.1-6.4-3.8c1.4-3.1-2.7-5.7-0.9-8.8c1-1.7,0-5.1,2.5-5.3c3-0.3,4.7,2,5.5,5
	c0.4,1.6,1.5,3,2.3,4.5c0.6,1,2.8,1.6,2.1,2.7c-1,1.8-2.5,3.3-3.4,5.2C134.5,319.6,133.8,319.6,133,319.8z"/>
<path class="st75" d="M360.6,381c0-0.3-0.1-2.4,0.4-2.6c3.1-1.1,7.1-2.5,9.6-1.9c3.2,0.7,3.4,6.1,3,9c-0.6,4.4-5.7,3-8.7,3.3
	C360.5,389.3,360.6,385.2,360.6,381z"/>
<path class="st72" d="M277.4,405.9c4.9-1.3,12.4,1.9,14.9,6.2c0.6,1,0.5,1.7-0.2,2.4c-0.5,0.6-0.9,1.3-1.5,1.7
	c-1.9,1.3-2.9,4.6-5.8,3.7c-2.6-0.8-3.4-3.4-3.9-6.1C280.2,411.1,278.6,408.6,277.4,405.9z"/>
<path class="st77" d="M172.3,350.7c4.9,3.3,9.2,8.4,16.9,5.3c-1.5,3.9-3.2,6.7-6.5,7.9c-2.3,0.8-11.2-2.9-12.2-4.6
	C169.2,357,169.6,355,172.3,350.7z"/>
<path class="st78" d="M187.7,364.5c-3.6,11.4-0.8,12.1-13.5,7.8c-3.3-1.1-7-2.2-6.2-7.1c0.3-1.9,0.6-2.7,2.9-1.5
	c2.6,1.3,5.5,2,8.3,2.8C181.9,367.3,184.5,367.4,187.7,364.5z"/>
<path class="st79" d="M119.8,281.6c0.8,1.2,0.8,3,2.7,3.3c6.1,1,7.5,5.6,8.1,10.8c0.1,1.2,0.3,2.4,0.4,3.6c-2.8-0.1-4.4-1.4-5.9-3.7
	c-1.5-2.4-3.8-4.4-5.9-6.4c-2.9-2.8-6-4.7-9.9-0.8C111.3,283.5,116.5,284,119.8,281.6L119.8,281.6z"/>
<path class="st80" d="M191.8,347.3c-1,3.6-2.7,6.1-6.4,6.6c-2.9,0.4-10.2-3.8-11.6-6.6c-1.2-2.6,0.1-4.4,1.9-6
	C180.4,344.9,185.2,348.2,191.8,347.3z"/>
<path class="st76" d="M155.1,246.9c-6.4-0.7-12.5-1.3-18.6-2c-3.2-0.4-6.4-1.3-9.6,0.1c-2.3,1-3.6-1-5.7-1.5
	C131.9,238.8,149.3,240.5,155.1,246.9z"/>
<path class="st81" d="M119.9,281.7c2.9-0.5,5.8-0.8,8.7-1.4c4.5-0.8,7.6,0.4,9,5.2c1.5,5,0.6,8.1-3.8,11c-0.9-3.7-0.7-7.8-3.3-10.8
	C127.7,282.5,123.7,282.3,119.9,281.7C119.8,281.6,119.9,281.7,119.9,281.7z"/>
<path class="st75" d="M229.5,358.6c-12.5,1.7-25.1,4.4-37.1-1.9C204.8,356.4,217.2,356.3,229.5,358.6z"/>
<path class="st80" d="M123.2,304.1c-1.5-1.4-2.6-2.5-4-2.2c-4.3,0.9-6.5-2.5-8.3-4.9c-1.6-2.1,1.2-4.7,2.4-6.7
	c1.1-2,2.8,0.2,3.6,1.1C120,294.8,125.2,297.3,123.2,304.1z"/>
<path class="st74" d="M248.9,390.4c-3.9-1.4-7-3.8-9.3-7.4c-2.6-4.2-6.8-5.8-11.3-6.6c-2.5-0.4-4.1-1.7-5.7-3.7
	c2.9-2.4,5.1-2.2,8,0.1c5.8,4.5,12.1,8.4,18.2,12.6C249,387.1,251.3,388.8,248.9,390.4z"/>
<path class="st80" d="M364.3,374.3c-5,0.8-5.3-2.1-5.3-5.1c0-4,3-6.3,9.1-5.4c3.1,0.5,2.5,4.7,2.5,7
	C370.5,375.4,366,373.6,364.3,374.3z"/>
<path class="st82" d="M134.8,172.3c-3.4,3.8-7,7.4-8.7,12.4c-0.5,1.6-2.3,2-4,1.6c-2.5-0.7-2.6-3.2-3.5-5.1c-0.7-1.4-0.1-2.4,1.2-3
	C124.6,175.8,129.4,173.4,134.8,172.3z"/>
<path class="st83" d="M161.3,312.8c6.9-2.8,13.3-3.7,19.1-6.3c1.3-0.6,2.3,0.6,2.3,2.1c0,1.7,0.9,3.3-1.8,4.4
	C174.6,315.5,168.6,315.3,161.3,312.8z"/>
<path class="st80" d="M234,361.2c3.3,1.3,5.2,4,7.6,6c3.9,3.3-2.1,5.3-0.4,9.1c-2.3-1.6-3.7-2.5-5.1-3.4c-3.3-2.3-8.3-4-2.9-9
	C233.9,363.4,233.8,362.3,234,361.2z"/>
<path class="st84" d="M371.9,360.7c6.7,2.8,13.3,4.8,18.7,10.3c-5.3-0.3-10.1-0.7-14.8-0.8c-1.6,0-2.1-0.6-2.4-2
	C373,365.7,372.5,363.4,371.9,360.7z"/>
<path class="st79" d="M196.6,334.4c-0.6,1.5-0.5,4.5-4.1,3c-2.8-1.2-5.7-2.4-8.5-3.7c-1.4-0.7-2.6-1.7-2.9-3.4
	c-0.3-1.7,0.5-3.1,1.7-4.1c1.5-1.3,2.2,0.5,3,1.1c2.8,2.3,5.7,4.3,9.3,4.9C196,332.3,197,332.3,196.6,334.4z"/>
<path class="st81" d="M177.9,327.2c-1.1,7-3.1,8.7-9.3,8.7c-3.5,0-7.1,0-11.3,0C164,331.8,170.6,329.3,177.9,327.2z"/>
<path class="st81" d="M377.4,385.1c6.4,2.4,11.9,5.8,18.6,7.3C382.7,397.9,380.5,396.9,377.4,385.1z"/>
<path class="st85" d="M123.6,313.7c-0.4,2.5-0.9,4.5-3.7,2.7c-2.1-1.4-4.4-2.2-6.9-2.3c-1.6-0.1-2.2-1-2.5-2.2
	c-0.5-1.7,1.1-1.4,2-1.8c0.5-0.2,1.1-0.6,1.5-1.1c1.6-1.7,3.4-5.2,5.6-3.5C121.7,307.3,122.3,311.1,123.6,313.7z"/>
<path class="st74" d="M288.4,404.4c8.9-3.7,9.2-4.4,6-13.9c4.6,1.5,8.3,11,5.6,14.5C298,407.6,291.7,407.3,288.4,404.4z"/>
<path class="st79" d="M211.3,364.2c6.7-0.8,12.9-1.5,19.4-2.2C226,370.7,219.1,371.4,211.3,364.2z"/>
<path class="st86" d="M189,344.3c-4.1-0.2-7.4-2.2-10.3-4.8c-1.2-1.1-2-2.9-0.6-4.6c1.7-2,2.2,0.6,3.2,1c3.3,1.3,6.5,2.8,9.7,4.4
	c1,0.5,3.4-0.2,2.8,2c-0.4,1.4-2,1.8-3.5,1.9C189.9,344.3,189.5,344.3,189,344.3z"/>
<path class="st77" d="M193.4,321c-1.8-2.1-3.2-3.8-4.7-5.6c-1.6-1.9-3.5-4.5-2.6-6.5c0.9-2.1,4.4-0.9,6.6-1.8
	c1.4-0.5,1.5,0.7,1.7,1.5C195.4,312.5,195.9,316.3,193.4,321z"/>
<path class="st81" d="M365.9,351.5c-0.8,3.3,5.5,6.7-0.2,9.5c-2.6,1.3-6,1.4-7.2-1.8C356.1,352.5,363.3,354,365.9,351.5z"/>
<path class="st81" d="M202.3,377.9c-6.1,0-10.8,0-16,0c1.1-2.7,2-5,2.9-7.4c0.2-0.6,0.6-1.3,1.2-0.8
	C194.1,372.1,197.7,374.7,202.3,377.9z"/>
<path class="st81" d="M254,397.4c3.1,2.2,5.8,4.4,8.7,6.1c2.6,1.6,1.4,3.3,0.6,5c-1.3,2.5-2.7,0.3-3.7-0.2
	C252.7,404.2,252.2,403,254,397.4z"/>
<path class="st87" d="M256.2,414.8c1.2-3,2.7-3.7,5.4-2.3c6.2,3.3,12.6,6.2,19.2,8.6C272.3,420.3,264.4,417.6,256.2,414.8z"/>
<path class="st88" d="M162,322.5c6.9-1.2,12.5-2.8,17.8-5.4c2,5.1,1.9,5-3,6.2C172.2,324.4,167.7,324.4,162,322.5z"/>
<path class="st83" d="M374.9,373.4c5.1,1.7,9.3,4.6,13.8,7.9C374.3,382.2,376.4,383.8,374.9,373.4z"/>
<path class="st89" d="M251.4,380.7c-7.8-2.1-9-4.1-5.9-8.7c1.3-1.9,2.5-1.9,4.1-0.8c1.4,0.9,3.8,0.8,2.8,3.7
	C251.8,376.7,251.8,378.6,251.4,380.7z"/>
<path class="st90" d="M255.5,410c-1,1.2-1.8,3.7-3.8,3c-2.4-0.8-6.1-0.7-6.8-3.5c-0.4-1.6,1.3-4.4,3.6-5.3
	C249.6,403.8,255.5,408.6,255.5,410z"/>
<path class="st84" d="M158.7,234.1c2.4,5,4.5,9.6,5,14.8C153.4,243,154.2,240.1,158.7,234.1z"/>
<path class="st91" d="M368.5,348.6c5.4,1.5,10,4.2,14.9,7.7c-4.4,0.9-8.2-0.2-11.8-0.7C368.4,355.2,370.2,350.9,368.5,348.6z"/>
<path class="st83" d="M358.5,351c-2.7,0.2-4.6-0.6-4.2-2.6c0.7-2.9,3.4-4.4,6.2-4.7c2.2-0.3,3.8,2,3.6,3.5
	C363.7,350.6,360,349.9,358.5,351z"/>
<path class="st89" d="M141,304.3c-0.1,2.2,0.1,5.2-1.5,5.6c-2.2,0.5-2.3-2.6-3.3-4.2c-1.5-2.4-0.8-4.7,0.4-6.9
	c0.3-0.5,0.8-1.1,1.4-0.6C140.1,299.8,141,302,141,304.3z"/>
<path class="st92" d="M184.1,315.2c3.5,5.1,9.2,6.9,9.3,13C187.2,325.9,183.9,321.8,184.1,315.2z"/>
<path class="st93" d="M254.6,387.2c3.5,1,7,2,10.5,3c-4.6,0.2-8.3,6.3-13.4,1.8C252.5,390.3,250.6,387,254.6,387.2z"/>
<path class="st94" d="M302.1,390.7c-3.6-2.3-7.2-4.4-11.2-5.8c-3.8-1.3-1.1-4.4-2-6.5C293.6,382.2,298.6,385.7,302.1,390.7z"/>
<path class="st95" d="M284.8,385.9c-8,2-15,2.1-23.1-0.1C269.8,384.8,276.8,383.3,284.8,385.9z"/>
<path class="st96" d="M157.7,267.4c-6.5-6.5-6.5-6.5-1.4-11.9C157.1,259.4,159.6,262.8,157.7,267.4z"/>
<path class="st97" d="M269.8,306.9c2.3,1.7,3.1,4,5.2,5.1c1.2,0.6,0.8,2,0.1,2.8c-0.9,1.2-2,2.4-3.7,2.5c-1.2,0-1-1.3-1.3-2.1
	C269.4,312.8,268.9,310.3,269.8,306.9z"/>
<path class="st29" d="M220.1,376.9c-1.4-0.1-1.7,3.1-3.9,1.2c-2.1-1.8-5.1-2.9-5.9-5.6c-0.8-2.9,3.5,0.7,3.4-2.1
	C216.2,372.3,218.4,374.4,220.1,376.9z"/>
<path class="st98" d="M267.1,316.3c-7.3,1.3-6.7-0.7-6.9-4.8c-0.1-1,0.5-1.8,1.3-2.2c1-0.4,1.8,0.3,2.3,1.1
	C264.9,312.4,266.7,314,267.1,316.3z"/>
<path class="st98" d="M295.4,314.8c-0.3-2.8,1.3-4.5,3.4-4.9c1.7-0.3,2.5,2.2,1.9,3.4c-0.8,1.6,0.7,4.7-2.3,4.7
	C297,318,294.4,317.7,295.4,314.8z"/>
<path class="st99" d="M226.9,302.5c7.9,2.2,7.9,2.2,6.9,9.3C228.8,311,229.9,305.8,226.9,302.5z"/>
<path class="st100" d="M307.3,309.8c0.8,2.5,4.2,4.8,0.6,7.4c-0.9,0.7-4.4,0.5-4.4-0.5C303.3,314,303.4,310.7,307.3,309.8z"/>
<path class="st101" d="M106,270.6c-2.8,1-5.6,2.5-8.4,2.8c-3.2,0.4-1.3-3.6-3.3-4.9C98.1,270.2,102.2,268.7,106,270.6z"/>
<path class="st102" d="M246.7,366.4c1.3-2.3,3.1-2.8,5.2-2.3c1.4,0.4,3.2,0,3.6,2.2c0.2,1.1,0.4,2.4-0.5,3c-1.4,1-2.6-0.4-3.8-0.8
	C249.8,367.9,248.4,367.2,246.7,366.4z"/>
<path class="st92" d="M232.4,315.2c2.9,0.5,4.6,0.7,6.2,1c1.3,0.2,3.3,0,3.5,1.5c0.3,1.8-1.8,2.7-3.1,3.7c-1.5,1.1-1.9-0.9-2.7-1.6
	C235.1,318.8,234.2,317.4,232.4,315.2z"/>
<path class="st103" d="M307.7,323c-0.9,1.3-0.1,4.3-2.6,4.3c-1.1,0-3.5-1.1-3.4-3.5s1.4-3.6,3.7-3.6
	C306.8,320.3,308.2,320.8,307.7,323z"/>
<path class="st95" d="M235.9,357.9c4.3,0.3,7.7,1.4,11.1,3.1C243.6,364.7,243.6,364.7,235.9,357.9z"/>
<path class="st96" d="M273.3,325c-1.4-0.1-2.2-2.2-1.8-3.2c0.7-2.2,3.5-2.3,5.4-3.2c0.9-0.4,1.2,1.2,0.9,2
	C277,322.4,277,325.1,273.3,325z"/>
<path class="st104" d="M332.9,420.7c4.3-3.5,9.4-1.8,14.5,5.1C342.3,423,338.3,419.8,332.9,420.7z"/>
<path class="st95" d="M279,308.5c2.2,1.6,5.5,2.3,4.9,5.5c-0.2,0.8-3.2,2-4,1.6C277.2,313.8,279.7,310.9,279,308.5z"/>
<path class="st105" d="M294.3,324.9c0.9-1.2-1.1-3.8,1.7-4.2c0.9-0.1,3.5-0.1,2.8,2.5c-0.6,2.2-0.9,5.1-3.5,5.3
	C293.5,328.7,294.6,326.3,294.3,324.9z"/>
<path class="st98" d="M285.2,317.4c1.2,4.7-1.3,6.5-5.6,7.8C280.8,321.8,280,317.8,285.2,317.4z"/>
<path class="st106" d="M314.2,322.7c-0.1,2.6-0.9,4.5-3.4,5c-1,0.2-1.8-1.1-1.2-1.8c1.5-1.7-0.3-5.4,3.2-5.6
	C314.1,320.3,315.1,321.4,314.2,322.7z"/>
<path class="st107" d="M277.7,416.4c-3.3-2.2-4.2-5.6-6.1-8.3c-0.5-0.8-0.5-1.5,0.5-1.8c0.7-0.2,1.7-0.5,2,0.5
	C275.2,409.9,277.9,412.3,277.7,416.4z"/>
<path class="st108" d="M254.6,387.2c-0.6,0.3-2.2,0-1.6,0.7c1.9,2.3-0.1,3-1.3,4.1c-1-0.4-2.2-0.5-2.7-1.6c0.7-1.6-1.5-3.3,0.1-5
	C251.1,385.4,252.9,385.9,254.6,387.2z"/>
<path class="st97" d="M291.6,324.2c0,2.3,0.1,4.4-2.3,4.7c-1.6,0.2-2.1-1.4-1.6-2.5c0.7-1.5-1.2-4.4,2.1-4.5
	C292.1,321.7,291.8,323.3,291.6,324.2z"/>
<path class="st109" d="M174.5,304.4c-4.4,0.1-8.1-0.2-12-2.1C166.9,300.4,170.6,300.6,174.5,304.4z"/>
<path class="st102" d="M316.3,325.9c0.8-3,0.8-6.1,4.5-6.4c1-0.1,1.9,0.6,1.7,1.6C321.9,324.1,319.9,325.6,316.3,325.9z"/>
<path class="st110" d="M288.9,314.9c0.7-1.3-1-3.7,1.5-4c1.3-0.1,2.8,1.3,2.3,3.2c-0.4,1.6,0.2,4.2-2.3,4.3
	C287.7,318.5,289.5,316.2,288.9,314.9z"/>
<path class="st111" d="M264.9,320c1,0.5,3-0.7,2.7,1.4c-0.3,2.3-1.8,5-3.8,5s-0.8-3-1.3-4.6C261.7,319.1,263.9,320.4,264.9,320z"/>
<path class="st112" d="M257.5,315.6c-2.5-0.4-5.1,0.7-5.7-2.7c-0.2-1.3,0.1-3,1.4-2.9C256.2,310.1,256.1,313.2,257.5,315.6z"/>
<path class="st110" d="M316.8,313.6c-1.2,0.9,0.3,3.7-2.3,3.8c-1.6,0.1-2.4-0.9-2.3-2.7c0.1-2.3,1.8-2.8,3.3-3.3
	C316.3,311.2,316.9,312.4,316.8,313.6z"/>
<path class="st113" d="M249.8,316.2c-3.1-1.2-5.7-0.8-5.4-4c0.1-1.3,0.6-3,1.7-2.8C249.2,309.9,247.9,313.1,249.8,316.2z"/>
<path class="st114" d="M255.3,325.3c-0.4-2.7-0.7-4.4-1-6.8c2,0.4,4.1-0.1,4.8,2C260,323.3,257.2,323.6,255.3,325.3z"/>
<path class="st115" d="M298.3,269.5c0.3,4.6,0.5,8-0.5,12.4C294.5,277.2,296.2,273.9,298.3,269.5z"/>
<path class="st116" d="M219.5,299.6c-1.7,0.8-3,1.4-4.3,2c-0.9-1.4-2.3-3.7-3.9-6.5C214.6,295.8,216.4,298,219.5,299.6z"/>
<path class="st117" d="M302.7,394.7c3.5,3.3,1.8,7.3,1.9,11c-0.4,0-0.8,0.1-1.2,0.1C303.3,402.1,303,398.4,302.7,394.7z"/>
<path class="st118" d="M153.8,286.3c-1.4-1.6-3.9-1.7-3.3-3.8c0.2-0.8,1.7-2.9,3-2.1C155.4,281.5,154.5,283.6,153.8,286.3z"/>
<path class="st119" d="M355,434.1c4.2,3.2,0.6,5.8-0.5,9.7C354,439.8,355.6,437.1,355,434.1z"/>
<path class="st120" d="M91.8,242.7c1.5,2.4,2.8,4.8,4.2,7.3C93.4,248.2,90.7,246.6,91.8,242.7z"/>
<path class="st121" d="M329.3,315.1c0.1,1.7-0.7,2.2-2.2,2.2c-1,0-2.4,0.3-2.6-1.1c-0.2-2.2,1.9-1.3,3-1.9
	C328.4,313.9,329.2,313.8,329.3,315.1z"/>
<path class="st122" d="M267.3,407.6c1.5,1.5,2.5,3.3,3.3,5.4C265.2,411.2,265.2,411.2,267.3,407.6z"/>
<path class="st71" d="M251,319.2c-1.7,1.5-3.1,2.7-4.8,4.2c-0.2-1.9-0.4-3.3-0.6-4.9C247.4,318.7,249,318.9,251,319.2z"/>
<path class="st123" d="M301.5,277.1c1.2,3,0.4,5.8-1.5,8.3C300.5,282.6,301,279.8,301.5,277.1z"/>
<path class="st124" d="M323.9,294.1c2.9-0.7,4.5-1.6,5.9-0.2c0.3,0.3,0,1.9-0.3,2C327.8,296.4,326.5,295.2,323.9,294.1z"/>
<path class="st125" d="M244.2,328.4c-1.6-1.1-3.5-2.1-3.3-4.3c0.1-0.8,1.6-2.4,2.2-0.1C243.5,325.4,243.7,326.8,244.2,328.4z"/>
<path class="st126" d="M254.5,361.3c2.3-1.7,3.6-0.5,5.8,0.4C257.9,362.3,256.4,362.5,254.5,361.3z"/>
<path class="st75" d="M275.1,468.5c4.3,1.1,8.3,1.3,12.2,0.3c5.6-1.3,6.5,3.4,8.5,6.5s1.9,6.4-1.2,9.1c-1.7,1.4-2.9,1.9-4-0.9
	c-1.8-4.7-5.4-7.6-10.3-8.3C276.3,474.8,274.9,472.7,275.1,468.5z"/>
<path class="st127" d="M273.3,462.9c7.8-1.5,14.2-4.7,17.2-12.5c0.6-1.5,1.7-1.2,2.6-0.6c1.4,0.9,3.9,0.7,4.1,3.1
	c0.4,4-3.5,9.8-7.8,11.7C283.4,467.4,277.2,466.8,273.3,462.9z"/>
<path class="st27" d="M343.4,352.1c-4.4,3.9-9.1,3.9-13.6,4.2c-7.7,0.6-15.4-1-23.1,0.1c-1.1,0.2-2.4-0.4-3.6-0.7
	c-0.9-0.2-1.9-0.6-1.5-1.8c0.3-0.9,1.1-0.9,1.9-0.9c8.9,0,17.8-0.2,26.8,0C334.5,353.1,338.4,350.8,343.4,352.1z"/>
<path class="st47" d="M297.8,337.2c-0.1,0.5-0.2,1-0.3,1.4c-0.9,2.1-1.7,4.4-4,5.4c-0.2,0.1-1.3-0.8-1.2-1c0.8-2.8,1.8-5.7,4-7.5
	C297.5,334.4,297.6,336.2,297.8,337.2z"/>
<path class="st69" d="M326.8,335.5c-1.3,2-3.3,3.2-5.9,3.4c-1,0.1-2.3-0.7-1.9-1.3c1.4-2.3,4-2.9,6.5-3.6
	C326.2,333.7,326.9,334.3,326.8,335.5z"/>
<path class="st128" d="M347.7,349.5c1.3,0.3,2.3,1,2.6,2.2c0.2,1-0.6,1.3-1.4,1.3c-1.2-0.1-1.9-0.8-2.2-1.9
	C346.5,350.3,346.7,349.6,347.7,349.5z"/>
<path class="st129" d="M340,303.9c1,0,1.6,0.6,1.7,1.4c0.1,0.9,0.1,2.1-1.2,2.1c-0.8,0-1.3-0.8-1.3-1.7
	C339.2,304.9,339.1,304.1,340,303.9z"/>
<path class="st51" d="M202.9,306.2c3.2,2,3.8,4.9,4.8,7.6c0.3,0.8,0.3,1.5-0.5,2c-1,0.5-1.9,0-2.3-0.9
	C203.6,312.4,201.9,309.9,202.9,306.2z"/>
<path class="st29" d="M238.6,332.8c2.1,1.5,3.6,3.5,4.2,6.1c0.2,0.8-0.7,0.9-1.2,0.9c-1.5,0-4.9-4.1-4.7-5.7
	C237,333.3,237.6,332.8,238.6,332.8z"/>
<path class="st57" d="M211.2,329c2.7-1,4.6-0.1,5.9,2.1c0.3,0.6-0.1,1.4-0.8,1.4C213.8,332.7,211.9,331.7,211.2,329z"/>
<path class="st130" d="M207.4,326.7c-0.1,0.8-0.3,1.7-1.2,1.6s-1.7-0.5-1.9-1.6s0.3-1.8,1.4-1.7
	C206.6,325.1,207.1,325.9,207.4,326.7z"/>
<path class="st67" d="M272.2,344.5c-1,0-1.6-0.7-1.6-1.5c0-1.2,0.9-2,2.1-2c0.8,0,1.4,0.7,1.2,1.7
	C273.8,343.7,273.1,344.3,272.2,344.5z"/>
<path class="st59" d="M290,396.6c-0.5,1.3-1.3,1.9-2.5,1.9c-0.8,0-1.5-0.6-1.3-1.5c0.3-1.4,1.3-2.1,2.7-2
	C290,395.1,289.9,396,290,396.6z"/>
<path class="st131" d="M282.5,400c-0.9-0.2-1.9-0.3-1.8-1.6c0.1-0.9,0.8-1.2,1.6-1.4c1-0.1,1.9,0.3,2,1.3
	C284.4,399.4,283.4,399.7,282.5,400z"/>
</svg>
