<?xml version="1.0" encoding="utf-8"?>
<!-- Generator: Adobe Illustrator 25.4.1, SVG Export Plug-In . SVG Version: 6.00 Build 0)  -->
<svg version="1.1" id="Capa_1" xmlns="http://www.w3.org/2000/svg" xmlns:xlink="http://www.w3.org/1999/xlink" x="0px" y="0px"
	 viewBox="0 0 595.3 841.9" style="enable-background:new 0 0 595.3 841.9;" xml:space="preserve">
<style type="text/css">
	.st0{fill:#E9E9E9;}
	.st1{fill:#F3F2F2;}
	.st2{fill:#E1E0E0;}
	.st3{fill:#E8E8EA;}
	.st4{fill:#F4F3F3;}
	.st5{fill:#F7F6F5;}
	.st6{fill:#F2F1F0;}
	.st7{fill:#F3F2F0;}
	.st8{fill:#464441;}
	.st9{fill:#393939;}
	.st10{fill:#383838;}
	.st11{fill:#343533;}
	.st12{fill:#424241;}
	.st13{fill:#444543;}
	.st14{fill:#936768;}
	.st15{fill:#3D3D3C;}
	.st16{fill:#474746;}
	.st17{fill:#646464;}
	.st18{fill:#E9CBCB;}
	.st19{fill:#44433F;}
	.st20{fill:#6692A7;}
	.st21{fill:#8F7270;}
	.st22{fill:#4B4B4B;}
	.st23{fill:#3F3738;}
	.st24{fill:#5F5F5D;}
	.st25{fill:#66909D;}
	.st26{fill:#3D3E3C;}
	.st27{fill:#5A5A58;}
	.st28{fill:#4B4B48;}
	.st29{fill:#4E4E4E;}
	.st30{fill:#5C5C5A;}
	.st31{fill:#676665;}
	.st32{fill:#535251;}
	.st33{fill:#DFDEDD;}
	.st34{fill:#DDDCDC;}
	.st35{fill:#484848;}
	.st36{fill:#5E5E5E;}
	.st37{fill:#6E99A9;}
	.st38{fill:#363634;}
	.st39{fill:#5C5B5B;}
	.st40{fill:#4F504D;}
	.st41{fill:#757474;}
	.st42{fill:#454544;}
	.st43{fill:#383939;}
	.st44{fill:#797879;}
	.st45{fill:#393938;}
	.st46{fill:#383937;}
	.st47{fill:#414140;}
	.st48{fill:#545453;}
	.st49{fill:#545450;}
	.st50{fill:#F2E4E4;}
	.st51{fill:#8C6162;}
	.st52{fill:#F8E9E9;}
	.st53{fill:#956467;}
	.st54{fill:#292424;}
	.st55{fill:#F4E3DF;}
	.st56{fill:#E2E2E2;}
	.st57{fill:#F0EBE9;}
	.st58{fill:#383938;}
	.st59{fill:#535453;}
	.st60{fill:#444443;}
	.st61{fill:#DEDDDC;}
	.st62{fill:#4C4C4B;}
	.st63{fill:#4E4E4D;}
	.st64{fill:#EFEEED;}
	.st65{fill:#EEEDED;}
	.st66{fill:#737371;}
	.st67{fill:#80807F;}
	.st68{fill:#DDDFDB;}
	.st69{fill:#5B5C59;}
	.st70{fill:#E2E1E1;}
	.st71{fill:#F2F2F0;}
	.st72{fill:#D3D6D2;}
	.st73{fill:#79746D;}
	.st74{fill:#F6DFE0;}
	.st75{fill:#E0DDD2;}
	.st76{fill:#D9ECF2;}
	.st77{fill:#E2CECD;}
	.st78{fill:#E8D4D3;}
	.st79{fill:#ECCEC8;}
	.st80{fill:#5B5953;}
	.st81{fill:#F3E0DE;}
	.st82{fill:#E1BFC1;}
	.st83{fill:#464642;}
	.st84{fill:#8A8C88;}
	.st85{fill:#F4F4F3;}
	.st86{fill:#51514F;}
	.st87{fill:#4A4A48;}
	.st88{fill:#807F7E;}
	.st89{fill:#5B5754;}
	.st90{fill:#3C3B39;}
	.st91{fill:#605F55;}
	.st92{fill:#484847;}
	.st93{fill:#504E50;}
</style>
<path class="st0" d="M226.8,463.9c-3.5,5.2-4.3,5-9.7-2C221.2,458.3,223.4,463.8,226.8,463.9z"/>
<path class="st1" d="M344.7,462.1c6.6-5.8,13.5-0.4,19.3-3.4c1.3-0.7,2.4,2.1,1.7,3.6c-1.4,3.1-3.5,5.9-7.3,4.9
	C354.2,466.1,350.2,464.2,344.7,462.1z"/>
<path class="st2" d="M451.5,465.8c0.3-2.9-3.4-6,0.4-8.5c2.4-1.6,4.5,0.2,5.4,2C460.8,466.1,452.9,463.1,451.5,465.8
	C451.5,465.8,451.5,465.8,451.5,465.8z"/>
<path class="st2" d="M437.5,462.5c0,1.9-0.9,2.9-2.8,2.9c-1.7,0-3.1-0.9-3.5-2.6c-0.5-2.1,1.1-2.6,2.8-2.7
	C435.7,460.1,437,460.7,437.5,462.5z"/>
<path class="st1" d="M313.9,469.7c2.8-1.1,5.6-3.5,8.6-0.4c0.3,0.4,0,2-0.6,2.5C318.5,474.6,316.3,471.8,313.9,469.7
	C313.9,469.7,313.9,469.7,313.9,469.7z"/>
<g>
	<path class="st3" d="M594.1,428c-3.4,0-6.8,0-10.2,0c-6.3,0.4-11.2-2.9-15.9-6.6c-6.6-5.1-9-10.2-5.3-19.2
		c3.9-9.5,11.1-15.4,17.6-22.1c5.5-5.6,8,6.3,13.7,4.3C594.1,399,594.1,413.5,594.1,428z"/>
	<path class="st3" d="M594.1,358.9c-4.8-1.6-8.1,3.8-12.9,3.1c1.6-8.5,8.6-17.9-5.4-22.4c-2.5-0.8-2.8-5.6-0.9-6.5
		c7-3.4,9.3-14,19.2-12.6C594.1,333.3,594.1,346.1,594.1,358.9z"/>
	<path class="st4" d="M200.3,283.5c-1-1.9-1.9-3.7-2.9-5.6c-1.4-18.1,6.3-30.3,22.6-35.2c5.2-1.5,7.9-8.1,14.3-6.9
		c5.2,0.5,9.8,2.6,14.5,4.7c6.4,3.2,13.1,3.3,19.5,0.5c5.8-2.5,10.6-1.1,15.3,2c2.9,1.9,8.2,2.7,5.8,8c-2.6,5.7-6.7,3-10.6,0.8
		c9.9,7.3,15.3,15.7,8.4,27.9c-9.8,12.1-14.6,28.9-31.6,34.4c-15.3,6.3-28.2,3.7-38-10.4c-2.1-2.9-4.1-5.8-6.2-8.8
		C209.4,289.6,200.1,291.2,200.3,283.5z"/>
	<path class="st5" d="M318.8,154.6c2.8-1,5.5-1.9,8.3-2.9c8.1,6.3,17.1,10.5,27.3,11.7c11,3.4,19.1,11.8,27.7,18.5
		c6.2,4.9,9.3,14.1,11.5,21.9c1.3,4.8,2.9,9.4,4.7,14c2,4.1,1.2,8.3,0.5,12.5c-1,6.4-4.1,10.1-11.3,8c-6.9-2-8.4-6.5-5.3-12.6
		c2.2-4.4,4.6-8.4-0.9-12c-4.1-2.9-9.1-5.6-6.1-11.2c-3,4.7,0.8,7.7,5,10.5c6.1,7.9,2.1,22.6-8.1,30.2c-0.4,1-0.8,2.1-1.2,3.2
		c-3.1,0.6-6,1.8-8.6,3.8c-7.3,0.9-4.4,5.9-3.9,9.9c-0.2,1.3-0.8,2.2-1.9,2.8c-1.9,0.6-3.6,0-5.1-1.1c-8.1-6.8-11.8-16.4-16.1-25.7
		c5.7-14-2.8-34-16.1-37.9c0.1-3.5,0.1-7.1,0.2-10.6c5.5-7.1,4.8-11.4-5.1-11.8c-2.8-0.1-5.7-1.4-8.5-0.2c-4.1-0.8-5.7-3.3-4.5-7.3
		c0.9-3.2,3-4.4,6.6-4.2C314.3,164.5,317.8,161,318.8,154.6z"/>
	<path class="st6" d="M149.5,270.4c-1.6-2-3.2-4.1-4.9-6.1c-3.6-4-0.9-5.5,2.5-6.7c4.5-1.6,9.2-0.8,13.8-0.9c-5,0-10.1-0.7-15,0.9
		c-6.6,1.4-6.5-4.4-8.4-8c-1.2-2.2-3.2-4.1-2.3-7c4.4-4.9,9.5-1.6,13.4-2.4c-4.8-2.5-13,3.3-18.1-3.5c-2-2.5-3.7-5.1-5.2-8
		c-0.5-1.2-0.7-2.5-0.4-3.8c7.9-4.5,16.2-7.3,25.4-6.9c15.3,2.9,31,4.9,43.9,15.3c3.6,2.9,7.5,5.6,9.8,9.8c1.3,2.3,2.3,6.3-0.5,6.4
		c-7,0.2-1,4.6-2.7,6.3c-1.8,2.5-4.5,2.5-6.7,1.4c-5.4-2.6-2.6,2.1-3.4,3.6c-4.8,3.7-10.7,5.3-15.6,8.7c-6.1,1.9-9.9,7.6-16,9.4
		C152.5,280,153,272.9,149.5,270.4z"/>
	<path class="st7" d="M413.6,195.2c14.3-6.8,28.5-13.7,42.8-20.5c2.1,1.4,4.5,2.8,2.7,5.9c-1.2,2.2-3,4-5.3,5.2
		c-8.4,4.3-14.7,11.2-21.2,17.7c-0.9,0.9,3.8,3.5,2,6.6c-1.1,1-2.2,1.9-3.3,2.9c-4.1,2.4-4.8,8.8-9.1,10c-6.3,1.7,1.9,4.8-1.2,6.1
		c-6.6,4.1-5.9,13.5-12.6,17.5c-10.1-2.5-13.8-8.6-10.8-18.7c1.2-4,2.8-8-1.5-11.2c-3.2-3.9-1.8-6.7,2.3-8.7l-0.3,0.2
		C404,204.6,407.8,198.7,413.6,195.2z"/>
	<path class="st8" d="M199.5,256.1c1.3-7.3-7.4-4-8.4-9.1c3.9-2.9,7.3,4.8,11.6,1.4c-5.8-13.3-17-19.2-51.9-27.2
		c1-2.6,3.1-3.8,5.5-4.6c17,0.1,31.7,6.6,44.5,17.4c5.5,4.7,10.7,6.2,17.5,2.2c-0.4-4.2-7.2-4.6-6.2-9.5c6.8-2.8,0.9-10.4,5.3-14.1
		c1.2-0.4,2.4-0.3,3.5,0.3c5.2,9,13.6,16.2,16.3,26.7c-4.4,0.3-10.6-3.9-11.5,4.8c0,0.4-0.3,1-0.4,1c-25.9-3.5-18.6,21.8-28,32.6
		c-2.5-0.1-4.9-0.2-7.4-0.2c-0.9-0.8-1.3-1.8-1.3-3c2.9-5.3,7.7-9.5,8.8-15.9C198.1,257.9,198.8,257,199.5,256.1z"/>
	<path class="st9" d="M185.2,296.3c1.5,15.5,15.8,18.6,25.4,26.1c-0.3,0.4-0.6,0.7-0.9,1.1c-2.7-1-5.7-1.5-8.2-3
		c-4.8-2.9-5.8-0.9-8.9,3.3c-12.7,17.5-27.6,33.4-34.1,54.9c0.8-15.7,6.9-28.9,17.2-40.2c2.6-2.8,5.5-5.2,8-8.1
		c3.6-4.1,10.6-8.8-1.7-11c-2.5-0.4-3.4-5.7-7.5-5.8c-0.9-0.9-1.1-1.9-0.8-3.1c2.5-2.6,5.2-1.6,8.1-0.4c-7.1-3.5-10.3-7.6-2.1-13.3
		C181.5,297,183.4,297.5,185.2,296.3z"/>
	<path class="st10" d="M210.5,322.5c24.3,10.3,48.6,8.5,73,0.5c2.8-1.4,3,0.2,2.7,2.3c-8.4,2.8-5.7,10.7-6.6,16.2
		c-2,11.9-0.8,24.2,0.9,39.5c-13.8-18.4-2.4-35.3-5.1-52.1c-22.5,6.9-44.8,7.8-65.9-5.3C209.9,323.2,210.2,322.8,210.5,322.5z"/>
	<path class="st11" d="M286,279.5c1.6-5.5,5.5-10.8,0.3-16.5c-2.5-2.7-13.5-9.6-16.3-9.1c4.1-5.3,7.3-9.8,12.7-2.6
		c1.7,2.2,3.4,2,5,0.2c2.2-2.4,0.2-3.9-1.7-4.7c-5.7-2.4-10.4-7.9-18.2-2.3c-5.3,3.7-13.1,4.4-19.5-0.5c2.6-3.6,6.7-3,10.4-3.7
		c4.2-0.8,8.5-1.5,8.9-7.2c0-1.7,0.1-3.5,0.1-5.2c0.3-4.4,1.2-8.5,4.3-11.8c1.1-0.8,2.2-0.9,3.4-0.3c-2.6,12.7-1.4,23.2,13.1,28.2
		c5.7,2,5.7,7.8,5.5,13c-0.3,8-1.2,15.8-5.8,22.7C287.6,280.3,286.8,280.3,286,279.5z"/>
	<path class="st0" d="M260.2,106.1c-2.8-6.5-9.8-1.2-13.9-4.9c-1.7-1.5-5.2-1.3-5.1-4.6c0.1-3.3,3-3.5,5.5-3.9
		c4.7-0.8,8.2-3.9,12.3-6.1c3.5-1.9,6.7,0.2,8.6,3c2.3,3.4-1.6,3.2-3.1,4.7c-4.8,5.2,1.4,6.3,4,8.6c16.1,7.1,2.2,15.3,0.9,23.1
		C264,120.6,262.4,113.3,260.2,106.1z"/>
	<path class="st12" d="M319.3,198.2c7.9-1,14.2,1,16.2,9.7c2.2,9.2,8.2,18.4,1.2,28c-2,0.3-3.6,0.1-2.1-2.6c0.3-2.9,3.6-5,1.6-9.8
		c-5.2,6.5-12.8,4.3-19.3,6.3c-3.1,1-5.4-0.1-6.2-2.6c-1-3-0.1-5.9,3.7-6.6c5.5,1.5,11.9,5.6,13.4-4.6c0.3-2.7,1.5-5.5,0.2-8.2
		c1.8-8.9-3.3-6.2-7.5-4.3c-5.2,2.3-7.5-1.9-7.6-5.1C312.8,196.4,317,198.3,319.3,198.2z"/>
	<path class="st13" d="M398.2,216.2c3.1,2,4.8,4.4,2.9,8.2c-4.8,9.8-2.7,17.3,7.4,22c-5.1,2.1-8.5-2.2-12.6-3.5
		c-7.4-2.4-14.9-6.2-21.7,1.2c-1.2,1.1-2.3,0.9-3.2-0.4c7.5-9,12.9-18.6,9.6-31l-0.2,0.3c7.9,0.6,9.6,4.3,5.1,10.7
		c-2.7,3.8-4.3,7.9-1.1,11.5c1.6,1.7,5.8,2.5,8.1,1.7c4.7-1.5,2.9-6.2,2.9-9.8c0-3,4.4-5.8,0.6-9C396.3,217.1,397,216.4,398.2,216.2
		z"/>
	<path class="st14" d="M260.2,106.1c6.4,5.1,9.9,11.6,9.2,20.1c-2.8,5.4,1.6,7.2,4.8,9.5c-0.5,1.1-1.4,1.9-2.5,2.4
		c-10.1,0.5-10.6-6-9.6-13.4c-10.4,10.2-24.5,4.4-36.4,8.3c-2.5-0.7-4.6-1.9-5.7-4.4c1.8-0.7,3.5-1.5,5.3-2.2
		c7.7-6.2,16.7-5.8,25.7-4.8c4.6-0.8,7.9-3.4,5.6-8.2C254.2,108.5,257.8,107.9,260.2,106.1z"/>
	<path class="st15" d="M398.2,216.2c-0.7,0.6-1.5,1.3-2.2,1.9c-3.3-1.7-5.5-4.9-5-8.1c1.1-6.6,2.7-12.7-6.3-14.8
		c3.3-15.3-14-14.3-18-23.1c-3-6.7-12,1.2-12.9-7.1c1.4-1.5,3-1.8,4.9-0.9c17.9,7.6,31.8,19.1,37.2,38.7c0.5,2,0,4.2,2.5,5.1
		C397.4,210.6,394.1,213.3,398.2,216.2z"/>
	<path class="st16" d="M434.6,210.1c-1.1-6.8-6.8-2.6-11.5-4.8c6.1-3,11.2-5.6,16.6-8.3c-3.6-4.1-7.2,3.7-11-1.1
		c7.6-3.5,15.2-6.4,22.4-10.4c3.7-2,10.2-4,5.3-10.8c9.2-0.6,6.1,4.8,3.3,8.2C451.6,192.2,443,201,434.6,210.1z"/>
	<path class="st10" d="M375.3,315.4c-4.2,21.1,0.5,41.5,4.3,62.1c-16-19.9-4.6-45.4-12.4-67.2c2.5-1.3,3.3,2.5,5.5,3.1
		C373.9,313.7,374.8,314.3,375.3,315.4z"/>
	<path class="st17" d="M444.1,322.8c-7.4-6.8-16-17.3-25.1-14.1c-12.7,4.4-10.3-7-14.9-10.7c2.5,1.7,4.9,3.4,7.9,5.5
		c0.8-4.7-5.4-6.1-3.6-10.3c0.7-0.1,1.7-0.5,2-0.2c3.3,3.7,6.5,7.5,9.7,11.2c0.1,0.1,0.7-0.2,1-0.4c0.3-0.3,0.3-0.8,0.5-1.2
		c2.4-1.4,4.7,0,7,0.3c5.2,5.4,10.4,10.7,15.6,16.1C445.4,320.3,445.3,321.6,444.1,322.8z"/>
	<path class="st18" d="M295.3,225.7c-7.3,0.3-7.3-5.7-8.2-9.7c-1.4-6.1,4.7-8.8,8.3-9.1c4.8-0.4,7.6,5.2,8.1,9.6
		C304.1,222,299.7,224.5,295.3,225.7z"/>
	<path class="st13" d="M286,279.5c0.8-0.1,1.6-0.1,2.3,0c5,5,6.6-3.4,10.5-2.6c2.7-1.6,2.8,0.1,2.6,2.2
		c-12.2,7.9-24.4,15.6-32.2,28.7c-2.6,4.4-7.3,8-13.4,7.8l-0.8-1l0.7-1C271,306.8,274.5,289.5,286,279.5z"/>
	<path class="st19" d="M275.6,215.7l-0.6,0.1l-0.6-0.1c-5.5-9.1,0.7-14,6.8-19c1.9-1.2,4-2.2,5.8-3.6c3.6-2.6,5.2-6.6,7.4-10.3
		c0.9-1.4,2-2.6,3.4-3.6c1-0.6,2-0.9,3.1-1c1.1,0.1,2.1,0.6,2.8,1.5c-1,2.3-3.1,4.6-1.5,7c2.7,4.2,5.1,7.4-2.7,3.8
		c-0.5-0.2-1.4,0.5-2.1,0.8c4.4,10.5-6.7,6.4-9.5,10.2C284,206.7,281,212.2,275.6,215.7z"/>
	<path class="st0" d="M344.8,110.8c3.4,0.8,6.8,1.7,10.2,2.5c2.9,0.3,5.9-0.6,8.6,1.8c-0.5,5.3-9.4,2.1-8.8,8.5
		c-4.9,3-11.5,0.8-15.9,5.2C334.7,120.7,340.4,116,344.8,110.8z"/>
	<path class="st20" d="M339,128.8c1-15,10.3-4.3,15.9-5.2c11.2,8.5,23.2,16,31.4,27.9c-0.8,0.9-1.8,1.5-3,1.8
		c-10.9-2.4-16-13.1-25.1-18.1c-4.2-2.3-7.7-7.2-13.4-3.1c-1.1,0.4-2.1,0.2-3-0.7C340.9,130.6,339.9,129.7,339,128.8z"/>
	<path class="st21" d="M299.2,180.2c-0.8,0.7-1.6,1.5-2.4,2.2c-4.1,2-5-1.8-6.8-3.9c-0.6-1.1-0.9-2.2-1.3-3.3
		c-0.4-8.6-1.9-17-6.7-24.4c-1.5-5.5-7.8-7.8-9-13.5c0.3-0.5,0.7-1.1,1.2-1.5c7,0.8,11.1,5.2,13.7,11.4c2.1,5,3.6,10.3,8.8,13.2
		c1.8,2.2,3.7,4.3,2.9,7.5C296.6,171.8,300.1,176.1,299.2,180.2z"/>
	<path class="st22" d="M255.8,313.6c0.1,0.7,0.1,1.3,0,2c-16,6.8-26.5,4.9-37.7-6.6c-1.5-1.6-2.7-3.2-0.5-5.2
		C228.1,316.1,241.7,315.8,255.8,313.6z"/>
	<path class="st23" d="M299,167.1c0.2-2.6-6.9-2.7-2.3-6.8c7.5-1.4,17.5,7.4,22-5.6c3,9.2-4.2,10.1-9.8,12.1
		c-4.8,1.6-4.8,1.4-2.5,7.2c0.7,0.7,0.9,1.3,0.7,2c-0.2,0.7-0.4,1.1-0.6,1.1c-1,0.9-2,1.9-3,2.8c-0.9-0.1-1.8-0.2-2.7-0.2
		C298.7,175.7,294.9,172,299,167.1z"/>
	<path class="st24" d="M334.6,233.4c0.7,0.9,1.4,1.7,2.1,2.6c6.9,7.3,8.2,18.2,16,24.9c1,1.3,1,2.4-0.3,3.5
		c-10.4-4.9-14.2-15.4-19.8-24.3C331.1,237.8,332.6,235.3,334.6,233.4z"/>
	<path class="st0" d="M115.9,241.2c-0.2-5.8,2.9-9.5,7.6-12.2c0.7-1.3,1.6-1.5,2.7-0.5l-0.3-0.3c5.9,4.8,5.9,11.3,5.1,18.1
		C125,247.6,120.4,244.6,115.9,241.2z"/>
	<path class="st25" d="M341.8,131.5c0.9-0.1,1.7-0.2,2.6-0.3c12.1,6.7,25.7,11.6,31.3,26.1c-1.2,0.6-2.3,0.6-3.5-0.1
		C361.1,149.7,347.9,144.8,341.8,131.5z"/>
	<path class="st26" d="M352.4,264.4c0.1-1.2,0.2-2.4,0.3-3.5c1.5,0.5,3,1,4.6,1.4c9.5-1.3,6.5-12.1,12.3-16.2
		c0.5-0.8,0.9-1.6,1.4-2.3c1.1,0.1,2.1,0.2,3.2,0.4c-0.4,4.1-0.6,8.3-1.3,12.3C370.8,267.1,361.6,270.7,352.4,264.4z"/>
	<path class="st27" d="M286.2,325.2c-0.9-0.8-1.8-1.5-2.7-2.3c12.5-4.3,25-8.7,37.5-13c1.5-0.5,1.9-0.1,1.2,1.4
		C311.2,318.4,298.9,322.3,286.2,325.2z"/>
	<path class="st28" d="M358.7,164.1c-1.6,0.3-3.2,0.6-4.9,0.9c-10.8-0.5-20.7-2.9-26.7-13.3C338.7,153,347.6,161.5,358.7,164.1z"/>
	<path class="st29" d="M444.1,322.8c0.1-1.3,0.1-2.6,0.2-3.9c3.5,2.3,7,4.5,10.9,7.1c1.5-4.7-4.7-6-2.8-11.1
		c4.5,5.2,8.7,9.9,13.9,16C456.4,331.7,449.9,328.3,444.1,322.8z"/>
	<path class="st30" d="M301.4,279.1c-0.9-0.7-1.8-1.4-2.6-2.2c8.2-6.4,18.3-8.2,27.7-11.8C320.4,274.1,309.5,273.8,301.4,279.1z"/>
	<path class="st31" d="M306.6,177c0-1-0.1-2.1-0.1-3.1c6-3.3,12.3-1.4,16.3,2.2c3.7,3.3,4.2,9.5-3.3,11.5
		C323.2,174.2,313.2,177.8,306.6,177z"/>
	<path class="st32" d="M138.9,248.6c3.8,1.2,0.3,9.2,7,7.6c2.7-1.2,3.2,0.1,2.9,2.5c-2.8,0.8-6.8,0.7-4.2,5.6
		c-16.1,3.9-4.7-8.8-7.7-12.9C137.1,250.1,137.8,249.2,138.9,248.6z"/>
	<path class="st33" d="M329.9,215.5c2.3,4,3.3,8.3-2.5,9.3c-4.5,0.8-11.6,6.2-13.2-4c1,0,2.1-0.1,3.1-0.1
		C322.9,222.2,323.2,210.8,329.9,215.5z"/>
	<path class="st15" d="M429.3,272.6c-1.3,1.9-4.9,2-4.6,1.2c4.8-11.8-7.4-14.7-12-23.3c9.7,2.9,13.2,10.7,18.7,16.2
		C433.1,269.5,429.8,270.5,429.3,272.6z"/>
	<path class="st34" d="M161.6,299.9c-0.2-0.5-0.1-1,0.2-1.5c-0.9-1.6-2.9-2.4-3.4-4.3c1.9-5.7,6-8.1,11.8-8.2
		c1.4,0.4,2.4,1.1,3.2,2.4c2.1,6.4,0.6,11.1-6,13.6C165.2,302.2,163.2,301.5,161.6,299.9z"/>
	<path class="st16" d="M200.3,283.5c0.6,1.1,1,2.9,1.7,3c6.4,1.3,6.4,1.2,9.4,8.5c-1.2,0.1-2.5,0.6-3.5,0.2c-5-1.7-9.8-3.7-15.5-5.8
		C195.5,287.1,197.9,285.3,200.3,283.5z"/>
	<path class="st35" d="M386.3,306.3c6.8,2.9,9.3,13,19.1,10.9C391.3,326.6,391.1,312.6,386.3,306.3z"/>
	<path class="st36" d="M375.3,315.4c-0.9-0.7-1.7-1.3-2.6-2c8.6-3.4-1.6-9.7,2.5-14.2c3.8,6.9,5.9,14.7,12.1,20.2
		C381.4,322.7,380.4,313.1,375.3,315.4z"/>
	<path class="st37" d="M372.2,157.1c1.4-0.3,2.8-0.6,4.2-0.8c2.1-1.8,5.1-2.2,6.8-4.6c1-0.1,2.1-0.1,3.1-0.2c3.3,2.2,6.3,5,3.6,9
		c-2,3.1-6.1,2.2-9.1,1.2C377.7,160.8,375.1,158.7,372.2,157.1z"/>
	<path class="st38" d="M396.6,254c-17.5-7.9-12.4,6.3-14.9,13.9c-0.1-6.5-5-13.7,2.4-18.5C388.3,246.5,393.6,246.7,396.6,254z"/>
	<path class="st39" d="M469.8,315.9c6.6,6.4,11.7,13.7,10.1,23.8C476.9,331.6,472.7,324.1,469.8,315.9z"/>
	<path class="st40" d="M138.9,248.6c-0.7,0.9-1.3,1.8-2,2.7c-1.7-2-2.9-4.5-5.8-5c-7.5-4.4,0.6-13.2-5.1-18.1c3.9-1,5,1.5,5.5,4.7
		c0.8,3.9,2.5,7.4,4.5,10.8C136.9,245.4,137.9,247,138.9,248.6z"/>
	<path class="st41" d="M161.6,299.9c1.8,0,3.6,0.1,5.4,0.1c3.2,3.1,6,6.5,7.6,10.7c0,1-0.1,2-0.1,3
		C165.2,313.8,162.6,311,161.6,299.9z"/>
	<path class="st0" d="M535.6,131.3c1.7,1.7,3.4,3.4,5.1,5.1c-1.4,0.9-2.7,1.9-4.1,2.6c-3.9,1.7-8.5,1.8-9.1-3
		C526.8,130.5,532.1,131.6,535.6,131.3z"/>
	<path class="st42" d="M329.9,215.5c-5.9-2.6-5.8,9.6-12.5,5.1c3.5-4.2,7-8.4,10.5-12.7C332.7,209.4,333.2,211.9,329.9,215.5z"/>
	<path class="st43" d="M428.7,302.8c-2.5,4.3-4.7,0.5-7-0.3c-0.1-5.4-6.3-8.8-4.8-16.4C421.3,292.4,425,297.6,428.7,302.8z"/>
	<path class="st44" d="M429.3,272.6c0.7-2,1.4-4,2.1-5.9c6.5,4.1,10.7,10.4,16.6,17.4C438.7,283.1,438,271.3,429.3,272.6z"/>
	<path class="st45" d="M185.2,296.3c-0.7,1.6-1.4,3.1-3.2,1c-2.8-2.4-3-5.7-2.8-9c0.1-1.3,0.5-2.5,0.9-3.7c3-3.6,3-10,9.6-10.2
		c0.1,1.1,0.2,2.3,0.3,3.4C191.2,284.6,182.2,288.9,185.2,296.3z"/>
	<path class="st46" d="M321.1,309.9c3.8-2.6,7.6-5.1,15.1-10.2c-7.8,10.3-3,11.6,6.4,10.1c-9.4,6.3-14.7,1.1-20.3,1.5
		C322.3,310.4,321.9,310,321.1,309.9z"/>
	<path class="st0" d="M334.7,100.6c0.6-4.8,2.6-8.3,8.1-7c4.2,1,3.4,4.1,2.1,7C341.4,100.6,338.1,100.6,334.7,100.6z"/>
	<path class="st47" d="M421,229c0.8-2.4-9.1-3.1-1-6.9c4.4-2.1,6.1-7.9,11.3-9.2C428.5,218.6,425.7,224.4,421,229z"/>
	<path class="st48" d="M149.5,270.4c5.6-1.6,4.5,9,10.8,6.1c1.7,3.6,0.3,6.3-2.5,8.6c-1.3,0.7-2.5,0.6-3.6-0.3
		C152.6,279.9,151,275.1,149.5,270.4z"/>
	<path class="st39" d="M154.1,284.7c0.8,0,1.5,0,2.3,0c3.6,2.5,0.5,6.9,2.8,9.8c2,0.6,2.8,1.9,2.6,3.9
		C149.4,299.2,149.2,298.8,154.1,284.7z"/>
	<path class="st0" d="M469.5,113.4c4.9-7.5,8.3-8.2,12.7-2.6C478.3,113.2,473.9,113.6,469.5,113.4z"/>
	<path class="st49" d="M413.6,195.2c-3.7,6.1-8.4,11-15.5,12.9C401.5,201.6,406.3,197,413.6,195.2z"/>
	<path class="st0" d="M141.4,448.4c-3.2-0.2-7.8,1-5.1-5.1c3.1,0.8,6.5-4.1,8.9-0.3C146.7,445.5,143.5,447.2,141.4,448.4z"/>
	<path class="st50" d="M212.5,225.7c1,1.3,1.8,2.8,3,3.7c3.2,2.6,9.4-0.7,10.8,4.7c0.8,3.1-3.1,5.4-5.5,5.7
		c-5.7,0.6-10.8,7.6-17.2,0.9c-12.8-13.4-29.1-19.8-47.2-22c-5.9,0.6-11.9,2.2-17.6-0.9c-4.7-4-10.5-1.3-15.7-2.4
		c1.8-6.8,7.5-5.4,12.2-5.9c24.7-2.6,46,6.4,66.4,18.8c2.1,0.7,4,0.7,5.6-1.1c0.7-0.8,1.5-1.4,2.3-1.9c0.5-0.1,1-0.2,1.5-0.3
		C211.6,225.3,212.1,225.5,212.5,225.7z"/>
	<path class="st51" d="M220,128.6c1.7,0.7,3.5,1.4,5.2,2.1c-4.7,5.3-10.6,9.2-16.2,13.5c-7.3,2.7-11.3,12.1-22.7,9.6
		c3.3,4.6,7.1,6.9,8.4,10.8c2,5.8,1.5,11.4-0.5,17.2c-1.7,4.8-1.6,9.9,0.5,14.8c1.7,7.5,12.4,11.1,9,20.8c-0.7,1.1-1.7,1.6-3,1.7
		c-3.1-0.9-2.1-4.1-3.2-6c-1-0.8-2-1.6-3-2.4c-9-4.7-11.6-12.3-10.3-22c1.5-11.6,3-23.2-7.1-32.2c-0.3-4.7-5.5-8.8-1.5-14.1
		c4.7-1.3,6.1,5.4,10.6,4.8c5.5,2,6.7-5.1,11.2-5.3l0,0c1.7-6.2,8.6-4.4,12-7.9C211.4,128.9,215.9,129,220,128.6z"/>
	<path class="st0" d="M92.1,222.9c0.1,3-1.8,4.9-3.9,6.1c-4.7,2.8-8.4,5.3-4.8,11.7c1.6,2.8-1.7,6-3.4,4.9
		c-4.9-3-10.7-6.5-12.9-11.3c-1.4-3.2,1.7-10.1,8-10.7c3.9-0.4,7.2-1.5,10.4-3.7C88.8,217.8,91,219.6,92.1,222.9z"/>
	<path class="st52" d="M177.1,156.3c9.8,6,15,12.9,10.2,25.8c-3.6,9.8,0.7,19.9,7.2,28.4c-7.8,0.7-14.4-0.3-15-10.2
		c-0.6-4.6-0.7-9,2.5-12.8C180.1,177.2,183.1,166.1,177.1,156.3z"/>
	<path class="st53" d="M206.2,233.8c-14.3-5.5-26.7-15.4-42.2-18.4c-13.7-2.7-27.3-4.4-40.9,0c-1.3-1.3-4.6,1.5-4.6-2.3
		c2.7-6.4,8.5-6,13.9-6.3c22.8-4.3,42.4,6.1,62.8,13.4C199.8,223.9,206.2,226.2,206.2,233.8z"/>
	<path class="st52" d="M194.8,223.3c-19.8-10.3-40.8-15.7-63.2-15.1c-2.9,1.3-5.4,1.9-6-2.5c1.8-1.6,3.6-1.8,5.5-0.3
		c5.1,0,10.2,0,15.3,0c5.1-3.6,10.2-2.9,15.2,0c6.9,1.7,13.6,3.9,19.6,7.9c5.1,3.4,10.9,4.1,16.2-0.3c2.5,0.9,2.2,3.2,2.4,5.1
		C200.9,222.5,199,224.1,194.8,223.3z"/>
	<path class="st1" d="M360.1,72.4c3.9,7.6,7.7,3.6,11.7,0c2.3-2.1,5.4-3.8,7.5-0.4c2.2,3.5-1.3,5-3.6,6.8
		c-6.6,5.3-16.9,2.7-22.4,10.9c-0.8,1.1-5-2.2-4.1-3.1c3.9-4.2,0.5-12.6,8.3-14.2C358.4,71.6,359.3,71.7,360.1,72.4z"/>
	<path class="st1" d="M562.4,355.6c-4.9,5.2-10.7,3.6-15.8,2.8c-5.3-0.8-7.8-5.6-7.3-10.4c0.4-3.8,3.9-6.9,8.2-6.5
		c4.4,0.5,7.2,1.4,5.4,8C551.1,356.1,560.2,350.1,562.4,355.6z"/>
	<path class="st1" d="M483.4,85.3c5.2,2.5,11.1,4.3,13.3,10.2c1.4,3.7-2,4.9-5.3,5c-6.5,0-11.6-2.5-13.3-9.1
		C477.2,87.8,480.1,86.3,483.4,85.3z"/>
	<path class="st54" d="M138.7,217.9c5.9,0.3,11.8,0.6,17.6,0.9c-1.9,0.8-3.7,1.6-5.6,2.4c-8.4,1.8-18.7-2.9-24.6,7.4
		c-0.9,0.2-1.8,0.3-2.7,0.5c-2-0.7-3.9-1.3-5.9-2c1.2-1.5,2-3.9,3.5-4.4C126.9,220.8,132.9,219.4,138.7,217.9z"/>
	<path class="st55" d="M251,121.6c-8.6,1.6-17.1,3.2-25.7,4.8C231.7,113.4,241.4,117.8,251,121.6z"/>
	<path class="st56" d="M52.3,325.7c-8.6,5.7-10.5-5.3-16.2-6.8c-1.2-0.3-0.3-3,1-4.1c2.2-1.8,4.6-2,6.9-0.5c3.5,2.2,4,7.4,8.3,8.9
		C52.3,324,52.3,324.8,52.3,325.7z"/>
	<path class="st0" d="M34.2,276c7.9,0.4,13.9,2.1,20.1-6C47.2,286,43.9,286.9,34.2,276z"/>
	<path class="st1" d="M480.2,475.4c-4.3,4.2-8.2,8.6-13.5,4.2c-2-1.7,0.1-3.8,1.2-5.5C473.2,465.5,475.9,477.4,480.2,475.4z"/>
	<path class="st1" d="M537.5,412.2c-3.4,0.1-5.7-1.5-6.4-4.9c-0.5-2.5,0.9-4.6,3.3-3.7c2.8,1,7.6,0.1,7.6,4.9
		C542.1,410.6,539.8,411.9,537.5,412.2z"/>
	<path class="st1" d="M92.7,295.3c-0.2,3.1-2,4.5-5,4.5c-2.4,0-4.3-1-4.3-3.5c0.1-3.7,3.2-4.9,6.1-5.3
		C92.1,290.6,92.9,293,92.7,295.3z"/>
	<path class="st0" d="M209.5,133.8c-1.5,6.5-8.4,4.6-12,7.9c0-3.6,0-7.3,0-11C202.7,129.6,205.1,135.4,209.5,133.8z"/>
	<path class="st56" d="M34.5,381.9c-3.4-0.5-7.3-1.2-6.3-5.7c0.5-2.4,3.5-3.6,6.2-2.9c5.5,1.4,4.8,4.8,2.6,8.6
		C36.2,381.9,35.3,381.9,34.5,381.9z"/>
	<path class="st0" d="M253,73.4c5.4-8.6,9.8-10.3,17.8-5.4C264.9,69.8,260.7,71.1,253,73.4z"/>
	<path class="st2" d="M553.4,481.7c0.2,10.8-8.4,6.8-15.3,10.4C542.1,483.6,549.1,484.9,553.4,481.7
		C553.4,481.7,553.4,481.7,553.4,481.7z"/>
	<path class="st0" d="M197.5,141.7c-3,3.4-4,10.9-11.2,5.3C188.1,141.2,189.1,133.6,197.5,141.7z"/>
	<path class="st0" d="M182,187.5c-0.5,4.3,1.6,9.2-2.5,12.8C172.5,196.9,173.1,194,182,187.5z"/>
	<path class="st0" d="M67.6,381.9c-5,7.7-10.7,10.1-17.8,2.6C55.7,383.6,61.6,382.8,67.6,381.9z"/>
	<path class="st0" d="M131.2,205.4c-1.7,0-3.3,0.1-5,0.1c-3.4,2.9-6.8,2.7-10.2,0C121,197.5,126,197.7,131.2,205.4z"/>
	<path class="st0" d="M164.4,195.8c-3.5-6.3-2.7-10.2-1.1-15.6C168.2,185.3,167.1,189.3,164.4,195.8z"/>
	<path class="st0" d="M161.7,205.4c-5.1,0-10.2,0-15.2,0C151.5,196,156.6,199.6,161.7,205.4z"/>
	<path class="st0" d="M166.2,151.5c-2,3.2-4.2,4.4-6.7,4.3c-2.8-0.1-2.9-2.6-2.3-4.6c0.6-2.1,2.3-3.7,4.6-2.8
		C163.5,149,164.8,150.5,166.2,151.5z"/>
	<path class="st0" d="M123.5,489.3c0-1.7,0-3.4,0-5.1c1.1,0.7,2.5,1.1,3.1,2.1c1.7,2.8,9.4,3.4,4.8,7.9
		C127.6,498.1,125.7,491.9,123.5,489.3z"/>
	<path class="st50" d="M115.9,205.5c3.4,0,6.8,0,10.2,0c1.8,0.9,3.6,1.8,5.5,2.7c-4.4,1.6-8.8,3.3-13.1,4.9
		C117.6,210.6,116.8,208,115.9,205.5z"/>
	<path class="st0" d="M89.4,395.6c-0.9,2.6-2.8,4-5.6,3.8c-2-0.2-2.8-1.6-2.3-3.4c0.7-2.2,2.6-3.2,4.7-3.3
		C88.1,392.6,89.4,393.5,89.4,395.6z"/>
	<path class="st0" d="M58.9,229.9c-2.1-0.8-3.5-2.4-3.1-4.6c0.4-2.1,1.8-3.8,4.3-3.2c1.9,0.5,2.1,2.2,2.1,3.9
		C62.3,228.2,61.7,230,58.9,229.9z"/>
	<path class="st57" d="M270.6,233.6c3.8,8.8-4.3,8.6-8.4,9.9c-4.2,1.3-9.1,0.4-13.7,0.5c-3.7-1.5-7.4-2.9-11.1-4.4
		c-7.9-7.4-14.1-16.1-17.9-26.3c-0.2-0.7-0.3-1.4-0.5-2c0.2-0.7,0.4-1.3,0.6-2c4.3-7.1,11.2-7.4,18.4-6.9c4.1,0.6,7.3,2.6,9.4,6.3
		c2.1,5.4,1.1,12.9,9.1,14.7c1,0.6,1.8,1.4,2.5,2.3c0.6,3.3,2,5.3,5.9,4.6C267.6,229.5,269.6,230.8,270.6,233.6z"/>
	<path class="st58" d="M242.7,274.6c6.6,10.4,11.9,0.7,16.4-1.9c7.6-4.4-6.1-4-2.3-8.6c4.2-1.2,6.8,4.8,12.7,1.7
		c-5.8,15.1-22.6,13.7-29.2,27.9c-1.6-7.3,5-11.9,0-16.3C238.9,274.6,240.5,274.3,242.7,274.6z"/>
	<path class="st59" d="M242.7,274.6c-0.8,0.9-1.6,1.9-2.4,2.8c-2.1-5-4.1-10.1-6.7-16.4C242.3,263.1,242,269.2,242.7,274.6z"/>
	<path class="st60" d="M374.3,221.9c-7.4,1.6-10.9-2-11.8-8.8c-0.3-2.4-0.1-5.9-3.9-4.5c-3,1.1-4.2,4.3-2.6,7.5
		c1.1,2.2,3,4.1,4.6,6.1c3.5,4.3,2.1,8-1.5,11.1c-3.8,3.3-7.9,5-12.1-1.5c9-0.7,15.8-2.7,6.4-12.2c-1.9-2-4.1-4.6-1.9-7.9
		c6.8-10.1,10.2-20.3,0-31.4C367.4,190.2,357.8,212.8,374.3,221.9z"/>
	<path class="st12" d="M331.6,193.3c-13.3-9.7,8.7-17.9-1.4-27c6.2,9,15.2,17.1,13.8,28c-1.1,9.2,1.4,9.1,8.8,5.4
		c-2.2,6.1-4.8,8-9.3,6.1c-3.7-1.6-4.8-4.6-4.1-8.3c1.1-6.2,1.2-11.9-5.2-15.9C328.6,183.5,331.9,188.3,331.6,193.3z"/>
	<path class="st61" d="M369.5,246.2c-3,6.2,4,20.2-12.3,16.2c0-0.6,0.3-1,0.9-1.1c-0.2-4.5-5.6-10.8,4.2-11.7
		C363.5,245.9,365.6,244,369.5,246.2z"/>
	<path class="st62" d="M362.3,249.6c-3.8,1.9-7.8,3.4-2.2,8.1c3.3,2.9,0.9,3.6-2,3.5c-2.6-3.8-8.7-6.5-4-12.8
		C357.6,243.7,359.7,248.7,362.3,249.6z"/>
	<path class="st63" d="M380.5,212.9c-5.4,1-7.8-2.2-8.4-6.7c-0.2-1.7,1-4.6,2.4-5.3c4.4-2.3,8.6-1.4,12.5,2.8
		c-3.9,2.4-8.5-4.1-11.1,1.4c-1.9,4.2,4.2,4.7,4.3,8.1C380.3,213.1,380.5,212.9,380.5,212.9z"/>
	<path class="st64" d="M189.7,274.3c-4.3,2-1.1,9.6-7.5,10c-3.5-0.7-4.6-3.4-5.5-6.3c0.1-3.9-3.8-7-2.2-11.2c5-2.7,8.8-8.5,15.8-5.4
		c2.4-4.2,5.3-5.9,9.2-1.8C200.3,267.4,197.3,272.3,189.7,274.3z"/>
	<path class="st65" d="M174.4,266.8c2.8,2.9,6.1,5.6,5,10.3c-5.5,1.1-7.4,6-9.9,10.1c-3.5,2.4-6.9,4.8-10.4,7.3
		c-10.3-0.5-0.8-6.8-2.8-9.8c1.3-2.8,2.6-5.5,3.9-8.3C164,271.8,168.2,267.9,174.4,266.8z"/>
	<path class="st66" d="M148.8,258.7c-1-0.8-1.9-1.6-2.9-2.5c6.8-3.3,13.5-3.4,23.3,2.5C160.3,258.7,154.6,258.7,148.8,258.7z"/>
	<path class="st30" d="M135.9,243.8c-4.6-2.3-5.3-6.3-4.5-10.8c4,10.4,13.7,3.2,20.5,6.8C146.9,243.3,140.4,239.9,135.9,243.8z"/>
	<path class="st67" d="M199.4,259.7c-3.1,0.6-6.1,1.2-9.2,1.8c-1.1-2.3-2.3-4.6-3.4-6.8c4.4-0.4,8.9-1.7,12.8,1.5
		C199.5,257.3,199.4,258.5,199.4,259.7z"/>
	<path class="st68" d="M216.1,213.3c1.9,4.6,3.8,9.1,5.7,13.7c-3.8,3.1-6.1-2.3-9.3-1.2c0,0,0.1,0.3,0.1,0.3
		c-3.3-5.5-5.5-11.4-8.6-17c-0.3-1.2-0.4-2.4-0.1-3.6c1.3-2.4,3.2-3.6,5.9-3.5C214.7,204.1,218.1,207.2,216.1,213.3z"/>
	<path class="st69" d="M216.1,213.3c-1-4.4-4.1-7.3-6.9-10.4c-1.2-3.9-7.2-6.7-2.9-12c3.2-1.4,6.3-1.1,9.2,0.8
		c4.3,5.7,5.6,12.2,4.3,19.2c-0.3,0.7-0.4,1.5-0.3,2.3C218.4,213.2,217.2,213.2,216.1,213.3z"/>
	<path class="st70" d="M181.9,287.7c0,3.2,0.1,6.4,0.1,9.6c-1.8,2.7-5.3,4.5-4.9,7c10-1.7,8.7,9.7,16,12.1c-8.7,2-12.1-6-18.4-5.7
		c-6.8-0.5-9.3-4.1-7.6-10.7c5.7-2.5,4.8-7.7,4.9-12.5C175.3,284.2,178.6,284.5,181.9,287.7z"/>
	<path class="st71" d="M219.8,211c-3.3-5.6-5.9-11.4-4.4-18.2c0.7-6.8,4.8-12,8.2-17.5c9.6-5.1,18.4-14.3,30.8-5.5
		c1.8,1.3,4.6-1.6,7.1-2.1c3.2-0.6,6-0.1,8.3,2.3c3.4,6.1,6.2,12.6,12.7,16.2c2.3,2.3,3.7,4.9,3.3,8.3c-0.4,1.2-1.1,2.2-1.9,3.1
		c-6.9,4-10.1,10-9.4,18c-1.2,4.2-2.5,8.4-3.7,12.6c-4.5,1.3-9.4,3.9-12.4-2.5c-1,0-1.9-0.1-2.9-0.1c-1.6-0.9,2.3-3.8-0.8-3.4
		c-11.1,1.6-5.6-8.6-9-12.3c-1.5-3.1-3.9-4.7-7.4-4.6c-8.1-5.6-13.5-1.6-18.1,5.2L219.8,211z"/>
	<path class="st72" d="M258.2,225.8c3.6,3.4,8.6,0.1,12.4,2.5c0,1.8,0,3.5,0,5.3c-5.4-3.2-10.2,2-15.3,1.5
		C253,230.6,257.8,229,258.2,225.8z"/>
	<path class="st55" d="M207.5,142.2c5.5-4.5,9.6-11.1,17.8-11.5c9.4-0.3,17.7-6.2,28.3-3.4c7,1.9,5.5-8.5,8.9-12.5
		c8.7,5.1-5.6,21,10.6,22.5c3.6,3.8,10.9,4.4,10.1,11.9c-1.1,0.6-2.2,0.7-3.4,0.4c-8.6-5.3-18.2-8.4-27.2-12.9
		c-8.7-4.4-17.9,0.3-26.6,3c-0.9,0.7-1.9,1.4-2.9,2c-4.5,3-8.8,6.8-14.8,3.6c-0.7-0.6-1.1-1.2-1-1.9
		C207.2,142.6,207.3,142.2,207.5,142.2z"/>
	<path class="st73" d="M283.7,197.7c0-0.9,0-1.8,0-2.6c2.8-5.9-2.2-13,2.8-18.6c1.8-0.8,3.5-0.7,4.9,0.9l-0.2-0.2
		c4,6.7,1.3,12.6-2.5,18.3C288,198.2,285.7,197.6,283.7,197.7z"/>
	<path class="st74" d="M299,167.1c0.6,4.2,1.3,8.4,1.9,12.5c-0.7-0.2-1.3,0-1.7,0.6C296.4,175.9,288.8,171.6,299,167.1z"/>
	<path class="st75" d="M288.9,195.5c0.9-6.1,3.7-11.9,2.5-18.3c1.8,1.7,3.7,3.5,5.5,5.2C295.1,187.4,294.3,192.9,288.9,195.5z"/>
	<path class="st76" d="M383.2,151.7c0.7,1.9,3.3,4.5,1.5,5.4c-2.2,1-5.5-0.4-8.2-0.7c-10.4-8.7-23.2-14.4-32.1-25.1
		c-4-9.5,1.7-6.8,6.1-4.6C362.8,132.9,372.7,142.8,383.2,151.7z"/>
	<path class="st77" d="M291.5,177.4c-1.7,0-3.3,0.1-5,0.1c-7.8-5.1-1.6-13.8-5.2-19.9c-0.4-2.9-2.5-5.9,0.7-8.5c0,0,1.1,0.1,1.1,0.1
		C292,156.8,292,167,291.5,177.4z"/>
	<path class="st15" d="M181.9,287.7c-3.3-0.1-6.7-0.1-10-0.2c0,0-1.1-0.3-1.1-0.3s-1.2,0-1.2,0c-5-7.7,5.3-9.6,5.8-15.3
		c1.4,1.7,2.8,3.5,4.1,5.2c0.9,2.4,1.8,4.8,2.7,7.2C182.1,285.5,182,286.6,181.9,287.7z"/>
	<path class="st56" d="M49.8,361.5c-1.9-0.3-4.8,0-5.4-1.1c-1.2-2.1,1.2-3.2,2.9-4.1c2.7,0.5,6.8-1.5,7.8,1.5
		C56,361,52.1,361,49.8,361.5z"/>
	<path class="st78" d="M205,205.2c0,0.8-0.1,1.6-0.1,2.3c1.8,6.1,7.6,11.2,5.1,18.5c0.1,0.8,0.1,1.5,0.1,2.3c-6.5,0-9.5-2.5-6.2-9.3
		c0-9.3-11-12.5-11.6-21.4c0.8-0.7,1.7-0.9,2.8-0.8c2.4,0.8,4.1,2.6,6,4.2C202.5,202.3,204.1,203.4,205,205.2z"/>
	<path class="st79" d="M203.8,219.1c-0.3,4.7,3.7,6.5,6.2,9.3c0,2.7-0.6,5-3.9,5.4c-2.5-4.9-7.7-6.8-11.4-10.5
		c1.7-1.7,3.4-3.5,5.1-5.2C201.2,218.5,202.5,218.8,203.8,219.1z"/>
	<path class="st80" d="M210,226.1c0.6-6.8-6.1-11.6-5.1-18.5c5.7,4.8,10.2,10.2,7.7,18.5C211.8,226.1,210.9,226.1,210,226.1z"/>
	<path class="st81" d="M207.5,142.2c0.1,0.9,0.2,1.8,0.3,2.7c1.5,9.3-3.8,15.2-10,20.7c-1.9,0.6-3.7,0.4-5.1-1.1
		c-4.2-4.4-10.8-6.5-12.2-14.6c5-0.1,10,5,14.5,1.5C199.1,148.2,201.4,142.7,207.5,142.2z"/>
	<path class="st82" d="M192.6,164.5c1.4,0,2.8,0,4.2,0c5.6,4.8,3,10.3,1.5,15.7c-0.3,1.1-0.8,2.2-1.2,3.3c-3,4.4,0.6,10.1-2.7,14.4
		c-0.7-0.1-1.4-0.2-2.2-0.2c-4.5-5-3.9-11.5-1.8-16.4C192.9,175.6,192.5,170.2,192.6,164.5z"/>
	<path class="st0" d="M1,311.7c1.8-4.5-4-9.7,1.2-13c0.8-0.5,4.4,1.2,5,2.6C9.5,306.6,5.4,309.2,1,311.7z"/>
	<path class="st83" d="M245.5,210c3.6,1.4,2.8,4.7,3.4,7.5c1,4.6,3.9,1.9,6.6,2.1c5.4,0.5-2.2-10.5,4.7-5.3c4,3-1.4,6.4-3.6,9.2
		c-0.5,0.6-0.8,1.4-1.2,2.1C244.2,225.5,244.6,218,245.5,210z"/>
	<path class="st84" d="M220.1,210.7c5.8-11.5,11.4-13.1,18.1-5.2C231.2,204,225.4,206.4,220.1,210.7z"/>
	<path class="st85" d="M205,205.2c-1.7-0.7-3.4-1.4-5-2.1c-3.5-6.5-8.5-12.6-5-20.8l-0.3,0.3c6.6-5,1.8-13.1,5.1-18.8
		c4.6-8,6.7-18.5,18.7-19.7c2.4-0.2,4-2.6,4.4-5.2l-0.2,0.2c13.9-6.3,27-8.9,41,1.5c7.2,5.3,17,6.9,20.9,16.5
		c4.6,6.5-1.6,13.9,1.9,20.5c3.8,6.6,0,12-2.8,17.6c-0.8-2.5-1.7-5.1-2.5-7.6c-6.5-3.6-8.9-10.5-12.9-16.3c-2.1-0.6-4.2-1.2-6.3-1.7
		c-2.3,0.9-5.6,3.4-6.9,2.1c-12.3-12-22,3.5-33.1,2.9c-0.3,0-0.4,1.5-0.2,2.4c-1,9.9-7.1,14.3-16.2,15.6c2.9,2.8,9.9,4.3,3.5,10.3
		C207.8,203.7,206.4,204.5,205,205.2z"/>
	<path class="st86" d="M205.6,192.6c6.4-4.6,15.7-6.9,14.3-17.8c2.6-1.4,4-0.1,4.7,2.4c-2.9,5.3-2.7,12.5-9.3,15.5
		C212.1,192.7,208.9,192.7,205.6,192.6z"/>
	<path class="st87" d="M224.7,177.2c-1.6-0.8-3.1-1.6-4.7-2.4c-1.2-0.2-3.2-0.1-3.4-0.7c-1.2-2.9,1.6-4.3,3.1-3.9
		c8.4,2.2,15.3,1,20.9-6.4c1.8-2.3,5.5-0.2,6.6,1.5c3.9,6.1,9.8,3.3,14.9,4.1c-1.4,3.8-6.7,6-7.7,4.8
		C242.8,161.3,234.6,177.7,224.7,177.2z"/>
	<path class="st88" d="M268.4,171.3c1.5-0.2,3.1-0.4,4.6-0.6c-2.1,8.1,6.9,10.6,8.3,16.9C271.9,186.2,270.2,178.7,268.4,171.3z"/>
	<path class="st89" d="M284.6,157.1c-4.1,0.5-4.1-3.3-5.7-5.5c-2.2-3-2.1-3-8.1-1.2c-0.8,0.2-2.4-0.3-2.8-0.9
		c-11.5-19.6-28.7-13.8-45.3-10.4c6.8-8.7,18-9.2,25.6-6.9c11.7,3.6,24.7,7.1,33.8,16.9C282.9,151.7,283.7,154.4,284.6,157.1z"/>
	<path class="st90" d="M222.9,138.9c2.1,2,4.2,4,7.8,7.4c-10.1-1.9-18.6-1.4-22.7,7c-3.5,7.2-11.5,13.6-7,23.1
		c4.3,9-3.6,4.8-6.3,6.2c2.2-5.8,2.6-11.9,2.2-18.1c3.6-6.5,7.3-13.1,10.9-19.6C214,145.9,217.4,139.6,222.9,138.9z"/>
	<path class="st91" d="M194.9,182.4c0,7.3,3.3,13.9,5,20.8c-3.6,0.1-3.9-3.3-5.6-5.3C194,192.7,188.9,187.3,194.9,182.4z"/>
	<path class="st92" d="M209,164.1c1.4-5.5,4.5-4.7,7.3-5.3c4.1-0.9,12.4,11.4,12.2-3.6c1.1,0.1,2.7-0.2,3.4,0.4c2,1.9,2.4,4.6,1.2,7
		c-2,4-4.9,4.9-9.3,3C219.3,163.5,214.8,160.9,209,164.1z"/>
	<path class="st93" d="M244.5,142.9c-1,8.1-1.6,14.4,8.2,11.8c1.1-0.3,0.5-4.1,2.9-1.9c1,0.9,1,3.1,1.2,4.7c0.3,2.8-2.1,2.1-3.4,2.3
		c-4.5,0.5-8.5-0.8-11-4.7C239.9,151.5,238.4,147.6,244.5,142.9z"/>
</g>
</svg>
