<?xml version="1.0" encoding="utf-8"?>
<!-- Generator: Adobe Illustrator 25.4.1, SVG Export Plug-In . SVG Version: 6.00 Build 0)  -->
<svg version="1.1" id="Capa_1" xmlns="http://www.w3.org/2000/svg" xmlns:xlink="http://www.w3.org/1999/xlink" x="0px" y="0px"
	 viewBox="0 0 595.3 841.9" style="enable-background:new 0 0 595.3 841.9;" xml:space="preserve">
<style type="text/css">
	.st0{fill:#FFFFFF;}
	.st1{fill:#E6007E;}
	.st2{fill:#BE1622;}
	.st3{fill:#CBCACA;}
	.st4{fill:#919090;}
</style>
<g>
	<path class="st0" d="M239.1,29.9c0.4-3.8,0.5-7.7,1.4-11.4c0.8-3.6,2.3-6.9,3.7-10.8c5.3,8.4-0.2,15.2-2.6,22.3
		C240.7,30,239.9,29.9,239.1,29.9z"/>
	<path class="st0" d="M285.3,471.3c-12.7,16.6-5.3,34-7.5,50.3c2-9.8,1.4-20.6,12.5-25.8c9.3-4.4,18.3-9.8,29.5-5.6
		c-3.6,0.8-7.3,2-10.9,2.2c-10.3,0.3-17.7,5.1-21.7,14.7c-1.7,4-3.1,8.1-5.1,11.9c-6.3,12.1-6,25.1-5.9,38.2c0.1,8.7,0,17.4,0,26.6
		c3.7-0.5,5.6-0.8,9.4-1.3c-9.5,11.5-9.5,23.8-9.8,36.5c-0.3,12.3-4.1,24.5-4.3,36.8c-0.2,19.2,1.4,38.4,2.2,57.6
		c0.1,1.7,0,3.5,0,5.3c-0.6,0.1-1.1,0.2-1.7,0.3c-1.2-3.9-2.4-7.7-3.4-11.6c-2.2-8.5-3.4-17.3-6.5-25.4c-4-10.4-1.7-20.3,0.2-30.2
		c7.3-40,5.8-80.5,7.2-120.9c0.1-2.4-0.9-5-1.7-7.3c-0.8-2.2-2-4.1-2.4-4.9c2.1-2.3,4.9-3.9,4.9-5.5c0-17.3-0.4-34.6-0.8-51.9
		c0-1.6-0.8-3.3-0.9-3.8c-6.6-1.2-12.5-2.7-18.4-3.2c-12.3-1-17.4-10.5-22.5-19.4c-4.2-7.4-3.6-7.7-11-3.6
		c2.4-11.1,7.3-14.7,18.7-14.3c5.1,0.2,11-2.1,15.3-0.3c5.9,2.4,10.9,7.4,16,11.6c1.6,1.3,2.2,3.7,3.7,6.4c2.8-12.2,0.8-35.5-3.7-48
		c6.6-3.1,7-7.3,1.5-12.3c-3.9-3.5-7.9-7-11.5-10.8c-1.1-1.2-2.1-4.3-1.5-4.9c3.9-3.9,7.9-8.3,12.7-10.8c2.7-1.4,4.2-2,4-5
		c-0.4-5.5-0.6-10.9-0.9-16.7c-6.4,2.1-11.8,4.2-17.4,5.7c-7.4,2-13.6,0.7-19.8-4.7c-7.5-6.6-11.7-14.8-16-23.3
		c-5.4-10.7-10.1-21.6-12.6-33.4c-0.3-1.5-1.6-3.2-2.9-4.1c-7.9-5.3-9.4-13.1-9.4-23.7c3.7,5.8,6.9,10,9.1,14.6
		c4.9,10.4,6.6,11.4,18.1,10.1c4.4-0.5,9.3,1.5,13.3,0.3c10.4-3.2,18.2,3,26.6,6.3c3.5,1.4,6,5.4,10,9.2
		c-0.1-22.1,4.1-43.4-1.5-64.7c0.6-0.6,2.9-2.1,2.7-2.9c-0.5-1.9-1.8-4.4-3.5-5.2c-4.9-2.2-14.4,0.7-18.1,5
		c-2.1,2.4-4.3,4.8-6.2,7.3c-1.8,2.5-3.4,5.2-5.6,7.3c2.1-12.4,10.6-19.8,20.7-25.9c-11.2-6-18.1,4.1-27.5,6.5
		c3.2-2.8,6.3-5.7,8.5-7.6c-13.2-10.2-26.1-20-38.9-30.1c-4.1-3.2-4.8-6.6-2.2-12.1c3.6-7.7,6.8-15.4,4.4-25.4
		c-2.3-9.7,0.2-20.6,0.5-30.9c0.2-6.6,0.5-13.2,0.5-19.8c0-2.2-0.6-4.4-0.9-6.6c0.5-0.2,1.1-0.4,1.6-0.6c1.1,2.1,2.3,4.1,3.3,6.3
		c1.6,3.5,2.5,7.4,4.6,10.5c1.3,2,4.8,4.4,6.3,3.9c2.5-0.9,5.7-3.8,6.1-6.2c0.8-4.7,0.3-9.8-0.7-14.5c-2.8-13.3-3.6-26.3,2.5-38.9
		c0.6-1.3,1.3-2.7,2-4c0.3-0.5,0.9-0.7,2.5-1.9c-2.7,14,7,23.4,10.2,34.8c0.6,2,4,4.7,5.8,4.4c1.9-0.3,3.6-3.5,4.8-5.7
		c0.6-1.1,0.3-3-0.1-4.4c-3.1-12.6,0.5-24,6.2-35.1c2.9-5.6,4.9-11.5,8.9-17.8c0.4,4.7,1.3,9.4,1.1,14.1c-0.2,6-2,11.9-1.9,17.8
		c0.1,4.5,1.6,9.1,3.4,13.4c0.7,1.7,3.6,3.2,5.6,3.2c1.3,0,2.9-2.7,3.7-4.5c1.3-3.2,2-6.6,3.9-9.6c2.2,11.8,4.3,23.6,6.8,36.7
		c1.9,1,5.3,3.7,9.1,4.3c2.6,0.5,6.6-1,8.5-3c3.6-3.8,6-8.8,9.3-12.9c8.4-10.2,10.4-21.7,7.7-34.3c-0.2-1-0.3-2.1-0.4-3.2
		c0-0.2,0.2-0.4,0.3-0.6c3.8,1.8,8.2,9.8,10.1,17.7c2.1,8.6,1.5,16.9-1.3,25.2c-1.4,4-2.9,8.3-2.8,12.4c0.1,3,2.8,6,4.4,8.9
		c2.8-1.5,6.3-2.4,8.4-4.7c2.5-2.8,3.6-6.7,5.7-10c1.3-2.1,3.2-3.9,5.6-5.5c-5.9,12.7-4.7,26.2-6.4,39.4c-1.2,9.2,1.2,16.6,4.4,24.5
		c2,5,2.6,9.6-1.9,14.1c-2.1,2.1-2.7,5.7-3.9,8.6c-2.5,5.8-4.9,11.6-7.6,18c0.7,0.6,2,1.8,3.7,3.4c-6.1,10.5-12.2,20.6-26.3,21.6
		c0.9,2.3,1.6,4.1,2.7,7c-8.7-8.7-17.6-11.2-23.6-5.9c13.1,2.1,22.1,7.9,22,23.1c-1.2-2.5-2.3-3.8-2.7-5.4c-1.8-8.2-7.3-11.1-15-11
		c-0.2,0-0.4,0-0.6,0c-15.6-1.5-17.1-0.2-18.2,15.9c-0.2,3.2-0.6,6.5-0.1,9.6c0.3,2.2,2,4.2,3.8,7.7c-6.6,12.2-4.5,27.6-4.8,42.6
		c-0.2,12.2,0.5,24.4,1,36.5c0.1,2.5,1.1,5,1.7,7.5c0.8,0,1.5,0,2.3,0c0.4-2,1.4-4.1,1.2-6c-0.4-3.4-1-6.8-2.2-10
		c-5.5-14.4,9.5-28.3,21.5-30.1c0.6-0.1,1.3-0.1,1.8-0.5c10.7-7.1,21.4-5.8,33.1-1.6c11.2,4,19.7,9.6,24,20.8
		c2.8,7.2,5.6,14.4,8.4,21.7c-0.8,0.4-1.7,0.8-2.5,1.1c-1.9-4.5-4.7-8.8-5.5-13.4c-0.7-4.4-2.6-6.3-6.3-6.4
		c-9.4-0.4-18.2,1.6-25.7,7.5c-4.4,3.4-8.6,6.9-12.8,10.5c-6.1,5.2-13.1,6.4-20.9,5.7c-10.5-0.9-12,0.4-15,11.3
		c0.9-0.1,1.9,0.2,2.4-0.2c7.6-6.7,15-4.6,22.9-0.2c13.4,7.3,22.7,26.1,20.6,41.4c-1.1,8-1,16.2-2.4,24.5
		c-2.7-8.1-7.6-11.6-15.8-12.5c-4.5-0.5-8.5-4.6-12.8-6.9c-5.7-3-11.5-5.9-18.8-9.6c0,24.8,0,47.8,0,70.8c0.5,0,0.9,0.1,1.4,0.1
		c0.2-3.4,0.4-6.7,0.5-10.1c0.2-5.5,1.9-9.4,7.5-12c7.1-3.2,14.3-4.3,22-5.3c11.1-1.4,21.7,0.5,32.6,0.6c2.3,0,5-1.2,6.7-2.7
		c2-1.7,3.3-4.4,4.9-6.7c0.6,0.5,1.3,1,1.9,1.5c-0.2,1.1,0,2.6-0.7,3.1c-5.5,4.8-11.1,9.5-16.8,14.1c-1.8,1.4-4.8,1.7-6,3.4
		c-5.9,7.9-14.5,12.4-21.6,18.6c-5.1,4.4-9.8,5.3-15.6,3.8c-3.1-0.8-6.3-1.6-9-3.1c-5.1-3-7.2,0-8.4,4c-0.8,2.6-0.6,5.5-0.7,8.3
		C277.6,471.6,278.9,474.1,285.3,471.3z M227,154.7c1.9,3,3.6,4.8,4.4,7c4,10.6,12.5,14.8,22.7,17.7c6.7,1.9,13.3,4.7,19.3,8.2
		c12.2,7.2,25.4,11.2,39.4,12.2c11.1,0.8,20.8-6.4,23.4-17.1c-14.5-5-29.3-7.2-44.6-4.9c-10.4,1.6-21.4,3.5-30.6-2.8
		c-9.4-6.4-17.7-14.5-26.4-21.7c2.3-0.6,7.5,0.7,4.3-6.6C234.7,149.5,231,152,227,154.7z M241.4,141.7c-4.4-4.7-8.8-9.4-13.3-14.2
		c-10.3,2.1-16.6,8.7-20,18.4c-1.7,4.8-3.2,9.7-5.3,14.4c-3.8,8.1-3.6,9.7,4.9,11.6c9.4,2.1,17.3,6.5,25,12.2
		c3.7,2.8,8.9,3.8,13.5,4.8c2,0.4,4.4-1.1,6.6-1.7c0.2-0.7,0.5-1.3,0.7-2c-15.2-5.5-25.8-15.2-29.8-32.4
		C228.8,149.6,234.7,145.8,241.4,141.7z M252.8,130.8c3-17.4,12.7-26,29.1-26.8c17.8-0.9,23.2,13.5,30.8,26.6c0.7-2.1,1.4-3,1.2-3.5
		c-2.4-6.4-4.3-13-7.5-18.9c-3.3-6.1-6.7-13.2-14.7-13.9c-8.3-0.7-16.7-0.9-24.9,0c-13.3,1.5-22.7,19.2-17.4,31.7
		C249.8,127.3,250.9,128.3,252.8,130.8z M324.6,127.7c0.7-2.5,2-5.5,2.2-8.6c0.4-5.4,1.3-11.1-0.2-16c-1.8-6-6-11.2-9.2-16.7
		c-0.5-0.8-1.8-1.8-2.4-1.7c-5.4,1.8-10.7,3.9-14.7,5.4c5.1,10.4,9.6,19.7,14.2,28.9c0.8,1.6,2.1,3,3.5,4.1
		C320,124.8,322.2,126.1,324.6,127.7z M206,136.5c6.2-4.2,11.4-9.8,17.6-11.3c6.8-1.7,7.7-5.3,8.2-10.5c0.2-1.9,0-3.9,0.2-5.7
		c0.9-6.4-2.9-10.4-9-8.3c-5.7,2-11,5.4-16.4,8.5c-0.9,0.5-1.2,2.5-1.2,3.9c-0.1,5.7-0.1,11.4,0,17.1
		C205.4,132.4,205.8,134.7,206,136.5z M294.3,154.5c-2.6-1.2-4.2-2.4-5.9-2.7c-3.5-0.7-7.2-1.5-10.7-1.1c-9.1,1.1-16.5-2.7-24-7
		c-2.2-1.2-7.5-1.4-7.8-0.6c-1.3,3.6-3.3,9-1.6,11.2c4.7,6.1,11,10.9,16.8,16.3C267.6,156.3,282.9,161,294.3,154.5z M340.8,149.5
		c-6.3,11.6-17.6,17.1-28.4,23.2c8.2-0.4,14.9-3.4,20.4-8.9c4.5-4.5,9.5-8.6,13.6-13.4c1.8-2.1,2.9-5.9,2.5-8.7
		c-0.5-3.6-2.4-7.3-4.5-10.5c-2.3-3.7-6-5.1-11.4-3.2c3.4,12.8-1.4,22.3-12.3,29.2c-1.5,1-1.7,4-2.5,6.1c0.6,0.4,1.2,0.9,1.9,1.3
		C326.9,159.6,333.9,154.6,340.8,149.5z M295.2,88c-10.2-7.7-22-5.2-32.3-8.4c-9.1,6.8-22.2,7.4-29.4,18c1.2,1,2.1,2.1,2.5,1.9
		c17.7-6.7,35.6-11.9,54.9-9.5C291.9,90.2,293.1,89.1,295.2,88z M286.1,145c10.2,8.4,14.2,9.2,19.4,4.4c7.9-7.3,7.6-12.5-1.1-24.6
		C298.3,131.5,292.2,138.3,286.1,145z M248.3,100c-10.2,2.8-15.8,13.3-14.7,25.7c0.6,6.5,9.8,12.2,23.3,14
		c-8.5-6.6-14.6-14.2-14.4-23C247.9,110.9,245.5,104.6,248.3,100z M269,165.9c0,0.4,0,0.9,0.1,1.3c5.2,0.5,10.4,1,15.6,1.5
		c1.4,0.1,3.1,0.5,4.2,0c13.8-6.2,24.2-16,31.8-29c2.9-5,1.5-8.6-2.6-13.4c-0.9,3.3-1.7,5.7-2.1,8c-2.3,15.7-7.1,21-22.5,25
		C285.2,161.4,277.1,163.7,269,165.9z M214.7,176.6c-0.3,0.6-0.6,1.1-0.9,1.7c20.5,19.1,40.6,26.1,55.1,17.3
		c-6.2-1.7-11.2-4.7-15.4-3.8c-10.5,2.3-18.7-0.5-26.5-7.2C223.4,181.5,218.9,179.2,214.7,176.6z M315.1,155.7
		c-7.4,4.8-15.1,10.1-23.2,15c-2.1,1.2-5,1.6-7.5,1.5c-6.2-0.3-12.3-1.1-18.5-1.7c-0.2,0.9-0.4,1.8-0.7,2.8c2.5,0.8,5,2.3,7.5,2.2
		c8.5-0.4,17-1.3,25.4-2C309.8,172.5,315.2,166.4,315.1,155.7z M256.9,133.3c-0.2,0.7-0.5,1.4-0.7,2.1c7.3,3.6,14.6,7.2,22,10.6
		c0.9,0.4,3-0.5,3.8-1.4c4.2-4.4,8.1-8.9,12.1-13.4C282.1,135.5,269.7,137.6,256.9,133.3z M324.7,175.4c9.5,4,14.2-0.1,17.9-16.7
		C336.9,164.1,330.8,169.8,324.7,175.4z M266.4,126.9c11.8-14.4,13.8-15.1,25.5-8.9c0.3-6.2-4-7.3-8.2-7.1
		C274.6,111.1,265.2,120,266.4,126.9z M280.5,107.3c-12.9,0.9-19.7,5.6-18.2,12.6C268.5,115.6,275,111.1,280.5,107.3z M274.6,195.3
		c0.2-0.7,0.5-1.4,0.7-2c-3-1.8-6-3.8-9.1-5.5c-3.2-1.7-6.6-3.1-9.9-4.7c-0.4,0.8-0.7,1.5-1.1,2.3
		C261.7,188.6,268.1,192,274.6,195.3z M280.3,132.1c0-0.6,0-1.3,0-1.9c-2.7-1.8-5.3-3.6-8.3-5.7c-0.9,2.3-1.6,4-2.8,7
		C273.5,131.8,276.9,132,280.3,132.1z M285.3,130.7c10.1-2.9,15.6-7.8,15.6-12.3C296.2,122,291.2,126,285.3,130.7z"/>
	<path class="st0" d="M300,67.2c-5.5-12,3.7-23.7-0.6-35.9c6.5,3.5,8.4,10.4,6,17.9C303.5,55,301.9,60.8,300,67.2z"/>
	<path class="st0" d="M346,52.5c-2.9-7.4-5.9-14.6,0.1-21.8C345.6,38.1,350.6,45.3,346,52.5z"/>
	<path class="st0" d="M207.6,51.6c0,5.8,0,10.3,0,15C201.3,63.4,201.1,58.7,207.6,51.6z"/>
	<path d="M227,154.7c4-2.7,7.7-5.3,11.8-8.1c3.2,7.3-2,6-4.3,6.6c8.7,7.2,17,15.3,26.4,21.7c9.2,6.3,20.2,4.4,30.6,2.8
		c15.4-2.3,30.1-0.1,44.6,4.9c-2.5,10.7-12.2,17.9-23.4,17.1c-14-1-27.1-4.9-39.4-12.2c-6-3.5-12.6-6.3-19.3-8.2
		c-10.2-2.9-18.7-7.1-22.7-17.7C230.6,159.6,228.9,157.7,227,154.7z"/>
	<path d="M241.4,141.7c-6.6,4.2-12.6,8-17.6,11.2c4,17.2,14.6,26.9,29.8,32.4c-0.2,0.7-0.5,1.3-0.7,2c-2.2,0.6-4.6,2.1-6.6,1.7
		c-4.7-1-9.9-2-13.5-4.8c-7.7-5.7-15.6-10.1-25-12.2c-8.5-1.9-8.7-3.5-4.9-11.6c2.2-4.6,3.7-9.5,5.3-14.4c3.4-9.8,9.7-16.3,20-18.4
		C232.6,132.3,237,137,241.4,141.7z"/>
	<path d="M252.8,130.8c-1.9-2.5-3-3.6-3.5-4.8c-5.3-12.5,4-30.2,17.4-31.7c8.2-0.9,16.7-0.7,24.9,0c8.1,0.7,11.5,7.8,14.7,13.9
		c3.2,5.9,5.1,12.6,7.5,18.9c0.2,0.5-0.4,1.4-1.2,3.5c-7.6-13.1-13-27.5-30.8-26.6C265.5,104.9,255.8,113.4,252.8,130.8z"/>
	<path d="M324.6,127.7c-2.4-1.6-4.6-2.9-6.6-4.6c-1.4-1.1-2.7-2.6-3.5-4.1c-4.6-9.2-9.1-18.5-14.2-28.9c4-1.5,9.3-3.6,14.7-5.4
		c0.6-0.2,1.9,0.9,2.4,1.7c3.3,5.5,7.4,10.8,9.2,16.7c1.5,4.9,0.6,10.7,0.2,16C326.6,122.2,325.3,125.2,324.6,127.7z"/>
	<path d="M206,136.5c-0.2-1.8-0.6-4.1-0.6-6.4c-0.1-5.7-0.1-11.4,0-17.1c0-1.3,0.3-3.4,1.2-3.9c5.3-3.1,10.6-6.5,16.4-8.5
		c6.1-2.2,9.9,1.8,9,8.3c-0.3,1.9,0,3.8-0.2,5.7c-0.5,5.2-1.4,8.8-8.2,10.5C217.4,126.7,212.2,132.3,206,136.5z"/>
	<path d="M294.3,154.5c-11.4,6.6-26.6,1.8-33.3,16c-5.8-5.4-12.1-10.2-16.8-16.3c-1.7-2.2,0.3-7.6,1.6-11.2c0.3-0.7,5.6-0.6,7.8,0.6
		c7.5,4.3,14.9,8.1,24,7c3.5-0.4,7.2,0.5,10.7,1.1C290.1,152.1,291.7,153.3,294.3,154.5z"/>
	<path d="M340.8,149.5c-6.9,5-13.9,10.1-20.8,15.1c-0.6-0.4-1.2-0.9-1.9-1.3c0.8-2.1,1-5.1,2.5-6.1c10.9-6.9,15.7-16.4,12.3-29.2
		c5.4-1.9,9-0.5,11.4,3.2c2,3.2,3.9,6.8,4.5,10.5c0.4,2.8-0.7,6.5-2.5,8.7c-4.1,4.8-9.1,8.9-13.6,13.4c-5.6,5.6-12.3,8.5-20.4,8.9
		C323.2,166.7,334.5,161.1,340.8,149.5z"/>
	<path class="st1" d="M295.2,88c-2.2,1.1-3.3,2.2-4.3,2c-19.3-2.4-37.2,2.8-54.9,9.5c-0.4,0.2-1.3-1-2.5-1.9
		c7.2-10.6,20.3-11.2,29.4-18C273.2,82.8,285,80.4,295.2,88z"/>
	<path d="M286.1,145c6.1-6.8,12.2-13.5,18.3-20.2c8.8,12.1,9,17.3,1.1,24.6C300.3,154.2,296.3,153.4,286.1,145z"/>
	<path d="M248.3,100c-2.7,4.6-0.4,10.9-5.8,16.7c-0.2,8.9,5.8,16.4,14.4,23c-13.5-1.8-22.7-7.5-23.3-14
		C232.5,113.3,238.1,102.8,248.3,100z"/>
	<path class="st1" d="M269,165.9c8.1-2.2,16.3-4.5,24.5-6.6c15.4-4,20.2-9.2,22.5-25c0.4-2.4,1.2-4.7,2.1-8
		c4.1,4.8,5.5,8.4,2.6,13.4c-7.6,13.1-18.1,22.8-31.8,29c-1.2,0.5-2.8,0.2-4.2,0c-5.2-0.5-10.4-1-15.6-1.5
		C269,166.8,269,166.3,269,165.9z"/>
	<path d="M214.7,176.6c4.2,2.6,8.7,4.9,12.4,8c7.8,6.7,16,9.5,26.5,7.2c4.2-0.9,9.2,2.1,15.4,3.8c-14.6,8.8-34.7,1.8-55.1-17.3
		C214.2,177.7,214.5,177.1,214.7,176.6z"/>
	<path d="M315.1,155.7c0.1,10.6-5.4,16.8-16.9,17.8c-8.5,0.7-16.9,1.7-25.4,2c-2.5,0.1-5-1.4-7.5-2.2c0.2-0.9,0.4-1.8,0.7-2.8
		c6.2,0.6,12.3,1.4,18.5,1.7c2.5,0.1,5.4-0.3,7.5-1.5C300,165.8,307.8,160.5,315.1,155.7z"/>
	<path class="st1" d="M256.9,133.3c12.8,4.3,25.3,2.2,37.1-2.1c-4,4.5-7.9,9-12.1,13.4c-0.9,0.9-2.9,1.8-3.8,1.4
		c-7.4-3.3-14.7-7-22-10.6C256.4,134.7,256.6,134,256.9,133.3z"/>
	<path d="M324.7,175.4c6-5.6,12.1-11.3,17.9-16.7C338.9,175.3,334.2,179.4,324.7,175.4z"/>
	<path class="st2" d="M266.4,126.9c-1.2-6.8,8.1-15.7,17.3-16c4.2-0.1,8.5,0.9,8.2,7.1C280.2,111.7,278.2,112.5,266.4,126.9z"/>
	<path d="M280.5,107.3c-5.5,3.8-12,8.3-18.2,12.6C260.8,112.9,267.6,108.1,280.5,107.3z"/>
	<path d="M274.6,195.3c-6.5-3.3-12.9-6.6-19.4-10c0.4-0.8,0.7-1.5,1.1-2.3c3.3,1.6,6.7,3,9.9,4.7c3.1,1.7,6.1,3.7,9.1,5.5
		C275,193.9,274.8,194.6,274.6,195.3z"/>
	<path d="M280.3,132.1c-3.4-0.2-6.8-0.3-11-0.5c1.2-3.1,1.9-4.8,2.8-7c3,2,5.6,3.8,8.3,5.7C280.4,130.9,280.4,131.5,280.3,132.1z"/>
	<path class="st2" d="M285.3,130.7c6-4.8,11-8.7,15.6-12.3C300.8,122.9,295.3,127.9,285.3,130.7z"/>
	<path d="M329.6,135.6c0-5.8,0-11.7,0-17.5C330.7,123.9,333.6,129.6,329.6,135.6z"/>
	<path d="M251.9,138.5c0.4-0.4,0.8-0.9,1.2-1.3c2.9,1.6,5.8,3.2,8.6,4.8C257.5,142.9,254.6,140.9,251.9,138.5z"/>
	<path d="M279.3,119.5c2,0,3.3,1,3.4,3c0.1,1.2-0.8,2.1-1.9,1.8c-1.5-0.4-3.4-1.1-3.9-2.7C276.5,119.9,278.1,119.7,279.3,119.5z"/>
	<path class="st3" d="M294.6,109.7c3.4,0.9,6.8,1.6,7.2,6.6C297.9,114.9,296.3,112.1,294.6,109.7z"/>
	<path d="M287.1,116.5c2,1.1,4.3,1.9,3,4.6c-0.2,0.5-1.2,1-1.5,0.9C285.8,120.7,288.6,118.2,287.1,116.5z"/>
	<path class="st4" d="M278.8,108.6c-0.4-0.4-0.8-0.8-1.2-1.2c2.8-2.5,5.9-1,9.1-0.4C284.1,107.5,281.4,108.1,278.8,108.6z"/>
</g>
</svg>
